<?xml version="1.0" encoding="utf-8" standalone="no"?>
<!DOCTYPE svg PUBLIC "-//W3C//DTD SVG 1.1//EN"
  "http://www.w3.org/Graphics/SVG/1.1/DTD/svg11.dtd">
<svg xmlns:xlink="http://www.w3.org/1999/xlink" width="720pt" height="432pt" viewBox="0 0 720 432" xmlns="http://www.w3.org/2000/svg" version="1.1">
 <metadata>
  <rdf:RDF xmlns:dc="http://purl.org/dc/elements/1.1/" xmlns:cc="http://creativecommons.org/ns#" xmlns:rdf="http://www.w3.org/1999/02/22-rdf-syntax-ns#">
   <cc:Work>
    <dc:type rdf:resource="http://purl.org/dc/dcmitype/StillImage"/>
    <dc:date>2023-03-30T12:46:14.642382</dc:date>
    <dc:format>image/svg+xml</dc:format>
    <dc:creator>
     <cc:Agent>
      <dc:title>Matplotlib v3.7.0, https://matplotlib.org/</dc:title>
     </cc:Agent>
    </dc:creator>
   </cc:Work>
  </rdf:RDF>
 </metadata>
 <defs>
  <style type="text/css">*{stroke-linejoin: round; stroke-linecap: butt}</style>
 </defs>
 <g id="figure_1">
  <g id="patch_1">
   <path d="M 0 432 
L 720 432 
L 720 0 
L 0 0 
L 0 432 
z
" style="fill: none"/>
  </g>
  <g id="axes_1">
   <g id="patch_2">
    <path d="M 90 384.48 
L 648 384.48 
L 648 51.84 
L 90 51.84 
L 90 384.48 
z
" style="fill: none"/>
   </g>
   <g id="matplotlib.axis_1">
    <g id="xtick_1">
     <g id="line2d_1">
      <defs>
       <path id="mfd79452b60" d="M 0 0 
L 0 3.5 
" style="stroke: #000000; stroke-width: 0.8"/>
      </defs>
      <g>
       <use xlink:href="#mfd79452b60" x="115.363636" y="384.48" style="stroke: #000000; stroke-width: 0.8"/>
      </g>
     </g>
     <g id="text_1">
      <!-- 2765 -->
      <g transform="translate(102.638636 399.078438) scale(0.1 -0.1)">
       <defs>
        <path id="DejaVuSans-32" d="M 1228 531 
L 3431 531 
L 3431 0 
L 469 0 
L 469 531 
Q 828 903 1448 1529 
Q 2069 2156 2228 2338 
Q 2531 2678 2651 2914 
Q 2772 3150 2772 3378 
Q 2772 3750 2511 3984 
Q 2250 4219 1831 4219 
Q 1534 4219 1204 4116 
Q 875 4013 500 3803 
L 500 4441 
Q 881 4594 1212 4672 
Q 1544 4750 1819 4750 
Q 2544 4750 2975 4387 
Q 3406 4025 3406 3419 
Q 3406 3131 3298 2873 
Q 3191 2616 2906 2266 
Q 2828 2175 2409 1742 
Q 1991 1309 1228 531 
z
" transform="scale(0.015625)"/>
        <path id="DejaVuSans-37" d="M 525 4666 
L 3525 4666 
L 3525 4397 
L 1831 0 
L 1172 0 
L 2766 4134 
L 525 4134 
L 525 4666 
z
" transform="scale(0.015625)"/>
        <path id="DejaVuSans-36" d="M 2113 2584 
Q 1688 2584 1439 2293 
Q 1191 2003 1191 1497 
Q 1191 994 1439 701 
Q 1688 409 2113 409 
Q 2538 409 2786 701 
Q 3034 994 3034 1497 
Q 3034 2003 2786 2293 
Q 2538 2584 2113 2584 
z
M 3366 4563 
L 3366 3988 
Q 3128 4100 2886 4159 
Q 2644 4219 2406 4219 
Q 1781 4219 1451 3797 
Q 1122 3375 1075 2522 
Q 1259 2794 1537 2939 
Q 1816 3084 2150 3084 
Q 2853 3084 3261 2657 
Q 3669 2231 3669 1497 
Q 3669 778 3244 343 
Q 2819 -91 2113 -91 
Q 1303 -91 875 529 
Q 447 1150 447 2328 
Q 447 3434 972 4092 
Q 1497 4750 2381 4750 
Q 2619 4750 2861 4703 
Q 3103 4656 3366 4563 
z
" transform="scale(0.015625)"/>
        <path id="DejaVuSans-35" d="M 691 4666 
L 3169 4666 
L 3169 4134 
L 1269 4134 
L 1269 2991 
Q 1406 3038 1543 3061 
Q 1681 3084 1819 3084 
Q 2600 3084 3056 2656 
Q 3513 2228 3513 1497 
Q 3513 744 3044 326 
Q 2575 -91 1722 -91 
Q 1428 -91 1123 -41 
Q 819 9 494 109 
L 494 744 
Q 775 591 1075 516 
Q 1375 441 1709 441 
Q 2250 441 2565 725 
Q 2881 1009 2881 1497 
Q 2881 1984 2565 2268 
Q 2250 2553 1709 2553 
Q 1456 2553 1204 2497 
Q 953 2441 691 2322 
L 691 4666 
z
" transform="scale(0.015625)"/>
       </defs>
       <use xlink:href="#DejaVuSans-32"/>
       <use xlink:href="#DejaVuSans-37" x="63.623047"/>
       <use xlink:href="#DejaVuSans-36" x="127.246094"/>
       <use xlink:href="#DejaVuSans-35" x="190.869141"/>
      </g>
     </g>
    </g>
    <g id="xtick_2">
     <g id="line2d_2">
      <g>
       <use xlink:href="#mfd79452b60" x="187.831169" y="384.48" style="stroke: #000000; stroke-width: 0.8"/>
      </g>
     </g>
     <g id="text_2">
      <!-- 2770 -->
      <g transform="translate(175.106169 399.078438) scale(0.1 -0.1)">
       <defs>
        <path id="DejaVuSans-30" d="M 2034 4250 
Q 1547 4250 1301 3770 
Q 1056 3291 1056 2328 
Q 1056 1369 1301 889 
Q 1547 409 2034 409 
Q 2525 409 2770 889 
Q 3016 1369 3016 2328 
Q 3016 3291 2770 3770 
Q 2525 4250 2034 4250 
z
M 2034 4750 
Q 2819 4750 3233 4129 
Q 3647 3509 3647 2328 
Q 3647 1150 3233 529 
Q 2819 -91 2034 -91 
Q 1250 -91 836 529 
Q 422 1150 422 2328 
Q 422 3509 836 4129 
Q 1250 4750 2034 4750 
z
" transform="scale(0.015625)"/>
       </defs>
       <use xlink:href="#DejaVuSans-32"/>
       <use xlink:href="#DejaVuSans-37" x="63.623047"/>
       <use xlink:href="#DejaVuSans-37" x="127.246094"/>
       <use xlink:href="#DejaVuSans-30" x="190.869141"/>
      </g>
     </g>
    </g>
    <g id="xtick_3">
     <g id="line2d_3">
      <g>
       <use xlink:href="#mfd79452b60" x="260.298701" y="384.48" style="stroke: #000000; stroke-width: 0.8"/>
      </g>
     </g>
     <g id="text_3">
      <!-- 2775 -->
      <g transform="translate(247.573701 399.078438) scale(0.1 -0.1)">
       <use xlink:href="#DejaVuSans-32"/>
       <use xlink:href="#DejaVuSans-37" x="63.623047"/>
       <use xlink:href="#DejaVuSans-37" x="127.246094"/>
       <use xlink:href="#DejaVuSans-35" x="190.869141"/>
      </g>
     </g>
    </g>
    <g id="xtick_4">
     <g id="line2d_4">
      <g>
       <use xlink:href="#mfd79452b60" x="332.766234" y="384.48" style="stroke: #000000; stroke-width: 0.8"/>
      </g>
     </g>
     <g id="text_4">
      <!-- 2780 -->
      <g transform="translate(320.041234 399.078438) scale(0.1 -0.1)">
       <defs>
        <path id="DejaVuSans-38" d="M 2034 2216 
Q 1584 2216 1326 1975 
Q 1069 1734 1069 1313 
Q 1069 891 1326 650 
Q 1584 409 2034 409 
Q 2484 409 2743 651 
Q 3003 894 3003 1313 
Q 3003 1734 2745 1975 
Q 2488 2216 2034 2216 
z
M 1403 2484 
Q 997 2584 770 2862 
Q 544 3141 544 3541 
Q 544 4100 942 4425 
Q 1341 4750 2034 4750 
Q 2731 4750 3128 4425 
Q 3525 4100 3525 3541 
Q 3525 3141 3298 2862 
Q 3072 2584 2669 2484 
Q 3125 2378 3379 2068 
Q 3634 1759 3634 1313 
Q 3634 634 3220 271 
Q 2806 -91 2034 -91 
Q 1263 -91 848 271 
Q 434 634 434 1313 
Q 434 1759 690 2068 
Q 947 2378 1403 2484 
z
M 1172 3481 
Q 1172 3119 1398 2916 
Q 1625 2713 2034 2713 
Q 2441 2713 2670 2916 
Q 2900 3119 2900 3481 
Q 2900 3844 2670 4047 
Q 2441 4250 2034 4250 
Q 1625 4250 1398 4047 
Q 1172 3844 1172 3481 
z
" transform="scale(0.015625)"/>
       </defs>
       <use xlink:href="#DejaVuSans-32"/>
       <use xlink:href="#DejaVuSans-37" x="63.623047"/>
       <use xlink:href="#DejaVuSans-38" x="127.246094"/>
       <use xlink:href="#DejaVuSans-30" x="190.869141"/>
      </g>
     </g>
    </g>
    <g id="xtick_5">
     <g id="line2d_5">
      <g>
       <use xlink:href="#mfd79452b60" x="405.233766" y="384.48" style="stroke: #000000; stroke-width: 0.8"/>
      </g>
     </g>
     <g id="text_5">
      <!-- 2785 -->
      <g transform="translate(392.508766 399.078438) scale(0.1 -0.1)">
       <use xlink:href="#DejaVuSans-32"/>
       <use xlink:href="#DejaVuSans-37" x="63.623047"/>
       <use xlink:href="#DejaVuSans-38" x="127.246094"/>
       <use xlink:href="#DejaVuSans-35" x="190.869141"/>
      </g>
     </g>
    </g>
    <g id="xtick_6">
     <g id="line2d_6">
      <g>
       <use xlink:href="#mfd79452b60" x="477.701299" y="384.48" style="stroke: #000000; stroke-width: 0.8"/>
      </g>
     </g>
     <g id="text_6">
      <!-- 2790 -->
      <g transform="translate(464.976299 399.078438) scale(0.1 -0.1)">
       <defs>
        <path id="DejaVuSans-39" d="M 703 97 
L 703 672 
Q 941 559 1184 500 
Q 1428 441 1663 441 
Q 2288 441 2617 861 
Q 2947 1281 2994 2138 
Q 2813 1869 2534 1725 
Q 2256 1581 1919 1581 
Q 1219 1581 811 2004 
Q 403 2428 403 3163 
Q 403 3881 828 4315 
Q 1253 4750 1959 4750 
Q 2769 4750 3195 4129 
Q 3622 3509 3622 2328 
Q 3622 1225 3098 567 
Q 2575 -91 1691 -91 
Q 1453 -91 1209 -44 
Q 966 3 703 97 
z
M 1959 2075 
Q 2384 2075 2632 2365 
Q 2881 2656 2881 3163 
Q 2881 3666 2632 3958 
Q 2384 4250 1959 4250 
Q 1534 4250 1286 3958 
Q 1038 3666 1038 3163 
Q 1038 2656 1286 2365 
Q 1534 2075 1959 2075 
z
" transform="scale(0.015625)"/>
       </defs>
       <use xlink:href="#DejaVuSans-32"/>
       <use xlink:href="#DejaVuSans-37" x="63.623047"/>
       <use xlink:href="#DejaVuSans-39" x="127.246094"/>
       <use xlink:href="#DejaVuSans-30" x="190.869141"/>
      </g>
     </g>
    </g>
    <g id="xtick_7">
     <g id="line2d_7">
      <g>
       <use xlink:href="#mfd79452b60" x="550.168831" y="384.48" style="stroke: #000000; stroke-width: 0.8"/>
      </g>
     </g>
     <g id="text_7">
      <!-- 2795 -->
      <g transform="translate(537.443831 399.078438) scale(0.1 -0.1)">
       <use xlink:href="#DejaVuSans-32"/>
       <use xlink:href="#DejaVuSans-37" x="63.623047"/>
       <use xlink:href="#DejaVuSans-39" x="127.246094"/>
       <use xlink:href="#DejaVuSans-35" x="190.869141"/>
      </g>
     </g>
    </g>
    <g id="xtick_8">
     <g id="line2d_8">
      <g>
       <use xlink:href="#mfd79452b60" x="622.636364" y="384.48" style="stroke: #000000; stroke-width: 0.8"/>
      </g>
     </g>
     <g id="text_8">
      <!-- 2800 -->
      <g transform="translate(609.911364 399.078438) scale(0.1 -0.1)">
       <use xlink:href="#DejaVuSans-32"/>
       <use xlink:href="#DejaVuSans-38" x="63.623047"/>
       <use xlink:href="#DejaVuSans-30" x="127.246094"/>
       <use xlink:href="#DejaVuSans-30" x="190.869141"/>
      </g>
     </g>
    </g>
    <g id="text_9">
     <!-- frequency [MHz] -->
     <g transform="translate(327.734375 412.756563) scale(0.1 -0.1)">
      <defs>
       <path id="DejaVuSans-66" d="M 2375 4863 
L 2375 4384 
L 1825 4384 
Q 1516 4384 1395 4259 
Q 1275 4134 1275 3809 
L 1275 3500 
L 2222 3500 
L 2222 3053 
L 1275 3053 
L 1275 0 
L 697 0 
L 697 3053 
L 147 3053 
L 147 3500 
L 697 3500 
L 697 3744 
Q 697 4328 969 4595 
Q 1241 4863 1831 4863 
L 2375 4863 
z
" transform="scale(0.015625)"/>
       <path id="DejaVuSans-72" d="M 2631 2963 
Q 2534 3019 2420 3045 
Q 2306 3072 2169 3072 
Q 1681 3072 1420 2755 
Q 1159 2438 1159 1844 
L 1159 0 
L 581 0 
L 581 3500 
L 1159 3500 
L 1159 2956 
Q 1341 3275 1631 3429 
Q 1922 3584 2338 3584 
Q 2397 3584 2469 3576 
Q 2541 3569 2628 3553 
L 2631 2963 
z
" transform="scale(0.015625)"/>
       <path id="DejaVuSans-65" d="M 3597 1894 
L 3597 1613 
L 953 1613 
Q 991 1019 1311 708 
Q 1631 397 2203 397 
Q 2534 397 2845 478 
Q 3156 559 3463 722 
L 3463 178 
Q 3153 47 2828 -22 
Q 2503 -91 2169 -91 
Q 1331 -91 842 396 
Q 353 884 353 1716 
Q 353 2575 817 3079 
Q 1281 3584 2069 3584 
Q 2775 3584 3186 3129 
Q 3597 2675 3597 1894 
z
M 3022 2063 
Q 3016 2534 2758 2815 
Q 2500 3097 2075 3097 
Q 1594 3097 1305 2825 
Q 1016 2553 972 2059 
L 3022 2063 
z
" transform="scale(0.015625)"/>
       <path id="DejaVuSans-71" d="M 947 1747 
Q 947 1113 1208 752 
Q 1469 391 1925 391 
Q 2381 391 2643 752 
Q 2906 1113 2906 1747 
Q 2906 2381 2643 2742 
Q 2381 3103 1925 3103 
Q 1469 3103 1208 2742 
Q 947 2381 947 1747 
z
M 2906 525 
Q 2725 213 2448 61 
Q 2172 -91 1784 -91 
Q 1150 -91 751 415 
Q 353 922 353 1747 
Q 353 2572 751 3078 
Q 1150 3584 1784 3584 
Q 2172 3584 2448 3432 
Q 2725 3281 2906 2969 
L 2906 3500 
L 3481 3500 
L 3481 -1331 
L 2906 -1331 
L 2906 525 
z
" transform="scale(0.015625)"/>
       <path id="DejaVuSans-75" d="M 544 1381 
L 544 3500 
L 1119 3500 
L 1119 1403 
Q 1119 906 1312 657 
Q 1506 409 1894 409 
Q 2359 409 2629 706 
Q 2900 1003 2900 1516 
L 2900 3500 
L 3475 3500 
L 3475 0 
L 2900 0 
L 2900 538 
Q 2691 219 2414 64 
Q 2138 -91 1772 -91 
Q 1169 -91 856 284 
Q 544 659 544 1381 
z
M 1991 3584 
L 1991 3584 
z
" transform="scale(0.015625)"/>
       <path id="DejaVuSans-6e" d="M 3513 2113 
L 3513 0 
L 2938 0 
L 2938 2094 
Q 2938 2591 2744 2837 
Q 2550 3084 2163 3084 
Q 1697 3084 1428 2787 
Q 1159 2491 1159 1978 
L 1159 0 
L 581 0 
L 581 3500 
L 1159 3500 
L 1159 2956 
Q 1366 3272 1645 3428 
Q 1925 3584 2291 3584 
Q 2894 3584 3203 3211 
Q 3513 2838 3513 2113 
z
" transform="scale(0.015625)"/>
       <path id="DejaVuSans-63" d="M 3122 3366 
L 3122 2828 
Q 2878 2963 2633 3030 
Q 2388 3097 2138 3097 
Q 1578 3097 1268 2742 
Q 959 2388 959 1747 
Q 959 1106 1268 751 
Q 1578 397 2138 397 
Q 2388 397 2633 464 
Q 2878 531 3122 666 
L 3122 134 
Q 2881 22 2623 -34 
Q 2366 -91 2075 -91 
Q 1284 -91 818 406 
Q 353 903 353 1747 
Q 353 2603 823 3093 
Q 1294 3584 2113 3584 
Q 2378 3584 2631 3529 
Q 2884 3475 3122 3366 
z
" transform="scale(0.015625)"/>
       <path id="DejaVuSans-79" d="M 2059 -325 
Q 1816 -950 1584 -1140 
Q 1353 -1331 966 -1331 
L 506 -1331 
L 506 -850 
L 844 -850 
Q 1081 -850 1212 -737 
Q 1344 -625 1503 -206 
L 1606 56 
L 191 3500 
L 800 3500 
L 1894 763 
L 2988 3500 
L 3597 3500 
L 2059 -325 
z
" transform="scale(0.015625)"/>
       <path id="DejaVuSans-20" transform="scale(0.015625)"/>
       <path id="DejaVuSans-5b" d="M 550 4863 
L 1875 4863 
L 1875 4416 
L 1125 4416 
L 1125 -397 
L 1875 -397 
L 1875 -844 
L 550 -844 
L 550 4863 
z
" transform="scale(0.015625)"/>
       <path id="DejaVuSans-4d" d="M 628 4666 
L 1569 4666 
L 2759 1491 
L 3956 4666 
L 4897 4666 
L 4897 0 
L 4281 0 
L 4281 4097 
L 3078 897 
L 2444 897 
L 1241 4097 
L 1241 0 
L 628 0 
L 628 4666 
z
" transform="scale(0.015625)"/>
       <path id="DejaVuSans-48" d="M 628 4666 
L 1259 4666 
L 1259 2753 
L 3553 2753 
L 3553 4666 
L 4184 4666 
L 4184 0 
L 3553 0 
L 3553 2222 
L 1259 2222 
L 1259 0 
L 628 0 
L 628 4666 
z
" transform="scale(0.015625)"/>
       <path id="DejaVuSans-7a" d="M 353 3500 
L 3084 3500 
L 3084 2975 
L 922 459 
L 3084 459 
L 3084 0 
L 275 0 
L 275 525 
L 2438 3041 
L 353 3041 
L 353 3500 
z
" transform="scale(0.015625)"/>
       <path id="DejaVuSans-5d" d="M 1947 4863 
L 1947 -844 
L 622 -844 
L 622 -397 
L 1369 -397 
L 1369 4416 
L 622 4416 
L 622 4863 
L 1947 4863 
z
" transform="scale(0.015625)"/>
      </defs>
      <use xlink:href="#DejaVuSans-66"/>
      <use xlink:href="#DejaVuSans-72" x="35.205078"/>
      <use xlink:href="#DejaVuSans-65" x="74.068359"/>
      <use xlink:href="#DejaVuSans-71" x="135.591797"/>
      <use xlink:href="#DejaVuSans-75" x="199.068359"/>
      <use xlink:href="#DejaVuSans-65" x="262.447266"/>
      <use xlink:href="#DejaVuSans-6e" x="323.970703"/>
      <use xlink:href="#DejaVuSans-63" x="387.349609"/>
      <use xlink:href="#DejaVuSans-79" x="442.330078"/>
      <use xlink:href="#DejaVuSans-20" x="501.509766"/>
      <use xlink:href="#DejaVuSans-5b" x="533.296875"/>
      <use xlink:href="#DejaVuSans-4d" x="572.310547"/>
      <use xlink:href="#DejaVuSans-48" x="658.589844"/>
      <use xlink:href="#DejaVuSans-7a" x="733.785156"/>
      <use xlink:href="#DejaVuSans-5d" x="786.275391"/>
     </g>
    </g>
   </g>
   <g id="matplotlib.axis_2">
    <g id="ytick_1">
     <g id="line2d_9">
      <defs>
       <path id="m06dce3571c" d="M 0 0 
L -3.5 0 
" style="stroke: #000000; stroke-width: 0.8"/>
      </defs>
      <g>
       <use xlink:href="#m06dce3571c" x="90" y="340.907948" style="stroke: #000000; stroke-width: 0.8"/>
      </g>
     </g>
     <g id="text_10">
      <!-- 0.95 -->
      <g transform="translate(60.734375 344.707167) scale(0.1 -0.1)">
       <defs>
        <path id="DejaVuSans-2e" d="M 684 794 
L 1344 794 
L 1344 0 
L 684 0 
L 684 794 
z
" transform="scale(0.015625)"/>
       </defs>
       <use xlink:href="#DejaVuSans-30"/>
       <use xlink:href="#DejaVuSans-2e" x="63.623047"/>
       <use xlink:href="#DejaVuSans-39" x="95.410156"/>
       <use xlink:href="#DejaVuSans-35" x="159.033203"/>
      </g>
     </g>
    </g>
    <g id="ytick_2">
     <g id="line2d_10">
      <g>
       <use xlink:href="#m06dce3571c" x="90" y="280.3894" style="stroke: #000000; stroke-width: 0.8"/>
      </g>
     </g>
     <g id="text_11">
      <!-- 0.96 -->
      <g transform="translate(60.734375 284.188619) scale(0.1 -0.1)">
       <use xlink:href="#DejaVuSans-30"/>
       <use xlink:href="#DejaVuSans-2e" x="63.623047"/>
       <use xlink:href="#DejaVuSans-39" x="95.410156"/>
       <use xlink:href="#DejaVuSans-36" x="159.033203"/>
      </g>
     </g>
    </g>
    <g id="ytick_3">
     <g id="line2d_11">
      <g>
       <use xlink:href="#m06dce3571c" x="90" y="219.870852" style="stroke: #000000; stroke-width: 0.8"/>
      </g>
     </g>
     <g id="text_12">
      <!-- 0.97 -->
      <g transform="translate(60.734375 223.67007) scale(0.1 -0.1)">
       <use xlink:href="#DejaVuSans-30"/>
       <use xlink:href="#DejaVuSans-2e" x="63.623047"/>
       <use xlink:href="#DejaVuSans-39" x="95.410156"/>
       <use xlink:href="#DejaVuSans-37" x="159.033203"/>
      </g>
     </g>
    </g>
    <g id="ytick_4">
     <g id="line2d_12">
      <g>
       <use xlink:href="#m06dce3571c" x="90" y="159.352303" style="stroke: #000000; stroke-width: 0.8"/>
      </g>
     </g>
     <g id="text_13">
      <!-- 0.98 -->
      <g transform="translate(60.734375 163.151522) scale(0.1 -0.1)">
       <use xlink:href="#DejaVuSans-30"/>
       <use xlink:href="#DejaVuSans-2e" x="63.623047"/>
       <use xlink:href="#DejaVuSans-39" x="95.410156"/>
       <use xlink:href="#DejaVuSans-38" x="159.033203"/>
      </g>
     </g>
    </g>
    <g id="ytick_5">
     <g id="line2d_13">
      <g>
       <use xlink:href="#m06dce3571c" x="90" y="98.833755" style="stroke: #000000; stroke-width: 0.8"/>
      </g>
     </g>
     <g id="text_14">
      <!-- 0.99 -->
      <g transform="translate(60.734375 102.632974) scale(0.1 -0.1)">
       <use xlink:href="#DejaVuSans-30"/>
       <use xlink:href="#DejaVuSans-2e" x="63.623047"/>
       <use xlink:href="#DejaVuSans-39" x="95.410156"/>
       <use xlink:href="#DejaVuSans-39" x="159.033203"/>
      </g>
     </g>
    </g>
    <g id="text_15">
     <!-- Contrast -->
     <g transform="translate(54.654687 239.524062) rotate(-90) scale(0.1 -0.1)">
      <defs>
       <path id="DejaVuSans-43" d="M 4122 4306 
L 4122 3641 
Q 3803 3938 3442 4084 
Q 3081 4231 2675 4231 
Q 1875 4231 1450 3742 
Q 1025 3253 1025 2328 
Q 1025 1406 1450 917 
Q 1875 428 2675 428 
Q 3081 428 3442 575 
Q 3803 722 4122 1019 
L 4122 359 
Q 3791 134 3420 21 
Q 3050 -91 2638 -91 
Q 1578 -91 968 557 
Q 359 1206 359 2328 
Q 359 3453 968 4101 
Q 1578 4750 2638 4750 
Q 3056 4750 3426 4639 
Q 3797 4528 4122 4306 
z
" transform="scale(0.015625)"/>
       <path id="DejaVuSans-6f" d="M 1959 3097 
Q 1497 3097 1228 2736 
Q 959 2375 959 1747 
Q 959 1119 1226 758 
Q 1494 397 1959 397 
Q 2419 397 2687 759 
Q 2956 1122 2956 1747 
Q 2956 2369 2687 2733 
Q 2419 3097 1959 3097 
z
M 1959 3584 
Q 2709 3584 3137 3096 
Q 3566 2609 3566 1747 
Q 3566 888 3137 398 
Q 2709 -91 1959 -91 
Q 1206 -91 779 398 
Q 353 888 353 1747 
Q 353 2609 779 3096 
Q 1206 3584 1959 3584 
z
" transform="scale(0.015625)"/>
       <path id="DejaVuSans-74" d="M 1172 4494 
L 1172 3500 
L 2356 3500 
L 2356 3053 
L 1172 3053 
L 1172 1153 
Q 1172 725 1289 603 
Q 1406 481 1766 481 
L 2356 481 
L 2356 0 
L 1766 0 
Q 1100 0 847 248 
Q 594 497 594 1153 
L 594 3053 
L 172 3053 
L 172 3500 
L 594 3500 
L 594 4494 
L 1172 4494 
z
" transform="scale(0.015625)"/>
       <path id="DejaVuSans-61" d="M 2194 1759 
Q 1497 1759 1228 1600 
Q 959 1441 959 1056 
Q 959 750 1161 570 
Q 1363 391 1709 391 
Q 2188 391 2477 730 
Q 2766 1069 2766 1631 
L 2766 1759 
L 2194 1759 
z
M 3341 1997 
L 3341 0 
L 2766 0 
L 2766 531 
Q 2569 213 2275 61 
Q 1981 -91 1556 -91 
Q 1019 -91 701 211 
Q 384 513 384 1019 
Q 384 1609 779 1909 
Q 1175 2209 1959 2209 
L 2766 2209 
L 2766 2266 
Q 2766 2663 2505 2880 
Q 2244 3097 1772 3097 
Q 1472 3097 1187 3025 
Q 903 2953 641 2809 
L 641 3341 
Q 956 3463 1253 3523 
Q 1550 3584 1831 3584 
Q 2591 3584 2966 3190 
Q 3341 2797 3341 1997 
z
" transform="scale(0.015625)"/>
       <path id="DejaVuSans-73" d="M 2834 3397 
L 2834 2853 
Q 2591 2978 2328 3040 
Q 2066 3103 1784 3103 
Q 1356 3103 1142 2972 
Q 928 2841 928 2578 
Q 928 2378 1081 2264 
Q 1234 2150 1697 2047 
L 1894 2003 
Q 2506 1872 2764 1633 
Q 3022 1394 3022 966 
Q 3022 478 2636 193 
Q 2250 -91 1575 -91 
Q 1294 -91 989 -36 
Q 684 19 347 128 
L 347 722 
Q 666 556 975 473 
Q 1284 391 1588 391 
Q 1994 391 2212 530 
Q 2431 669 2431 922 
Q 2431 1156 2273 1281 
Q 2116 1406 1581 1522 
L 1381 1569 
Q 847 1681 609 1914 
Q 372 2147 372 2553 
Q 372 3047 722 3315 
Q 1072 3584 1716 3584 
Q 2034 3584 2315 3537 
Q 2597 3491 2834 3397 
z
" transform="scale(0.015625)"/>
      </defs>
      <use xlink:href="#DejaVuSans-43"/>
      <use xlink:href="#DejaVuSans-6f" x="69.824219"/>
      <use xlink:href="#DejaVuSans-6e" x="131.005859"/>
      <use xlink:href="#DejaVuSans-74" x="194.384766"/>
      <use xlink:href="#DejaVuSans-72" x="233.59375"/>
      <use xlink:href="#DejaVuSans-61" x="274.707031"/>
      <use xlink:href="#DejaVuSans-73" x="335.986328"/>
      <use xlink:href="#DejaVuSans-74" x="388.085938"/>
     </g>
    </g>
   </g>
   <g id="line2d_14">
    <path d="M 115.363636 88.964909 
L 116.812987 80.132326 
L 118.262338 85.523809 
L 119.711688 73.035591 
L 121.161039 74.053641 
L 122.61039 66.96 
L 124.05974 75.082254 
L 125.509091 71.541846 
L 126.958442 72.945803 
L 128.407792 79.919719 
L 129.857143 70.627747 
L 131.306494 77.664225 
L 132.755844 78.498223 
L 134.205195 77.006215 
L 135.654545 84.297776 
L 137.103896 75.117387 
L 138.553247 76.242626 
L 140.002597 78.642703 
L 141.451948 84.013321 
L 142.901299 81.516312 
L 144.350649 80.623656 
L 145.8 87.255182 
L 147.249351 87.736284 
L 148.698701 92.60811 
L 150.148052 74.521987 
L 151.597403 98.210022 
L 153.046753 90.524375 
L 154.496104 91.328518 
L 155.945455 96.789994 
L 157.394805 99.006622 
L 158.844156 88.937246 
L 160.293506 90.25659 
L 161.742857 101.464077 
L 163.192208 103.825475 
L 164.641558 104.681629 
L 166.090909 108.451166 
L 167.54026 106.764215 
L 168.98961 112.348971 
L 170.438961 106.426384 
L 171.888312 108.09915 
L 173.337662 106.153786 
L 174.787013 111.436452 
L 176.236364 116.240764 
L 177.685714 118.048125 
L 179.135065 111.289333 
L 180.584416 114.86655 
L 182.033766 111.864632 
L 183.483117 120.899879 
L 184.932468 120.839338 
L 186.381818 126.175823 
L 187.831169 123.693839 
L 189.280519 124.807153 
L 190.72987 125.243664 
L 192.179221 124.224023 
L 193.628571 132.932483 
L 195.077922 142.537463 
L 196.527273 129.770863 
L 197.976623 136.788584 
L 199.425974 141.274485 
L 200.875325 138.468921 
L 202.324675 137.076513 
L 203.774026 140.705791 
L 205.223377 144.883607 
L 206.672727 145.019408 
L 208.122078 157.637813 
L 209.571429 141.487242 
L 211.020779 153.535115 
L 212.47013 159.982798 
L 213.919481 154.786326 
L 215.368831 165.712524 
L 216.818182 162.786653 
L 218.267532 166.711948 
L 219.716883 161.097944 
L 221.166234 172.500661 
L 224.064935 168.011669 
L 225.514286 174.908654 
L 226.963636 169.741706 
L 228.412987 180.371576 
L 229.862338 187.729806 
L 231.311688 191.228409 
L 232.761039 185.517099 
L 234.21039 186.003494 
L 235.65974 187.536016 
L 237.109091 190.384277 
L 238.558442 197.588728 
L 240.007792 196.203545 
L 241.457143 198.828431 
L 242.906494 207.574991 
L 244.355844 193.01849 
L 245.805195 207.488073 
L 247.254545 210.867075 
L 248.703896 210.09789 
L 250.153247 219.768519 
L 251.602597 216.678234 
L 253.051948 229.581735 
L 254.501299 225.800678 
L 255.950649 232.790206 
L 257.4 231.878653 
L 258.849351 244.945958 
L 260.298701 241.119987 
L 261.748052 248.052872 
L 263.197403 250.289348 
L 264.646753 255.710211 
L 266.096104 259.989249 
L 267.545455 270.410271 
L 268.994805 258.116555 
L 270.444156 263.938197 
L 271.893506 263.957493 
L 273.342857 254.601706 
L 274.792208 266.524179 
L 276.241558 259.523308 
L 277.690909 274.070615 
L 279.14026 280.158389 
L 280.58961 287.199155 
L 282.038961 275.81396 
L 283.488312 291.77942 
L 284.937662 287.606854 
L 286.387013 287.59765 
L 287.836364 296.268976 
L 289.285714 297.499933 
L 290.735065 301.186538 
L 292.184416 300.415171 
L 293.633766 308.11119 
L 295.083117 318.249822 
L 296.532468 313.026671 
L 297.981818 320.581974 
L 299.431169 321.346603 
L 300.880519 329.974881 
L 302.32987 324.477688 
L 303.779221 311.424479 
L 305.228571 322.301864 
L 306.677922 322.002036 
L 308.127273 327.155834 
L 309.576623 333.56178 
L 311.025974 326.828109 
L 312.475325 330.927996 
L 313.924675 329.126365 
L 315.374026 311.277478 
L 316.823377 309.182683 
L 318.272727 322.120206 
L 319.722078 333.109471 
L 321.171429 337.541024 
L 322.620779 339.888826 
L 324.07013 346.302858 
L 325.519481 350.430661 
L 326.968831 357.648933 
L 328.418182 353.681596 
L 329.867532 347.802031 
L 331.316883 355.203332 
L 332.766234 365.327428 
L 334.215584 365.037642 
L 335.664935 354.838608 
L 337.114286 358.234614 
L 338.563636 362.902591 
L 340.012987 359.726817 
L 341.462338 353.408877 
L 342.911688 358.257538 
L 344.361039 338.942022 
L 345.81039 333.351231 
L 347.25974 328.810744 
L 348.709091 332.245292 
L 350.158442 338.194119 
L 351.607792 341.777951 
L 353.057143 356.189036 
L 354.506494 353.306935 
L 355.955844 340.651395 
L 357.405195 352.40171 
L 358.854545 369.36 
L 360.303896 363.230019 
L 361.753247 358.270918 
L 363.202597 351.459529 
L 364.651948 352.565134 
L 366.101299 350.817258 
L 367.550649 344.747186 
L 369 352.737002 
L 370.449351 351.712301 
L 371.898701 343.350455 
L 373.348052 336.481989 
L 374.797403 331.511405 
L 376.246753 325.610485 
L 377.696104 316.532104 
L 379.145455 310.147724 
L 380.594805 308.140155 
L 382.044156 319.660644 
L 383.493506 319.128108 
L 384.942857 318.333881 
L 386.392208 323.663213 
L 387.841558 317.487413 
L 389.290909 322.339127 
L 390.74026 325.785495 
L 392.18961 324.136904 
L 393.638961 315.949752 
L 395.088312 317.723857 
L 396.537662 318.860217 
L 397.987013 325.867378 
L 399.436364 310.893888 
L 400.885714 320.049581 
L 402.335065 321.05886 
L 403.784416 321.741285 
L 405.233766 313.867996 
L 406.683117 307.62693 
L 408.132468 303.842792 
L 409.581818 312.037423 
L 411.031169 295.07227 
L 412.480519 298.096264 
L 413.92987 287.928186 
L 415.379221 284.265343 
L 416.828571 284.679767 
L 418.277922 278.024159 
L 419.727273 275.43543 
L 421.176623 276.589508 
L 422.625974 276.394285 
L 424.075325 272.557542 
L 425.524675 262.024999 
L 426.974026 266.851866 
L 428.423377 264.029074 
L 429.872727 259.803091 
L 431.322078 263.469538 
L 432.771429 263.745675 
L 434.220779 254.437359 
L 435.67013 256.422065 
L 437.119481 249.75286 
L 438.568831 236.816912 
L 440.018182 242.1933 
L 441.467532 233.313136 
L 442.916883 240.250273 
L 444.366234 233.473218 
L 445.815584 240.017903 
L 447.264935 218.644192 
L 448.714286 224.727171 
L 450.163636 220.485421 
L 451.612987 221.515106 
L 453.062338 212.481422 
L 454.511688 219.351222 
L 455.961039 219.705787 
L 457.41039 215.426016 
L 458.85974 214.544704 
L 460.309091 206.096686 
L 461.758442 208.6711 
L 463.207792 202.305433 
L 464.657143 197.515038 
L 466.106494 201.872858 
L 467.555844 203.836597 
L 469.005195 190.511922 
L 470.454545 188.611218 
L 471.903896 199.346402 
L 473.353247 197.55357 
L 474.802597 186.829229 
L 476.251948 188.412595 
L 477.701299 185.934853 
L 479.150649 181.740391 
L 480.6 179.919243 
L 482.049351 186.573531 
L 483.498701 178.867775 
L 484.948052 167.881413 
L 486.397403 173.396628 
L 487.846753 168.411932 
L 490.745455 170.476407 
L 492.194805 170.548323 
L 495.093506 159.489428 
L 497.992208 169.436493 
L 499.441558 162.187569 
L 500.890909 163.014281 
L 502.34026 161.778223 
L 503.78961 158.659849 
L 505.238961 153.702522 
L 506.688312 153.456668 
L 508.137662 138.528023 
L 509.587013 151.284994 
L 511.036364 150.239481 
L 512.485714 150.998319 
L 513.935065 147.981478 
L 515.384416 142.720825 
L 516.833766 135.314845 
L 518.283117 145.232925 
L 519.732468 153.952329 
L 521.181818 148.028867 
L 522.631169 140.454705 
L 524.080519 143.110765 
L 525.52987 139.066327 
L 526.979221 138.399644 
L 528.428571 146.081 
L 529.877922 134.887952 
L 531.327273 142.325571 
L 532.776623 134.739885 
L 534.225974 130.511427 
L 535.675325 130.816779 
L 537.124675 140.859415 
L 538.574026 123.708216 
L 540.023377 130.833273 
L 541.472727 129.692348 
L 542.922078 124.313735 
L 544.371429 135.295937 
L 545.820779 136.313978 
L 547.27013 128.538715 
L 548.719481 131.119817 
L 550.168831 131.379517 
L 551.618182 125.01012 
L 553.067532 119.701991 
L 554.516883 134.215714 
L 555.966234 117.175089 
L 557.415584 135.173377 
L 558.864935 124.97309 
L 560.314286 125.776165 
L 563.212987 117.364922 
L 564.662338 123.863972 
L 566.111688 116.717951 
L 567.561039 125.029615 
L 569.01039 117.861693 
L 570.45974 117.618161 
L 571.909091 120.342562 
L 573.358442 117.063693 
L 574.807792 119.698491 
L 576.257143 124.461271 
L 577.706494 116.870536 
L 579.155844 121.683475 
L 582.054545 112.438578 
L 583.503896 110.034249 
L 584.953247 112.438492 
L 586.402597 117.065809 
L 587.851948 113.785192 
L 589.301299 118.959865 
L 590.750649 108.400146 
L 592.2 111.053842 
L 593.649351 116.781 
L 595.098701 116.381524 
L 596.548052 113.239306 
L 597.997403 108.779428 
L 599.446753 106.733953 
L 600.896104 115.692593 
L 602.345455 115.509885 
L 603.794805 112.939644 
L 605.244156 117.297787 
L 606.693506 108.395589 
L 608.142857 122.435841 
L 609.592208 114.972151 
L 611.041558 116.240745 
L 612.490909 108.141697 
L 613.94026 112.406172 
L 615.38961 120.321101 
L 616.838961 109.947457 
L 618.288312 112.097209 
L 619.737662 110.888313 
L 621.187013 113.551049 
L 622.636364 106.708488 
L 622.636364 106.708488 
" clip-path="url(#pd6a05f3577)" style="fill: none; stroke: #1f77b4; stroke-width: 1.5; stroke-linecap: square"/>
    <defs>
     <path id="m7e1d34c472" d="M 0 3 
C 0.795609 3 1.55874 2.683901 2.12132 2.12132 
C 2.683901 1.55874 3 0.795609 3 0 
C 3 -0.795609 2.683901 -1.55874 2.12132 -2.12132 
C 1.55874 -2.683901 0.795609 -3 0 -3 
C -0.795609 -3 -1.55874 -2.683901 -2.12132 -2.12132 
C -2.683901 -1.55874 -3 -0.795609 -3 0 
C -3 0.795609 -2.683901 1.55874 -2.12132 2.12132 
C -1.55874 2.683901 -0.795609 3 0 3 
z
" style="stroke: #1f77b4"/>
    </defs>
    <g clip-path="url(#pd6a05f3577)">
     <use xlink:href="#m7e1d34c472" x="115.363636" y="88.964909" style="fill: #1f77b4; stroke: #1f77b4"/>
     <use xlink:href="#m7e1d34c472" x="116.812987" y="80.132326" style="fill: #1f77b4; stroke: #1f77b4"/>
     <use xlink:href="#m7e1d34c472" x="118.262338" y="85.523809" style="fill: #1f77b4; stroke: #1f77b4"/>
     <use xlink:href="#m7e1d34c472" x="119.711688" y="73.035591" style="fill: #1f77b4; stroke: #1f77b4"/>
     <use xlink:href="#m7e1d34c472" x="121.161039" y="74.053641" style="fill: #1f77b4; stroke: #1f77b4"/>
     <use xlink:href="#m7e1d34c472" x="122.61039" y="66.96" style="fill: #1f77b4; stroke: #1f77b4"/>
     <use xlink:href="#m7e1d34c472" x="124.05974" y="75.082254" style="fill: #1f77b4; stroke: #1f77b4"/>
     <use xlink:href="#m7e1d34c472" x="125.509091" y="71.541846" style="fill: #1f77b4; stroke: #1f77b4"/>
     <use xlink:href="#m7e1d34c472" x="126.958442" y="72.945803" style="fill: #1f77b4; stroke: #1f77b4"/>
     <use xlink:href="#m7e1d34c472" x="128.407792" y="79.919719" style="fill: #1f77b4; stroke: #1f77b4"/>
     <use xlink:href="#m7e1d34c472" x="129.857143" y="70.627747" style="fill: #1f77b4; stroke: #1f77b4"/>
     <use xlink:href="#m7e1d34c472" x="131.306494" y="77.664225" style="fill: #1f77b4; stroke: #1f77b4"/>
     <use xlink:href="#m7e1d34c472" x="132.755844" y="78.498223" style="fill: #1f77b4; stroke: #1f77b4"/>
     <use xlink:href="#m7e1d34c472" x="134.205195" y="77.006215" style="fill: #1f77b4; stroke: #1f77b4"/>
     <use xlink:href="#m7e1d34c472" x="135.654545" y="84.297776" style="fill: #1f77b4; stroke: #1f77b4"/>
     <use xlink:href="#m7e1d34c472" x="137.103896" y="75.117387" style="fill: #1f77b4; stroke: #1f77b4"/>
     <use xlink:href="#m7e1d34c472" x="138.553247" y="76.242626" style="fill: #1f77b4; stroke: #1f77b4"/>
     <use xlink:href="#m7e1d34c472" x="140.002597" y="78.642703" style="fill: #1f77b4; stroke: #1f77b4"/>
     <use xlink:href="#m7e1d34c472" x="141.451948" y="84.013321" style="fill: #1f77b4; stroke: #1f77b4"/>
     <use xlink:href="#m7e1d34c472" x="142.901299" y="81.516312" style="fill: #1f77b4; stroke: #1f77b4"/>
     <use xlink:href="#m7e1d34c472" x="144.350649" y="80.623656" style="fill: #1f77b4; stroke: #1f77b4"/>
     <use xlink:href="#m7e1d34c472" x="145.8" y="87.255182" style="fill: #1f77b4; stroke: #1f77b4"/>
     <use xlink:href="#m7e1d34c472" x="147.249351" y="87.736284" style="fill: #1f77b4; stroke: #1f77b4"/>
     <use xlink:href="#m7e1d34c472" x="148.698701" y="92.60811" style="fill: #1f77b4; stroke: #1f77b4"/>
     <use xlink:href="#m7e1d34c472" x="150.148052" y="74.521987" style="fill: #1f77b4; stroke: #1f77b4"/>
     <use xlink:href="#m7e1d34c472" x="151.597403" y="98.210022" style="fill: #1f77b4; stroke: #1f77b4"/>
     <use xlink:href="#m7e1d34c472" x="153.046753" y="90.524375" style="fill: #1f77b4; stroke: #1f77b4"/>
     <use xlink:href="#m7e1d34c472" x="154.496104" y="91.328518" style="fill: #1f77b4; stroke: #1f77b4"/>
     <use xlink:href="#m7e1d34c472" x="155.945455" y="96.789994" style="fill: #1f77b4; stroke: #1f77b4"/>
     <use xlink:href="#m7e1d34c472" x="157.394805" y="99.006622" style="fill: #1f77b4; stroke: #1f77b4"/>
     <use xlink:href="#m7e1d34c472" x="158.844156" y="88.937246" style="fill: #1f77b4; stroke: #1f77b4"/>
     <use xlink:href="#m7e1d34c472" x="160.293506" y="90.25659" style="fill: #1f77b4; stroke: #1f77b4"/>
     <use xlink:href="#m7e1d34c472" x="161.742857" y="101.464077" style="fill: #1f77b4; stroke: #1f77b4"/>
     <use xlink:href="#m7e1d34c472" x="163.192208" y="103.825475" style="fill: #1f77b4; stroke: #1f77b4"/>
     <use xlink:href="#m7e1d34c472" x="164.641558" y="104.681629" style="fill: #1f77b4; stroke: #1f77b4"/>
     <use xlink:href="#m7e1d34c472" x="166.090909" y="108.451166" style="fill: #1f77b4; stroke: #1f77b4"/>
     <use xlink:href="#m7e1d34c472" x="167.54026" y="106.764215" style="fill: #1f77b4; stroke: #1f77b4"/>
     <use xlink:href="#m7e1d34c472" x="168.98961" y="112.348971" style="fill: #1f77b4; stroke: #1f77b4"/>
     <use xlink:href="#m7e1d34c472" x="170.438961" y="106.426384" style="fill: #1f77b4; stroke: #1f77b4"/>
     <use xlink:href="#m7e1d34c472" x="171.888312" y="108.09915" style="fill: #1f77b4; stroke: #1f77b4"/>
     <use xlink:href="#m7e1d34c472" x="173.337662" y="106.153786" style="fill: #1f77b4; stroke: #1f77b4"/>
     <use xlink:href="#m7e1d34c472" x="174.787013" y="111.436452" style="fill: #1f77b4; stroke: #1f77b4"/>
     <use xlink:href="#m7e1d34c472" x="176.236364" y="116.240764" style="fill: #1f77b4; stroke: #1f77b4"/>
     <use xlink:href="#m7e1d34c472" x="177.685714" y="118.048125" style="fill: #1f77b4; stroke: #1f77b4"/>
     <use xlink:href="#m7e1d34c472" x="179.135065" y="111.289333" style="fill: #1f77b4; stroke: #1f77b4"/>
     <use xlink:href="#m7e1d34c472" x="180.584416" y="114.86655" style="fill: #1f77b4; stroke: #1f77b4"/>
     <use xlink:href="#m7e1d34c472" x="182.033766" y="111.864632" style="fill: #1f77b4; stroke: #1f77b4"/>
     <use xlink:href="#m7e1d34c472" x="183.483117" y="120.899879" style="fill: #1f77b4; stroke: #1f77b4"/>
     <use xlink:href="#m7e1d34c472" x="184.932468" y="120.839338" style="fill: #1f77b4; stroke: #1f77b4"/>
     <use xlink:href="#m7e1d34c472" x="186.381818" y="126.175823" style="fill: #1f77b4; stroke: #1f77b4"/>
     <use xlink:href="#m7e1d34c472" x="187.831169" y="123.693839" style="fill: #1f77b4; stroke: #1f77b4"/>
     <use xlink:href="#m7e1d34c472" x="189.280519" y="124.807153" style="fill: #1f77b4; stroke: #1f77b4"/>
     <use xlink:href="#m7e1d34c472" x="190.72987" y="125.243664" style="fill: #1f77b4; stroke: #1f77b4"/>
     <use xlink:href="#m7e1d34c472" x="192.179221" y="124.224023" style="fill: #1f77b4; stroke: #1f77b4"/>
     <use xlink:href="#m7e1d34c472" x="193.628571" y="132.932483" style="fill: #1f77b4; stroke: #1f77b4"/>
     <use xlink:href="#m7e1d34c472" x="195.077922" y="142.537463" style="fill: #1f77b4; stroke: #1f77b4"/>
     <use xlink:href="#m7e1d34c472" x="196.527273" y="129.770863" style="fill: #1f77b4; stroke: #1f77b4"/>
     <use xlink:href="#m7e1d34c472" x="197.976623" y="136.788584" style="fill: #1f77b4; stroke: #1f77b4"/>
     <use xlink:href="#m7e1d34c472" x="199.425974" y="141.274485" style="fill: #1f77b4; stroke: #1f77b4"/>
     <use xlink:href="#m7e1d34c472" x="200.875325" y="138.468921" style="fill: #1f77b4; stroke: #1f77b4"/>
     <use xlink:href="#m7e1d34c472" x="202.324675" y="137.076513" style="fill: #1f77b4; stroke: #1f77b4"/>
     <use xlink:href="#m7e1d34c472" x="203.774026" y="140.705791" style="fill: #1f77b4; stroke: #1f77b4"/>
     <use xlink:href="#m7e1d34c472" x="205.223377" y="144.883607" style="fill: #1f77b4; stroke: #1f77b4"/>
     <use xlink:href="#m7e1d34c472" x="206.672727" y="145.019408" style="fill: #1f77b4; stroke: #1f77b4"/>
     <use xlink:href="#m7e1d34c472" x="208.122078" y="157.637813" style="fill: #1f77b4; stroke: #1f77b4"/>
     <use xlink:href="#m7e1d34c472" x="209.571429" y="141.487242" style="fill: #1f77b4; stroke: #1f77b4"/>
     <use xlink:href="#m7e1d34c472" x="211.020779" y="153.535115" style="fill: #1f77b4; stroke: #1f77b4"/>
     <use xlink:href="#m7e1d34c472" x="212.47013" y="159.982798" style="fill: #1f77b4; stroke: #1f77b4"/>
     <use xlink:href="#m7e1d34c472" x="213.919481" y="154.786326" style="fill: #1f77b4; stroke: #1f77b4"/>
     <use xlink:href="#m7e1d34c472" x="215.368831" y="165.712524" style="fill: #1f77b4; stroke: #1f77b4"/>
     <use xlink:href="#m7e1d34c472" x="216.818182" y="162.786653" style="fill: #1f77b4; stroke: #1f77b4"/>
     <use xlink:href="#m7e1d34c472" x="218.267532" y="166.711948" style="fill: #1f77b4; stroke: #1f77b4"/>
     <use xlink:href="#m7e1d34c472" x="219.716883" y="161.097944" style="fill: #1f77b4; stroke: #1f77b4"/>
     <use xlink:href="#m7e1d34c472" x="221.166234" y="172.500661" style="fill: #1f77b4; stroke: #1f77b4"/>
     <use xlink:href="#m7e1d34c472" x="222.615584" y="170.160674" style="fill: #1f77b4; stroke: #1f77b4"/>
     <use xlink:href="#m7e1d34c472" x="224.064935" y="168.011669" style="fill: #1f77b4; stroke: #1f77b4"/>
     <use xlink:href="#m7e1d34c472" x="225.514286" y="174.908654" style="fill: #1f77b4; stroke: #1f77b4"/>
     <use xlink:href="#m7e1d34c472" x="226.963636" y="169.741706" style="fill: #1f77b4; stroke: #1f77b4"/>
     <use xlink:href="#m7e1d34c472" x="228.412987" y="180.371576" style="fill: #1f77b4; stroke: #1f77b4"/>
     <use xlink:href="#m7e1d34c472" x="229.862338" y="187.729806" style="fill: #1f77b4; stroke: #1f77b4"/>
     <use xlink:href="#m7e1d34c472" x="231.311688" y="191.228409" style="fill: #1f77b4; stroke: #1f77b4"/>
     <use xlink:href="#m7e1d34c472" x="232.761039" y="185.517099" style="fill: #1f77b4; stroke: #1f77b4"/>
     <use xlink:href="#m7e1d34c472" x="234.21039" y="186.003494" style="fill: #1f77b4; stroke: #1f77b4"/>
     <use xlink:href="#m7e1d34c472" x="235.65974" y="187.536016" style="fill: #1f77b4; stroke: #1f77b4"/>
     <use xlink:href="#m7e1d34c472" x="237.109091" y="190.384277" style="fill: #1f77b4; stroke: #1f77b4"/>
     <use xlink:href="#m7e1d34c472" x="238.558442" y="197.588728" style="fill: #1f77b4; stroke: #1f77b4"/>
     <use xlink:href="#m7e1d34c472" x="240.007792" y="196.203545" style="fill: #1f77b4; stroke: #1f77b4"/>
     <use xlink:href="#m7e1d34c472" x="241.457143" y="198.828431" style="fill: #1f77b4; stroke: #1f77b4"/>
     <use xlink:href="#m7e1d34c472" x="242.906494" y="207.574991" style="fill: #1f77b4; stroke: #1f77b4"/>
     <use xlink:href="#m7e1d34c472" x="244.355844" y="193.01849" style="fill: #1f77b4; stroke: #1f77b4"/>
     <use xlink:href="#m7e1d34c472" x="245.805195" y="207.488073" style="fill: #1f77b4; stroke: #1f77b4"/>
     <use xlink:href="#m7e1d34c472" x="247.254545" y="210.867075" style="fill: #1f77b4; stroke: #1f77b4"/>
     <use xlink:href="#m7e1d34c472" x="248.703896" y="210.09789" style="fill: #1f77b4; stroke: #1f77b4"/>
     <use xlink:href="#m7e1d34c472" x="250.153247" y="219.768519" style="fill: #1f77b4; stroke: #1f77b4"/>
     <use xlink:href="#m7e1d34c472" x="251.602597" y="216.678234" style="fill: #1f77b4; stroke: #1f77b4"/>
     <use xlink:href="#m7e1d34c472" x="253.051948" y="229.581735" style="fill: #1f77b4; stroke: #1f77b4"/>
     <use xlink:href="#m7e1d34c472" x="254.501299" y="225.800678" style="fill: #1f77b4; stroke: #1f77b4"/>
     <use xlink:href="#m7e1d34c472" x="255.950649" y="232.790206" style="fill: #1f77b4; stroke: #1f77b4"/>
     <use xlink:href="#m7e1d34c472" x="257.4" y="231.878653" style="fill: #1f77b4; stroke: #1f77b4"/>
     <use xlink:href="#m7e1d34c472" x="258.849351" y="244.945958" style="fill: #1f77b4; stroke: #1f77b4"/>
     <use xlink:href="#m7e1d34c472" x="260.298701" y="241.119987" style="fill: #1f77b4; stroke: #1f77b4"/>
     <use xlink:href="#m7e1d34c472" x="261.748052" y="248.052872" style="fill: #1f77b4; stroke: #1f77b4"/>
     <use xlink:href="#m7e1d34c472" x="263.197403" y="250.289348" style="fill: #1f77b4; stroke: #1f77b4"/>
     <use xlink:href="#m7e1d34c472" x="264.646753" y="255.710211" style="fill: #1f77b4; stroke: #1f77b4"/>
     <use xlink:href="#m7e1d34c472" x="266.096104" y="259.989249" style="fill: #1f77b4; stroke: #1f77b4"/>
     <use xlink:href="#m7e1d34c472" x="267.545455" y="270.410271" style="fill: #1f77b4; stroke: #1f77b4"/>
     <use xlink:href="#m7e1d34c472" x="268.994805" y="258.116555" style="fill: #1f77b4; stroke: #1f77b4"/>
     <use xlink:href="#m7e1d34c472" x="270.444156" y="263.938197" style="fill: #1f77b4; stroke: #1f77b4"/>
     <use xlink:href="#m7e1d34c472" x="271.893506" y="263.957493" style="fill: #1f77b4; stroke: #1f77b4"/>
     <use xlink:href="#m7e1d34c472" x="273.342857" y="254.601706" style="fill: #1f77b4; stroke: #1f77b4"/>
     <use xlink:href="#m7e1d34c472" x="274.792208" y="266.524179" style="fill: #1f77b4; stroke: #1f77b4"/>
     <use xlink:href="#m7e1d34c472" x="276.241558" y="259.523308" style="fill: #1f77b4; stroke: #1f77b4"/>
     <use xlink:href="#m7e1d34c472" x="277.690909" y="274.070615" style="fill: #1f77b4; stroke: #1f77b4"/>
     <use xlink:href="#m7e1d34c472" x="279.14026" y="280.158389" style="fill: #1f77b4; stroke: #1f77b4"/>
     <use xlink:href="#m7e1d34c472" x="280.58961" y="287.199155" style="fill: #1f77b4; stroke: #1f77b4"/>
     <use xlink:href="#m7e1d34c472" x="282.038961" y="275.81396" style="fill: #1f77b4; stroke: #1f77b4"/>
     <use xlink:href="#m7e1d34c472" x="283.488312" y="291.77942" style="fill: #1f77b4; stroke: #1f77b4"/>
     <use xlink:href="#m7e1d34c472" x="284.937662" y="287.606854" style="fill: #1f77b4; stroke: #1f77b4"/>
     <use xlink:href="#m7e1d34c472" x="286.387013" y="287.59765" style="fill: #1f77b4; stroke: #1f77b4"/>
     <use xlink:href="#m7e1d34c472" x="287.836364" y="296.268976" style="fill: #1f77b4; stroke: #1f77b4"/>
     <use xlink:href="#m7e1d34c472" x="289.285714" y="297.499933" style="fill: #1f77b4; stroke: #1f77b4"/>
     <use xlink:href="#m7e1d34c472" x="290.735065" y="301.186538" style="fill: #1f77b4; stroke: #1f77b4"/>
     <use xlink:href="#m7e1d34c472" x="292.184416" y="300.415171" style="fill: #1f77b4; stroke: #1f77b4"/>
     <use xlink:href="#m7e1d34c472" x="293.633766" y="308.11119" style="fill: #1f77b4; stroke: #1f77b4"/>
     <use xlink:href="#m7e1d34c472" x="295.083117" y="318.249822" style="fill: #1f77b4; stroke: #1f77b4"/>
     <use xlink:href="#m7e1d34c472" x="296.532468" y="313.026671" style="fill: #1f77b4; stroke: #1f77b4"/>
     <use xlink:href="#m7e1d34c472" x="297.981818" y="320.581974" style="fill: #1f77b4; stroke: #1f77b4"/>
     <use xlink:href="#m7e1d34c472" x="299.431169" y="321.346603" style="fill: #1f77b4; stroke: #1f77b4"/>
     <use xlink:href="#m7e1d34c472" x="300.880519" y="329.974881" style="fill: #1f77b4; stroke: #1f77b4"/>
     <use xlink:href="#m7e1d34c472" x="302.32987" y="324.477688" style="fill: #1f77b4; stroke: #1f77b4"/>
     <use xlink:href="#m7e1d34c472" x="303.779221" y="311.424479" style="fill: #1f77b4; stroke: #1f77b4"/>
     <use xlink:href="#m7e1d34c472" x="305.228571" y="322.301864" style="fill: #1f77b4; stroke: #1f77b4"/>
     <use xlink:href="#m7e1d34c472" x="306.677922" y="322.002036" style="fill: #1f77b4; stroke: #1f77b4"/>
     <use xlink:href="#m7e1d34c472" x="308.127273" y="327.155834" style="fill: #1f77b4; stroke: #1f77b4"/>
     <use xlink:href="#m7e1d34c472" x="309.576623" y="333.56178" style="fill: #1f77b4; stroke: #1f77b4"/>
     <use xlink:href="#m7e1d34c472" x="311.025974" y="326.828109" style="fill: #1f77b4; stroke: #1f77b4"/>
     <use xlink:href="#m7e1d34c472" x="312.475325" y="330.927996" style="fill: #1f77b4; stroke: #1f77b4"/>
     <use xlink:href="#m7e1d34c472" x="313.924675" y="329.126365" style="fill: #1f77b4; stroke: #1f77b4"/>
     <use xlink:href="#m7e1d34c472" x="315.374026" y="311.277478" style="fill: #1f77b4; stroke: #1f77b4"/>
     <use xlink:href="#m7e1d34c472" x="316.823377" y="309.182683" style="fill: #1f77b4; stroke: #1f77b4"/>
     <use xlink:href="#m7e1d34c472" x="318.272727" y="322.120206" style="fill: #1f77b4; stroke: #1f77b4"/>
     <use xlink:href="#m7e1d34c472" x="319.722078" y="333.109471" style="fill: #1f77b4; stroke: #1f77b4"/>
     <use xlink:href="#m7e1d34c472" x="321.171429" y="337.541024" style="fill: #1f77b4; stroke: #1f77b4"/>
     <use xlink:href="#m7e1d34c472" x="322.620779" y="339.888826" style="fill: #1f77b4; stroke: #1f77b4"/>
     <use xlink:href="#m7e1d34c472" x="324.07013" y="346.302858" style="fill: #1f77b4; stroke: #1f77b4"/>
     <use xlink:href="#m7e1d34c472" x="325.519481" y="350.430661" style="fill: #1f77b4; stroke: #1f77b4"/>
     <use xlink:href="#m7e1d34c472" x="326.968831" y="357.648933" style="fill: #1f77b4; stroke: #1f77b4"/>
     <use xlink:href="#m7e1d34c472" x="328.418182" y="353.681596" style="fill: #1f77b4; stroke: #1f77b4"/>
     <use xlink:href="#m7e1d34c472" x="329.867532" y="347.802031" style="fill: #1f77b4; stroke: #1f77b4"/>
     <use xlink:href="#m7e1d34c472" x="331.316883" y="355.203332" style="fill: #1f77b4; stroke: #1f77b4"/>
     <use xlink:href="#m7e1d34c472" x="332.766234" y="365.327428" style="fill: #1f77b4; stroke: #1f77b4"/>
     <use xlink:href="#m7e1d34c472" x="334.215584" y="365.037642" style="fill: #1f77b4; stroke: #1f77b4"/>
     <use xlink:href="#m7e1d34c472" x="335.664935" y="354.838608" style="fill: #1f77b4; stroke: #1f77b4"/>
     <use xlink:href="#m7e1d34c472" x="337.114286" y="358.234614" style="fill: #1f77b4; stroke: #1f77b4"/>
     <use xlink:href="#m7e1d34c472" x="338.563636" y="362.902591" style="fill: #1f77b4; stroke: #1f77b4"/>
     <use xlink:href="#m7e1d34c472" x="340.012987" y="359.726817" style="fill: #1f77b4; stroke: #1f77b4"/>
     <use xlink:href="#m7e1d34c472" x="341.462338" y="353.408877" style="fill: #1f77b4; stroke: #1f77b4"/>
     <use xlink:href="#m7e1d34c472" x="342.911688" y="358.257538" style="fill: #1f77b4; stroke: #1f77b4"/>
     <use xlink:href="#m7e1d34c472" x="344.361039" y="338.942022" style="fill: #1f77b4; stroke: #1f77b4"/>
     <use xlink:href="#m7e1d34c472" x="345.81039" y="333.351231" style="fill: #1f77b4; stroke: #1f77b4"/>
     <use xlink:href="#m7e1d34c472" x="347.25974" y="328.810744" style="fill: #1f77b4; stroke: #1f77b4"/>
     <use xlink:href="#m7e1d34c472" x="348.709091" y="332.245292" style="fill: #1f77b4; stroke: #1f77b4"/>
     <use xlink:href="#m7e1d34c472" x="350.158442" y="338.194119" style="fill: #1f77b4; stroke: #1f77b4"/>
     <use xlink:href="#m7e1d34c472" x="351.607792" y="341.777951" style="fill: #1f77b4; stroke: #1f77b4"/>
     <use xlink:href="#m7e1d34c472" x="353.057143" y="356.189036" style="fill: #1f77b4; stroke: #1f77b4"/>
     <use xlink:href="#m7e1d34c472" x="354.506494" y="353.306935" style="fill: #1f77b4; stroke: #1f77b4"/>
     <use xlink:href="#m7e1d34c472" x="355.955844" y="340.651395" style="fill: #1f77b4; stroke: #1f77b4"/>
     <use xlink:href="#m7e1d34c472" x="357.405195" y="352.40171" style="fill: #1f77b4; stroke: #1f77b4"/>
     <use xlink:href="#m7e1d34c472" x="358.854545" y="369.36" style="fill: #1f77b4; stroke: #1f77b4"/>
     <use xlink:href="#m7e1d34c472" x="360.303896" y="363.230019" style="fill: #1f77b4; stroke: #1f77b4"/>
     <use xlink:href="#m7e1d34c472" x="361.753247" y="358.270918" style="fill: #1f77b4; stroke: #1f77b4"/>
     <use xlink:href="#m7e1d34c472" x="363.202597" y="351.459529" style="fill: #1f77b4; stroke: #1f77b4"/>
     <use xlink:href="#m7e1d34c472" x="364.651948" y="352.565134" style="fill: #1f77b4; stroke: #1f77b4"/>
     <use xlink:href="#m7e1d34c472" x="366.101299" y="350.817258" style="fill: #1f77b4; stroke: #1f77b4"/>
     <use xlink:href="#m7e1d34c472" x="367.550649" y="344.747186" style="fill: #1f77b4; stroke: #1f77b4"/>
     <use xlink:href="#m7e1d34c472" x="369" y="352.737002" style="fill: #1f77b4; stroke: #1f77b4"/>
     <use xlink:href="#m7e1d34c472" x="370.449351" y="351.712301" style="fill: #1f77b4; stroke: #1f77b4"/>
     <use xlink:href="#m7e1d34c472" x="371.898701" y="343.350455" style="fill: #1f77b4; stroke: #1f77b4"/>
     <use xlink:href="#m7e1d34c472" x="373.348052" y="336.481989" style="fill: #1f77b4; stroke: #1f77b4"/>
     <use xlink:href="#m7e1d34c472" x="374.797403" y="331.511405" style="fill: #1f77b4; stroke: #1f77b4"/>
     <use xlink:href="#m7e1d34c472" x="376.246753" y="325.610485" style="fill: #1f77b4; stroke: #1f77b4"/>
     <use xlink:href="#m7e1d34c472" x="377.696104" y="316.532104" style="fill: #1f77b4; stroke: #1f77b4"/>
     <use xlink:href="#m7e1d34c472" x="379.145455" y="310.147724" style="fill: #1f77b4; stroke: #1f77b4"/>
     <use xlink:href="#m7e1d34c472" x="380.594805" y="308.140155" style="fill: #1f77b4; stroke: #1f77b4"/>
     <use xlink:href="#m7e1d34c472" x="382.044156" y="319.660644" style="fill: #1f77b4; stroke: #1f77b4"/>
     <use xlink:href="#m7e1d34c472" x="383.493506" y="319.128108" style="fill: #1f77b4; stroke: #1f77b4"/>
     <use xlink:href="#m7e1d34c472" x="384.942857" y="318.333881" style="fill: #1f77b4; stroke: #1f77b4"/>
     <use xlink:href="#m7e1d34c472" x="386.392208" y="323.663213" style="fill: #1f77b4; stroke: #1f77b4"/>
     <use xlink:href="#m7e1d34c472" x="387.841558" y="317.487413" style="fill: #1f77b4; stroke: #1f77b4"/>
     <use xlink:href="#m7e1d34c472" x="389.290909" y="322.339127" style="fill: #1f77b4; stroke: #1f77b4"/>
     <use xlink:href="#m7e1d34c472" x="390.74026" y="325.785495" style="fill: #1f77b4; stroke: #1f77b4"/>
     <use xlink:href="#m7e1d34c472" x="392.18961" y="324.136904" style="fill: #1f77b4; stroke: #1f77b4"/>
     <use xlink:href="#m7e1d34c472" x="393.638961" y="315.949752" style="fill: #1f77b4; stroke: #1f77b4"/>
     <use xlink:href="#m7e1d34c472" x="395.088312" y="317.723857" style="fill: #1f77b4; stroke: #1f77b4"/>
     <use xlink:href="#m7e1d34c472" x="396.537662" y="318.860217" style="fill: #1f77b4; stroke: #1f77b4"/>
     <use xlink:href="#m7e1d34c472" x="397.987013" y="325.867378" style="fill: #1f77b4; stroke: #1f77b4"/>
     <use xlink:href="#m7e1d34c472" x="399.436364" y="310.893888" style="fill: #1f77b4; stroke: #1f77b4"/>
     <use xlink:href="#m7e1d34c472" x="400.885714" y="320.049581" style="fill: #1f77b4; stroke: #1f77b4"/>
     <use xlink:href="#m7e1d34c472" x="402.335065" y="321.05886" style="fill: #1f77b4; stroke: #1f77b4"/>
     <use xlink:href="#m7e1d34c472" x="403.784416" y="321.741285" style="fill: #1f77b4; stroke: #1f77b4"/>
     <use xlink:href="#m7e1d34c472" x="405.233766" y="313.867996" style="fill: #1f77b4; stroke: #1f77b4"/>
     <use xlink:href="#m7e1d34c472" x="406.683117" y="307.62693" style="fill: #1f77b4; stroke: #1f77b4"/>
     <use xlink:href="#m7e1d34c472" x="408.132468" y="303.842792" style="fill: #1f77b4; stroke: #1f77b4"/>
     <use xlink:href="#m7e1d34c472" x="409.581818" y="312.037423" style="fill: #1f77b4; stroke: #1f77b4"/>
     <use xlink:href="#m7e1d34c472" x="411.031169" y="295.07227" style="fill: #1f77b4; stroke: #1f77b4"/>
     <use xlink:href="#m7e1d34c472" x="412.480519" y="298.096264" style="fill: #1f77b4; stroke: #1f77b4"/>
     <use xlink:href="#m7e1d34c472" x="413.92987" y="287.928186" style="fill: #1f77b4; stroke: #1f77b4"/>
     <use xlink:href="#m7e1d34c472" x="415.379221" y="284.265343" style="fill: #1f77b4; stroke: #1f77b4"/>
     <use xlink:href="#m7e1d34c472" x="416.828571" y="284.679767" style="fill: #1f77b4; stroke: #1f77b4"/>
     <use xlink:href="#m7e1d34c472" x="418.277922" y="278.024159" style="fill: #1f77b4; stroke: #1f77b4"/>
     <use xlink:href="#m7e1d34c472" x="419.727273" y="275.43543" style="fill: #1f77b4; stroke: #1f77b4"/>
     <use xlink:href="#m7e1d34c472" x="421.176623" y="276.589508" style="fill: #1f77b4; stroke: #1f77b4"/>
     <use xlink:href="#m7e1d34c472" x="422.625974" y="276.394285" style="fill: #1f77b4; stroke: #1f77b4"/>
     <use xlink:href="#m7e1d34c472" x="424.075325" y="272.557542" style="fill: #1f77b4; stroke: #1f77b4"/>
     <use xlink:href="#m7e1d34c472" x="425.524675" y="262.024999" style="fill: #1f77b4; stroke: #1f77b4"/>
     <use xlink:href="#m7e1d34c472" x="426.974026" y="266.851866" style="fill: #1f77b4; stroke: #1f77b4"/>
     <use xlink:href="#m7e1d34c472" x="428.423377" y="264.029074" style="fill: #1f77b4; stroke: #1f77b4"/>
     <use xlink:href="#m7e1d34c472" x="429.872727" y="259.803091" style="fill: #1f77b4; stroke: #1f77b4"/>
     <use xlink:href="#m7e1d34c472" x="431.322078" y="263.469538" style="fill: #1f77b4; stroke: #1f77b4"/>
     <use xlink:href="#m7e1d34c472" x="432.771429" y="263.745675" style="fill: #1f77b4; stroke: #1f77b4"/>
     <use xlink:href="#m7e1d34c472" x="434.220779" y="254.437359" style="fill: #1f77b4; stroke: #1f77b4"/>
     <use xlink:href="#m7e1d34c472" x="435.67013" y="256.422065" style="fill: #1f77b4; stroke: #1f77b4"/>
     <use xlink:href="#m7e1d34c472" x="437.119481" y="249.75286" style="fill: #1f77b4; stroke: #1f77b4"/>
     <use xlink:href="#m7e1d34c472" x="438.568831" y="236.816912" style="fill: #1f77b4; stroke: #1f77b4"/>
     <use xlink:href="#m7e1d34c472" x="440.018182" y="242.1933" style="fill: #1f77b4; stroke: #1f77b4"/>
     <use xlink:href="#m7e1d34c472" x="441.467532" y="233.313136" style="fill: #1f77b4; stroke: #1f77b4"/>
     <use xlink:href="#m7e1d34c472" x="442.916883" y="240.250273" style="fill: #1f77b4; stroke: #1f77b4"/>
     <use xlink:href="#m7e1d34c472" x="444.366234" y="233.473218" style="fill: #1f77b4; stroke: #1f77b4"/>
     <use xlink:href="#m7e1d34c472" x="445.815584" y="240.017903" style="fill: #1f77b4; stroke: #1f77b4"/>
     <use xlink:href="#m7e1d34c472" x="447.264935" y="218.644192" style="fill: #1f77b4; stroke: #1f77b4"/>
     <use xlink:href="#m7e1d34c472" x="448.714286" y="224.727171" style="fill: #1f77b4; stroke: #1f77b4"/>
     <use xlink:href="#m7e1d34c472" x="450.163636" y="220.485421" style="fill: #1f77b4; stroke: #1f77b4"/>
     <use xlink:href="#m7e1d34c472" x="451.612987" y="221.515106" style="fill: #1f77b4; stroke: #1f77b4"/>
     <use xlink:href="#m7e1d34c472" x="453.062338" y="212.481422" style="fill: #1f77b4; stroke: #1f77b4"/>
     <use xlink:href="#m7e1d34c472" x="454.511688" y="219.351222" style="fill: #1f77b4; stroke: #1f77b4"/>
     <use xlink:href="#m7e1d34c472" x="455.961039" y="219.705787" style="fill: #1f77b4; stroke: #1f77b4"/>
     <use xlink:href="#m7e1d34c472" x="457.41039" y="215.426016" style="fill: #1f77b4; stroke: #1f77b4"/>
     <use xlink:href="#m7e1d34c472" x="458.85974" y="214.544704" style="fill: #1f77b4; stroke: #1f77b4"/>
     <use xlink:href="#m7e1d34c472" x="460.309091" y="206.096686" style="fill: #1f77b4; stroke: #1f77b4"/>
     <use xlink:href="#m7e1d34c472" x="461.758442" y="208.6711" style="fill: #1f77b4; stroke: #1f77b4"/>
     <use xlink:href="#m7e1d34c472" x="463.207792" y="202.305433" style="fill: #1f77b4; stroke: #1f77b4"/>
     <use xlink:href="#m7e1d34c472" x="464.657143" y="197.515038" style="fill: #1f77b4; stroke: #1f77b4"/>
     <use xlink:href="#m7e1d34c472" x="466.106494" y="201.872858" style="fill: #1f77b4; stroke: #1f77b4"/>
     <use xlink:href="#m7e1d34c472" x="467.555844" y="203.836597" style="fill: #1f77b4; stroke: #1f77b4"/>
     <use xlink:href="#m7e1d34c472" x="469.005195" y="190.511922" style="fill: #1f77b4; stroke: #1f77b4"/>
     <use xlink:href="#m7e1d34c472" x="470.454545" y="188.611218" style="fill: #1f77b4; stroke: #1f77b4"/>
     <use xlink:href="#m7e1d34c472" x="471.903896" y="199.346402" style="fill: #1f77b4; stroke: #1f77b4"/>
     <use xlink:href="#m7e1d34c472" x="473.353247" y="197.55357" style="fill: #1f77b4; stroke: #1f77b4"/>
     <use xlink:href="#m7e1d34c472" x="474.802597" y="186.829229" style="fill: #1f77b4; stroke: #1f77b4"/>
     <use xlink:href="#m7e1d34c472" x="476.251948" y="188.412595" style="fill: #1f77b4; stroke: #1f77b4"/>
     <use xlink:href="#m7e1d34c472" x="477.701299" y="185.934853" style="fill: #1f77b4; stroke: #1f77b4"/>
     <use xlink:href="#m7e1d34c472" x="479.150649" y="181.740391" style="fill: #1f77b4; stroke: #1f77b4"/>
     <use xlink:href="#m7e1d34c472" x="480.6" y="179.919243" style="fill: #1f77b4; stroke: #1f77b4"/>
     <use xlink:href="#m7e1d34c472" x="482.049351" y="186.573531" style="fill: #1f77b4; stroke: #1f77b4"/>
     <use xlink:href="#m7e1d34c472" x="483.498701" y="178.867775" style="fill: #1f77b4; stroke: #1f77b4"/>
     <use xlink:href="#m7e1d34c472" x="484.948052" y="167.881413" style="fill: #1f77b4; stroke: #1f77b4"/>
     <use xlink:href="#m7e1d34c472" x="486.397403" y="173.396628" style="fill: #1f77b4; stroke: #1f77b4"/>
     <use xlink:href="#m7e1d34c472" x="487.846753" y="168.411932" style="fill: #1f77b4; stroke: #1f77b4"/>
     <use xlink:href="#m7e1d34c472" x="489.296104" y="169.494946" style="fill: #1f77b4; stroke: #1f77b4"/>
     <use xlink:href="#m7e1d34c472" x="490.745455" y="170.476407" style="fill: #1f77b4; stroke: #1f77b4"/>
     <use xlink:href="#m7e1d34c472" x="492.194805" y="170.548323" style="fill: #1f77b4; stroke: #1f77b4"/>
     <use xlink:href="#m7e1d34c472" x="493.644156" y="164.97188" style="fill: #1f77b4; stroke: #1f77b4"/>
     <use xlink:href="#m7e1d34c472" x="495.093506" y="159.489428" style="fill: #1f77b4; stroke: #1f77b4"/>
     <use xlink:href="#m7e1d34c472" x="496.542857" y="164.571603" style="fill: #1f77b4; stroke: #1f77b4"/>
     <use xlink:href="#m7e1d34c472" x="497.992208" y="169.436493" style="fill: #1f77b4; stroke: #1f77b4"/>
     <use xlink:href="#m7e1d34c472" x="499.441558" y="162.187569" style="fill: #1f77b4; stroke: #1f77b4"/>
     <use xlink:href="#m7e1d34c472" x="500.890909" y="163.014281" style="fill: #1f77b4; stroke: #1f77b4"/>
     <use xlink:href="#m7e1d34c472" x="502.34026" y="161.778223" style="fill: #1f77b4; stroke: #1f77b4"/>
     <use xlink:href="#m7e1d34c472" x="503.78961" y="158.659849" style="fill: #1f77b4; stroke: #1f77b4"/>
     <use xlink:href="#m7e1d34c472" x="505.238961" y="153.702522" style="fill: #1f77b4; stroke: #1f77b4"/>
     <use xlink:href="#m7e1d34c472" x="506.688312" y="153.456668" style="fill: #1f77b4; stroke: #1f77b4"/>
     <use xlink:href="#m7e1d34c472" x="508.137662" y="138.528023" style="fill: #1f77b4; stroke: #1f77b4"/>
     <use xlink:href="#m7e1d34c472" x="509.587013" y="151.284994" style="fill: #1f77b4; stroke: #1f77b4"/>
     <use xlink:href="#m7e1d34c472" x="511.036364" y="150.239481" style="fill: #1f77b4; stroke: #1f77b4"/>
     <use xlink:href="#m7e1d34c472" x="512.485714" y="150.998319" style="fill: #1f77b4; stroke: #1f77b4"/>
     <use xlink:href="#m7e1d34c472" x="513.935065" y="147.981478" style="fill: #1f77b4; stroke: #1f77b4"/>
     <use xlink:href="#m7e1d34c472" x="515.384416" y="142.720825" style="fill: #1f77b4; stroke: #1f77b4"/>
     <use xlink:href="#m7e1d34c472" x="516.833766" y="135.314845" style="fill: #1f77b4; stroke: #1f77b4"/>
     <use xlink:href="#m7e1d34c472" x="518.283117" y="145.232925" style="fill: #1f77b4; stroke: #1f77b4"/>
     <use xlink:href="#m7e1d34c472" x="519.732468" y="153.952329" style="fill: #1f77b4; stroke: #1f77b4"/>
     <use xlink:href="#m7e1d34c472" x="521.181818" y="148.028867" style="fill: #1f77b4; stroke: #1f77b4"/>
     <use xlink:href="#m7e1d34c472" x="522.631169" y="140.454705" style="fill: #1f77b4; stroke: #1f77b4"/>
     <use xlink:href="#m7e1d34c472" x="524.080519" y="143.110765" style="fill: #1f77b4; stroke: #1f77b4"/>
     <use xlink:href="#m7e1d34c472" x="525.52987" y="139.066327" style="fill: #1f77b4; stroke: #1f77b4"/>
     <use xlink:href="#m7e1d34c472" x="526.979221" y="138.399644" style="fill: #1f77b4; stroke: #1f77b4"/>
     <use xlink:href="#m7e1d34c472" x="528.428571" y="146.081" style="fill: #1f77b4; stroke: #1f77b4"/>
     <use xlink:href="#m7e1d34c472" x="529.877922" y="134.887952" style="fill: #1f77b4; stroke: #1f77b4"/>
     <use xlink:href="#m7e1d34c472" x="531.327273" y="142.325571" style="fill: #1f77b4; stroke: #1f77b4"/>
     <use xlink:href="#m7e1d34c472" x="532.776623" y="134.739885" style="fill: #1f77b4; stroke: #1f77b4"/>
     <use xlink:href="#m7e1d34c472" x="534.225974" y="130.511427" style="fill: #1f77b4; stroke: #1f77b4"/>
     <use xlink:href="#m7e1d34c472" x="535.675325" y="130.816779" style="fill: #1f77b4; stroke: #1f77b4"/>
     <use xlink:href="#m7e1d34c472" x="537.124675" y="140.859415" style="fill: #1f77b4; stroke: #1f77b4"/>
     <use xlink:href="#m7e1d34c472" x="538.574026" y="123.708216" style="fill: #1f77b4; stroke: #1f77b4"/>
     <use xlink:href="#m7e1d34c472" x="540.023377" y="130.833273" style="fill: #1f77b4; stroke: #1f77b4"/>
     <use xlink:href="#m7e1d34c472" x="541.472727" y="129.692348" style="fill: #1f77b4; stroke: #1f77b4"/>
     <use xlink:href="#m7e1d34c472" x="542.922078" y="124.313735" style="fill: #1f77b4; stroke: #1f77b4"/>
     <use xlink:href="#m7e1d34c472" x="544.371429" y="135.295937" style="fill: #1f77b4; stroke: #1f77b4"/>
     <use xlink:href="#m7e1d34c472" x="545.820779" y="136.313978" style="fill: #1f77b4; stroke: #1f77b4"/>
     <use xlink:href="#m7e1d34c472" x="547.27013" y="128.538715" style="fill: #1f77b4; stroke: #1f77b4"/>
     <use xlink:href="#m7e1d34c472" x="548.719481" y="131.119817" style="fill: #1f77b4; stroke: #1f77b4"/>
     <use xlink:href="#m7e1d34c472" x="550.168831" y="131.379517" style="fill: #1f77b4; stroke: #1f77b4"/>
     <use xlink:href="#m7e1d34c472" x="551.618182" y="125.01012" style="fill: #1f77b4; stroke: #1f77b4"/>
     <use xlink:href="#m7e1d34c472" x="553.067532" y="119.701991" style="fill: #1f77b4; stroke: #1f77b4"/>
     <use xlink:href="#m7e1d34c472" x="554.516883" y="134.215714" style="fill: #1f77b4; stroke: #1f77b4"/>
     <use xlink:href="#m7e1d34c472" x="555.966234" y="117.175089" style="fill: #1f77b4; stroke: #1f77b4"/>
     <use xlink:href="#m7e1d34c472" x="557.415584" y="135.173377" style="fill: #1f77b4; stroke: #1f77b4"/>
     <use xlink:href="#m7e1d34c472" x="558.864935" y="124.97309" style="fill: #1f77b4; stroke: #1f77b4"/>
     <use xlink:href="#m7e1d34c472" x="560.314286" y="125.776165" style="fill: #1f77b4; stroke: #1f77b4"/>
     <use xlink:href="#m7e1d34c472" x="561.763636" y="121.396856" style="fill: #1f77b4; stroke: #1f77b4"/>
     <use xlink:href="#m7e1d34c472" x="563.212987" y="117.364922" style="fill: #1f77b4; stroke: #1f77b4"/>
     <use xlink:href="#m7e1d34c472" x="564.662338" y="123.863972" style="fill: #1f77b4; stroke: #1f77b4"/>
     <use xlink:href="#m7e1d34c472" x="566.111688" y="116.717951" style="fill: #1f77b4; stroke: #1f77b4"/>
     <use xlink:href="#m7e1d34c472" x="567.561039" y="125.029615" style="fill: #1f77b4; stroke: #1f77b4"/>
     <use xlink:href="#m7e1d34c472" x="569.01039" y="117.861693" style="fill: #1f77b4; stroke: #1f77b4"/>
     <use xlink:href="#m7e1d34c472" x="570.45974" y="117.618161" style="fill: #1f77b4; stroke: #1f77b4"/>
     <use xlink:href="#m7e1d34c472" x="571.909091" y="120.342562" style="fill: #1f77b4; stroke: #1f77b4"/>
     <use xlink:href="#m7e1d34c472" x="573.358442" y="117.063693" style="fill: #1f77b4; stroke: #1f77b4"/>
     <use xlink:href="#m7e1d34c472" x="574.807792" y="119.698491" style="fill: #1f77b4; stroke: #1f77b4"/>
     <use xlink:href="#m7e1d34c472" x="576.257143" y="124.461271" style="fill: #1f77b4; stroke: #1f77b4"/>
     <use xlink:href="#m7e1d34c472" x="577.706494" y="116.870536" style="fill: #1f77b4; stroke: #1f77b4"/>
     <use xlink:href="#m7e1d34c472" x="579.155844" y="121.683475" style="fill: #1f77b4; stroke: #1f77b4"/>
     <use xlink:href="#m7e1d34c472" x="580.605195" y="117.082847" style="fill: #1f77b4; stroke: #1f77b4"/>
     <use xlink:href="#m7e1d34c472" x="582.054545" y="112.438578" style="fill: #1f77b4; stroke: #1f77b4"/>
     <use xlink:href="#m7e1d34c472" x="583.503896" y="110.034249" style="fill: #1f77b4; stroke: #1f77b4"/>
     <use xlink:href="#m7e1d34c472" x="584.953247" y="112.438492" style="fill: #1f77b4; stroke: #1f77b4"/>
     <use xlink:href="#m7e1d34c472" x="586.402597" y="117.065809" style="fill: #1f77b4; stroke: #1f77b4"/>
     <use xlink:href="#m7e1d34c472" x="587.851948" y="113.785192" style="fill: #1f77b4; stroke: #1f77b4"/>
     <use xlink:href="#m7e1d34c472" x="589.301299" y="118.959865" style="fill: #1f77b4; stroke: #1f77b4"/>
     <use xlink:href="#m7e1d34c472" x="590.750649" y="108.400146" style="fill: #1f77b4; stroke: #1f77b4"/>
     <use xlink:href="#m7e1d34c472" x="592.2" y="111.053842" style="fill: #1f77b4; stroke: #1f77b4"/>
     <use xlink:href="#m7e1d34c472" x="593.649351" y="116.781" style="fill: #1f77b4; stroke: #1f77b4"/>
     <use xlink:href="#m7e1d34c472" x="595.098701" y="116.381524" style="fill: #1f77b4; stroke: #1f77b4"/>
     <use xlink:href="#m7e1d34c472" x="596.548052" y="113.239306" style="fill: #1f77b4; stroke: #1f77b4"/>
     <use xlink:href="#m7e1d34c472" x="597.997403" y="108.779428" style="fill: #1f77b4; stroke: #1f77b4"/>
     <use xlink:href="#m7e1d34c472" x="599.446753" y="106.733953" style="fill: #1f77b4; stroke: #1f77b4"/>
     <use xlink:href="#m7e1d34c472" x="600.896104" y="115.692593" style="fill: #1f77b4; stroke: #1f77b4"/>
     <use xlink:href="#m7e1d34c472" x="602.345455" y="115.509885" style="fill: #1f77b4; stroke: #1f77b4"/>
     <use xlink:href="#m7e1d34c472" x="603.794805" y="112.939644" style="fill: #1f77b4; stroke: #1f77b4"/>
     <use xlink:href="#m7e1d34c472" x="605.244156" y="117.297787" style="fill: #1f77b4; stroke: #1f77b4"/>
     <use xlink:href="#m7e1d34c472" x="606.693506" y="108.395589" style="fill: #1f77b4; stroke: #1f77b4"/>
     <use xlink:href="#m7e1d34c472" x="608.142857" y="122.435841" style="fill: #1f77b4; stroke: #1f77b4"/>
     <use xlink:href="#m7e1d34c472" x="609.592208" y="114.972151" style="fill: #1f77b4; stroke: #1f77b4"/>
     <use xlink:href="#m7e1d34c472" x="611.041558" y="116.240745" style="fill: #1f77b4; stroke: #1f77b4"/>
     <use xlink:href="#m7e1d34c472" x="612.490909" y="108.141697" style="fill: #1f77b4; stroke: #1f77b4"/>
     <use xlink:href="#m7e1d34c472" x="613.94026" y="112.406172" style="fill: #1f77b4; stroke: #1f77b4"/>
     <use xlink:href="#m7e1d34c472" x="615.38961" y="120.321101" style="fill: #1f77b4; stroke: #1f77b4"/>
     <use xlink:href="#m7e1d34c472" x="616.838961" y="109.947457" style="fill: #1f77b4; stroke: #1f77b4"/>
     <use xlink:href="#m7e1d34c472" x="618.288312" y="112.097209" style="fill: #1f77b4; stroke: #1f77b4"/>
     <use xlink:href="#m7e1d34c472" x="619.737662" y="110.888313" style="fill: #1f77b4; stroke: #1f77b4"/>
     <use xlink:href="#m7e1d34c472" x="621.187013" y="113.551049" style="fill: #1f77b4; stroke: #1f77b4"/>
     <use xlink:href="#m7e1d34c472" x="622.636364" y="106.708488" style="fill: #1f77b4; stroke: #1f77b4"/>
    </g>
   </g>
   <g id="line2d_15">
    <path d="M 115.363636 97.017615 
L 122.61039 99.334746 
L 129.857143 101.859926 
L 137.103896 104.617341 
L 144.350649 107.634462 
L 150.148052 110.255983 
L 155.945455 113.08152 
L 161.742857 116.130895 
L 167.54026 119.426018 
L 173.337662 122.99107 
L 179.135065 126.852664 
L 184.932468 131.039982 
L 190.72987 135.584863 
L 195.077922 139.248828 
L 199.425974 143.148772 
L 203.774026 147.300929 
L 208.122078 151.722155 
L 212.47013 156.429759 
L 216.818182 161.441255 
L 221.166234 166.774022 
L 225.514286 172.444855 
L 229.862338 178.469372 
L 234.21039 184.86126 
L 238.558442 191.63134 
L 242.906494 198.786421 
L 247.254545 206.327961 
L 251.602597 214.250507 
L 255.950649 222.539995 
L 261.748052 234.119408 
L 267.545455 246.213771 
L 276.241558 265.007727 
L 287.836364 290.190572 
L 293.633766 302.240285 
L 297.981818 310.797308 
L 302.32987 318.803416 
L 305.228571 323.77647 
L 308.127273 328.420823 
L 311.025974 332.708197 
L 313.924675 336.614127 
L 316.823377 340.118379 
L 319.722078 343.205262 
L 322.620779 345.863836 
L 325.519481 348.088033 
L 328.418182 349.876689 
L 331.316883 351.23351 
L 334.215584 352.166972 
L 337.114286 352.690136 
L 340.012987 352.820392 
L 342.911688 352.579108 
L 345.81039 351.991162 
L 348.709091 351.084371 
L 351.607792 349.888803 
L 354.506494 348.435975 
L 357.405195 346.757987 
L 361.753247 343.887945 
L 366.101299 340.68314 
L 371.898701 336.037807 
L 377.696104 331.103315 
L 384.942857 324.639318 
L 390.74026 319.219171 
L 396.537662 313.490757 
L 400.885714 308.917869 
L 405.233766 304.044343 
L 409.581818 298.818016 
L 413.92987 293.199276 
L 418.277922 287.166838 
L 422.625974 280.721246 
L 426.974026 273.885754 
L 432.771429 264.244374 
L 438.568831 254.140896 
L 448.714286 235.90261 
L 458.85974 217.802615 
L 464.657143 207.842778 
L 470.454545 198.301543 
L 476.251948 189.251433 
L 480.6 182.813033 
L 484.948052 176.684594 
L 489.296104 170.868734 
L 493.644156 165.362994 
L 497.992208 160.160987 
L 502.34026 155.25341 
L 506.688312 150.62889 
L 511.036364 146.274688 
L 515.384416 142.177252 
L 519.732468 138.322659 
L 524.080519 134.69695 
L 529.877922 130.194999 
L 535.675325 126.044101 
L 541.472727 122.214512 
L 547.27013 118.678469 
L 553.067532 115.410307 
L 558.864935 112.386462 
L 564.662338 109.585413 
L 571.909091 106.367747 
L 579.155844 103.433421 
L 586.402597 100.752116 
L 593.649351 98.297082 
L 602.345455 95.6167 
L 611.041558 93.192781 
L 619.737662 90.994722 
L 622.636364 90.307556 
L 622.636364 90.307556 
" clip-path="url(#pd6a05f3577)" style="fill: none; stroke-dasharray: 5.55,2.4; stroke-dashoffset: 0; stroke: #000000; stroke-width: 1.5"/>
   </g>
   <g id="patch_3">
    <path d="M 90 384.48 
L 90 51.84 
" style="fill: none; stroke: #000000; stroke-width: 0.8; stroke-linejoin: miter; stroke-linecap: square"/>
   </g>
   <g id="patch_4">
    <path d="M 648 384.48 
L 648 51.84 
" style="fill: none; stroke: #000000; stroke-width: 0.8; stroke-linejoin: miter; stroke-linecap: square"/>
   </g>
   <g id="patch_5">
    <path d="M 90 384.48 
L 648 384.48 
" style="fill: none; stroke: #000000; stroke-width: 0.8; stroke-linejoin: miter; stroke-linecap: square"/>
   </g>
   <g id="patch_6">
    <path d="M 90 51.84 
L 648 51.84 
" style="fill: none; stroke: #000000; stroke-width: 0.8; stroke-linejoin: miter; stroke-linecap: square"/>
   </g>
   <g id="text_16">
    <!-- RF Power = -5, Line Width = 5.42 MHz -->
    <g transform="translate(253.913437 45.84) scale(0.12 -0.12)">
     <defs>
      <path id="DejaVuSans-52" d="M 2841 2188 
Q 3044 2119 3236 1894 
Q 3428 1669 3622 1275 
L 4263 0 
L 3584 0 
L 2988 1197 
Q 2756 1666 2539 1819 
Q 2322 1972 1947 1972 
L 1259 1972 
L 1259 0 
L 628 0 
L 628 4666 
L 2053 4666 
Q 2853 4666 3247 4331 
Q 3641 3997 3641 3322 
Q 3641 2881 3436 2590 
Q 3231 2300 2841 2188 
z
M 1259 4147 
L 1259 2491 
L 2053 2491 
Q 2509 2491 2742 2702 
Q 2975 2913 2975 3322 
Q 2975 3731 2742 3939 
Q 2509 4147 2053 4147 
L 1259 4147 
z
" transform="scale(0.015625)"/>
      <path id="DejaVuSans-46" d="M 628 4666 
L 3309 4666 
L 3309 4134 
L 1259 4134 
L 1259 2759 
L 3109 2759 
L 3109 2228 
L 1259 2228 
L 1259 0 
L 628 0 
L 628 4666 
z
" transform="scale(0.015625)"/>
      <path id="DejaVuSans-50" d="M 1259 4147 
L 1259 2394 
L 2053 2394 
Q 2494 2394 2734 2622 
Q 2975 2850 2975 3272 
Q 2975 3691 2734 3919 
Q 2494 4147 2053 4147 
L 1259 4147 
z
M 628 4666 
L 2053 4666 
Q 2838 4666 3239 4311 
Q 3641 3956 3641 3272 
Q 3641 2581 3239 2228 
Q 2838 1875 2053 1875 
L 1259 1875 
L 1259 0 
L 628 0 
L 628 4666 
z
" transform="scale(0.015625)"/>
      <path id="DejaVuSans-77" d="M 269 3500 
L 844 3500 
L 1563 769 
L 2278 3500 
L 2956 3500 
L 3675 769 
L 4391 3500 
L 4966 3500 
L 4050 0 
L 3372 0 
L 2619 2869 
L 1863 0 
L 1184 0 
L 269 3500 
z
" transform="scale(0.015625)"/>
      <path id="DejaVuSans-3d" d="M 678 2906 
L 4684 2906 
L 4684 2381 
L 678 2381 
L 678 2906 
z
M 678 1631 
L 4684 1631 
L 4684 1100 
L 678 1100 
L 678 1631 
z
" transform="scale(0.015625)"/>
      <path id="DejaVuSans-2d" d="M 313 2009 
L 1997 2009 
L 1997 1497 
L 313 1497 
L 313 2009 
z
" transform="scale(0.015625)"/>
      <path id="DejaVuSans-2c" d="M 750 794 
L 1409 794 
L 1409 256 
L 897 -744 
L 494 -744 
L 750 256 
L 750 794 
z
" transform="scale(0.015625)"/>
      <path id="DejaVuSans-4c" d="M 628 4666 
L 1259 4666 
L 1259 531 
L 3531 531 
L 3531 0 
L 628 0 
L 628 4666 
z
" transform="scale(0.015625)"/>
      <path id="DejaVuSans-69" d="M 603 3500 
L 1178 3500 
L 1178 0 
L 603 0 
L 603 3500 
z
M 603 4863 
L 1178 4863 
L 1178 4134 
L 603 4134 
L 603 4863 
z
" transform="scale(0.015625)"/>
      <path id="DejaVuSans-57" d="M 213 4666 
L 850 4666 
L 1831 722 
L 2809 4666 
L 3519 4666 
L 4500 722 
L 5478 4666 
L 6119 4666 
L 4947 0 
L 4153 0 
L 3169 4050 
L 2175 0 
L 1381 0 
L 213 4666 
z
" transform="scale(0.015625)"/>
      <path id="DejaVuSans-64" d="M 2906 2969 
L 2906 4863 
L 3481 4863 
L 3481 0 
L 2906 0 
L 2906 525 
Q 2725 213 2448 61 
Q 2172 -91 1784 -91 
Q 1150 -91 751 415 
Q 353 922 353 1747 
Q 353 2572 751 3078 
Q 1150 3584 1784 3584 
Q 2172 3584 2448 3432 
Q 2725 3281 2906 2969 
z
M 947 1747 
Q 947 1113 1208 752 
Q 1469 391 1925 391 
Q 2381 391 2643 752 
Q 2906 1113 2906 1747 
Q 2906 2381 2643 2742 
Q 2381 3103 1925 3103 
Q 1469 3103 1208 2742 
Q 947 2381 947 1747 
z
" transform="scale(0.015625)"/>
      <path id="DejaVuSans-68" d="M 3513 2113 
L 3513 0 
L 2938 0 
L 2938 2094 
Q 2938 2591 2744 2837 
Q 2550 3084 2163 3084 
Q 1697 3084 1428 2787 
Q 1159 2491 1159 1978 
L 1159 0 
L 581 0 
L 581 4863 
L 1159 4863 
L 1159 2956 
Q 1366 3272 1645 3428 
Q 1925 3584 2291 3584 
Q 2894 3584 3203 3211 
Q 3513 2838 3513 2113 
z
" transform="scale(0.015625)"/>
      <path id="DejaVuSans-34" d="M 2419 4116 
L 825 1625 
L 2419 1625 
L 2419 4116 
z
M 2253 4666 
L 3047 4666 
L 3047 1625 
L 3713 1625 
L 3713 1100 
L 3047 1100 
L 3047 0 
L 2419 0 
L 2419 1100 
L 313 1100 
L 313 1709 
L 2253 4666 
z
" transform="scale(0.015625)"/>
     </defs>
     <use xlink:href="#DejaVuSans-52"/>
     <use xlink:href="#DejaVuSans-46" x="69.482422"/>
     <use xlink:href="#DejaVuSans-20" x="127.001953"/>
     <use xlink:href="#DejaVuSans-50" x="158.789062"/>
     <use xlink:href="#DejaVuSans-6f" x="215.466797"/>
     <use xlink:href="#DejaVuSans-77" x="276.648438"/>
     <use xlink:href="#DejaVuSans-65" x="358.435547"/>
     <use xlink:href="#DejaVuSans-72" x="419.958984"/>
     <use xlink:href="#DejaVuSans-20" x="461.072266"/>
     <use xlink:href="#DejaVuSans-3d" x="492.859375"/>
     <use xlink:href="#DejaVuSans-20" x="576.648438"/>
     <use xlink:href="#DejaVuSans-2d" x="608.435547"/>
     <use xlink:href="#DejaVuSans-35" x="644.519531"/>
     <use xlink:href="#DejaVuSans-2c" x="708.142578"/>
     <use xlink:href="#DejaVuSans-20" x="739.929688"/>
     <use xlink:href="#DejaVuSans-4c" x="771.716797"/>
     <use xlink:href="#DejaVuSans-69" x="827.429688"/>
     <use xlink:href="#DejaVuSans-6e" x="855.212891"/>
     <use xlink:href="#DejaVuSans-65" x="918.591797"/>
     <use xlink:href="#DejaVuSans-20" x="980.115234"/>
     <use xlink:href="#DejaVuSans-57" x="1011.902344"/>
     <use xlink:href="#DejaVuSans-69" x="1108.529297"/>
     <use xlink:href="#DejaVuSans-64" x="1136.3125"/>
     <use xlink:href="#DejaVuSans-74" x="1199.789062"/>
     <use xlink:href="#DejaVuSans-68" x="1238.998047"/>
     <use xlink:href="#DejaVuSans-20" x="1302.376953"/>
     <use xlink:href="#DejaVuSans-3d" x="1334.164062"/>
     <use xlink:href="#DejaVuSans-20" x="1417.953125"/>
     <use xlink:href="#DejaVuSans-35" x="1449.740234"/>
     <use xlink:href="#DejaVuSans-2e" x="1513.363281"/>
     <use xlink:href="#DejaVuSans-34" x="1545.150391"/>
     <use xlink:href="#DejaVuSans-32" x="1608.773438"/>
     <use xlink:href="#DejaVuSans-20" x="1672.396484"/>
     <use xlink:href="#DejaVuSans-4d" x="1704.183594"/>
     <use xlink:href="#DejaVuSans-48" x="1790.462891"/>
     <use xlink:href="#DejaVuSans-7a" x="1865.658203"/>
    </g>
   </g>
   <g id="legend_1">
    <g id="patch_7">
     <path d="M 585.123438 89.19625 
L 641 89.19625 
Q 643 89.19625 643 87.19625 
L 643 58.84 
Q 643 56.84 641 56.84 
L 585.123438 56.84 
Q 583.123438 56.84 583.123438 58.84 
L 583.123438 87.19625 
Q 583.123438 89.19625 585.123438 89.19625 
z
" style="fill: #ffffff; opacity: 0.8; stroke: #cccccc; stroke-linejoin: miter"/>
    </g>
    <g id="line2d_16">
     <path d="M 587.123438 64.938437 
L 597.123438 64.938437 
L 607.123438 64.938437 
" style="fill: none; stroke: #1f77b4; stroke-width: 1.5; stroke-linecap: square"/>
     <g>
      <use xlink:href="#m7e1d34c472" x="597.123438" y="64.938437" style="fill: #1f77b4; stroke: #1f77b4"/>
     </g>
    </g>
    <g id="text_17">
     <!-- Data -->
     <g transform="translate(615.123438 68.438437) scale(0.1 -0.1)">
      <defs>
       <path id="DejaVuSans-44" d="M 1259 4147 
L 1259 519 
L 2022 519 
Q 2988 519 3436 956 
Q 3884 1394 3884 2338 
Q 3884 3275 3436 3711 
Q 2988 4147 2022 4147 
L 1259 4147 
z
M 628 4666 
L 1925 4666 
Q 3281 4666 3915 4102 
Q 4550 3538 4550 2338 
Q 4550 1131 3912 565 
Q 3275 0 1925 0 
L 628 0 
L 628 4666 
z
" transform="scale(0.015625)"/>
      </defs>
      <use xlink:href="#DejaVuSans-44"/>
      <use xlink:href="#DejaVuSans-61" x="77.001953"/>
      <use xlink:href="#DejaVuSans-74" x="138.28125"/>
      <use xlink:href="#DejaVuSans-61" x="177.490234"/>
     </g>
    </g>
    <g id="line2d_17">
     <path d="M 587.123438 79.616562 
L 597.123438 79.616562 
L 607.123438 79.616562 
" style="fill: none; stroke-dasharray: 5.55,2.4; stroke-dashoffset: 0; stroke: #000000; stroke-width: 1.5"/>
    </g>
    <g id="text_18">
     <!-- Fit -->
     <g transform="translate(615.123438 83.116562) scale(0.1 -0.1)">
      <use xlink:href="#DejaVuSans-46"/>
      <use xlink:href="#DejaVuSans-69" x="50.269531"/>
      <use xlink:href="#DejaVuSans-74" x="78.052734"/>
     </g>
    </g>
   </g>
  </g>
 </g>
 <defs>
  <clipPath id="pd6a05f3577">
   <rect x="90" y="51.84" width="558" height="332.64"/>
  </clipPath>
 </defs>
</svg>
