<?xml version="1.0" encoding="utf-8" standalone="no"?>
<!DOCTYPE svg PUBLIC "-//W3C//DTD SVG 1.1//EN"
  "http://www.w3.org/Graphics/SVG/1.1/DTD/svg11.dtd">
<svg xmlns:xlink="http://www.w3.org/1999/xlink" width="720pt" height="432pt" viewBox="0 0 720 432" xmlns="http://www.w3.org/2000/svg" version="1.1">
 <metadata>
  <rdf:RDF xmlns:dc="http://purl.org/dc/elements/1.1/" xmlns:cc="http://creativecommons.org/ns#" xmlns:rdf="http://www.w3.org/1999/02/22-rdf-syntax-ns#">
   <cc:Work>
    <dc:type rdf:resource="http://purl.org/dc/dcmitype/StillImage"/>
    <dc:date>2023-03-30T12:46:15.009014</dc:date>
    <dc:format>image/svg+xml</dc:format>
    <dc:creator>
     <cc:Agent>
      <dc:title>Matplotlib v3.7.0, https://matplotlib.org/</dc:title>
     </cc:Agent>
    </dc:creator>
   </cc:Work>
  </rdf:RDF>
 </metadata>
 <defs>
  <style type="text/css">*{stroke-linejoin: round; stroke-linecap: butt}</style>
 </defs>
 <g id="figure_1">
  <g id="patch_1">
   <path d="M 0 432 
L 720 432 
L 720 0 
L 0 0 
L 0 432 
z
" style="fill: none"/>
  </g>
  <g id="axes_1">
   <g id="patch_2">
    <path d="M 90 384.48 
L 648 384.48 
L 648 51.84 
L 90 51.84 
L 90 384.48 
z
" style="fill: none"/>
   </g>
   <g id="matplotlib.axis_1">
    <g id="xtick_1">
     <g id="line2d_1">
      <defs>
       <path id="m28bfcc8087" d="M 0 0 
L 0 3.5 
" style="stroke: #000000; stroke-width: 0.8"/>
      </defs>
      <g>
       <use xlink:href="#m28bfcc8087" x="115.363636" y="384.48" style="stroke: #000000; stroke-width: 0.8"/>
      </g>
     </g>
     <g id="text_1">
      <!-- 2765 -->
      <g transform="translate(102.638636 399.078438) scale(0.1 -0.1)">
       <defs>
        <path id="DejaVuSans-32" d="M 1228 531 
L 3431 531 
L 3431 0 
L 469 0 
L 469 531 
Q 828 903 1448 1529 
Q 2069 2156 2228 2338 
Q 2531 2678 2651 2914 
Q 2772 3150 2772 3378 
Q 2772 3750 2511 3984 
Q 2250 4219 1831 4219 
Q 1534 4219 1204 4116 
Q 875 4013 500 3803 
L 500 4441 
Q 881 4594 1212 4672 
Q 1544 4750 1819 4750 
Q 2544 4750 2975 4387 
Q 3406 4025 3406 3419 
Q 3406 3131 3298 2873 
Q 3191 2616 2906 2266 
Q 2828 2175 2409 1742 
Q 1991 1309 1228 531 
z
" transform="scale(0.015625)"/>
        <path id="DejaVuSans-37" d="M 525 4666 
L 3525 4666 
L 3525 4397 
L 1831 0 
L 1172 0 
L 2766 4134 
L 525 4134 
L 525 4666 
z
" transform="scale(0.015625)"/>
        <path id="DejaVuSans-36" d="M 2113 2584 
Q 1688 2584 1439 2293 
Q 1191 2003 1191 1497 
Q 1191 994 1439 701 
Q 1688 409 2113 409 
Q 2538 409 2786 701 
Q 3034 994 3034 1497 
Q 3034 2003 2786 2293 
Q 2538 2584 2113 2584 
z
M 3366 4563 
L 3366 3988 
Q 3128 4100 2886 4159 
Q 2644 4219 2406 4219 
Q 1781 4219 1451 3797 
Q 1122 3375 1075 2522 
Q 1259 2794 1537 2939 
Q 1816 3084 2150 3084 
Q 2853 3084 3261 2657 
Q 3669 2231 3669 1497 
Q 3669 778 3244 343 
Q 2819 -91 2113 -91 
Q 1303 -91 875 529 
Q 447 1150 447 2328 
Q 447 3434 972 4092 
Q 1497 4750 2381 4750 
Q 2619 4750 2861 4703 
Q 3103 4656 3366 4563 
z
" transform="scale(0.015625)"/>
        <path id="DejaVuSans-35" d="M 691 4666 
L 3169 4666 
L 3169 4134 
L 1269 4134 
L 1269 2991 
Q 1406 3038 1543 3061 
Q 1681 3084 1819 3084 
Q 2600 3084 3056 2656 
Q 3513 2228 3513 1497 
Q 3513 744 3044 326 
Q 2575 -91 1722 -91 
Q 1428 -91 1123 -41 
Q 819 9 494 109 
L 494 744 
Q 775 591 1075 516 
Q 1375 441 1709 441 
Q 2250 441 2565 725 
Q 2881 1009 2881 1497 
Q 2881 1984 2565 2268 
Q 2250 2553 1709 2553 
Q 1456 2553 1204 2497 
Q 953 2441 691 2322 
L 691 4666 
z
" transform="scale(0.015625)"/>
       </defs>
       <use xlink:href="#DejaVuSans-32"/>
       <use xlink:href="#DejaVuSans-37" x="63.623047"/>
       <use xlink:href="#DejaVuSans-36" x="127.246094"/>
       <use xlink:href="#DejaVuSans-35" x="190.869141"/>
      </g>
     </g>
    </g>
    <g id="xtick_2">
     <g id="line2d_2">
      <g>
       <use xlink:href="#m28bfcc8087" x="187.831169" y="384.48" style="stroke: #000000; stroke-width: 0.8"/>
      </g>
     </g>
     <g id="text_2">
      <!-- 2770 -->
      <g transform="translate(175.106169 399.078438) scale(0.1 -0.1)">
       <defs>
        <path id="DejaVuSans-30" d="M 2034 4250 
Q 1547 4250 1301 3770 
Q 1056 3291 1056 2328 
Q 1056 1369 1301 889 
Q 1547 409 2034 409 
Q 2525 409 2770 889 
Q 3016 1369 3016 2328 
Q 3016 3291 2770 3770 
Q 2525 4250 2034 4250 
z
M 2034 4750 
Q 2819 4750 3233 4129 
Q 3647 3509 3647 2328 
Q 3647 1150 3233 529 
Q 2819 -91 2034 -91 
Q 1250 -91 836 529 
Q 422 1150 422 2328 
Q 422 3509 836 4129 
Q 1250 4750 2034 4750 
z
" transform="scale(0.015625)"/>
       </defs>
       <use xlink:href="#DejaVuSans-32"/>
       <use xlink:href="#DejaVuSans-37" x="63.623047"/>
       <use xlink:href="#DejaVuSans-37" x="127.246094"/>
       <use xlink:href="#DejaVuSans-30" x="190.869141"/>
      </g>
     </g>
    </g>
    <g id="xtick_3">
     <g id="line2d_3">
      <g>
       <use xlink:href="#m28bfcc8087" x="260.298701" y="384.48" style="stroke: #000000; stroke-width: 0.8"/>
      </g>
     </g>
     <g id="text_3">
      <!-- 2775 -->
      <g transform="translate(247.573701 399.078438) scale(0.1 -0.1)">
       <use xlink:href="#DejaVuSans-32"/>
       <use xlink:href="#DejaVuSans-37" x="63.623047"/>
       <use xlink:href="#DejaVuSans-37" x="127.246094"/>
       <use xlink:href="#DejaVuSans-35" x="190.869141"/>
      </g>
     </g>
    </g>
    <g id="xtick_4">
     <g id="line2d_4">
      <g>
       <use xlink:href="#m28bfcc8087" x="332.766234" y="384.48" style="stroke: #000000; stroke-width: 0.8"/>
      </g>
     </g>
     <g id="text_4">
      <!-- 2780 -->
      <g transform="translate(320.041234 399.078438) scale(0.1 -0.1)">
       <defs>
        <path id="DejaVuSans-38" d="M 2034 2216 
Q 1584 2216 1326 1975 
Q 1069 1734 1069 1313 
Q 1069 891 1326 650 
Q 1584 409 2034 409 
Q 2484 409 2743 651 
Q 3003 894 3003 1313 
Q 3003 1734 2745 1975 
Q 2488 2216 2034 2216 
z
M 1403 2484 
Q 997 2584 770 2862 
Q 544 3141 544 3541 
Q 544 4100 942 4425 
Q 1341 4750 2034 4750 
Q 2731 4750 3128 4425 
Q 3525 4100 3525 3541 
Q 3525 3141 3298 2862 
Q 3072 2584 2669 2484 
Q 3125 2378 3379 2068 
Q 3634 1759 3634 1313 
Q 3634 634 3220 271 
Q 2806 -91 2034 -91 
Q 1263 -91 848 271 
Q 434 634 434 1313 
Q 434 1759 690 2068 
Q 947 2378 1403 2484 
z
M 1172 3481 
Q 1172 3119 1398 2916 
Q 1625 2713 2034 2713 
Q 2441 2713 2670 2916 
Q 2900 3119 2900 3481 
Q 2900 3844 2670 4047 
Q 2441 4250 2034 4250 
Q 1625 4250 1398 4047 
Q 1172 3844 1172 3481 
z
" transform="scale(0.015625)"/>
       </defs>
       <use xlink:href="#DejaVuSans-32"/>
       <use xlink:href="#DejaVuSans-37" x="63.623047"/>
       <use xlink:href="#DejaVuSans-38" x="127.246094"/>
       <use xlink:href="#DejaVuSans-30" x="190.869141"/>
      </g>
     </g>
    </g>
    <g id="xtick_5">
     <g id="line2d_5">
      <g>
       <use xlink:href="#m28bfcc8087" x="405.233766" y="384.48" style="stroke: #000000; stroke-width: 0.8"/>
      </g>
     </g>
     <g id="text_5">
      <!-- 2785 -->
      <g transform="translate(392.508766 399.078438) scale(0.1 -0.1)">
       <use xlink:href="#DejaVuSans-32"/>
       <use xlink:href="#DejaVuSans-37" x="63.623047"/>
       <use xlink:href="#DejaVuSans-38" x="127.246094"/>
       <use xlink:href="#DejaVuSans-35" x="190.869141"/>
      </g>
     </g>
    </g>
    <g id="xtick_6">
     <g id="line2d_6">
      <g>
       <use xlink:href="#m28bfcc8087" x="477.701299" y="384.48" style="stroke: #000000; stroke-width: 0.8"/>
      </g>
     </g>
     <g id="text_6">
      <!-- 2790 -->
      <g transform="translate(464.976299 399.078438) scale(0.1 -0.1)">
       <defs>
        <path id="DejaVuSans-39" d="M 703 97 
L 703 672 
Q 941 559 1184 500 
Q 1428 441 1663 441 
Q 2288 441 2617 861 
Q 2947 1281 2994 2138 
Q 2813 1869 2534 1725 
Q 2256 1581 1919 1581 
Q 1219 1581 811 2004 
Q 403 2428 403 3163 
Q 403 3881 828 4315 
Q 1253 4750 1959 4750 
Q 2769 4750 3195 4129 
Q 3622 3509 3622 2328 
Q 3622 1225 3098 567 
Q 2575 -91 1691 -91 
Q 1453 -91 1209 -44 
Q 966 3 703 97 
z
M 1959 2075 
Q 2384 2075 2632 2365 
Q 2881 2656 2881 3163 
Q 2881 3666 2632 3958 
Q 2384 4250 1959 4250 
Q 1534 4250 1286 3958 
Q 1038 3666 1038 3163 
Q 1038 2656 1286 2365 
Q 1534 2075 1959 2075 
z
" transform="scale(0.015625)"/>
       </defs>
       <use xlink:href="#DejaVuSans-32"/>
       <use xlink:href="#DejaVuSans-37" x="63.623047"/>
       <use xlink:href="#DejaVuSans-39" x="127.246094"/>
       <use xlink:href="#DejaVuSans-30" x="190.869141"/>
      </g>
     </g>
    </g>
    <g id="xtick_7">
     <g id="line2d_7">
      <g>
       <use xlink:href="#m28bfcc8087" x="550.168831" y="384.48" style="stroke: #000000; stroke-width: 0.8"/>
      </g>
     </g>
     <g id="text_7">
      <!-- 2795 -->
      <g transform="translate(537.443831 399.078438) scale(0.1 -0.1)">
       <use xlink:href="#DejaVuSans-32"/>
       <use xlink:href="#DejaVuSans-37" x="63.623047"/>
       <use xlink:href="#DejaVuSans-39" x="127.246094"/>
       <use xlink:href="#DejaVuSans-35" x="190.869141"/>
      </g>
     </g>
    </g>
    <g id="xtick_8">
     <g id="line2d_8">
      <g>
       <use xlink:href="#m28bfcc8087" x="622.636364" y="384.48" style="stroke: #000000; stroke-width: 0.8"/>
      </g>
     </g>
     <g id="text_8">
      <!-- 2800 -->
      <g transform="translate(609.911364 399.078438) scale(0.1 -0.1)">
       <use xlink:href="#DejaVuSans-32"/>
       <use xlink:href="#DejaVuSans-38" x="63.623047"/>
       <use xlink:href="#DejaVuSans-30" x="127.246094"/>
       <use xlink:href="#DejaVuSans-30" x="190.869141"/>
      </g>
     </g>
    </g>
    <g id="text_9">
     <!-- frequency [MHz] -->
     <g transform="translate(327.734375 412.756563) scale(0.1 -0.1)">
      <defs>
       <path id="DejaVuSans-66" d="M 2375 4863 
L 2375 4384 
L 1825 4384 
Q 1516 4384 1395 4259 
Q 1275 4134 1275 3809 
L 1275 3500 
L 2222 3500 
L 2222 3053 
L 1275 3053 
L 1275 0 
L 697 0 
L 697 3053 
L 147 3053 
L 147 3500 
L 697 3500 
L 697 3744 
Q 697 4328 969 4595 
Q 1241 4863 1831 4863 
L 2375 4863 
z
" transform="scale(0.015625)"/>
       <path id="DejaVuSans-72" d="M 2631 2963 
Q 2534 3019 2420 3045 
Q 2306 3072 2169 3072 
Q 1681 3072 1420 2755 
Q 1159 2438 1159 1844 
L 1159 0 
L 581 0 
L 581 3500 
L 1159 3500 
L 1159 2956 
Q 1341 3275 1631 3429 
Q 1922 3584 2338 3584 
Q 2397 3584 2469 3576 
Q 2541 3569 2628 3553 
L 2631 2963 
z
" transform="scale(0.015625)"/>
       <path id="DejaVuSans-65" d="M 3597 1894 
L 3597 1613 
L 953 1613 
Q 991 1019 1311 708 
Q 1631 397 2203 397 
Q 2534 397 2845 478 
Q 3156 559 3463 722 
L 3463 178 
Q 3153 47 2828 -22 
Q 2503 -91 2169 -91 
Q 1331 -91 842 396 
Q 353 884 353 1716 
Q 353 2575 817 3079 
Q 1281 3584 2069 3584 
Q 2775 3584 3186 3129 
Q 3597 2675 3597 1894 
z
M 3022 2063 
Q 3016 2534 2758 2815 
Q 2500 3097 2075 3097 
Q 1594 3097 1305 2825 
Q 1016 2553 972 2059 
L 3022 2063 
z
" transform="scale(0.015625)"/>
       <path id="DejaVuSans-71" d="M 947 1747 
Q 947 1113 1208 752 
Q 1469 391 1925 391 
Q 2381 391 2643 752 
Q 2906 1113 2906 1747 
Q 2906 2381 2643 2742 
Q 2381 3103 1925 3103 
Q 1469 3103 1208 2742 
Q 947 2381 947 1747 
z
M 2906 525 
Q 2725 213 2448 61 
Q 2172 -91 1784 -91 
Q 1150 -91 751 415 
Q 353 922 353 1747 
Q 353 2572 751 3078 
Q 1150 3584 1784 3584 
Q 2172 3584 2448 3432 
Q 2725 3281 2906 2969 
L 2906 3500 
L 3481 3500 
L 3481 -1331 
L 2906 -1331 
L 2906 525 
z
" transform="scale(0.015625)"/>
       <path id="DejaVuSans-75" d="M 544 1381 
L 544 3500 
L 1119 3500 
L 1119 1403 
Q 1119 906 1312 657 
Q 1506 409 1894 409 
Q 2359 409 2629 706 
Q 2900 1003 2900 1516 
L 2900 3500 
L 3475 3500 
L 3475 0 
L 2900 0 
L 2900 538 
Q 2691 219 2414 64 
Q 2138 -91 1772 -91 
Q 1169 -91 856 284 
Q 544 659 544 1381 
z
M 1991 3584 
L 1991 3584 
z
" transform="scale(0.015625)"/>
       <path id="DejaVuSans-6e" d="M 3513 2113 
L 3513 0 
L 2938 0 
L 2938 2094 
Q 2938 2591 2744 2837 
Q 2550 3084 2163 3084 
Q 1697 3084 1428 2787 
Q 1159 2491 1159 1978 
L 1159 0 
L 581 0 
L 581 3500 
L 1159 3500 
L 1159 2956 
Q 1366 3272 1645 3428 
Q 1925 3584 2291 3584 
Q 2894 3584 3203 3211 
Q 3513 2838 3513 2113 
z
" transform="scale(0.015625)"/>
       <path id="DejaVuSans-63" d="M 3122 3366 
L 3122 2828 
Q 2878 2963 2633 3030 
Q 2388 3097 2138 3097 
Q 1578 3097 1268 2742 
Q 959 2388 959 1747 
Q 959 1106 1268 751 
Q 1578 397 2138 397 
Q 2388 397 2633 464 
Q 2878 531 3122 666 
L 3122 134 
Q 2881 22 2623 -34 
Q 2366 -91 2075 -91 
Q 1284 -91 818 406 
Q 353 903 353 1747 
Q 353 2603 823 3093 
Q 1294 3584 2113 3584 
Q 2378 3584 2631 3529 
Q 2884 3475 3122 3366 
z
" transform="scale(0.015625)"/>
       <path id="DejaVuSans-79" d="M 2059 -325 
Q 1816 -950 1584 -1140 
Q 1353 -1331 966 -1331 
L 506 -1331 
L 506 -850 
L 844 -850 
Q 1081 -850 1212 -737 
Q 1344 -625 1503 -206 
L 1606 56 
L 191 3500 
L 800 3500 
L 1894 763 
L 2988 3500 
L 3597 3500 
L 2059 -325 
z
" transform="scale(0.015625)"/>
       <path id="DejaVuSans-20" transform="scale(0.015625)"/>
       <path id="DejaVuSans-5b" d="M 550 4863 
L 1875 4863 
L 1875 4416 
L 1125 4416 
L 1125 -397 
L 1875 -397 
L 1875 -844 
L 550 -844 
L 550 4863 
z
" transform="scale(0.015625)"/>
       <path id="DejaVuSans-4d" d="M 628 4666 
L 1569 4666 
L 2759 1491 
L 3956 4666 
L 4897 4666 
L 4897 0 
L 4281 0 
L 4281 4097 
L 3078 897 
L 2444 897 
L 1241 4097 
L 1241 0 
L 628 0 
L 628 4666 
z
" transform="scale(0.015625)"/>
       <path id="DejaVuSans-48" d="M 628 4666 
L 1259 4666 
L 1259 2753 
L 3553 2753 
L 3553 4666 
L 4184 4666 
L 4184 0 
L 3553 0 
L 3553 2222 
L 1259 2222 
L 1259 0 
L 628 0 
L 628 4666 
z
" transform="scale(0.015625)"/>
       <path id="DejaVuSans-7a" d="M 353 3500 
L 3084 3500 
L 3084 2975 
L 922 459 
L 3084 459 
L 3084 0 
L 275 0 
L 275 525 
L 2438 3041 
L 353 3041 
L 353 3500 
z
" transform="scale(0.015625)"/>
       <path id="DejaVuSans-5d" d="M 1947 4863 
L 1947 -844 
L 622 -844 
L 622 -397 
L 1369 -397 
L 1369 4416 
L 622 4416 
L 622 4863 
L 1947 4863 
z
" transform="scale(0.015625)"/>
      </defs>
      <use xlink:href="#DejaVuSans-66"/>
      <use xlink:href="#DejaVuSans-72" x="35.205078"/>
      <use xlink:href="#DejaVuSans-65" x="74.068359"/>
      <use xlink:href="#DejaVuSans-71" x="135.591797"/>
      <use xlink:href="#DejaVuSans-75" x="199.068359"/>
      <use xlink:href="#DejaVuSans-65" x="262.447266"/>
      <use xlink:href="#DejaVuSans-6e" x="323.970703"/>
      <use xlink:href="#DejaVuSans-63" x="387.349609"/>
      <use xlink:href="#DejaVuSans-79" x="442.330078"/>
      <use xlink:href="#DejaVuSans-20" x="501.509766"/>
      <use xlink:href="#DejaVuSans-5b" x="533.296875"/>
      <use xlink:href="#DejaVuSans-4d" x="572.310547"/>
      <use xlink:href="#DejaVuSans-48" x="658.589844"/>
      <use xlink:href="#DejaVuSans-7a" x="733.785156"/>
      <use xlink:href="#DejaVuSans-5d" x="786.275391"/>
     </g>
    </g>
   </g>
   <g id="matplotlib.axis_2">
    <g id="ytick_1">
     <g id="line2d_9">
      <defs>
       <path id="mb96aff6e10" d="M 0 0 
L -3.5 0 
" style="stroke: #000000; stroke-width: 0.8"/>
      </defs>
      <g>
       <use xlink:href="#mb96aff6e10" x="90" y="382.857895" style="stroke: #000000; stroke-width: 0.8"/>
      </g>
     </g>
     <g id="text_10">
      <!-- 0.965 -->
      <g transform="translate(54.371875 386.657114) scale(0.1 -0.1)">
       <defs>
        <path id="DejaVuSans-2e" d="M 684 794 
L 1344 794 
L 1344 0 
L 684 0 
L 684 794 
z
" transform="scale(0.015625)"/>
       </defs>
       <use xlink:href="#DejaVuSans-30"/>
       <use xlink:href="#DejaVuSans-2e" x="63.623047"/>
       <use xlink:href="#DejaVuSans-39" x="95.410156"/>
       <use xlink:href="#DejaVuSans-36" x="159.033203"/>
       <use xlink:href="#DejaVuSans-35" x="222.65625"/>
      </g>
     </g>
    </g>
    <g id="ytick_2">
     <g id="line2d_10">
      <g>
       <use xlink:href="#mb96aff6e10" x="90" y="341.104693" style="stroke: #000000; stroke-width: 0.8"/>
      </g>
     </g>
     <g id="text_11">
      <!-- 0.970 -->
      <g transform="translate(54.371875 344.903911) scale(0.1 -0.1)">
       <use xlink:href="#DejaVuSans-30"/>
       <use xlink:href="#DejaVuSans-2e" x="63.623047"/>
       <use xlink:href="#DejaVuSans-39" x="95.410156"/>
       <use xlink:href="#DejaVuSans-37" x="159.033203"/>
       <use xlink:href="#DejaVuSans-30" x="222.65625"/>
      </g>
     </g>
    </g>
    <g id="ytick_3">
     <g id="line2d_11">
      <g>
       <use xlink:href="#mb96aff6e10" x="90" y="299.35149" style="stroke: #000000; stroke-width: 0.8"/>
      </g>
     </g>
     <g id="text_12">
      <!-- 0.975 -->
      <g transform="translate(54.371875 303.150709) scale(0.1 -0.1)">
       <use xlink:href="#DejaVuSans-30"/>
       <use xlink:href="#DejaVuSans-2e" x="63.623047"/>
       <use xlink:href="#DejaVuSans-39" x="95.410156"/>
       <use xlink:href="#DejaVuSans-37" x="159.033203"/>
       <use xlink:href="#DejaVuSans-35" x="222.65625"/>
      </g>
     </g>
    </g>
    <g id="ytick_4">
     <g id="line2d_12">
      <g>
       <use xlink:href="#mb96aff6e10" x="90" y="257.598288" style="stroke: #000000; stroke-width: 0.8"/>
      </g>
     </g>
     <g id="text_13">
      <!-- 0.980 -->
      <g transform="translate(54.371875 261.397507) scale(0.1 -0.1)">
       <use xlink:href="#DejaVuSans-30"/>
       <use xlink:href="#DejaVuSans-2e" x="63.623047"/>
       <use xlink:href="#DejaVuSans-39" x="95.410156"/>
       <use xlink:href="#DejaVuSans-38" x="159.033203"/>
       <use xlink:href="#DejaVuSans-30" x="222.65625"/>
      </g>
     </g>
    </g>
    <g id="ytick_5">
     <g id="line2d_13">
      <g>
       <use xlink:href="#mb96aff6e10" x="90" y="215.845086" style="stroke: #000000; stroke-width: 0.8"/>
      </g>
     </g>
     <g id="text_14">
      <!-- 0.985 -->
      <g transform="translate(54.371875 219.644305) scale(0.1 -0.1)">
       <use xlink:href="#DejaVuSans-30"/>
       <use xlink:href="#DejaVuSans-2e" x="63.623047"/>
       <use xlink:href="#DejaVuSans-39" x="95.410156"/>
       <use xlink:href="#DejaVuSans-38" x="159.033203"/>
       <use xlink:href="#DejaVuSans-35" x="222.65625"/>
      </g>
     </g>
    </g>
    <g id="ytick_6">
     <g id="line2d_14">
      <g>
       <use xlink:href="#mb96aff6e10" x="90" y="174.091884" style="stroke: #000000; stroke-width: 0.8"/>
      </g>
     </g>
     <g id="text_15">
      <!-- 0.990 -->
      <g transform="translate(54.371875 177.891102) scale(0.1 -0.1)">
       <use xlink:href="#DejaVuSans-30"/>
       <use xlink:href="#DejaVuSans-2e" x="63.623047"/>
       <use xlink:href="#DejaVuSans-39" x="95.410156"/>
       <use xlink:href="#DejaVuSans-39" x="159.033203"/>
       <use xlink:href="#DejaVuSans-30" x="222.65625"/>
      </g>
     </g>
    </g>
    <g id="ytick_7">
     <g id="line2d_15">
      <g>
       <use xlink:href="#mb96aff6e10" x="90" y="132.338681" style="stroke: #000000; stroke-width: 0.8"/>
      </g>
     </g>
     <g id="text_16">
      <!-- 0.995 -->
      <g transform="translate(54.371875 136.1379) scale(0.1 -0.1)">
       <use xlink:href="#DejaVuSans-30"/>
       <use xlink:href="#DejaVuSans-2e" x="63.623047"/>
       <use xlink:href="#DejaVuSans-39" x="95.410156"/>
       <use xlink:href="#DejaVuSans-39" x="159.033203"/>
       <use xlink:href="#DejaVuSans-35" x="222.65625"/>
      </g>
     </g>
    </g>
    <g id="ytick_8">
     <g id="line2d_16">
      <g>
       <use xlink:href="#mb96aff6e10" x="90" y="90.585479" style="stroke: #000000; stroke-width: 0.8"/>
      </g>
     </g>
     <g id="text_17">
      <!-- 1.000 -->
      <g transform="translate(54.371875 94.384698) scale(0.1 -0.1)">
       <defs>
        <path id="DejaVuSans-31" d="M 794 531 
L 1825 531 
L 1825 4091 
L 703 3866 
L 703 4441 
L 1819 4666 
L 2450 4666 
L 2450 531 
L 3481 531 
L 3481 0 
L 794 0 
L 794 531 
z
" transform="scale(0.015625)"/>
       </defs>
       <use xlink:href="#DejaVuSans-31"/>
       <use xlink:href="#DejaVuSans-2e" x="63.623047"/>
       <use xlink:href="#DejaVuSans-30" x="95.410156"/>
       <use xlink:href="#DejaVuSans-30" x="159.033203"/>
       <use xlink:href="#DejaVuSans-30" x="222.65625"/>
      </g>
     </g>
    </g>
    <g id="text_18">
     <!-- Contrast -->
     <g transform="translate(48.292187 239.524062) rotate(-90) scale(0.1 -0.1)">
      <defs>
       <path id="DejaVuSans-43" d="M 4122 4306 
L 4122 3641 
Q 3803 3938 3442 4084 
Q 3081 4231 2675 4231 
Q 1875 4231 1450 3742 
Q 1025 3253 1025 2328 
Q 1025 1406 1450 917 
Q 1875 428 2675 428 
Q 3081 428 3442 575 
Q 3803 722 4122 1019 
L 4122 359 
Q 3791 134 3420 21 
Q 3050 -91 2638 -91 
Q 1578 -91 968 557 
Q 359 1206 359 2328 
Q 359 3453 968 4101 
Q 1578 4750 2638 4750 
Q 3056 4750 3426 4639 
Q 3797 4528 4122 4306 
z
" transform="scale(0.015625)"/>
       <path id="DejaVuSans-6f" d="M 1959 3097 
Q 1497 3097 1228 2736 
Q 959 2375 959 1747 
Q 959 1119 1226 758 
Q 1494 397 1959 397 
Q 2419 397 2687 759 
Q 2956 1122 2956 1747 
Q 2956 2369 2687 2733 
Q 2419 3097 1959 3097 
z
M 1959 3584 
Q 2709 3584 3137 3096 
Q 3566 2609 3566 1747 
Q 3566 888 3137 398 
Q 2709 -91 1959 -91 
Q 1206 -91 779 398 
Q 353 888 353 1747 
Q 353 2609 779 3096 
Q 1206 3584 1959 3584 
z
" transform="scale(0.015625)"/>
       <path id="DejaVuSans-74" d="M 1172 4494 
L 1172 3500 
L 2356 3500 
L 2356 3053 
L 1172 3053 
L 1172 1153 
Q 1172 725 1289 603 
Q 1406 481 1766 481 
L 2356 481 
L 2356 0 
L 1766 0 
Q 1100 0 847 248 
Q 594 497 594 1153 
L 594 3053 
L 172 3053 
L 172 3500 
L 594 3500 
L 594 4494 
L 1172 4494 
z
" transform="scale(0.015625)"/>
       <path id="DejaVuSans-61" d="M 2194 1759 
Q 1497 1759 1228 1600 
Q 959 1441 959 1056 
Q 959 750 1161 570 
Q 1363 391 1709 391 
Q 2188 391 2477 730 
Q 2766 1069 2766 1631 
L 2766 1759 
L 2194 1759 
z
M 3341 1997 
L 3341 0 
L 2766 0 
L 2766 531 
Q 2569 213 2275 61 
Q 1981 -91 1556 -91 
Q 1019 -91 701 211 
Q 384 513 384 1019 
Q 384 1609 779 1909 
Q 1175 2209 1959 2209 
L 2766 2209 
L 2766 2266 
Q 2766 2663 2505 2880 
Q 2244 3097 1772 3097 
Q 1472 3097 1187 3025 
Q 903 2953 641 2809 
L 641 3341 
Q 956 3463 1253 3523 
Q 1550 3584 1831 3584 
Q 2591 3584 2966 3190 
Q 3341 2797 3341 1997 
z
" transform="scale(0.015625)"/>
       <path id="DejaVuSans-73" d="M 2834 3397 
L 2834 2853 
Q 2591 2978 2328 3040 
Q 2066 3103 1784 3103 
Q 1356 3103 1142 2972 
Q 928 2841 928 2578 
Q 928 2378 1081 2264 
Q 1234 2150 1697 2047 
L 1894 2003 
Q 2506 1872 2764 1633 
Q 3022 1394 3022 966 
Q 3022 478 2636 193 
Q 2250 -91 1575 -91 
Q 1294 -91 989 -36 
Q 684 19 347 128 
L 347 722 
Q 666 556 975 473 
Q 1284 391 1588 391 
Q 1994 391 2212 530 
Q 2431 669 2431 922 
Q 2431 1156 2273 1281 
Q 2116 1406 1581 1522 
L 1381 1569 
Q 847 1681 609 1914 
Q 372 2147 372 2553 
Q 372 3047 722 3315 
Q 1072 3584 1716 3584 
Q 2034 3584 2315 3537 
Q 2597 3491 2834 3397 
z
" transform="scale(0.015625)"/>
      </defs>
      <use xlink:href="#DejaVuSans-43"/>
      <use xlink:href="#DejaVuSans-6f" x="69.824219"/>
      <use xlink:href="#DejaVuSans-6e" x="131.005859"/>
      <use xlink:href="#DejaVuSans-74" x="194.384766"/>
      <use xlink:href="#DejaVuSans-72" x="233.59375"/>
      <use xlink:href="#DejaVuSans-61" x="274.707031"/>
      <use xlink:href="#DejaVuSans-73" x="335.986328"/>
      <use xlink:href="#DejaVuSans-74" x="388.085938"/>
     </g>
    </g>
   </g>
   <g id="line2d_17">
    <path d="M 115.363636 97.26796 
L 116.812987 92.97825 
L 118.262338 85.892698 
L 119.711688 85.60761 
L 121.161039 86.826752 
L 122.61039 86.739952 
L 124.05974 100.288153 
L 125.509091 86.180476 
L 126.958442 79.245757 
L 128.407792 76.795145 
L 129.857143 83.758517 
L 131.306494 84.184013 
L 132.755844 94.888044 
L 134.205195 79.023584 
L 135.654545 77.46374 
L 137.103896 79.214291 
L 138.553247 100.540143 
L 140.002597 96.900949 
L 141.451948 89.68893 
L 142.901299 102.902267 
L 144.350649 97.597427 
L 145.8 87.855469 
L 147.249351 66.96 
L 148.698701 93.015287 
L 150.148052 85.994544 
L 151.597403 90.705174 
L 153.046753 89.924152 
L 154.496104 90.653374 
L 155.945455 71.990803 
L 157.394805 89.784025 
L 158.844156 89.921399 
L 160.293506 73.003161 
L 161.742857 85.462317 
L 163.192208 87.063576 
L 164.641558 86.80707 
L 166.090909 88.641699 
L 167.54026 85.284322 
L 168.98961 79.281095 
L 170.438961 86.389797 
L 171.888312 81.200238 
L 173.337662 82.894825 
L 174.787013 86.951442 
L 176.236364 92.05671 
L 177.685714 91.614766 
L 179.135065 94.045762 
L 180.584416 82.875024 
L 182.033766 101.875689 
L 183.483117 104.198633 
L 184.932468 95.929349 
L 186.381818 102.796591 
L 187.831169 86.419369 
L 189.280519 92.916706 
L 190.72987 103.636888 
L 192.179221 101.937729 
L 193.628571 94.52755 
L 195.077922 101.61398 
L 196.527273 97.821892 
L 197.976623 96.043013 
L 199.425974 98.134538 
L 200.875325 92.563352 
L 202.324675 113.293178 
L 203.774026 96.658796 
L 205.223377 90.259252 
L 206.672727 105.973535 
L 208.122078 117.091297 
L 209.571429 97.354223 
L 211.020779 108.390797 
L 212.47013 114.90799 
L 213.919481 107.580503 
L 215.368831 112.195214 
L 216.818182 104.601114 
L 218.267532 98.787337 
L 219.716883 107.41518 
L 221.166234 118.879131 
L 222.615584 116.827214 
L 224.064935 107.543004 
L 225.514286 119.104694 
L 226.963636 118.133 
L 228.412987 122.216404 
L 229.862338 114.905203 
L 231.311688 123.586236 
L 232.761039 112.029567 
L 234.21039 118.922689 
L 235.65974 115.920783 
L 237.109091 118.094898 
L 238.558442 106.579023 
L 240.007792 114.123985 
L 241.457143 119.914767 
L 242.906494 139.627116 
L 244.355844 128.906175 
L 245.805195 119.172354 
L 247.254545 136.665127 
L 248.703896 139.668731 
L 250.153247 137.334531 
L 251.602597 137.480015 
L 253.051948 138.855858 
L 254.501299 142.738572 
L 255.950649 142.184747 
L 257.4 148.816386 
L 258.849351 160.813723 
L 260.298701 142.752282 
L 261.748052 139.944077 
L 263.197403 147.634132 
L 264.646753 149.942464 
L 266.096104 151.013985 
L 267.545455 163.696547 
L 268.994805 165.635561 
L 270.444156 150.076687 
L 271.893506 151.796415 
L 273.342857 166.766529 
L 274.792208 159.828549 
L 276.241558 174.408998 
L 277.690909 176.485417 
L 279.14026 171.222823 
L 280.58961 162.253622 
L 282.038961 181.867794 
L 283.488312 182.567721 
L 284.937662 185.02307 
L 286.387013 188.572615 
L 287.836364 187.802661 
L 289.285714 206.127228 
L 290.735065 200.877172 
L 292.184416 213.470149 
L 293.633766 214.624018 
L 295.083117 215.288199 
L 296.532468 224.539427 
L 297.981818 237.690846 
L 299.431169 234.039182 
L 300.880519 237.15334 
L 302.32987 259.754321 
L 303.779221 256.962825 
L 305.228571 273.234322 
L 306.677922 269.128751 
L 308.127273 273.238922 
L 309.576623 285.252087 
L 311.025974 275.405621 
L 312.475325 279.026674 
L 313.924675 288.092204 
L 315.374026 301.605625 
L 316.823377 319.060147 
L 318.272727 313.879835 
L 319.722078 318.847385 
L 321.171429 324.707887 
L 322.620779 328.102078 
L 324.07013 347.729682 
L 325.519481 339.392941 
L 326.968831 341.939799 
L 328.418182 342.311777 
L 329.867532 340.898325 
L 331.316883 328.776443 
L 332.766234 339.550025 
L 334.215584 348.065011 
L 335.664935 346.551954 
L 337.114286 343.850507 
L 338.563636 355.285677 
L 340.012987 358.55506 
L 341.462338 350.011243 
L 342.911688 363.876912 
L 344.361039 335.796876 
L 345.81039 354.664709 
L 347.25974 354.796008 
L 348.709091 361.604085 
L 350.158442 365.727994 
L 351.607792 357.552313 
L 353.057143 369.36 
L 354.506494 366.849021 
L 355.955844 367.382595 
L 357.405195 356.827563 
L 358.854545 366.13769 
L 360.303896 366.95214 
L 361.753247 357.876443 
L 363.202597 346.705057 
L 364.651948 347.892106 
L 366.101299 349.462608 
L 367.550649 334.944148 
L 369 354.297253 
L 370.449351 343.893405 
L 371.898701 361.235206 
L 373.348052 353.255345 
L 374.797403 350.276226 
L 376.246753 345.548925 
L 379.145455 357.918537 
L 380.594805 343.172132 
L 382.044156 334.319076 
L 383.493506 344.925733 
L 384.942857 358.508852 
L 387.841558 330.818375 
L 389.290909 328.891632 
L 390.74026 317.693429 
L 392.18961 321.560367 
L 393.638961 303.815045 
L 396.537662 288.102953 
L 397.987013 296.171145 
L 399.436364 268.846751 
L 400.885714 277.613404 
L 402.335065 265.074624 
L 403.784416 260.128776 
L 405.233766 255.902646 
L 406.683117 252.83969 
L 408.132468 237.849081 
L 409.581818 241.631839 
L 411.031169 219.402584 
L 412.480519 218.340995 
L 413.92987 228.632298 
L 415.379221 221.355695 
L 416.828571 202.060112 
L 419.727273 215.326395 
L 421.176623 202.622646 
L 422.625974 206.65075 
L 424.075325 190.956929 
L 425.524675 191.558996 
L 426.974026 188.084632 
L 428.423377 191.563013 
L 429.872727 183.12828 
L 431.322078 181.773917 
L 432.771429 170.989557 
L 434.220779 168.664157 
L 435.67013 173.439367 
L 437.119481 171.843516 
L 438.568831 162.420332 
L 440.018182 163.856791 
L 441.467532 158.49179 
L 442.916883 169.83962 
L 444.366234 148.616149 
L 445.815584 158.915493 
L 447.264935 148.850485 
L 448.714286 145.068959 
L 450.163636 145.359228 
L 451.612987 151.952609 
L 453.062338 155.121672 
L 454.511688 146.641293 
L 455.961039 151.199769 
L 457.41039 143.077495 
L 458.85974 152.220806 
L 460.309091 152.38355 
L 461.758442 136.033667 
L 463.207792 134.982193 
L 464.657143 134.447795 
L 466.106494 147.74235 
L 467.555844 140.463133 
L 469.005195 152.642987 
L 470.454545 133.477649 
L 471.903896 130.670434 
L 473.353247 120.662236 
L 474.802597 135.452407 
L 476.251948 122.140398 
L 477.701299 139.871763 
L 479.150649 139.077728 
L 480.6 134.180259 
L 482.049351 118.990275 
L 483.498701 120.129391 
L 484.948052 130.659667 
L 486.397403 116.950093 
L 487.846753 133.36113 
L 489.296104 117.982117 
L 490.745455 126.110031 
L 493.644156 118.003795 
L 495.093506 123.059258 
L 496.542857 126.508327 
L 497.992208 114.283168 
L 499.441558 112.763322 
L 500.890909 114.715597 
L 502.34026 105.372342 
L 503.78961 105.784393 
L 506.688312 117.03554 
L 508.137662 107.436348 
L 509.587013 112.45218 
L 511.036364 104.31997 
L 512.485714 115.074281 
L 513.935065 107.960314 
L 515.384416 116.347516 
L 516.833766 107.852315 
L 518.283117 128.829362 
L 519.732468 102.773137 
L 522.631169 124.677392 
L 524.080519 109.404908 
L 525.52987 102.830899 
L 526.979221 110.061514 
L 528.428571 109.141304 
L 529.877922 94.128109 
L 531.327273 113.117765 
L 532.776623 101.407894 
L 534.225974 112.603807 
L 535.675325 116.473714 
L 537.124675 101.963418 
L 538.574026 108.537518 
L 540.023377 107.746724 
L 541.472727 112.530368 
L 542.922078 105.132713 
L 544.371429 104.507439 
L 545.820779 98.406608 
L 547.27013 107.738356 
L 548.719481 102.782546 
L 550.168831 102.103085 
L 551.618182 99.925048 
L 553.067532 108.325829 
L 554.516883 101.530814 
L 557.415584 88.95291 
L 558.864935 106.496228 
L 560.314286 96.290374 
L 561.763636 108.370383 
L 563.212987 111.782246 
L 564.662338 98.687621 
L 566.111688 90.88597 
L 567.561039 103.488348 
L 569.01039 80.843484 
L 570.45974 93.527694 
L 571.909091 99.945068 
L 573.358442 98.838925 
L 574.807792 92.738768 
L 576.257143 99.742422 
L 577.706494 80.559436 
L 579.155844 99.162104 
L 580.605195 96.722822 
L 582.054545 107.357428 
L 583.503896 106.493777 
L 584.953247 94.667911 
L 586.402597 104.503645 
L 587.851948 112.070052 
L 589.301299 97.54084 
L 590.750649 100.509494 
L 592.2 105.131523 
L 593.649351 102.525754 
L 595.098701 104.663587 
L 596.548052 97.880502 
L 597.997403 93.768408 
L 599.446753 98.882973 
L 600.896104 108.169368 
L 602.345455 98.499291 
L 603.794805 93.199963 
L 605.244156 99.198745 
L 606.693506 101.648365 
L 608.142857 103.375191 
L 609.592208 98.942625 
L 611.041558 108.20055 
L 612.490909 92.623716 
L 613.94026 87.628706 
L 615.38961 108.864466 
L 616.838961 99.222415 
L 618.288312 97.973753 
L 619.737662 86.947608 
L 621.187013 94.693965 
L 622.636364 100.746421 
L 622.636364 100.746421 
" clip-path="url(#pfd0105e3b3)" style="fill: none; stroke: #1f77b4; stroke-width: 1.5; stroke-linecap: square"/>
    <defs>
     <path id="mee551b8e3e" d="M 0 3 
C 0.795609 3 1.55874 2.683901 2.12132 2.12132 
C 2.683901 1.55874 3 0.795609 3 0 
C 3 -0.795609 2.683901 -1.55874 2.12132 -2.12132 
C 1.55874 -2.683901 0.795609 -3 0 -3 
C -0.795609 -3 -1.55874 -2.683901 -2.12132 -2.12132 
C -2.683901 -1.55874 -3 -0.795609 -3 0 
C -3 0.795609 -2.683901 1.55874 -2.12132 2.12132 
C -1.55874 2.683901 -0.795609 3 0 3 
z
" style="stroke: #1f77b4"/>
    </defs>
    <g clip-path="url(#pfd0105e3b3)">
     <use xlink:href="#mee551b8e3e" x="115.363636" y="97.26796" style="fill: #1f77b4; stroke: #1f77b4"/>
     <use xlink:href="#mee551b8e3e" x="116.812987" y="92.97825" style="fill: #1f77b4; stroke: #1f77b4"/>
     <use xlink:href="#mee551b8e3e" x="118.262338" y="85.892698" style="fill: #1f77b4; stroke: #1f77b4"/>
     <use xlink:href="#mee551b8e3e" x="119.711688" y="85.60761" style="fill: #1f77b4; stroke: #1f77b4"/>
     <use xlink:href="#mee551b8e3e" x="121.161039" y="86.826752" style="fill: #1f77b4; stroke: #1f77b4"/>
     <use xlink:href="#mee551b8e3e" x="122.61039" y="86.739952" style="fill: #1f77b4; stroke: #1f77b4"/>
     <use xlink:href="#mee551b8e3e" x="124.05974" y="100.288153" style="fill: #1f77b4; stroke: #1f77b4"/>
     <use xlink:href="#mee551b8e3e" x="125.509091" y="86.180476" style="fill: #1f77b4; stroke: #1f77b4"/>
     <use xlink:href="#mee551b8e3e" x="126.958442" y="79.245757" style="fill: #1f77b4; stroke: #1f77b4"/>
     <use xlink:href="#mee551b8e3e" x="128.407792" y="76.795145" style="fill: #1f77b4; stroke: #1f77b4"/>
     <use xlink:href="#mee551b8e3e" x="129.857143" y="83.758517" style="fill: #1f77b4; stroke: #1f77b4"/>
     <use xlink:href="#mee551b8e3e" x="131.306494" y="84.184013" style="fill: #1f77b4; stroke: #1f77b4"/>
     <use xlink:href="#mee551b8e3e" x="132.755844" y="94.888044" style="fill: #1f77b4; stroke: #1f77b4"/>
     <use xlink:href="#mee551b8e3e" x="134.205195" y="79.023584" style="fill: #1f77b4; stroke: #1f77b4"/>
     <use xlink:href="#mee551b8e3e" x="135.654545" y="77.46374" style="fill: #1f77b4; stroke: #1f77b4"/>
     <use xlink:href="#mee551b8e3e" x="137.103896" y="79.214291" style="fill: #1f77b4; stroke: #1f77b4"/>
     <use xlink:href="#mee551b8e3e" x="138.553247" y="100.540143" style="fill: #1f77b4; stroke: #1f77b4"/>
     <use xlink:href="#mee551b8e3e" x="140.002597" y="96.900949" style="fill: #1f77b4; stroke: #1f77b4"/>
     <use xlink:href="#mee551b8e3e" x="141.451948" y="89.68893" style="fill: #1f77b4; stroke: #1f77b4"/>
     <use xlink:href="#mee551b8e3e" x="142.901299" y="102.902267" style="fill: #1f77b4; stroke: #1f77b4"/>
     <use xlink:href="#mee551b8e3e" x="144.350649" y="97.597427" style="fill: #1f77b4; stroke: #1f77b4"/>
     <use xlink:href="#mee551b8e3e" x="145.8" y="87.855469" style="fill: #1f77b4; stroke: #1f77b4"/>
     <use xlink:href="#mee551b8e3e" x="147.249351" y="66.96" style="fill: #1f77b4; stroke: #1f77b4"/>
     <use xlink:href="#mee551b8e3e" x="148.698701" y="93.015287" style="fill: #1f77b4; stroke: #1f77b4"/>
     <use xlink:href="#mee551b8e3e" x="150.148052" y="85.994544" style="fill: #1f77b4; stroke: #1f77b4"/>
     <use xlink:href="#mee551b8e3e" x="151.597403" y="90.705174" style="fill: #1f77b4; stroke: #1f77b4"/>
     <use xlink:href="#mee551b8e3e" x="153.046753" y="89.924152" style="fill: #1f77b4; stroke: #1f77b4"/>
     <use xlink:href="#mee551b8e3e" x="154.496104" y="90.653374" style="fill: #1f77b4; stroke: #1f77b4"/>
     <use xlink:href="#mee551b8e3e" x="155.945455" y="71.990803" style="fill: #1f77b4; stroke: #1f77b4"/>
     <use xlink:href="#mee551b8e3e" x="157.394805" y="89.784025" style="fill: #1f77b4; stroke: #1f77b4"/>
     <use xlink:href="#mee551b8e3e" x="158.844156" y="89.921399" style="fill: #1f77b4; stroke: #1f77b4"/>
     <use xlink:href="#mee551b8e3e" x="160.293506" y="73.003161" style="fill: #1f77b4; stroke: #1f77b4"/>
     <use xlink:href="#mee551b8e3e" x="161.742857" y="85.462317" style="fill: #1f77b4; stroke: #1f77b4"/>
     <use xlink:href="#mee551b8e3e" x="163.192208" y="87.063576" style="fill: #1f77b4; stroke: #1f77b4"/>
     <use xlink:href="#mee551b8e3e" x="164.641558" y="86.80707" style="fill: #1f77b4; stroke: #1f77b4"/>
     <use xlink:href="#mee551b8e3e" x="166.090909" y="88.641699" style="fill: #1f77b4; stroke: #1f77b4"/>
     <use xlink:href="#mee551b8e3e" x="167.54026" y="85.284322" style="fill: #1f77b4; stroke: #1f77b4"/>
     <use xlink:href="#mee551b8e3e" x="168.98961" y="79.281095" style="fill: #1f77b4; stroke: #1f77b4"/>
     <use xlink:href="#mee551b8e3e" x="170.438961" y="86.389797" style="fill: #1f77b4; stroke: #1f77b4"/>
     <use xlink:href="#mee551b8e3e" x="171.888312" y="81.200238" style="fill: #1f77b4; stroke: #1f77b4"/>
     <use xlink:href="#mee551b8e3e" x="173.337662" y="82.894825" style="fill: #1f77b4; stroke: #1f77b4"/>
     <use xlink:href="#mee551b8e3e" x="174.787013" y="86.951442" style="fill: #1f77b4; stroke: #1f77b4"/>
     <use xlink:href="#mee551b8e3e" x="176.236364" y="92.05671" style="fill: #1f77b4; stroke: #1f77b4"/>
     <use xlink:href="#mee551b8e3e" x="177.685714" y="91.614766" style="fill: #1f77b4; stroke: #1f77b4"/>
     <use xlink:href="#mee551b8e3e" x="179.135065" y="94.045762" style="fill: #1f77b4; stroke: #1f77b4"/>
     <use xlink:href="#mee551b8e3e" x="180.584416" y="82.875024" style="fill: #1f77b4; stroke: #1f77b4"/>
     <use xlink:href="#mee551b8e3e" x="182.033766" y="101.875689" style="fill: #1f77b4; stroke: #1f77b4"/>
     <use xlink:href="#mee551b8e3e" x="183.483117" y="104.198633" style="fill: #1f77b4; stroke: #1f77b4"/>
     <use xlink:href="#mee551b8e3e" x="184.932468" y="95.929349" style="fill: #1f77b4; stroke: #1f77b4"/>
     <use xlink:href="#mee551b8e3e" x="186.381818" y="102.796591" style="fill: #1f77b4; stroke: #1f77b4"/>
     <use xlink:href="#mee551b8e3e" x="187.831169" y="86.419369" style="fill: #1f77b4; stroke: #1f77b4"/>
     <use xlink:href="#mee551b8e3e" x="189.280519" y="92.916706" style="fill: #1f77b4; stroke: #1f77b4"/>
     <use xlink:href="#mee551b8e3e" x="190.72987" y="103.636888" style="fill: #1f77b4; stroke: #1f77b4"/>
     <use xlink:href="#mee551b8e3e" x="192.179221" y="101.937729" style="fill: #1f77b4; stroke: #1f77b4"/>
     <use xlink:href="#mee551b8e3e" x="193.628571" y="94.52755" style="fill: #1f77b4; stroke: #1f77b4"/>
     <use xlink:href="#mee551b8e3e" x="195.077922" y="101.61398" style="fill: #1f77b4; stroke: #1f77b4"/>
     <use xlink:href="#mee551b8e3e" x="196.527273" y="97.821892" style="fill: #1f77b4; stroke: #1f77b4"/>
     <use xlink:href="#mee551b8e3e" x="197.976623" y="96.043013" style="fill: #1f77b4; stroke: #1f77b4"/>
     <use xlink:href="#mee551b8e3e" x="199.425974" y="98.134538" style="fill: #1f77b4; stroke: #1f77b4"/>
     <use xlink:href="#mee551b8e3e" x="200.875325" y="92.563352" style="fill: #1f77b4; stroke: #1f77b4"/>
     <use xlink:href="#mee551b8e3e" x="202.324675" y="113.293178" style="fill: #1f77b4; stroke: #1f77b4"/>
     <use xlink:href="#mee551b8e3e" x="203.774026" y="96.658796" style="fill: #1f77b4; stroke: #1f77b4"/>
     <use xlink:href="#mee551b8e3e" x="205.223377" y="90.259252" style="fill: #1f77b4; stroke: #1f77b4"/>
     <use xlink:href="#mee551b8e3e" x="206.672727" y="105.973535" style="fill: #1f77b4; stroke: #1f77b4"/>
     <use xlink:href="#mee551b8e3e" x="208.122078" y="117.091297" style="fill: #1f77b4; stroke: #1f77b4"/>
     <use xlink:href="#mee551b8e3e" x="209.571429" y="97.354223" style="fill: #1f77b4; stroke: #1f77b4"/>
     <use xlink:href="#mee551b8e3e" x="211.020779" y="108.390797" style="fill: #1f77b4; stroke: #1f77b4"/>
     <use xlink:href="#mee551b8e3e" x="212.47013" y="114.90799" style="fill: #1f77b4; stroke: #1f77b4"/>
     <use xlink:href="#mee551b8e3e" x="213.919481" y="107.580503" style="fill: #1f77b4; stroke: #1f77b4"/>
     <use xlink:href="#mee551b8e3e" x="215.368831" y="112.195214" style="fill: #1f77b4; stroke: #1f77b4"/>
     <use xlink:href="#mee551b8e3e" x="216.818182" y="104.601114" style="fill: #1f77b4; stroke: #1f77b4"/>
     <use xlink:href="#mee551b8e3e" x="218.267532" y="98.787337" style="fill: #1f77b4; stroke: #1f77b4"/>
     <use xlink:href="#mee551b8e3e" x="219.716883" y="107.41518" style="fill: #1f77b4; stroke: #1f77b4"/>
     <use xlink:href="#mee551b8e3e" x="221.166234" y="118.879131" style="fill: #1f77b4; stroke: #1f77b4"/>
     <use xlink:href="#mee551b8e3e" x="222.615584" y="116.827214" style="fill: #1f77b4; stroke: #1f77b4"/>
     <use xlink:href="#mee551b8e3e" x="224.064935" y="107.543004" style="fill: #1f77b4; stroke: #1f77b4"/>
     <use xlink:href="#mee551b8e3e" x="225.514286" y="119.104694" style="fill: #1f77b4; stroke: #1f77b4"/>
     <use xlink:href="#mee551b8e3e" x="226.963636" y="118.133" style="fill: #1f77b4; stroke: #1f77b4"/>
     <use xlink:href="#mee551b8e3e" x="228.412987" y="122.216404" style="fill: #1f77b4; stroke: #1f77b4"/>
     <use xlink:href="#mee551b8e3e" x="229.862338" y="114.905203" style="fill: #1f77b4; stroke: #1f77b4"/>
     <use xlink:href="#mee551b8e3e" x="231.311688" y="123.586236" style="fill: #1f77b4; stroke: #1f77b4"/>
     <use xlink:href="#mee551b8e3e" x="232.761039" y="112.029567" style="fill: #1f77b4; stroke: #1f77b4"/>
     <use xlink:href="#mee551b8e3e" x="234.21039" y="118.922689" style="fill: #1f77b4; stroke: #1f77b4"/>
     <use xlink:href="#mee551b8e3e" x="235.65974" y="115.920783" style="fill: #1f77b4; stroke: #1f77b4"/>
     <use xlink:href="#mee551b8e3e" x="237.109091" y="118.094898" style="fill: #1f77b4; stroke: #1f77b4"/>
     <use xlink:href="#mee551b8e3e" x="238.558442" y="106.579023" style="fill: #1f77b4; stroke: #1f77b4"/>
     <use xlink:href="#mee551b8e3e" x="240.007792" y="114.123985" style="fill: #1f77b4; stroke: #1f77b4"/>
     <use xlink:href="#mee551b8e3e" x="241.457143" y="119.914767" style="fill: #1f77b4; stroke: #1f77b4"/>
     <use xlink:href="#mee551b8e3e" x="242.906494" y="139.627116" style="fill: #1f77b4; stroke: #1f77b4"/>
     <use xlink:href="#mee551b8e3e" x="244.355844" y="128.906175" style="fill: #1f77b4; stroke: #1f77b4"/>
     <use xlink:href="#mee551b8e3e" x="245.805195" y="119.172354" style="fill: #1f77b4; stroke: #1f77b4"/>
     <use xlink:href="#mee551b8e3e" x="247.254545" y="136.665127" style="fill: #1f77b4; stroke: #1f77b4"/>
     <use xlink:href="#mee551b8e3e" x="248.703896" y="139.668731" style="fill: #1f77b4; stroke: #1f77b4"/>
     <use xlink:href="#mee551b8e3e" x="250.153247" y="137.334531" style="fill: #1f77b4; stroke: #1f77b4"/>
     <use xlink:href="#mee551b8e3e" x="251.602597" y="137.480015" style="fill: #1f77b4; stroke: #1f77b4"/>
     <use xlink:href="#mee551b8e3e" x="253.051948" y="138.855858" style="fill: #1f77b4; stroke: #1f77b4"/>
     <use xlink:href="#mee551b8e3e" x="254.501299" y="142.738572" style="fill: #1f77b4; stroke: #1f77b4"/>
     <use xlink:href="#mee551b8e3e" x="255.950649" y="142.184747" style="fill: #1f77b4; stroke: #1f77b4"/>
     <use xlink:href="#mee551b8e3e" x="257.4" y="148.816386" style="fill: #1f77b4; stroke: #1f77b4"/>
     <use xlink:href="#mee551b8e3e" x="258.849351" y="160.813723" style="fill: #1f77b4; stroke: #1f77b4"/>
     <use xlink:href="#mee551b8e3e" x="260.298701" y="142.752282" style="fill: #1f77b4; stroke: #1f77b4"/>
     <use xlink:href="#mee551b8e3e" x="261.748052" y="139.944077" style="fill: #1f77b4; stroke: #1f77b4"/>
     <use xlink:href="#mee551b8e3e" x="263.197403" y="147.634132" style="fill: #1f77b4; stroke: #1f77b4"/>
     <use xlink:href="#mee551b8e3e" x="264.646753" y="149.942464" style="fill: #1f77b4; stroke: #1f77b4"/>
     <use xlink:href="#mee551b8e3e" x="266.096104" y="151.013985" style="fill: #1f77b4; stroke: #1f77b4"/>
     <use xlink:href="#mee551b8e3e" x="267.545455" y="163.696547" style="fill: #1f77b4; stroke: #1f77b4"/>
     <use xlink:href="#mee551b8e3e" x="268.994805" y="165.635561" style="fill: #1f77b4; stroke: #1f77b4"/>
     <use xlink:href="#mee551b8e3e" x="270.444156" y="150.076687" style="fill: #1f77b4; stroke: #1f77b4"/>
     <use xlink:href="#mee551b8e3e" x="271.893506" y="151.796415" style="fill: #1f77b4; stroke: #1f77b4"/>
     <use xlink:href="#mee551b8e3e" x="273.342857" y="166.766529" style="fill: #1f77b4; stroke: #1f77b4"/>
     <use xlink:href="#mee551b8e3e" x="274.792208" y="159.828549" style="fill: #1f77b4; stroke: #1f77b4"/>
     <use xlink:href="#mee551b8e3e" x="276.241558" y="174.408998" style="fill: #1f77b4; stroke: #1f77b4"/>
     <use xlink:href="#mee551b8e3e" x="277.690909" y="176.485417" style="fill: #1f77b4; stroke: #1f77b4"/>
     <use xlink:href="#mee551b8e3e" x="279.14026" y="171.222823" style="fill: #1f77b4; stroke: #1f77b4"/>
     <use xlink:href="#mee551b8e3e" x="280.58961" y="162.253622" style="fill: #1f77b4; stroke: #1f77b4"/>
     <use xlink:href="#mee551b8e3e" x="282.038961" y="181.867794" style="fill: #1f77b4; stroke: #1f77b4"/>
     <use xlink:href="#mee551b8e3e" x="283.488312" y="182.567721" style="fill: #1f77b4; stroke: #1f77b4"/>
     <use xlink:href="#mee551b8e3e" x="284.937662" y="185.02307" style="fill: #1f77b4; stroke: #1f77b4"/>
     <use xlink:href="#mee551b8e3e" x="286.387013" y="188.572615" style="fill: #1f77b4; stroke: #1f77b4"/>
     <use xlink:href="#mee551b8e3e" x="287.836364" y="187.802661" style="fill: #1f77b4; stroke: #1f77b4"/>
     <use xlink:href="#mee551b8e3e" x="289.285714" y="206.127228" style="fill: #1f77b4; stroke: #1f77b4"/>
     <use xlink:href="#mee551b8e3e" x="290.735065" y="200.877172" style="fill: #1f77b4; stroke: #1f77b4"/>
     <use xlink:href="#mee551b8e3e" x="292.184416" y="213.470149" style="fill: #1f77b4; stroke: #1f77b4"/>
     <use xlink:href="#mee551b8e3e" x="293.633766" y="214.624018" style="fill: #1f77b4; stroke: #1f77b4"/>
     <use xlink:href="#mee551b8e3e" x="295.083117" y="215.288199" style="fill: #1f77b4; stroke: #1f77b4"/>
     <use xlink:href="#mee551b8e3e" x="296.532468" y="224.539427" style="fill: #1f77b4; stroke: #1f77b4"/>
     <use xlink:href="#mee551b8e3e" x="297.981818" y="237.690846" style="fill: #1f77b4; stroke: #1f77b4"/>
     <use xlink:href="#mee551b8e3e" x="299.431169" y="234.039182" style="fill: #1f77b4; stroke: #1f77b4"/>
     <use xlink:href="#mee551b8e3e" x="300.880519" y="237.15334" style="fill: #1f77b4; stroke: #1f77b4"/>
     <use xlink:href="#mee551b8e3e" x="302.32987" y="259.754321" style="fill: #1f77b4; stroke: #1f77b4"/>
     <use xlink:href="#mee551b8e3e" x="303.779221" y="256.962825" style="fill: #1f77b4; stroke: #1f77b4"/>
     <use xlink:href="#mee551b8e3e" x="305.228571" y="273.234322" style="fill: #1f77b4; stroke: #1f77b4"/>
     <use xlink:href="#mee551b8e3e" x="306.677922" y="269.128751" style="fill: #1f77b4; stroke: #1f77b4"/>
     <use xlink:href="#mee551b8e3e" x="308.127273" y="273.238922" style="fill: #1f77b4; stroke: #1f77b4"/>
     <use xlink:href="#mee551b8e3e" x="309.576623" y="285.252087" style="fill: #1f77b4; stroke: #1f77b4"/>
     <use xlink:href="#mee551b8e3e" x="311.025974" y="275.405621" style="fill: #1f77b4; stroke: #1f77b4"/>
     <use xlink:href="#mee551b8e3e" x="312.475325" y="279.026674" style="fill: #1f77b4; stroke: #1f77b4"/>
     <use xlink:href="#mee551b8e3e" x="313.924675" y="288.092204" style="fill: #1f77b4; stroke: #1f77b4"/>
     <use xlink:href="#mee551b8e3e" x="315.374026" y="301.605625" style="fill: #1f77b4; stroke: #1f77b4"/>
     <use xlink:href="#mee551b8e3e" x="316.823377" y="319.060147" style="fill: #1f77b4; stroke: #1f77b4"/>
     <use xlink:href="#mee551b8e3e" x="318.272727" y="313.879835" style="fill: #1f77b4; stroke: #1f77b4"/>
     <use xlink:href="#mee551b8e3e" x="319.722078" y="318.847385" style="fill: #1f77b4; stroke: #1f77b4"/>
     <use xlink:href="#mee551b8e3e" x="321.171429" y="324.707887" style="fill: #1f77b4; stroke: #1f77b4"/>
     <use xlink:href="#mee551b8e3e" x="322.620779" y="328.102078" style="fill: #1f77b4; stroke: #1f77b4"/>
     <use xlink:href="#mee551b8e3e" x="324.07013" y="347.729682" style="fill: #1f77b4; stroke: #1f77b4"/>
     <use xlink:href="#mee551b8e3e" x="325.519481" y="339.392941" style="fill: #1f77b4; stroke: #1f77b4"/>
     <use xlink:href="#mee551b8e3e" x="326.968831" y="341.939799" style="fill: #1f77b4; stroke: #1f77b4"/>
     <use xlink:href="#mee551b8e3e" x="328.418182" y="342.311777" style="fill: #1f77b4; stroke: #1f77b4"/>
     <use xlink:href="#mee551b8e3e" x="329.867532" y="340.898325" style="fill: #1f77b4; stroke: #1f77b4"/>
     <use xlink:href="#mee551b8e3e" x="331.316883" y="328.776443" style="fill: #1f77b4; stroke: #1f77b4"/>
     <use xlink:href="#mee551b8e3e" x="332.766234" y="339.550025" style="fill: #1f77b4; stroke: #1f77b4"/>
     <use xlink:href="#mee551b8e3e" x="334.215584" y="348.065011" style="fill: #1f77b4; stroke: #1f77b4"/>
     <use xlink:href="#mee551b8e3e" x="335.664935" y="346.551954" style="fill: #1f77b4; stroke: #1f77b4"/>
     <use xlink:href="#mee551b8e3e" x="337.114286" y="343.850507" style="fill: #1f77b4; stroke: #1f77b4"/>
     <use xlink:href="#mee551b8e3e" x="338.563636" y="355.285677" style="fill: #1f77b4; stroke: #1f77b4"/>
     <use xlink:href="#mee551b8e3e" x="340.012987" y="358.55506" style="fill: #1f77b4; stroke: #1f77b4"/>
     <use xlink:href="#mee551b8e3e" x="341.462338" y="350.011243" style="fill: #1f77b4; stroke: #1f77b4"/>
     <use xlink:href="#mee551b8e3e" x="342.911688" y="363.876912" style="fill: #1f77b4; stroke: #1f77b4"/>
     <use xlink:href="#mee551b8e3e" x="344.361039" y="335.796876" style="fill: #1f77b4; stroke: #1f77b4"/>
     <use xlink:href="#mee551b8e3e" x="345.81039" y="354.664709" style="fill: #1f77b4; stroke: #1f77b4"/>
     <use xlink:href="#mee551b8e3e" x="347.25974" y="354.796008" style="fill: #1f77b4; stroke: #1f77b4"/>
     <use xlink:href="#mee551b8e3e" x="348.709091" y="361.604085" style="fill: #1f77b4; stroke: #1f77b4"/>
     <use xlink:href="#mee551b8e3e" x="350.158442" y="365.727994" style="fill: #1f77b4; stroke: #1f77b4"/>
     <use xlink:href="#mee551b8e3e" x="351.607792" y="357.552313" style="fill: #1f77b4; stroke: #1f77b4"/>
     <use xlink:href="#mee551b8e3e" x="353.057143" y="369.36" style="fill: #1f77b4; stroke: #1f77b4"/>
     <use xlink:href="#mee551b8e3e" x="354.506494" y="366.849021" style="fill: #1f77b4; stroke: #1f77b4"/>
     <use xlink:href="#mee551b8e3e" x="355.955844" y="367.382595" style="fill: #1f77b4; stroke: #1f77b4"/>
     <use xlink:href="#mee551b8e3e" x="357.405195" y="356.827563" style="fill: #1f77b4; stroke: #1f77b4"/>
     <use xlink:href="#mee551b8e3e" x="358.854545" y="366.13769" style="fill: #1f77b4; stroke: #1f77b4"/>
     <use xlink:href="#mee551b8e3e" x="360.303896" y="366.95214" style="fill: #1f77b4; stroke: #1f77b4"/>
     <use xlink:href="#mee551b8e3e" x="361.753247" y="357.876443" style="fill: #1f77b4; stroke: #1f77b4"/>
     <use xlink:href="#mee551b8e3e" x="363.202597" y="346.705057" style="fill: #1f77b4; stroke: #1f77b4"/>
     <use xlink:href="#mee551b8e3e" x="364.651948" y="347.892106" style="fill: #1f77b4; stroke: #1f77b4"/>
     <use xlink:href="#mee551b8e3e" x="366.101299" y="349.462608" style="fill: #1f77b4; stroke: #1f77b4"/>
     <use xlink:href="#mee551b8e3e" x="367.550649" y="334.944148" style="fill: #1f77b4; stroke: #1f77b4"/>
     <use xlink:href="#mee551b8e3e" x="369" y="354.297253" style="fill: #1f77b4; stroke: #1f77b4"/>
     <use xlink:href="#mee551b8e3e" x="370.449351" y="343.893405" style="fill: #1f77b4; stroke: #1f77b4"/>
     <use xlink:href="#mee551b8e3e" x="371.898701" y="361.235206" style="fill: #1f77b4; stroke: #1f77b4"/>
     <use xlink:href="#mee551b8e3e" x="373.348052" y="353.255345" style="fill: #1f77b4; stroke: #1f77b4"/>
     <use xlink:href="#mee551b8e3e" x="374.797403" y="350.276226" style="fill: #1f77b4; stroke: #1f77b4"/>
     <use xlink:href="#mee551b8e3e" x="376.246753" y="345.548925" style="fill: #1f77b4; stroke: #1f77b4"/>
     <use xlink:href="#mee551b8e3e" x="377.696104" y="351.815916" style="fill: #1f77b4; stroke: #1f77b4"/>
     <use xlink:href="#mee551b8e3e" x="379.145455" y="357.918537" style="fill: #1f77b4; stroke: #1f77b4"/>
     <use xlink:href="#mee551b8e3e" x="380.594805" y="343.172132" style="fill: #1f77b4; stroke: #1f77b4"/>
     <use xlink:href="#mee551b8e3e" x="382.044156" y="334.319076" style="fill: #1f77b4; stroke: #1f77b4"/>
     <use xlink:href="#mee551b8e3e" x="383.493506" y="344.925733" style="fill: #1f77b4; stroke: #1f77b4"/>
     <use xlink:href="#mee551b8e3e" x="384.942857" y="358.508852" style="fill: #1f77b4; stroke: #1f77b4"/>
     <use xlink:href="#mee551b8e3e" x="386.392208" y="345.144112" style="fill: #1f77b4; stroke: #1f77b4"/>
     <use xlink:href="#mee551b8e3e" x="387.841558" y="330.818375" style="fill: #1f77b4; stroke: #1f77b4"/>
     <use xlink:href="#mee551b8e3e" x="389.290909" y="328.891632" style="fill: #1f77b4; stroke: #1f77b4"/>
     <use xlink:href="#mee551b8e3e" x="390.74026" y="317.693429" style="fill: #1f77b4; stroke: #1f77b4"/>
     <use xlink:href="#mee551b8e3e" x="392.18961" y="321.560367" style="fill: #1f77b4; stroke: #1f77b4"/>
     <use xlink:href="#mee551b8e3e" x="393.638961" y="303.815045" style="fill: #1f77b4; stroke: #1f77b4"/>
     <use xlink:href="#mee551b8e3e" x="395.088312" y="295.820804" style="fill: #1f77b4; stroke: #1f77b4"/>
     <use xlink:href="#mee551b8e3e" x="396.537662" y="288.102953" style="fill: #1f77b4; stroke: #1f77b4"/>
     <use xlink:href="#mee551b8e3e" x="397.987013" y="296.171145" style="fill: #1f77b4; stroke: #1f77b4"/>
     <use xlink:href="#mee551b8e3e" x="399.436364" y="268.846751" style="fill: #1f77b4; stroke: #1f77b4"/>
     <use xlink:href="#mee551b8e3e" x="400.885714" y="277.613404" style="fill: #1f77b4; stroke: #1f77b4"/>
     <use xlink:href="#mee551b8e3e" x="402.335065" y="265.074624" style="fill: #1f77b4; stroke: #1f77b4"/>
     <use xlink:href="#mee551b8e3e" x="403.784416" y="260.128776" style="fill: #1f77b4; stroke: #1f77b4"/>
     <use xlink:href="#mee551b8e3e" x="405.233766" y="255.902646" style="fill: #1f77b4; stroke: #1f77b4"/>
     <use xlink:href="#mee551b8e3e" x="406.683117" y="252.83969" style="fill: #1f77b4; stroke: #1f77b4"/>
     <use xlink:href="#mee551b8e3e" x="408.132468" y="237.849081" style="fill: #1f77b4; stroke: #1f77b4"/>
     <use xlink:href="#mee551b8e3e" x="409.581818" y="241.631839" style="fill: #1f77b4; stroke: #1f77b4"/>
     <use xlink:href="#mee551b8e3e" x="411.031169" y="219.402584" style="fill: #1f77b4; stroke: #1f77b4"/>
     <use xlink:href="#mee551b8e3e" x="412.480519" y="218.340995" style="fill: #1f77b4; stroke: #1f77b4"/>
     <use xlink:href="#mee551b8e3e" x="413.92987" y="228.632298" style="fill: #1f77b4; stroke: #1f77b4"/>
     <use xlink:href="#mee551b8e3e" x="415.379221" y="221.355695" style="fill: #1f77b4; stroke: #1f77b4"/>
     <use xlink:href="#mee551b8e3e" x="416.828571" y="202.060112" style="fill: #1f77b4; stroke: #1f77b4"/>
     <use xlink:href="#mee551b8e3e" x="418.277922" y="208.812822" style="fill: #1f77b4; stroke: #1f77b4"/>
     <use xlink:href="#mee551b8e3e" x="419.727273" y="215.326395" style="fill: #1f77b4; stroke: #1f77b4"/>
     <use xlink:href="#mee551b8e3e" x="421.176623" y="202.622646" style="fill: #1f77b4; stroke: #1f77b4"/>
     <use xlink:href="#mee551b8e3e" x="422.625974" y="206.65075" style="fill: #1f77b4; stroke: #1f77b4"/>
     <use xlink:href="#mee551b8e3e" x="424.075325" y="190.956929" style="fill: #1f77b4; stroke: #1f77b4"/>
     <use xlink:href="#mee551b8e3e" x="425.524675" y="191.558996" style="fill: #1f77b4; stroke: #1f77b4"/>
     <use xlink:href="#mee551b8e3e" x="426.974026" y="188.084632" style="fill: #1f77b4; stroke: #1f77b4"/>
     <use xlink:href="#mee551b8e3e" x="428.423377" y="191.563013" style="fill: #1f77b4; stroke: #1f77b4"/>
     <use xlink:href="#mee551b8e3e" x="429.872727" y="183.12828" style="fill: #1f77b4; stroke: #1f77b4"/>
     <use xlink:href="#mee551b8e3e" x="431.322078" y="181.773917" style="fill: #1f77b4; stroke: #1f77b4"/>
     <use xlink:href="#mee551b8e3e" x="432.771429" y="170.989557" style="fill: #1f77b4; stroke: #1f77b4"/>
     <use xlink:href="#mee551b8e3e" x="434.220779" y="168.664157" style="fill: #1f77b4; stroke: #1f77b4"/>
     <use xlink:href="#mee551b8e3e" x="435.67013" y="173.439367" style="fill: #1f77b4; stroke: #1f77b4"/>
     <use xlink:href="#mee551b8e3e" x="437.119481" y="171.843516" style="fill: #1f77b4; stroke: #1f77b4"/>
     <use xlink:href="#mee551b8e3e" x="438.568831" y="162.420332" style="fill: #1f77b4; stroke: #1f77b4"/>
     <use xlink:href="#mee551b8e3e" x="440.018182" y="163.856791" style="fill: #1f77b4; stroke: #1f77b4"/>
     <use xlink:href="#mee551b8e3e" x="441.467532" y="158.49179" style="fill: #1f77b4; stroke: #1f77b4"/>
     <use xlink:href="#mee551b8e3e" x="442.916883" y="169.83962" style="fill: #1f77b4; stroke: #1f77b4"/>
     <use xlink:href="#mee551b8e3e" x="444.366234" y="148.616149" style="fill: #1f77b4; stroke: #1f77b4"/>
     <use xlink:href="#mee551b8e3e" x="445.815584" y="158.915493" style="fill: #1f77b4; stroke: #1f77b4"/>
     <use xlink:href="#mee551b8e3e" x="447.264935" y="148.850485" style="fill: #1f77b4; stroke: #1f77b4"/>
     <use xlink:href="#mee551b8e3e" x="448.714286" y="145.068959" style="fill: #1f77b4; stroke: #1f77b4"/>
     <use xlink:href="#mee551b8e3e" x="450.163636" y="145.359228" style="fill: #1f77b4; stroke: #1f77b4"/>
     <use xlink:href="#mee551b8e3e" x="451.612987" y="151.952609" style="fill: #1f77b4; stroke: #1f77b4"/>
     <use xlink:href="#mee551b8e3e" x="453.062338" y="155.121672" style="fill: #1f77b4; stroke: #1f77b4"/>
     <use xlink:href="#mee551b8e3e" x="454.511688" y="146.641293" style="fill: #1f77b4; stroke: #1f77b4"/>
     <use xlink:href="#mee551b8e3e" x="455.961039" y="151.199769" style="fill: #1f77b4; stroke: #1f77b4"/>
     <use xlink:href="#mee551b8e3e" x="457.41039" y="143.077495" style="fill: #1f77b4; stroke: #1f77b4"/>
     <use xlink:href="#mee551b8e3e" x="458.85974" y="152.220806" style="fill: #1f77b4; stroke: #1f77b4"/>
     <use xlink:href="#mee551b8e3e" x="460.309091" y="152.38355" style="fill: #1f77b4; stroke: #1f77b4"/>
     <use xlink:href="#mee551b8e3e" x="461.758442" y="136.033667" style="fill: #1f77b4; stroke: #1f77b4"/>
     <use xlink:href="#mee551b8e3e" x="463.207792" y="134.982193" style="fill: #1f77b4; stroke: #1f77b4"/>
     <use xlink:href="#mee551b8e3e" x="464.657143" y="134.447795" style="fill: #1f77b4; stroke: #1f77b4"/>
     <use xlink:href="#mee551b8e3e" x="466.106494" y="147.74235" style="fill: #1f77b4; stroke: #1f77b4"/>
     <use xlink:href="#mee551b8e3e" x="467.555844" y="140.463133" style="fill: #1f77b4; stroke: #1f77b4"/>
     <use xlink:href="#mee551b8e3e" x="469.005195" y="152.642987" style="fill: #1f77b4; stroke: #1f77b4"/>
     <use xlink:href="#mee551b8e3e" x="470.454545" y="133.477649" style="fill: #1f77b4; stroke: #1f77b4"/>
     <use xlink:href="#mee551b8e3e" x="471.903896" y="130.670434" style="fill: #1f77b4; stroke: #1f77b4"/>
     <use xlink:href="#mee551b8e3e" x="473.353247" y="120.662236" style="fill: #1f77b4; stroke: #1f77b4"/>
     <use xlink:href="#mee551b8e3e" x="474.802597" y="135.452407" style="fill: #1f77b4; stroke: #1f77b4"/>
     <use xlink:href="#mee551b8e3e" x="476.251948" y="122.140398" style="fill: #1f77b4; stroke: #1f77b4"/>
     <use xlink:href="#mee551b8e3e" x="477.701299" y="139.871763" style="fill: #1f77b4; stroke: #1f77b4"/>
     <use xlink:href="#mee551b8e3e" x="479.150649" y="139.077728" style="fill: #1f77b4; stroke: #1f77b4"/>
     <use xlink:href="#mee551b8e3e" x="480.6" y="134.180259" style="fill: #1f77b4; stroke: #1f77b4"/>
     <use xlink:href="#mee551b8e3e" x="482.049351" y="118.990275" style="fill: #1f77b4; stroke: #1f77b4"/>
     <use xlink:href="#mee551b8e3e" x="483.498701" y="120.129391" style="fill: #1f77b4; stroke: #1f77b4"/>
     <use xlink:href="#mee551b8e3e" x="484.948052" y="130.659667" style="fill: #1f77b4; stroke: #1f77b4"/>
     <use xlink:href="#mee551b8e3e" x="486.397403" y="116.950093" style="fill: #1f77b4; stroke: #1f77b4"/>
     <use xlink:href="#mee551b8e3e" x="487.846753" y="133.36113" style="fill: #1f77b4; stroke: #1f77b4"/>
     <use xlink:href="#mee551b8e3e" x="489.296104" y="117.982117" style="fill: #1f77b4; stroke: #1f77b4"/>
     <use xlink:href="#mee551b8e3e" x="490.745455" y="126.110031" style="fill: #1f77b4; stroke: #1f77b4"/>
     <use xlink:href="#mee551b8e3e" x="492.194805" y="122.204736" style="fill: #1f77b4; stroke: #1f77b4"/>
     <use xlink:href="#mee551b8e3e" x="493.644156" y="118.003795" style="fill: #1f77b4; stroke: #1f77b4"/>
     <use xlink:href="#mee551b8e3e" x="495.093506" y="123.059258" style="fill: #1f77b4; stroke: #1f77b4"/>
     <use xlink:href="#mee551b8e3e" x="496.542857" y="126.508327" style="fill: #1f77b4; stroke: #1f77b4"/>
     <use xlink:href="#mee551b8e3e" x="497.992208" y="114.283168" style="fill: #1f77b4; stroke: #1f77b4"/>
     <use xlink:href="#mee551b8e3e" x="499.441558" y="112.763322" style="fill: #1f77b4; stroke: #1f77b4"/>
     <use xlink:href="#mee551b8e3e" x="500.890909" y="114.715597" style="fill: #1f77b4; stroke: #1f77b4"/>
     <use xlink:href="#mee551b8e3e" x="502.34026" y="105.372342" style="fill: #1f77b4; stroke: #1f77b4"/>
     <use xlink:href="#mee551b8e3e" x="503.78961" y="105.784393" style="fill: #1f77b4; stroke: #1f77b4"/>
     <use xlink:href="#mee551b8e3e" x="505.238961" y="111.495206" style="fill: #1f77b4; stroke: #1f77b4"/>
     <use xlink:href="#mee551b8e3e" x="506.688312" y="117.03554" style="fill: #1f77b4; stroke: #1f77b4"/>
     <use xlink:href="#mee551b8e3e" x="508.137662" y="107.436348" style="fill: #1f77b4; stroke: #1f77b4"/>
     <use xlink:href="#mee551b8e3e" x="509.587013" y="112.45218" style="fill: #1f77b4; stroke: #1f77b4"/>
     <use xlink:href="#mee551b8e3e" x="511.036364" y="104.31997" style="fill: #1f77b4; stroke: #1f77b4"/>
     <use xlink:href="#mee551b8e3e" x="512.485714" y="115.074281" style="fill: #1f77b4; stroke: #1f77b4"/>
     <use xlink:href="#mee551b8e3e" x="513.935065" y="107.960314" style="fill: #1f77b4; stroke: #1f77b4"/>
     <use xlink:href="#mee551b8e3e" x="515.384416" y="116.347516" style="fill: #1f77b4; stroke: #1f77b4"/>
     <use xlink:href="#mee551b8e3e" x="516.833766" y="107.852315" style="fill: #1f77b4; stroke: #1f77b4"/>
     <use xlink:href="#mee551b8e3e" x="518.283117" y="128.829362" style="fill: #1f77b4; stroke: #1f77b4"/>
     <use xlink:href="#mee551b8e3e" x="519.732468" y="102.773137" style="fill: #1f77b4; stroke: #1f77b4"/>
     <use xlink:href="#mee551b8e3e" x="521.181818" y="113.955289" style="fill: #1f77b4; stroke: #1f77b4"/>
     <use xlink:href="#mee551b8e3e" x="522.631169" y="124.677392" style="fill: #1f77b4; stroke: #1f77b4"/>
     <use xlink:href="#mee551b8e3e" x="524.080519" y="109.404908" style="fill: #1f77b4; stroke: #1f77b4"/>
     <use xlink:href="#mee551b8e3e" x="525.52987" y="102.830899" style="fill: #1f77b4; stroke: #1f77b4"/>
     <use xlink:href="#mee551b8e3e" x="526.979221" y="110.061514" style="fill: #1f77b4; stroke: #1f77b4"/>
     <use xlink:href="#mee551b8e3e" x="528.428571" y="109.141304" style="fill: #1f77b4; stroke: #1f77b4"/>
     <use xlink:href="#mee551b8e3e" x="529.877922" y="94.128109" style="fill: #1f77b4; stroke: #1f77b4"/>
     <use xlink:href="#mee551b8e3e" x="531.327273" y="113.117765" style="fill: #1f77b4; stroke: #1f77b4"/>
     <use xlink:href="#mee551b8e3e" x="532.776623" y="101.407894" style="fill: #1f77b4; stroke: #1f77b4"/>
     <use xlink:href="#mee551b8e3e" x="534.225974" y="112.603807" style="fill: #1f77b4; stroke: #1f77b4"/>
     <use xlink:href="#mee551b8e3e" x="535.675325" y="116.473714" style="fill: #1f77b4; stroke: #1f77b4"/>
     <use xlink:href="#mee551b8e3e" x="537.124675" y="101.963418" style="fill: #1f77b4; stroke: #1f77b4"/>
     <use xlink:href="#mee551b8e3e" x="538.574026" y="108.537518" style="fill: #1f77b4; stroke: #1f77b4"/>
     <use xlink:href="#mee551b8e3e" x="540.023377" y="107.746724" style="fill: #1f77b4; stroke: #1f77b4"/>
     <use xlink:href="#mee551b8e3e" x="541.472727" y="112.530368" style="fill: #1f77b4; stroke: #1f77b4"/>
     <use xlink:href="#mee551b8e3e" x="542.922078" y="105.132713" style="fill: #1f77b4; stroke: #1f77b4"/>
     <use xlink:href="#mee551b8e3e" x="544.371429" y="104.507439" style="fill: #1f77b4; stroke: #1f77b4"/>
     <use xlink:href="#mee551b8e3e" x="545.820779" y="98.406608" style="fill: #1f77b4; stroke: #1f77b4"/>
     <use xlink:href="#mee551b8e3e" x="547.27013" y="107.738356" style="fill: #1f77b4; stroke: #1f77b4"/>
     <use xlink:href="#mee551b8e3e" x="548.719481" y="102.782546" style="fill: #1f77b4; stroke: #1f77b4"/>
     <use xlink:href="#mee551b8e3e" x="550.168831" y="102.103085" style="fill: #1f77b4; stroke: #1f77b4"/>
     <use xlink:href="#mee551b8e3e" x="551.618182" y="99.925048" style="fill: #1f77b4; stroke: #1f77b4"/>
     <use xlink:href="#mee551b8e3e" x="553.067532" y="108.325829" style="fill: #1f77b4; stroke: #1f77b4"/>
     <use xlink:href="#mee551b8e3e" x="554.516883" y="101.530814" style="fill: #1f77b4; stroke: #1f77b4"/>
     <use xlink:href="#mee551b8e3e" x="555.966234" y="95.368022" style="fill: #1f77b4; stroke: #1f77b4"/>
     <use xlink:href="#mee551b8e3e" x="557.415584" y="88.95291" style="fill: #1f77b4; stroke: #1f77b4"/>
     <use xlink:href="#mee551b8e3e" x="558.864935" y="106.496228" style="fill: #1f77b4; stroke: #1f77b4"/>
     <use xlink:href="#mee551b8e3e" x="560.314286" y="96.290374" style="fill: #1f77b4; stroke: #1f77b4"/>
     <use xlink:href="#mee551b8e3e" x="561.763636" y="108.370383" style="fill: #1f77b4; stroke: #1f77b4"/>
     <use xlink:href="#mee551b8e3e" x="563.212987" y="111.782246" style="fill: #1f77b4; stroke: #1f77b4"/>
     <use xlink:href="#mee551b8e3e" x="564.662338" y="98.687621" style="fill: #1f77b4; stroke: #1f77b4"/>
     <use xlink:href="#mee551b8e3e" x="566.111688" y="90.88597" style="fill: #1f77b4; stroke: #1f77b4"/>
     <use xlink:href="#mee551b8e3e" x="567.561039" y="103.488348" style="fill: #1f77b4; stroke: #1f77b4"/>
     <use xlink:href="#mee551b8e3e" x="569.01039" y="80.843484" style="fill: #1f77b4; stroke: #1f77b4"/>
     <use xlink:href="#mee551b8e3e" x="570.45974" y="93.527694" style="fill: #1f77b4; stroke: #1f77b4"/>
     <use xlink:href="#mee551b8e3e" x="571.909091" y="99.945068" style="fill: #1f77b4; stroke: #1f77b4"/>
     <use xlink:href="#mee551b8e3e" x="573.358442" y="98.838925" style="fill: #1f77b4; stroke: #1f77b4"/>
     <use xlink:href="#mee551b8e3e" x="574.807792" y="92.738768" style="fill: #1f77b4; stroke: #1f77b4"/>
     <use xlink:href="#mee551b8e3e" x="576.257143" y="99.742422" style="fill: #1f77b4; stroke: #1f77b4"/>
     <use xlink:href="#mee551b8e3e" x="577.706494" y="80.559436" style="fill: #1f77b4; stroke: #1f77b4"/>
     <use xlink:href="#mee551b8e3e" x="579.155844" y="99.162104" style="fill: #1f77b4; stroke: #1f77b4"/>
     <use xlink:href="#mee551b8e3e" x="580.605195" y="96.722822" style="fill: #1f77b4; stroke: #1f77b4"/>
     <use xlink:href="#mee551b8e3e" x="582.054545" y="107.357428" style="fill: #1f77b4; stroke: #1f77b4"/>
     <use xlink:href="#mee551b8e3e" x="583.503896" y="106.493777" style="fill: #1f77b4; stroke: #1f77b4"/>
     <use xlink:href="#mee551b8e3e" x="584.953247" y="94.667911" style="fill: #1f77b4; stroke: #1f77b4"/>
     <use xlink:href="#mee551b8e3e" x="586.402597" y="104.503645" style="fill: #1f77b4; stroke: #1f77b4"/>
     <use xlink:href="#mee551b8e3e" x="587.851948" y="112.070052" style="fill: #1f77b4; stroke: #1f77b4"/>
     <use xlink:href="#mee551b8e3e" x="589.301299" y="97.54084" style="fill: #1f77b4; stroke: #1f77b4"/>
     <use xlink:href="#mee551b8e3e" x="590.750649" y="100.509494" style="fill: #1f77b4; stroke: #1f77b4"/>
     <use xlink:href="#mee551b8e3e" x="592.2" y="105.131523" style="fill: #1f77b4; stroke: #1f77b4"/>
     <use xlink:href="#mee551b8e3e" x="593.649351" y="102.525754" style="fill: #1f77b4; stroke: #1f77b4"/>
     <use xlink:href="#mee551b8e3e" x="595.098701" y="104.663587" style="fill: #1f77b4; stroke: #1f77b4"/>
     <use xlink:href="#mee551b8e3e" x="596.548052" y="97.880502" style="fill: #1f77b4; stroke: #1f77b4"/>
     <use xlink:href="#mee551b8e3e" x="597.997403" y="93.768408" style="fill: #1f77b4; stroke: #1f77b4"/>
     <use xlink:href="#mee551b8e3e" x="599.446753" y="98.882973" style="fill: #1f77b4; stroke: #1f77b4"/>
     <use xlink:href="#mee551b8e3e" x="600.896104" y="108.169368" style="fill: #1f77b4; stroke: #1f77b4"/>
     <use xlink:href="#mee551b8e3e" x="602.345455" y="98.499291" style="fill: #1f77b4; stroke: #1f77b4"/>
     <use xlink:href="#mee551b8e3e" x="603.794805" y="93.199963" style="fill: #1f77b4; stroke: #1f77b4"/>
     <use xlink:href="#mee551b8e3e" x="605.244156" y="99.198745" style="fill: #1f77b4; stroke: #1f77b4"/>
     <use xlink:href="#mee551b8e3e" x="606.693506" y="101.648365" style="fill: #1f77b4; stroke: #1f77b4"/>
     <use xlink:href="#mee551b8e3e" x="608.142857" y="103.375191" style="fill: #1f77b4; stroke: #1f77b4"/>
     <use xlink:href="#mee551b8e3e" x="609.592208" y="98.942625" style="fill: #1f77b4; stroke: #1f77b4"/>
     <use xlink:href="#mee551b8e3e" x="611.041558" y="108.20055" style="fill: #1f77b4; stroke: #1f77b4"/>
     <use xlink:href="#mee551b8e3e" x="612.490909" y="92.623716" style="fill: #1f77b4; stroke: #1f77b4"/>
     <use xlink:href="#mee551b8e3e" x="613.94026" y="87.628706" style="fill: #1f77b4; stroke: #1f77b4"/>
     <use xlink:href="#mee551b8e3e" x="615.38961" y="108.864466" style="fill: #1f77b4; stroke: #1f77b4"/>
     <use xlink:href="#mee551b8e3e" x="616.838961" y="99.222415" style="fill: #1f77b4; stroke: #1f77b4"/>
     <use xlink:href="#mee551b8e3e" x="618.288312" y="97.973753" style="fill: #1f77b4; stroke: #1f77b4"/>
     <use xlink:href="#mee551b8e3e" x="619.737662" y="86.947608" style="fill: #1f77b4; stroke: #1f77b4"/>
     <use xlink:href="#mee551b8e3e" x="621.187013" y="94.693965" style="fill: #1f77b4; stroke: #1f77b4"/>
     <use xlink:href="#mee551b8e3e" x="622.636364" y="100.746421" style="fill: #1f77b4; stroke: #1f77b4"/>
    </g>
   </g>
   <g id="line2d_18">
    <path d="M 115.363636 93.907128 
L 129.857143 95.135694 
L 142.901299 96.466823 
L 154.496104 97.878194 
L 164.641558 99.334144 
L 173.337662 100.784503 
L 182.033766 102.46298 
L 189.280519 104.07182 
L 196.527273 105.910262 
L 202.324675 107.576525 
L 208.122078 109.447098 
L 213.919481 111.556332 
L 219.716883 113.945904 
L 224.064935 115.95224 
L 228.412987 118.170231 
L 232.761039 120.629806 
L 237.109091 123.366072 
L 241.457143 126.420301 
L 245.805195 129.841112 
L 248.703896 132.353212 
L 251.602597 135.072952 
L 254.501299 138.022019 
L 257.4 141.224564 
L 260.298701 144.70742 
L 263.197403 148.500294 
L 266.096104 152.635905 
L 268.994805 157.150032 
L 271.893506 162.081406 
L 274.792208 167.471355 
L 277.690909 173.363094 
L 280.58961 179.800491 
L 283.488312 186.826102 
L 286.387013 194.478237 
L 289.285714 202.786777 
L 292.184416 211.76751 
L 295.083117 221.414876 
L 297.981818 231.693306 
L 302.32987 248.117396 
L 315.374026 298.998037 
L 318.272727 309.016805 
L 321.171429 318.048723 
L 324.07013 325.981462 
L 326.968831 332.811669 
L 329.867532 338.636966 
L 332.766234 343.623782 
L 335.664935 347.959524 
L 338.563636 351.802433 
L 341.462338 355.242437 
L 344.361039 358.28255 
L 347.25974 360.844861 
L 348.709091 361.907041 
L 350.158442 362.799093 
L 351.607792 363.503701 
L 353.057143 364.005925 
L 354.506494 364.294456 
L 355.955844 364.362561 
L 357.405195 364.208648 
L 358.854545 363.836396 
L 360.303896 363.254436 
L 361.753247 362.475626 
L 363.202597 361.515954 
L 364.651948 360.393206 
L 367.550649 357.729596 
L 370.449351 354.606505 
L 373.348052 351.08581 
L 376.246753 347.14537 
L 379.145455 342.678382 
L 382.044156 337.516965 
L 384.942857 331.474672 
L 387.841558 324.397292 
L 390.74026 316.208227 
L 393.638961 306.935767 
L 396.537662 296.715329 
L 400.885714 280.105989 
L 411.031169 240.109069 
L 415.379221 224.23565 
L 418.277922 214.405228 
L 421.176623 205.235342 
L 424.075325 196.738906 
L 426.974026 188.905212 
L 429.872727 181.707614 
L 432.771429 175.10963 
L 435.67013 169.069511 
L 438.568831 163.543499 
L 441.467532 158.488028 
L 444.366234 153.86114 
L 447.264935 149.623322 
L 450.163636 145.737947 
L 453.062338 142.171434 
L 455.961039 138.893246 
L 458.85974 135.875763 
L 461.758442 133.094103 
L 464.657143 130.525913 
L 469.005195 127.030596 
L 473.353247 123.911846 
L 477.701299 121.119532 
L 482.049351 118.611105 
L 486.397403 116.350393 
L 490.745455 114.306568 
L 496.542857 111.873869 
L 502.34026 109.728027 
L 508.137662 107.826204 
L 513.935065 106.133119 
L 521.181818 104.266254 
L 528.428571 102.633602 
L 537.124675 100.931399 
L 545.820779 99.461506 
L 555.966234 97.986901 
L 567.561039 96.558411 
L 579.155844 95.349916 
L 592.2 94.200226 
L 608.142857 93.033072 
L 622.636364 92.150601 
L 622.636364 92.150601 
" clip-path="url(#pfd0105e3b3)" style="fill: none; stroke-dasharray: 5.55,2.4; stroke-dashoffset: 0; stroke: #000000; stroke-width: 1.5"/>
   </g>
   <g id="patch_3">
    <path d="M 90 384.48 
L 90 51.84 
" style="fill: none; stroke: #000000; stroke-width: 0.8; stroke-linejoin: miter; stroke-linecap: square"/>
   </g>
   <g id="patch_4">
    <path d="M 648 384.48 
L 648 51.84 
" style="fill: none; stroke: #000000; stroke-width: 0.8; stroke-linejoin: miter; stroke-linecap: square"/>
   </g>
   <g id="patch_5">
    <path d="M 90 384.48 
L 648 384.48 
" style="fill: none; stroke: #000000; stroke-width: 0.8; stroke-linejoin: miter; stroke-linecap: square"/>
   </g>
   <g id="patch_6">
    <path d="M 90 51.84 
L 648 51.84 
" style="fill: none; stroke: #000000; stroke-width: 0.8; stroke-linejoin: miter; stroke-linecap: square"/>
   </g>
   <g id="text_19">
    <!-- RF Power = -20, Line Width = 2.48 MHz -->
    <g transform="translate(250.095937 45.84) scale(0.12 -0.12)">
     <defs>
      <path id="DejaVuSans-52" d="M 2841 2188 
Q 3044 2119 3236 1894 
Q 3428 1669 3622 1275 
L 4263 0 
L 3584 0 
L 2988 1197 
Q 2756 1666 2539 1819 
Q 2322 1972 1947 1972 
L 1259 1972 
L 1259 0 
L 628 0 
L 628 4666 
L 2053 4666 
Q 2853 4666 3247 4331 
Q 3641 3997 3641 3322 
Q 3641 2881 3436 2590 
Q 3231 2300 2841 2188 
z
M 1259 4147 
L 1259 2491 
L 2053 2491 
Q 2509 2491 2742 2702 
Q 2975 2913 2975 3322 
Q 2975 3731 2742 3939 
Q 2509 4147 2053 4147 
L 1259 4147 
z
" transform="scale(0.015625)"/>
      <path id="DejaVuSans-46" d="M 628 4666 
L 3309 4666 
L 3309 4134 
L 1259 4134 
L 1259 2759 
L 3109 2759 
L 3109 2228 
L 1259 2228 
L 1259 0 
L 628 0 
L 628 4666 
z
" transform="scale(0.015625)"/>
      <path id="DejaVuSans-50" d="M 1259 4147 
L 1259 2394 
L 2053 2394 
Q 2494 2394 2734 2622 
Q 2975 2850 2975 3272 
Q 2975 3691 2734 3919 
Q 2494 4147 2053 4147 
L 1259 4147 
z
M 628 4666 
L 2053 4666 
Q 2838 4666 3239 4311 
Q 3641 3956 3641 3272 
Q 3641 2581 3239 2228 
Q 2838 1875 2053 1875 
L 1259 1875 
L 1259 0 
L 628 0 
L 628 4666 
z
" transform="scale(0.015625)"/>
      <path id="DejaVuSans-77" d="M 269 3500 
L 844 3500 
L 1563 769 
L 2278 3500 
L 2956 3500 
L 3675 769 
L 4391 3500 
L 4966 3500 
L 4050 0 
L 3372 0 
L 2619 2869 
L 1863 0 
L 1184 0 
L 269 3500 
z
" transform="scale(0.015625)"/>
      <path id="DejaVuSans-3d" d="M 678 2906 
L 4684 2906 
L 4684 2381 
L 678 2381 
L 678 2906 
z
M 678 1631 
L 4684 1631 
L 4684 1100 
L 678 1100 
L 678 1631 
z
" transform="scale(0.015625)"/>
      <path id="DejaVuSans-2d" d="M 313 2009 
L 1997 2009 
L 1997 1497 
L 313 1497 
L 313 2009 
z
" transform="scale(0.015625)"/>
      <path id="DejaVuSans-2c" d="M 750 794 
L 1409 794 
L 1409 256 
L 897 -744 
L 494 -744 
L 750 256 
L 750 794 
z
" transform="scale(0.015625)"/>
      <path id="DejaVuSans-4c" d="M 628 4666 
L 1259 4666 
L 1259 531 
L 3531 531 
L 3531 0 
L 628 0 
L 628 4666 
z
" transform="scale(0.015625)"/>
      <path id="DejaVuSans-69" d="M 603 3500 
L 1178 3500 
L 1178 0 
L 603 0 
L 603 3500 
z
M 603 4863 
L 1178 4863 
L 1178 4134 
L 603 4134 
L 603 4863 
z
" transform="scale(0.015625)"/>
      <path id="DejaVuSans-57" d="M 213 4666 
L 850 4666 
L 1831 722 
L 2809 4666 
L 3519 4666 
L 4500 722 
L 5478 4666 
L 6119 4666 
L 4947 0 
L 4153 0 
L 3169 4050 
L 2175 0 
L 1381 0 
L 213 4666 
z
" transform="scale(0.015625)"/>
      <path id="DejaVuSans-64" d="M 2906 2969 
L 2906 4863 
L 3481 4863 
L 3481 0 
L 2906 0 
L 2906 525 
Q 2725 213 2448 61 
Q 2172 -91 1784 -91 
Q 1150 -91 751 415 
Q 353 922 353 1747 
Q 353 2572 751 3078 
Q 1150 3584 1784 3584 
Q 2172 3584 2448 3432 
Q 2725 3281 2906 2969 
z
M 947 1747 
Q 947 1113 1208 752 
Q 1469 391 1925 391 
Q 2381 391 2643 752 
Q 2906 1113 2906 1747 
Q 2906 2381 2643 2742 
Q 2381 3103 1925 3103 
Q 1469 3103 1208 2742 
Q 947 2381 947 1747 
z
" transform="scale(0.015625)"/>
      <path id="DejaVuSans-68" d="M 3513 2113 
L 3513 0 
L 2938 0 
L 2938 2094 
Q 2938 2591 2744 2837 
Q 2550 3084 2163 3084 
Q 1697 3084 1428 2787 
Q 1159 2491 1159 1978 
L 1159 0 
L 581 0 
L 581 4863 
L 1159 4863 
L 1159 2956 
Q 1366 3272 1645 3428 
Q 1925 3584 2291 3584 
Q 2894 3584 3203 3211 
Q 3513 2838 3513 2113 
z
" transform="scale(0.015625)"/>
      <path id="DejaVuSans-34" d="M 2419 4116 
L 825 1625 
L 2419 1625 
L 2419 4116 
z
M 2253 4666 
L 3047 4666 
L 3047 1625 
L 3713 1625 
L 3713 1100 
L 3047 1100 
L 3047 0 
L 2419 0 
L 2419 1100 
L 313 1100 
L 313 1709 
L 2253 4666 
z
" transform="scale(0.015625)"/>
     </defs>
     <use xlink:href="#DejaVuSans-52"/>
     <use xlink:href="#DejaVuSans-46" x="69.482422"/>
     <use xlink:href="#DejaVuSans-20" x="127.001953"/>
     <use xlink:href="#DejaVuSans-50" x="158.789062"/>
     <use xlink:href="#DejaVuSans-6f" x="215.466797"/>
     <use xlink:href="#DejaVuSans-77" x="276.648438"/>
     <use xlink:href="#DejaVuSans-65" x="358.435547"/>
     <use xlink:href="#DejaVuSans-72" x="419.958984"/>
     <use xlink:href="#DejaVuSans-20" x="461.072266"/>
     <use xlink:href="#DejaVuSans-3d" x="492.859375"/>
     <use xlink:href="#DejaVuSans-20" x="576.648438"/>
     <use xlink:href="#DejaVuSans-2d" x="608.435547"/>
     <use xlink:href="#DejaVuSans-32" x="644.519531"/>
     <use xlink:href="#DejaVuSans-30" x="708.142578"/>
     <use xlink:href="#DejaVuSans-2c" x="771.765625"/>
     <use xlink:href="#DejaVuSans-20" x="803.552734"/>
     <use xlink:href="#DejaVuSans-4c" x="835.339844"/>
     <use xlink:href="#DejaVuSans-69" x="891.052734"/>
     <use xlink:href="#DejaVuSans-6e" x="918.835938"/>
     <use xlink:href="#DejaVuSans-65" x="982.214844"/>
     <use xlink:href="#DejaVuSans-20" x="1043.738281"/>
     <use xlink:href="#DejaVuSans-57" x="1075.525391"/>
     <use xlink:href="#DejaVuSans-69" x="1172.152344"/>
     <use xlink:href="#DejaVuSans-64" x="1199.935547"/>
     <use xlink:href="#DejaVuSans-74" x="1263.412109"/>
     <use xlink:href="#DejaVuSans-68" x="1302.621094"/>
     <use xlink:href="#DejaVuSans-20" x="1366"/>
     <use xlink:href="#DejaVuSans-3d" x="1397.787109"/>
     <use xlink:href="#DejaVuSans-20" x="1481.576172"/>
     <use xlink:href="#DejaVuSans-32" x="1513.363281"/>
     <use xlink:href="#DejaVuSans-2e" x="1576.986328"/>
     <use xlink:href="#DejaVuSans-34" x="1608.773438"/>
     <use xlink:href="#DejaVuSans-38" x="1672.396484"/>
     <use xlink:href="#DejaVuSans-20" x="1736.019531"/>
     <use xlink:href="#DejaVuSans-4d" x="1767.806641"/>
     <use xlink:href="#DejaVuSans-48" x="1854.085938"/>
     <use xlink:href="#DejaVuSans-7a" x="1929.28125"/>
    </g>
   </g>
   <g id="legend_1">
    <g id="patch_7">
     <path d="M 97 379.48 
L 152.876563 379.48 
Q 154.876563 379.48 154.876563 377.48 
L 154.876563 349.12375 
Q 154.876563 347.12375 152.876563 347.12375 
L 97 347.12375 
Q 95 347.12375 95 349.12375 
L 95 377.48 
Q 95 379.48 97 379.48 
z
" style="fill: #ffffff; opacity: 0.8; stroke: #cccccc; stroke-linejoin: miter"/>
    </g>
    <g id="line2d_19">
     <path d="M 99 355.222188 
L 109 355.222188 
L 119 355.222188 
" style="fill: none; stroke: #1f77b4; stroke-width: 1.5; stroke-linecap: square"/>
     <g>
      <use xlink:href="#mee551b8e3e" x="109" y="355.222188" style="fill: #1f77b4; stroke: #1f77b4"/>
     </g>
    </g>
    <g id="text_20">
     <!-- Data -->
     <g transform="translate(127 358.722188) scale(0.1 -0.1)">
      <defs>
       <path id="DejaVuSans-44" d="M 1259 4147 
L 1259 519 
L 2022 519 
Q 2988 519 3436 956 
Q 3884 1394 3884 2338 
Q 3884 3275 3436 3711 
Q 2988 4147 2022 4147 
L 1259 4147 
z
M 628 4666 
L 1925 4666 
Q 3281 4666 3915 4102 
Q 4550 3538 4550 2338 
Q 4550 1131 3912 565 
Q 3275 0 1925 0 
L 628 0 
L 628 4666 
z
" transform="scale(0.015625)"/>
      </defs>
      <use xlink:href="#DejaVuSans-44"/>
      <use xlink:href="#DejaVuSans-61" x="77.001953"/>
      <use xlink:href="#DejaVuSans-74" x="138.28125"/>
      <use xlink:href="#DejaVuSans-61" x="177.490234"/>
     </g>
    </g>
    <g id="line2d_20">
     <path d="M 99 369.900312 
L 109 369.900312 
L 119 369.900312 
" style="fill: none; stroke-dasharray: 5.55,2.4; stroke-dashoffset: 0; stroke: #000000; stroke-width: 1.5"/>
    </g>
    <g id="text_21">
     <!-- Fit -->
     <g transform="translate(127 373.400312) scale(0.1 -0.1)">
      <use xlink:href="#DejaVuSans-46"/>
      <use xlink:href="#DejaVuSans-69" x="50.269531"/>
      <use xlink:href="#DejaVuSans-74" x="78.052734"/>
     </g>
    </g>
   </g>
  </g>
 </g>
 <defs>
  <clipPath id="pfd0105e3b3">
   <rect x="90" y="51.84" width="558" height="332.64"/>
  </clipPath>
 </defs>
</svg>
