<?xml version="1.0" encoding="utf-8" standalone="no"?>
<!DOCTYPE svg PUBLIC "-//W3C//DTD SVG 1.1//EN"
  "http://www.w3.org/Graphics/SVG/1.1/DTD/svg11.dtd">
<svg xmlns:xlink="http://www.w3.org/1999/xlink" width="720pt" height="432pt" viewBox="0 0 720 432" xmlns="http://www.w3.org/2000/svg" version="1.1">
 <metadata>
  <rdf:RDF xmlns:dc="http://purl.org/dc/elements/1.1/" xmlns:cc="http://creativecommons.org/ns#" xmlns:rdf="http://www.w3.org/1999/02/22-rdf-syntax-ns#">
   <cc:Work>
    <dc:type rdf:resource="http://purl.org/dc/dcmitype/StillImage"/>
    <dc:date>2023-03-30T12:46:15.671248</dc:date>
    <dc:format>image/svg+xml</dc:format>
    <dc:creator>
     <cc:Agent>
      <dc:title>Matplotlib v3.7.0, https://matplotlib.org/</dc:title>
     </cc:Agent>
    </dc:creator>
   </cc:Work>
  </rdf:RDF>
 </metadata>
 <defs>
  <style type="text/css">*{stroke-linejoin: round; stroke-linecap: butt}</style>
 </defs>
 <g id="figure_1">
  <g id="patch_1">
   <path d="M 0 432 
L 720 432 
L 720 0 
L 0 0 
L 0 432 
z
" style="fill: none"/>
  </g>
  <g id="axes_1">
   <g id="patch_2">
    <path d="M 90 384.48 
L 648 384.48 
L 648 51.84 
L 90 51.84 
L 90 384.48 
z
" style="fill: none"/>
   </g>
   <g id="matplotlib.axis_1">
    <g id="xtick_1">
     <g id="line2d_1">
      <defs>
       <path id="m83049f7ad3" d="M 0 0 
L 0 3.5 
" style="stroke: #000000; stroke-width: 0.8"/>
      </defs>
      <g>
       <use xlink:href="#m83049f7ad3" x="115.363636" y="384.48" style="stroke: #000000; stroke-width: 0.8"/>
      </g>
     </g>
     <g id="text_1">
      <!-- 2765 -->
      <g transform="translate(102.638636 399.078438) scale(0.1 -0.1)">
       <defs>
        <path id="DejaVuSans-32" d="M 1228 531 
L 3431 531 
L 3431 0 
L 469 0 
L 469 531 
Q 828 903 1448 1529 
Q 2069 2156 2228 2338 
Q 2531 2678 2651 2914 
Q 2772 3150 2772 3378 
Q 2772 3750 2511 3984 
Q 2250 4219 1831 4219 
Q 1534 4219 1204 4116 
Q 875 4013 500 3803 
L 500 4441 
Q 881 4594 1212 4672 
Q 1544 4750 1819 4750 
Q 2544 4750 2975 4387 
Q 3406 4025 3406 3419 
Q 3406 3131 3298 2873 
Q 3191 2616 2906 2266 
Q 2828 2175 2409 1742 
Q 1991 1309 1228 531 
z
" transform="scale(0.015625)"/>
        <path id="DejaVuSans-37" d="M 525 4666 
L 3525 4666 
L 3525 4397 
L 1831 0 
L 1172 0 
L 2766 4134 
L 525 4134 
L 525 4666 
z
" transform="scale(0.015625)"/>
        <path id="DejaVuSans-36" d="M 2113 2584 
Q 1688 2584 1439 2293 
Q 1191 2003 1191 1497 
Q 1191 994 1439 701 
Q 1688 409 2113 409 
Q 2538 409 2786 701 
Q 3034 994 3034 1497 
Q 3034 2003 2786 2293 
Q 2538 2584 2113 2584 
z
M 3366 4563 
L 3366 3988 
Q 3128 4100 2886 4159 
Q 2644 4219 2406 4219 
Q 1781 4219 1451 3797 
Q 1122 3375 1075 2522 
Q 1259 2794 1537 2939 
Q 1816 3084 2150 3084 
Q 2853 3084 3261 2657 
Q 3669 2231 3669 1497 
Q 3669 778 3244 343 
Q 2819 -91 2113 -91 
Q 1303 -91 875 529 
Q 447 1150 447 2328 
Q 447 3434 972 4092 
Q 1497 4750 2381 4750 
Q 2619 4750 2861 4703 
Q 3103 4656 3366 4563 
z
" transform="scale(0.015625)"/>
        <path id="DejaVuSans-35" d="M 691 4666 
L 3169 4666 
L 3169 4134 
L 1269 4134 
L 1269 2991 
Q 1406 3038 1543 3061 
Q 1681 3084 1819 3084 
Q 2600 3084 3056 2656 
Q 3513 2228 3513 1497 
Q 3513 744 3044 326 
Q 2575 -91 1722 -91 
Q 1428 -91 1123 -41 
Q 819 9 494 109 
L 494 744 
Q 775 591 1075 516 
Q 1375 441 1709 441 
Q 2250 441 2565 725 
Q 2881 1009 2881 1497 
Q 2881 1984 2565 2268 
Q 2250 2553 1709 2553 
Q 1456 2553 1204 2497 
Q 953 2441 691 2322 
L 691 4666 
z
" transform="scale(0.015625)"/>
       </defs>
       <use xlink:href="#DejaVuSans-32"/>
       <use xlink:href="#DejaVuSans-37" x="63.623047"/>
       <use xlink:href="#DejaVuSans-36" x="127.246094"/>
       <use xlink:href="#DejaVuSans-35" x="190.869141"/>
      </g>
     </g>
    </g>
    <g id="xtick_2">
     <g id="line2d_2">
      <g>
       <use xlink:href="#m83049f7ad3" x="187.831169" y="384.48" style="stroke: #000000; stroke-width: 0.8"/>
      </g>
     </g>
     <g id="text_2">
      <!-- 2770 -->
      <g transform="translate(175.106169 399.078438) scale(0.1 -0.1)">
       <defs>
        <path id="DejaVuSans-30" d="M 2034 4250 
Q 1547 4250 1301 3770 
Q 1056 3291 1056 2328 
Q 1056 1369 1301 889 
Q 1547 409 2034 409 
Q 2525 409 2770 889 
Q 3016 1369 3016 2328 
Q 3016 3291 2770 3770 
Q 2525 4250 2034 4250 
z
M 2034 4750 
Q 2819 4750 3233 4129 
Q 3647 3509 3647 2328 
Q 3647 1150 3233 529 
Q 2819 -91 2034 -91 
Q 1250 -91 836 529 
Q 422 1150 422 2328 
Q 422 3509 836 4129 
Q 1250 4750 2034 4750 
z
" transform="scale(0.015625)"/>
       </defs>
       <use xlink:href="#DejaVuSans-32"/>
       <use xlink:href="#DejaVuSans-37" x="63.623047"/>
       <use xlink:href="#DejaVuSans-37" x="127.246094"/>
       <use xlink:href="#DejaVuSans-30" x="190.869141"/>
      </g>
     </g>
    </g>
    <g id="xtick_3">
     <g id="line2d_3">
      <g>
       <use xlink:href="#m83049f7ad3" x="260.298701" y="384.48" style="stroke: #000000; stroke-width: 0.8"/>
      </g>
     </g>
     <g id="text_3">
      <!-- 2775 -->
      <g transform="translate(247.573701 399.078438) scale(0.1 -0.1)">
       <use xlink:href="#DejaVuSans-32"/>
       <use xlink:href="#DejaVuSans-37" x="63.623047"/>
       <use xlink:href="#DejaVuSans-37" x="127.246094"/>
       <use xlink:href="#DejaVuSans-35" x="190.869141"/>
      </g>
     </g>
    </g>
    <g id="xtick_4">
     <g id="line2d_4">
      <g>
       <use xlink:href="#m83049f7ad3" x="332.766234" y="384.48" style="stroke: #000000; stroke-width: 0.8"/>
      </g>
     </g>
     <g id="text_4">
      <!-- 2780 -->
      <g transform="translate(320.041234 399.078438) scale(0.1 -0.1)">
       <defs>
        <path id="DejaVuSans-38" d="M 2034 2216 
Q 1584 2216 1326 1975 
Q 1069 1734 1069 1313 
Q 1069 891 1326 650 
Q 1584 409 2034 409 
Q 2484 409 2743 651 
Q 3003 894 3003 1313 
Q 3003 1734 2745 1975 
Q 2488 2216 2034 2216 
z
M 1403 2484 
Q 997 2584 770 2862 
Q 544 3141 544 3541 
Q 544 4100 942 4425 
Q 1341 4750 2034 4750 
Q 2731 4750 3128 4425 
Q 3525 4100 3525 3541 
Q 3525 3141 3298 2862 
Q 3072 2584 2669 2484 
Q 3125 2378 3379 2068 
Q 3634 1759 3634 1313 
Q 3634 634 3220 271 
Q 2806 -91 2034 -91 
Q 1263 -91 848 271 
Q 434 634 434 1313 
Q 434 1759 690 2068 
Q 947 2378 1403 2484 
z
M 1172 3481 
Q 1172 3119 1398 2916 
Q 1625 2713 2034 2713 
Q 2441 2713 2670 2916 
Q 2900 3119 2900 3481 
Q 2900 3844 2670 4047 
Q 2441 4250 2034 4250 
Q 1625 4250 1398 4047 
Q 1172 3844 1172 3481 
z
" transform="scale(0.015625)"/>
       </defs>
       <use xlink:href="#DejaVuSans-32"/>
       <use xlink:href="#DejaVuSans-37" x="63.623047"/>
       <use xlink:href="#DejaVuSans-38" x="127.246094"/>
       <use xlink:href="#DejaVuSans-30" x="190.869141"/>
      </g>
     </g>
    </g>
    <g id="xtick_5">
     <g id="line2d_5">
      <g>
       <use xlink:href="#m83049f7ad3" x="405.233766" y="384.48" style="stroke: #000000; stroke-width: 0.8"/>
      </g>
     </g>
     <g id="text_5">
      <!-- 2785 -->
      <g transform="translate(392.508766 399.078438) scale(0.1 -0.1)">
       <use xlink:href="#DejaVuSans-32"/>
       <use xlink:href="#DejaVuSans-37" x="63.623047"/>
       <use xlink:href="#DejaVuSans-38" x="127.246094"/>
       <use xlink:href="#DejaVuSans-35" x="190.869141"/>
      </g>
     </g>
    </g>
    <g id="xtick_6">
     <g id="line2d_6">
      <g>
       <use xlink:href="#m83049f7ad3" x="477.701299" y="384.48" style="stroke: #000000; stroke-width: 0.8"/>
      </g>
     </g>
     <g id="text_6">
      <!-- 2790 -->
      <g transform="translate(464.976299 399.078438) scale(0.1 -0.1)">
       <defs>
        <path id="DejaVuSans-39" d="M 703 97 
L 703 672 
Q 941 559 1184 500 
Q 1428 441 1663 441 
Q 2288 441 2617 861 
Q 2947 1281 2994 2138 
Q 2813 1869 2534 1725 
Q 2256 1581 1919 1581 
Q 1219 1581 811 2004 
Q 403 2428 403 3163 
Q 403 3881 828 4315 
Q 1253 4750 1959 4750 
Q 2769 4750 3195 4129 
Q 3622 3509 3622 2328 
Q 3622 1225 3098 567 
Q 2575 -91 1691 -91 
Q 1453 -91 1209 -44 
Q 966 3 703 97 
z
M 1959 2075 
Q 2384 2075 2632 2365 
Q 2881 2656 2881 3163 
Q 2881 3666 2632 3958 
Q 2384 4250 1959 4250 
Q 1534 4250 1286 3958 
Q 1038 3666 1038 3163 
Q 1038 2656 1286 2365 
Q 1534 2075 1959 2075 
z
" transform="scale(0.015625)"/>
       </defs>
       <use xlink:href="#DejaVuSans-32"/>
       <use xlink:href="#DejaVuSans-37" x="63.623047"/>
       <use xlink:href="#DejaVuSans-39" x="127.246094"/>
       <use xlink:href="#DejaVuSans-30" x="190.869141"/>
      </g>
     </g>
    </g>
    <g id="xtick_7">
     <g id="line2d_7">
      <g>
       <use xlink:href="#m83049f7ad3" x="550.168831" y="384.48" style="stroke: #000000; stroke-width: 0.8"/>
      </g>
     </g>
     <g id="text_7">
      <!-- 2795 -->
      <g transform="translate(537.443831 399.078438) scale(0.1 -0.1)">
       <use xlink:href="#DejaVuSans-32"/>
       <use xlink:href="#DejaVuSans-37" x="63.623047"/>
       <use xlink:href="#DejaVuSans-39" x="127.246094"/>
       <use xlink:href="#DejaVuSans-35" x="190.869141"/>
      </g>
     </g>
    </g>
    <g id="xtick_8">
     <g id="line2d_8">
      <g>
       <use xlink:href="#m83049f7ad3" x="622.636364" y="384.48" style="stroke: #000000; stroke-width: 0.8"/>
      </g>
     </g>
     <g id="text_8">
      <!-- 2800 -->
      <g transform="translate(609.911364 399.078438) scale(0.1 -0.1)">
       <use xlink:href="#DejaVuSans-32"/>
       <use xlink:href="#DejaVuSans-38" x="63.623047"/>
       <use xlink:href="#DejaVuSans-30" x="127.246094"/>
       <use xlink:href="#DejaVuSans-30" x="190.869141"/>
      </g>
     </g>
    </g>
    <g id="text_9">
     <!-- frequency [MHz] -->
     <g transform="translate(327.734375 412.756563) scale(0.1 -0.1)">
      <defs>
       <path id="DejaVuSans-66" d="M 2375 4863 
L 2375 4384 
L 1825 4384 
Q 1516 4384 1395 4259 
Q 1275 4134 1275 3809 
L 1275 3500 
L 2222 3500 
L 2222 3053 
L 1275 3053 
L 1275 0 
L 697 0 
L 697 3053 
L 147 3053 
L 147 3500 
L 697 3500 
L 697 3744 
Q 697 4328 969 4595 
Q 1241 4863 1831 4863 
L 2375 4863 
z
" transform="scale(0.015625)"/>
       <path id="DejaVuSans-72" d="M 2631 2963 
Q 2534 3019 2420 3045 
Q 2306 3072 2169 3072 
Q 1681 3072 1420 2755 
Q 1159 2438 1159 1844 
L 1159 0 
L 581 0 
L 581 3500 
L 1159 3500 
L 1159 2956 
Q 1341 3275 1631 3429 
Q 1922 3584 2338 3584 
Q 2397 3584 2469 3576 
Q 2541 3569 2628 3553 
L 2631 2963 
z
" transform="scale(0.015625)"/>
       <path id="DejaVuSans-65" d="M 3597 1894 
L 3597 1613 
L 953 1613 
Q 991 1019 1311 708 
Q 1631 397 2203 397 
Q 2534 397 2845 478 
Q 3156 559 3463 722 
L 3463 178 
Q 3153 47 2828 -22 
Q 2503 -91 2169 -91 
Q 1331 -91 842 396 
Q 353 884 353 1716 
Q 353 2575 817 3079 
Q 1281 3584 2069 3584 
Q 2775 3584 3186 3129 
Q 3597 2675 3597 1894 
z
M 3022 2063 
Q 3016 2534 2758 2815 
Q 2500 3097 2075 3097 
Q 1594 3097 1305 2825 
Q 1016 2553 972 2059 
L 3022 2063 
z
" transform="scale(0.015625)"/>
       <path id="DejaVuSans-71" d="M 947 1747 
Q 947 1113 1208 752 
Q 1469 391 1925 391 
Q 2381 391 2643 752 
Q 2906 1113 2906 1747 
Q 2906 2381 2643 2742 
Q 2381 3103 1925 3103 
Q 1469 3103 1208 2742 
Q 947 2381 947 1747 
z
M 2906 525 
Q 2725 213 2448 61 
Q 2172 -91 1784 -91 
Q 1150 -91 751 415 
Q 353 922 353 1747 
Q 353 2572 751 3078 
Q 1150 3584 1784 3584 
Q 2172 3584 2448 3432 
Q 2725 3281 2906 2969 
L 2906 3500 
L 3481 3500 
L 3481 -1331 
L 2906 -1331 
L 2906 525 
z
" transform="scale(0.015625)"/>
       <path id="DejaVuSans-75" d="M 544 1381 
L 544 3500 
L 1119 3500 
L 1119 1403 
Q 1119 906 1312 657 
Q 1506 409 1894 409 
Q 2359 409 2629 706 
Q 2900 1003 2900 1516 
L 2900 3500 
L 3475 3500 
L 3475 0 
L 2900 0 
L 2900 538 
Q 2691 219 2414 64 
Q 2138 -91 1772 -91 
Q 1169 -91 856 284 
Q 544 659 544 1381 
z
M 1991 3584 
L 1991 3584 
z
" transform="scale(0.015625)"/>
       <path id="DejaVuSans-6e" d="M 3513 2113 
L 3513 0 
L 2938 0 
L 2938 2094 
Q 2938 2591 2744 2837 
Q 2550 3084 2163 3084 
Q 1697 3084 1428 2787 
Q 1159 2491 1159 1978 
L 1159 0 
L 581 0 
L 581 3500 
L 1159 3500 
L 1159 2956 
Q 1366 3272 1645 3428 
Q 1925 3584 2291 3584 
Q 2894 3584 3203 3211 
Q 3513 2838 3513 2113 
z
" transform="scale(0.015625)"/>
       <path id="DejaVuSans-63" d="M 3122 3366 
L 3122 2828 
Q 2878 2963 2633 3030 
Q 2388 3097 2138 3097 
Q 1578 3097 1268 2742 
Q 959 2388 959 1747 
Q 959 1106 1268 751 
Q 1578 397 2138 397 
Q 2388 397 2633 464 
Q 2878 531 3122 666 
L 3122 134 
Q 2881 22 2623 -34 
Q 2366 -91 2075 -91 
Q 1284 -91 818 406 
Q 353 903 353 1747 
Q 353 2603 823 3093 
Q 1294 3584 2113 3584 
Q 2378 3584 2631 3529 
Q 2884 3475 3122 3366 
z
" transform="scale(0.015625)"/>
       <path id="DejaVuSans-79" d="M 2059 -325 
Q 1816 -950 1584 -1140 
Q 1353 -1331 966 -1331 
L 506 -1331 
L 506 -850 
L 844 -850 
Q 1081 -850 1212 -737 
Q 1344 -625 1503 -206 
L 1606 56 
L 191 3500 
L 800 3500 
L 1894 763 
L 2988 3500 
L 3597 3500 
L 2059 -325 
z
" transform="scale(0.015625)"/>
       <path id="DejaVuSans-20" transform="scale(0.015625)"/>
       <path id="DejaVuSans-5b" d="M 550 4863 
L 1875 4863 
L 1875 4416 
L 1125 4416 
L 1125 -397 
L 1875 -397 
L 1875 -844 
L 550 -844 
L 550 4863 
z
" transform="scale(0.015625)"/>
       <path id="DejaVuSans-4d" d="M 628 4666 
L 1569 4666 
L 2759 1491 
L 3956 4666 
L 4897 4666 
L 4897 0 
L 4281 0 
L 4281 4097 
L 3078 897 
L 2444 897 
L 1241 4097 
L 1241 0 
L 628 0 
L 628 4666 
z
" transform="scale(0.015625)"/>
       <path id="DejaVuSans-48" d="M 628 4666 
L 1259 4666 
L 1259 2753 
L 3553 2753 
L 3553 4666 
L 4184 4666 
L 4184 0 
L 3553 0 
L 3553 2222 
L 1259 2222 
L 1259 0 
L 628 0 
L 628 4666 
z
" transform="scale(0.015625)"/>
       <path id="DejaVuSans-7a" d="M 353 3500 
L 3084 3500 
L 3084 2975 
L 922 459 
L 3084 459 
L 3084 0 
L 275 0 
L 275 525 
L 2438 3041 
L 353 3041 
L 353 3500 
z
" transform="scale(0.015625)"/>
       <path id="DejaVuSans-5d" d="M 1947 4863 
L 1947 -844 
L 622 -844 
L 622 -397 
L 1369 -397 
L 1369 4416 
L 622 4416 
L 622 4863 
L 1947 4863 
z
" transform="scale(0.015625)"/>
      </defs>
      <use xlink:href="#DejaVuSans-66"/>
      <use xlink:href="#DejaVuSans-72" x="35.205078"/>
      <use xlink:href="#DejaVuSans-65" x="74.068359"/>
      <use xlink:href="#DejaVuSans-71" x="135.591797"/>
      <use xlink:href="#DejaVuSans-75" x="199.068359"/>
      <use xlink:href="#DejaVuSans-65" x="262.447266"/>
      <use xlink:href="#DejaVuSans-6e" x="323.970703"/>
      <use xlink:href="#DejaVuSans-63" x="387.349609"/>
      <use xlink:href="#DejaVuSans-79" x="442.330078"/>
      <use xlink:href="#DejaVuSans-20" x="501.509766"/>
      <use xlink:href="#DejaVuSans-5b" x="533.296875"/>
      <use xlink:href="#DejaVuSans-4d" x="572.310547"/>
      <use xlink:href="#DejaVuSans-48" x="658.589844"/>
      <use xlink:href="#DejaVuSans-7a" x="733.785156"/>
      <use xlink:href="#DejaVuSans-5d" x="786.275391"/>
     </g>
    </g>
   </g>
   <g id="matplotlib.axis_2">
    <g id="ytick_1">
     <g id="line2d_9">
      <defs>
       <path id="medf259543d" d="M 0 0 
L -3.5 0 
" style="stroke: #000000; stroke-width: 0.8"/>
      </defs>
      <g>
       <use xlink:href="#medf259543d" x="90" y="365.745693" style="stroke: #000000; stroke-width: 0.8"/>
      </g>
     </g>
     <g id="text_10">
      <!-- 0.9850 -->
      <g transform="translate(48.009375 369.544911) scale(0.1 -0.1)">
       <defs>
        <path id="DejaVuSans-2e" d="M 684 794 
L 1344 794 
L 1344 0 
L 684 0 
L 684 794 
z
" transform="scale(0.015625)"/>
       </defs>
       <use xlink:href="#DejaVuSans-30"/>
       <use xlink:href="#DejaVuSans-2e" x="63.623047"/>
       <use xlink:href="#DejaVuSans-39" x="95.410156"/>
       <use xlink:href="#DejaVuSans-38" x="159.033203"/>
       <use xlink:href="#DejaVuSans-35" x="222.65625"/>
       <use xlink:href="#DejaVuSans-30" x="286.279297"/>
      </g>
     </g>
    </g>
    <g id="ytick_2">
     <g id="line2d_10">
      <g>
       <use xlink:href="#medf259543d" x="90" y="320.429456" style="stroke: #000000; stroke-width: 0.8"/>
      </g>
     </g>
     <g id="text_11">
      <!-- 0.9875 -->
      <g transform="translate(48.009375 324.228675) scale(0.1 -0.1)">
       <use xlink:href="#DejaVuSans-30"/>
       <use xlink:href="#DejaVuSans-2e" x="63.623047"/>
       <use xlink:href="#DejaVuSans-39" x="95.410156"/>
       <use xlink:href="#DejaVuSans-38" x="159.033203"/>
       <use xlink:href="#DejaVuSans-37" x="222.65625"/>
       <use xlink:href="#DejaVuSans-35" x="286.279297"/>
      </g>
     </g>
    </g>
    <g id="ytick_3">
     <g id="line2d_11">
      <g>
       <use xlink:href="#medf259543d" x="90" y="275.11322" style="stroke: #000000; stroke-width: 0.8"/>
      </g>
     </g>
     <g id="text_12">
      <!-- 0.9900 -->
      <g transform="translate(48.009375 278.912439) scale(0.1 -0.1)">
       <use xlink:href="#DejaVuSans-30"/>
       <use xlink:href="#DejaVuSans-2e" x="63.623047"/>
       <use xlink:href="#DejaVuSans-39" x="95.410156"/>
       <use xlink:href="#DejaVuSans-39" x="159.033203"/>
       <use xlink:href="#DejaVuSans-30" x="222.65625"/>
       <use xlink:href="#DejaVuSans-30" x="286.279297"/>
      </g>
     </g>
    </g>
    <g id="ytick_4">
     <g id="line2d_12">
      <g>
       <use xlink:href="#medf259543d" x="90" y="229.796984" style="stroke: #000000; stroke-width: 0.8"/>
      </g>
     </g>
     <g id="text_13">
      <!-- 0.9925 -->
      <g transform="translate(48.009375 233.596203) scale(0.1 -0.1)">
       <use xlink:href="#DejaVuSans-30"/>
       <use xlink:href="#DejaVuSans-2e" x="63.623047"/>
       <use xlink:href="#DejaVuSans-39" x="95.410156"/>
       <use xlink:href="#DejaVuSans-39" x="159.033203"/>
       <use xlink:href="#DejaVuSans-32" x="222.65625"/>
       <use xlink:href="#DejaVuSans-35" x="286.279297"/>
      </g>
     </g>
    </g>
    <g id="ytick_5">
     <g id="line2d_13">
      <g>
       <use xlink:href="#medf259543d" x="90" y="184.480748" style="stroke: #000000; stroke-width: 0.8"/>
      </g>
     </g>
     <g id="text_14">
      <!-- 0.9950 -->
      <g transform="translate(48.009375 188.279967) scale(0.1 -0.1)">
       <use xlink:href="#DejaVuSans-30"/>
       <use xlink:href="#DejaVuSans-2e" x="63.623047"/>
       <use xlink:href="#DejaVuSans-39" x="95.410156"/>
       <use xlink:href="#DejaVuSans-39" x="159.033203"/>
       <use xlink:href="#DejaVuSans-35" x="222.65625"/>
       <use xlink:href="#DejaVuSans-30" x="286.279297"/>
      </g>
     </g>
    </g>
    <g id="ytick_6">
     <g id="line2d_14">
      <g>
       <use xlink:href="#medf259543d" x="90" y="139.164512" style="stroke: #000000; stroke-width: 0.8"/>
      </g>
     </g>
     <g id="text_15">
      <!-- 0.9975 -->
      <g transform="translate(48.009375 142.963731) scale(0.1 -0.1)">
       <use xlink:href="#DejaVuSans-30"/>
       <use xlink:href="#DejaVuSans-2e" x="63.623047"/>
       <use xlink:href="#DejaVuSans-39" x="95.410156"/>
       <use xlink:href="#DejaVuSans-39" x="159.033203"/>
       <use xlink:href="#DejaVuSans-37" x="222.65625"/>
       <use xlink:href="#DejaVuSans-35" x="286.279297"/>
      </g>
     </g>
    </g>
    <g id="ytick_7">
     <g id="line2d_15">
      <g>
       <use xlink:href="#medf259543d" x="90" y="93.848276" style="stroke: #000000; stroke-width: 0.8"/>
      </g>
     </g>
     <g id="text_16">
      <!-- 1.0000 -->
      <g transform="translate(48.009375 97.647494) scale(0.1 -0.1)">
       <defs>
        <path id="DejaVuSans-31" d="M 794 531 
L 1825 531 
L 1825 4091 
L 703 3866 
L 703 4441 
L 1819 4666 
L 2450 4666 
L 2450 531 
L 3481 531 
L 3481 0 
L 794 0 
L 794 531 
z
" transform="scale(0.015625)"/>
       </defs>
       <use xlink:href="#DejaVuSans-31"/>
       <use xlink:href="#DejaVuSans-2e" x="63.623047"/>
       <use xlink:href="#DejaVuSans-30" x="95.410156"/>
       <use xlink:href="#DejaVuSans-30" x="159.033203"/>
       <use xlink:href="#DejaVuSans-30" x="222.65625"/>
       <use xlink:href="#DejaVuSans-30" x="286.279297"/>
      </g>
     </g>
    </g>
    <g id="text_17">
     <!-- Contrast -->
     <g transform="translate(41.929688 239.524062) rotate(-90) scale(0.1 -0.1)">
      <defs>
       <path id="DejaVuSans-43" d="M 4122 4306 
L 4122 3641 
Q 3803 3938 3442 4084 
Q 3081 4231 2675 4231 
Q 1875 4231 1450 3742 
Q 1025 3253 1025 2328 
Q 1025 1406 1450 917 
Q 1875 428 2675 428 
Q 3081 428 3442 575 
Q 3803 722 4122 1019 
L 4122 359 
Q 3791 134 3420 21 
Q 3050 -91 2638 -91 
Q 1578 -91 968 557 
Q 359 1206 359 2328 
Q 359 3453 968 4101 
Q 1578 4750 2638 4750 
Q 3056 4750 3426 4639 
Q 3797 4528 4122 4306 
z
" transform="scale(0.015625)"/>
       <path id="DejaVuSans-6f" d="M 1959 3097 
Q 1497 3097 1228 2736 
Q 959 2375 959 1747 
Q 959 1119 1226 758 
Q 1494 397 1959 397 
Q 2419 397 2687 759 
Q 2956 1122 2956 1747 
Q 2956 2369 2687 2733 
Q 2419 3097 1959 3097 
z
M 1959 3584 
Q 2709 3584 3137 3096 
Q 3566 2609 3566 1747 
Q 3566 888 3137 398 
Q 2709 -91 1959 -91 
Q 1206 -91 779 398 
Q 353 888 353 1747 
Q 353 2609 779 3096 
Q 1206 3584 1959 3584 
z
" transform="scale(0.015625)"/>
       <path id="DejaVuSans-74" d="M 1172 4494 
L 1172 3500 
L 2356 3500 
L 2356 3053 
L 1172 3053 
L 1172 1153 
Q 1172 725 1289 603 
Q 1406 481 1766 481 
L 2356 481 
L 2356 0 
L 1766 0 
Q 1100 0 847 248 
Q 594 497 594 1153 
L 594 3053 
L 172 3053 
L 172 3500 
L 594 3500 
L 594 4494 
L 1172 4494 
z
" transform="scale(0.015625)"/>
       <path id="DejaVuSans-61" d="M 2194 1759 
Q 1497 1759 1228 1600 
Q 959 1441 959 1056 
Q 959 750 1161 570 
Q 1363 391 1709 391 
Q 2188 391 2477 730 
Q 2766 1069 2766 1631 
L 2766 1759 
L 2194 1759 
z
M 3341 1997 
L 3341 0 
L 2766 0 
L 2766 531 
Q 2569 213 2275 61 
Q 1981 -91 1556 -91 
Q 1019 -91 701 211 
Q 384 513 384 1019 
Q 384 1609 779 1909 
Q 1175 2209 1959 2209 
L 2766 2209 
L 2766 2266 
Q 2766 2663 2505 2880 
Q 2244 3097 1772 3097 
Q 1472 3097 1187 3025 
Q 903 2953 641 2809 
L 641 3341 
Q 956 3463 1253 3523 
Q 1550 3584 1831 3584 
Q 2591 3584 2966 3190 
Q 3341 2797 3341 1997 
z
" transform="scale(0.015625)"/>
       <path id="DejaVuSans-73" d="M 2834 3397 
L 2834 2853 
Q 2591 2978 2328 3040 
Q 2066 3103 1784 3103 
Q 1356 3103 1142 2972 
Q 928 2841 928 2578 
Q 928 2378 1081 2264 
Q 1234 2150 1697 2047 
L 1894 2003 
Q 2506 1872 2764 1633 
Q 3022 1394 3022 966 
Q 3022 478 2636 193 
Q 2250 -91 1575 -91 
Q 1294 -91 989 -36 
Q 684 19 347 128 
L 347 722 
Q 666 556 975 473 
Q 1284 391 1588 391 
Q 1994 391 2212 530 
Q 2431 669 2431 922 
Q 2431 1156 2273 1281 
Q 2116 1406 1581 1522 
L 1381 1569 
Q 847 1681 609 1914 
Q 372 2147 372 2553 
Q 372 3047 722 3315 
Q 1072 3584 1716 3584 
Q 2034 3584 2315 3537 
Q 2597 3491 2834 3397 
z
" transform="scale(0.015625)"/>
      </defs>
      <use xlink:href="#DejaVuSans-43"/>
      <use xlink:href="#DejaVuSans-6f" x="69.824219"/>
      <use xlink:href="#DejaVuSans-6e" x="131.005859"/>
      <use xlink:href="#DejaVuSans-74" x="194.384766"/>
      <use xlink:href="#DejaVuSans-72" x="233.59375"/>
      <use xlink:href="#DejaVuSans-61" x="274.707031"/>
      <use xlink:href="#DejaVuSans-73" x="335.986328"/>
      <use xlink:href="#DejaVuSans-74" x="388.085938"/>
     </g>
    </g>
   </g>
   <g id="line2d_16">
    <path d="M 115.363636 105.665515 
L 116.812987 87.439482 
L 118.262338 95.931053 
L 119.711688 82.598434 
L 121.161039 109.538302 
L 122.61039 92.96038 
L 124.05974 103.422826 
L 125.509091 117.717762 
L 126.958442 80.384497 
L 128.407792 107.805302 
L 129.857143 96.475569 
L 131.306494 76.958772 
L 132.755844 91.218997 
L 134.205195 92.833265 
L 135.654545 86.882853 
L 137.103896 98.694199 
L 138.553247 113.663253 
L 140.002597 112.334004 
L 141.451948 70.669754 
L 142.901299 109.3141 
L 144.350649 112.202044 
L 145.8 113.725005 
L 147.249351 68.687131 
L 148.698701 102.05576 
L 150.148052 67.126573 
L 151.597403 104.28725 
L 153.046753 86.88553 
L 154.496104 101.732631 
L 155.945455 95.778572 
L 157.394805 111.5488 
L 158.844156 101.934 
L 160.293506 111.962374 
L 161.742857 69.796846 
L 163.192208 79.578978 
L 164.641558 110.052538 
L 166.090909 69.464228 
L 167.54026 96.282268 
L 168.98961 125.530908 
L 170.438961 118.401179 
L 171.888312 103.38518 
L 173.337662 97.053066 
L 174.787013 94.340307 
L 176.236364 99.006589 
L 177.685714 102.985287 
L 179.135065 98.64069 
L 180.584416 86.665819 
L 182.033766 98.634572 
L 183.483117 82.009619 
L 184.932468 92.869619 
L 186.381818 123.49892 
L 187.831169 99.549743 
L 189.280519 78.338841 
L 190.72987 82.769753 
L 192.179221 115.879606 
L 193.628571 96.376917 
L 195.077922 79.562245 
L 196.527273 106.974662 
L 197.976623 91.502488 
L 199.425974 113.500791 
L 200.875325 117.279725 
L 202.324675 90.649183 
L 203.774026 93.108128 
L 205.223377 111.193787 
L 206.672727 95.93856 
L 208.122078 93.281717 
L 209.571429 88.942989 
L 211.020779 105.058893 
L 212.47013 84.489236 
L 242.906494 137.735738 
L 244.355844 110.602175 
L 245.805195 99.427318 
L 247.254545 126.506535 
L 248.703896 93.127276 
L 250.153247 92.802529 
L 251.602597 99.441703 
L 253.051948 94.379906 
L 254.501299 101.765878 
L 255.950649 101.924341 
L 257.4 119.073339 
L 258.849351 100.533296 
L 260.298701 120.281505 
L 261.748052 86.322738 
L 263.197403 113.823374 
L 264.646753 130.396438 
L 266.096104 98.910437 
L 267.545455 111.968168 
L 268.994805 107.151426 
L 270.444156 97.904587 
L 271.893506 100.6528 
L 273.342857 92.551026 
L 274.792208 150.519325 
L 276.241558 114.161096 
L 277.690909 122.280631 
L 279.14026 133.26256 
L 280.58961 100.258539 
L 282.038961 132.31686 
L 283.488312 139.537532 
L 284.937662 126.694169 
L 286.387013 142.447971 
L 287.836364 134.054172 
L 289.285714 119.612564 
L 290.735065 130.354232 
L 292.184416 142.397994 
L 293.633766 160.550298 
L 295.083117 126.924685 
L 296.532468 137.747591 
L 297.981818 135.05361 
L 299.431169 144.619305 
L 300.880519 138.669509 
L 302.32987 139.803606 
L 303.779221 126.893241 
L 305.228571 152.080628 
L 306.677922 143.114843 
L 308.127273 147.068708 
L 309.576623 178.718362 
L 311.025974 189.253841 
L 313.924675 228.67584 
L 315.374026 251.149546 
L 316.823377 302.24538 
L 318.272727 321.856156 
L 319.722078 350.38507 
L 321.171429 319.169973 
L 322.620779 360.480526 
L 324.07013 324.76416 
L 325.519481 282.446658 
L 326.968831 271.496262 
L 328.418182 237.391165 
L 329.867532 228.404642 
L 331.316883 196.461626 
L 332.766234 182.905522 
L 334.215584 196.139547 
L 335.664935 207.804009 
L 337.114286 177.321997 
L 338.563636 182.395498 
L 340.012987 193.403901 
L 341.462338 224.365126 
L 342.911688 206.407644 
L 344.361039 235.881894 
L 345.81039 246.724975 
L 347.25974 270.057236 
L 348.709091 289.193505 
L 350.158442 316.304902 
L 351.607792 361.059873 
L 353.057143 369.36 
L 354.506494 329.637256 
L 355.955844 333.164736 
L 357.405195 275.531091 
L 358.854545 257.41544 
L 360.303896 234.766017 
L 361.753247 229.715507 
L 363.202597 188.106643 
L 364.651948 193.017272 
L 366.101299 205.773112 
L 367.550649 188.092341 
L 369 178.096396 
L 370.449351 197.519058 
L 371.898701 194.477659 
L 373.348052 222.578122 
L 374.797403 225.989969 
L 376.246753 211.878582 
L 377.696104 259.644213 
L 379.145455 255.355467 
L 380.594805 350.511784 
L 382.044156 346.670914 
L 383.493506 353.975656 
L 384.942857 357.908305 
L 386.392208 320.332422 
L 387.841558 313.455358 
L 389.290909 239.531112 
L 390.74026 229.105989 
L 392.18961 229.646452 
L 393.638961 217.194044 
L 395.088312 162.29252 
L 396.537662 166.03925 
L 397.987013 158.076354 
L 399.436364 165.155439 
L 400.885714 146.70164 
L 402.335065 147.012086 
L 403.784416 132.281492 
L 405.233766 149.377522 
L 406.683117 132.735752 
L 408.132468 121.954419 
L 409.581818 144.59794 
L 411.031169 136.399967 
L 412.480519 133.652551 
L 413.92987 163.189133 
L 415.379221 140.551877 
L 416.828571 126.589095 
L 418.277922 131.23924 
L 419.727273 126.899686 
L 421.176623 145.314669 
L 422.625974 124.579703 
L 424.075325 112.162232 
L 425.524675 133.869438 
L 426.974026 140.632186 
L 428.423377 121.390226 
L 429.872727 134.748837 
L 431.322078 105.109989 
L 432.771429 132.010225 
L 434.220779 115.333262 
L 435.67013 117.621891 
L 437.119481 79.952129 
L 438.568831 108.914132 
L 440.018182 118.354528 
L 441.467532 91.701004 
L 442.916883 114.522102 
L 444.366234 111.656813 
L 445.815584 112.424478 
L 447.264935 112.124389 
L 448.714286 127.912666 
L 450.163636 135.29845 
L 451.612987 128.047562 
L 453.062338 103.147736 
L 454.511688 110.836148 
L 455.961039 108.856223 
L 457.41039 120.402311 
L 458.85974 101.180757 
L 460.309091 126.037966 
L 461.758442 113.62574 
L 463.207792 115.259224 
L 464.657143 117.481594 
L 466.106494 100.808022 
L 467.555844 94.417024 
L 469.005195 75.286203 
L 470.454545 107.723748 
L 471.903896 85.70204 
L 473.353247 117.567312 
L 474.802597 126.217123 
L 476.251948 101.710883 
L 477.701299 108.727398 
L 479.150649 98.055058 
L 480.6 119.15445 
L 482.049351 108.386955 
L 483.498701 121.249649 
L 486.397403 92.082195 
L 487.846753 112.148573 
L 489.296104 113.026555 
L 490.745455 116.236712 
L 492.194805 106.390911 
L 493.644156 123.209124 
L 495.093506 100.452638 
L 496.542857 80.234591 
L 497.992208 79.983756 
L 499.441558 122.425363 
L 500.890909 90.311611 
L 502.34026 119.96742 
L 503.78961 97.882488 
L 505.238961 93.891591 
L 506.688312 108.928039 
L 508.137662 92.531726 
L 509.587013 100.325826 
L 511.036364 100.165194 
L 512.485714 74.680802 
L 513.935065 114.889212 
L 515.384416 102.138489 
L 516.833766 118.674469 
L 518.283117 109.222465 
L 519.732468 119.375813 
L 521.181818 107.675805 
L 522.631169 94.628101 
L 524.080519 93.729741 
L 525.52987 91.389904 
L 526.979221 73.018575 
L 528.428571 102.16687 
L 529.877922 94.002069 
L 531.327273 97.164679 
L 532.776623 95.442362 
L 534.225974 97.47817 
L 535.675325 68.86204 
L 537.124675 87.288692 
L 538.574026 95.877554 
L 540.023377 79.789775 
L 541.472727 107.743008 
L 542.922078 70.325057 
L 544.371429 100.708795 
L 545.820779 87.330878 
L 547.27013 116.434234 
L 548.719481 66.96 
L 550.168831 80.783845 
L 551.618182 89.34208 
L 553.067532 108.796316 
L 554.516883 100.78636 
L 555.966234 77.66053 
L 557.415584 95.826767 
L 558.864935 74.001599 
L 561.763636 125.404785 
L 563.212987 99.004939 
L 564.662338 101.399276 
L 566.111688 93.685606 
L 567.561039 91.940129 
L 569.01039 69.994991 
L 570.45974 69.521092 
L 571.909091 88.776025 
L 573.358442 110.337322 
L 574.807792 117.70255 
L 576.257143 111.901843 
L 577.706494 95.851773 
L 579.155844 108.45709 
L 580.605195 103.608811 
L 582.054545 94.297404 
L 583.503896 89.350935 
L 584.953247 113.236225 
L 586.402597 95.708216 
L 587.851948 103.48995 
L 589.301299 87.962536 
L 590.750649 84.26069 
L 592.2 76.003747 
L 593.649351 96.135538 
L 595.098701 103.3928 
L 596.548052 90.693644 
L 597.997403 68.147434 
L 599.446753 117.824928 
L 600.896104 91.111793 
L 602.345455 93.589958 
L 603.794805 92.1728 
L 605.244156 105.492142 
L 606.693506 80.998073 
L 608.142857 94.239488 
L 609.592208 104.892801 
L 611.041558 101.534156 
L 612.490909 90.620837 
L 613.94026 109.930462 
L 615.38961 105.719818 
L 616.838961 113.086752 
L 618.288312 73.21329 
L 619.737662 71.999925 
L 621.187013 114.92358 
L 622.636364 88.41114 
L 622.636364 88.41114 
" clip-path="url(#pec87feb256)" style="fill: none; stroke: #1f77b4; stroke-width: 1.5; stroke-linecap: square"/>
    <defs>
     <path id="m229a4abae6" d="M 0 3 
C 0.795609 3 1.55874 2.683901 2.12132 2.12132 
C 2.683901 1.55874 3 0.795609 3 0 
C 3 -0.795609 2.683901 -1.55874 2.12132 -2.12132 
C 1.55874 -2.683901 0.795609 -3 0 -3 
C -0.795609 -3 -1.55874 -2.683901 -2.12132 -2.12132 
C -2.683901 -1.55874 -3 -0.795609 -3 0 
C -3 0.795609 -2.683901 1.55874 -2.12132 2.12132 
C -1.55874 2.683901 -0.795609 3 0 3 
z
" style="stroke: #1f77b4"/>
    </defs>
    <g clip-path="url(#pec87feb256)">
     <use xlink:href="#m229a4abae6" x="115.363636" y="105.665515" style="fill: #1f77b4; stroke: #1f77b4"/>
     <use xlink:href="#m229a4abae6" x="116.812987" y="87.439482" style="fill: #1f77b4; stroke: #1f77b4"/>
     <use xlink:href="#m229a4abae6" x="118.262338" y="95.931053" style="fill: #1f77b4; stroke: #1f77b4"/>
     <use xlink:href="#m229a4abae6" x="119.711688" y="82.598434" style="fill: #1f77b4; stroke: #1f77b4"/>
     <use xlink:href="#m229a4abae6" x="121.161039" y="109.538302" style="fill: #1f77b4; stroke: #1f77b4"/>
     <use xlink:href="#m229a4abae6" x="122.61039" y="92.96038" style="fill: #1f77b4; stroke: #1f77b4"/>
     <use xlink:href="#m229a4abae6" x="124.05974" y="103.422826" style="fill: #1f77b4; stroke: #1f77b4"/>
     <use xlink:href="#m229a4abae6" x="125.509091" y="117.717762" style="fill: #1f77b4; stroke: #1f77b4"/>
     <use xlink:href="#m229a4abae6" x="126.958442" y="80.384497" style="fill: #1f77b4; stroke: #1f77b4"/>
     <use xlink:href="#m229a4abae6" x="128.407792" y="107.805302" style="fill: #1f77b4; stroke: #1f77b4"/>
     <use xlink:href="#m229a4abae6" x="129.857143" y="96.475569" style="fill: #1f77b4; stroke: #1f77b4"/>
     <use xlink:href="#m229a4abae6" x="131.306494" y="76.958772" style="fill: #1f77b4; stroke: #1f77b4"/>
     <use xlink:href="#m229a4abae6" x="132.755844" y="91.218997" style="fill: #1f77b4; stroke: #1f77b4"/>
     <use xlink:href="#m229a4abae6" x="134.205195" y="92.833265" style="fill: #1f77b4; stroke: #1f77b4"/>
     <use xlink:href="#m229a4abae6" x="135.654545" y="86.882853" style="fill: #1f77b4; stroke: #1f77b4"/>
     <use xlink:href="#m229a4abae6" x="137.103896" y="98.694199" style="fill: #1f77b4; stroke: #1f77b4"/>
     <use xlink:href="#m229a4abae6" x="138.553247" y="113.663253" style="fill: #1f77b4; stroke: #1f77b4"/>
     <use xlink:href="#m229a4abae6" x="140.002597" y="112.334004" style="fill: #1f77b4; stroke: #1f77b4"/>
     <use xlink:href="#m229a4abae6" x="141.451948" y="70.669754" style="fill: #1f77b4; stroke: #1f77b4"/>
     <use xlink:href="#m229a4abae6" x="142.901299" y="109.3141" style="fill: #1f77b4; stroke: #1f77b4"/>
     <use xlink:href="#m229a4abae6" x="144.350649" y="112.202044" style="fill: #1f77b4; stroke: #1f77b4"/>
     <use xlink:href="#m229a4abae6" x="145.8" y="113.725005" style="fill: #1f77b4; stroke: #1f77b4"/>
     <use xlink:href="#m229a4abae6" x="147.249351" y="68.687131" style="fill: #1f77b4; stroke: #1f77b4"/>
     <use xlink:href="#m229a4abae6" x="148.698701" y="102.05576" style="fill: #1f77b4; stroke: #1f77b4"/>
     <use xlink:href="#m229a4abae6" x="150.148052" y="67.126573" style="fill: #1f77b4; stroke: #1f77b4"/>
     <use xlink:href="#m229a4abae6" x="151.597403" y="104.28725" style="fill: #1f77b4; stroke: #1f77b4"/>
     <use xlink:href="#m229a4abae6" x="153.046753" y="86.88553" style="fill: #1f77b4; stroke: #1f77b4"/>
     <use xlink:href="#m229a4abae6" x="154.496104" y="101.732631" style="fill: #1f77b4; stroke: #1f77b4"/>
     <use xlink:href="#m229a4abae6" x="155.945455" y="95.778572" style="fill: #1f77b4; stroke: #1f77b4"/>
     <use xlink:href="#m229a4abae6" x="157.394805" y="111.5488" style="fill: #1f77b4; stroke: #1f77b4"/>
     <use xlink:href="#m229a4abae6" x="158.844156" y="101.934" style="fill: #1f77b4; stroke: #1f77b4"/>
     <use xlink:href="#m229a4abae6" x="160.293506" y="111.962374" style="fill: #1f77b4; stroke: #1f77b4"/>
     <use xlink:href="#m229a4abae6" x="161.742857" y="69.796846" style="fill: #1f77b4; stroke: #1f77b4"/>
     <use xlink:href="#m229a4abae6" x="163.192208" y="79.578978" style="fill: #1f77b4; stroke: #1f77b4"/>
     <use xlink:href="#m229a4abae6" x="164.641558" y="110.052538" style="fill: #1f77b4; stroke: #1f77b4"/>
     <use xlink:href="#m229a4abae6" x="166.090909" y="69.464228" style="fill: #1f77b4; stroke: #1f77b4"/>
     <use xlink:href="#m229a4abae6" x="167.54026" y="96.282268" style="fill: #1f77b4; stroke: #1f77b4"/>
     <use xlink:href="#m229a4abae6" x="168.98961" y="125.530908" style="fill: #1f77b4; stroke: #1f77b4"/>
     <use xlink:href="#m229a4abae6" x="170.438961" y="118.401179" style="fill: #1f77b4; stroke: #1f77b4"/>
     <use xlink:href="#m229a4abae6" x="171.888312" y="103.38518" style="fill: #1f77b4; stroke: #1f77b4"/>
     <use xlink:href="#m229a4abae6" x="173.337662" y="97.053066" style="fill: #1f77b4; stroke: #1f77b4"/>
     <use xlink:href="#m229a4abae6" x="174.787013" y="94.340307" style="fill: #1f77b4; stroke: #1f77b4"/>
     <use xlink:href="#m229a4abae6" x="176.236364" y="99.006589" style="fill: #1f77b4; stroke: #1f77b4"/>
     <use xlink:href="#m229a4abae6" x="177.685714" y="102.985287" style="fill: #1f77b4; stroke: #1f77b4"/>
     <use xlink:href="#m229a4abae6" x="179.135065" y="98.64069" style="fill: #1f77b4; stroke: #1f77b4"/>
     <use xlink:href="#m229a4abae6" x="180.584416" y="86.665819" style="fill: #1f77b4; stroke: #1f77b4"/>
     <use xlink:href="#m229a4abae6" x="182.033766" y="98.634572" style="fill: #1f77b4; stroke: #1f77b4"/>
     <use xlink:href="#m229a4abae6" x="183.483117" y="82.009619" style="fill: #1f77b4; stroke: #1f77b4"/>
     <use xlink:href="#m229a4abae6" x="184.932468" y="92.869619" style="fill: #1f77b4; stroke: #1f77b4"/>
     <use xlink:href="#m229a4abae6" x="186.381818" y="123.49892" style="fill: #1f77b4; stroke: #1f77b4"/>
     <use xlink:href="#m229a4abae6" x="187.831169" y="99.549743" style="fill: #1f77b4; stroke: #1f77b4"/>
     <use xlink:href="#m229a4abae6" x="189.280519" y="78.338841" style="fill: #1f77b4; stroke: #1f77b4"/>
     <use xlink:href="#m229a4abae6" x="190.72987" y="82.769753" style="fill: #1f77b4; stroke: #1f77b4"/>
     <use xlink:href="#m229a4abae6" x="192.179221" y="115.879606" style="fill: #1f77b4; stroke: #1f77b4"/>
     <use xlink:href="#m229a4abae6" x="193.628571" y="96.376917" style="fill: #1f77b4; stroke: #1f77b4"/>
     <use xlink:href="#m229a4abae6" x="195.077922" y="79.562245" style="fill: #1f77b4; stroke: #1f77b4"/>
     <use xlink:href="#m229a4abae6" x="196.527273" y="106.974662" style="fill: #1f77b4; stroke: #1f77b4"/>
     <use xlink:href="#m229a4abae6" x="197.976623" y="91.502488" style="fill: #1f77b4; stroke: #1f77b4"/>
     <use xlink:href="#m229a4abae6" x="199.425974" y="113.500791" style="fill: #1f77b4; stroke: #1f77b4"/>
     <use xlink:href="#m229a4abae6" x="200.875325" y="117.279725" style="fill: #1f77b4; stroke: #1f77b4"/>
     <use xlink:href="#m229a4abae6" x="202.324675" y="90.649183" style="fill: #1f77b4; stroke: #1f77b4"/>
     <use xlink:href="#m229a4abae6" x="203.774026" y="93.108128" style="fill: #1f77b4; stroke: #1f77b4"/>
     <use xlink:href="#m229a4abae6" x="205.223377" y="111.193787" style="fill: #1f77b4; stroke: #1f77b4"/>
     <use xlink:href="#m229a4abae6" x="206.672727" y="95.93856" style="fill: #1f77b4; stroke: #1f77b4"/>
     <use xlink:href="#m229a4abae6" x="208.122078" y="93.281717" style="fill: #1f77b4; stroke: #1f77b4"/>
     <use xlink:href="#m229a4abae6" x="209.571429" y="88.942989" style="fill: #1f77b4; stroke: #1f77b4"/>
     <use xlink:href="#m229a4abae6" x="211.020779" y="105.058893" style="fill: #1f77b4; stroke: #1f77b4"/>
     <use xlink:href="#m229a4abae6" x="212.47013" y="84.489236" style="fill: #1f77b4; stroke: #1f77b4"/>
     <use xlink:href="#m229a4abae6" x="242.906494" y="137.735738" style="fill: #1f77b4; stroke: #1f77b4"/>
     <use xlink:href="#m229a4abae6" x="244.355844" y="110.602175" style="fill: #1f77b4; stroke: #1f77b4"/>
     <use xlink:href="#m229a4abae6" x="245.805195" y="99.427318" style="fill: #1f77b4; stroke: #1f77b4"/>
     <use xlink:href="#m229a4abae6" x="247.254545" y="126.506535" style="fill: #1f77b4; stroke: #1f77b4"/>
     <use xlink:href="#m229a4abae6" x="248.703896" y="93.127276" style="fill: #1f77b4; stroke: #1f77b4"/>
     <use xlink:href="#m229a4abae6" x="250.153247" y="92.802529" style="fill: #1f77b4; stroke: #1f77b4"/>
     <use xlink:href="#m229a4abae6" x="251.602597" y="99.441703" style="fill: #1f77b4; stroke: #1f77b4"/>
     <use xlink:href="#m229a4abae6" x="253.051948" y="94.379906" style="fill: #1f77b4; stroke: #1f77b4"/>
     <use xlink:href="#m229a4abae6" x="254.501299" y="101.765878" style="fill: #1f77b4; stroke: #1f77b4"/>
     <use xlink:href="#m229a4abae6" x="255.950649" y="101.924341" style="fill: #1f77b4; stroke: #1f77b4"/>
     <use xlink:href="#m229a4abae6" x="257.4" y="119.073339" style="fill: #1f77b4; stroke: #1f77b4"/>
     <use xlink:href="#m229a4abae6" x="258.849351" y="100.533296" style="fill: #1f77b4; stroke: #1f77b4"/>
     <use xlink:href="#m229a4abae6" x="260.298701" y="120.281505" style="fill: #1f77b4; stroke: #1f77b4"/>
     <use xlink:href="#m229a4abae6" x="261.748052" y="86.322738" style="fill: #1f77b4; stroke: #1f77b4"/>
     <use xlink:href="#m229a4abae6" x="263.197403" y="113.823374" style="fill: #1f77b4; stroke: #1f77b4"/>
     <use xlink:href="#m229a4abae6" x="264.646753" y="130.396438" style="fill: #1f77b4; stroke: #1f77b4"/>
     <use xlink:href="#m229a4abae6" x="266.096104" y="98.910437" style="fill: #1f77b4; stroke: #1f77b4"/>
     <use xlink:href="#m229a4abae6" x="267.545455" y="111.968168" style="fill: #1f77b4; stroke: #1f77b4"/>
     <use xlink:href="#m229a4abae6" x="268.994805" y="107.151426" style="fill: #1f77b4; stroke: #1f77b4"/>
     <use xlink:href="#m229a4abae6" x="270.444156" y="97.904587" style="fill: #1f77b4; stroke: #1f77b4"/>
     <use xlink:href="#m229a4abae6" x="271.893506" y="100.6528" style="fill: #1f77b4; stroke: #1f77b4"/>
     <use xlink:href="#m229a4abae6" x="273.342857" y="92.551026" style="fill: #1f77b4; stroke: #1f77b4"/>
     <use xlink:href="#m229a4abae6" x="274.792208" y="150.519325" style="fill: #1f77b4; stroke: #1f77b4"/>
     <use xlink:href="#m229a4abae6" x="276.241558" y="114.161096" style="fill: #1f77b4; stroke: #1f77b4"/>
     <use xlink:href="#m229a4abae6" x="277.690909" y="122.280631" style="fill: #1f77b4; stroke: #1f77b4"/>
     <use xlink:href="#m229a4abae6" x="279.14026" y="133.26256" style="fill: #1f77b4; stroke: #1f77b4"/>
     <use xlink:href="#m229a4abae6" x="280.58961" y="100.258539" style="fill: #1f77b4; stroke: #1f77b4"/>
     <use xlink:href="#m229a4abae6" x="282.038961" y="132.31686" style="fill: #1f77b4; stroke: #1f77b4"/>
     <use xlink:href="#m229a4abae6" x="283.488312" y="139.537532" style="fill: #1f77b4; stroke: #1f77b4"/>
     <use xlink:href="#m229a4abae6" x="284.937662" y="126.694169" style="fill: #1f77b4; stroke: #1f77b4"/>
     <use xlink:href="#m229a4abae6" x="286.387013" y="142.447971" style="fill: #1f77b4; stroke: #1f77b4"/>
     <use xlink:href="#m229a4abae6" x="287.836364" y="134.054172" style="fill: #1f77b4; stroke: #1f77b4"/>
     <use xlink:href="#m229a4abae6" x="289.285714" y="119.612564" style="fill: #1f77b4; stroke: #1f77b4"/>
     <use xlink:href="#m229a4abae6" x="290.735065" y="130.354232" style="fill: #1f77b4; stroke: #1f77b4"/>
     <use xlink:href="#m229a4abae6" x="292.184416" y="142.397994" style="fill: #1f77b4; stroke: #1f77b4"/>
     <use xlink:href="#m229a4abae6" x="293.633766" y="160.550298" style="fill: #1f77b4; stroke: #1f77b4"/>
     <use xlink:href="#m229a4abae6" x="295.083117" y="126.924685" style="fill: #1f77b4; stroke: #1f77b4"/>
     <use xlink:href="#m229a4abae6" x="296.532468" y="137.747591" style="fill: #1f77b4; stroke: #1f77b4"/>
     <use xlink:href="#m229a4abae6" x="297.981818" y="135.05361" style="fill: #1f77b4; stroke: #1f77b4"/>
     <use xlink:href="#m229a4abae6" x="299.431169" y="144.619305" style="fill: #1f77b4; stroke: #1f77b4"/>
     <use xlink:href="#m229a4abae6" x="300.880519" y="138.669509" style="fill: #1f77b4; stroke: #1f77b4"/>
     <use xlink:href="#m229a4abae6" x="302.32987" y="139.803606" style="fill: #1f77b4; stroke: #1f77b4"/>
     <use xlink:href="#m229a4abae6" x="303.779221" y="126.893241" style="fill: #1f77b4; stroke: #1f77b4"/>
     <use xlink:href="#m229a4abae6" x="305.228571" y="152.080628" style="fill: #1f77b4; stroke: #1f77b4"/>
     <use xlink:href="#m229a4abae6" x="306.677922" y="143.114843" style="fill: #1f77b4; stroke: #1f77b4"/>
     <use xlink:href="#m229a4abae6" x="308.127273" y="147.068708" style="fill: #1f77b4; stroke: #1f77b4"/>
     <use xlink:href="#m229a4abae6" x="309.576623" y="178.718362" style="fill: #1f77b4; stroke: #1f77b4"/>
     <use xlink:href="#m229a4abae6" x="311.025974" y="189.253841" style="fill: #1f77b4; stroke: #1f77b4"/>
     <use xlink:href="#m229a4abae6" x="312.475325" y="208.529788" style="fill: #1f77b4; stroke: #1f77b4"/>
     <use xlink:href="#m229a4abae6" x="313.924675" y="228.67584" style="fill: #1f77b4; stroke: #1f77b4"/>
     <use xlink:href="#m229a4abae6" x="315.374026" y="251.149546" style="fill: #1f77b4; stroke: #1f77b4"/>
     <use xlink:href="#m229a4abae6" x="316.823377" y="302.24538" style="fill: #1f77b4; stroke: #1f77b4"/>
     <use xlink:href="#m229a4abae6" x="318.272727" y="321.856156" style="fill: #1f77b4; stroke: #1f77b4"/>
     <use xlink:href="#m229a4abae6" x="319.722078" y="350.38507" style="fill: #1f77b4; stroke: #1f77b4"/>
     <use xlink:href="#m229a4abae6" x="321.171429" y="319.169973" style="fill: #1f77b4; stroke: #1f77b4"/>
     <use xlink:href="#m229a4abae6" x="322.620779" y="360.480526" style="fill: #1f77b4; stroke: #1f77b4"/>
     <use xlink:href="#m229a4abae6" x="324.07013" y="324.76416" style="fill: #1f77b4; stroke: #1f77b4"/>
     <use xlink:href="#m229a4abae6" x="325.519481" y="282.446658" style="fill: #1f77b4; stroke: #1f77b4"/>
     <use xlink:href="#m229a4abae6" x="326.968831" y="271.496262" style="fill: #1f77b4; stroke: #1f77b4"/>
     <use xlink:href="#m229a4abae6" x="328.418182" y="237.391165" style="fill: #1f77b4; stroke: #1f77b4"/>
     <use xlink:href="#m229a4abae6" x="329.867532" y="228.404642" style="fill: #1f77b4; stroke: #1f77b4"/>
     <use xlink:href="#m229a4abae6" x="331.316883" y="196.461626" style="fill: #1f77b4; stroke: #1f77b4"/>
     <use xlink:href="#m229a4abae6" x="332.766234" y="182.905522" style="fill: #1f77b4; stroke: #1f77b4"/>
     <use xlink:href="#m229a4abae6" x="334.215584" y="196.139547" style="fill: #1f77b4; stroke: #1f77b4"/>
     <use xlink:href="#m229a4abae6" x="335.664935" y="207.804009" style="fill: #1f77b4; stroke: #1f77b4"/>
     <use xlink:href="#m229a4abae6" x="337.114286" y="177.321997" style="fill: #1f77b4; stroke: #1f77b4"/>
     <use xlink:href="#m229a4abae6" x="338.563636" y="182.395498" style="fill: #1f77b4; stroke: #1f77b4"/>
     <use xlink:href="#m229a4abae6" x="340.012987" y="193.403901" style="fill: #1f77b4; stroke: #1f77b4"/>
     <use xlink:href="#m229a4abae6" x="341.462338" y="224.365126" style="fill: #1f77b4; stroke: #1f77b4"/>
     <use xlink:href="#m229a4abae6" x="342.911688" y="206.407644" style="fill: #1f77b4; stroke: #1f77b4"/>
     <use xlink:href="#m229a4abae6" x="344.361039" y="235.881894" style="fill: #1f77b4; stroke: #1f77b4"/>
     <use xlink:href="#m229a4abae6" x="345.81039" y="246.724975" style="fill: #1f77b4; stroke: #1f77b4"/>
     <use xlink:href="#m229a4abae6" x="347.25974" y="270.057236" style="fill: #1f77b4; stroke: #1f77b4"/>
     <use xlink:href="#m229a4abae6" x="348.709091" y="289.193505" style="fill: #1f77b4; stroke: #1f77b4"/>
     <use xlink:href="#m229a4abae6" x="350.158442" y="316.304902" style="fill: #1f77b4; stroke: #1f77b4"/>
     <use xlink:href="#m229a4abae6" x="351.607792" y="361.059873" style="fill: #1f77b4; stroke: #1f77b4"/>
     <use xlink:href="#m229a4abae6" x="353.057143" y="369.36" style="fill: #1f77b4; stroke: #1f77b4"/>
     <use xlink:href="#m229a4abae6" x="354.506494" y="329.637256" style="fill: #1f77b4; stroke: #1f77b4"/>
     <use xlink:href="#m229a4abae6" x="355.955844" y="333.164736" style="fill: #1f77b4; stroke: #1f77b4"/>
     <use xlink:href="#m229a4abae6" x="357.405195" y="275.531091" style="fill: #1f77b4; stroke: #1f77b4"/>
     <use xlink:href="#m229a4abae6" x="358.854545" y="257.41544" style="fill: #1f77b4; stroke: #1f77b4"/>
     <use xlink:href="#m229a4abae6" x="360.303896" y="234.766017" style="fill: #1f77b4; stroke: #1f77b4"/>
     <use xlink:href="#m229a4abae6" x="361.753247" y="229.715507" style="fill: #1f77b4; stroke: #1f77b4"/>
     <use xlink:href="#m229a4abae6" x="363.202597" y="188.106643" style="fill: #1f77b4; stroke: #1f77b4"/>
     <use xlink:href="#m229a4abae6" x="364.651948" y="193.017272" style="fill: #1f77b4; stroke: #1f77b4"/>
     <use xlink:href="#m229a4abae6" x="366.101299" y="205.773112" style="fill: #1f77b4; stroke: #1f77b4"/>
     <use xlink:href="#m229a4abae6" x="367.550649" y="188.092341" style="fill: #1f77b4; stroke: #1f77b4"/>
     <use xlink:href="#m229a4abae6" x="369" y="178.096396" style="fill: #1f77b4; stroke: #1f77b4"/>
     <use xlink:href="#m229a4abae6" x="370.449351" y="197.519058" style="fill: #1f77b4; stroke: #1f77b4"/>
     <use xlink:href="#m229a4abae6" x="371.898701" y="194.477659" style="fill: #1f77b4; stroke: #1f77b4"/>
     <use xlink:href="#m229a4abae6" x="373.348052" y="222.578122" style="fill: #1f77b4; stroke: #1f77b4"/>
     <use xlink:href="#m229a4abae6" x="374.797403" y="225.989969" style="fill: #1f77b4; stroke: #1f77b4"/>
     <use xlink:href="#m229a4abae6" x="376.246753" y="211.878582" style="fill: #1f77b4; stroke: #1f77b4"/>
     <use xlink:href="#m229a4abae6" x="377.696104" y="259.644213" style="fill: #1f77b4; stroke: #1f77b4"/>
     <use xlink:href="#m229a4abae6" x="379.145455" y="255.355467" style="fill: #1f77b4; stroke: #1f77b4"/>
     <use xlink:href="#m229a4abae6" x="380.594805" y="350.511784" style="fill: #1f77b4; stroke: #1f77b4"/>
     <use xlink:href="#m229a4abae6" x="382.044156" y="346.670914" style="fill: #1f77b4; stroke: #1f77b4"/>
     <use xlink:href="#m229a4abae6" x="383.493506" y="353.975656" style="fill: #1f77b4; stroke: #1f77b4"/>
     <use xlink:href="#m229a4abae6" x="384.942857" y="357.908305" style="fill: #1f77b4; stroke: #1f77b4"/>
     <use xlink:href="#m229a4abae6" x="386.392208" y="320.332422" style="fill: #1f77b4; stroke: #1f77b4"/>
     <use xlink:href="#m229a4abae6" x="387.841558" y="313.455358" style="fill: #1f77b4; stroke: #1f77b4"/>
     <use xlink:href="#m229a4abae6" x="389.290909" y="239.531112" style="fill: #1f77b4; stroke: #1f77b4"/>
     <use xlink:href="#m229a4abae6" x="390.74026" y="229.105989" style="fill: #1f77b4; stroke: #1f77b4"/>
     <use xlink:href="#m229a4abae6" x="392.18961" y="229.646452" style="fill: #1f77b4; stroke: #1f77b4"/>
     <use xlink:href="#m229a4abae6" x="393.638961" y="217.194044" style="fill: #1f77b4; stroke: #1f77b4"/>
     <use xlink:href="#m229a4abae6" x="395.088312" y="162.29252" style="fill: #1f77b4; stroke: #1f77b4"/>
     <use xlink:href="#m229a4abae6" x="396.537662" y="166.03925" style="fill: #1f77b4; stroke: #1f77b4"/>
     <use xlink:href="#m229a4abae6" x="397.987013" y="158.076354" style="fill: #1f77b4; stroke: #1f77b4"/>
     <use xlink:href="#m229a4abae6" x="399.436364" y="165.155439" style="fill: #1f77b4; stroke: #1f77b4"/>
     <use xlink:href="#m229a4abae6" x="400.885714" y="146.70164" style="fill: #1f77b4; stroke: #1f77b4"/>
     <use xlink:href="#m229a4abae6" x="402.335065" y="147.012086" style="fill: #1f77b4; stroke: #1f77b4"/>
     <use xlink:href="#m229a4abae6" x="403.784416" y="132.281492" style="fill: #1f77b4; stroke: #1f77b4"/>
     <use xlink:href="#m229a4abae6" x="405.233766" y="149.377522" style="fill: #1f77b4; stroke: #1f77b4"/>
     <use xlink:href="#m229a4abae6" x="406.683117" y="132.735752" style="fill: #1f77b4; stroke: #1f77b4"/>
     <use xlink:href="#m229a4abae6" x="408.132468" y="121.954419" style="fill: #1f77b4; stroke: #1f77b4"/>
     <use xlink:href="#m229a4abae6" x="409.581818" y="144.59794" style="fill: #1f77b4; stroke: #1f77b4"/>
     <use xlink:href="#m229a4abae6" x="411.031169" y="136.399967" style="fill: #1f77b4; stroke: #1f77b4"/>
     <use xlink:href="#m229a4abae6" x="412.480519" y="133.652551" style="fill: #1f77b4; stroke: #1f77b4"/>
     <use xlink:href="#m229a4abae6" x="413.92987" y="163.189133" style="fill: #1f77b4; stroke: #1f77b4"/>
     <use xlink:href="#m229a4abae6" x="415.379221" y="140.551877" style="fill: #1f77b4; stroke: #1f77b4"/>
     <use xlink:href="#m229a4abae6" x="416.828571" y="126.589095" style="fill: #1f77b4; stroke: #1f77b4"/>
     <use xlink:href="#m229a4abae6" x="418.277922" y="131.23924" style="fill: #1f77b4; stroke: #1f77b4"/>
     <use xlink:href="#m229a4abae6" x="419.727273" y="126.899686" style="fill: #1f77b4; stroke: #1f77b4"/>
     <use xlink:href="#m229a4abae6" x="421.176623" y="145.314669" style="fill: #1f77b4; stroke: #1f77b4"/>
     <use xlink:href="#m229a4abae6" x="422.625974" y="124.579703" style="fill: #1f77b4; stroke: #1f77b4"/>
     <use xlink:href="#m229a4abae6" x="424.075325" y="112.162232" style="fill: #1f77b4; stroke: #1f77b4"/>
     <use xlink:href="#m229a4abae6" x="425.524675" y="133.869438" style="fill: #1f77b4; stroke: #1f77b4"/>
     <use xlink:href="#m229a4abae6" x="426.974026" y="140.632186" style="fill: #1f77b4; stroke: #1f77b4"/>
     <use xlink:href="#m229a4abae6" x="428.423377" y="121.390226" style="fill: #1f77b4; stroke: #1f77b4"/>
     <use xlink:href="#m229a4abae6" x="429.872727" y="134.748837" style="fill: #1f77b4; stroke: #1f77b4"/>
     <use xlink:href="#m229a4abae6" x="431.322078" y="105.109989" style="fill: #1f77b4; stroke: #1f77b4"/>
     <use xlink:href="#m229a4abae6" x="432.771429" y="132.010225" style="fill: #1f77b4; stroke: #1f77b4"/>
     <use xlink:href="#m229a4abae6" x="434.220779" y="115.333262" style="fill: #1f77b4; stroke: #1f77b4"/>
     <use xlink:href="#m229a4abae6" x="435.67013" y="117.621891" style="fill: #1f77b4; stroke: #1f77b4"/>
     <use xlink:href="#m229a4abae6" x="437.119481" y="79.952129" style="fill: #1f77b4; stroke: #1f77b4"/>
     <use xlink:href="#m229a4abae6" x="438.568831" y="108.914132" style="fill: #1f77b4; stroke: #1f77b4"/>
     <use xlink:href="#m229a4abae6" x="440.018182" y="118.354528" style="fill: #1f77b4; stroke: #1f77b4"/>
     <use xlink:href="#m229a4abae6" x="441.467532" y="91.701004" style="fill: #1f77b4; stroke: #1f77b4"/>
     <use xlink:href="#m229a4abae6" x="442.916883" y="114.522102" style="fill: #1f77b4; stroke: #1f77b4"/>
     <use xlink:href="#m229a4abae6" x="444.366234" y="111.656813" style="fill: #1f77b4; stroke: #1f77b4"/>
     <use xlink:href="#m229a4abae6" x="445.815584" y="112.424478" style="fill: #1f77b4; stroke: #1f77b4"/>
     <use xlink:href="#m229a4abae6" x="447.264935" y="112.124389" style="fill: #1f77b4; stroke: #1f77b4"/>
     <use xlink:href="#m229a4abae6" x="448.714286" y="127.912666" style="fill: #1f77b4; stroke: #1f77b4"/>
     <use xlink:href="#m229a4abae6" x="450.163636" y="135.29845" style="fill: #1f77b4; stroke: #1f77b4"/>
     <use xlink:href="#m229a4abae6" x="451.612987" y="128.047562" style="fill: #1f77b4; stroke: #1f77b4"/>
     <use xlink:href="#m229a4abae6" x="453.062338" y="103.147736" style="fill: #1f77b4; stroke: #1f77b4"/>
     <use xlink:href="#m229a4abae6" x="454.511688" y="110.836148" style="fill: #1f77b4; stroke: #1f77b4"/>
     <use xlink:href="#m229a4abae6" x="455.961039" y="108.856223" style="fill: #1f77b4; stroke: #1f77b4"/>
     <use xlink:href="#m229a4abae6" x="457.41039" y="120.402311" style="fill: #1f77b4; stroke: #1f77b4"/>
     <use xlink:href="#m229a4abae6" x="458.85974" y="101.180757" style="fill: #1f77b4; stroke: #1f77b4"/>
     <use xlink:href="#m229a4abae6" x="460.309091" y="126.037966" style="fill: #1f77b4; stroke: #1f77b4"/>
     <use xlink:href="#m229a4abae6" x="461.758442" y="113.62574" style="fill: #1f77b4; stroke: #1f77b4"/>
     <use xlink:href="#m229a4abae6" x="463.207792" y="115.259224" style="fill: #1f77b4; stroke: #1f77b4"/>
     <use xlink:href="#m229a4abae6" x="464.657143" y="117.481594" style="fill: #1f77b4; stroke: #1f77b4"/>
     <use xlink:href="#m229a4abae6" x="466.106494" y="100.808022" style="fill: #1f77b4; stroke: #1f77b4"/>
     <use xlink:href="#m229a4abae6" x="467.555844" y="94.417024" style="fill: #1f77b4; stroke: #1f77b4"/>
     <use xlink:href="#m229a4abae6" x="469.005195" y="75.286203" style="fill: #1f77b4; stroke: #1f77b4"/>
     <use xlink:href="#m229a4abae6" x="470.454545" y="107.723748" style="fill: #1f77b4; stroke: #1f77b4"/>
     <use xlink:href="#m229a4abae6" x="471.903896" y="85.70204" style="fill: #1f77b4; stroke: #1f77b4"/>
     <use xlink:href="#m229a4abae6" x="473.353247" y="117.567312" style="fill: #1f77b4; stroke: #1f77b4"/>
     <use xlink:href="#m229a4abae6" x="474.802597" y="126.217123" style="fill: #1f77b4; stroke: #1f77b4"/>
     <use xlink:href="#m229a4abae6" x="476.251948" y="101.710883" style="fill: #1f77b4; stroke: #1f77b4"/>
     <use xlink:href="#m229a4abae6" x="477.701299" y="108.727398" style="fill: #1f77b4; stroke: #1f77b4"/>
     <use xlink:href="#m229a4abae6" x="479.150649" y="98.055058" style="fill: #1f77b4; stroke: #1f77b4"/>
     <use xlink:href="#m229a4abae6" x="480.6" y="119.15445" style="fill: #1f77b4; stroke: #1f77b4"/>
     <use xlink:href="#m229a4abae6" x="482.049351" y="108.386955" style="fill: #1f77b4; stroke: #1f77b4"/>
     <use xlink:href="#m229a4abae6" x="483.498701" y="121.249649" style="fill: #1f77b4; stroke: #1f77b4"/>
     <use xlink:href="#m229a4abae6" x="484.948052" y="106.336511" style="fill: #1f77b4; stroke: #1f77b4"/>
     <use xlink:href="#m229a4abae6" x="486.397403" y="92.082195" style="fill: #1f77b4; stroke: #1f77b4"/>
     <use xlink:href="#m229a4abae6" x="487.846753" y="112.148573" style="fill: #1f77b4; stroke: #1f77b4"/>
     <use xlink:href="#m229a4abae6" x="489.296104" y="113.026555" style="fill: #1f77b4; stroke: #1f77b4"/>
     <use xlink:href="#m229a4abae6" x="490.745455" y="116.236712" style="fill: #1f77b4; stroke: #1f77b4"/>
     <use xlink:href="#m229a4abae6" x="492.194805" y="106.390911" style="fill: #1f77b4; stroke: #1f77b4"/>
     <use xlink:href="#m229a4abae6" x="493.644156" y="123.209124" style="fill: #1f77b4; stroke: #1f77b4"/>
     <use xlink:href="#m229a4abae6" x="495.093506" y="100.452638" style="fill: #1f77b4; stroke: #1f77b4"/>
     <use xlink:href="#m229a4abae6" x="496.542857" y="80.234591" style="fill: #1f77b4; stroke: #1f77b4"/>
     <use xlink:href="#m229a4abae6" x="497.992208" y="79.983756" style="fill: #1f77b4; stroke: #1f77b4"/>
     <use xlink:href="#m229a4abae6" x="499.441558" y="122.425363" style="fill: #1f77b4; stroke: #1f77b4"/>
     <use xlink:href="#m229a4abae6" x="500.890909" y="90.311611" style="fill: #1f77b4; stroke: #1f77b4"/>
     <use xlink:href="#m229a4abae6" x="502.34026" y="119.96742" style="fill: #1f77b4; stroke: #1f77b4"/>
     <use xlink:href="#m229a4abae6" x="503.78961" y="97.882488" style="fill: #1f77b4; stroke: #1f77b4"/>
     <use xlink:href="#m229a4abae6" x="505.238961" y="93.891591" style="fill: #1f77b4; stroke: #1f77b4"/>
     <use xlink:href="#m229a4abae6" x="506.688312" y="108.928039" style="fill: #1f77b4; stroke: #1f77b4"/>
     <use xlink:href="#m229a4abae6" x="508.137662" y="92.531726" style="fill: #1f77b4; stroke: #1f77b4"/>
     <use xlink:href="#m229a4abae6" x="509.587013" y="100.325826" style="fill: #1f77b4; stroke: #1f77b4"/>
     <use xlink:href="#m229a4abae6" x="511.036364" y="100.165194" style="fill: #1f77b4; stroke: #1f77b4"/>
     <use xlink:href="#m229a4abae6" x="512.485714" y="74.680802" style="fill: #1f77b4; stroke: #1f77b4"/>
     <use xlink:href="#m229a4abae6" x="513.935065" y="114.889212" style="fill: #1f77b4; stroke: #1f77b4"/>
     <use xlink:href="#m229a4abae6" x="515.384416" y="102.138489" style="fill: #1f77b4; stroke: #1f77b4"/>
     <use xlink:href="#m229a4abae6" x="516.833766" y="118.674469" style="fill: #1f77b4; stroke: #1f77b4"/>
     <use xlink:href="#m229a4abae6" x="518.283117" y="109.222465" style="fill: #1f77b4; stroke: #1f77b4"/>
     <use xlink:href="#m229a4abae6" x="519.732468" y="119.375813" style="fill: #1f77b4; stroke: #1f77b4"/>
     <use xlink:href="#m229a4abae6" x="521.181818" y="107.675805" style="fill: #1f77b4; stroke: #1f77b4"/>
     <use xlink:href="#m229a4abae6" x="522.631169" y="94.628101" style="fill: #1f77b4; stroke: #1f77b4"/>
     <use xlink:href="#m229a4abae6" x="524.080519" y="93.729741" style="fill: #1f77b4; stroke: #1f77b4"/>
     <use xlink:href="#m229a4abae6" x="525.52987" y="91.389904" style="fill: #1f77b4; stroke: #1f77b4"/>
     <use xlink:href="#m229a4abae6" x="526.979221" y="73.018575" style="fill: #1f77b4; stroke: #1f77b4"/>
     <use xlink:href="#m229a4abae6" x="528.428571" y="102.16687" style="fill: #1f77b4; stroke: #1f77b4"/>
     <use xlink:href="#m229a4abae6" x="529.877922" y="94.002069" style="fill: #1f77b4; stroke: #1f77b4"/>
     <use xlink:href="#m229a4abae6" x="531.327273" y="97.164679" style="fill: #1f77b4; stroke: #1f77b4"/>
     <use xlink:href="#m229a4abae6" x="532.776623" y="95.442362" style="fill: #1f77b4; stroke: #1f77b4"/>
     <use xlink:href="#m229a4abae6" x="534.225974" y="97.47817" style="fill: #1f77b4; stroke: #1f77b4"/>
     <use xlink:href="#m229a4abae6" x="535.675325" y="68.86204" style="fill: #1f77b4; stroke: #1f77b4"/>
     <use xlink:href="#m229a4abae6" x="537.124675" y="87.288692" style="fill: #1f77b4; stroke: #1f77b4"/>
     <use xlink:href="#m229a4abae6" x="538.574026" y="95.877554" style="fill: #1f77b4; stroke: #1f77b4"/>
     <use xlink:href="#m229a4abae6" x="540.023377" y="79.789775" style="fill: #1f77b4; stroke: #1f77b4"/>
     <use xlink:href="#m229a4abae6" x="541.472727" y="107.743008" style="fill: #1f77b4; stroke: #1f77b4"/>
     <use xlink:href="#m229a4abae6" x="542.922078" y="70.325057" style="fill: #1f77b4; stroke: #1f77b4"/>
     <use xlink:href="#m229a4abae6" x="544.371429" y="100.708795" style="fill: #1f77b4; stroke: #1f77b4"/>
     <use xlink:href="#m229a4abae6" x="545.820779" y="87.330878" style="fill: #1f77b4; stroke: #1f77b4"/>
     <use xlink:href="#m229a4abae6" x="547.27013" y="116.434234" style="fill: #1f77b4; stroke: #1f77b4"/>
     <use xlink:href="#m229a4abae6" x="548.719481" y="66.96" style="fill: #1f77b4; stroke: #1f77b4"/>
     <use xlink:href="#m229a4abae6" x="550.168831" y="80.783845" style="fill: #1f77b4; stroke: #1f77b4"/>
     <use xlink:href="#m229a4abae6" x="551.618182" y="89.34208" style="fill: #1f77b4; stroke: #1f77b4"/>
     <use xlink:href="#m229a4abae6" x="553.067532" y="108.796316" style="fill: #1f77b4; stroke: #1f77b4"/>
     <use xlink:href="#m229a4abae6" x="554.516883" y="100.78636" style="fill: #1f77b4; stroke: #1f77b4"/>
     <use xlink:href="#m229a4abae6" x="555.966234" y="77.66053" style="fill: #1f77b4; stroke: #1f77b4"/>
     <use xlink:href="#m229a4abae6" x="557.415584" y="95.826767" style="fill: #1f77b4; stroke: #1f77b4"/>
     <use xlink:href="#m229a4abae6" x="558.864935" y="74.001599" style="fill: #1f77b4; stroke: #1f77b4"/>
     <use xlink:href="#m229a4abae6" x="560.314286" y="99.49373" style="fill: #1f77b4; stroke: #1f77b4"/>
     <use xlink:href="#m229a4abae6" x="561.763636" y="125.404785" style="fill: #1f77b4; stroke: #1f77b4"/>
     <use xlink:href="#m229a4abae6" x="563.212987" y="99.004939" style="fill: #1f77b4; stroke: #1f77b4"/>
     <use xlink:href="#m229a4abae6" x="564.662338" y="101.399276" style="fill: #1f77b4; stroke: #1f77b4"/>
     <use xlink:href="#m229a4abae6" x="566.111688" y="93.685606" style="fill: #1f77b4; stroke: #1f77b4"/>
     <use xlink:href="#m229a4abae6" x="567.561039" y="91.940129" style="fill: #1f77b4; stroke: #1f77b4"/>
     <use xlink:href="#m229a4abae6" x="569.01039" y="69.994991" style="fill: #1f77b4; stroke: #1f77b4"/>
     <use xlink:href="#m229a4abae6" x="570.45974" y="69.521092" style="fill: #1f77b4; stroke: #1f77b4"/>
     <use xlink:href="#m229a4abae6" x="571.909091" y="88.776025" style="fill: #1f77b4; stroke: #1f77b4"/>
     <use xlink:href="#m229a4abae6" x="573.358442" y="110.337322" style="fill: #1f77b4; stroke: #1f77b4"/>
     <use xlink:href="#m229a4abae6" x="574.807792" y="117.70255" style="fill: #1f77b4; stroke: #1f77b4"/>
     <use xlink:href="#m229a4abae6" x="576.257143" y="111.901843" style="fill: #1f77b4; stroke: #1f77b4"/>
     <use xlink:href="#m229a4abae6" x="577.706494" y="95.851773" style="fill: #1f77b4; stroke: #1f77b4"/>
     <use xlink:href="#m229a4abae6" x="579.155844" y="108.45709" style="fill: #1f77b4; stroke: #1f77b4"/>
     <use xlink:href="#m229a4abae6" x="580.605195" y="103.608811" style="fill: #1f77b4; stroke: #1f77b4"/>
     <use xlink:href="#m229a4abae6" x="582.054545" y="94.297404" style="fill: #1f77b4; stroke: #1f77b4"/>
     <use xlink:href="#m229a4abae6" x="583.503896" y="89.350935" style="fill: #1f77b4; stroke: #1f77b4"/>
     <use xlink:href="#m229a4abae6" x="584.953247" y="113.236225" style="fill: #1f77b4; stroke: #1f77b4"/>
     <use xlink:href="#m229a4abae6" x="586.402597" y="95.708216" style="fill: #1f77b4; stroke: #1f77b4"/>
     <use xlink:href="#m229a4abae6" x="587.851948" y="103.48995" style="fill: #1f77b4; stroke: #1f77b4"/>
     <use xlink:href="#m229a4abae6" x="589.301299" y="87.962536" style="fill: #1f77b4; stroke: #1f77b4"/>
     <use xlink:href="#m229a4abae6" x="590.750649" y="84.26069" style="fill: #1f77b4; stroke: #1f77b4"/>
     <use xlink:href="#m229a4abae6" x="592.2" y="76.003747" style="fill: #1f77b4; stroke: #1f77b4"/>
     <use xlink:href="#m229a4abae6" x="593.649351" y="96.135538" style="fill: #1f77b4; stroke: #1f77b4"/>
     <use xlink:href="#m229a4abae6" x="595.098701" y="103.3928" style="fill: #1f77b4; stroke: #1f77b4"/>
     <use xlink:href="#m229a4abae6" x="596.548052" y="90.693644" style="fill: #1f77b4; stroke: #1f77b4"/>
     <use xlink:href="#m229a4abae6" x="597.997403" y="68.147434" style="fill: #1f77b4; stroke: #1f77b4"/>
     <use xlink:href="#m229a4abae6" x="599.446753" y="117.824928" style="fill: #1f77b4; stroke: #1f77b4"/>
     <use xlink:href="#m229a4abae6" x="600.896104" y="91.111793" style="fill: #1f77b4; stroke: #1f77b4"/>
     <use xlink:href="#m229a4abae6" x="602.345455" y="93.589958" style="fill: #1f77b4; stroke: #1f77b4"/>
     <use xlink:href="#m229a4abae6" x="603.794805" y="92.1728" style="fill: #1f77b4; stroke: #1f77b4"/>
     <use xlink:href="#m229a4abae6" x="605.244156" y="105.492142" style="fill: #1f77b4; stroke: #1f77b4"/>
     <use xlink:href="#m229a4abae6" x="606.693506" y="80.998073" style="fill: #1f77b4; stroke: #1f77b4"/>
     <use xlink:href="#m229a4abae6" x="608.142857" y="94.239488" style="fill: #1f77b4; stroke: #1f77b4"/>
     <use xlink:href="#m229a4abae6" x="609.592208" y="104.892801" style="fill: #1f77b4; stroke: #1f77b4"/>
     <use xlink:href="#m229a4abae6" x="611.041558" y="101.534156" style="fill: #1f77b4; stroke: #1f77b4"/>
     <use xlink:href="#m229a4abae6" x="612.490909" y="90.620837" style="fill: #1f77b4; stroke: #1f77b4"/>
     <use xlink:href="#m229a4abae6" x="613.94026" y="109.930462" style="fill: #1f77b4; stroke: #1f77b4"/>
     <use xlink:href="#m229a4abae6" x="615.38961" y="105.719818" style="fill: #1f77b4; stroke: #1f77b4"/>
     <use xlink:href="#m229a4abae6" x="616.838961" y="113.086752" style="fill: #1f77b4; stroke: #1f77b4"/>
     <use xlink:href="#m229a4abae6" x="618.288312" y="73.21329" style="fill: #1f77b4; stroke: #1f77b4"/>
     <use xlink:href="#m229a4abae6" x="619.737662" y="71.999925" style="fill: #1f77b4; stroke: #1f77b4"/>
     <use xlink:href="#m229a4abae6" x="621.187013" y="114.92358" style="fill: #1f77b4; stroke: #1f77b4"/>
     <use xlink:href="#m229a4abae6" x="622.636364" y="88.41114" style="fill: #1f77b4; stroke: #1f77b4"/>
    </g>
   </g>
   <g id="line2d_17">
    <path d="M 115.363636 100.852213 
L 160.293506 101.238616 
L 189.280519 101.691392 
L 209.571429 102.206843 
L 212.47013 102.3018 
L 245.805195 104.150436 
L 253.051948 104.886508 
L 260.298701 105.860449 
L 266.096104 106.889591 
L 270.444156 107.86945 
L 274.792208 109.096792 
L 277.690909 110.097806 
L 280.58961 111.290065 
L 283.488312 112.727774 
L 286.387013 114.486127 
L 289.285714 116.671851 
L 290.735065 117.970965 
L 292.184416 119.440346 
L 293.633766 121.111711 
L 295.083117 123.024437 
L 296.532468 125.227831 
L 297.981818 127.784164 
L 299.431169 130.772784 
L 300.880519 134.295697 
L 302.32987 138.485167 
L 303.779221 143.514018 
L 305.228571 149.609433 
L 306.677922 157.070849 
L 308.127273 166.291598 
L 309.576623 177.780749 
L 311.025974 192.173099 
L 312.475325 210.194687 
L 313.924675 232.508071 
L 315.374026 259.292489 
L 318.272727 319.049477 
L 319.722078 341.562766 
L 321.171429 349.604956 
L 322.620779 340.394681 
L 324.07013 318.124447 
L 326.968831 263.521582 
L 328.418182 240.561188 
L 329.867532 222.401187 
L 331.316883 208.794053 
L 332.766234 199.152412 
L 334.215584 192.904821 
L 335.664935 189.626163 
L 337.114286 189.072612 
L 338.563636 191.185847 
L 340.012987 196.092699 
L 341.462338 204.105577 
L 342.911688 215.712552 
L 344.361039 231.520825 
L 345.81039 252.070083 
L 347.25974 277.361661 
L 350.158442 333.645984 
L 351.607792 353.460133 
L 353.057143 358.287835 
L 354.506494 346.140281 
L 355.955844 321.871929 
L 358.854545 265.818538 
L 360.303896 242.705416 
L 361.753247 224.467186 
L 363.202597 210.782618 
L 364.651948 201.053465 
L 366.101299 194.724859 
L 367.550649 191.399905 
L 369 190.869599 
L 370.449351 193.116613 
L 371.898701 198.315224 
L 373.348052 206.82869 
L 374.797403 219.185429 
L 376.246753 235.982185 
L 377.696104 257.603575 
L 382.044156 335.874976 
L 383.493506 349.118612 
L 384.942857 345.595501 
L 386.392208 326.23423 
L 390.74026 239.306691 
L 392.18961 215.782084 
L 393.638961 196.671686 
L 395.088312 181.383711 
L 396.537662 169.185899 
L 397.987013 159.4128 
L 399.436364 151.522071 
L 400.885714 145.091742 
L 402.335065 139.79976 
L 403.784416 135.401739 
L 405.233766 131.711963 
L 406.683117 128.588545 
L 408.132468 125.922288 
L 409.581818 123.628437 
L 411.031169 121.640628 
L 412.480519 119.906431 
L 413.92987 118.384066 
L 416.828571 115.846883 
L 419.727273 113.828959 
L 422.625974 112.19524 
L 425.524675 110.85205 
L 428.423377 109.732798 
L 432.771429 108.371512 
L 437.119481 107.293822 
L 441.467532 106.424156 
L 447.264935 105.501233 
L 454.511688 104.618172 
L 463.207792 103.828395 
L 473.353247 103.152769 
L 486.397403 102.532639 
L 502.34026 102.009232 
L 524.080519 101.537808 
L 553.067532 101.147179 
L 595.098701 100.820909 
L 622.636364 100.687539 
L 622.636364 100.687539 
" clip-path="url(#pec87feb256)" style="fill: none; stroke-dasharray: 5.55,2.4; stroke-dashoffset: 0; stroke: #000000; stroke-width: 1.5"/>
   </g>
   <g id="patch_3">
    <path d="M 90 384.48 
L 90 51.84 
" style="fill: none; stroke: #000000; stroke-width: 0.8; stroke-linejoin: miter; stroke-linecap: square"/>
   </g>
   <g id="patch_4">
    <path d="M 648 384.48 
L 648 51.84 
" style="fill: none; stroke: #000000; stroke-width: 0.8; stroke-linejoin: miter; stroke-linecap: square"/>
   </g>
   <g id="patch_5">
    <path d="M 90 384.48 
L 648 384.48 
" style="fill: none; stroke: #000000; stroke-width: 0.8; stroke-linejoin: miter; stroke-linecap: square"/>
   </g>
   <g id="patch_6">
    <path d="M 90 51.84 
L 648 51.84 
" style="fill: none; stroke: #000000; stroke-width: 0.8; stroke-linejoin: miter; stroke-linecap: square"/>
   </g>
   <g id="text_18">
    <!-- RF Power = -35, Line Width = 0.51 MHz -->
    <g transform="translate(250.095937 45.84) scale(0.12 -0.12)">
     <defs>
      <path id="DejaVuSans-52" d="M 2841 2188 
Q 3044 2119 3236 1894 
Q 3428 1669 3622 1275 
L 4263 0 
L 3584 0 
L 2988 1197 
Q 2756 1666 2539 1819 
Q 2322 1972 1947 1972 
L 1259 1972 
L 1259 0 
L 628 0 
L 628 4666 
L 2053 4666 
Q 2853 4666 3247 4331 
Q 3641 3997 3641 3322 
Q 3641 2881 3436 2590 
Q 3231 2300 2841 2188 
z
M 1259 4147 
L 1259 2491 
L 2053 2491 
Q 2509 2491 2742 2702 
Q 2975 2913 2975 3322 
Q 2975 3731 2742 3939 
Q 2509 4147 2053 4147 
L 1259 4147 
z
" transform="scale(0.015625)"/>
      <path id="DejaVuSans-46" d="M 628 4666 
L 3309 4666 
L 3309 4134 
L 1259 4134 
L 1259 2759 
L 3109 2759 
L 3109 2228 
L 1259 2228 
L 1259 0 
L 628 0 
L 628 4666 
z
" transform="scale(0.015625)"/>
      <path id="DejaVuSans-50" d="M 1259 4147 
L 1259 2394 
L 2053 2394 
Q 2494 2394 2734 2622 
Q 2975 2850 2975 3272 
Q 2975 3691 2734 3919 
Q 2494 4147 2053 4147 
L 1259 4147 
z
M 628 4666 
L 2053 4666 
Q 2838 4666 3239 4311 
Q 3641 3956 3641 3272 
Q 3641 2581 3239 2228 
Q 2838 1875 2053 1875 
L 1259 1875 
L 1259 0 
L 628 0 
L 628 4666 
z
" transform="scale(0.015625)"/>
      <path id="DejaVuSans-77" d="M 269 3500 
L 844 3500 
L 1563 769 
L 2278 3500 
L 2956 3500 
L 3675 769 
L 4391 3500 
L 4966 3500 
L 4050 0 
L 3372 0 
L 2619 2869 
L 1863 0 
L 1184 0 
L 269 3500 
z
" transform="scale(0.015625)"/>
      <path id="DejaVuSans-3d" d="M 678 2906 
L 4684 2906 
L 4684 2381 
L 678 2381 
L 678 2906 
z
M 678 1631 
L 4684 1631 
L 4684 1100 
L 678 1100 
L 678 1631 
z
" transform="scale(0.015625)"/>
      <path id="DejaVuSans-2d" d="M 313 2009 
L 1997 2009 
L 1997 1497 
L 313 1497 
L 313 2009 
z
" transform="scale(0.015625)"/>
      <path id="DejaVuSans-33" d="M 2597 2516 
Q 3050 2419 3304 2112 
Q 3559 1806 3559 1356 
Q 3559 666 3084 287 
Q 2609 -91 1734 -91 
Q 1441 -91 1130 -33 
Q 819 25 488 141 
L 488 750 
Q 750 597 1062 519 
Q 1375 441 1716 441 
Q 2309 441 2620 675 
Q 2931 909 2931 1356 
Q 2931 1769 2642 2001 
Q 2353 2234 1838 2234 
L 1294 2234 
L 1294 2753 
L 1863 2753 
Q 2328 2753 2575 2939 
Q 2822 3125 2822 3475 
Q 2822 3834 2567 4026 
Q 2313 4219 1838 4219 
Q 1578 4219 1281 4162 
Q 984 4106 628 3988 
L 628 4550 
Q 988 4650 1302 4700 
Q 1616 4750 1894 4750 
Q 2613 4750 3031 4423 
Q 3450 4097 3450 3541 
Q 3450 3153 3228 2886 
Q 3006 2619 2597 2516 
z
" transform="scale(0.015625)"/>
      <path id="DejaVuSans-2c" d="M 750 794 
L 1409 794 
L 1409 256 
L 897 -744 
L 494 -744 
L 750 256 
L 750 794 
z
" transform="scale(0.015625)"/>
      <path id="DejaVuSans-4c" d="M 628 4666 
L 1259 4666 
L 1259 531 
L 3531 531 
L 3531 0 
L 628 0 
L 628 4666 
z
" transform="scale(0.015625)"/>
      <path id="DejaVuSans-69" d="M 603 3500 
L 1178 3500 
L 1178 0 
L 603 0 
L 603 3500 
z
M 603 4863 
L 1178 4863 
L 1178 4134 
L 603 4134 
L 603 4863 
z
" transform="scale(0.015625)"/>
      <path id="DejaVuSans-57" d="M 213 4666 
L 850 4666 
L 1831 722 
L 2809 4666 
L 3519 4666 
L 4500 722 
L 5478 4666 
L 6119 4666 
L 4947 0 
L 4153 0 
L 3169 4050 
L 2175 0 
L 1381 0 
L 213 4666 
z
" transform="scale(0.015625)"/>
      <path id="DejaVuSans-64" d="M 2906 2969 
L 2906 4863 
L 3481 4863 
L 3481 0 
L 2906 0 
L 2906 525 
Q 2725 213 2448 61 
Q 2172 -91 1784 -91 
Q 1150 -91 751 415 
Q 353 922 353 1747 
Q 353 2572 751 3078 
Q 1150 3584 1784 3584 
Q 2172 3584 2448 3432 
Q 2725 3281 2906 2969 
z
M 947 1747 
Q 947 1113 1208 752 
Q 1469 391 1925 391 
Q 2381 391 2643 752 
Q 2906 1113 2906 1747 
Q 2906 2381 2643 2742 
Q 2381 3103 1925 3103 
Q 1469 3103 1208 2742 
Q 947 2381 947 1747 
z
" transform="scale(0.015625)"/>
      <path id="DejaVuSans-68" d="M 3513 2113 
L 3513 0 
L 2938 0 
L 2938 2094 
Q 2938 2591 2744 2837 
Q 2550 3084 2163 3084 
Q 1697 3084 1428 2787 
Q 1159 2491 1159 1978 
L 1159 0 
L 581 0 
L 581 4863 
L 1159 4863 
L 1159 2956 
Q 1366 3272 1645 3428 
Q 1925 3584 2291 3584 
Q 2894 3584 3203 3211 
Q 3513 2838 3513 2113 
z
" transform="scale(0.015625)"/>
     </defs>
     <use xlink:href="#DejaVuSans-52"/>
     <use xlink:href="#DejaVuSans-46" x="69.482422"/>
     <use xlink:href="#DejaVuSans-20" x="127.001953"/>
     <use xlink:href="#DejaVuSans-50" x="158.789062"/>
     <use xlink:href="#DejaVuSans-6f" x="215.466797"/>
     <use xlink:href="#DejaVuSans-77" x="276.648438"/>
     <use xlink:href="#DejaVuSans-65" x="358.435547"/>
     <use xlink:href="#DejaVuSans-72" x="419.958984"/>
     <use xlink:href="#DejaVuSans-20" x="461.072266"/>
     <use xlink:href="#DejaVuSans-3d" x="492.859375"/>
     <use xlink:href="#DejaVuSans-20" x="576.648438"/>
     <use xlink:href="#DejaVuSans-2d" x="608.435547"/>
     <use xlink:href="#DejaVuSans-33" x="644.519531"/>
     <use xlink:href="#DejaVuSans-35" x="708.142578"/>
     <use xlink:href="#DejaVuSans-2c" x="771.765625"/>
     <use xlink:href="#DejaVuSans-20" x="803.552734"/>
     <use xlink:href="#DejaVuSans-4c" x="835.339844"/>
     <use xlink:href="#DejaVuSans-69" x="891.052734"/>
     <use xlink:href="#DejaVuSans-6e" x="918.835938"/>
     <use xlink:href="#DejaVuSans-65" x="982.214844"/>
     <use xlink:href="#DejaVuSans-20" x="1043.738281"/>
     <use xlink:href="#DejaVuSans-57" x="1075.525391"/>
     <use xlink:href="#DejaVuSans-69" x="1172.152344"/>
     <use xlink:href="#DejaVuSans-64" x="1199.935547"/>
     <use xlink:href="#DejaVuSans-74" x="1263.412109"/>
     <use xlink:href="#DejaVuSans-68" x="1302.621094"/>
     <use xlink:href="#DejaVuSans-20" x="1366"/>
     <use xlink:href="#DejaVuSans-3d" x="1397.787109"/>
     <use xlink:href="#DejaVuSans-20" x="1481.576172"/>
     <use xlink:href="#DejaVuSans-30" x="1513.363281"/>
     <use xlink:href="#DejaVuSans-2e" x="1576.986328"/>
     <use xlink:href="#DejaVuSans-35" x="1608.773438"/>
     <use xlink:href="#DejaVuSans-31" x="1672.396484"/>
     <use xlink:href="#DejaVuSans-20" x="1736.019531"/>
     <use xlink:href="#DejaVuSans-4d" x="1767.806641"/>
     <use xlink:href="#DejaVuSans-48" x="1854.085938"/>
     <use xlink:href="#DejaVuSans-7a" x="1929.28125"/>
    </g>
   </g>
   <g id="legend_1">
    <g id="patch_7">
     <path d="M 97 379.48 
L 152.876563 379.48 
Q 154.876563 379.48 154.876563 377.48 
L 154.876563 349.12375 
Q 154.876563 347.12375 152.876563 347.12375 
L 97 347.12375 
Q 95 347.12375 95 349.12375 
L 95 377.48 
Q 95 379.48 97 379.48 
z
" style="fill: #ffffff; opacity: 0.8; stroke: #cccccc; stroke-linejoin: miter"/>
    </g>
    <g id="line2d_18">
     <path d="M 99 355.222188 
L 109 355.222188 
L 119 355.222188 
" style="fill: none; stroke: #1f77b4; stroke-width: 1.5; stroke-linecap: square"/>
     <g>
      <use xlink:href="#m229a4abae6" x="109" y="355.222188" style="fill: #1f77b4; stroke: #1f77b4"/>
     </g>
    </g>
    <g id="text_19">
     <!-- Data -->
     <g transform="translate(127 358.722188) scale(0.1 -0.1)">
      <defs>
       <path id="DejaVuSans-44" d="M 1259 4147 
L 1259 519 
L 2022 519 
Q 2988 519 3436 956 
Q 3884 1394 3884 2338 
Q 3884 3275 3436 3711 
Q 2988 4147 2022 4147 
L 1259 4147 
z
M 628 4666 
L 1925 4666 
Q 3281 4666 3915 4102 
Q 4550 3538 4550 2338 
Q 4550 1131 3912 565 
Q 3275 0 1925 0 
L 628 0 
L 628 4666 
z
" transform="scale(0.015625)"/>
      </defs>
      <use xlink:href="#DejaVuSans-44"/>
      <use xlink:href="#DejaVuSans-61" x="77.001953"/>
      <use xlink:href="#DejaVuSans-74" x="138.28125"/>
      <use xlink:href="#DejaVuSans-61" x="177.490234"/>
     </g>
    </g>
    <g id="line2d_19">
     <path d="M 99 369.900312 
L 109 369.900312 
L 119 369.900312 
" style="fill: none; stroke-dasharray: 5.55,2.4; stroke-dashoffset: 0; stroke: #000000; stroke-width: 1.5"/>
    </g>
    <g id="text_20">
     <!-- Fit -->
     <g transform="translate(127 373.400312) scale(0.1 -0.1)">
      <use xlink:href="#DejaVuSans-46"/>
      <use xlink:href="#DejaVuSans-69" x="50.269531"/>
      <use xlink:href="#DejaVuSans-74" x="78.052734"/>
     </g>
    </g>
   </g>
  </g>
 </g>
 <defs>
  <clipPath id="pec87feb256">
   <rect x="90" y="51.84" width="558" height="332.64"/>
  </clipPath>
 </defs>
</svg>
