<?xml version="1.0" encoding="utf-8" standalone="no"?>
<!DOCTYPE svg PUBLIC "-//W3C//DTD SVG 1.1//EN"
  "http://www.w3.org/Graphics/SVG/1.1/DTD/svg11.dtd">
<svg xmlns:xlink="http://www.w3.org/1999/xlink" width="720pt" height="432pt" viewBox="0 0 720 432" xmlns="http://www.w3.org/2000/svg" version="1.1">
 <metadata>
  <rdf:RDF xmlns:dc="http://purl.org/dc/elements/1.1/" xmlns:cc="http://creativecommons.org/ns#" xmlns:rdf="http://www.w3.org/1999/02/22-rdf-syntax-ns#">
   <cc:Work>
    <dc:type rdf:resource="http://purl.org/dc/dcmitype/StillImage"/>
    <dc:date>2023-03-30T12:46:14.894862</dc:date>
    <dc:format>image/svg+xml</dc:format>
    <dc:creator>
     <cc:Agent>
      <dc:title>Matplotlib v3.7.0, https://matplotlib.org/</dc:title>
     </cc:Agent>
    </dc:creator>
   </cc:Work>
  </rdf:RDF>
 </metadata>
 <defs>
  <style type="text/css">*{stroke-linejoin: round; stroke-linecap: butt}</style>
 </defs>
 <g id="figure_1">
  <g id="patch_1">
   <path d="M 0 432 
L 720 432 
L 720 0 
L 0 0 
L 0 432 
z
" style="fill: none"/>
  </g>
  <g id="axes_1">
   <g id="patch_2">
    <path d="M 90 384.48 
L 648 384.48 
L 648 51.84 
L 90 51.84 
L 90 384.48 
z
" style="fill: none"/>
   </g>
   <g id="matplotlib.axis_1">
    <g id="xtick_1">
     <g id="line2d_1">
      <defs>
       <path id="m172c0d3781" d="M 0 0 
L 0 3.5 
" style="stroke: #000000; stroke-width: 0.8"/>
      </defs>
      <g>
       <use xlink:href="#m172c0d3781" x="115.363636" y="384.48" style="stroke: #000000; stroke-width: 0.8"/>
      </g>
     </g>
     <g id="text_1">
      <!-- 2765 -->
      <g transform="translate(102.638636 399.078438) scale(0.1 -0.1)">
       <defs>
        <path id="DejaVuSans-32" d="M 1228 531 
L 3431 531 
L 3431 0 
L 469 0 
L 469 531 
Q 828 903 1448 1529 
Q 2069 2156 2228 2338 
Q 2531 2678 2651 2914 
Q 2772 3150 2772 3378 
Q 2772 3750 2511 3984 
Q 2250 4219 1831 4219 
Q 1534 4219 1204 4116 
Q 875 4013 500 3803 
L 500 4441 
Q 881 4594 1212 4672 
Q 1544 4750 1819 4750 
Q 2544 4750 2975 4387 
Q 3406 4025 3406 3419 
Q 3406 3131 3298 2873 
Q 3191 2616 2906 2266 
Q 2828 2175 2409 1742 
Q 1991 1309 1228 531 
z
" transform="scale(0.015625)"/>
        <path id="DejaVuSans-37" d="M 525 4666 
L 3525 4666 
L 3525 4397 
L 1831 0 
L 1172 0 
L 2766 4134 
L 525 4134 
L 525 4666 
z
" transform="scale(0.015625)"/>
        <path id="DejaVuSans-36" d="M 2113 2584 
Q 1688 2584 1439 2293 
Q 1191 2003 1191 1497 
Q 1191 994 1439 701 
Q 1688 409 2113 409 
Q 2538 409 2786 701 
Q 3034 994 3034 1497 
Q 3034 2003 2786 2293 
Q 2538 2584 2113 2584 
z
M 3366 4563 
L 3366 3988 
Q 3128 4100 2886 4159 
Q 2644 4219 2406 4219 
Q 1781 4219 1451 3797 
Q 1122 3375 1075 2522 
Q 1259 2794 1537 2939 
Q 1816 3084 2150 3084 
Q 2853 3084 3261 2657 
Q 3669 2231 3669 1497 
Q 3669 778 3244 343 
Q 2819 -91 2113 -91 
Q 1303 -91 875 529 
Q 447 1150 447 2328 
Q 447 3434 972 4092 
Q 1497 4750 2381 4750 
Q 2619 4750 2861 4703 
Q 3103 4656 3366 4563 
z
" transform="scale(0.015625)"/>
        <path id="DejaVuSans-35" d="M 691 4666 
L 3169 4666 
L 3169 4134 
L 1269 4134 
L 1269 2991 
Q 1406 3038 1543 3061 
Q 1681 3084 1819 3084 
Q 2600 3084 3056 2656 
Q 3513 2228 3513 1497 
Q 3513 744 3044 326 
Q 2575 -91 1722 -91 
Q 1428 -91 1123 -41 
Q 819 9 494 109 
L 494 744 
Q 775 591 1075 516 
Q 1375 441 1709 441 
Q 2250 441 2565 725 
Q 2881 1009 2881 1497 
Q 2881 1984 2565 2268 
Q 2250 2553 1709 2553 
Q 1456 2553 1204 2497 
Q 953 2441 691 2322 
L 691 4666 
z
" transform="scale(0.015625)"/>
       </defs>
       <use xlink:href="#DejaVuSans-32"/>
       <use xlink:href="#DejaVuSans-37" x="63.623047"/>
       <use xlink:href="#DejaVuSans-36" x="127.246094"/>
       <use xlink:href="#DejaVuSans-35" x="190.869141"/>
      </g>
     </g>
    </g>
    <g id="xtick_2">
     <g id="line2d_2">
      <g>
       <use xlink:href="#m172c0d3781" x="187.831169" y="384.48" style="stroke: #000000; stroke-width: 0.8"/>
      </g>
     </g>
     <g id="text_2">
      <!-- 2770 -->
      <g transform="translate(175.106169 399.078438) scale(0.1 -0.1)">
       <defs>
        <path id="DejaVuSans-30" d="M 2034 4250 
Q 1547 4250 1301 3770 
Q 1056 3291 1056 2328 
Q 1056 1369 1301 889 
Q 1547 409 2034 409 
Q 2525 409 2770 889 
Q 3016 1369 3016 2328 
Q 3016 3291 2770 3770 
Q 2525 4250 2034 4250 
z
M 2034 4750 
Q 2819 4750 3233 4129 
Q 3647 3509 3647 2328 
Q 3647 1150 3233 529 
Q 2819 -91 2034 -91 
Q 1250 -91 836 529 
Q 422 1150 422 2328 
Q 422 3509 836 4129 
Q 1250 4750 2034 4750 
z
" transform="scale(0.015625)"/>
       </defs>
       <use xlink:href="#DejaVuSans-32"/>
       <use xlink:href="#DejaVuSans-37" x="63.623047"/>
       <use xlink:href="#DejaVuSans-37" x="127.246094"/>
       <use xlink:href="#DejaVuSans-30" x="190.869141"/>
      </g>
     </g>
    </g>
    <g id="xtick_3">
     <g id="line2d_3">
      <g>
       <use xlink:href="#m172c0d3781" x="260.298701" y="384.48" style="stroke: #000000; stroke-width: 0.8"/>
      </g>
     </g>
     <g id="text_3">
      <!-- 2775 -->
      <g transform="translate(247.573701 399.078438) scale(0.1 -0.1)">
       <use xlink:href="#DejaVuSans-32"/>
       <use xlink:href="#DejaVuSans-37" x="63.623047"/>
       <use xlink:href="#DejaVuSans-37" x="127.246094"/>
       <use xlink:href="#DejaVuSans-35" x="190.869141"/>
      </g>
     </g>
    </g>
    <g id="xtick_4">
     <g id="line2d_4">
      <g>
       <use xlink:href="#m172c0d3781" x="332.766234" y="384.48" style="stroke: #000000; stroke-width: 0.8"/>
      </g>
     </g>
     <g id="text_4">
      <!-- 2780 -->
      <g transform="translate(320.041234 399.078438) scale(0.1 -0.1)">
       <defs>
        <path id="DejaVuSans-38" d="M 2034 2216 
Q 1584 2216 1326 1975 
Q 1069 1734 1069 1313 
Q 1069 891 1326 650 
Q 1584 409 2034 409 
Q 2484 409 2743 651 
Q 3003 894 3003 1313 
Q 3003 1734 2745 1975 
Q 2488 2216 2034 2216 
z
M 1403 2484 
Q 997 2584 770 2862 
Q 544 3141 544 3541 
Q 544 4100 942 4425 
Q 1341 4750 2034 4750 
Q 2731 4750 3128 4425 
Q 3525 4100 3525 3541 
Q 3525 3141 3298 2862 
Q 3072 2584 2669 2484 
Q 3125 2378 3379 2068 
Q 3634 1759 3634 1313 
Q 3634 634 3220 271 
Q 2806 -91 2034 -91 
Q 1263 -91 848 271 
Q 434 634 434 1313 
Q 434 1759 690 2068 
Q 947 2378 1403 2484 
z
M 1172 3481 
Q 1172 3119 1398 2916 
Q 1625 2713 2034 2713 
Q 2441 2713 2670 2916 
Q 2900 3119 2900 3481 
Q 2900 3844 2670 4047 
Q 2441 4250 2034 4250 
Q 1625 4250 1398 4047 
Q 1172 3844 1172 3481 
z
" transform="scale(0.015625)"/>
       </defs>
       <use xlink:href="#DejaVuSans-32"/>
       <use xlink:href="#DejaVuSans-37" x="63.623047"/>
       <use xlink:href="#DejaVuSans-38" x="127.246094"/>
       <use xlink:href="#DejaVuSans-30" x="190.869141"/>
      </g>
     </g>
    </g>
    <g id="xtick_5">
     <g id="line2d_5">
      <g>
       <use xlink:href="#m172c0d3781" x="405.233766" y="384.48" style="stroke: #000000; stroke-width: 0.8"/>
      </g>
     </g>
     <g id="text_5">
      <!-- 2785 -->
      <g transform="translate(392.508766 399.078438) scale(0.1 -0.1)">
       <use xlink:href="#DejaVuSans-32"/>
       <use xlink:href="#DejaVuSans-37" x="63.623047"/>
       <use xlink:href="#DejaVuSans-38" x="127.246094"/>
       <use xlink:href="#DejaVuSans-35" x="190.869141"/>
      </g>
     </g>
    </g>
    <g id="xtick_6">
     <g id="line2d_6">
      <g>
       <use xlink:href="#m172c0d3781" x="477.701299" y="384.48" style="stroke: #000000; stroke-width: 0.8"/>
      </g>
     </g>
     <g id="text_6">
      <!-- 2790 -->
      <g transform="translate(464.976299 399.078438) scale(0.1 -0.1)">
       <defs>
        <path id="DejaVuSans-39" d="M 703 97 
L 703 672 
Q 941 559 1184 500 
Q 1428 441 1663 441 
Q 2288 441 2617 861 
Q 2947 1281 2994 2138 
Q 2813 1869 2534 1725 
Q 2256 1581 1919 1581 
Q 1219 1581 811 2004 
Q 403 2428 403 3163 
Q 403 3881 828 4315 
Q 1253 4750 1959 4750 
Q 2769 4750 3195 4129 
Q 3622 3509 3622 2328 
Q 3622 1225 3098 567 
Q 2575 -91 1691 -91 
Q 1453 -91 1209 -44 
Q 966 3 703 97 
z
M 1959 2075 
Q 2384 2075 2632 2365 
Q 2881 2656 2881 3163 
Q 2881 3666 2632 3958 
Q 2384 4250 1959 4250 
Q 1534 4250 1286 3958 
Q 1038 3666 1038 3163 
Q 1038 2656 1286 2365 
Q 1534 2075 1959 2075 
z
" transform="scale(0.015625)"/>
       </defs>
       <use xlink:href="#DejaVuSans-32"/>
       <use xlink:href="#DejaVuSans-37" x="63.623047"/>
       <use xlink:href="#DejaVuSans-39" x="127.246094"/>
       <use xlink:href="#DejaVuSans-30" x="190.869141"/>
      </g>
     </g>
    </g>
    <g id="xtick_7">
     <g id="line2d_7">
      <g>
       <use xlink:href="#m172c0d3781" x="550.168831" y="384.48" style="stroke: #000000; stroke-width: 0.8"/>
      </g>
     </g>
     <g id="text_7">
      <!-- 2795 -->
      <g transform="translate(537.443831 399.078438) scale(0.1 -0.1)">
       <use xlink:href="#DejaVuSans-32"/>
       <use xlink:href="#DejaVuSans-37" x="63.623047"/>
       <use xlink:href="#DejaVuSans-39" x="127.246094"/>
       <use xlink:href="#DejaVuSans-35" x="190.869141"/>
      </g>
     </g>
    </g>
    <g id="xtick_8">
     <g id="line2d_8">
      <g>
       <use xlink:href="#m172c0d3781" x="622.636364" y="384.48" style="stroke: #000000; stroke-width: 0.8"/>
      </g>
     </g>
     <g id="text_8">
      <!-- 2800 -->
      <g transform="translate(609.911364 399.078438) scale(0.1 -0.1)">
       <use xlink:href="#DejaVuSans-32"/>
       <use xlink:href="#DejaVuSans-38" x="63.623047"/>
       <use xlink:href="#DejaVuSans-30" x="127.246094"/>
       <use xlink:href="#DejaVuSans-30" x="190.869141"/>
      </g>
     </g>
    </g>
    <g id="text_9">
     <!-- frequency [MHz] -->
     <g transform="translate(327.734375 412.756563) scale(0.1 -0.1)">
      <defs>
       <path id="DejaVuSans-66" d="M 2375 4863 
L 2375 4384 
L 1825 4384 
Q 1516 4384 1395 4259 
Q 1275 4134 1275 3809 
L 1275 3500 
L 2222 3500 
L 2222 3053 
L 1275 3053 
L 1275 0 
L 697 0 
L 697 3053 
L 147 3053 
L 147 3500 
L 697 3500 
L 697 3744 
Q 697 4328 969 4595 
Q 1241 4863 1831 4863 
L 2375 4863 
z
" transform="scale(0.015625)"/>
       <path id="DejaVuSans-72" d="M 2631 2963 
Q 2534 3019 2420 3045 
Q 2306 3072 2169 3072 
Q 1681 3072 1420 2755 
Q 1159 2438 1159 1844 
L 1159 0 
L 581 0 
L 581 3500 
L 1159 3500 
L 1159 2956 
Q 1341 3275 1631 3429 
Q 1922 3584 2338 3584 
Q 2397 3584 2469 3576 
Q 2541 3569 2628 3553 
L 2631 2963 
z
" transform="scale(0.015625)"/>
       <path id="DejaVuSans-65" d="M 3597 1894 
L 3597 1613 
L 953 1613 
Q 991 1019 1311 708 
Q 1631 397 2203 397 
Q 2534 397 2845 478 
Q 3156 559 3463 722 
L 3463 178 
Q 3153 47 2828 -22 
Q 2503 -91 2169 -91 
Q 1331 -91 842 396 
Q 353 884 353 1716 
Q 353 2575 817 3079 
Q 1281 3584 2069 3584 
Q 2775 3584 3186 3129 
Q 3597 2675 3597 1894 
z
M 3022 2063 
Q 3016 2534 2758 2815 
Q 2500 3097 2075 3097 
Q 1594 3097 1305 2825 
Q 1016 2553 972 2059 
L 3022 2063 
z
" transform="scale(0.015625)"/>
       <path id="DejaVuSans-71" d="M 947 1747 
Q 947 1113 1208 752 
Q 1469 391 1925 391 
Q 2381 391 2643 752 
Q 2906 1113 2906 1747 
Q 2906 2381 2643 2742 
Q 2381 3103 1925 3103 
Q 1469 3103 1208 2742 
Q 947 2381 947 1747 
z
M 2906 525 
Q 2725 213 2448 61 
Q 2172 -91 1784 -91 
Q 1150 -91 751 415 
Q 353 922 353 1747 
Q 353 2572 751 3078 
Q 1150 3584 1784 3584 
Q 2172 3584 2448 3432 
Q 2725 3281 2906 2969 
L 2906 3500 
L 3481 3500 
L 3481 -1331 
L 2906 -1331 
L 2906 525 
z
" transform="scale(0.015625)"/>
       <path id="DejaVuSans-75" d="M 544 1381 
L 544 3500 
L 1119 3500 
L 1119 1403 
Q 1119 906 1312 657 
Q 1506 409 1894 409 
Q 2359 409 2629 706 
Q 2900 1003 2900 1516 
L 2900 3500 
L 3475 3500 
L 3475 0 
L 2900 0 
L 2900 538 
Q 2691 219 2414 64 
Q 2138 -91 1772 -91 
Q 1169 -91 856 284 
Q 544 659 544 1381 
z
M 1991 3584 
L 1991 3584 
z
" transform="scale(0.015625)"/>
       <path id="DejaVuSans-6e" d="M 3513 2113 
L 3513 0 
L 2938 0 
L 2938 2094 
Q 2938 2591 2744 2837 
Q 2550 3084 2163 3084 
Q 1697 3084 1428 2787 
Q 1159 2491 1159 1978 
L 1159 0 
L 581 0 
L 581 3500 
L 1159 3500 
L 1159 2956 
Q 1366 3272 1645 3428 
Q 1925 3584 2291 3584 
Q 2894 3584 3203 3211 
Q 3513 2838 3513 2113 
z
" transform="scale(0.015625)"/>
       <path id="DejaVuSans-63" d="M 3122 3366 
L 3122 2828 
Q 2878 2963 2633 3030 
Q 2388 3097 2138 3097 
Q 1578 3097 1268 2742 
Q 959 2388 959 1747 
Q 959 1106 1268 751 
Q 1578 397 2138 397 
Q 2388 397 2633 464 
Q 2878 531 3122 666 
L 3122 134 
Q 2881 22 2623 -34 
Q 2366 -91 2075 -91 
Q 1284 -91 818 406 
Q 353 903 353 1747 
Q 353 2603 823 3093 
Q 1294 3584 2113 3584 
Q 2378 3584 2631 3529 
Q 2884 3475 3122 3366 
z
" transform="scale(0.015625)"/>
       <path id="DejaVuSans-79" d="M 2059 -325 
Q 1816 -950 1584 -1140 
Q 1353 -1331 966 -1331 
L 506 -1331 
L 506 -850 
L 844 -850 
Q 1081 -850 1212 -737 
Q 1344 -625 1503 -206 
L 1606 56 
L 191 3500 
L 800 3500 
L 1894 763 
L 2988 3500 
L 3597 3500 
L 2059 -325 
z
" transform="scale(0.015625)"/>
       <path id="DejaVuSans-20" transform="scale(0.015625)"/>
       <path id="DejaVuSans-5b" d="M 550 4863 
L 1875 4863 
L 1875 4416 
L 1125 4416 
L 1125 -397 
L 1875 -397 
L 1875 -844 
L 550 -844 
L 550 4863 
z
" transform="scale(0.015625)"/>
       <path id="DejaVuSans-4d" d="M 628 4666 
L 1569 4666 
L 2759 1491 
L 3956 4666 
L 4897 4666 
L 4897 0 
L 4281 0 
L 4281 4097 
L 3078 897 
L 2444 897 
L 1241 4097 
L 1241 0 
L 628 0 
L 628 4666 
z
" transform="scale(0.015625)"/>
       <path id="DejaVuSans-48" d="M 628 4666 
L 1259 4666 
L 1259 2753 
L 3553 2753 
L 3553 4666 
L 4184 4666 
L 4184 0 
L 3553 0 
L 3553 2222 
L 1259 2222 
L 1259 0 
L 628 0 
L 628 4666 
z
" transform="scale(0.015625)"/>
       <path id="DejaVuSans-7a" d="M 353 3500 
L 3084 3500 
L 3084 2975 
L 922 459 
L 3084 459 
L 3084 0 
L 275 0 
L 275 525 
L 2438 3041 
L 353 3041 
L 353 3500 
z
" transform="scale(0.015625)"/>
       <path id="DejaVuSans-5d" d="M 1947 4863 
L 1947 -844 
L 622 -844 
L 622 -397 
L 1369 -397 
L 1369 4416 
L 622 4416 
L 622 4863 
L 1947 4863 
z
" transform="scale(0.015625)"/>
      </defs>
      <use xlink:href="#DejaVuSans-66"/>
      <use xlink:href="#DejaVuSans-72" x="35.205078"/>
      <use xlink:href="#DejaVuSans-65" x="74.068359"/>
      <use xlink:href="#DejaVuSans-71" x="135.591797"/>
      <use xlink:href="#DejaVuSans-75" x="199.068359"/>
      <use xlink:href="#DejaVuSans-65" x="262.447266"/>
      <use xlink:href="#DejaVuSans-6e" x="323.970703"/>
      <use xlink:href="#DejaVuSans-63" x="387.349609"/>
      <use xlink:href="#DejaVuSans-79" x="442.330078"/>
      <use xlink:href="#DejaVuSans-20" x="501.509766"/>
      <use xlink:href="#DejaVuSans-5b" x="533.296875"/>
      <use xlink:href="#DejaVuSans-4d" x="572.310547"/>
      <use xlink:href="#DejaVuSans-48" x="658.589844"/>
      <use xlink:href="#DejaVuSans-7a" x="733.785156"/>
      <use xlink:href="#DejaVuSans-5d" x="786.275391"/>
     </g>
    </g>
   </g>
   <g id="matplotlib.axis_2">
    <g id="ytick_1">
     <g id="line2d_9">
      <defs>
       <path id="m11605a0e10" d="M 0 0 
L -3.5 0 
" style="stroke: #000000; stroke-width: 0.8"/>
      </defs>
      <g>
       <use xlink:href="#m11605a0e10" x="90" y="373.841447" style="stroke: #000000; stroke-width: 0.8"/>
      </g>
     </g>
     <g id="text_10">
      <!-- 0.975 -->
      <g transform="translate(54.371875 377.640666) scale(0.1 -0.1)">
       <defs>
        <path id="DejaVuSans-2e" d="M 684 794 
L 1344 794 
L 1344 0 
L 684 0 
L 684 794 
z
" transform="scale(0.015625)"/>
       </defs>
       <use xlink:href="#DejaVuSans-30"/>
       <use xlink:href="#DejaVuSans-2e" x="63.623047"/>
       <use xlink:href="#DejaVuSans-39" x="95.410156"/>
       <use xlink:href="#DejaVuSans-37" x="159.033203"/>
       <use xlink:href="#DejaVuSans-35" x="222.65625"/>
      </g>
     </g>
    </g>
    <g id="ytick_2">
     <g id="line2d_10">
      <g>
       <use xlink:href="#m11605a0e10" x="90" y="316.534996" style="stroke: #000000; stroke-width: 0.8"/>
      </g>
     </g>
     <g id="text_11">
      <!-- 0.980 -->
      <g transform="translate(54.371875 320.334215) scale(0.1 -0.1)">
       <use xlink:href="#DejaVuSans-30"/>
       <use xlink:href="#DejaVuSans-2e" x="63.623047"/>
       <use xlink:href="#DejaVuSans-39" x="95.410156"/>
       <use xlink:href="#DejaVuSans-38" x="159.033203"/>
       <use xlink:href="#DejaVuSans-30" x="222.65625"/>
      </g>
     </g>
    </g>
    <g id="ytick_3">
     <g id="line2d_11">
      <g>
       <use xlink:href="#m11605a0e10" x="90" y="259.228546" style="stroke: #000000; stroke-width: 0.8"/>
      </g>
     </g>
     <g id="text_12">
      <!-- 0.985 -->
      <g transform="translate(54.371875 263.027765) scale(0.1 -0.1)">
       <use xlink:href="#DejaVuSans-30"/>
       <use xlink:href="#DejaVuSans-2e" x="63.623047"/>
       <use xlink:href="#DejaVuSans-39" x="95.410156"/>
       <use xlink:href="#DejaVuSans-38" x="159.033203"/>
       <use xlink:href="#DejaVuSans-35" x="222.65625"/>
      </g>
     </g>
    </g>
    <g id="ytick_4">
     <g id="line2d_12">
      <g>
       <use xlink:href="#m11605a0e10" x="90" y="201.922095" style="stroke: #000000; stroke-width: 0.8"/>
      </g>
     </g>
     <g id="text_13">
      <!-- 0.990 -->
      <g transform="translate(54.371875 205.721314) scale(0.1 -0.1)">
       <use xlink:href="#DejaVuSans-30"/>
       <use xlink:href="#DejaVuSans-2e" x="63.623047"/>
       <use xlink:href="#DejaVuSans-39" x="95.410156"/>
       <use xlink:href="#DejaVuSans-39" x="159.033203"/>
       <use xlink:href="#DejaVuSans-30" x="222.65625"/>
      </g>
     </g>
    </g>
    <g id="ytick_5">
     <g id="line2d_13">
      <g>
       <use xlink:href="#m11605a0e10" x="90" y="144.615645" style="stroke: #000000; stroke-width: 0.8"/>
      </g>
     </g>
     <g id="text_14">
      <!-- 0.995 -->
      <g transform="translate(54.371875 148.414863) scale(0.1 -0.1)">
       <use xlink:href="#DejaVuSans-30"/>
       <use xlink:href="#DejaVuSans-2e" x="63.623047"/>
       <use xlink:href="#DejaVuSans-39" x="95.410156"/>
       <use xlink:href="#DejaVuSans-39" x="159.033203"/>
       <use xlink:href="#DejaVuSans-35" x="222.65625"/>
      </g>
     </g>
    </g>
    <g id="ytick_6">
     <g id="line2d_14">
      <g>
       <use xlink:href="#m11605a0e10" x="90" y="87.309194" style="stroke: #000000; stroke-width: 0.8"/>
      </g>
     </g>
     <g id="text_15">
      <!-- 1.000 -->
      <g transform="translate(54.371875 91.108413) scale(0.1 -0.1)">
       <defs>
        <path id="DejaVuSans-31" d="M 794 531 
L 1825 531 
L 1825 4091 
L 703 3866 
L 703 4441 
L 1819 4666 
L 2450 4666 
L 2450 531 
L 3481 531 
L 3481 0 
L 794 0 
L 794 531 
z
" transform="scale(0.015625)"/>
       </defs>
       <use xlink:href="#DejaVuSans-31"/>
       <use xlink:href="#DejaVuSans-2e" x="63.623047"/>
       <use xlink:href="#DejaVuSans-30" x="95.410156"/>
       <use xlink:href="#DejaVuSans-30" x="159.033203"/>
       <use xlink:href="#DejaVuSans-30" x="222.65625"/>
      </g>
     </g>
    </g>
    <g id="text_16">
     <!-- Contrast -->
     <g transform="translate(48.292187 239.524062) rotate(-90) scale(0.1 -0.1)">
      <defs>
       <path id="DejaVuSans-43" d="M 4122 4306 
L 4122 3641 
Q 3803 3938 3442 4084 
Q 3081 4231 2675 4231 
Q 1875 4231 1450 3742 
Q 1025 3253 1025 2328 
Q 1025 1406 1450 917 
Q 1875 428 2675 428 
Q 3081 428 3442 575 
Q 3803 722 4122 1019 
L 4122 359 
Q 3791 134 3420 21 
Q 3050 -91 2638 -91 
Q 1578 -91 968 557 
Q 359 1206 359 2328 
Q 359 3453 968 4101 
Q 1578 4750 2638 4750 
Q 3056 4750 3426 4639 
Q 3797 4528 4122 4306 
z
" transform="scale(0.015625)"/>
       <path id="DejaVuSans-6f" d="M 1959 3097 
Q 1497 3097 1228 2736 
Q 959 2375 959 1747 
Q 959 1119 1226 758 
Q 1494 397 1959 397 
Q 2419 397 2687 759 
Q 2956 1122 2956 1747 
Q 2956 2369 2687 2733 
Q 2419 3097 1959 3097 
z
M 1959 3584 
Q 2709 3584 3137 3096 
Q 3566 2609 3566 1747 
Q 3566 888 3137 398 
Q 2709 -91 1959 -91 
Q 1206 -91 779 398 
Q 353 888 353 1747 
Q 353 2609 779 3096 
Q 1206 3584 1959 3584 
z
" transform="scale(0.015625)"/>
       <path id="DejaVuSans-74" d="M 1172 4494 
L 1172 3500 
L 2356 3500 
L 2356 3053 
L 1172 3053 
L 1172 1153 
Q 1172 725 1289 603 
Q 1406 481 1766 481 
L 2356 481 
L 2356 0 
L 1766 0 
Q 1100 0 847 248 
Q 594 497 594 1153 
L 594 3053 
L 172 3053 
L 172 3500 
L 594 3500 
L 594 4494 
L 1172 4494 
z
" transform="scale(0.015625)"/>
       <path id="DejaVuSans-61" d="M 2194 1759 
Q 1497 1759 1228 1600 
Q 959 1441 959 1056 
Q 959 750 1161 570 
Q 1363 391 1709 391 
Q 2188 391 2477 730 
Q 2766 1069 2766 1631 
L 2766 1759 
L 2194 1759 
z
M 3341 1997 
L 3341 0 
L 2766 0 
L 2766 531 
Q 2569 213 2275 61 
Q 1981 -91 1556 -91 
Q 1019 -91 701 211 
Q 384 513 384 1019 
Q 384 1609 779 1909 
Q 1175 2209 1959 2209 
L 2766 2209 
L 2766 2266 
Q 2766 2663 2505 2880 
Q 2244 3097 1772 3097 
Q 1472 3097 1187 3025 
Q 903 2953 641 2809 
L 641 3341 
Q 956 3463 1253 3523 
Q 1550 3584 1831 3584 
Q 2591 3584 2966 3190 
Q 3341 2797 3341 1997 
z
" transform="scale(0.015625)"/>
       <path id="DejaVuSans-73" d="M 2834 3397 
L 2834 2853 
Q 2591 2978 2328 3040 
Q 2066 3103 1784 3103 
Q 1356 3103 1142 2972 
Q 928 2841 928 2578 
Q 928 2378 1081 2264 
Q 1234 2150 1697 2047 
L 1894 2003 
Q 2506 1872 2764 1633 
Q 3022 1394 3022 966 
Q 3022 478 2636 193 
Q 2250 -91 1575 -91 
Q 1294 -91 989 -36 
Q 684 19 347 128 
L 347 722 
Q 666 556 975 473 
Q 1284 391 1588 391 
Q 1994 391 2212 530 
Q 2431 669 2431 922 
Q 2431 1156 2273 1281 
Q 2116 1406 1581 1522 
L 1381 1569 
Q 847 1681 609 1914 
Q 372 2147 372 2553 
Q 372 3047 722 3315 
Q 1072 3584 1716 3584 
Q 2034 3584 2315 3537 
Q 2597 3491 2834 3397 
z
" transform="scale(0.015625)"/>
      </defs>
      <use xlink:href="#DejaVuSans-43"/>
      <use xlink:href="#DejaVuSans-6f" x="69.824219"/>
      <use xlink:href="#DejaVuSans-6e" x="131.005859"/>
      <use xlink:href="#DejaVuSans-74" x="194.384766"/>
      <use xlink:href="#DejaVuSans-72" x="233.59375"/>
      <use xlink:href="#DejaVuSans-61" x="274.707031"/>
      <use xlink:href="#DejaVuSans-73" x="335.986328"/>
      <use xlink:href="#DejaVuSans-74" x="388.085938"/>
     </g>
    </g>
   </g>
   <g id="line2d_15">
    <path d="M 115.363636 75.066688 
L 116.812987 89.512056 
L 118.262338 93.867203 
L 119.711688 90.458026 
L 121.161039 88.42059 
L 122.61039 83.454312 
L 124.05974 83.397806 
L 125.509091 85.338573 
L 126.958442 81.669219 
L 128.407792 84.892138 
L 129.857143 72.829901 
L 131.306494 87.844357 
L 132.755844 90.478359 
L 134.205195 91.668622 
L 135.654545 79.175479 
L 137.103896 86.983924 
L 138.553247 78.602584 
L 140.002597 99.613473 
L 141.451948 77.104 
L 142.901299 83.416449 
L 144.350649 85.833135 
L 145.8 79.841512 
L 147.249351 92.849772 
L 148.698701 82.512384 
L 150.148052 66.96 
L 151.597403 98.206074 
L 153.046753 94.889668 
L 154.496104 87.440593 
L 155.945455 89.553568 
L 157.394805 98.936604 
L 158.844156 87.502417 
L 160.293506 91.845322 
L 161.742857 90.830922 
L 163.192208 79.582565 
L 164.641558 90.931351 
L 166.090909 105.068792 
L 167.54026 93.622491 
L 168.98961 84.139506 
L 170.438961 81.073315 
L 171.888312 92.942719 
L 173.337662 109.804263 
L 174.787013 91.571767 
L 176.236364 98.747467 
L 177.685714 85.748351 
L 179.135065 84.771415 
L 180.584416 92.281488 
L 182.033766 90.299781 
L 183.483117 109.637787 
L 184.932468 89.809902 
L 186.381818 85.632551 
L 187.831169 96.301146 
L 189.280519 80.77386 
L 190.72987 105.204902 
L 192.179221 83.969987 
L 195.077922 99.288336 
L 197.976623 99.164175 
L 199.425974 93.492306 
L 200.875325 96.505622 
L 202.324675 72.457713 
L 203.774026 91.143886 
L 205.223377 85.773208 
L 206.672727 94.678997 
L 208.122078 92.157801 
L 209.571429 86.627683 
L 211.020779 97.384358 
L 212.47013 94.301952 
L 213.919481 98.900561 
L 215.368831 101.7617 
L 216.818182 91.373655 
L 218.267532 88.076986 
L 219.716883 99.23847 
L 221.166234 115.729898 
L 222.615584 112.740399 
L 224.064935 115.117284 
L 225.514286 108.247455 
L 226.963636 113.764847 
L 228.412987 121.853821 
L 229.862338 100.048244 
L 231.311688 113.935615 
L 232.761039 120.41084 
L 234.21039 105.468474 
L 235.65974 119.773251 
L 237.109091 117.241969 
L 238.558442 114.216668 
L 240.007792 86.945098 
L 242.906494 109.388974 
L 244.355844 124.683862 
L 245.805195 96.416521 
L 247.254545 116.259871 
L 248.703896 118.465747 
L 250.153247 107.880711 
L 251.602597 126.738599 
L 253.051948 130.473361 
L 254.501299 116.159487 
L 255.950649 120.900909 
L 257.4 121.047749 
L 258.849351 138.363959 
L 260.298701 143.643303 
L 261.748052 131.245156 
L 263.197403 132.945235 
L 264.646753 133.780781 
L 266.096104 139.725914 
L 267.545455 155.001811 
L 268.994805 122.159315 
L 270.444156 129.34962 
L 271.893506 125.052482 
L 273.342857 136.038435 
L 274.792208 130.802092 
L 276.241558 147.256546 
L 277.690909 130.593939 
L 279.14026 144.766082 
L 280.58961 136.747688 
L 282.038961 163.740166 
L 283.488312 140.827225 
L 284.937662 155.348699 
L 286.387013 165.868447 
L 287.836364 171.786814 
L 289.285714 181.901444 
L 290.735065 166.415534 
L 292.184416 175.356076 
L 293.633766 170.924374 
L 295.083117 174.35257 
L 296.532468 176.13153 
L 297.981818 187.29141 
L 299.431169 201.236226 
L 300.880519 204.748353 
L 302.32987 205.890661 
L 303.779221 216.035954 
L 305.228571 216.451039 
L 306.677922 231.660784 
L 308.127273 234.18807 
L 309.576623 257.565587 
L 311.025974 284.482419 
L 312.475325 283.99633 
L 313.924675 287.564985 
L 315.374026 300.98513 
L 316.823377 309.200168 
L 318.272727 346.481219 
L 319.722078 341.013092 
L 321.171429 333.034662 
L 322.620779 341.326558 
L 324.07013 343.501889 
L 325.519481 341.714442 
L 326.968831 336.752019 
L 328.418182 326.095009 
L 329.867532 323.312906 
L 331.316883 329.769279 
L 332.766234 304.669928 
L 334.215584 308.721565 
L 335.664935 327.184502 
L 337.114286 305.742146 
L 338.563636 299.441837 
L 340.012987 309.762981 
L 341.462338 313.916461 
L 342.911688 314.860999 
L 344.361039 341.735787 
L 345.81039 342.793463 
L 347.25974 355.476299 
L 348.709091 369.36 
L 350.158442 363.700481 
L 351.607792 369.014385 
L 353.057143 355.150174 
L 354.506494 354.465564 
L 355.955844 364.250748 
L 357.405195 359.466995 
L 358.854545 360.108336 
L 360.303896 348.384604 
L 361.753247 333.283229 
L 363.202597 341.311078 
L 364.651948 326.360809 
L 366.101299 313.920425 
L 367.550649 318.423335 
L 369 307.613972 
L 370.449351 298.028156 
L 371.898701 317.948155 
L 373.348052 336.012341 
L 374.797403 326.469767 
L 376.246753 329.509273 
L 377.696104 355.404245 
L 379.145455 365.02507 
L 380.594805 342.95041 
L 382.044156 352.268672 
L 383.493506 357.309095 
L 386.392208 350.153017 
L 387.841558 339.535568 
L 389.290909 330.164466 
L 390.74026 318.125663 
L 392.18961 280.960956 
L 393.638961 287.040179 
L 395.088312 264.872307 
L 396.537662 263.234746 
L 397.987013 249.893135 
L 399.436364 226.1271 
L 400.885714 218.458512 
L 402.335065 201.492952 
L 403.784416 221.733267 
L 405.233766 210.069309 
L 406.683117 183.181321 
L 408.132468 201.262922 
L 409.581818 178.806078 
L 411.031169 194.436868 
L 412.480519 159.586149 
L 413.92987 165.451265 
L 415.379221 170.214859 
L 416.828571 154.432256 
L 418.277922 169.615383 
L 419.727273 176.150748 
L 421.176623 148.508822 
L 422.625974 174.672533 
L 424.075325 163.573439 
L 425.524675 140.957263 
L 426.974026 152.243833 
L 428.423377 140.833976 
L 429.872727 147.924604 
L 431.322078 151.1524 
L 432.771429 144.410691 
L 434.220779 120.208455 
L 435.67013 128.588689 
L 437.119481 144.448461 
L 438.568831 144.968227 
L 440.018182 125.00222 
L 441.467532 118.837021 
L 442.916883 118.710922 
L 444.366234 129.432669 
L 445.815584 128.115785 
L 447.264935 144.099712 
L 448.714286 123.582688 
L 450.163636 121.177601 
L 451.612987 130.903768 
L 453.062338 120.066711 
L 454.511688 122.71615 
L 455.961039 122.484553 
L 457.41039 112.316856 
L 458.85974 125.005317 
L 460.309091 117.175769 
L 461.758442 123.68026 
L 463.207792 110.854622 
L 464.657143 117.686278 
L 466.106494 113.456352 
L 467.555844 116.797251 
L 469.005195 99.489496 
L 470.454545 119.639401 
L 471.903896 108.207198 
L 473.353247 120.989831 
L 474.802597 100.989885 
L 476.251948 119.43051 
L 477.701299 95.411114 
L 479.150649 119.060948 
L 480.6 95.693981 
L 482.049351 116.703483 
L 483.498701 114.007252 
L 484.948052 101.452975 
L 486.397403 104.726547 
L 487.846753 104.619982 
L 489.296104 107.867056 
L 490.745455 109.697948 
L 492.194805 112.622497 
L 493.644156 93.008467 
L 495.093506 109.917695 
L 496.542857 109.49462 
L 497.992208 101.180998 
L 499.441558 109.502735 
L 500.890909 95.885753 
L 502.34026 92.183005 
L 503.78961 94.948897 
L 505.238961 113.415873 
L 506.688312 88.057844 
L 508.137662 87.319801 
L 509.587013 104.876812 
L 511.036364 102.914661 
L 512.485714 93.116205 
L 513.935065 102.824491 
L 515.384416 74.231538 
L 516.833766 93.401126 
L 518.283117 84.445887 
L 519.732468 99.635937 
L 521.181818 85.249678 
L 522.631169 95.819176 
L 524.080519 94.881331 
L 525.52987 94.716961 
L 526.979221 95.000487 
L 528.428571 103.721872 
L 529.877922 91.34801 
L 531.327273 111.252603 
L 532.776623 91.913916 
L 534.225974 91.296838 
L 535.675325 118.284644 
L 537.124675 91.819974 
L 538.574026 98.59216 
L 540.023377 89.251651 
L 541.472727 90.087642 
L 542.922078 97.57604 
L 544.371429 84.822905 
L 545.820779 112.999363 
L 547.27013 98.163378 
L 548.719481 88.897239 
L 550.168831 112.949429 
L 551.618182 95.031562 
L 553.067532 97.093514 
L 554.516883 101.917101 
L 555.966234 98.964349 
L 557.415584 85.598211 
L 558.864935 92.571314 
L 560.314286 98.64925 
L 561.763636 89.625188 
L 563.212987 94.407228 
L 564.662338 107.121341 
L 566.111688 73.013404 
L 567.561039 95.551716 
L 569.01039 103.125538 
L 570.45974 97.576602 
L 571.909091 89.877434 
L 573.358442 86.258974 
L 574.807792 100.958582 
L 577.706494 83.985326 
L 579.155844 95.910094 
L 580.605195 104.389737 
L 582.054545 83.610109 
L 583.503896 91.377382 
L 584.953247 94.118005 
L 586.402597 85.53132 
L 587.851948 103.955103 
L 589.301299 79.198123 
L 590.750649 101.196728 
L 592.2 89.567121 
L 593.649351 90.794009 
L 595.098701 91.761611 
L 596.548052 86.515586 
L 597.997403 90.97402 
L 599.446753 86.317057 
L 602.345455 109.177599 
L 603.794805 82.709083 
L 605.244156 81.808931 
L 606.693506 95.632639 
L 608.142857 93.322144 
L 609.592208 101.088492 
L 611.041558 104.925345 
L 612.490909 95.513045 
L 613.94026 100.632129 
L 615.38961 107.87741 
L 616.838961 97.489603 
L 618.288312 107.253522 
L 619.737662 96.301121 
L 621.187013 75.319378 
L 622.636364 92.578076 
L 622.636364 92.578076 
" clip-path="url(#p3d1fa14efd)" style="fill: none; stroke: #1f77b4; stroke-width: 1.5; stroke-linecap: square"/>
    <defs>
     <path id="mc2695a5235" d="M 0 3 
C 0.795609 3 1.55874 2.683901 2.12132 2.12132 
C 2.683901 1.55874 3 0.795609 3 0 
C 3 -0.795609 2.683901 -1.55874 2.12132 -2.12132 
C 1.55874 -2.683901 0.795609 -3 0 -3 
C -0.795609 -3 -1.55874 -2.683901 -2.12132 -2.12132 
C -2.683901 -1.55874 -3 -0.795609 -3 0 
C -3 0.795609 -2.683901 1.55874 -2.12132 2.12132 
C -1.55874 2.683901 -0.795609 3 0 3 
z
" style="stroke: #1f77b4"/>
    </defs>
    <g clip-path="url(#p3d1fa14efd)">
     <use xlink:href="#mc2695a5235" x="115.363636" y="75.066688" style="fill: #1f77b4; stroke: #1f77b4"/>
     <use xlink:href="#mc2695a5235" x="116.812987" y="89.512056" style="fill: #1f77b4; stroke: #1f77b4"/>
     <use xlink:href="#mc2695a5235" x="118.262338" y="93.867203" style="fill: #1f77b4; stroke: #1f77b4"/>
     <use xlink:href="#mc2695a5235" x="119.711688" y="90.458026" style="fill: #1f77b4; stroke: #1f77b4"/>
     <use xlink:href="#mc2695a5235" x="121.161039" y="88.42059" style="fill: #1f77b4; stroke: #1f77b4"/>
     <use xlink:href="#mc2695a5235" x="122.61039" y="83.454312" style="fill: #1f77b4; stroke: #1f77b4"/>
     <use xlink:href="#mc2695a5235" x="124.05974" y="83.397806" style="fill: #1f77b4; stroke: #1f77b4"/>
     <use xlink:href="#mc2695a5235" x="125.509091" y="85.338573" style="fill: #1f77b4; stroke: #1f77b4"/>
     <use xlink:href="#mc2695a5235" x="126.958442" y="81.669219" style="fill: #1f77b4; stroke: #1f77b4"/>
     <use xlink:href="#mc2695a5235" x="128.407792" y="84.892138" style="fill: #1f77b4; stroke: #1f77b4"/>
     <use xlink:href="#mc2695a5235" x="129.857143" y="72.829901" style="fill: #1f77b4; stroke: #1f77b4"/>
     <use xlink:href="#mc2695a5235" x="131.306494" y="87.844357" style="fill: #1f77b4; stroke: #1f77b4"/>
     <use xlink:href="#mc2695a5235" x="132.755844" y="90.478359" style="fill: #1f77b4; stroke: #1f77b4"/>
     <use xlink:href="#mc2695a5235" x="134.205195" y="91.668622" style="fill: #1f77b4; stroke: #1f77b4"/>
     <use xlink:href="#mc2695a5235" x="135.654545" y="79.175479" style="fill: #1f77b4; stroke: #1f77b4"/>
     <use xlink:href="#mc2695a5235" x="137.103896" y="86.983924" style="fill: #1f77b4; stroke: #1f77b4"/>
     <use xlink:href="#mc2695a5235" x="138.553247" y="78.602584" style="fill: #1f77b4; stroke: #1f77b4"/>
     <use xlink:href="#mc2695a5235" x="140.002597" y="99.613473" style="fill: #1f77b4; stroke: #1f77b4"/>
     <use xlink:href="#mc2695a5235" x="141.451948" y="77.104" style="fill: #1f77b4; stroke: #1f77b4"/>
     <use xlink:href="#mc2695a5235" x="142.901299" y="83.416449" style="fill: #1f77b4; stroke: #1f77b4"/>
     <use xlink:href="#mc2695a5235" x="144.350649" y="85.833135" style="fill: #1f77b4; stroke: #1f77b4"/>
     <use xlink:href="#mc2695a5235" x="145.8" y="79.841512" style="fill: #1f77b4; stroke: #1f77b4"/>
     <use xlink:href="#mc2695a5235" x="147.249351" y="92.849772" style="fill: #1f77b4; stroke: #1f77b4"/>
     <use xlink:href="#mc2695a5235" x="148.698701" y="82.512384" style="fill: #1f77b4; stroke: #1f77b4"/>
     <use xlink:href="#mc2695a5235" x="150.148052" y="66.96" style="fill: #1f77b4; stroke: #1f77b4"/>
     <use xlink:href="#mc2695a5235" x="151.597403" y="98.206074" style="fill: #1f77b4; stroke: #1f77b4"/>
     <use xlink:href="#mc2695a5235" x="153.046753" y="94.889668" style="fill: #1f77b4; stroke: #1f77b4"/>
     <use xlink:href="#mc2695a5235" x="154.496104" y="87.440593" style="fill: #1f77b4; stroke: #1f77b4"/>
     <use xlink:href="#mc2695a5235" x="155.945455" y="89.553568" style="fill: #1f77b4; stroke: #1f77b4"/>
     <use xlink:href="#mc2695a5235" x="157.394805" y="98.936604" style="fill: #1f77b4; stroke: #1f77b4"/>
     <use xlink:href="#mc2695a5235" x="158.844156" y="87.502417" style="fill: #1f77b4; stroke: #1f77b4"/>
     <use xlink:href="#mc2695a5235" x="160.293506" y="91.845322" style="fill: #1f77b4; stroke: #1f77b4"/>
     <use xlink:href="#mc2695a5235" x="161.742857" y="90.830922" style="fill: #1f77b4; stroke: #1f77b4"/>
     <use xlink:href="#mc2695a5235" x="163.192208" y="79.582565" style="fill: #1f77b4; stroke: #1f77b4"/>
     <use xlink:href="#mc2695a5235" x="164.641558" y="90.931351" style="fill: #1f77b4; stroke: #1f77b4"/>
     <use xlink:href="#mc2695a5235" x="166.090909" y="105.068792" style="fill: #1f77b4; stroke: #1f77b4"/>
     <use xlink:href="#mc2695a5235" x="167.54026" y="93.622491" style="fill: #1f77b4; stroke: #1f77b4"/>
     <use xlink:href="#mc2695a5235" x="168.98961" y="84.139506" style="fill: #1f77b4; stroke: #1f77b4"/>
     <use xlink:href="#mc2695a5235" x="170.438961" y="81.073315" style="fill: #1f77b4; stroke: #1f77b4"/>
     <use xlink:href="#mc2695a5235" x="171.888312" y="92.942719" style="fill: #1f77b4; stroke: #1f77b4"/>
     <use xlink:href="#mc2695a5235" x="173.337662" y="109.804263" style="fill: #1f77b4; stroke: #1f77b4"/>
     <use xlink:href="#mc2695a5235" x="174.787013" y="91.571767" style="fill: #1f77b4; stroke: #1f77b4"/>
     <use xlink:href="#mc2695a5235" x="176.236364" y="98.747467" style="fill: #1f77b4; stroke: #1f77b4"/>
     <use xlink:href="#mc2695a5235" x="177.685714" y="85.748351" style="fill: #1f77b4; stroke: #1f77b4"/>
     <use xlink:href="#mc2695a5235" x="179.135065" y="84.771415" style="fill: #1f77b4; stroke: #1f77b4"/>
     <use xlink:href="#mc2695a5235" x="180.584416" y="92.281488" style="fill: #1f77b4; stroke: #1f77b4"/>
     <use xlink:href="#mc2695a5235" x="182.033766" y="90.299781" style="fill: #1f77b4; stroke: #1f77b4"/>
     <use xlink:href="#mc2695a5235" x="183.483117" y="109.637787" style="fill: #1f77b4; stroke: #1f77b4"/>
     <use xlink:href="#mc2695a5235" x="184.932468" y="89.809902" style="fill: #1f77b4; stroke: #1f77b4"/>
     <use xlink:href="#mc2695a5235" x="186.381818" y="85.632551" style="fill: #1f77b4; stroke: #1f77b4"/>
     <use xlink:href="#mc2695a5235" x="187.831169" y="96.301146" style="fill: #1f77b4; stroke: #1f77b4"/>
     <use xlink:href="#mc2695a5235" x="189.280519" y="80.77386" style="fill: #1f77b4; stroke: #1f77b4"/>
     <use xlink:href="#mc2695a5235" x="190.72987" y="105.204902" style="fill: #1f77b4; stroke: #1f77b4"/>
     <use xlink:href="#mc2695a5235" x="192.179221" y="83.969987" style="fill: #1f77b4; stroke: #1f77b4"/>
     <use xlink:href="#mc2695a5235" x="193.628571" y="91.601421" style="fill: #1f77b4; stroke: #1f77b4"/>
     <use xlink:href="#mc2695a5235" x="195.077922" y="99.288336" style="fill: #1f77b4; stroke: #1f77b4"/>
     <use xlink:href="#mc2695a5235" x="196.527273" y="99.185231" style="fill: #1f77b4; stroke: #1f77b4"/>
     <use xlink:href="#mc2695a5235" x="197.976623" y="99.164175" style="fill: #1f77b4; stroke: #1f77b4"/>
     <use xlink:href="#mc2695a5235" x="199.425974" y="93.492306" style="fill: #1f77b4; stroke: #1f77b4"/>
     <use xlink:href="#mc2695a5235" x="200.875325" y="96.505622" style="fill: #1f77b4; stroke: #1f77b4"/>
     <use xlink:href="#mc2695a5235" x="202.324675" y="72.457713" style="fill: #1f77b4; stroke: #1f77b4"/>
     <use xlink:href="#mc2695a5235" x="203.774026" y="91.143886" style="fill: #1f77b4; stroke: #1f77b4"/>
     <use xlink:href="#mc2695a5235" x="205.223377" y="85.773208" style="fill: #1f77b4; stroke: #1f77b4"/>
     <use xlink:href="#mc2695a5235" x="206.672727" y="94.678997" style="fill: #1f77b4; stroke: #1f77b4"/>
     <use xlink:href="#mc2695a5235" x="208.122078" y="92.157801" style="fill: #1f77b4; stroke: #1f77b4"/>
     <use xlink:href="#mc2695a5235" x="209.571429" y="86.627683" style="fill: #1f77b4; stroke: #1f77b4"/>
     <use xlink:href="#mc2695a5235" x="211.020779" y="97.384358" style="fill: #1f77b4; stroke: #1f77b4"/>
     <use xlink:href="#mc2695a5235" x="212.47013" y="94.301952" style="fill: #1f77b4; stroke: #1f77b4"/>
     <use xlink:href="#mc2695a5235" x="213.919481" y="98.900561" style="fill: #1f77b4; stroke: #1f77b4"/>
     <use xlink:href="#mc2695a5235" x="215.368831" y="101.7617" style="fill: #1f77b4; stroke: #1f77b4"/>
     <use xlink:href="#mc2695a5235" x="216.818182" y="91.373655" style="fill: #1f77b4; stroke: #1f77b4"/>
     <use xlink:href="#mc2695a5235" x="218.267532" y="88.076986" style="fill: #1f77b4; stroke: #1f77b4"/>
     <use xlink:href="#mc2695a5235" x="219.716883" y="99.23847" style="fill: #1f77b4; stroke: #1f77b4"/>
     <use xlink:href="#mc2695a5235" x="221.166234" y="115.729898" style="fill: #1f77b4; stroke: #1f77b4"/>
     <use xlink:href="#mc2695a5235" x="222.615584" y="112.740399" style="fill: #1f77b4; stroke: #1f77b4"/>
     <use xlink:href="#mc2695a5235" x="224.064935" y="115.117284" style="fill: #1f77b4; stroke: #1f77b4"/>
     <use xlink:href="#mc2695a5235" x="225.514286" y="108.247455" style="fill: #1f77b4; stroke: #1f77b4"/>
     <use xlink:href="#mc2695a5235" x="226.963636" y="113.764847" style="fill: #1f77b4; stroke: #1f77b4"/>
     <use xlink:href="#mc2695a5235" x="228.412987" y="121.853821" style="fill: #1f77b4; stroke: #1f77b4"/>
     <use xlink:href="#mc2695a5235" x="229.862338" y="100.048244" style="fill: #1f77b4; stroke: #1f77b4"/>
     <use xlink:href="#mc2695a5235" x="231.311688" y="113.935615" style="fill: #1f77b4; stroke: #1f77b4"/>
     <use xlink:href="#mc2695a5235" x="232.761039" y="120.41084" style="fill: #1f77b4; stroke: #1f77b4"/>
     <use xlink:href="#mc2695a5235" x="234.21039" y="105.468474" style="fill: #1f77b4; stroke: #1f77b4"/>
     <use xlink:href="#mc2695a5235" x="235.65974" y="119.773251" style="fill: #1f77b4; stroke: #1f77b4"/>
     <use xlink:href="#mc2695a5235" x="237.109091" y="117.241969" style="fill: #1f77b4; stroke: #1f77b4"/>
     <use xlink:href="#mc2695a5235" x="238.558442" y="114.216668" style="fill: #1f77b4; stroke: #1f77b4"/>
     <use xlink:href="#mc2695a5235" x="240.007792" y="86.945098" style="fill: #1f77b4; stroke: #1f77b4"/>
     <use xlink:href="#mc2695a5235" x="241.457143" y="98.54481" style="fill: #1f77b4; stroke: #1f77b4"/>
     <use xlink:href="#mc2695a5235" x="242.906494" y="109.388974" style="fill: #1f77b4; stroke: #1f77b4"/>
     <use xlink:href="#mc2695a5235" x="244.355844" y="124.683862" style="fill: #1f77b4; stroke: #1f77b4"/>
     <use xlink:href="#mc2695a5235" x="245.805195" y="96.416521" style="fill: #1f77b4; stroke: #1f77b4"/>
     <use xlink:href="#mc2695a5235" x="247.254545" y="116.259871" style="fill: #1f77b4; stroke: #1f77b4"/>
     <use xlink:href="#mc2695a5235" x="248.703896" y="118.465747" style="fill: #1f77b4; stroke: #1f77b4"/>
     <use xlink:href="#mc2695a5235" x="250.153247" y="107.880711" style="fill: #1f77b4; stroke: #1f77b4"/>
     <use xlink:href="#mc2695a5235" x="251.602597" y="126.738599" style="fill: #1f77b4; stroke: #1f77b4"/>
     <use xlink:href="#mc2695a5235" x="253.051948" y="130.473361" style="fill: #1f77b4; stroke: #1f77b4"/>
     <use xlink:href="#mc2695a5235" x="254.501299" y="116.159487" style="fill: #1f77b4; stroke: #1f77b4"/>
     <use xlink:href="#mc2695a5235" x="255.950649" y="120.900909" style="fill: #1f77b4; stroke: #1f77b4"/>
     <use xlink:href="#mc2695a5235" x="257.4" y="121.047749" style="fill: #1f77b4; stroke: #1f77b4"/>
     <use xlink:href="#mc2695a5235" x="258.849351" y="138.363959" style="fill: #1f77b4; stroke: #1f77b4"/>
     <use xlink:href="#mc2695a5235" x="260.298701" y="143.643303" style="fill: #1f77b4; stroke: #1f77b4"/>
     <use xlink:href="#mc2695a5235" x="261.748052" y="131.245156" style="fill: #1f77b4; stroke: #1f77b4"/>
     <use xlink:href="#mc2695a5235" x="263.197403" y="132.945235" style="fill: #1f77b4; stroke: #1f77b4"/>
     <use xlink:href="#mc2695a5235" x="264.646753" y="133.780781" style="fill: #1f77b4; stroke: #1f77b4"/>
     <use xlink:href="#mc2695a5235" x="266.096104" y="139.725914" style="fill: #1f77b4; stroke: #1f77b4"/>
     <use xlink:href="#mc2695a5235" x="267.545455" y="155.001811" style="fill: #1f77b4; stroke: #1f77b4"/>
     <use xlink:href="#mc2695a5235" x="268.994805" y="122.159315" style="fill: #1f77b4; stroke: #1f77b4"/>
     <use xlink:href="#mc2695a5235" x="270.444156" y="129.34962" style="fill: #1f77b4; stroke: #1f77b4"/>
     <use xlink:href="#mc2695a5235" x="271.893506" y="125.052482" style="fill: #1f77b4; stroke: #1f77b4"/>
     <use xlink:href="#mc2695a5235" x="273.342857" y="136.038435" style="fill: #1f77b4; stroke: #1f77b4"/>
     <use xlink:href="#mc2695a5235" x="274.792208" y="130.802092" style="fill: #1f77b4; stroke: #1f77b4"/>
     <use xlink:href="#mc2695a5235" x="276.241558" y="147.256546" style="fill: #1f77b4; stroke: #1f77b4"/>
     <use xlink:href="#mc2695a5235" x="277.690909" y="130.593939" style="fill: #1f77b4; stroke: #1f77b4"/>
     <use xlink:href="#mc2695a5235" x="279.14026" y="144.766082" style="fill: #1f77b4; stroke: #1f77b4"/>
     <use xlink:href="#mc2695a5235" x="280.58961" y="136.747688" style="fill: #1f77b4; stroke: #1f77b4"/>
     <use xlink:href="#mc2695a5235" x="282.038961" y="163.740166" style="fill: #1f77b4; stroke: #1f77b4"/>
     <use xlink:href="#mc2695a5235" x="283.488312" y="140.827225" style="fill: #1f77b4; stroke: #1f77b4"/>
     <use xlink:href="#mc2695a5235" x="284.937662" y="155.348699" style="fill: #1f77b4; stroke: #1f77b4"/>
     <use xlink:href="#mc2695a5235" x="286.387013" y="165.868447" style="fill: #1f77b4; stroke: #1f77b4"/>
     <use xlink:href="#mc2695a5235" x="287.836364" y="171.786814" style="fill: #1f77b4; stroke: #1f77b4"/>
     <use xlink:href="#mc2695a5235" x="289.285714" y="181.901444" style="fill: #1f77b4; stroke: #1f77b4"/>
     <use xlink:href="#mc2695a5235" x="290.735065" y="166.415534" style="fill: #1f77b4; stroke: #1f77b4"/>
     <use xlink:href="#mc2695a5235" x="292.184416" y="175.356076" style="fill: #1f77b4; stroke: #1f77b4"/>
     <use xlink:href="#mc2695a5235" x="293.633766" y="170.924374" style="fill: #1f77b4; stroke: #1f77b4"/>
     <use xlink:href="#mc2695a5235" x="295.083117" y="174.35257" style="fill: #1f77b4; stroke: #1f77b4"/>
     <use xlink:href="#mc2695a5235" x="296.532468" y="176.13153" style="fill: #1f77b4; stroke: #1f77b4"/>
     <use xlink:href="#mc2695a5235" x="297.981818" y="187.29141" style="fill: #1f77b4; stroke: #1f77b4"/>
     <use xlink:href="#mc2695a5235" x="299.431169" y="201.236226" style="fill: #1f77b4; stroke: #1f77b4"/>
     <use xlink:href="#mc2695a5235" x="300.880519" y="204.748353" style="fill: #1f77b4; stroke: #1f77b4"/>
     <use xlink:href="#mc2695a5235" x="302.32987" y="205.890661" style="fill: #1f77b4; stroke: #1f77b4"/>
     <use xlink:href="#mc2695a5235" x="303.779221" y="216.035954" style="fill: #1f77b4; stroke: #1f77b4"/>
     <use xlink:href="#mc2695a5235" x="305.228571" y="216.451039" style="fill: #1f77b4; stroke: #1f77b4"/>
     <use xlink:href="#mc2695a5235" x="306.677922" y="231.660784" style="fill: #1f77b4; stroke: #1f77b4"/>
     <use xlink:href="#mc2695a5235" x="308.127273" y="234.18807" style="fill: #1f77b4; stroke: #1f77b4"/>
     <use xlink:href="#mc2695a5235" x="309.576623" y="257.565587" style="fill: #1f77b4; stroke: #1f77b4"/>
     <use xlink:href="#mc2695a5235" x="311.025974" y="284.482419" style="fill: #1f77b4; stroke: #1f77b4"/>
     <use xlink:href="#mc2695a5235" x="312.475325" y="283.99633" style="fill: #1f77b4; stroke: #1f77b4"/>
     <use xlink:href="#mc2695a5235" x="313.924675" y="287.564985" style="fill: #1f77b4; stroke: #1f77b4"/>
     <use xlink:href="#mc2695a5235" x="315.374026" y="300.98513" style="fill: #1f77b4; stroke: #1f77b4"/>
     <use xlink:href="#mc2695a5235" x="316.823377" y="309.200168" style="fill: #1f77b4; stroke: #1f77b4"/>
     <use xlink:href="#mc2695a5235" x="318.272727" y="346.481219" style="fill: #1f77b4; stroke: #1f77b4"/>
     <use xlink:href="#mc2695a5235" x="319.722078" y="341.013092" style="fill: #1f77b4; stroke: #1f77b4"/>
     <use xlink:href="#mc2695a5235" x="321.171429" y="333.034662" style="fill: #1f77b4; stroke: #1f77b4"/>
     <use xlink:href="#mc2695a5235" x="322.620779" y="341.326558" style="fill: #1f77b4; stroke: #1f77b4"/>
     <use xlink:href="#mc2695a5235" x="324.07013" y="343.501889" style="fill: #1f77b4; stroke: #1f77b4"/>
     <use xlink:href="#mc2695a5235" x="325.519481" y="341.714442" style="fill: #1f77b4; stroke: #1f77b4"/>
     <use xlink:href="#mc2695a5235" x="326.968831" y="336.752019" style="fill: #1f77b4; stroke: #1f77b4"/>
     <use xlink:href="#mc2695a5235" x="328.418182" y="326.095009" style="fill: #1f77b4; stroke: #1f77b4"/>
     <use xlink:href="#mc2695a5235" x="329.867532" y="323.312906" style="fill: #1f77b4; stroke: #1f77b4"/>
     <use xlink:href="#mc2695a5235" x="331.316883" y="329.769279" style="fill: #1f77b4; stroke: #1f77b4"/>
     <use xlink:href="#mc2695a5235" x="332.766234" y="304.669928" style="fill: #1f77b4; stroke: #1f77b4"/>
     <use xlink:href="#mc2695a5235" x="334.215584" y="308.721565" style="fill: #1f77b4; stroke: #1f77b4"/>
     <use xlink:href="#mc2695a5235" x="335.664935" y="327.184502" style="fill: #1f77b4; stroke: #1f77b4"/>
     <use xlink:href="#mc2695a5235" x="337.114286" y="305.742146" style="fill: #1f77b4; stroke: #1f77b4"/>
     <use xlink:href="#mc2695a5235" x="338.563636" y="299.441837" style="fill: #1f77b4; stroke: #1f77b4"/>
     <use xlink:href="#mc2695a5235" x="340.012987" y="309.762981" style="fill: #1f77b4; stroke: #1f77b4"/>
     <use xlink:href="#mc2695a5235" x="341.462338" y="313.916461" style="fill: #1f77b4; stroke: #1f77b4"/>
     <use xlink:href="#mc2695a5235" x="342.911688" y="314.860999" style="fill: #1f77b4; stroke: #1f77b4"/>
     <use xlink:href="#mc2695a5235" x="344.361039" y="341.735787" style="fill: #1f77b4; stroke: #1f77b4"/>
     <use xlink:href="#mc2695a5235" x="345.81039" y="342.793463" style="fill: #1f77b4; stroke: #1f77b4"/>
     <use xlink:href="#mc2695a5235" x="347.25974" y="355.476299" style="fill: #1f77b4; stroke: #1f77b4"/>
     <use xlink:href="#mc2695a5235" x="348.709091" y="369.36" style="fill: #1f77b4; stroke: #1f77b4"/>
     <use xlink:href="#mc2695a5235" x="350.158442" y="363.700481" style="fill: #1f77b4; stroke: #1f77b4"/>
     <use xlink:href="#mc2695a5235" x="351.607792" y="369.014385" style="fill: #1f77b4; stroke: #1f77b4"/>
     <use xlink:href="#mc2695a5235" x="353.057143" y="355.150174" style="fill: #1f77b4; stroke: #1f77b4"/>
     <use xlink:href="#mc2695a5235" x="354.506494" y="354.465564" style="fill: #1f77b4; stroke: #1f77b4"/>
     <use xlink:href="#mc2695a5235" x="355.955844" y="364.250748" style="fill: #1f77b4; stroke: #1f77b4"/>
     <use xlink:href="#mc2695a5235" x="357.405195" y="359.466995" style="fill: #1f77b4; stroke: #1f77b4"/>
     <use xlink:href="#mc2695a5235" x="358.854545" y="360.108336" style="fill: #1f77b4; stroke: #1f77b4"/>
     <use xlink:href="#mc2695a5235" x="360.303896" y="348.384604" style="fill: #1f77b4; stroke: #1f77b4"/>
     <use xlink:href="#mc2695a5235" x="361.753247" y="333.283229" style="fill: #1f77b4; stroke: #1f77b4"/>
     <use xlink:href="#mc2695a5235" x="363.202597" y="341.311078" style="fill: #1f77b4; stroke: #1f77b4"/>
     <use xlink:href="#mc2695a5235" x="364.651948" y="326.360809" style="fill: #1f77b4; stroke: #1f77b4"/>
     <use xlink:href="#mc2695a5235" x="366.101299" y="313.920425" style="fill: #1f77b4; stroke: #1f77b4"/>
     <use xlink:href="#mc2695a5235" x="367.550649" y="318.423335" style="fill: #1f77b4; stroke: #1f77b4"/>
     <use xlink:href="#mc2695a5235" x="369" y="307.613972" style="fill: #1f77b4; stroke: #1f77b4"/>
     <use xlink:href="#mc2695a5235" x="370.449351" y="298.028156" style="fill: #1f77b4; stroke: #1f77b4"/>
     <use xlink:href="#mc2695a5235" x="371.898701" y="317.948155" style="fill: #1f77b4; stroke: #1f77b4"/>
     <use xlink:href="#mc2695a5235" x="373.348052" y="336.012341" style="fill: #1f77b4; stroke: #1f77b4"/>
     <use xlink:href="#mc2695a5235" x="374.797403" y="326.469767" style="fill: #1f77b4; stroke: #1f77b4"/>
     <use xlink:href="#mc2695a5235" x="376.246753" y="329.509273" style="fill: #1f77b4; stroke: #1f77b4"/>
     <use xlink:href="#mc2695a5235" x="377.696104" y="355.404245" style="fill: #1f77b4; stroke: #1f77b4"/>
     <use xlink:href="#mc2695a5235" x="379.145455" y="365.02507" style="fill: #1f77b4; stroke: #1f77b4"/>
     <use xlink:href="#mc2695a5235" x="380.594805" y="342.95041" style="fill: #1f77b4; stroke: #1f77b4"/>
     <use xlink:href="#mc2695a5235" x="382.044156" y="352.268672" style="fill: #1f77b4; stroke: #1f77b4"/>
     <use xlink:href="#mc2695a5235" x="383.493506" y="357.309095" style="fill: #1f77b4; stroke: #1f77b4"/>
     <use xlink:href="#mc2695a5235" x="384.942857" y="353.832847" style="fill: #1f77b4; stroke: #1f77b4"/>
     <use xlink:href="#mc2695a5235" x="386.392208" y="350.153017" style="fill: #1f77b4; stroke: #1f77b4"/>
     <use xlink:href="#mc2695a5235" x="387.841558" y="339.535568" style="fill: #1f77b4; stroke: #1f77b4"/>
     <use xlink:href="#mc2695a5235" x="389.290909" y="330.164466" style="fill: #1f77b4; stroke: #1f77b4"/>
     <use xlink:href="#mc2695a5235" x="390.74026" y="318.125663" style="fill: #1f77b4; stroke: #1f77b4"/>
     <use xlink:href="#mc2695a5235" x="392.18961" y="280.960956" style="fill: #1f77b4; stroke: #1f77b4"/>
     <use xlink:href="#mc2695a5235" x="393.638961" y="287.040179" style="fill: #1f77b4; stroke: #1f77b4"/>
     <use xlink:href="#mc2695a5235" x="395.088312" y="264.872307" style="fill: #1f77b4; stroke: #1f77b4"/>
     <use xlink:href="#mc2695a5235" x="396.537662" y="263.234746" style="fill: #1f77b4; stroke: #1f77b4"/>
     <use xlink:href="#mc2695a5235" x="397.987013" y="249.893135" style="fill: #1f77b4; stroke: #1f77b4"/>
     <use xlink:href="#mc2695a5235" x="399.436364" y="226.1271" style="fill: #1f77b4; stroke: #1f77b4"/>
     <use xlink:href="#mc2695a5235" x="400.885714" y="218.458512" style="fill: #1f77b4; stroke: #1f77b4"/>
     <use xlink:href="#mc2695a5235" x="402.335065" y="201.492952" style="fill: #1f77b4; stroke: #1f77b4"/>
     <use xlink:href="#mc2695a5235" x="403.784416" y="221.733267" style="fill: #1f77b4; stroke: #1f77b4"/>
     <use xlink:href="#mc2695a5235" x="405.233766" y="210.069309" style="fill: #1f77b4; stroke: #1f77b4"/>
     <use xlink:href="#mc2695a5235" x="406.683117" y="183.181321" style="fill: #1f77b4; stroke: #1f77b4"/>
     <use xlink:href="#mc2695a5235" x="408.132468" y="201.262922" style="fill: #1f77b4; stroke: #1f77b4"/>
     <use xlink:href="#mc2695a5235" x="409.581818" y="178.806078" style="fill: #1f77b4; stroke: #1f77b4"/>
     <use xlink:href="#mc2695a5235" x="411.031169" y="194.436868" style="fill: #1f77b4; stroke: #1f77b4"/>
     <use xlink:href="#mc2695a5235" x="412.480519" y="159.586149" style="fill: #1f77b4; stroke: #1f77b4"/>
     <use xlink:href="#mc2695a5235" x="413.92987" y="165.451265" style="fill: #1f77b4; stroke: #1f77b4"/>
     <use xlink:href="#mc2695a5235" x="415.379221" y="170.214859" style="fill: #1f77b4; stroke: #1f77b4"/>
     <use xlink:href="#mc2695a5235" x="416.828571" y="154.432256" style="fill: #1f77b4; stroke: #1f77b4"/>
     <use xlink:href="#mc2695a5235" x="418.277922" y="169.615383" style="fill: #1f77b4; stroke: #1f77b4"/>
     <use xlink:href="#mc2695a5235" x="419.727273" y="176.150748" style="fill: #1f77b4; stroke: #1f77b4"/>
     <use xlink:href="#mc2695a5235" x="421.176623" y="148.508822" style="fill: #1f77b4; stroke: #1f77b4"/>
     <use xlink:href="#mc2695a5235" x="422.625974" y="174.672533" style="fill: #1f77b4; stroke: #1f77b4"/>
     <use xlink:href="#mc2695a5235" x="424.075325" y="163.573439" style="fill: #1f77b4; stroke: #1f77b4"/>
     <use xlink:href="#mc2695a5235" x="425.524675" y="140.957263" style="fill: #1f77b4; stroke: #1f77b4"/>
     <use xlink:href="#mc2695a5235" x="426.974026" y="152.243833" style="fill: #1f77b4; stroke: #1f77b4"/>
     <use xlink:href="#mc2695a5235" x="428.423377" y="140.833976" style="fill: #1f77b4; stroke: #1f77b4"/>
     <use xlink:href="#mc2695a5235" x="429.872727" y="147.924604" style="fill: #1f77b4; stroke: #1f77b4"/>
     <use xlink:href="#mc2695a5235" x="431.322078" y="151.1524" style="fill: #1f77b4; stroke: #1f77b4"/>
     <use xlink:href="#mc2695a5235" x="432.771429" y="144.410691" style="fill: #1f77b4; stroke: #1f77b4"/>
     <use xlink:href="#mc2695a5235" x="434.220779" y="120.208455" style="fill: #1f77b4; stroke: #1f77b4"/>
     <use xlink:href="#mc2695a5235" x="435.67013" y="128.588689" style="fill: #1f77b4; stroke: #1f77b4"/>
     <use xlink:href="#mc2695a5235" x="437.119481" y="144.448461" style="fill: #1f77b4; stroke: #1f77b4"/>
     <use xlink:href="#mc2695a5235" x="438.568831" y="144.968227" style="fill: #1f77b4; stroke: #1f77b4"/>
     <use xlink:href="#mc2695a5235" x="440.018182" y="125.00222" style="fill: #1f77b4; stroke: #1f77b4"/>
     <use xlink:href="#mc2695a5235" x="441.467532" y="118.837021" style="fill: #1f77b4; stroke: #1f77b4"/>
     <use xlink:href="#mc2695a5235" x="442.916883" y="118.710922" style="fill: #1f77b4; stroke: #1f77b4"/>
     <use xlink:href="#mc2695a5235" x="444.366234" y="129.432669" style="fill: #1f77b4; stroke: #1f77b4"/>
     <use xlink:href="#mc2695a5235" x="445.815584" y="128.115785" style="fill: #1f77b4; stroke: #1f77b4"/>
     <use xlink:href="#mc2695a5235" x="447.264935" y="144.099712" style="fill: #1f77b4; stroke: #1f77b4"/>
     <use xlink:href="#mc2695a5235" x="448.714286" y="123.582688" style="fill: #1f77b4; stroke: #1f77b4"/>
     <use xlink:href="#mc2695a5235" x="450.163636" y="121.177601" style="fill: #1f77b4; stroke: #1f77b4"/>
     <use xlink:href="#mc2695a5235" x="451.612987" y="130.903768" style="fill: #1f77b4; stroke: #1f77b4"/>
     <use xlink:href="#mc2695a5235" x="453.062338" y="120.066711" style="fill: #1f77b4; stroke: #1f77b4"/>
     <use xlink:href="#mc2695a5235" x="454.511688" y="122.71615" style="fill: #1f77b4; stroke: #1f77b4"/>
     <use xlink:href="#mc2695a5235" x="455.961039" y="122.484553" style="fill: #1f77b4; stroke: #1f77b4"/>
     <use xlink:href="#mc2695a5235" x="457.41039" y="112.316856" style="fill: #1f77b4; stroke: #1f77b4"/>
     <use xlink:href="#mc2695a5235" x="458.85974" y="125.005317" style="fill: #1f77b4; stroke: #1f77b4"/>
     <use xlink:href="#mc2695a5235" x="460.309091" y="117.175769" style="fill: #1f77b4; stroke: #1f77b4"/>
     <use xlink:href="#mc2695a5235" x="461.758442" y="123.68026" style="fill: #1f77b4; stroke: #1f77b4"/>
     <use xlink:href="#mc2695a5235" x="463.207792" y="110.854622" style="fill: #1f77b4; stroke: #1f77b4"/>
     <use xlink:href="#mc2695a5235" x="464.657143" y="117.686278" style="fill: #1f77b4; stroke: #1f77b4"/>
     <use xlink:href="#mc2695a5235" x="466.106494" y="113.456352" style="fill: #1f77b4; stroke: #1f77b4"/>
     <use xlink:href="#mc2695a5235" x="467.555844" y="116.797251" style="fill: #1f77b4; stroke: #1f77b4"/>
     <use xlink:href="#mc2695a5235" x="469.005195" y="99.489496" style="fill: #1f77b4; stroke: #1f77b4"/>
     <use xlink:href="#mc2695a5235" x="470.454545" y="119.639401" style="fill: #1f77b4; stroke: #1f77b4"/>
     <use xlink:href="#mc2695a5235" x="471.903896" y="108.207198" style="fill: #1f77b4; stroke: #1f77b4"/>
     <use xlink:href="#mc2695a5235" x="473.353247" y="120.989831" style="fill: #1f77b4; stroke: #1f77b4"/>
     <use xlink:href="#mc2695a5235" x="474.802597" y="100.989885" style="fill: #1f77b4; stroke: #1f77b4"/>
     <use xlink:href="#mc2695a5235" x="476.251948" y="119.43051" style="fill: #1f77b4; stroke: #1f77b4"/>
     <use xlink:href="#mc2695a5235" x="477.701299" y="95.411114" style="fill: #1f77b4; stroke: #1f77b4"/>
     <use xlink:href="#mc2695a5235" x="479.150649" y="119.060948" style="fill: #1f77b4; stroke: #1f77b4"/>
     <use xlink:href="#mc2695a5235" x="480.6" y="95.693981" style="fill: #1f77b4; stroke: #1f77b4"/>
     <use xlink:href="#mc2695a5235" x="482.049351" y="116.703483" style="fill: #1f77b4; stroke: #1f77b4"/>
     <use xlink:href="#mc2695a5235" x="483.498701" y="114.007252" style="fill: #1f77b4; stroke: #1f77b4"/>
     <use xlink:href="#mc2695a5235" x="484.948052" y="101.452975" style="fill: #1f77b4; stroke: #1f77b4"/>
     <use xlink:href="#mc2695a5235" x="486.397403" y="104.726547" style="fill: #1f77b4; stroke: #1f77b4"/>
     <use xlink:href="#mc2695a5235" x="487.846753" y="104.619982" style="fill: #1f77b4; stroke: #1f77b4"/>
     <use xlink:href="#mc2695a5235" x="489.296104" y="107.867056" style="fill: #1f77b4; stroke: #1f77b4"/>
     <use xlink:href="#mc2695a5235" x="490.745455" y="109.697948" style="fill: #1f77b4; stroke: #1f77b4"/>
     <use xlink:href="#mc2695a5235" x="492.194805" y="112.622497" style="fill: #1f77b4; stroke: #1f77b4"/>
     <use xlink:href="#mc2695a5235" x="493.644156" y="93.008467" style="fill: #1f77b4; stroke: #1f77b4"/>
     <use xlink:href="#mc2695a5235" x="495.093506" y="109.917695" style="fill: #1f77b4; stroke: #1f77b4"/>
     <use xlink:href="#mc2695a5235" x="496.542857" y="109.49462" style="fill: #1f77b4; stroke: #1f77b4"/>
     <use xlink:href="#mc2695a5235" x="497.992208" y="101.180998" style="fill: #1f77b4; stroke: #1f77b4"/>
     <use xlink:href="#mc2695a5235" x="499.441558" y="109.502735" style="fill: #1f77b4; stroke: #1f77b4"/>
     <use xlink:href="#mc2695a5235" x="500.890909" y="95.885753" style="fill: #1f77b4; stroke: #1f77b4"/>
     <use xlink:href="#mc2695a5235" x="502.34026" y="92.183005" style="fill: #1f77b4; stroke: #1f77b4"/>
     <use xlink:href="#mc2695a5235" x="503.78961" y="94.948897" style="fill: #1f77b4; stroke: #1f77b4"/>
     <use xlink:href="#mc2695a5235" x="505.238961" y="113.415873" style="fill: #1f77b4; stroke: #1f77b4"/>
     <use xlink:href="#mc2695a5235" x="506.688312" y="88.057844" style="fill: #1f77b4; stroke: #1f77b4"/>
     <use xlink:href="#mc2695a5235" x="508.137662" y="87.319801" style="fill: #1f77b4; stroke: #1f77b4"/>
     <use xlink:href="#mc2695a5235" x="509.587013" y="104.876812" style="fill: #1f77b4; stroke: #1f77b4"/>
     <use xlink:href="#mc2695a5235" x="511.036364" y="102.914661" style="fill: #1f77b4; stroke: #1f77b4"/>
     <use xlink:href="#mc2695a5235" x="512.485714" y="93.116205" style="fill: #1f77b4; stroke: #1f77b4"/>
     <use xlink:href="#mc2695a5235" x="513.935065" y="102.824491" style="fill: #1f77b4; stroke: #1f77b4"/>
     <use xlink:href="#mc2695a5235" x="515.384416" y="74.231538" style="fill: #1f77b4; stroke: #1f77b4"/>
     <use xlink:href="#mc2695a5235" x="516.833766" y="93.401126" style="fill: #1f77b4; stroke: #1f77b4"/>
     <use xlink:href="#mc2695a5235" x="518.283117" y="84.445887" style="fill: #1f77b4; stroke: #1f77b4"/>
     <use xlink:href="#mc2695a5235" x="519.732468" y="99.635937" style="fill: #1f77b4; stroke: #1f77b4"/>
     <use xlink:href="#mc2695a5235" x="521.181818" y="85.249678" style="fill: #1f77b4; stroke: #1f77b4"/>
     <use xlink:href="#mc2695a5235" x="522.631169" y="95.819176" style="fill: #1f77b4; stroke: #1f77b4"/>
     <use xlink:href="#mc2695a5235" x="524.080519" y="94.881331" style="fill: #1f77b4; stroke: #1f77b4"/>
     <use xlink:href="#mc2695a5235" x="525.52987" y="94.716961" style="fill: #1f77b4; stroke: #1f77b4"/>
     <use xlink:href="#mc2695a5235" x="526.979221" y="95.000487" style="fill: #1f77b4; stroke: #1f77b4"/>
     <use xlink:href="#mc2695a5235" x="528.428571" y="103.721872" style="fill: #1f77b4; stroke: #1f77b4"/>
     <use xlink:href="#mc2695a5235" x="529.877922" y="91.34801" style="fill: #1f77b4; stroke: #1f77b4"/>
     <use xlink:href="#mc2695a5235" x="531.327273" y="111.252603" style="fill: #1f77b4; stroke: #1f77b4"/>
     <use xlink:href="#mc2695a5235" x="532.776623" y="91.913916" style="fill: #1f77b4; stroke: #1f77b4"/>
     <use xlink:href="#mc2695a5235" x="534.225974" y="91.296838" style="fill: #1f77b4; stroke: #1f77b4"/>
     <use xlink:href="#mc2695a5235" x="535.675325" y="118.284644" style="fill: #1f77b4; stroke: #1f77b4"/>
     <use xlink:href="#mc2695a5235" x="537.124675" y="91.819974" style="fill: #1f77b4; stroke: #1f77b4"/>
     <use xlink:href="#mc2695a5235" x="538.574026" y="98.59216" style="fill: #1f77b4; stroke: #1f77b4"/>
     <use xlink:href="#mc2695a5235" x="540.023377" y="89.251651" style="fill: #1f77b4; stroke: #1f77b4"/>
     <use xlink:href="#mc2695a5235" x="541.472727" y="90.087642" style="fill: #1f77b4; stroke: #1f77b4"/>
     <use xlink:href="#mc2695a5235" x="542.922078" y="97.57604" style="fill: #1f77b4; stroke: #1f77b4"/>
     <use xlink:href="#mc2695a5235" x="544.371429" y="84.822905" style="fill: #1f77b4; stroke: #1f77b4"/>
     <use xlink:href="#mc2695a5235" x="545.820779" y="112.999363" style="fill: #1f77b4; stroke: #1f77b4"/>
     <use xlink:href="#mc2695a5235" x="547.27013" y="98.163378" style="fill: #1f77b4; stroke: #1f77b4"/>
     <use xlink:href="#mc2695a5235" x="548.719481" y="88.897239" style="fill: #1f77b4; stroke: #1f77b4"/>
     <use xlink:href="#mc2695a5235" x="550.168831" y="112.949429" style="fill: #1f77b4; stroke: #1f77b4"/>
     <use xlink:href="#mc2695a5235" x="551.618182" y="95.031562" style="fill: #1f77b4; stroke: #1f77b4"/>
     <use xlink:href="#mc2695a5235" x="553.067532" y="97.093514" style="fill: #1f77b4; stroke: #1f77b4"/>
     <use xlink:href="#mc2695a5235" x="554.516883" y="101.917101" style="fill: #1f77b4; stroke: #1f77b4"/>
     <use xlink:href="#mc2695a5235" x="555.966234" y="98.964349" style="fill: #1f77b4; stroke: #1f77b4"/>
     <use xlink:href="#mc2695a5235" x="557.415584" y="85.598211" style="fill: #1f77b4; stroke: #1f77b4"/>
     <use xlink:href="#mc2695a5235" x="558.864935" y="92.571314" style="fill: #1f77b4; stroke: #1f77b4"/>
     <use xlink:href="#mc2695a5235" x="560.314286" y="98.64925" style="fill: #1f77b4; stroke: #1f77b4"/>
     <use xlink:href="#mc2695a5235" x="561.763636" y="89.625188" style="fill: #1f77b4; stroke: #1f77b4"/>
     <use xlink:href="#mc2695a5235" x="563.212987" y="94.407228" style="fill: #1f77b4; stroke: #1f77b4"/>
     <use xlink:href="#mc2695a5235" x="564.662338" y="107.121341" style="fill: #1f77b4; stroke: #1f77b4"/>
     <use xlink:href="#mc2695a5235" x="566.111688" y="73.013404" style="fill: #1f77b4; stroke: #1f77b4"/>
     <use xlink:href="#mc2695a5235" x="567.561039" y="95.551716" style="fill: #1f77b4; stroke: #1f77b4"/>
     <use xlink:href="#mc2695a5235" x="569.01039" y="103.125538" style="fill: #1f77b4; stroke: #1f77b4"/>
     <use xlink:href="#mc2695a5235" x="570.45974" y="97.576602" style="fill: #1f77b4; stroke: #1f77b4"/>
     <use xlink:href="#mc2695a5235" x="571.909091" y="89.877434" style="fill: #1f77b4; stroke: #1f77b4"/>
     <use xlink:href="#mc2695a5235" x="573.358442" y="86.258974" style="fill: #1f77b4; stroke: #1f77b4"/>
     <use xlink:href="#mc2695a5235" x="574.807792" y="100.958582" style="fill: #1f77b4; stroke: #1f77b4"/>
     <use xlink:href="#mc2695a5235" x="576.257143" y="92.345189" style="fill: #1f77b4; stroke: #1f77b4"/>
     <use xlink:href="#mc2695a5235" x="577.706494" y="83.985326" style="fill: #1f77b4; stroke: #1f77b4"/>
     <use xlink:href="#mc2695a5235" x="579.155844" y="95.910094" style="fill: #1f77b4; stroke: #1f77b4"/>
     <use xlink:href="#mc2695a5235" x="580.605195" y="104.389737" style="fill: #1f77b4; stroke: #1f77b4"/>
     <use xlink:href="#mc2695a5235" x="582.054545" y="83.610109" style="fill: #1f77b4; stroke: #1f77b4"/>
     <use xlink:href="#mc2695a5235" x="583.503896" y="91.377382" style="fill: #1f77b4; stroke: #1f77b4"/>
     <use xlink:href="#mc2695a5235" x="584.953247" y="94.118005" style="fill: #1f77b4; stroke: #1f77b4"/>
     <use xlink:href="#mc2695a5235" x="586.402597" y="85.53132" style="fill: #1f77b4; stroke: #1f77b4"/>
     <use xlink:href="#mc2695a5235" x="587.851948" y="103.955103" style="fill: #1f77b4; stroke: #1f77b4"/>
     <use xlink:href="#mc2695a5235" x="589.301299" y="79.198123" style="fill: #1f77b4; stroke: #1f77b4"/>
     <use xlink:href="#mc2695a5235" x="590.750649" y="101.196728" style="fill: #1f77b4; stroke: #1f77b4"/>
     <use xlink:href="#mc2695a5235" x="592.2" y="89.567121" style="fill: #1f77b4; stroke: #1f77b4"/>
     <use xlink:href="#mc2695a5235" x="593.649351" y="90.794009" style="fill: #1f77b4; stroke: #1f77b4"/>
     <use xlink:href="#mc2695a5235" x="595.098701" y="91.761611" style="fill: #1f77b4; stroke: #1f77b4"/>
     <use xlink:href="#mc2695a5235" x="596.548052" y="86.515586" style="fill: #1f77b4; stroke: #1f77b4"/>
     <use xlink:href="#mc2695a5235" x="597.997403" y="90.97402" style="fill: #1f77b4; stroke: #1f77b4"/>
     <use xlink:href="#mc2695a5235" x="599.446753" y="86.317057" style="fill: #1f77b4; stroke: #1f77b4"/>
     <use xlink:href="#mc2695a5235" x="600.896104" y="97.9718" style="fill: #1f77b4; stroke: #1f77b4"/>
     <use xlink:href="#mc2695a5235" x="602.345455" y="109.177599" style="fill: #1f77b4; stroke: #1f77b4"/>
     <use xlink:href="#mc2695a5235" x="603.794805" y="82.709083" style="fill: #1f77b4; stroke: #1f77b4"/>
     <use xlink:href="#mc2695a5235" x="605.244156" y="81.808931" style="fill: #1f77b4; stroke: #1f77b4"/>
     <use xlink:href="#mc2695a5235" x="606.693506" y="95.632639" style="fill: #1f77b4; stroke: #1f77b4"/>
     <use xlink:href="#mc2695a5235" x="608.142857" y="93.322144" style="fill: #1f77b4; stroke: #1f77b4"/>
     <use xlink:href="#mc2695a5235" x="609.592208" y="101.088492" style="fill: #1f77b4; stroke: #1f77b4"/>
     <use xlink:href="#mc2695a5235" x="611.041558" y="104.925345" style="fill: #1f77b4; stroke: #1f77b4"/>
     <use xlink:href="#mc2695a5235" x="612.490909" y="95.513045" style="fill: #1f77b4; stroke: #1f77b4"/>
     <use xlink:href="#mc2695a5235" x="613.94026" y="100.632129" style="fill: #1f77b4; stroke: #1f77b4"/>
     <use xlink:href="#mc2695a5235" x="615.38961" y="107.87741" style="fill: #1f77b4; stroke: #1f77b4"/>
     <use xlink:href="#mc2695a5235" x="616.838961" y="97.489603" style="fill: #1f77b4; stroke: #1f77b4"/>
     <use xlink:href="#mc2695a5235" x="618.288312" y="107.253522" style="fill: #1f77b4; stroke: #1f77b4"/>
     <use xlink:href="#mc2695a5235" x="619.737662" y="96.301121" style="fill: #1f77b4; stroke: #1f77b4"/>
     <use xlink:href="#mc2695a5235" x="621.187013" y="75.319378" style="fill: #1f77b4; stroke: #1f77b4"/>
     <use xlink:href="#mc2695a5235" x="622.636364" y="92.578076" style="fill: #1f77b4; stroke: #1f77b4"/>
    </g>
   </g>
   <g id="line2d_16">
    <path d="M 115.363636 94.645475 
L 137.103896 95.389955 
L 155.945455 96.256101 
L 170.438961 97.125189 
L 183.483117 98.120553 
L 195.077922 99.238995 
L 205.223377 100.463509 
L 213.919481 101.757943 
L 221.166234 103.062883 
L 226.963636 104.295228 
L 232.761039 105.736818 
L 238.558442 107.438886 
L 242.906494 108.926521 
L 247.254545 110.635632 
L 251.602597 112.613241 
L 255.950649 114.919559 
L 258.849351 116.67733 
L 261.748052 118.64415 
L 264.646753 120.854694 
L 267.545455 123.350985 
L 270.444156 126.184246 
L 273.342857 129.417268 
L 276.241558 133.127432 
L 279.14026 137.410521 
L 282.038961 142.385482 
L 284.937662 148.200179 
L 286.387013 151.478149 
L 287.836364 155.037948 
L 289.285714 158.909126 
L 290.735065 163.124185 
L 292.184416 167.718627 
L 293.633766 172.730833 
L 295.083117 178.201711 
L 296.532468 184.173987 
L 297.981818 190.69098 
L 299.431169 197.794644 
L 300.880519 205.52262 
L 302.32987 213.903987 
L 305.228571 232.663264 
L 308.127273 253.863463 
L 313.924675 298.969561 
L 315.374026 309.140878 
L 316.823377 318.102964 
L 318.272727 325.484624 
L 319.722078 331.003052 
L 321.171429 334.513452 
L 322.620779 336.039133 
L 324.07013 335.772743 
L 325.519481 334.048251 
L 326.968831 331.292377 
L 331.316883 321.378491 
L 332.766234 318.848737 
L 334.215584 317.198655 
L 335.664935 316.610256 
L 337.114286 317.193945 
L 338.563636 318.99263 
L 340.012987 321.983467 
L 341.462338 326.076468 
L 342.911688 331.110689 
L 345.81039 342.983229 
L 348.709091 354.862159 
L 350.158442 359.739216 
L 351.607792 363.357247 
L 353.057143 365.404932 
L 354.506494 365.712831 
L 355.955844 364.282644 
L 357.405195 361.287314 
L 358.854545 357.041881 
L 361.753247 346.467905 
L 364.651948 335.97288 
L 366.101299 331.652902 
L 367.550649 328.282142 
L 369 326.006759 
L 370.449351 324.893084 
L 371.898701 324.92938 
L 373.348052 326.025632 
L 374.797403 328.011454 
L 376.246753 330.633999 
L 379.145455 336.382698 
L 380.594805 338.649976 
L 382.044156 339.896558 
L 383.493506 339.697676 
L 384.942857 337.724366 
L 386.392208 333.791366 
L 387.841558 327.883606 
L 389.290909 320.15311 
L 390.74026 310.887357 
L 393.638961 289.270162 
L 399.436364 243.766436 
L 402.335065 223.601822 
L 405.233766 206.087859 
L 406.683117 198.327426 
L 408.132468 191.195351 
L 409.581818 184.652983 
L 411.031169 178.65765 
L 412.480519 173.16553 
L 413.92987 168.133544 
L 415.379221 163.520535 
L 416.828571 159.28795 
L 419.727273 151.824593 
L 422.625974 145.494456 
L 425.524675 140.093565 
L 428.423377 135.456909 
L 431.322078 131.451646 
L 434.220779 127.970876 
L 437.119481 124.928371 
L 440.018182 122.254298 
L 442.916883 119.891825 
L 445.815584 117.794442 
L 448.714286 115.923868 
L 451.612987 114.248411 
L 455.961039 112.044547 
L 460.309091 110.149535 
L 464.657143 108.507715 
L 469.005195 107.075431 
L 474.802597 105.432873 
L 480.6 104.038368 
L 487.846753 102.571828 
L 495.093506 101.348213 
L 503.78961 100.12904 
L 513.935065 98.970494 
L 525.52987 97.907601 
L 538.574026 96.957663 
L 553.067532 96.124953 
L 570.45974 95.347917 
L 592.2 94.61454 
L 618.288312 93.969299 
L 622.636364 93.880158 
L 622.636364 93.880158 
" clip-path="url(#p3d1fa14efd)" style="fill: none; stroke-dasharray: 5.55,2.4; stroke-dashoffset: 0; stroke: #000000; stroke-width: 1.5"/>
   </g>
   <g id="patch_3">
    <path d="M 90 384.48 
L 90 51.84 
" style="fill: none; stroke: #000000; stroke-width: 0.8; stroke-linejoin: miter; stroke-linecap: square"/>
   </g>
   <g id="patch_4">
    <path d="M 648 384.48 
L 648 51.84 
" style="fill: none; stroke: #000000; stroke-width: 0.8; stroke-linejoin: miter; stroke-linecap: square"/>
   </g>
   <g id="patch_5">
    <path d="M 90 384.48 
L 648 384.48 
" style="fill: none; stroke: #000000; stroke-width: 0.8; stroke-linejoin: miter; stroke-linecap: square"/>
   </g>
   <g id="patch_6">
    <path d="M 90 51.84 
L 648 51.84 
" style="fill: none; stroke: #000000; stroke-width: 0.8; stroke-linejoin: miter; stroke-linecap: square"/>
   </g>
   <g id="text_17">
    <!-- RF Power = -25, Line Width = 1.26 MHz -->
    <g transform="translate(250.095937 45.84) scale(0.12 -0.12)">
     <defs>
      <path id="DejaVuSans-52" d="M 2841 2188 
Q 3044 2119 3236 1894 
Q 3428 1669 3622 1275 
L 4263 0 
L 3584 0 
L 2988 1197 
Q 2756 1666 2539 1819 
Q 2322 1972 1947 1972 
L 1259 1972 
L 1259 0 
L 628 0 
L 628 4666 
L 2053 4666 
Q 2853 4666 3247 4331 
Q 3641 3997 3641 3322 
Q 3641 2881 3436 2590 
Q 3231 2300 2841 2188 
z
M 1259 4147 
L 1259 2491 
L 2053 2491 
Q 2509 2491 2742 2702 
Q 2975 2913 2975 3322 
Q 2975 3731 2742 3939 
Q 2509 4147 2053 4147 
L 1259 4147 
z
" transform="scale(0.015625)"/>
      <path id="DejaVuSans-46" d="M 628 4666 
L 3309 4666 
L 3309 4134 
L 1259 4134 
L 1259 2759 
L 3109 2759 
L 3109 2228 
L 1259 2228 
L 1259 0 
L 628 0 
L 628 4666 
z
" transform="scale(0.015625)"/>
      <path id="DejaVuSans-50" d="M 1259 4147 
L 1259 2394 
L 2053 2394 
Q 2494 2394 2734 2622 
Q 2975 2850 2975 3272 
Q 2975 3691 2734 3919 
Q 2494 4147 2053 4147 
L 1259 4147 
z
M 628 4666 
L 2053 4666 
Q 2838 4666 3239 4311 
Q 3641 3956 3641 3272 
Q 3641 2581 3239 2228 
Q 2838 1875 2053 1875 
L 1259 1875 
L 1259 0 
L 628 0 
L 628 4666 
z
" transform="scale(0.015625)"/>
      <path id="DejaVuSans-77" d="M 269 3500 
L 844 3500 
L 1563 769 
L 2278 3500 
L 2956 3500 
L 3675 769 
L 4391 3500 
L 4966 3500 
L 4050 0 
L 3372 0 
L 2619 2869 
L 1863 0 
L 1184 0 
L 269 3500 
z
" transform="scale(0.015625)"/>
      <path id="DejaVuSans-3d" d="M 678 2906 
L 4684 2906 
L 4684 2381 
L 678 2381 
L 678 2906 
z
M 678 1631 
L 4684 1631 
L 4684 1100 
L 678 1100 
L 678 1631 
z
" transform="scale(0.015625)"/>
      <path id="DejaVuSans-2d" d="M 313 2009 
L 1997 2009 
L 1997 1497 
L 313 1497 
L 313 2009 
z
" transform="scale(0.015625)"/>
      <path id="DejaVuSans-2c" d="M 750 794 
L 1409 794 
L 1409 256 
L 897 -744 
L 494 -744 
L 750 256 
L 750 794 
z
" transform="scale(0.015625)"/>
      <path id="DejaVuSans-4c" d="M 628 4666 
L 1259 4666 
L 1259 531 
L 3531 531 
L 3531 0 
L 628 0 
L 628 4666 
z
" transform="scale(0.015625)"/>
      <path id="DejaVuSans-69" d="M 603 3500 
L 1178 3500 
L 1178 0 
L 603 0 
L 603 3500 
z
M 603 4863 
L 1178 4863 
L 1178 4134 
L 603 4134 
L 603 4863 
z
" transform="scale(0.015625)"/>
      <path id="DejaVuSans-57" d="M 213 4666 
L 850 4666 
L 1831 722 
L 2809 4666 
L 3519 4666 
L 4500 722 
L 5478 4666 
L 6119 4666 
L 4947 0 
L 4153 0 
L 3169 4050 
L 2175 0 
L 1381 0 
L 213 4666 
z
" transform="scale(0.015625)"/>
      <path id="DejaVuSans-64" d="M 2906 2969 
L 2906 4863 
L 3481 4863 
L 3481 0 
L 2906 0 
L 2906 525 
Q 2725 213 2448 61 
Q 2172 -91 1784 -91 
Q 1150 -91 751 415 
Q 353 922 353 1747 
Q 353 2572 751 3078 
Q 1150 3584 1784 3584 
Q 2172 3584 2448 3432 
Q 2725 3281 2906 2969 
z
M 947 1747 
Q 947 1113 1208 752 
Q 1469 391 1925 391 
Q 2381 391 2643 752 
Q 2906 1113 2906 1747 
Q 2906 2381 2643 2742 
Q 2381 3103 1925 3103 
Q 1469 3103 1208 2742 
Q 947 2381 947 1747 
z
" transform="scale(0.015625)"/>
      <path id="DejaVuSans-68" d="M 3513 2113 
L 3513 0 
L 2938 0 
L 2938 2094 
Q 2938 2591 2744 2837 
Q 2550 3084 2163 3084 
Q 1697 3084 1428 2787 
Q 1159 2491 1159 1978 
L 1159 0 
L 581 0 
L 581 4863 
L 1159 4863 
L 1159 2956 
Q 1366 3272 1645 3428 
Q 1925 3584 2291 3584 
Q 2894 3584 3203 3211 
Q 3513 2838 3513 2113 
z
" transform="scale(0.015625)"/>
     </defs>
     <use xlink:href="#DejaVuSans-52"/>
     <use xlink:href="#DejaVuSans-46" x="69.482422"/>
     <use xlink:href="#DejaVuSans-20" x="127.001953"/>
     <use xlink:href="#DejaVuSans-50" x="158.789062"/>
     <use xlink:href="#DejaVuSans-6f" x="215.466797"/>
     <use xlink:href="#DejaVuSans-77" x="276.648438"/>
     <use xlink:href="#DejaVuSans-65" x="358.435547"/>
     <use xlink:href="#DejaVuSans-72" x="419.958984"/>
     <use xlink:href="#DejaVuSans-20" x="461.072266"/>
     <use xlink:href="#DejaVuSans-3d" x="492.859375"/>
     <use xlink:href="#DejaVuSans-20" x="576.648438"/>
     <use xlink:href="#DejaVuSans-2d" x="608.435547"/>
     <use xlink:href="#DejaVuSans-32" x="644.519531"/>
     <use xlink:href="#DejaVuSans-35" x="708.142578"/>
     <use xlink:href="#DejaVuSans-2c" x="771.765625"/>
     <use xlink:href="#DejaVuSans-20" x="803.552734"/>
     <use xlink:href="#DejaVuSans-4c" x="835.339844"/>
     <use xlink:href="#DejaVuSans-69" x="891.052734"/>
     <use xlink:href="#DejaVuSans-6e" x="918.835938"/>
     <use xlink:href="#DejaVuSans-65" x="982.214844"/>
     <use xlink:href="#DejaVuSans-20" x="1043.738281"/>
     <use xlink:href="#DejaVuSans-57" x="1075.525391"/>
     <use xlink:href="#DejaVuSans-69" x="1172.152344"/>
     <use xlink:href="#DejaVuSans-64" x="1199.935547"/>
     <use xlink:href="#DejaVuSans-74" x="1263.412109"/>
     <use xlink:href="#DejaVuSans-68" x="1302.621094"/>
     <use xlink:href="#DejaVuSans-20" x="1366"/>
     <use xlink:href="#DejaVuSans-3d" x="1397.787109"/>
     <use xlink:href="#DejaVuSans-20" x="1481.576172"/>
     <use xlink:href="#DejaVuSans-31" x="1513.363281"/>
     <use xlink:href="#DejaVuSans-2e" x="1576.986328"/>
     <use xlink:href="#DejaVuSans-32" x="1608.773438"/>
     <use xlink:href="#DejaVuSans-36" x="1672.396484"/>
     <use xlink:href="#DejaVuSans-20" x="1736.019531"/>
     <use xlink:href="#DejaVuSans-4d" x="1767.806641"/>
     <use xlink:href="#DejaVuSans-48" x="1854.085938"/>
     <use xlink:href="#DejaVuSans-7a" x="1929.28125"/>
    </g>
   </g>
   <g id="legend_1">
    <g id="patch_7">
     <path d="M 97 379.48 
L 152.876563 379.48 
Q 154.876563 379.48 154.876563 377.48 
L 154.876563 349.12375 
Q 154.876563 347.12375 152.876563 347.12375 
L 97 347.12375 
Q 95 347.12375 95 349.12375 
L 95 377.48 
Q 95 379.48 97 379.48 
z
" style="fill: #ffffff; opacity: 0.8; stroke: #cccccc; stroke-linejoin: miter"/>
    </g>
    <g id="line2d_17">
     <path d="M 99 355.222188 
L 109 355.222188 
L 119 355.222188 
" style="fill: none; stroke: #1f77b4; stroke-width: 1.5; stroke-linecap: square"/>
     <g>
      <use xlink:href="#mc2695a5235" x="109" y="355.222188" style="fill: #1f77b4; stroke: #1f77b4"/>
     </g>
    </g>
    <g id="text_18">
     <!-- Data -->
     <g transform="translate(127 358.722188) scale(0.1 -0.1)">
      <defs>
       <path id="DejaVuSans-44" d="M 1259 4147 
L 1259 519 
L 2022 519 
Q 2988 519 3436 956 
Q 3884 1394 3884 2338 
Q 3884 3275 3436 3711 
Q 2988 4147 2022 4147 
L 1259 4147 
z
M 628 4666 
L 1925 4666 
Q 3281 4666 3915 4102 
Q 4550 3538 4550 2338 
Q 4550 1131 3912 565 
Q 3275 0 1925 0 
L 628 0 
L 628 4666 
z
" transform="scale(0.015625)"/>
      </defs>
      <use xlink:href="#DejaVuSans-44"/>
      <use xlink:href="#DejaVuSans-61" x="77.001953"/>
      <use xlink:href="#DejaVuSans-74" x="138.28125"/>
      <use xlink:href="#DejaVuSans-61" x="177.490234"/>
     </g>
    </g>
    <g id="line2d_18">
     <path d="M 99 369.900312 
L 109 369.900312 
L 119 369.900312 
" style="fill: none; stroke-dasharray: 5.55,2.4; stroke-dashoffset: 0; stroke: #000000; stroke-width: 1.5"/>
    </g>
    <g id="text_19">
     <!-- Fit -->
     <g transform="translate(127 373.400312) scale(0.1 -0.1)">
      <use xlink:href="#DejaVuSans-46"/>
      <use xlink:href="#DejaVuSans-69" x="50.269531"/>
      <use xlink:href="#DejaVuSans-74" x="78.052734"/>
     </g>
    </g>
   </g>
  </g>
 </g>
 <defs>
  <clipPath id="p3d1fa14efd">
   <rect x="90" y="51.84" width="558" height="332.64"/>
  </clipPath>
 </defs>
</svg>
