<?xml version="1.0" encoding="utf-8" standalone="no"?>
<!DOCTYPE svg PUBLIC "-//W3C//DTD SVG 1.1//EN"
  "http://www.w3.org/Graphics/SVG/1.1/DTD/svg11.dtd">
<svg xmlns:xlink="http://www.w3.org/1999/xlink" width="720pt" height="432pt" viewBox="0 0 720 432" xmlns="http://www.w3.org/2000/svg" version="1.1">
 <metadata>
  <rdf:RDF xmlns:dc="http://purl.org/dc/elements/1.1/" xmlns:cc="http://creativecommons.org/ns#" xmlns:rdf="http://www.w3.org/1999/02/22-rdf-syntax-ns#">
   <cc:Work>
    <dc:type rdf:resource="http://purl.org/dc/dcmitype/StillImage"/>
    <dc:date>2023-03-30T12:46:15.266926</dc:date>
    <dc:format>image/svg+xml</dc:format>
    <dc:creator>
     <cc:Agent>
      <dc:title>Matplotlib v3.7.0, https://matplotlib.org/</dc:title>
     </cc:Agent>
    </dc:creator>
   </cc:Work>
  </rdf:RDF>
 </metadata>
 <defs>
  <style type="text/css">*{stroke-linejoin: round; stroke-linecap: butt}</style>
 </defs>
 <g id="figure_1">
  <g id="patch_1">
   <path d="M 0 432 
L 720 432 
L 720 0 
L 0 0 
L 0 432 
z
" style="fill: none"/>
  </g>
  <g id="axes_1">
   <g id="patch_2">
    <path d="M 90 384.48 
L 648 384.48 
L 648 51.84 
L 90 51.84 
L 90 384.48 
z
" style="fill: none"/>
   </g>
   <g id="matplotlib.axis_1">
    <g id="xtick_1">
     <g id="line2d_1">
      <defs>
       <path id="m167ce573de" d="M 0 0 
L 0 3.5 
" style="stroke: #000000; stroke-width: 0.8"/>
      </defs>
      <g>
       <use xlink:href="#m167ce573de" x="115.363636" y="384.48" style="stroke: #000000; stroke-width: 0.8"/>
      </g>
     </g>
     <g id="text_1">
      <!-- 2765 -->
      <g transform="translate(102.638636 399.078438) scale(0.1 -0.1)">
       <defs>
        <path id="DejaVuSans-32" d="M 1228 531 
L 3431 531 
L 3431 0 
L 469 0 
L 469 531 
Q 828 903 1448 1529 
Q 2069 2156 2228 2338 
Q 2531 2678 2651 2914 
Q 2772 3150 2772 3378 
Q 2772 3750 2511 3984 
Q 2250 4219 1831 4219 
Q 1534 4219 1204 4116 
Q 875 4013 500 3803 
L 500 4441 
Q 881 4594 1212 4672 
Q 1544 4750 1819 4750 
Q 2544 4750 2975 4387 
Q 3406 4025 3406 3419 
Q 3406 3131 3298 2873 
Q 3191 2616 2906 2266 
Q 2828 2175 2409 1742 
Q 1991 1309 1228 531 
z
" transform="scale(0.015625)"/>
        <path id="DejaVuSans-37" d="M 525 4666 
L 3525 4666 
L 3525 4397 
L 1831 0 
L 1172 0 
L 2766 4134 
L 525 4134 
L 525 4666 
z
" transform="scale(0.015625)"/>
        <path id="DejaVuSans-36" d="M 2113 2584 
Q 1688 2584 1439 2293 
Q 1191 2003 1191 1497 
Q 1191 994 1439 701 
Q 1688 409 2113 409 
Q 2538 409 2786 701 
Q 3034 994 3034 1497 
Q 3034 2003 2786 2293 
Q 2538 2584 2113 2584 
z
M 3366 4563 
L 3366 3988 
Q 3128 4100 2886 4159 
Q 2644 4219 2406 4219 
Q 1781 4219 1451 3797 
Q 1122 3375 1075 2522 
Q 1259 2794 1537 2939 
Q 1816 3084 2150 3084 
Q 2853 3084 3261 2657 
Q 3669 2231 3669 1497 
Q 3669 778 3244 343 
Q 2819 -91 2113 -91 
Q 1303 -91 875 529 
Q 447 1150 447 2328 
Q 447 3434 972 4092 
Q 1497 4750 2381 4750 
Q 2619 4750 2861 4703 
Q 3103 4656 3366 4563 
z
" transform="scale(0.015625)"/>
        <path id="DejaVuSans-35" d="M 691 4666 
L 3169 4666 
L 3169 4134 
L 1269 4134 
L 1269 2991 
Q 1406 3038 1543 3061 
Q 1681 3084 1819 3084 
Q 2600 3084 3056 2656 
Q 3513 2228 3513 1497 
Q 3513 744 3044 326 
Q 2575 -91 1722 -91 
Q 1428 -91 1123 -41 
Q 819 9 494 109 
L 494 744 
Q 775 591 1075 516 
Q 1375 441 1709 441 
Q 2250 441 2565 725 
Q 2881 1009 2881 1497 
Q 2881 1984 2565 2268 
Q 2250 2553 1709 2553 
Q 1456 2553 1204 2497 
Q 953 2441 691 2322 
L 691 4666 
z
" transform="scale(0.015625)"/>
       </defs>
       <use xlink:href="#DejaVuSans-32"/>
       <use xlink:href="#DejaVuSans-37" x="63.623047"/>
       <use xlink:href="#DejaVuSans-36" x="127.246094"/>
       <use xlink:href="#DejaVuSans-35" x="190.869141"/>
      </g>
     </g>
    </g>
    <g id="xtick_2">
     <g id="line2d_2">
      <g>
       <use xlink:href="#m167ce573de" x="187.831169" y="384.48" style="stroke: #000000; stroke-width: 0.8"/>
      </g>
     </g>
     <g id="text_2">
      <!-- 2770 -->
      <g transform="translate(175.106169 399.078438) scale(0.1 -0.1)">
       <defs>
        <path id="DejaVuSans-30" d="M 2034 4250 
Q 1547 4250 1301 3770 
Q 1056 3291 1056 2328 
Q 1056 1369 1301 889 
Q 1547 409 2034 409 
Q 2525 409 2770 889 
Q 3016 1369 3016 2328 
Q 3016 3291 2770 3770 
Q 2525 4250 2034 4250 
z
M 2034 4750 
Q 2819 4750 3233 4129 
Q 3647 3509 3647 2328 
Q 3647 1150 3233 529 
Q 2819 -91 2034 -91 
Q 1250 -91 836 529 
Q 422 1150 422 2328 
Q 422 3509 836 4129 
Q 1250 4750 2034 4750 
z
" transform="scale(0.015625)"/>
       </defs>
       <use xlink:href="#DejaVuSans-32"/>
       <use xlink:href="#DejaVuSans-37" x="63.623047"/>
       <use xlink:href="#DejaVuSans-37" x="127.246094"/>
       <use xlink:href="#DejaVuSans-30" x="190.869141"/>
      </g>
     </g>
    </g>
    <g id="xtick_3">
     <g id="line2d_3">
      <g>
       <use xlink:href="#m167ce573de" x="260.298701" y="384.48" style="stroke: #000000; stroke-width: 0.8"/>
      </g>
     </g>
     <g id="text_3">
      <!-- 2775 -->
      <g transform="translate(247.573701 399.078438) scale(0.1 -0.1)">
       <use xlink:href="#DejaVuSans-32"/>
       <use xlink:href="#DejaVuSans-37" x="63.623047"/>
       <use xlink:href="#DejaVuSans-37" x="127.246094"/>
       <use xlink:href="#DejaVuSans-35" x="190.869141"/>
      </g>
     </g>
    </g>
    <g id="xtick_4">
     <g id="line2d_4">
      <g>
       <use xlink:href="#m167ce573de" x="332.766234" y="384.48" style="stroke: #000000; stroke-width: 0.8"/>
      </g>
     </g>
     <g id="text_4">
      <!-- 2780 -->
      <g transform="translate(320.041234 399.078438) scale(0.1 -0.1)">
       <defs>
        <path id="DejaVuSans-38" d="M 2034 2216 
Q 1584 2216 1326 1975 
Q 1069 1734 1069 1313 
Q 1069 891 1326 650 
Q 1584 409 2034 409 
Q 2484 409 2743 651 
Q 3003 894 3003 1313 
Q 3003 1734 2745 1975 
Q 2488 2216 2034 2216 
z
M 1403 2484 
Q 997 2584 770 2862 
Q 544 3141 544 3541 
Q 544 4100 942 4425 
Q 1341 4750 2034 4750 
Q 2731 4750 3128 4425 
Q 3525 4100 3525 3541 
Q 3525 3141 3298 2862 
Q 3072 2584 2669 2484 
Q 3125 2378 3379 2068 
Q 3634 1759 3634 1313 
Q 3634 634 3220 271 
Q 2806 -91 2034 -91 
Q 1263 -91 848 271 
Q 434 634 434 1313 
Q 434 1759 690 2068 
Q 947 2378 1403 2484 
z
M 1172 3481 
Q 1172 3119 1398 2916 
Q 1625 2713 2034 2713 
Q 2441 2713 2670 2916 
Q 2900 3119 2900 3481 
Q 2900 3844 2670 4047 
Q 2441 4250 2034 4250 
Q 1625 4250 1398 4047 
Q 1172 3844 1172 3481 
z
" transform="scale(0.015625)"/>
       </defs>
       <use xlink:href="#DejaVuSans-32"/>
       <use xlink:href="#DejaVuSans-37" x="63.623047"/>
       <use xlink:href="#DejaVuSans-38" x="127.246094"/>
       <use xlink:href="#DejaVuSans-30" x="190.869141"/>
      </g>
     </g>
    </g>
    <g id="xtick_5">
     <g id="line2d_5">
      <g>
       <use xlink:href="#m167ce573de" x="405.233766" y="384.48" style="stroke: #000000; stroke-width: 0.8"/>
      </g>
     </g>
     <g id="text_5">
      <!-- 2785 -->
      <g transform="translate(392.508766 399.078438) scale(0.1 -0.1)">
       <use xlink:href="#DejaVuSans-32"/>
       <use xlink:href="#DejaVuSans-37" x="63.623047"/>
       <use xlink:href="#DejaVuSans-38" x="127.246094"/>
       <use xlink:href="#DejaVuSans-35" x="190.869141"/>
      </g>
     </g>
    </g>
    <g id="xtick_6">
     <g id="line2d_6">
      <g>
       <use xlink:href="#m167ce573de" x="477.701299" y="384.48" style="stroke: #000000; stroke-width: 0.8"/>
      </g>
     </g>
     <g id="text_6">
      <!-- 2790 -->
      <g transform="translate(464.976299 399.078438) scale(0.1 -0.1)">
       <defs>
        <path id="DejaVuSans-39" d="M 703 97 
L 703 672 
Q 941 559 1184 500 
Q 1428 441 1663 441 
Q 2288 441 2617 861 
Q 2947 1281 2994 2138 
Q 2813 1869 2534 1725 
Q 2256 1581 1919 1581 
Q 1219 1581 811 2004 
Q 403 2428 403 3163 
Q 403 3881 828 4315 
Q 1253 4750 1959 4750 
Q 2769 4750 3195 4129 
Q 3622 3509 3622 2328 
Q 3622 1225 3098 567 
Q 2575 -91 1691 -91 
Q 1453 -91 1209 -44 
Q 966 3 703 97 
z
M 1959 2075 
Q 2384 2075 2632 2365 
Q 2881 2656 2881 3163 
Q 2881 3666 2632 3958 
Q 2384 4250 1959 4250 
Q 1534 4250 1286 3958 
Q 1038 3666 1038 3163 
Q 1038 2656 1286 2365 
Q 1534 2075 1959 2075 
z
" transform="scale(0.015625)"/>
       </defs>
       <use xlink:href="#DejaVuSans-32"/>
       <use xlink:href="#DejaVuSans-37" x="63.623047"/>
       <use xlink:href="#DejaVuSans-39" x="127.246094"/>
       <use xlink:href="#DejaVuSans-30" x="190.869141"/>
      </g>
     </g>
    </g>
    <g id="xtick_7">
     <g id="line2d_7">
      <g>
       <use xlink:href="#m167ce573de" x="550.168831" y="384.48" style="stroke: #000000; stroke-width: 0.8"/>
      </g>
     </g>
     <g id="text_7">
      <!-- 2795 -->
      <g transform="translate(537.443831 399.078438) scale(0.1 -0.1)">
       <use xlink:href="#DejaVuSans-32"/>
       <use xlink:href="#DejaVuSans-37" x="63.623047"/>
       <use xlink:href="#DejaVuSans-39" x="127.246094"/>
       <use xlink:href="#DejaVuSans-35" x="190.869141"/>
      </g>
     </g>
    </g>
    <g id="xtick_8">
     <g id="line2d_8">
      <g>
       <use xlink:href="#m167ce573de" x="622.636364" y="384.48" style="stroke: #000000; stroke-width: 0.8"/>
      </g>
     </g>
     <g id="text_8">
      <!-- 2800 -->
      <g transform="translate(609.911364 399.078438) scale(0.1 -0.1)">
       <use xlink:href="#DejaVuSans-32"/>
       <use xlink:href="#DejaVuSans-38" x="63.623047"/>
       <use xlink:href="#DejaVuSans-30" x="127.246094"/>
       <use xlink:href="#DejaVuSans-30" x="190.869141"/>
      </g>
     </g>
    </g>
    <g id="text_9">
     <!-- frequency [MHz] -->
     <g transform="translate(327.734375 412.756563) scale(0.1 -0.1)">
      <defs>
       <path id="DejaVuSans-66" d="M 2375 4863 
L 2375 4384 
L 1825 4384 
Q 1516 4384 1395 4259 
Q 1275 4134 1275 3809 
L 1275 3500 
L 2222 3500 
L 2222 3053 
L 1275 3053 
L 1275 0 
L 697 0 
L 697 3053 
L 147 3053 
L 147 3500 
L 697 3500 
L 697 3744 
Q 697 4328 969 4595 
Q 1241 4863 1831 4863 
L 2375 4863 
z
" transform="scale(0.015625)"/>
       <path id="DejaVuSans-72" d="M 2631 2963 
Q 2534 3019 2420 3045 
Q 2306 3072 2169 3072 
Q 1681 3072 1420 2755 
Q 1159 2438 1159 1844 
L 1159 0 
L 581 0 
L 581 3500 
L 1159 3500 
L 1159 2956 
Q 1341 3275 1631 3429 
Q 1922 3584 2338 3584 
Q 2397 3584 2469 3576 
Q 2541 3569 2628 3553 
L 2631 2963 
z
" transform="scale(0.015625)"/>
       <path id="DejaVuSans-65" d="M 3597 1894 
L 3597 1613 
L 953 1613 
Q 991 1019 1311 708 
Q 1631 397 2203 397 
Q 2534 397 2845 478 
Q 3156 559 3463 722 
L 3463 178 
Q 3153 47 2828 -22 
Q 2503 -91 2169 -91 
Q 1331 -91 842 396 
Q 353 884 353 1716 
Q 353 2575 817 3079 
Q 1281 3584 2069 3584 
Q 2775 3584 3186 3129 
Q 3597 2675 3597 1894 
z
M 3022 2063 
Q 3016 2534 2758 2815 
Q 2500 3097 2075 3097 
Q 1594 3097 1305 2825 
Q 1016 2553 972 2059 
L 3022 2063 
z
" transform="scale(0.015625)"/>
       <path id="DejaVuSans-71" d="M 947 1747 
Q 947 1113 1208 752 
Q 1469 391 1925 391 
Q 2381 391 2643 752 
Q 2906 1113 2906 1747 
Q 2906 2381 2643 2742 
Q 2381 3103 1925 3103 
Q 1469 3103 1208 2742 
Q 947 2381 947 1747 
z
M 2906 525 
Q 2725 213 2448 61 
Q 2172 -91 1784 -91 
Q 1150 -91 751 415 
Q 353 922 353 1747 
Q 353 2572 751 3078 
Q 1150 3584 1784 3584 
Q 2172 3584 2448 3432 
Q 2725 3281 2906 2969 
L 2906 3500 
L 3481 3500 
L 3481 -1331 
L 2906 -1331 
L 2906 525 
z
" transform="scale(0.015625)"/>
       <path id="DejaVuSans-75" d="M 544 1381 
L 544 3500 
L 1119 3500 
L 1119 1403 
Q 1119 906 1312 657 
Q 1506 409 1894 409 
Q 2359 409 2629 706 
Q 2900 1003 2900 1516 
L 2900 3500 
L 3475 3500 
L 3475 0 
L 2900 0 
L 2900 538 
Q 2691 219 2414 64 
Q 2138 -91 1772 -91 
Q 1169 -91 856 284 
Q 544 659 544 1381 
z
M 1991 3584 
L 1991 3584 
z
" transform="scale(0.015625)"/>
       <path id="DejaVuSans-6e" d="M 3513 2113 
L 3513 0 
L 2938 0 
L 2938 2094 
Q 2938 2591 2744 2837 
Q 2550 3084 2163 3084 
Q 1697 3084 1428 2787 
Q 1159 2491 1159 1978 
L 1159 0 
L 581 0 
L 581 3500 
L 1159 3500 
L 1159 2956 
Q 1366 3272 1645 3428 
Q 1925 3584 2291 3584 
Q 2894 3584 3203 3211 
Q 3513 2838 3513 2113 
z
" transform="scale(0.015625)"/>
       <path id="DejaVuSans-63" d="M 3122 3366 
L 3122 2828 
Q 2878 2963 2633 3030 
Q 2388 3097 2138 3097 
Q 1578 3097 1268 2742 
Q 959 2388 959 1747 
Q 959 1106 1268 751 
Q 1578 397 2138 397 
Q 2388 397 2633 464 
Q 2878 531 3122 666 
L 3122 134 
Q 2881 22 2623 -34 
Q 2366 -91 2075 -91 
Q 1284 -91 818 406 
Q 353 903 353 1747 
Q 353 2603 823 3093 
Q 1294 3584 2113 3584 
Q 2378 3584 2631 3529 
Q 2884 3475 3122 3366 
z
" transform="scale(0.015625)"/>
       <path id="DejaVuSans-79" d="M 2059 -325 
Q 1816 -950 1584 -1140 
Q 1353 -1331 966 -1331 
L 506 -1331 
L 506 -850 
L 844 -850 
Q 1081 -850 1212 -737 
Q 1344 -625 1503 -206 
L 1606 56 
L 191 3500 
L 800 3500 
L 1894 763 
L 2988 3500 
L 3597 3500 
L 2059 -325 
z
" transform="scale(0.015625)"/>
       <path id="DejaVuSans-20" transform="scale(0.015625)"/>
       <path id="DejaVuSans-5b" d="M 550 4863 
L 1875 4863 
L 1875 4416 
L 1125 4416 
L 1125 -397 
L 1875 -397 
L 1875 -844 
L 550 -844 
L 550 4863 
z
" transform="scale(0.015625)"/>
       <path id="DejaVuSans-4d" d="M 628 4666 
L 1569 4666 
L 2759 1491 
L 3956 4666 
L 4897 4666 
L 4897 0 
L 4281 0 
L 4281 4097 
L 3078 897 
L 2444 897 
L 1241 4097 
L 1241 0 
L 628 0 
L 628 4666 
z
" transform="scale(0.015625)"/>
       <path id="DejaVuSans-48" d="M 628 4666 
L 1259 4666 
L 1259 2753 
L 3553 2753 
L 3553 4666 
L 4184 4666 
L 4184 0 
L 3553 0 
L 3553 2222 
L 1259 2222 
L 1259 0 
L 628 0 
L 628 4666 
z
" transform="scale(0.015625)"/>
       <path id="DejaVuSans-7a" d="M 353 3500 
L 3084 3500 
L 3084 2975 
L 922 459 
L 3084 459 
L 3084 0 
L 275 0 
L 275 525 
L 2438 3041 
L 353 3041 
L 353 3500 
z
" transform="scale(0.015625)"/>
       <path id="DejaVuSans-5d" d="M 1947 4863 
L 1947 -844 
L 622 -844 
L 622 -397 
L 1369 -397 
L 1369 4416 
L 622 4416 
L 622 4863 
L 1947 4863 
z
" transform="scale(0.015625)"/>
      </defs>
      <use xlink:href="#DejaVuSans-66"/>
      <use xlink:href="#DejaVuSans-72" x="35.205078"/>
      <use xlink:href="#DejaVuSans-65" x="74.068359"/>
      <use xlink:href="#DejaVuSans-71" x="135.591797"/>
      <use xlink:href="#DejaVuSans-75" x="199.068359"/>
      <use xlink:href="#DejaVuSans-65" x="262.447266"/>
      <use xlink:href="#DejaVuSans-6e" x="323.970703"/>
      <use xlink:href="#DejaVuSans-63" x="387.349609"/>
      <use xlink:href="#DejaVuSans-79" x="442.330078"/>
      <use xlink:href="#DejaVuSans-20" x="501.509766"/>
      <use xlink:href="#DejaVuSans-5b" x="533.296875"/>
      <use xlink:href="#DejaVuSans-4d" x="572.310547"/>
      <use xlink:href="#DejaVuSans-48" x="658.589844"/>
      <use xlink:href="#DejaVuSans-7a" x="733.785156"/>
      <use xlink:href="#DejaVuSans-5d" x="786.275391"/>
     </g>
    </g>
   </g>
   <g id="matplotlib.axis_2">
    <g id="ytick_1">
     <g id="line2d_9">
      <defs>
       <path id="ma171235ad8" d="M 0 0 
L -3.5 0 
" style="stroke: #000000; stroke-width: 0.8"/>
      </defs>
      <g>
       <use xlink:href="#ma171235ad8" x="90" y="337.62271" style="stroke: #000000; stroke-width: 0.8"/>
      </g>
     </g>
     <g id="text_10">
      <!-- 0.980 -->
      <g transform="translate(54.371875 341.421928) scale(0.1 -0.1)">
       <defs>
        <path id="DejaVuSans-2e" d="M 684 794 
L 1344 794 
L 1344 0 
L 684 0 
L 684 794 
z
" transform="scale(0.015625)"/>
       </defs>
       <use xlink:href="#DejaVuSans-30"/>
       <use xlink:href="#DejaVuSans-2e" x="63.623047"/>
       <use xlink:href="#DejaVuSans-39" x="95.410156"/>
       <use xlink:href="#DejaVuSans-38" x="159.033203"/>
       <use xlink:href="#DejaVuSans-30" x="222.65625"/>
      </g>
     </g>
    </g>
    <g id="ytick_2">
     <g id="line2d_10">
      <g>
       <use xlink:href="#ma171235ad8" x="90" y="274.576092" style="stroke: #000000; stroke-width: 0.8"/>
      </g>
     </g>
     <g id="text_11">
      <!-- 0.985 -->
      <g transform="translate(54.371875 278.375311) scale(0.1 -0.1)">
       <use xlink:href="#DejaVuSans-30"/>
       <use xlink:href="#DejaVuSans-2e" x="63.623047"/>
       <use xlink:href="#DejaVuSans-39" x="95.410156"/>
       <use xlink:href="#DejaVuSans-38" x="159.033203"/>
       <use xlink:href="#DejaVuSans-35" x="222.65625"/>
      </g>
     </g>
    </g>
    <g id="ytick_3">
     <g id="line2d_11">
      <g>
       <use xlink:href="#ma171235ad8" x="90" y="211.529474" style="stroke: #000000; stroke-width: 0.8"/>
      </g>
     </g>
     <g id="text_12">
      <!-- 0.990 -->
      <g transform="translate(54.371875 215.328693) scale(0.1 -0.1)">
       <use xlink:href="#DejaVuSans-30"/>
       <use xlink:href="#DejaVuSans-2e" x="63.623047"/>
       <use xlink:href="#DejaVuSans-39" x="95.410156"/>
       <use xlink:href="#DejaVuSans-39" x="159.033203"/>
       <use xlink:href="#DejaVuSans-30" x="222.65625"/>
      </g>
     </g>
    </g>
    <g id="ytick_4">
     <g id="line2d_12">
      <g>
       <use xlink:href="#ma171235ad8" x="90" y="148.482857" style="stroke: #000000; stroke-width: 0.8"/>
      </g>
     </g>
     <g id="text_13">
      <!-- 0.995 -->
      <g transform="translate(54.371875 152.282076) scale(0.1 -0.1)">
       <use xlink:href="#DejaVuSans-30"/>
       <use xlink:href="#DejaVuSans-2e" x="63.623047"/>
       <use xlink:href="#DejaVuSans-39" x="95.410156"/>
       <use xlink:href="#DejaVuSans-39" x="159.033203"/>
       <use xlink:href="#DejaVuSans-35" x="222.65625"/>
      </g>
     </g>
    </g>
    <g id="ytick_5">
     <g id="line2d_13">
      <g>
       <use xlink:href="#ma171235ad8" x="90" y="85.436239" style="stroke: #000000; stroke-width: 0.8"/>
      </g>
     </g>
     <g id="text_14">
      <!-- 1.000 -->
      <g transform="translate(54.371875 89.235458) scale(0.1 -0.1)">
       <defs>
        <path id="DejaVuSans-31" d="M 794 531 
L 1825 531 
L 1825 4091 
L 703 3866 
L 703 4441 
L 1819 4666 
L 2450 4666 
L 2450 531 
L 3481 531 
L 3481 0 
L 794 0 
L 794 531 
z
" transform="scale(0.015625)"/>
       </defs>
       <use xlink:href="#DejaVuSans-31"/>
       <use xlink:href="#DejaVuSans-2e" x="63.623047"/>
       <use xlink:href="#DejaVuSans-30" x="95.410156"/>
       <use xlink:href="#DejaVuSans-30" x="159.033203"/>
       <use xlink:href="#DejaVuSans-30" x="222.65625"/>
      </g>
     </g>
    </g>
    <g id="text_15">
     <!-- Contrast -->
     <g transform="translate(48.292187 239.524062) rotate(-90) scale(0.1 -0.1)">
      <defs>
       <path id="DejaVuSans-43" d="M 4122 4306 
L 4122 3641 
Q 3803 3938 3442 4084 
Q 3081 4231 2675 4231 
Q 1875 4231 1450 3742 
Q 1025 3253 1025 2328 
Q 1025 1406 1450 917 
Q 1875 428 2675 428 
Q 3081 428 3442 575 
Q 3803 722 4122 1019 
L 4122 359 
Q 3791 134 3420 21 
Q 3050 -91 2638 -91 
Q 1578 -91 968 557 
Q 359 1206 359 2328 
Q 359 3453 968 4101 
Q 1578 4750 2638 4750 
Q 3056 4750 3426 4639 
Q 3797 4528 4122 4306 
z
" transform="scale(0.015625)"/>
       <path id="DejaVuSans-6f" d="M 1959 3097 
Q 1497 3097 1228 2736 
Q 959 2375 959 1747 
Q 959 1119 1226 758 
Q 1494 397 1959 397 
Q 2419 397 2687 759 
Q 2956 1122 2956 1747 
Q 2956 2369 2687 2733 
Q 2419 3097 1959 3097 
z
M 1959 3584 
Q 2709 3584 3137 3096 
Q 3566 2609 3566 1747 
Q 3566 888 3137 398 
Q 2709 -91 1959 -91 
Q 1206 -91 779 398 
Q 353 888 353 1747 
Q 353 2609 779 3096 
Q 1206 3584 1959 3584 
z
" transform="scale(0.015625)"/>
       <path id="DejaVuSans-74" d="M 1172 4494 
L 1172 3500 
L 2356 3500 
L 2356 3053 
L 1172 3053 
L 1172 1153 
Q 1172 725 1289 603 
Q 1406 481 1766 481 
L 2356 481 
L 2356 0 
L 1766 0 
Q 1100 0 847 248 
Q 594 497 594 1153 
L 594 3053 
L 172 3053 
L 172 3500 
L 594 3500 
L 594 4494 
L 1172 4494 
z
" transform="scale(0.015625)"/>
       <path id="DejaVuSans-61" d="M 2194 1759 
Q 1497 1759 1228 1600 
Q 959 1441 959 1056 
Q 959 750 1161 570 
Q 1363 391 1709 391 
Q 2188 391 2477 730 
Q 2766 1069 2766 1631 
L 2766 1759 
L 2194 1759 
z
M 3341 1997 
L 3341 0 
L 2766 0 
L 2766 531 
Q 2569 213 2275 61 
Q 1981 -91 1556 -91 
Q 1019 -91 701 211 
Q 384 513 384 1019 
Q 384 1609 779 1909 
Q 1175 2209 1959 2209 
L 2766 2209 
L 2766 2266 
Q 2766 2663 2505 2880 
Q 2244 3097 1772 3097 
Q 1472 3097 1187 3025 
Q 903 2953 641 2809 
L 641 3341 
Q 956 3463 1253 3523 
Q 1550 3584 1831 3584 
Q 2591 3584 2966 3190 
Q 3341 2797 3341 1997 
z
" transform="scale(0.015625)"/>
       <path id="DejaVuSans-73" d="M 2834 3397 
L 2834 2853 
Q 2591 2978 2328 3040 
Q 2066 3103 1784 3103 
Q 1356 3103 1142 2972 
Q 928 2841 928 2578 
Q 928 2378 1081 2264 
Q 1234 2150 1697 2047 
L 1894 2003 
Q 2506 1872 2764 1633 
Q 3022 1394 3022 966 
Q 3022 478 2636 193 
Q 2250 -91 1575 -91 
Q 1294 -91 989 -36 
Q 684 19 347 128 
L 347 722 
Q 666 556 975 473 
Q 1284 391 1588 391 
Q 1994 391 2212 530 
Q 2431 669 2431 922 
Q 2431 1156 2273 1281 
Q 2116 1406 1581 1522 
L 1381 1569 
Q 847 1681 609 1914 
Q 372 2147 372 2553 
Q 372 3047 722 3315 
Q 1072 3584 1716 3584 
Q 2034 3584 2315 3537 
Q 2597 3491 2834 3397 
z
" transform="scale(0.015625)"/>
      </defs>
      <use xlink:href="#DejaVuSans-43"/>
      <use xlink:href="#DejaVuSans-6f" x="69.824219"/>
      <use xlink:href="#DejaVuSans-6e" x="131.005859"/>
      <use xlink:href="#DejaVuSans-74" x="194.384766"/>
      <use xlink:href="#DejaVuSans-72" x="233.59375"/>
      <use xlink:href="#DejaVuSans-61" x="274.707031"/>
      <use xlink:href="#DejaVuSans-73" x="335.986328"/>
      <use xlink:href="#DejaVuSans-74" x="388.085938"/>
     </g>
    </g>
   </g>
   <g id="line2d_14">
    <path d="M 115.363636 101.013168 
L 116.812987 81.318267 
L 118.262338 103.567625 
L 119.711688 79.389331 
L 121.161039 73.159294 
L 122.61039 89.922616 
L 124.05974 78.285377 
L 125.509091 85.163853 
L 126.958442 96.34334 
L 128.407792 69.738183 
L 129.857143 115.441246 
L 131.306494 88.197716 
L 132.755844 81.778523 
L 134.205195 91.997187 
L 135.654545 87.827981 
L 137.103896 105.036844 
L 138.553247 80.540153 
L 140.002597 81.175298 
L 141.451948 83.857119 
L 142.901299 108.590299 
L 144.350649 75.214675 
L 145.8 89.864574 
L 147.249351 66.96 
L 148.698701 107.038888 
L 150.148052 85.494558 
L 151.597403 103.496163 
L 153.046753 75.691149 
L 154.496104 109.696859 
L 157.394805 81.581565 
L 158.844156 84.99055 
L 160.293506 82.41577 
L 161.742857 90.955074 
L 163.192208 91.536979 
L 164.641558 89.912117 
L 166.090909 90.772785 
L 167.54026 84.159864 
L 168.98961 82.186624 
L 170.438961 111.615846 
L 171.888312 85.479011 
L 173.337662 88.396965 
L 174.787013 102.674021 
L 176.236364 94.215678 
L 177.685714 87.540596 
L 179.135065 94.908767 
L 180.584416 81.770116 
L 182.033766 93.436943 
L 183.483117 79.778633 
L 184.932468 93.422424 
L 186.381818 91.483924 
L 187.831169 90.170727 
L 189.280519 89.116979 
L 190.72987 104.906281 
L 192.179221 77.759472 
L 193.628571 95.075142 
L 195.077922 77.734095 
L 196.527273 92.10376 
L 197.976623 94.548788 
L 199.425974 87.787193 
L 200.875325 82.099959 
L 202.324675 114.28644 
L 203.774026 100.729946 
L 205.223377 92.367733 
L 206.672727 111.071044 
L 208.122078 98.825915 
L 209.571429 114.726486 
L 212.47013 90.674767 
L 213.919481 93.438566 
L 215.368831 110.937475 
L 216.818182 92.161722 
L 218.267532 78.342865 
L 219.716883 102.80145 
L 221.166234 104.457435 
L 222.615584 99.995182 
L 224.064935 86.265286 
L 225.514286 91.298912 
L 226.963636 87.906076 
L 228.412987 103.143129 
L 229.862338 92.540306 
L 231.311688 123.968135 
L 232.761039 103.445594 
L 234.21039 103.879757 
L 235.65974 94.175174 
L 237.109091 103.830321 
L 238.558442 101.671194 
L 240.007792 107.511889 
L 241.457143 82.503094 
L 242.906494 106.172581 
L 244.355844 98.217563 
L 245.805195 97.331013 
L 247.254545 95.668139 
L 248.703896 114.132719 
L 250.153247 130.962016 
L 251.602597 119.532626 
L 253.051948 119.455086 
L 254.501299 110.970002 
L 255.950649 133.267947 
L 257.4 118.267432 
L 258.849351 120.091674 
L 260.298701 113.718067 
L 261.748052 113.628427 
L 263.197403 102.568841 
L 264.646753 119.0423 
L 266.096104 118.391598 
L 267.545455 96.752826 
L 268.994805 110.817146 
L 270.444156 118.141915 
L 271.893506 112.43719 
L 273.342857 115.329303 
L 274.792208 112.391178 
L 276.241558 112.896906 
L 277.690909 138.083079 
L 279.14026 120.035653 
L 280.58961 128.715296 
L 282.038961 134.32697 
L 283.488312 132.706082 
L 284.937662 125.111987 
L 286.387013 134.500258 
L 287.836364 135.387939 
L 289.285714 152.699006 
L 290.735065 150.312308 
L 292.184416 148.280246 
L 293.633766 159.673601 
L 295.083117 160.201522 
L 296.532468 155.554523 
L 297.981818 162.210746 
L 299.431169 161.086263 
L 300.880519 162.247833 
L 302.32987 175.946767 
L 303.779221 183.319966 
L 305.228571 201.710362 
L 306.677922 200.462418 
L 309.576623 220.880069 
L 311.025974 239.018037 
L 312.475325 265.55525 
L 313.924675 267.537814 
L 315.374026 296.529355 
L 316.823377 309.663304 
L 318.272727 355.389087 
L 319.722078 320.666104 
L 321.171429 334.220479 
L 322.620779 312.569153 
L 324.07013 324.940675 
L 325.519481 313.208405 
L 326.968831 322.756715 
L 328.418182 283.884451 
L 329.867532 289.647722 
L 331.316883 275.535729 
L 332.766234 273.590244 
L 334.215584 248.116648 
L 335.664935 239.537552 
L 337.114286 252.431433 
L 338.563636 248.229517 
L 340.012987 264.471039 
L 341.462338 258.122121 
L 342.911688 269.673866 
L 344.361039 308.03354 
L 345.81039 317.063539 
L 347.25974 324.8578 
L 348.709091 334.072182 
L 350.158442 364.861703 
L 351.607792 344.714882 
L 353.057143 369.36 
L 354.506494 361.157354 
L 355.955844 337.182846 
L 357.405195 326.780058 
L 358.854545 309.886825 
L 360.303896 305.057601 
L 361.753247 284.992472 
L 363.202597 285.237521 
L 364.651948 260.060971 
L 366.101299 273.175773 
L 367.550649 260.718084 
L 369 246.178097 
L 370.449351 256.859934 
L 371.898701 264.211516 
L 373.348052 268.743637 
L 374.797403 299.81953 
L 376.246753 287.353845 
L 377.696104 327.699874 
L 379.145455 321.486839 
L 380.594805 336.858676 
L 382.044156 327.828969 
L 383.493506 359.79751 
L 384.942857 335.207533 
L 386.392208 318.694748 
L 387.841558 315.674771 
L 389.290909 301.025207 
L 390.74026 288.070369 
L 392.18961 276.474613 
L 393.638961 243.12964 
L 395.088312 222.053787 
L 396.537662 226.984371 
L 397.987013 221.76028 
L 399.436364 196.442831 
L 400.885714 182.569337 
L 402.335065 184.137613 
L 403.784416 191.315943 
L 405.233766 157.56234 
L 406.683117 168.288771 
L 408.132468 148.702949 
L 409.581818 158.090536 
L 411.031169 170.051887 
L 412.480519 152.583619 
L 413.92987 158.983277 
L 415.379221 145.174015 
L 416.828571 161.592094 
L 418.277922 144.035871 
L 419.727273 154.022874 
L 421.176623 132.110514 
L 422.625974 143.943876 
L 424.075325 153.529161 
L 425.524675 140.224353 
L 426.974026 129.504383 
L 428.423377 134.600637 
L 429.872727 134.558043 
L 431.322078 134.731927 
L 432.771429 132.485926 
L 434.220779 105.533962 
L 435.67013 129.631558 
L 437.119481 99.557885 
L 438.568831 107.671114 
L 440.018182 100.925592 
L 441.467532 119.552315 
L 442.916883 122.724659 
L 444.366234 108.340482 
L 445.815584 110.818752 
L 447.264935 116.832218 
L 448.714286 127.216723 
L 450.163636 115.38524 
L 451.612987 126.811116 
L 453.062338 126.738768 
L 454.511688 125.277692 
L 455.961039 115.63988 
L 457.41039 109.356489 
L 458.85974 101.540255 
L 460.309091 125.058551 
L 461.758442 110.435666 
L 463.207792 117.7972 
L 464.657143 93.790989 
L 466.106494 107.236096 
L 467.555844 102.791148 
L 469.005195 98.748575 
L 470.454545 80.89412 
L 471.903896 113.496019 
L 473.353247 109.206237 
L 474.802597 92.32416 
L 476.251948 89.243165 
L 477.701299 108.416258 
L 479.150649 113.770208 
L 480.6 97.330177 
L 482.049351 98.506138 
L 483.498701 112.895937 
L 484.948052 102.092313 
L 486.397403 103.556154 
L 487.846753 101.09763 
L 489.296104 85.470866 
L 490.745455 120.193822 
L 492.194805 112.358015 
L 493.644156 98.579819 
L 495.093506 95.080361 
L 496.542857 102.207185 
L 497.992208 93.455925 
L 499.441558 101.69896 
L 500.890909 94.488196 
L 502.34026 110.211403 
L 503.78961 85.024165 
L 505.238961 92.416648 
L 506.688312 85.79752 
L 508.137662 89.698855 
L 509.587013 81.690109 
L 511.036364 90.862041 
L 512.485714 102.416945 
L 513.935065 91.537323 
L 515.384416 90.801426 
L 516.833766 76.715864 
L 518.283117 80.978684 
L 519.732468 103.405146 
L 521.181818 109.307591 
L 522.631169 97.437557 
L 524.080519 114.214308 
L 525.52987 71.0787 
L 526.979221 94.975074 
L 528.428571 85.955957 
L 529.877922 92.006745 
L 531.327273 79.047321 
L 532.776623 75.499381 
L 534.225974 106.832385 
L 535.675325 91.580778 
L 537.124675 89.249688 
L 538.574026 74.787252 
L 540.023377 93.39678 
L 541.472727 97.677022 
L 542.922078 95.335083 
L 544.371429 83.348597 
L 545.820779 86.668928 
L 547.27013 108.648699 
L 548.719481 98.286189 
L 550.168831 97.626976 
L 551.618182 90.601018 
L 553.067532 95.866854 
L 554.516883 73.29345 
L 555.966234 84.053765 
L 557.415584 88.019205 
L 558.864935 89.89881 
L 560.314286 72.951024 
L 561.763636 104.663833 
L 563.212987 77.301112 
L 564.662338 81.239233 
L 566.111688 87.11436 
L 567.561039 75.343665 
L 569.01039 84.120558 
L 570.45974 82.927764 
L 571.909091 80.597312 
L 573.358442 92.265645 
L 574.807792 84.624598 
L 576.257143 91.136888 
L 577.706494 85.998767 
L 579.155844 87.329612 
L 580.605195 88.375383 
L 582.054545 90.791248 
L 583.503896 81.028474 
L 584.953247 78.807655 
L 586.402597 99.862819 
L 587.851948 91.240718 
L 589.301299 97.690097 
L 590.750649 95.316878 
L 592.2 81.827211 
L 593.649351 80.254616 
L 595.098701 68.643851 
L 596.548052 92.646957 
L 597.997403 76.420463 
L 599.446753 95.239782 
L 600.896104 85.239642 
L 602.345455 92.342397 
L 603.794805 84.742576 
L 605.244156 101.117309 
L 606.693506 85.045299 
L 608.142857 106.828365 
L 609.592208 98.510259 
L 611.041558 84.473059 
L 612.490909 90.261255 
L 613.94026 88.55692 
L 615.38961 94.378393 
L 616.838961 97.421843 
L 618.288312 86.667741 
L 619.737662 89.389336 
L 621.187013 89.183788 
L 622.636364 77.811085 
L 622.636364 77.811085 
" clip-path="url(#pd26958380b)" style="fill: none; stroke: #1f77b4; stroke-width: 1.5; stroke-linecap: square"/>
    <defs>
     <path id="m5281ccd550" d="M 0 3 
C 0.795609 3 1.55874 2.683901 2.12132 2.12132 
C 2.683901 1.55874 3 0.795609 3 0 
C 3 -0.795609 2.683901 -1.55874 2.12132 -2.12132 
C 1.55874 -2.683901 0.795609 -3 0 -3 
C -0.795609 -3 -1.55874 -2.683901 -2.12132 -2.12132 
C -2.683901 -1.55874 -3 -0.795609 -3 0 
C -3 0.795609 -2.683901 1.55874 -2.12132 2.12132 
C -1.55874 2.683901 -0.795609 3 0 3 
z
" style="stroke: #1f77b4"/>
    </defs>
    <g clip-path="url(#pd26958380b)">
     <use xlink:href="#m5281ccd550" x="115.363636" y="101.013168" style="fill: #1f77b4; stroke: #1f77b4"/>
     <use xlink:href="#m5281ccd550" x="116.812987" y="81.318267" style="fill: #1f77b4; stroke: #1f77b4"/>
     <use xlink:href="#m5281ccd550" x="118.262338" y="103.567625" style="fill: #1f77b4; stroke: #1f77b4"/>
     <use xlink:href="#m5281ccd550" x="119.711688" y="79.389331" style="fill: #1f77b4; stroke: #1f77b4"/>
     <use xlink:href="#m5281ccd550" x="121.161039" y="73.159294" style="fill: #1f77b4; stroke: #1f77b4"/>
     <use xlink:href="#m5281ccd550" x="122.61039" y="89.922616" style="fill: #1f77b4; stroke: #1f77b4"/>
     <use xlink:href="#m5281ccd550" x="124.05974" y="78.285377" style="fill: #1f77b4; stroke: #1f77b4"/>
     <use xlink:href="#m5281ccd550" x="125.509091" y="85.163853" style="fill: #1f77b4; stroke: #1f77b4"/>
     <use xlink:href="#m5281ccd550" x="126.958442" y="96.34334" style="fill: #1f77b4; stroke: #1f77b4"/>
     <use xlink:href="#m5281ccd550" x="128.407792" y="69.738183" style="fill: #1f77b4; stroke: #1f77b4"/>
     <use xlink:href="#m5281ccd550" x="129.857143" y="115.441246" style="fill: #1f77b4; stroke: #1f77b4"/>
     <use xlink:href="#m5281ccd550" x="131.306494" y="88.197716" style="fill: #1f77b4; stroke: #1f77b4"/>
     <use xlink:href="#m5281ccd550" x="132.755844" y="81.778523" style="fill: #1f77b4; stroke: #1f77b4"/>
     <use xlink:href="#m5281ccd550" x="134.205195" y="91.997187" style="fill: #1f77b4; stroke: #1f77b4"/>
     <use xlink:href="#m5281ccd550" x="135.654545" y="87.827981" style="fill: #1f77b4; stroke: #1f77b4"/>
     <use xlink:href="#m5281ccd550" x="137.103896" y="105.036844" style="fill: #1f77b4; stroke: #1f77b4"/>
     <use xlink:href="#m5281ccd550" x="138.553247" y="80.540153" style="fill: #1f77b4; stroke: #1f77b4"/>
     <use xlink:href="#m5281ccd550" x="140.002597" y="81.175298" style="fill: #1f77b4; stroke: #1f77b4"/>
     <use xlink:href="#m5281ccd550" x="141.451948" y="83.857119" style="fill: #1f77b4; stroke: #1f77b4"/>
     <use xlink:href="#m5281ccd550" x="142.901299" y="108.590299" style="fill: #1f77b4; stroke: #1f77b4"/>
     <use xlink:href="#m5281ccd550" x="144.350649" y="75.214675" style="fill: #1f77b4; stroke: #1f77b4"/>
     <use xlink:href="#m5281ccd550" x="145.8" y="89.864574" style="fill: #1f77b4; stroke: #1f77b4"/>
     <use xlink:href="#m5281ccd550" x="147.249351" y="66.96" style="fill: #1f77b4; stroke: #1f77b4"/>
     <use xlink:href="#m5281ccd550" x="148.698701" y="107.038888" style="fill: #1f77b4; stroke: #1f77b4"/>
     <use xlink:href="#m5281ccd550" x="150.148052" y="85.494558" style="fill: #1f77b4; stroke: #1f77b4"/>
     <use xlink:href="#m5281ccd550" x="151.597403" y="103.496163" style="fill: #1f77b4; stroke: #1f77b4"/>
     <use xlink:href="#m5281ccd550" x="153.046753" y="75.691149" style="fill: #1f77b4; stroke: #1f77b4"/>
     <use xlink:href="#m5281ccd550" x="154.496104" y="109.696859" style="fill: #1f77b4; stroke: #1f77b4"/>
     <use xlink:href="#m5281ccd550" x="155.945455" y="95.269276" style="fill: #1f77b4; stroke: #1f77b4"/>
     <use xlink:href="#m5281ccd550" x="157.394805" y="81.581565" style="fill: #1f77b4; stroke: #1f77b4"/>
     <use xlink:href="#m5281ccd550" x="158.844156" y="84.99055" style="fill: #1f77b4; stroke: #1f77b4"/>
     <use xlink:href="#m5281ccd550" x="160.293506" y="82.41577" style="fill: #1f77b4; stroke: #1f77b4"/>
     <use xlink:href="#m5281ccd550" x="161.742857" y="90.955074" style="fill: #1f77b4; stroke: #1f77b4"/>
     <use xlink:href="#m5281ccd550" x="163.192208" y="91.536979" style="fill: #1f77b4; stroke: #1f77b4"/>
     <use xlink:href="#m5281ccd550" x="164.641558" y="89.912117" style="fill: #1f77b4; stroke: #1f77b4"/>
     <use xlink:href="#m5281ccd550" x="166.090909" y="90.772785" style="fill: #1f77b4; stroke: #1f77b4"/>
     <use xlink:href="#m5281ccd550" x="167.54026" y="84.159864" style="fill: #1f77b4; stroke: #1f77b4"/>
     <use xlink:href="#m5281ccd550" x="168.98961" y="82.186624" style="fill: #1f77b4; stroke: #1f77b4"/>
     <use xlink:href="#m5281ccd550" x="170.438961" y="111.615846" style="fill: #1f77b4; stroke: #1f77b4"/>
     <use xlink:href="#m5281ccd550" x="171.888312" y="85.479011" style="fill: #1f77b4; stroke: #1f77b4"/>
     <use xlink:href="#m5281ccd550" x="173.337662" y="88.396965" style="fill: #1f77b4; stroke: #1f77b4"/>
     <use xlink:href="#m5281ccd550" x="174.787013" y="102.674021" style="fill: #1f77b4; stroke: #1f77b4"/>
     <use xlink:href="#m5281ccd550" x="176.236364" y="94.215678" style="fill: #1f77b4; stroke: #1f77b4"/>
     <use xlink:href="#m5281ccd550" x="177.685714" y="87.540596" style="fill: #1f77b4; stroke: #1f77b4"/>
     <use xlink:href="#m5281ccd550" x="179.135065" y="94.908767" style="fill: #1f77b4; stroke: #1f77b4"/>
     <use xlink:href="#m5281ccd550" x="180.584416" y="81.770116" style="fill: #1f77b4; stroke: #1f77b4"/>
     <use xlink:href="#m5281ccd550" x="182.033766" y="93.436943" style="fill: #1f77b4; stroke: #1f77b4"/>
     <use xlink:href="#m5281ccd550" x="183.483117" y="79.778633" style="fill: #1f77b4; stroke: #1f77b4"/>
     <use xlink:href="#m5281ccd550" x="184.932468" y="93.422424" style="fill: #1f77b4; stroke: #1f77b4"/>
     <use xlink:href="#m5281ccd550" x="186.381818" y="91.483924" style="fill: #1f77b4; stroke: #1f77b4"/>
     <use xlink:href="#m5281ccd550" x="187.831169" y="90.170727" style="fill: #1f77b4; stroke: #1f77b4"/>
     <use xlink:href="#m5281ccd550" x="189.280519" y="89.116979" style="fill: #1f77b4; stroke: #1f77b4"/>
     <use xlink:href="#m5281ccd550" x="190.72987" y="104.906281" style="fill: #1f77b4; stroke: #1f77b4"/>
     <use xlink:href="#m5281ccd550" x="192.179221" y="77.759472" style="fill: #1f77b4; stroke: #1f77b4"/>
     <use xlink:href="#m5281ccd550" x="193.628571" y="95.075142" style="fill: #1f77b4; stroke: #1f77b4"/>
     <use xlink:href="#m5281ccd550" x="195.077922" y="77.734095" style="fill: #1f77b4; stroke: #1f77b4"/>
     <use xlink:href="#m5281ccd550" x="196.527273" y="92.10376" style="fill: #1f77b4; stroke: #1f77b4"/>
     <use xlink:href="#m5281ccd550" x="197.976623" y="94.548788" style="fill: #1f77b4; stroke: #1f77b4"/>
     <use xlink:href="#m5281ccd550" x="199.425974" y="87.787193" style="fill: #1f77b4; stroke: #1f77b4"/>
     <use xlink:href="#m5281ccd550" x="200.875325" y="82.099959" style="fill: #1f77b4; stroke: #1f77b4"/>
     <use xlink:href="#m5281ccd550" x="202.324675" y="114.28644" style="fill: #1f77b4; stroke: #1f77b4"/>
     <use xlink:href="#m5281ccd550" x="203.774026" y="100.729946" style="fill: #1f77b4; stroke: #1f77b4"/>
     <use xlink:href="#m5281ccd550" x="205.223377" y="92.367733" style="fill: #1f77b4; stroke: #1f77b4"/>
     <use xlink:href="#m5281ccd550" x="206.672727" y="111.071044" style="fill: #1f77b4; stroke: #1f77b4"/>
     <use xlink:href="#m5281ccd550" x="208.122078" y="98.825915" style="fill: #1f77b4; stroke: #1f77b4"/>
     <use xlink:href="#m5281ccd550" x="209.571429" y="114.726486" style="fill: #1f77b4; stroke: #1f77b4"/>
     <use xlink:href="#m5281ccd550" x="211.020779" y="102.278768" style="fill: #1f77b4; stroke: #1f77b4"/>
     <use xlink:href="#m5281ccd550" x="212.47013" y="90.674767" style="fill: #1f77b4; stroke: #1f77b4"/>
     <use xlink:href="#m5281ccd550" x="213.919481" y="93.438566" style="fill: #1f77b4; stroke: #1f77b4"/>
     <use xlink:href="#m5281ccd550" x="215.368831" y="110.937475" style="fill: #1f77b4; stroke: #1f77b4"/>
     <use xlink:href="#m5281ccd550" x="216.818182" y="92.161722" style="fill: #1f77b4; stroke: #1f77b4"/>
     <use xlink:href="#m5281ccd550" x="218.267532" y="78.342865" style="fill: #1f77b4; stroke: #1f77b4"/>
     <use xlink:href="#m5281ccd550" x="219.716883" y="102.80145" style="fill: #1f77b4; stroke: #1f77b4"/>
     <use xlink:href="#m5281ccd550" x="221.166234" y="104.457435" style="fill: #1f77b4; stroke: #1f77b4"/>
     <use xlink:href="#m5281ccd550" x="222.615584" y="99.995182" style="fill: #1f77b4; stroke: #1f77b4"/>
     <use xlink:href="#m5281ccd550" x="224.064935" y="86.265286" style="fill: #1f77b4; stroke: #1f77b4"/>
     <use xlink:href="#m5281ccd550" x="225.514286" y="91.298912" style="fill: #1f77b4; stroke: #1f77b4"/>
     <use xlink:href="#m5281ccd550" x="226.963636" y="87.906076" style="fill: #1f77b4; stroke: #1f77b4"/>
     <use xlink:href="#m5281ccd550" x="228.412987" y="103.143129" style="fill: #1f77b4; stroke: #1f77b4"/>
     <use xlink:href="#m5281ccd550" x="229.862338" y="92.540306" style="fill: #1f77b4; stroke: #1f77b4"/>
     <use xlink:href="#m5281ccd550" x="231.311688" y="123.968135" style="fill: #1f77b4; stroke: #1f77b4"/>
     <use xlink:href="#m5281ccd550" x="232.761039" y="103.445594" style="fill: #1f77b4; stroke: #1f77b4"/>
     <use xlink:href="#m5281ccd550" x="234.21039" y="103.879757" style="fill: #1f77b4; stroke: #1f77b4"/>
     <use xlink:href="#m5281ccd550" x="235.65974" y="94.175174" style="fill: #1f77b4; stroke: #1f77b4"/>
     <use xlink:href="#m5281ccd550" x="237.109091" y="103.830321" style="fill: #1f77b4; stroke: #1f77b4"/>
     <use xlink:href="#m5281ccd550" x="238.558442" y="101.671194" style="fill: #1f77b4; stroke: #1f77b4"/>
     <use xlink:href="#m5281ccd550" x="240.007792" y="107.511889" style="fill: #1f77b4; stroke: #1f77b4"/>
     <use xlink:href="#m5281ccd550" x="241.457143" y="82.503094" style="fill: #1f77b4; stroke: #1f77b4"/>
     <use xlink:href="#m5281ccd550" x="242.906494" y="106.172581" style="fill: #1f77b4; stroke: #1f77b4"/>
     <use xlink:href="#m5281ccd550" x="244.355844" y="98.217563" style="fill: #1f77b4; stroke: #1f77b4"/>
     <use xlink:href="#m5281ccd550" x="245.805195" y="97.331013" style="fill: #1f77b4; stroke: #1f77b4"/>
     <use xlink:href="#m5281ccd550" x="247.254545" y="95.668139" style="fill: #1f77b4; stroke: #1f77b4"/>
     <use xlink:href="#m5281ccd550" x="248.703896" y="114.132719" style="fill: #1f77b4; stroke: #1f77b4"/>
     <use xlink:href="#m5281ccd550" x="250.153247" y="130.962016" style="fill: #1f77b4; stroke: #1f77b4"/>
     <use xlink:href="#m5281ccd550" x="251.602597" y="119.532626" style="fill: #1f77b4; stroke: #1f77b4"/>
     <use xlink:href="#m5281ccd550" x="253.051948" y="119.455086" style="fill: #1f77b4; stroke: #1f77b4"/>
     <use xlink:href="#m5281ccd550" x="254.501299" y="110.970002" style="fill: #1f77b4; stroke: #1f77b4"/>
     <use xlink:href="#m5281ccd550" x="255.950649" y="133.267947" style="fill: #1f77b4; stroke: #1f77b4"/>
     <use xlink:href="#m5281ccd550" x="257.4" y="118.267432" style="fill: #1f77b4; stroke: #1f77b4"/>
     <use xlink:href="#m5281ccd550" x="258.849351" y="120.091674" style="fill: #1f77b4; stroke: #1f77b4"/>
     <use xlink:href="#m5281ccd550" x="260.298701" y="113.718067" style="fill: #1f77b4; stroke: #1f77b4"/>
     <use xlink:href="#m5281ccd550" x="261.748052" y="113.628427" style="fill: #1f77b4; stroke: #1f77b4"/>
     <use xlink:href="#m5281ccd550" x="263.197403" y="102.568841" style="fill: #1f77b4; stroke: #1f77b4"/>
     <use xlink:href="#m5281ccd550" x="264.646753" y="119.0423" style="fill: #1f77b4; stroke: #1f77b4"/>
     <use xlink:href="#m5281ccd550" x="266.096104" y="118.391598" style="fill: #1f77b4; stroke: #1f77b4"/>
     <use xlink:href="#m5281ccd550" x="267.545455" y="96.752826" style="fill: #1f77b4; stroke: #1f77b4"/>
     <use xlink:href="#m5281ccd550" x="268.994805" y="110.817146" style="fill: #1f77b4; stroke: #1f77b4"/>
     <use xlink:href="#m5281ccd550" x="270.444156" y="118.141915" style="fill: #1f77b4; stroke: #1f77b4"/>
     <use xlink:href="#m5281ccd550" x="271.893506" y="112.43719" style="fill: #1f77b4; stroke: #1f77b4"/>
     <use xlink:href="#m5281ccd550" x="273.342857" y="115.329303" style="fill: #1f77b4; stroke: #1f77b4"/>
     <use xlink:href="#m5281ccd550" x="274.792208" y="112.391178" style="fill: #1f77b4; stroke: #1f77b4"/>
     <use xlink:href="#m5281ccd550" x="276.241558" y="112.896906" style="fill: #1f77b4; stroke: #1f77b4"/>
     <use xlink:href="#m5281ccd550" x="277.690909" y="138.083079" style="fill: #1f77b4; stroke: #1f77b4"/>
     <use xlink:href="#m5281ccd550" x="279.14026" y="120.035653" style="fill: #1f77b4; stroke: #1f77b4"/>
     <use xlink:href="#m5281ccd550" x="280.58961" y="128.715296" style="fill: #1f77b4; stroke: #1f77b4"/>
     <use xlink:href="#m5281ccd550" x="282.038961" y="134.32697" style="fill: #1f77b4; stroke: #1f77b4"/>
     <use xlink:href="#m5281ccd550" x="283.488312" y="132.706082" style="fill: #1f77b4; stroke: #1f77b4"/>
     <use xlink:href="#m5281ccd550" x="284.937662" y="125.111987" style="fill: #1f77b4; stroke: #1f77b4"/>
     <use xlink:href="#m5281ccd550" x="286.387013" y="134.500258" style="fill: #1f77b4; stroke: #1f77b4"/>
     <use xlink:href="#m5281ccd550" x="287.836364" y="135.387939" style="fill: #1f77b4; stroke: #1f77b4"/>
     <use xlink:href="#m5281ccd550" x="289.285714" y="152.699006" style="fill: #1f77b4; stroke: #1f77b4"/>
     <use xlink:href="#m5281ccd550" x="290.735065" y="150.312308" style="fill: #1f77b4; stroke: #1f77b4"/>
     <use xlink:href="#m5281ccd550" x="292.184416" y="148.280246" style="fill: #1f77b4; stroke: #1f77b4"/>
     <use xlink:href="#m5281ccd550" x="293.633766" y="159.673601" style="fill: #1f77b4; stroke: #1f77b4"/>
     <use xlink:href="#m5281ccd550" x="295.083117" y="160.201522" style="fill: #1f77b4; stroke: #1f77b4"/>
     <use xlink:href="#m5281ccd550" x="296.532468" y="155.554523" style="fill: #1f77b4; stroke: #1f77b4"/>
     <use xlink:href="#m5281ccd550" x="297.981818" y="162.210746" style="fill: #1f77b4; stroke: #1f77b4"/>
     <use xlink:href="#m5281ccd550" x="299.431169" y="161.086263" style="fill: #1f77b4; stroke: #1f77b4"/>
     <use xlink:href="#m5281ccd550" x="300.880519" y="162.247833" style="fill: #1f77b4; stroke: #1f77b4"/>
     <use xlink:href="#m5281ccd550" x="302.32987" y="175.946767" style="fill: #1f77b4; stroke: #1f77b4"/>
     <use xlink:href="#m5281ccd550" x="303.779221" y="183.319966" style="fill: #1f77b4; stroke: #1f77b4"/>
     <use xlink:href="#m5281ccd550" x="305.228571" y="201.710362" style="fill: #1f77b4; stroke: #1f77b4"/>
     <use xlink:href="#m5281ccd550" x="306.677922" y="200.462418" style="fill: #1f77b4; stroke: #1f77b4"/>
     <use xlink:href="#m5281ccd550" x="308.127273" y="210.946959" style="fill: #1f77b4; stroke: #1f77b4"/>
     <use xlink:href="#m5281ccd550" x="309.576623" y="220.880069" style="fill: #1f77b4; stroke: #1f77b4"/>
     <use xlink:href="#m5281ccd550" x="311.025974" y="239.018037" style="fill: #1f77b4; stroke: #1f77b4"/>
     <use xlink:href="#m5281ccd550" x="312.475325" y="265.55525" style="fill: #1f77b4; stroke: #1f77b4"/>
     <use xlink:href="#m5281ccd550" x="313.924675" y="267.537814" style="fill: #1f77b4; stroke: #1f77b4"/>
     <use xlink:href="#m5281ccd550" x="315.374026" y="296.529355" style="fill: #1f77b4; stroke: #1f77b4"/>
     <use xlink:href="#m5281ccd550" x="316.823377" y="309.663304" style="fill: #1f77b4; stroke: #1f77b4"/>
     <use xlink:href="#m5281ccd550" x="318.272727" y="355.389087" style="fill: #1f77b4; stroke: #1f77b4"/>
     <use xlink:href="#m5281ccd550" x="319.722078" y="320.666104" style="fill: #1f77b4; stroke: #1f77b4"/>
     <use xlink:href="#m5281ccd550" x="321.171429" y="334.220479" style="fill: #1f77b4; stroke: #1f77b4"/>
     <use xlink:href="#m5281ccd550" x="322.620779" y="312.569153" style="fill: #1f77b4; stroke: #1f77b4"/>
     <use xlink:href="#m5281ccd550" x="324.07013" y="324.940675" style="fill: #1f77b4; stroke: #1f77b4"/>
     <use xlink:href="#m5281ccd550" x="325.519481" y="313.208405" style="fill: #1f77b4; stroke: #1f77b4"/>
     <use xlink:href="#m5281ccd550" x="326.968831" y="322.756715" style="fill: #1f77b4; stroke: #1f77b4"/>
     <use xlink:href="#m5281ccd550" x="328.418182" y="283.884451" style="fill: #1f77b4; stroke: #1f77b4"/>
     <use xlink:href="#m5281ccd550" x="329.867532" y="289.647722" style="fill: #1f77b4; stroke: #1f77b4"/>
     <use xlink:href="#m5281ccd550" x="331.316883" y="275.535729" style="fill: #1f77b4; stroke: #1f77b4"/>
     <use xlink:href="#m5281ccd550" x="332.766234" y="273.590244" style="fill: #1f77b4; stroke: #1f77b4"/>
     <use xlink:href="#m5281ccd550" x="334.215584" y="248.116648" style="fill: #1f77b4; stroke: #1f77b4"/>
     <use xlink:href="#m5281ccd550" x="335.664935" y="239.537552" style="fill: #1f77b4; stroke: #1f77b4"/>
     <use xlink:href="#m5281ccd550" x="337.114286" y="252.431433" style="fill: #1f77b4; stroke: #1f77b4"/>
     <use xlink:href="#m5281ccd550" x="338.563636" y="248.229517" style="fill: #1f77b4; stroke: #1f77b4"/>
     <use xlink:href="#m5281ccd550" x="340.012987" y="264.471039" style="fill: #1f77b4; stroke: #1f77b4"/>
     <use xlink:href="#m5281ccd550" x="341.462338" y="258.122121" style="fill: #1f77b4; stroke: #1f77b4"/>
     <use xlink:href="#m5281ccd550" x="342.911688" y="269.673866" style="fill: #1f77b4; stroke: #1f77b4"/>
     <use xlink:href="#m5281ccd550" x="344.361039" y="308.03354" style="fill: #1f77b4; stroke: #1f77b4"/>
     <use xlink:href="#m5281ccd550" x="345.81039" y="317.063539" style="fill: #1f77b4; stroke: #1f77b4"/>
     <use xlink:href="#m5281ccd550" x="347.25974" y="324.8578" style="fill: #1f77b4; stroke: #1f77b4"/>
     <use xlink:href="#m5281ccd550" x="348.709091" y="334.072182" style="fill: #1f77b4; stroke: #1f77b4"/>
     <use xlink:href="#m5281ccd550" x="350.158442" y="364.861703" style="fill: #1f77b4; stroke: #1f77b4"/>
     <use xlink:href="#m5281ccd550" x="351.607792" y="344.714882" style="fill: #1f77b4; stroke: #1f77b4"/>
     <use xlink:href="#m5281ccd550" x="353.057143" y="369.36" style="fill: #1f77b4; stroke: #1f77b4"/>
     <use xlink:href="#m5281ccd550" x="354.506494" y="361.157354" style="fill: #1f77b4; stroke: #1f77b4"/>
     <use xlink:href="#m5281ccd550" x="355.955844" y="337.182846" style="fill: #1f77b4; stroke: #1f77b4"/>
     <use xlink:href="#m5281ccd550" x="357.405195" y="326.780058" style="fill: #1f77b4; stroke: #1f77b4"/>
     <use xlink:href="#m5281ccd550" x="358.854545" y="309.886825" style="fill: #1f77b4; stroke: #1f77b4"/>
     <use xlink:href="#m5281ccd550" x="360.303896" y="305.057601" style="fill: #1f77b4; stroke: #1f77b4"/>
     <use xlink:href="#m5281ccd550" x="361.753247" y="284.992472" style="fill: #1f77b4; stroke: #1f77b4"/>
     <use xlink:href="#m5281ccd550" x="363.202597" y="285.237521" style="fill: #1f77b4; stroke: #1f77b4"/>
     <use xlink:href="#m5281ccd550" x="364.651948" y="260.060971" style="fill: #1f77b4; stroke: #1f77b4"/>
     <use xlink:href="#m5281ccd550" x="366.101299" y="273.175773" style="fill: #1f77b4; stroke: #1f77b4"/>
     <use xlink:href="#m5281ccd550" x="367.550649" y="260.718084" style="fill: #1f77b4; stroke: #1f77b4"/>
     <use xlink:href="#m5281ccd550" x="369" y="246.178097" style="fill: #1f77b4; stroke: #1f77b4"/>
     <use xlink:href="#m5281ccd550" x="370.449351" y="256.859934" style="fill: #1f77b4; stroke: #1f77b4"/>
     <use xlink:href="#m5281ccd550" x="371.898701" y="264.211516" style="fill: #1f77b4; stroke: #1f77b4"/>
     <use xlink:href="#m5281ccd550" x="373.348052" y="268.743637" style="fill: #1f77b4; stroke: #1f77b4"/>
     <use xlink:href="#m5281ccd550" x="374.797403" y="299.81953" style="fill: #1f77b4; stroke: #1f77b4"/>
     <use xlink:href="#m5281ccd550" x="376.246753" y="287.353845" style="fill: #1f77b4; stroke: #1f77b4"/>
     <use xlink:href="#m5281ccd550" x="377.696104" y="327.699874" style="fill: #1f77b4; stroke: #1f77b4"/>
     <use xlink:href="#m5281ccd550" x="379.145455" y="321.486839" style="fill: #1f77b4; stroke: #1f77b4"/>
     <use xlink:href="#m5281ccd550" x="380.594805" y="336.858676" style="fill: #1f77b4; stroke: #1f77b4"/>
     <use xlink:href="#m5281ccd550" x="382.044156" y="327.828969" style="fill: #1f77b4; stroke: #1f77b4"/>
     <use xlink:href="#m5281ccd550" x="383.493506" y="359.79751" style="fill: #1f77b4; stroke: #1f77b4"/>
     <use xlink:href="#m5281ccd550" x="384.942857" y="335.207533" style="fill: #1f77b4; stroke: #1f77b4"/>
     <use xlink:href="#m5281ccd550" x="386.392208" y="318.694748" style="fill: #1f77b4; stroke: #1f77b4"/>
     <use xlink:href="#m5281ccd550" x="387.841558" y="315.674771" style="fill: #1f77b4; stroke: #1f77b4"/>
     <use xlink:href="#m5281ccd550" x="389.290909" y="301.025207" style="fill: #1f77b4; stroke: #1f77b4"/>
     <use xlink:href="#m5281ccd550" x="390.74026" y="288.070369" style="fill: #1f77b4; stroke: #1f77b4"/>
     <use xlink:href="#m5281ccd550" x="392.18961" y="276.474613" style="fill: #1f77b4; stroke: #1f77b4"/>
     <use xlink:href="#m5281ccd550" x="393.638961" y="243.12964" style="fill: #1f77b4; stroke: #1f77b4"/>
     <use xlink:href="#m5281ccd550" x="395.088312" y="222.053787" style="fill: #1f77b4; stroke: #1f77b4"/>
     <use xlink:href="#m5281ccd550" x="396.537662" y="226.984371" style="fill: #1f77b4; stroke: #1f77b4"/>
     <use xlink:href="#m5281ccd550" x="397.987013" y="221.76028" style="fill: #1f77b4; stroke: #1f77b4"/>
     <use xlink:href="#m5281ccd550" x="399.436364" y="196.442831" style="fill: #1f77b4; stroke: #1f77b4"/>
     <use xlink:href="#m5281ccd550" x="400.885714" y="182.569337" style="fill: #1f77b4; stroke: #1f77b4"/>
     <use xlink:href="#m5281ccd550" x="402.335065" y="184.137613" style="fill: #1f77b4; stroke: #1f77b4"/>
     <use xlink:href="#m5281ccd550" x="403.784416" y="191.315943" style="fill: #1f77b4; stroke: #1f77b4"/>
     <use xlink:href="#m5281ccd550" x="405.233766" y="157.56234" style="fill: #1f77b4; stroke: #1f77b4"/>
     <use xlink:href="#m5281ccd550" x="406.683117" y="168.288771" style="fill: #1f77b4; stroke: #1f77b4"/>
     <use xlink:href="#m5281ccd550" x="408.132468" y="148.702949" style="fill: #1f77b4; stroke: #1f77b4"/>
     <use xlink:href="#m5281ccd550" x="409.581818" y="158.090536" style="fill: #1f77b4; stroke: #1f77b4"/>
     <use xlink:href="#m5281ccd550" x="411.031169" y="170.051887" style="fill: #1f77b4; stroke: #1f77b4"/>
     <use xlink:href="#m5281ccd550" x="412.480519" y="152.583619" style="fill: #1f77b4; stroke: #1f77b4"/>
     <use xlink:href="#m5281ccd550" x="413.92987" y="158.983277" style="fill: #1f77b4; stroke: #1f77b4"/>
     <use xlink:href="#m5281ccd550" x="415.379221" y="145.174015" style="fill: #1f77b4; stroke: #1f77b4"/>
     <use xlink:href="#m5281ccd550" x="416.828571" y="161.592094" style="fill: #1f77b4; stroke: #1f77b4"/>
     <use xlink:href="#m5281ccd550" x="418.277922" y="144.035871" style="fill: #1f77b4; stroke: #1f77b4"/>
     <use xlink:href="#m5281ccd550" x="419.727273" y="154.022874" style="fill: #1f77b4; stroke: #1f77b4"/>
     <use xlink:href="#m5281ccd550" x="421.176623" y="132.110514" style="fill: #1f77b4; stroke: #1f77b4"/>
     <use xlink:href="#m5281ccd550" x="422.625974" y="143.943876" style="fill: #1f77b4; stroke: #1f77b4"/>
     <use xlink:href="#m5281ccd550" x="424.075325" y="153.529161" style="fill: #1f77b4; stroke: #1f77b4"/>
     <use xlink:href="#m5281ccd550" x="425.524675" y="140.224353" style="fill: #1f77b4; stroke: #1f77b4"/>
     <use xlink:href="#m5281ccd550" x="426.974026" y="129.504383" style="fill: #1f77b4; stroke: #1f77b4"/>
     <use xlink:href="#m5281ccd550" x="428.423377" y="134.600637" style="fill: #1f77b4; stroke: #1f77b4"/>
     <use xlink:href="#m5281ccd550" x="429.872727" y="134.558043" style="fill: #1f77b4; stroke: #1f77b4"/>
     <use xlink:href="#m5281ccd550" x="431.322078" y="134.731927" style="fill: #1f77b4; stroke: #1f77b4"/>
     <use xlink:href="#m5281ccd550" x="432.771429" y="132.485926" style="fill: #1f77b4; stroke: #1f77b4"/>
     <use xlink:href="#m5281ccd550" x="434.220779" y="105.533962" style="fill: #1f77b4; stroke: #1f77b4"/>
     <use xlink:href="#m5281ccd550" x="435.67013" y="129.631558" style="fill: #1f77b4; stroke: #1f77b4"/>
     <use xlink:href="#m5281ccd550" x="437.119481" y="99.557885" style="fill: #1f77b4; stroke: #1f77b4"/>
     <use xlink:href="#m5281ccd550" x="438.568831" y="107.671114" style="fill: #1f77b4; stroke: #1f77b4"/>
     <use xlink:href="#m5281ccd550" x="440.018182" y="100.925592" style="fill: #1f77b4; stroke: #1f77b4"/>
     <use xlink:href="#m5281ccd550" x="441.467532" y="119.552315" style="fill: #1f77b4; stroke: #1f77b4"/>
     <use xlink:href="#m5281ccd550" x="442.916883" y="122.724659" style="fill: #1f77b4; stroke: #1f77b4"/>
     <use xlink:href="#m5281ccd550" x="444.366234" y="108.340482" style="fill: #1f77b4; stroke: #1f77b4"/>
     <use xlink:href="#m5281ccd550" x="445.815584" y="110.818752" style="fill: #1f77b4; stroke: #1f77b4"/>
     <use xlink:href="#m5281ccd550" x="447.264935" y="116.832218" style="fill: #1f77b4; stroke: #1f77b4"/>
     <use xlink:href="#m5281ccd550" x="448.714286" y="127.216723" style="fill: #1f77b4; stroke: #1f77b4"/>
     <use xlink:href="#m5281ccd550" x="450.163636" y="115.38524" style="fill: #1f77b4; stroke: #1f77b4"/>
     <use xlink:href="#m5281ccd550" x="451.612987" y="126.811116" style="fill: #1f77b4; stroke: #1f77b4"/>
     <use xlink:href="#m5281ccd550" x="453.062338" y="126.738768" style="fill: #1f77b4; stroke: #1f77b4"/>
     <use xlink:href="#m5281ccd550" x="454.511688" y="125.277692" style="fill: #1f77b4; stroke: #1f77b4"/>
     <use xlink:href="#m5281ccd550" x="455.961039" y="115.63988" style="fill: #1f77b4; stroke: #1f77b4"/>
     <use xlink:href="#m5281ccd550" x="457.41039" y="109.356489" style="fill: #1f77b4; stroke: #1f77b4"/>
     <use xlink:href="#m5281ccd550" x="458.85974" y="101.540255" style="fill: #1f77b4; stroke: #1f77b4"/>
     <use xlink:href="#m5281ccd550" x="460.309091" y="125.058551" style="fill: #1f77b4; stroke: #1f77b4"/>
     <use xlink:href="#m5281ccd550" x="461.758442" y="110.435666" style="fill: #1f77b4; stroke: #1f77b4"/>
     <use xlink:href="#m5281ccd550" x="463.207792" y="117.7972" style="fill: #1f77b4; stroke: #1f77b4"/>
     <use xlink:href="#m5281ccd550" x="464.657143" y="93.790989" style="fill: #1f77b4; stroke: #1f77b4"/>
     <use xlink:href="#m5281ccd550" x="466.106494" y="107.236096" style="fill: #1f77b4; stroke: #1f77b4"/>
     <use xlink:href="#m5281ccd550" x="467.555844" y="102.791148" style="fill: #1f77b4; stroke: #1f77b4"/>
     <use xlink:href="#m5281ccd550" x="469.005195" y="98.748575" style="fill: #1f77b4; stroke: #1f77b4"/>
     <use xlink:href="#m5281ccd550" x="470.454545" y="80.89412" style="fill: #1f77b4; stroke: #1f77b4"/>
     <use xlink:href="#m5281ccd550" x="471.903896" y="113.496019" style="fill: #1f77b4; stroke: #1f77b4"/>
     <use xlink:href="#m5281ccd550" x="473.353247" y="109.206237" style="fill: #1f77b4; stroke: #1f77b4"/>
     <use xlink:href="#m5281ccd550" x="474.802597" y="92.32416" style="fill: #1f77b4; stroke: #1f77b4"/>
     <use xlink:href="#m5281ccd550" x="476.251948" y="89.243165" style="fill: #1f77b4; stroke: #1f77b4"/>
     <use xlink:href="#m5281ccd550" x="477.701299" y="108.416258" style="fill: #1f77b4; stroke: #1f77b4"/>
     <use xlink:href="#m5281ccd550" x="479.150649" y="113.770208" style="fill: #1f77b4; stroke: #1f77b4"/>
     <use xlink:href="#m5281ccd550" x="480.6" y="97.330177" style="fill: #1f77b4; stroke: #1f77b4"/>
     <use xlink:href="#m5281ccd550" x="482.049351" y="98.506138" style="fill: #1f77b4; stroke: #1f77b4"/>
     <use xlink:href="#m5281ccd550" x="483.498701" y="112.895937" style="fill: #1f77b4; stroke: #1f77b4"/>
     <use xlink:href="#m5281ccd550" x="484.948052" y="102.092313" style="fill: #1f77b4; stroke: #1f77b4"/>
     <use xlink:href="#m5281ccd550" x="486.397403" y="103.556154" style="fill: #1f77b4; stroke: #1f77b4"/>
     <use xlink:href="#m5281ccd550" x="487.846753" y="101.09763" style="fill: #1f77b4; stroke: #1f77b4"/>
     <use xlink:href="#m5281ccd550" x="489.296104" y="85.470866" style="fill: #1f77b4; stroke: #1f77b4"/>
     <use xlink:href="#m5281ccd550" x="490.745455" y="120.193822" style="fill: #1f77b4; stroke: #1f77b4"/>
     <use xlink:href="#m5281ccd550" x="492.194805" y="112.358015" style="fill: #1f77b4; stroke: #1f77b4"/>
     <use xlink:href="#m5281ccd550" x="493.644156" y="98.579819" style="fill: #1f77b4; stroke: #1f77b4"/>
     <use xlink:href="#m5281ccd550" x="495.093506" y="95.080361" style="fill: #1f77b4; stroke: #1f77b4"/>
     <use xlink:href="#m5281ccd550" x="496.542857" y="102.207185" style="fill: #1f77b4; stroke: #1f77b4"/>
     <use xlink:href="#m5281ccd550" x="497.992208" y="93.455925" style="fill: #1f77b4; stroke: #1f77b4"/>
     <use xlink:href="#m5281ccd550" x="499.441558" y="101.69896" style="fill: #1f77b4; stroke: #1f77b4"/>
     <use xlink:href="#m5281ccd550" x="500.890909" y="94.488196" style="fill: #1f77b4; stroke: #1f77b4"/>
     <use xlink:href="#m5281ccd550" x="502.34026" y="110.211403" style="fill: #1f77b4; stroke: #1f77b4"/>
     <use xlink:href="#m5281ccd550" x="503.78961" y="85.024165" style="fill: #1f77b4; stroke: #1f77b4"/>
     <use xlink:href="#m5281ccd550" x="505.238961" y="92.416648" style="fill: #1f77b4; stroke: #1f77b4"/>
     <use xlink:href="#m5281ccd550" x="506.688312" y="85.79752" style="fill: #1f77b4; stroke: #1f77b4"/>
     <use xlink:href="#m5281ccd550" x="508.137662" y="89.698855" style="fill: #1f77b4; stroke: #1f77b4"/>
     <use xlink:href="#m5281ccd550" x="509.587013" y="81.690109" style="fill: #1f77b4; stroke: #1f77b4"/>
     <use xlink:href="#m5281ccd550" x="511.036364" y="90.862041" style="fill: #1f77b4; stroke: #1f77b4"/>
     <use xlink:href="#m5281ccd550" x="512.485714" y="102.416945" style="fill: #1f77b4; stroke: #1f77b4"/>
     <use xlink:href="#m5281ccd550" x="513.935065" y="91.537323" style="fill: #1f77b4; stroke: #1f77b4"/>
     <use xlink:href="#m5281ccd550" x="515.384416" y="90.801426" style="fill: #1f77b4; stroke: #1f77b4"/>
     <use xlink:href="#m5281ccd550" x="516.833766" y="76.715864" style="fill: #1f77b4; stroke: #1f77b4"/>
     <use xlink:href="#m5281ccd550" x="518.283117" y="80.978684" style="fill: #1f77b4; stroke: #1f77b4"/>
     <use xlink:href="#m5281ccd550" x="519.732468" y="103.405146" style="fill: #1f77b4; stroke: #1f77b4"/>
     <use xlink:href="#m5281ccd550" x="521.181818" y="109.307591" style="fill: #1f77b4; stroke: #1f77b4"/>
     <use xlink:href="#m5281ccd550" x="522.631169" y="97.437557" style="fill: #1f77b4; stroke: #1f77b4"/>
     <use xlink:href="#m5281ccd550" x="524.080519" y="114.214308" style="fill: #1f77b4; stroke: #1f77b4"/>
     <use xlink:href="#m5281ccd550" x="525.52987" y="71.0787" style="fill: #1f77b4; stroke: #1f77b4"/>
     <use xlink:href="#m5281ccd550" x="526.979221" y="94.975074" style="fill: #1f77b4; stroke: #1f77b4"/>
     <use xlink:href="#m5281ccd550" x="528.428571" y="85.955957" style="fill: #1f77b4; stroke: #1f77b4"/>
     <use xlink:href="#m5281ccd550" x="529.877922" y="92.006745" style="fill: #1f77b4; stroke: #1f77b4"/>
     <use xlink:href="#m5281ccd550" x="531.327273" y="79.047321" style="fill: #1f77b4; stroke: #1f77b4"/>
     <use xlink:href="#m5281ccd550" x="532.776623" y="75.499381" style="fill: #1f77b4; stroke: #1f77b4"/>
     <use xlink:href="#m5281ccd550" x="534.225974" y="106.832385" style="fill: #1f77b4; stroke: #1f77b4"/>
     <use xlink:href="#m5281ccd550" x="535.675325" y="91.580778" style="fill: #1f77b4; stroke: #1f77b4"/>
     <use xlink:href="#m5281ccd550" x="537.124675" y="89.249688" style="fill: #1f77b4; stroke: #1f77b4"/>
     <use xlink:href="#m5281ccd550" x="538.574026" y="74.787252" style="fill: #1f77b4; stroke: #1f77b4"/>
     <use xlink:href="#m5281ccd550" x="540.023377" y="93.39678" style="fill: #1f77b4; stroke: #1f77b4"/>
     <use xlink:href="#m5281ccd550" x="541.472727" y="97.677022" style="fill: #1f77b4; stroke: #1f77b4"/>
     <use xlink:href="#m5281ccd550" x="542.922078" y="95.335083" style="fill: #1f77b4; stroke: #1f77b4"/>
     <use xlink:href="#m5281ccd550" x="544.371429" y="83.348597" style="fill: #1f77b4; stroke: #1f77b4"/>
     <use xlink:href="#m5281ccd550" x="545.820779" y="86.668928" style="fill: #1f77b4; stroke: #1f77b4"/>
     <use xlink:href="#m5281ccd550" x="547.27013" y="108.648699" style="fill: #1f77b4; stroke: #1f77b4"/>
     <use xlink:href="#m5281ccd550" x="548.719481" y="98.286189" style="fill: #1f77b4; stroke: #1f77b4"/>
     <use xlink:href="#m5281ccd550" x="550.168831" y="97.626976" style="fill: #1f77b4; stroke: #1f77b4"/>
     <use xlink:href="#m5281ccd550" x="551.618182" y="90.601018" style="fill: #1f77b4; stroke: #1f77b4"/>
     <use xlink:href="#m5281ccd550" x="553.067532" y="95.866854" style="fill: #1f77b4; stroke: #1f77b4"/>
     <use xlink:href="#m5281ccd550" x="554.516883" y="73.29345" style="fill: #1f77b4; stroke: #1f77b4"/>
     <use xlink:href="#m5281ccd550" x="555.966234" y="84.053765" style="fill: #1f77b4; stroke: #1f77b4"/>
     <use xlink:href="#m5281ccd550" x="557.415584" y="88.019205" style="fill: #1f77b4; stroke: #1f77b4"/>
     <use xlink:href="#m5281ccd550" x="558.864935" y="89.89881" style="fill: #1f77b4; stroke: #1f77b4"/>
     <use xlink:href="#m5281ccd550" x="560.314286" y="72.951024" style="fill: #1f77b4; stroke: #1f77b4"/>
     <use xlink:href="#m5281ccd550" x="561.763636" y="104.663833" style="fill: #1f77b4; stroke: #1f77b4"/>
     <use xlink:href="#m5281ccd550" x="563.212987" y="77.301112" style="fill: #1f77b4; stroke: #1f77b4"/>
     <use xlink:href="#m5281ccd550" x="564.662338" y="81.239233" style="fill: #1f77b4; stroke: #1f77b4"/>
     <use xlink:href="#m5281ccd550" x="566.111688" y="87.11436" style="fill: #1f77b4; stroke: #1f77b4"/>
     <use xlink:href="#m5281ccd550" x="567.561039" y="75.343665" style="fill: #1f77b4; stroke: #1f77b4"/>
     <use xlink:href="#m5281ccd550" x="569.01039" y="84.120558" style="fill: #1f77b4; stroke: #1f77b4"/>
     <use xlink:href="#m5281ccd550" x="570.45974" y="82.927764" style="fill: #1f77b4; stroke: #1f77b4"/>
     <use xlink:href="#m5281ccd550" x="571.909091" y="80.597312" style="fill: #1f77b4; stroke: #1f77b4"/>
     <use xlink:href="#m5281ccd550" x="573.358442" y="92.265645" style="fill: #1f77b4; stroke: #1f77b4"/>
     <use xlink:href="#m5281ccd550" x="574.807792" y="84.624598" style="fill: #1f77b4; stroke: #1f77b4"/>
     <use xlink:href="#m5281ccd550" x="576.257143" y="91.136888" style="fill: #1f77b4; stroke: #1f77b4"/>
     <use xlink:href="#m5281ccd550" x="577.706494" y="85.998767" style="fill: #1f77b4; stroke: #1f77b4"/>
     <use xlink:href="#m5281ccd550" x="579.155844" y="87.329612" style="fill: #1f77b4; stroke: #1f77b4"/>
     <use xlink:href="#m5281ccd550" x="580.605195" y="88.375383" style="fill: #1f77b4; stroke: #1f77b4"/>
     <use xlink:href="#m5281ccd550" x="582.054545" y="90.791248" style="fill: #1f77b4; stroke: #1f77b4"/>
     <use xlink:href="#m5281ccd550" x="583.503896" y="81.028474" style="fill: #1f77b4; stroke: #1f77b4"/>
     <use xlink:href="#m5281ccd550" x="584.953247" y="78.807655" style="fill: #1f77b4; stroke: #1f77b4"/>
     <use xlink:href="#m5281ccd550" x="586.402597" y="99.862819" style="fill: #1f77b4; stroke: #1f77b4"/>
     <use xlink:href="#m5281ccd550" x="587.851948" y="91.240718" style="fill: #1f77b4; stroke: #1f77b4"/>
     <use xlink:href="#m5281ccd550" x="589.301299" y="97.690097" style="fill: #1f77b4; stroke: #1f77b4"/>
     <use xlink:href="#m5281ccd550" x="590.750649" y="95.316878" style="fill: #1f77b4; stroke: #1f77b4"/>
     <use xlink:href="#m5281ccd550" x="592.2" y="81.827211" style="fill: #1f77b4; stroke: #1f77b4"/>
     <use xlink:href="#m5281ccd550" x="593.649351" y="80.254616" style="fill: #1f77b4; stroke: #1f77b4"/>
     <use xlink:href="#m5281ccd550" x="595.098701" y="68.643851" style="fill: #1f77b4; stroke: #1f77b4"/>
     <use xlink:href="#m5281ccd550" x="596.548052" y="92.646957" style="fill: #1f77b4; stroke: #1f77b4"/>
     <use xlink:href="#m5281ccd550" x="597.997403" y="76.420463" style="fill: #1f77b4; stroke: #1f77b4"/>
     <use xlink:href="#m5281ccd550" x="599.446753" y="95.239782" style="fill: #1f77b4; stroke: #1f77b4"/>
     <use xlink:href="#m5281ccd550" x="600.896104" y="85.239642" style="fill: #1f77b4; stroke: #1f77b4"/>
     <use xlink:href="#m5281ccd550" x="602.345455" y="92.342397" style="fill: #1f77b4; stroke: #1f77b4"/>
     <use xlink:href="#m5281ccd550" x="603.794805" y="84.742576" style="fill: #1f77b4; stroke: #1f77b4"/>
     <use xlink:href="#m5281ccd550" x="605.244156" y="101.117309" style="fill: #1f77b4; stroke: #1f77b4"/>
     <use xlink:href="#m5281ccd550" x="606.693506" y="85.045299" style="fill: #1f77b4; stroke: #1f77b4"/>
     <use xlink:href="#m5281ccd550" x="608.142857" y="106.828365" style="fill: #1f77b4; stroke: #1f77b4"/>
     <use xlink:href="#m5281ccd550" x="609.592208" y="98.510259" style="fill: #1f77b4; stroke: #1f77b4"/>
     <use xlink:href="#m5281ccd550" x="611.041558" y="84.473059" style="fill: #1f77b4; stroke: #1f77b4"/>
     <use xlink:href="#m5281ccd550" x="612.490909" y="90.261255" style="fill: #1f77b4; stroke: #1f77b4"/>
     <use xlink:href="#m5281ccd550" x="613.94026" y="88.55692" style="fill: #1f77b4; stroke: #1f77b4"/>
     <use xlink:href="#m5281ccd550" x="615.38961" y="94.378393" style="fill: #1f77b4; stroke: #1f77b4"/>
     <use xlink:href="#m5281ccd550" x="616.838961" y="97.421843" style="fill: #1f77b4; stroke: #1f77b4"/>
     <use xlink:href="#m5281ccd550" x="618.288312" y="86.667741" style="fill: #1f77b4; stroke: #1f77b4"/>
     <use xlink:href="#m5281ccd550" x="619.737662" y="89.389336" style="fill: #1f77b4; stroke: #1f77b4"/>
     <use xlink:href="#m5281ccd550" x="621.187013" y="89.183788" style="fill: #1f77b4; stroke: #1f77b4"/>
     <use xlink:href="#m5281ccd550" x="622.636364" y="77.811085" style="fill: #1f77b4; stroke: #1f77b4"/>
    </g>
   </g>
   <g id="line2d_15">
    <path d="M 115.363636 93.55263 
L 144.350649 94.132889 
L 166.090909 94.770141 
L 183.483117 95.482662 
L 197.976623 96.289133 
L 209.571429 97.140918 
L 219.716883 98.103307 
L 228.412987 99.154438 
L 235.65974 100.249341 
L 241.457143 101.31604 
L 247.254545 102.604594 
L 251.602597 103.756726 
L 255.950649 105.110401 
L 260.298701 106.717114 
L 264.646753 108.6462 
L 267.545455 110.156938 
L 270.444156 111.889379 
L 273.342857 113.890167 
L 276.241558 116.21887 
L 279.14026 118.952416 
L 282.038961 122.191313 
L 284.937662 126.068447 
L 286.387013 128.29971 
L 287.836364 130.761579 
L 289.285714 133.486184 
L 290.735065 136.511046 
L 292.184416 139.880037 
L 293.633766 143.644492 
L 295.083117 147.864444 
L 296.532468 152.609939 
L 297.981818 157.962341 
L 299.431169 164.015393 
L 300.880519 170.875677 
L 302.32987 178.661786 
L 303.779221 187.501117 
L 305.228571 197.522499 
L 306.677922 208.842053 
L 308.127273 221.5387 
L 309.576623 235.615231 
L 312.475325 267.185092 
L 315.374026 299.653632 
L 316.823377 313.734387 
L 318.272727 324.653414 
L 319.722078 331.281932 
L 321.171429 333.022607 
L 322.620779 330.020675 
L 324.07013 323.126383 
L 325.519481 313.631893 
L 328.418182 292.245669 
L 329.867532 282.50892 
L 331.316883 274.34506 
L 332.766234 268.132719 
L 334.215584 264.079317 
L 335.664935 262.287454 
L 337.114286 262.801267 
L 338.563636 265.630581 
L 340.012987 270.753331 
L 341.462338 278.096365 
L 342.911688 287.494072 
L 344.361039 298.626069 
L 348.709091 335.447187 
L 350.158442 345.135901 
L 351.607792 351.349182 
L 353.057143 353.14495 
L 354.506494 350.249709 
L 355.955844 343.15253 
L 357.405195 332.941724 
L 361.753247 296.831477 
L 363.202597 286.477986 
L 364.651948 278.009404 
L 366.101299 271.700822 
L 367.550649 267.690937 
L 369 266.037218 
L 370.449351 266.748275 
L 371.898701 269.792689 
L 373.348052 275.084447 
L 374.797403 282.444813 
L 376.246753 291.542085 
L 380.594805 322.187938 
L 382.044156 329.751214 
L 383.493506 333.754235 
L 384.942857 333.195338 
L 386.392208 327.726231 
L 387.841558 317.757833 
L 389.290909 304.307692 
L 392.18961 272.133133 
L 395.088312 240.027555 
L 396.537662 225.560388 
L 397.987013 212.458959 
L 399.436364 200.748633 
L 400.885714 190.36562 
L 402.335065 181.200291 
L 403.784416 173.125083 
L 405.233766 166.010972 
L 406.683117 159.73633 
L 408.132468 154.191022 
L 409.581818 149.277722 
L 411.031169 144.911713 
L 412.480519 141.019931 
L 413.92987 137.539698 
L 415.379221 134.417389 
L 416.828571 131.607174 
L 418.277922 129.069863 
L 419.727273 126.771911 
L 422.625974 122.783028 
L 425.524675 119.455173 
L 428.423377 116.649964 
L 431.322078 114.262885 
L 434.220779 112.214049 
L 437.119481 110.441682 
L 440.018182 108.897474 
L 442.916883 107.54324 
L 447.264935 105.803057 
L 451.612987 104.343768 
L 455.961039 103.106895 
L 461.758442 101.729433 
L 467.555844 100.594037 
L 474.802597 99.433473 
L 482.049351 98.491322 
L 490.745455 97.576272 
L 500.890909 96.728729 
L 513.935065 95.887836 
L 528.428571 95.182096 
L 547.27013 94.505411 
L 570.45974 93.914305 
L 599.446753 93.406468 
L 622.636364 93.116469 
L 622.636364 93.116469 
" clip-path="url(#pd26958380b)" style="fill: none; stroke-dasharray: 5.55,2.4; stroke-dashoffset: 0; stroke: #000000; stroke-width: 1.5"/>
   </g>
   <g id="patch_3">
    <path d="M 90 384.48 
L 90 51.84 
" style="fill: none; stroke: #000000; stroke-width: 0.8; stroke-linejoin: miter; stroke-linecap: square"/>
   </g>
   <g id="patch_4">
    <path d="M 648 384.48 
L 648 51.84 
" style="fill: none; stroke: #000000; stroke-width: 0.8; stroke-linejoin: miter; stroke-linecap: square"/>
   </g>
   <g id="patch_5">
    <path d="M 90 384.48 
L 648 384.48 
" style="fill: none; stroke: #000000; stroke-width: 0.8; stroke-linejoin: miter; stroke-linecap: square"/>
   </g>
   <g id="patch_6">
    <path d="M 90 51.84 
L 648 51.84 
" style="fill: none; stroke: #000000; stroke-width: 0.8; stroke-linejoin: miter; stroke-linecap: square"/>
   </g>
   <g id="text_16">
    <!-- RF Power = -28, Line Width = 0.89 MHz -->
    <g transform="translate(250.095937 45.84) scale(0.12 -0.12)">
     <defs>
      <path id="DejaVuSans-52" d="M 2841 2188 
Q 3044 2119 3236 1894 
Q 3428 1669 3622 1275 
L 4263 0 
L 3584 0 
L 2988 1197 
Q 2756 1666 2539 1819 
Q 2322 1972 1947 1972 
L 1259 1972 
L 1259 0 
L 628 0 
L 628 4666 
L 2053 4666 
Q 2853 4666 3247 4331 
Q 3641 3997 3641 3322 
Q 3641 2881 3436 2590 
Q 3231 2300 2841 2188 
z
M 1259 4147 
L 1259 2491 
L 2053 2491 
Q 2509 2491 2742 2702 
Q 2975 2913 2975 3322 
Q 2975 3731 2742 3939 
Q 2509 4147 2053 4147 
L 1259 4147 
z
" transform="scale(0.015625)"/>
      <path id="DejaVuSans-46" d="M 628 4666 
L 3309 4666 
L 3309 4134 
L 1259 4134 
L 1259 2759 
L 3109 2759 
L 3109 2228 
L 1259 2228 
L 1259 0 
L 628 0 
L 628 4666 
z
" transform="scale(0.015625)"/>
      <path id="DejaVuSans-50" d="M 1259 4147 
L 1259 2394 
L 2053 2394 
Q 2494 2394 2734 2622 
Q 2975 2850 2975 3272 
Q 2975 3691 2734 3919 
Q 2494 4147 2053 4147 
L 1259 4147 
z
M 628 4666 
L 2053 4666 
Q 2838 4666 3239 4311 
Q 3641 3956 3641 3272 
Q 3641 2581 3239 2228 
Q 2838 1875 2053 1875 
L 1259 1875 
L 1259 0 
L 628 0 
L 628 4666 
z
" transform="scale(0.015625)"/>
      <path id="DejaVuSans-77" d="M 269 3500 
L 844 3500 
L 1563 769 
L 2278 3500 
L 2956 3500 
L 3675 769 
L 4391 3500 
L 4966 3500 
L 4050 0 
L 3372 0 
L 2619 2869 
L 1863 0 
L 1184 0 
L 269 3500 
z
" transform="scale(0.015625)"/>
      <path id="DejaVuSans-3d" d="M 678 2906 
L 4684 2906 
L 4684 2381 
L 678 2381 
L 678 2906 
z
M 678 1631 
L 4684 1631 
L 4684 1100 
L 678 1100 
L 678 1631 
z
" transform="scale(0.015625)"/>
      <path id="DejaVuSans-2d" d="M 313 2009 
L 1997 2009 
L 1997 1497 
L 313 1497 
L 313 2009 
z
" transform="scale(0.015625)"/>
      <path id="DejaVuSans-2c" d="M 750 794 
L 1409 794 
L 1409 256 
L 897 -744 
L 494 -744 
L 750 256 
L 750 794 
z
" transform="scale(0.015625)"/>
      <path id="DejaVuSans-4c" d="M 628 4666 
L 1259 4666 
L 1259 531 
L 3531 531 
L 3531 0 
L 628 0 
L 628 4666 
z
" transform="scale(0.015625)"/>
      <path id="DejaVuSans-69" d="M 603 3500 
L 1178 3500 
L 1178 0 
L 603 0 
L 603 3500 
z
M 603 4863 
L 1178 4863 
L 1178 4134 
L 603 4134 
L 603 4863 
z
" transform="scale(0.015625)"/>
      <path id="DejaVuSans-57" d="M 213 4666 
L 850 4666 
L 1831 722 
L 2809 4666 
L 3519 4666 
L 4500 722 
L 5478 4666 
L 6119 4666 
L 4947 0 
L 4153 0 
L 3169 4050 
L 2175 0 
L 1381 0 
L 213 4666 
z
" transform="scale(0.015625)"/>
      <path id="DejaVuSans-64" d="M 2906 2969 
L 2906 4863 
L 3481 4863 
L 3481 0 
L 2906 0 
L 2906 525 
Q 2725 213 2448 61 
Q 2172 -91 1784 -91 
Q 1150 -91 751 415 
Q 353 922 353 1747 
Q 353 2572 751 3078 
Q 1150 3584 1784 3584 
Q 2172 3584 2448 3432 
Q 2725 3281 2906 2969 
z
M 947 1747 
Q 947 1113 1208 752 
Q 1469 391 1925 391 
Q 2381 391 2643 752 
Q 2906 1113 2906 1747 
Q 2906 2381 2643 2742 
Q 2381 3103 1925 3103 
Q 1469 3103 1208 2742 
Q 947 2381 947 1747 
z
" transform="scale(0.015625)"/>
      <path id="DejaVuSans-68" d="M 3513 2113 
L 3513 0 
L 2938 0 
L 2938 2094 
Q 2938 2591 2744 2837 
Q 2550 3084 2163 3084 
Q 1697 3084 1428 2787 
Q 1159 2491 1159 1978 
L 1159 0 
L 581 0 
L 581 4863 
L 1159 4863 
L 1159 2956 
Q 1366 3272 1645 3428 
Q 1925 3584 2291 3584 
Q 2894 3584 3203 3211 
Q 3513 2838 3513 2113 
z
" transform="scale(0.015625)"/>
     </defs>
     <use xlink:href="#DejaVuSans-52"/>
     <use xlink:href="#DejaVuSans-46" x="69.482422"/>
     <use xlink:href="#DejaVuSans-20" x="127.001953"/>
     <use xlink:href="#DejaVuSans-50" x="158.789062"/>
     <use xlink:href="#DejaVuSans-6f" x="215.466797"/>
     <use xlink:href="#DejaVuSans-77" x="276.648438"/>
     <use xlink:href="#DejaVuSans-65" x="358.435547"/>
     <use xlink:href="#DejaVuSans-72" x="419.958984"/>
     <use xlink:href="#DejaVuSans-20" x="461.072266"/>
     <use xlink:href="#DejaVuSans-3d" x="492.859375"/>
     <use xlink:href="#DejaVuSans-20" x="576.648438"/>
     <use xlink:href="#DejaVuSans-2d" x="608.435547"/>
     <use xlink:href="#DejaVuSans-32" x="644.519531"/>
     <use xlink:href="#DejaVuSans-38" x="708.142578"/>
     <use xlink:href="#DejaVuSans-2c" x="771.765625"/>
     <use xlink:href="#DejaVuSans-20" x="803.552734"/>
     <use xlink:href="#DejaVuSans-4c" x="835.339844"/>
     <use xlink:href="#DejaVuSans-69" x="891.052734"/>
     <use xlink:href="#DejaVuSans-6e" x="918.835938"/>
     <use xlink:href="#DejaVuSans-65" x="982.214844"/>
     <use xlink:href="#DejaVuSans-20" x="1043.738281"/>
     <use xlink:href="#DejaVuSans-57" x="1075.525391"/>
     <use xlink:href="#DejaVuSans-69" x="1172.152344"/>
     <use xlink:href="#DejaVuSans-64" x="1199.935547"/>
     <use xlink:href="#DejaVuSans-74" x="1263.412109"/>
     <use xlink:href="#DejaVuSans-68" x="1302.621094"/>
     <use xlink:href="#DejaVuSans-20" x="1366"/>
     <use xlink:href="#DejaVuSans-3d" x="1397.787109"/>
     <use xlink:href="#DejaVuSans-20" x="1481.576172"/>
     <use xlink:href="#DejaVuSans-30" x="1513.363281"/>
     <use xlink:href="#DejaVuSans-2e" x="1576.986328"/>
     <use xlink:href="#DejaVuSans-38" x="1608.773438"/>
     <use xlink:href="#DejaVuSans-39" x="1672.396484"/>
     <use xlink:href="#DejaVuSans-20" x="1736.019531"/>
     <use xlink:href="#DejaVuSans-4d" x="1767.806641"/>
     <use xlink:href="#DejaVuSans-48" x="1854.085938"/>
     <use xlink:href="#DejaVuSans-7a" x="1929.28125"/>
    </g>
   </g>
   <g id="legend_1">
    <g id="patch_7">
     <path d="M 97 379.48 
L 152.876563 379.48 
Q 154.876563 379.48 154.876563 377.48 
L 154.876563 349.12375 
Q 154.876563 347.12375 152.876563 347.12375 
L 97 347.12375 
Q 95 347.12375 95 349.12375 
L 95 377.48 
Q 95 379.48 97 379.48 
z
" style="fill: #ffffff; opacity: 0.8; stroke: #cccccc; stroke-linejoin: miter"/>
    </g>
    <g id="line2d_16">
     <path d="M 99 355.222188 
L 109 355.222188 
L 119 355.222188 
" style="fill: none; stroke: #1f77b4; stroke-width: 1.5; stroke-linecap: square"/>
     <g>
      <use xlink:href="#m5281ccd550" x="109" y="355.222188" style="fill: #1f77b4; stroke: #1f77b4"/>
     </g>
    </g>
    <g id="text_17">
     <!-- Data -->
     <g transform="translate(127 358.722188) scale(0.1 -0.1)">
      <defs>
       <path id="DejaVuSans-44" d="M 1259 4147 
L 1259 519 
L 2022 519 
Q 2988 519 3436 956 
Q 3884 1394 3884 2338 
Q 3884 3275 3436 3711 
Q 2988 4147 2022 4147 
L 1259 4147 
z
M 628 4666 
L 1925 4666 
Q 3281 4666 3915 4102 
Q 4550 3538 4550 2338 
Q 4550 1131 3912 565 
Q 3275 0 1925 0 
L 628 0 
L 628 4666 
z
" transform="scale(0.015625)"/>
      </defs>
      <use xlink:href="#DejaVuSans-44"/>
      <use xlink:href="#DejaVuSans-61" x="77.001953"/>
      <use xlink:href="#DejaVuSans-74" x="138.28125"/>
      <use xlink:href="#DejaVuSans-61" x="177.490234"/>
     </g>
    </g>
    <g id="line2d_17">
     <path d="M 99 369.900312 
L 109 369.900312 
L 119 369.900312 
" style="fill: none; stroke-dasharray: 5.55,2.4; stroke-dashoffset: 0; stroke: #000000; stroke-width: 1.5"/>
    </g>
    <g id="text_18">
     <!-- Fit -->
     <g transform="translate(127 373.400312) scale(0.1 -0.1)">
      <use xlink:href="#DejaVuSans-46"/>
      <use xlink:href="#DejaVuSans-69" x="50.269531"/>
      <use xlink:href="#DejaVuSans-74" x="78.052734"/>
     </g>
    </g>
   </g>
  </g>
 </g>
 <defs>
  <clipPath id="pd26958380b">
   <rect x="90" y="51.84" width="558" height="332.64"/>
  </clipPath>
 </defs>
</svg>
