<?xml version="1.0" encoding="utf-8" standalone="no"?>
<!DOCTYPE svg PUBLIC "-//W3C//DTD SVG 1.1//EN"
  "http://www.w3.org/Graphics/SVG/1.1/DTD/svg11.dtd">
<svg xmlns:xlink="http://www.w3.org/1999/xlink" width="720pt" height="432pt" viewBox="0 0 720 432" xmlns="http://www.w3.org/2000/svg" version="1.1">
 <metadata>
  <rdf:RDF xmlns:dc="http://purl.org/dc/elements/1.1/" xmlns:cc="http://creativecommons.org/ns#" xmlns:rdf="http://www.w3.org/1999/02/22-rdf-syntax-ns#">
   <cc:Work>
    <dc:type rdf:resource="http://purl.org/dc/dcmitype/StillImage"/>
    <dc:date>2023-03-30T12:46:15.791756</dc:date>
    <dc:format>image/svg+xml</dc:format>
    <dc:creator>
     <cc:Agent>
      <dc:title>Matplotlib v3.7.0, https://matplotlib.org/</dc:title>
     </cc:Agent>
    </dc:creator>
   </cc:Work>
  </rdf:RDF>
 </metadata>
 <defs>
  <style type="text/css">*{stroke-linejoin: round; stroke-linecap: butt}</style>
 </defs>
 <g id="figure_1">
  <g id="patch_1">
   <path d="M 0 432 
L 720 432 
L 720 0 
L 0 0 
L 0 432 
z
" style="fill: none"/>
  </g>
  <g id="axes_1">
   <g id="patch_2">
    <path d="M 90 384.48 
L 648 384.48 
L 648 51.84 
L 90 51.84 
L 90 384.48 
z
" style="fill: none"/>
   </g>
   <g id="matplotlib.axis_1">
    <g id="xtick_1">
     <g id="line2d_1">
      <defs>
       <path id="m3374a80d89" d="M 0 0 
L 0 3.5 
" style="stroke: #000000; stroke-width: 0.8"/>
      </defs>
      <g>
       <use xlink:href="#m3374a80d89" x="115.363636" y="384.48" style="stroke: #000000; stroke-width: 0.8"/>
      </g>
     </g>
     <g id="text_1">
      <!-- 2765 -->
      <g transform="translate(102.638636 399.078438) scale(0.1 -0.1)">
       <defs>
        <path id="DejaVuSans-32" d="M 1228 531 
L 3431 531 
L 3431 0 
L 469 0 
L 469 531 
Q 828 903 1448 1529 
Q 2069 2156 2228 2338 
Q 2531 2678 2651 2914 
Q 2772 3150 2772 3378 
Q 2772 3750 2511 3984 
Q 2250 4219 1831 4219 
Q 1534 4219 1204 4116 
Q 875 4013 500 3803 
L 500 4441 
Q 881 4594 1212 4672 
Q 1544 4750 1819 4750 
Q 2544 4750 2975 4387 
Q 3406 4025 3406 3419 
Q 3406 3131 3298 2873 
Q 3191 2616 2906 2266 
Q 2828 2175 2409 1742 
Q 1991 1309 1228 531 
z
" transform="scale(0.015625)"/>
        <path id="DejaVuSans-37" d="M 525 4666 
L 3525 4666 
L 3525 4397 
L 1831 0 
L 1172 0 
L 2766 4134 
L 525 4134 
L 525 4666 
z
" transform="scale(0.015625)"/>
        <path id="DejaVuSans-36" d="M 2113 2584 
Q 1688 2584 1439 2293 
Q 1191 2003 1191 1497 
Q 1191 994 1439 701 
Q 1688 409 2113 409 
Q 2538 409 2786 701 
Q 3034 994 3034 1497 
Q 3034 2003 2786 2293 
Q 2538 2584 2113 2584 
z
M 3366 4563 
L 3366 3988 
Q 3128 4100 2886 4159 
Q 2644 4219 2406 4219 
Q 1781 4219 1451 3797 
Q 1122 3375 1075 2522 
Q 1259 2794 1537 2939 
Q 1816 3084 2150 3084 
Q 2853 3084 3261 2657 
Q 3669 2231 3669 1497 
Q 3669 778 3244 343 
Q 2819 -91 2113 -91 
Q 1303 -91 875 529 
Q 447 1150 447 2328 
Q 447 3434 972 4092 
Q 1497 4750 2381 4750 
Q 2619 4750 2861 4703 
Q 3103 4656 3366 4563 
z
" transform="scale(0.015625)"/>
        <path id="DejaVuSans-35" d="M 691 4666 
L 3169 4666 
L 3169 4134 
L 1269 4134 
L 1269 2991 
Q 1406 3038 1543 3061 
Q 1681 3084 1819 3084 
Q 2600 3084 3056 2656 
Q 3513 2228 3513 1497 
Q 3513 744 3044 326 
Q 2575 -91 1722 -91 
Q 1428 -91 1123 -41 
Q 819 9 494 109 
L 494 744 
Q 775 591 1075 516 
Q 1375 441 1709 441 
Q 2250 441 2565 725 
Q 2881 1009 2881 1497 
Q 2881 1984 2565 2268 
Q 2250 2553 1709 2553 
Q 1456 2553 1204 2497 
Q 953 2441 691 2322 
L 691 4666 
z
" transform="scale(0.015625)"/>
       </defs>
       <use xlink:href="#DejaVuSans-32"/>
       <use xlink:href="#DejaVuSans-37" x="63.623047"/>
       <use xlink:href="#DejaVuSans-36" x="127.246094"/>
       <use xlink:href="#DejaVuSans-35" x="190.869141"/>
      </g>
     </g>
    </g>
    <g id="xtick_2">
     <g id="line2d_2">
      <g>
       <use xlink:href="#m3374a80d89" x="187.831169" y="384.48" style="stroke: #000000; stroke-width: 0.8"/>
      </g>
     </g>
     <g id="text_2">
      <!-- 2770 -->
      <g transform="translate(175.106169 399.078438) scale(0.1 -0.1)">
       <defs>
        <path id="DejaVuSans-30" d="M 2034 4250 
Q 1547 4250 1301 3770 
Q 1056 3291 1056 2328 
Q 1056 1369 1301 889 
Q 1547 409 2034 409 
Q 2525 409 2770 889 
Q 3016 1369 3016 2328 
Q 3016 3291 2770 3770 
Q 2525 4250 2034 4250 
z
M 2034 4750 
Q 2819 4750 3233 4129 
Q 3647 3509 3647 2328 
Q 3647 1150 3233 529 
Q 2819 -91 2034 -91 
Q 1250 -91 836 529 
Q 422 1150 422 2328 
Q 422 3509 836 4129 
Q 1250 4750 2034 4750 
z
" transform="scale(0.015625)"/>
       </defs>
       <use xlink:href="#DejaVuSans-32"/>
       <use xlink:href="#DejaVuSans-37" x="63.623047"/>
       <use xlink:href="#DejaVuSans-37" x="127.246094"/>
       <use xlink:href="#DejaVuSans-30" x="190.869141"/>
      </g>
     </g>
    </g>
    <g id="xtick_3">
     <g id="line2d_3">
      <g>
       <use xlink:href="#m3374a80d89" x="260.298701" y="384.48" style="stroke: #000000; stroke-width: 0.8"/>
      </g>
     </g>
     <g id="text_3">
      <!-- 2775 -->
      <g transform="translate(247.573701 399.078438) scale(0.1 -0.1)">
       <use xlink:href="#DejaVuSans-32"/>
       <use xlink:href="#DejaVuSans-37" x="63.623047"/>
       <use xlink:href="#DejaVuSans-37" x="127.246094"/>
       <use xlink:href="#DejaVuSans-35" x="190.869141"/>
      </g>
     </g>
    </g>
    <g id="xtick_4">
     <g id="line2d_4">
      <g>
       <use xlink:href="#m3374a80d89" x="332.766234" y="384.48" style="stroke: #000000; stroke-width: 0.8"/>
      </g>
     </g>
     <g id="text_4">
      <!-- 2780 -->
      <g transform="translate(320.041234 399.078438) scale(0.1 -0.1)">
       <defs>
        <path id="DejaVuSans-38" d="M 2034 2216 
Q 1584 2216 1326 1975 
Q 1069 1734 1069 1313 
Q 1069 891 1326 650 
Q 1584 409 2034 409 
Q 2484 409 2743 651 
Q 3003 894 3003 1313 
Q 3003 1734 2745 1975 
Q 2488 2216 2034 2216 
z
M 1403 2484 
Q 997 2584 770 2862 
Q 544 3141 544 3541 
Q 544 4100 942 4425 
Q 1341 4750 2034 4750 
Q 2731 4750 3128 4425 
Q 3525 4100 3525 3541 
Q 3525 3141 3298 2862 
Q 3072 2584 2669 2484 
Q 3125 2378 3379 2068 
Q 3634 1759 3634 1313 
Q 3634 634 3220 271 
Q 2806 -91 2034 -91 
Q 1263 -91 848 271 
Q 434 634 434 1313 
Q 434 1759 690 2068 
Q 947 2378 1403 2484 
z
M 1172 3481 
Q 1172 3119 1398 2916 
Q 1625 2713 2034 2713 
Q 2441 2713 2670 2916 
Q 2900 3119 2900 3481 
Q 2900 3844 2670 4047 
Q 2441 4250 2034 4250 
Q 1625 4250 1398 4047 
Q 1172 3844 1172 3481 
z
" transform="scale(0.015625)"/>
       </defs>
       <use xlink:href="#DejaVuSans-32"/>
       <use xlink:href="#DejaVuSans-37" x="63.623047"/>
       <use xlink:href="#DejaVuSans-38" x="127.246094"/>
       <use xlink:href="#DejaVuSans-30" x="190.869141"/>
      </g>
     </g>
    </g>
    <g id="xtick_5">
     <g id="line2d_5">
      <g>
       <use xlink:href="#m3374a80d89" x="405.233766" y="384.48" style="stroke: #000000; stroke-width: 0.8"/>
      </g>
     </g>
     <g id="text_5">
      <!-- 2785 -->
      <g transform="translate(392.508766 399.078438) scale(0.1 -0.1)">
       <use xlink:href="#DejaVuSans-32"/>
       <use xlink:href="#DejaVuSans-37" x="63.623047"/>
       <use xlink:href="#DejaVuSans-38" x="127.246094"/>
       <use xlink:href="#DejaVuSans-35" x="190.869141"/>
      </g>
     </g>
    </g>
    <g id="xtick_6">
     <g id="line2d_6">
      <g>
       <use xlink:href="#m3374a80d89" x="477.701299" y="384.48" style="stroke: #000000; stroke-width: 0.8"/>
      </g>
     </g>
     <g id="text_6">
      <!-- 2790 -->
      <g transform="translate(464.976299 399.078438) scale(0.1 -0.1)">
       <defs>
        <path id="DejaVuSans-39" d="M 703 97 
L 703 672 
Q 941 559 1184 500 
Q 1428 441 1663 441 
Q 2288 441 2617 861 
Q 2947 1281 2994 2138 
Q 2813 1869 2534 1725 
Q 2256 1581 1919 1581 
Q 1219 1581 811 2004 
Q 403 2428 403 3163 
Q 403 3881 828 4315 
Q 1253 4750 1959 4750 
Q 2769 4750 3195 4129 
Q 3622 3509 3622 2328 
Q 3622 1225 3098 567 
Q 2575 -91 1691 -91 
Q 1453 -91 1209 -44 
Q 966 3 703 97 
z
M 1959 2075 
Q 2384 2075 2632 2365 
Q 2881 2656 2881 3163 
Q 2881 3666 2632 3958 
Q 2384 4250 1959 4250 
Q 1534 4250 1286 3958 
Q 1038 3666 1038 3163 
Q 1038 2656 1286 2365 
Q 1534 2075 1959 2075 
z
" transform="scale(0.015625)"/>
       </defs>
       <use xlink:href="#DejaVuSans-32"/>
       <use xlink:href="#DejaVuSans-37" x="63.623047"/>
       <use xlink:href="#DejaVuSans-39" x="127.246094"/>
       <use xlink:href="#DejaVuSans-30" x="190.869141"/>
      </g>
     </g>
    </g>
    <g id="xtick_7">
     <g id="line2d_7">
      <g>
       <use xlink:href="#m3374a80d89" x="550.168831" y="384.48" style="stroke: #000000; stroke-width: 0.8"/>
      </g>
     </g>
     <g id="text_7">
      <!-- 2795 -->
      <g transform="translate(537.443831 399.078438) scale(0.1 -0.1)">
       <use xlink:href="#DejaVuSans-32"/>
       <use xlink:href="#DejaVuSans-37" x="63.623047"/>
       <use xlink:href="#DejaVuSans-39" x="127.246094"/>
       <use xlink:href="#DejaVuSans-35" x="190.869141"/>
      </g>
     </g>
    </g>
    <g id="xtick_8">
     <g id="line2d_8">
      <g>
       <use xlink:href="#m3374a80d89" x="622.636364" y="384.48" style="stroke: #000000; stroke-width: 0.8"/>
      </g>
     </g>
     <g id="text_8">
      <!-- 2800 -->
      <g transform="translate(609.911364 399.078438) scale(0.1 -0.1)">
       <use xlink:href="#DejaVuSans-32"/>
       <use xlink:href="#DejaVuSans-38" x="63.623047"/>
       <use xlink:href="#DejaVuSans-30" x="127.246094"/>
       <use xlink:href="#DejaVuSans-30" x="190.869141"/>
      </g>
     </g>
    </g>
    <g id="text_9">
     <!-- frequency [MHz] -->
     <g transform="translate(327.734375 412.756563) scale(0.1 -0.1)">
      <defs>
       <path id="DejaVuSans-66" d="M 2375 4863 
L 2375 4384 
L 1825 4384 
Q 1516 4384 1395 4259 
Q 1275 4134 1275 3809 
L 1275 3500 
L 2222 3500 
L 2222 3053 
L 1275 3053 
L 1275 0 
L 697 0 
L 697 3053 
L 147 3053 
L 147 3500 
L 697 3500 
L 697 3744 
Q 697 4328 969 4595 
Q 1241 4863 1831 4863 
L 2375 4863 
z
" transform="scale(0.015625)"/>
       <path id="DejaVuSans-72" d="M 2631 2963 
Q 2534 3019 2420 3045 
Q 2306 3072 2169 3072 
Q 1681 3072 1420 2755 
Q 1159 2438 1159 1844 
L 1159 0 
L 581 0 
L 581 3500 
L 1159 3500 
L 1159 2956 
Q 1341 3275 1631 3429 
Q 1922 3584 2338 3584 
Q 2397 3584 2469 3576 
Q 2541 3569 2628 3553 
L 2631 2963 
z
" transform="scale(0.015625)"/>
       <path id="DejaVuSans-65" d="M 3597 1894 
L 3597 1613 
L 953 1613 
Q 991 1019 1311 708 
Q 1631 397 2203 397 
Q 2534 397 2845 478 
Q 3156 559 3463 722 
L 3463 178 
Q 3153 47 2828 -22 
Q 2503 -91 2169 -91 
Q 1331 -91 842 396 
Q 353 884 353 1716 
Q 353 2575 817 3079 
Q 1281 3584 2069 3584 
Q 2775 3584 3186 3129 
Q 3597 2675 3597 1894 
z
M 3022 2063 
Q 3016 2534 2758 2815 
Q 2500 3097 2075 3097 
Q 1594 3097 1305 2825 
Q 1016 2553 972 2059 
L 3022 2063 
z
" transform="scale(0.015625)"/>
       <path id="DejaVuSans-71" d="M 947 1747 
Q 947 1113 1208 752 
Q 1469 391 1925 391 
Q 2381 391 2643 752 
Q 2906 1113 2906 1747 
Q 2906 2381 2643 2742 
Q 2381 3103 1925 3103 
Q 1469 3103 1208 2742 
Q 947 2381 947 1747 
z
M 2906 525 
Q 2725 213 2448 61 
Q 2172 -91 1784 -91 
Q 1150 -91 751 415 
Q 353 922 353 1747 
Q 353 2572 751 3078 
Q 1150 3584 1784 3584 
Q 2172 3584 2448 3432 
Q 2725 3281 2906 2969 
L 2906 3500 
L 3481 3500 
L 3481 -1331 
L 2906 -1331 
L 2906 525 
z
" transform="scale(0.015625)"/>
       <path id="DejaVuSans-75" d="M 544 1381 
L 544 3500 
L 1119 3500 
L 1119 1403 
Q 1119 906 1312 657 
Q 1506 409 1894 409 
Q 2359 409 2629 706 
Q 2900 1003 2900 1516 
L 2900 3500 
L 3475 3500 
L 3475 0 
L 2900 0 
L 2900 538 
Q 2691 219 2414 64 
Q 2138 -91 1772 -91 
Q 1169 -91 856 284 
Q 544 659 544 1381 
z
M 1991 3584 
L 1991 3584 
z
" transform="scale(0.015625)"/>
       <path id="DejaVuSans-6e" d="M 3513 2113 
L 3513 0 
L 2938 0 
L 2938 2094 
Q 2938 2591 2744 2837 
Q 2550 3084 2163 3084 
Q 1697 3084 1428 2787 
Q 1159 2491 1159 1978 
L 1159 0 
L 581 0 
L 581 3500 
L 1159 3500 
L 1159 2956 
Q 1366 3272 1645 3428 
Q 1925 3584 2291 3584 
Q 2894 3584 3203 3211 
Q 3513 2838 3513 2113 
z
" transform="scale(0.015625)"/>
       <path id="DejaVuSans-63" d="M 3122 3366 
L 3122 2828 
Q 2878 2963 2633 3030 
Q 2388 3097 2138 3097 
Q 1578 3097 1268 2742 
Q 959 2388 959 1747 
Q 959 1106 1268 751 
Q 1578 397 2138 397 
Q 2388 397 2633 464 
Q 2878 531 3122 666 
L 3122 134 
Q 2881 22 2623 -34 
Q 2366 -91 2075 -91 
Q 1284 -91 818 406 
Q 353 903 353 1747 
Q 353 2603 823 3093 
Q 1294 3584 2113 3584 
Q 2378 3584 2631 3529 
Q 2884 3475 3122 3366 
z
" transform="scale(0.015625)"/>
       <path id="DejaVuSans-79" d="M 2059 -325 
Q 1816 -950 1584 -1140 
Q 1353 -1331 966 -1331 
L 506 -1331 
L 506 -850 
L 844 -850 
Q 1081 -850 1212 -737 
Q 1344 -625 1503 -206 
L 1606 56 
L 191 3500 
L 800 3500 
L 1894 763 
L 2988 3500 
L 3597 3500 
L 2059 -325 
z
" transform="scale(0.015625)"/>
       <path id="DejaVuSans-20" transform="scale(0.015625)"/>
       <path id="DejaVuSans-5b" d="M 550 4863 
L 1875 4863 
L 1875 4416 
L 1125 4416 
L 1125 -397 
L 1875 -397 
L 1875 -844 
L 550 -844 
L 550 4863 
z
" transform="scale(0.015625)"/>
       <path id="DejaVuSans-4d" d="M 628 4666 
L 1569 4666 
L 2759 1491 
L 3956 4666 
L 4897 4666 
L 4897 0 
L 4281 0 
L 4281 4097 
L 3078 897 
L 2444 897 
L 1241 4097 
L 1241 0 
L 628 0 
L 628 4666 
z
" transform="scale(0.015625)"/>
       <path id="DejaVuSans-48" d="M 628 4666 
L 1259 4666 
L 1259 2753 
L 3553 2753 
L 3553 4666 
L 4184 4666 
L 4184 0 
L 3553 0 
L 3553 2222 
L 1259 2222 
L 1259 0 
L 628 0 
L 628 4666 
z
" transform="scale(0.015625)"/>
       <path id="DejaVuSans-7a" d="M 353 3500 
L 3084 3500 
L 3084 2975 
L 922 459 
L 3084 459 
L 3084 0 
L 275 0 
L 275 525 
L 2438 3041 
L 353 3041 
L 353 3500 
z
" transform="scale(0.015625)"/>
       <path id="DejaVuSans-5d" d="M 1947 4863 
L 1947 -844 
L 622 -844 
L 622 -397 
L 1369 -397 
L 1369 4416 
L 622 4416 
L 622 4863 
L 1947 4863 
z
" transform="scale(0.015625)"/>
      </defs>
      <use xlink:href="#DejaVuSans-66"/>
      <use xlink:href="#DejaVuSans-72" x="35.205078"/>
      <use xlink:href="#DejaVuSans-65" x="74.068359"/>
      <use xlink:href="#DejaVuSans-71" x="135.591797"/>
      <use xlink:href="#DejaVuSans-75" x="199.068359"/>
      <use xlink:href="#DejaVuSans-65" x="262.447266"/>
      <use xlink:href="#DejaVuSans-6e" x="323.970703"/>
      <use xlink:href="#DejaVuSans-63" x="387.349609"/>
      <use xlink:href="#DejaVuSans-79" x="442.330078"/>
      <use xlink:href="#DejaVuSans-20" x="501.509766"/>
      <use xlink:href="#DejaVuSans-5b" x="533.296875"/>
      <use xlink:href="#DejaVuSans-4d" x="572.310547"/>
      <use xlink:href="#DejaVuSans-48" x="658.589844"/>
      <use xlink:href="#DejaVuSans-7a" x="733.785156"/>
      <use xlink:href="#DejaVuSans-5d" x="786.275391"/>
     </g>
    </g>
   </g>
   <g id="matplotlib.axis_2">
    <g id="ytick_1">
     <g id="line2d_9">
      <defs>
       <path id="m4b491ac46e" d="M 0 0 
L -3.5 0 
" style="stroke: #000000; stroke-width: 0.8"/>
      </defs>
      <g>
       <use xlink:href="#m4b491ac46e" x="90" y="368.952072" style="stroke: #000000; stroke-width: 0.8"/>
      </g>
     </g>
     <g id="text_10">
      <!-- 0.986 -->
      <g transform="translate(54.371875 372.751291) scale(0.1 -0.1)">
       <defs>
        <path id="DejaVuSans-2e" d="M 684 794 
L 1344 794 
L 1344 0 
L 684 0 
L 684 794 
z
" transform="scale(0.015625)"/>
       </defs>
       <use xlink:href="#DejaVuSans-30"/>
       <use xlink:href="#DejaVuSans-2e" x="63.623047"/>
       <use xlink:href="#DejaVuSans-39" x="95.410156"/>
       <use xlink:href="#DejaVuSans-38" x="159.033203"/>
       <use xlink:href="#DejaVuSans-36" x="222.65625"/>
      </g>
     </g>
    </g>
    <g id="ytick_2">
     <g id="line2d_10">
      <g>
       <use xlink:href="#m4b491ac46e" x="90" y="331.124721" style="stroke: #000000; stroke-width: 0.8"/>
      </g>
     </g>
     <g id="text_11">
      <!-- 0.988 -->
      <g transform="translate(54.371875 334.923939) scale(0.1 -0.1)">
       <use xlink:href="#DejaVuSans-30"/>
       <use xlink:href="#DejaVuSans-2e" x="63.623047"/>
       <use xlink:href="#DejaVuSans-39" x="95.410156"/>
       <use xlink:href="#DejaVuSans-38" x="159.033203"/>
       <use xlink:href="#DejaVuSans-38" x="222.65625"/>
      </g>
     </g>
    </g>
    <g id="ytick_3">
     <g id="line2d_11">
      <g>
       <use xlink:href="#m4b491ac46e" x="90" y="293.297369" style="stroke: #000000; stroke-width: 0.8"/>
      </g>
     </g>
     <g id="text_12">
      <!-- 0.990 -->
      <g transform="translate(54.371875 297.096587) scale(0.1 -0.1)">
       <use xlink:href="#DejaVuSans-30"/>
       <use xlink:href="#DejaVuSans-2e" x="63.623047"/>
       <use xlink:href="#DejaVuSans-39" x="95.410156"/>
       <use xlink:href="#DejaVuSans-39" x="159.033203"/>
       <use xlink:href="#DejaVuSans-30" x="222.65625"/>
      </g>
     </g>
    </g>
    <g id="ytick_4">
     <g id="line2d_12">
      <g>
       <use xlink:href="#m4b491ac46e" x="90" y="255.470017" style="stroke: #000000; stroke-width: 0.8"/>
      </g>
     </g>
     <g id="text_13">
      <!-- 0.992 -->
      <g transform="translate(54.371875 259.269236) scale(0.1 -0.1)">
       <use xlink:href="#DejaVuSans-30"/>
       <use xlink:href="#DejaVuSans-2e" x="63.623047"/>
       <use xlink:href="#DejaVuSans-39" x="95.410156"/>
       <use xlink:href="#DejaVuSans-39" x="159.033203"/>
       <use xlink:href="#DejaVuSans-32" x="222.65625"/>
      </g>
     </g>
    </g>
    <g id="ytick_5">
     <g id="line2d_13">
      <g>
       <use xlink:href="#m4b491ac46e" x="90" y="217.642665" style="stroke: #000000; stroke-width: 0.8"/>
      </g>
     </g>
     <g id="text_14">
      <!-- 0.994 -->
      <g transform="translate(54.371875 221.441884) scale(0.1 -0.1)">
       <defs>
        <path id="DejaVuSans-34" d="M 2419 4116 
L 825 1625 
L 2419 1625 
L 2419 4116 
z
M 2253 4666 
L 3047 4666 
L 3047 1625 
L 3713 1625 
L 3713 1100 
L 3047 1100 
L 3047 0 
L 2419 0 
L 2419 1100 
L 313 1100 
L 313 1709 
L 2253 4666 
z
" transform="scale(0.015625)"/>
       </defs>
       <use xlink:href="#DejaVuSans-30"/>
       <use xlink:href="#DejaVuSans-2e" x="63.623047"/>
       <use xlink:href="#DejaVuSans-39" x="95.410156"/>
       <use xlink:href="#DejaVuSans-39" x="159.033203"/>
       <use xlink:href="#DejaVuSans-34" x="222.65625"/>
      </g>
     </g>
    </g>
    <g id="ytick_6">
     <g id="line2d_14">
      <g>
       <use xlink:href="#m4b491ac46e" x="90" y="179.815313" style="stroke: #000000; stroke-width: 0.8"/>
      </g>
     </g>
     <g id="text_15">
      <!-- 0.996 -->
      <g transform="translate(54.371875 183.614532) scale(0.1 -0.1)">
       <use xlink:href="#DejaVuSans-30"/>
       <use xlink:href="#DejaVuSans-2e" x="63.623047"/>
       <use xlink:href="#DejaVuSans-39" x="95.410156"/>
       <use xlink:href="#DejaVuSans-39" x="159.033203"/>
       <use xlink:href="#DejaVuSans-36" x="222.65625"/>
      </g>
     </g>
    </g>
    <g id="ytick_7">
     <g id="line2d_15">
      <g>
       <use xlink:href="#m4b491ac46e" x="90" y="141.987961" style="stroke: #000000; stroke-width: 0.8"/>
      </g>
     </g>
     <g id="text_16">
      <!-- 0.998 -->
      <g transform="translate(54.371875 145.78718) scale(0.1 -0.1)">
       <use xlink:href="#DejaVuSans-30"/>
       <use xlink:href="#DejaVuSans-2e" x="63.623047"/>
       <use xlink:href="#DejaVuSans-39" x="95.410156"/>
       <use xlink:href="#DejaVuSans-39" x="159.033203"/>
       <use xlink:href="#DejaVuSans-38" x="222.65625"/>
      </g>
     </g>
    </g>
    <g id="ytick_8">
     <g id="line2d_16">
      <g>
       <use xlink:href="#m4b491ac46e" x="90" y="104.16061" style="stroke: #000000; stroke-width: 0.8"/>
      </g>
     </g>
     <g id="text_17">
      <!-- 1.000 -->
      <g transform="translate(54.371875 107.959828) scale(0.1 -0.1)">
       <defs>
        <path id="DejaVuSans-31" d="M 794 531 
L 1825 531 
L 1825 4091 
L 703 3866 
L 703 4441 
L 1819 4666 
L 2450 4666 
L 2450 531 
L 3481 531 
L 3481 0 
L 794 0 
L 794 531 
z
" transform="scale(0.015625)"/>
       </defs>
       <use xlink:href="#DejaVuSans-31"/>
       <use xlink:href="#DejaVuSans-2e" x="63.623047"/>
       <use xlink:href="#DejaVuSans-30" x="95.410156"/>
       <use xlink:href="#DejaVuSans-30" x="159.033203"/>
       <use xlink:href="#DejaVuSans-30" x="222.65625"/>
      </g>
     </g>
    </g>
    <g id="ytick_9">
     <g id="line2d_17">
      <g>
       <use xlink:href="#m4b491ac46e" x="90" y="66.333258" style="stroke: #000000; stroke-width: 0.8"/>
      </g>
     </g>
     <g id="text_18">
      <!-- 1.002 -->
      <g transform="translate(54.371875 70.132477) scale(0.1 -0.1)">
       <use xlink:href="#DejaVuSans-31"/>
       <use xlink:href="#DejaVuSans-2e" x="63.623047"/>
       <use xlink:href="#DejaVuSans-30" x="95.410156"/>
       <use xlink:href="#DejaVuSans-30" x="159.033203"/>
       <use xlink:href="#DejaVuSans-32" x="222.65625"/>
      </g>
     </g>
    </g>
    <g id="text_19">
     <!-- Contrast -->
     <g transform="translate(48.292187 239.524062) rotate(-90) scale(0.1 -0.1)">
      <defs>
       <path id="DejaVuSans-43" d="M 4122 4306 
L 4122 3641 
Q 3803 3938 3442 4084 
Q 3081 4231 2675 4231 
Q 1875 4231 1450 3742 
Q 1025 3253 1025 2328 
Q 1025 1406 1450 917 
Q 1875 428 2675 428 
Q 3081 428 3442 575 
Q 3803 722 4122 1019 
L 4122 359 
Q 3791 134 3420 21 
Q 3050 -91 2638 -91 
Q 1578 -91 968 557 
Q 359 1206 359 2328 
Q 359 3453 968 4101 
Q 1578 4750 2638 4750 
Q 3056 4750 3426 4639 
Q 3797 4528 4122 4306 
z
" transform="scale(0.015625)"/>
       <path id="DejaVuSans-6f" d="M 1959 3097 
Q 1497 3097 1228 2736 
Q 959 2375 959 1747 
Q 959 1119 1226 758 
Q 1494 397 1959 397 
Q 2419 397 2687 759 
Q 2956 1122 2956 1747 
Q 2956 2369 2687 2733 
Q 2419 3097 1959 3097 
z
M 1959 3584 
Q 2709 3584 3137 3096 
Q 3566 2609 3566 1747 
Q 3566 888 3137 398 
Q 2709 -91 1959 -91 
Q 1206 -91 779 398 
Q 353 888 353 1747 
Q 353 2609 779 3096 
Q 1206 3584 1959 3584 
z
" transform="scale(0.015625)"/>
       <path id="DejaVuSans-74" d="M 1172 4494 
L 1172 3500 
L 2356 3500 
L 2356 3053 
L 1172 3053 
L 1172 1153 
Q 1172 725 1289 603 
Q 1406 481 1766 481 
L 2356 481 
L 2356 0 
L 1766 0 
Q 1100 0 847 248 
Q 594 497 594 1153 
L 594 3053 
L 172 3053 
L 172 3500 
L 594 3500 
L 594 4494 
L 1172 4494 
z
" transform="scale(0.015625)"/>
       <path id="DejaVuSans-61" d="M 2194 1759 
Q 1497 1759 1228 1600 
Q 959 1441 959 1056 
Q 959 750 1161 570 
Q 1363 391 1709 391 
Q 2188 391 2477 730 
Q 2766 1069 2766 1631 
L 2766 1759 
L 2194 1759 
z
M 3341 1997 
L 3341 0 
L 2766 0 
L 2766 531 
Q 2569 213 2275 61 
Q 1981 -91 1556 -91 
Q 1019 -91 701 211 
Q 384 513 384 1019 
Q 384 1609 779 1909 
Q 1175 2209 1959 2209 
L 2766 2209 
L 2766 2266 
Q 2766 2663 2505 2880 
Q 2244 3097 1772 3097 
Q 1472 3097 1187 3025 
Q 903 2953 641 2809 
L 641 3341 
Q 956 3463 1253 3523 
Q 1550 3584 1831 3584 
Q 2591 3584 2966 3190 
Q 3341 2797 3341 1997 
z
" transform="scale(0.015625)"/>
       <path id="DejaVuSans-73" d="M 2834 3397 
L 2834 2853 
Q 2591 2978 2328 3040 
Q 2066 3103 1784 3103 
Q 1356 3103 1142 2972 
Q 928 2841 928 2578 
Q 928 2378 1081 2264 
Q 1234 2150 1697 2047 
L 1894 2003 
Q 2506 1872 2764 1633 
Q 3022 1394 3022 966 
Q 3022 478 2636 193 
Q 2250 -91 1575 -91 
Q 1294 -91 989 -36 
Q 684 19 347 128 
L 347 722 
Q 666 556 975 473 
Q 1284 391 1588 391 
Q 1994 391 2212 530 
Q 2431 669 2431 922 
Q 2431 1156 2273 1281 
Q 2116 1406 1581 1522 
L 1381 1569 
Q 847 1681 609 1914 
Q 372 2147 372 2553 
Q 372 3047 722 3315 
Q 1072 3584 1716 3584 
Q 2034 3584 2315 3537 
Q 2597 3491 2834 3397 
z
" transform="scale(0.015625)"/>
      </defs>
      <use xlink:href="#DejaVuSans-43"/>
      <use xlink:href="#DejaVuSans-6f" x="69.824219"/>
      <use xlink:href="#DejaVuSans-6e" x="131.005859"/>
      <use xlink:href="#DejaVuSans-74" x="194.384766"/>
      <use xlink:href="#DejaVuSans-72" x="233.59375"/>
      <use xlink:href="#DejaVuSans-61" x="274.707031"/>
      <use xlink:href="#DejaVuSans-73" x="335.986328"/>
      <use xlink:href="#DejaVuSans-74" x="388.085938"/>
     </g>
    </g>
   </g>
   <g id="line2d_18">
    <path d="M 115.363636 101.259331 
L 116.812987 83.856591 
L 118.262338 110.390736 
L 119.711688 111.27558 
L 121.161039 108.589659 
L 122.61039 93.607839 
L 124.05974 99.24817 
L 125.509091 111.418218 
L 126.958442 99.123145 
L 128.407792 92.439407 
L 129.857143 114.998943 
L 131.306494 88.102809 
L 132.755844 84.655544 
L 134.205195 94.218814 
L 135.654545 116.980125 
L 137.103896 107.651543 
L 138.553247 72.595956 
L 140.002597 120.266573 
L 141.451948 130.761228 
L 142.901299 92.114932 
L 144.350649 119.841151 
L 145.8 127.847008 
L 147.249351 111.191327 
L 148.698701 125.365401 
L 150.148052 84.26762 
L 151.597403 121.426373 
L 153.046753 99.670962 
L 154.496104 136.928099 
L 155.945455 119.492865 
L 157.394805 118.498024 
L 158.844156 118.108035 
L 160.293506 76.32686 
L 161.742857 111.326109 
L 163.192208 151.096993 
L 164.641558 124.501137 
L 166.090909 109.332985 
L 167.54026 101.513231 
L 168.98961 100.604616 
L 170.438961 103.571763 
L 171.888312 110.955954 
L 173.337662 79.580089 
L 174.787013 130.872708 
L 176.236364 92.851864 
L 177.685714 137.453349 
L 179.135065 111.385652 
L 180.584416 95.271848 
L 182.033766 128.002875 
L 183.483117 82.059042 
L 184.932468 111.254377 
L 186.381818 102.013164 
L 187.831169 87.907825 
L 189.280519 88.630392 
L 190.72987 101.006722 
L 192.179221 124.904568 
L 193.628571 93.772982 
L 195.077922 104.62027 
L 196.527273 98.837961 
L 197.976623 89.583025 
L 199.425974 91.298609 
L 200.875325 127.659 
L 202.324675 121.114883 
L 203.774026 116.114644 
L 205.223377 115.47511 
L 206.672727 114.385669 
L 208.122078 95.785739 
L 209.571429 111.374857 
L 211.020779 91.917069 
L 212.47013 114.361771 
L 213.919481 96.702445 
L 215.368831 118.76219 
L 216.818182 111.12771 
L 218.267532 123.898258 
L 219.716883 118.443987 
L 221.166234 98.287989 
L 222.615584 105.235322 
L 224.064935 103.5976 
L 225.514286 120.041006 
L 226.963636 119.398128 
L 228.412987 123.199182 
L 231.311688 100.239241 
L 232.761039 119.668307 
L 234.21039 112.632056 
L 235.65974 85.181642 
L 237.109091 114.51132 
L 238.558442 92.190261 
L 240.007792 88.768765 
L 241.457143 122.10719 
L 242.906494 107.005882 
L 244.355844 133.688027 
L 245.805195 91.72023 
L 247.254545 101.325205 
L 248.703896 127.084891 
L 250.153247 115.495092 
L 251.602597 100.072249 
L 253.051948 118.958916 
L 254.501299 115.836551 
L 255.950649 145.908289 
L 257.4 84.825352 
L 258.849351 107.117464 
L 260.298701 102.644093 
L 261.748052 104.83709 
L 263.197403 107.460794 
L 264.646753 99.827731 
L 266.096104 100.311095 
L 267.545455 118.048102 
L 268.994805 121.578695 
L 270.444156 120.139548 
L 271.893506 95.86737 
L 273.342857 133.277614 
L 274.792208 134.328998 
L 276.241558 104.692676 
L 277.690909 98.739559 
L 279.14026 108.059213 
L 280.58961 92.078731 
L 282.038961 140.483523 
L 283.488312 121.679675 
L 284.937662 153.621062 
L 286.387013 138.718047 
L 287.836364 116.436163 
L 289.285714 125.977221 
L 290.735065 152.165435 
L 292.184416 130.823655 
L 293.633766 138.668166 
L 295.083117 134.704031 
L 296.532468 135.446503 
L 297.981818 131.381851 
L 299.431169 118.221427 
L 300.880519 123.553751 
L 302.32987 150.444404 
L 303.779221 141.18754 
L 305.228571 127.234457 
L 306.677922 155.097285 
L 308.127273 163.329464 
L 309.576623 178.795979 
L 311.025974 155.578868 
L 312.475325 190.901845 
L 313.924675 191.872586 
L 315.374026 235.387048 
L 316.823377 249.408481 
L 318.272727 290.111529 
L 319.722078 348.469616 
L 321.171429 337.404585 
L 322.620779 335.398441 
L 325.519481 240.640218 
L 326.968831 222.047196 
L 328.418182 253.18374 
L 329.867532 191.044138 
L 331.316883 162.15778 
L 332.766234 174.734779 
L 334.215584 163.256142 
L 335.664935 170.566701 
L 337.114286 187.76149 
L 338.563636 161.413437 
L 340.012987 169.564159 
L 341.462338 186.462199 
L 342.911688 166.191175 
L 344.361039 211.427443 
L 345.81039 224.335823 
L 347.25974 229.104442 
L 348.709091 290.913241 
L 350.158442 295.241904 
L 351.607792 337.666765 
L 353.057143 369.36 
L 354.506494 301.398907 
L 355.955844 294.40651 
L 357.405195 259.120567 
L 358.854545 235.807179 
L 360.303896 225.78682 
L 361.753247 177.423407 
L 363.202597 201.970293 
L 364.651948 173.341942 
L 366.101299 177.275132 
L 367.550649 158.178033 
L 369 167.157351 
L 370.449351 174.013213 
L 371.898701 175.729958 
L 373.348052 177.065922 
L 374.797403 177.521034 
L 376.246753 207.070792 
L 377.696104 251.469069 
L 379.145455 262.832686 
L 380.594805 253.828104 
L 382.044156 353.266581 
L 383.493506 329.001891 
L 384.942857 350.485941 
L 386.392208 294.515158 
L 387.841558 281.530649 
L 389.290909 236.595548 
L 390.74026 224.269081 
L 392.18961 213.760362 
L 393.638961 172.848868 
L 395.088312 169.092406 
L 396.537662 163.187826 
L 397.987013 173.025043 
L 399.436364 158.171285 
L 400.885714 136.541246 
L 402.335065 146.517396 
L 403.784416 152.35508 
L 405.233766 117.322531 
L 406.683117 92.977321 
L 408.132468 129.574522 
L 409.581818 113.481058 
L 412.480519 136.201174 
L 413.92987 122.120311 
L 415.379221 122.112955 
L 416.828571 169.969822 
L 418.277922 116.399859 
L 419.727273 140.87405 
L 421.176623 125.468236 
L 422.625974 124.288961 
L 424.075325 149.298982 
L 425.524675 120.445885 
L 426.974026 136.258651 
L 428.423377 113.288056 
L 429.872727 105.496432 
L 431.322078 133.392516 
L 432.771429 123.415447 
L 434.220779 123.132844 
L 435.67013 128.862021 
L 437.119481 109.772201 
L 438.568831 114.354473 
L 440.018182 112.984803 
L 441.467532 127.883533 
L 442.916883 144.12748 
L 444.366234 117.206543 
L 445.815584 107.583169 
L 447.264935 110.643958 
L 448.714286 115.189565 
L 450.163636 78.139648 
L 451.612987 128.28177 
L 453.062338 121.977572 
L 454.511688 125.845008 
L 455.961039 106.613892 
L 457.41039 111.02423 
L 458.85974 105.665559 
L 460.309091 102.568721 
L 461.758442 117.427454 
L 463.207792 88.290466 
L 464.657143 118.757822 
L 466.106494 128.624365 
L 467.555844 126.024165 
L 469.005195 114.704093 
L 470.454545 119.45877 
L 471.903896 113.640263 
L 473.353247 95.434235 
L 474.802597 98.201914 
L 476.251948 124.03043 
L 477.701299 121.277817 
L 479.150649 130.452579 
L 480.6 110.77407 
L 482.049351 111.301641 
L 483.498701 126.039206 
L 484.948052 126.856551 
L 486.397403 143.963498 
L 487.846753 109.470854 
L 489.296104 89.811523 
L 490.745455 109.374225 
L 492.194805 109.552569 
L 493.644156 69.873307 
L 495.093506 95.100197 
L 496.542857 116.81123 
L 497.992208 130.176167 
L 499.441558 102.979176 
L 500.890909 102.203581 
L 502.34026 112.035473 
L 503.78961 89.561695 
L 505.238961 112.41413 
L 506.688312 109.399458 
L 508.137662 126.985012 
L 509.587013 122.25926 
L 511.036364 87.455943 
L 512.485714 108.746425 
L 513.935065 97.146235 
L 516.833766 114.930772 
L 518.283117 122.034478 
L 519.732468 116.855252 
L 521.181818 112.873258 
L 522.631169 103.904949 
L 524.080519 86.235212 
L 525.52987 84.269807 
L 526.979221 127.061056 
L 528.428571 133.778921 
L 529.877922 115.353954 
L 531.327273 107.303544 
L 532.776623 94.557307 
L 534.225974 101.199334 
L 535.675325 132.096111 
L 537.124675 93.363484 
L 538.574026 118.467623 
L 540.023377 103.828128 
L 541.472727 108.162043 
L 542.922078 100.692512 
L 544.371429 112.824264 
L 545.820779 152.328131 
L 547.27013 109.858403 
L 548.719481 108.478077 
L 550.168831 112.808747 
L 551.618182 124.33095 
L 553.067532 97.938163 
L 554.516883 107.612445 
L 555.966234 101.048833 
L 557.415584 101.381504 
L 560.314286 123.387043 
L 561.763636 111.311574 
L 563.212987 97.521426 
L 564.662338 107.896095 
L 566.111688 92.928796 
L 567.561039 92.23458 
L 569.01039 88.14826 
L 570.45974 140.455986 
L 571.909091 102.075275 
L 573.358442 103.574332 
L 574.807792 85.136551 
L 576.257143 95.428495 
L 577.706494 127.740684 
L 579.155844 115.602951 
L 580.605195 117.123539 
L 582.054545 109.545309 
L 583.503896 66.96 
L 584.953247 107.546753 
L 586.402597 106.244286 
L 587.851948 111.265535 
L 589.301299 129.347233 
L 590.750649 101.913224 
L 592.2 126.636213 
L 593.649351 77.972481 
L 595.098701 104.003173 
L 596.548052 135.033843 
L 597.997403 110.172002 
L 599.446753 107.383867 
L 600.896104 121.802366 
L 602.345455 113.71491 
L 603.794805 116.624428 
L 605.244156 97.141233 
L 606.693506 100.07399 
L 608.142857 120.764056 
L 609.592208 101.531222 
L 611.041558 120.629513 
L 612.490909 121.06202 
L 613.94026 105.229285 
L 615.38961 115.944487 
L 616.838961 82.619793 
L 618.288312 81.820271 
L 619.737662 76.080412 
L 621.187013 120.055814 
L 622.636364 88.711923 
L 622.636364 88.711923 
" clip-path="url(#p4d68f03100)" style="fill: none; stroke: #1f77b4; stroke-width: 1.5; stroke-linecap: square"/>
    <defs>
     <path id="m34f5e6e511" d="M 0 3 
C 0.795609 3 1.55874 2.683901 2.12132 2.12132 
C 2.683901 1.55874 3 0.795609 3 0 
C 3 -0.795609 2.683901 -1.55874 2.12132 -2.12132 
C 1.55874 -2.683901 0.795609 -3 0 -3 
C -0.795609 -3 -1.55874 -2.683901 -2.12132 -2.12132 
C -2.683901 -1.55874 -3 -0.795609 -3 0 
C -3 0.795609 -2.683901 1.55874 -2.12132 2.12132 
C -1.55874 2.683901 -0.795609 3 0 3 
z
" style="stroke: #1f77b4"/>
    </defs>
    <g clip-path="url(#p4d68f03100)">
     <use xlink:href="#m34f5e6e511" x="115.363636" y="101.259331" style="fill: #1f77b4; stroke: #1f77b4"/>
     <use xlink:href="#m34f5e6e511" x="116.812987" y="83.856591" style="fill: #1f77b4; stroke: #1f77b4"/>
     <use xlink:href="#m34f5e6e511" x="118.262338" y="110.390736" style="fill: #1f77b4; stroke: #1f77b4"/>
     <use xlink:href="#m34f5e6e511" x="119.711688" y="111.27558" style="fill: #1f77b4; stroke: #1f77b4"/>
     <use xlink:href="#m34f5e6e511" x="121.161039" y="108.589659" style="fill: #1f77b4; stroke: #1f77b4"/>
     <use xlink:href="#m34f5e6e511" x="122.61039" y="93.607839" style="fill: #1f77b4; stroke: #1f77b4"/>
     <use xlink:href="#m34f5e6e511" x="124.05974" y="99.24817" style="fill: #1f77b4; stroke: #1f77b4"/>
     <use xlink:href="#m34f5e6e511" x="125.509091" y="111.418218" style="fill: #1f77b4; stroke: #1f77b4"/>
     <use xlink:href="#m34f5e6e511" x="126.958442" y="99.123145" style="fill: #1f77b4; stroke: #1f77b4"/>
     <use xlink:href="#m34f5e6e511" x="128.407792" y="92.439407" style="fill: #1f77b4; stroke: #1f77b4"/>
     <use xlink:href="#m34f5e6e511" x="129.857143" y="114.998943" style="fill: #1f77b4; stroke: #1f77b4"/>
     <use xlink:href="#m34f5e6e511" x="131.306494" y="88.102809" style="fill: #1f77b4; stroke: #1f77b4"/>
     <use xlink:href="#m34f5e6e511" x="132.755844" y="84.655544" style="fill: #1f77b4; stroke: #1f77b4"/>
     <use xlink:href="#m34f5e6e511" x="134.205195" y="94.218814" style="fill: #1f77b4; stroke: #1f77b4"/>
     <use xlink:href="#m34f5e6e511" x="135.654545" y="116.980125" style="fill: #1f77b4; stroke: #1f77b4"/>
     <use xlink:href="#m34f5e6e511" x="137.103896" y="107.651543" style="fill: #1f77b4; stroke: #1f77b4"/>
     <use xlink:href="#m34f5e6e511" x="138.553247" y="72.595956" style="fill: #1f77b4; stroke: #1f77b4"/>
     <use xlink:href="#m34f5e6e511" x="140.002597" y="120.266573" style="fill: #1f77b4; stroke: #1f77b4"/>
     <use xlink:href="#m34f5e6e511" x="141.451948" y="130.761228" style="fill: #1f77b4; stroke: #1f77b4"/>
     <use xlink:href="#m34f5e6e511" x="142.901299" y="92.114932" style="fill: #1f77b4; stroke: #1f77b4"/>
     <use xlink:href="#m34f5e6e511" x="144.350649" y="119.841151" style="fill: #1f77b4; stroke: #1f77b4"/>
     <use xlink:href="#m34f5e6e511" x="145.8" y="127.847008" style="fill: #1f77b4; stroke: #1f77b4"/>
     <use xlink:href="#m34f5e6e511" x="147.249351" y="111.191327" style="fill: #1f77b4; stroke: #1f77b4"/>
     <use xlink:href="#m34f5e6e511" x="148.698701" y="125.365401" style="fill: #1f77b4; stroke: #1f77b4"/>
     <use xlink:href="#m34f5e6e511" x="150.148052" y="84.26762" style="fill: #1f77b4; stroke: #1f77b4"/>
     <use xlink:href="#m34f5e6e511" x="151.597403" y="121.426373" style="fill: #1f77b4; stroke: #1f77b4"/>
     <use xlink:href="#m34f5e6e511" x="153.046753" y="99.670962" style="fill: #1f77b4; stroke: #1f77b4"/>
     <use xlink:href="#m34f5e6e511" x="154.496104" y="136.928099" style="fill: #1f77b4; stroke: #1f77b4"/>
     <use xlink:href="#m34f5e6e511" x="155.945455" y="119.492865" style="fill: #1f77b4; stroke: #1f77b4"/>
     <use xlink:href="#m34f5e6e511" x="157.394805" y="118.498024" style="fill: #1f77b4; stroke: #1f77b4"/>
     <use xlink:href="#m34f5e6e511" x="158.844156" y="118.108035" style="fill: #1f77b4; stroke: #1f77b4"/>
     <use xlink:href="#m34f5e6e511" x="160.293506" y="76.32686" style="fill: #1f77b4; stroke: #1f77b4"/>
     <use xlink:href="#m34f5e6e511" x="161.742857" y="111.326109" style="fill: #1f77b4; stroke: #1f77b4"/>
     <use xlink:href="#m34f5e6e511" x="163.192208" y="151.096993" style="fill: #1f77b4; stroke: #1f77b4"/>
     <use xlink:href="#m34f5e6e511" x="164.641558" y="124.501137" style="fill: #1f77b4; stroke: #1f77b4"/>
     <use xlink:href="#m34f5e6e511" x="166.090909" y="109.332985" style="fill: #1f77b4; stroke: #1f77b4"/>
     <use xlink:href="#m34f5e6e511" x="167.54026" y="101.513231" style="fill: #1f77b4; stroke: #1f77b4"/>
     <use xlink:href="#m34f5e6e511" x="168.98961" y="100.604616" style="fill: #1f77b4; stroke: #1f77b4"/>
     <use xlink:href="#m34f5e6e511" x="170.438961" y="103.571763" style="fill: #1f77b4; stroke: #1f77b4"/>
     <use xlink:href="#m34f5e6e511" x="171.888312" y="110.955954" style="fill: #1f77b4; stroke: #1f77b4"/>
     <use xlink:href="#m34f5e6e511" x="173.337662" y="79.580089" style="fill: #1f77b4; stroke: #1f77b4"/>
     <use xlink:href="#m34f5e6e511" x="174.787013" y="130.872708" style="fill: #1f77b4; stroke: #1f77b4"/>
     <use xlink:href="#m34f5e6e511" x="176.236364" y="92.851864" style="fill: #1f77b4; stroke: #1f77b4"/>
     <use xlink:href="#m34f5e6e511" x="177.685714" y="137.453349" style="fill: #1f77b4; stroke: #1f77b4"/>
     <use xlink:href="#m34f5e6e511" x="179.135065" y="111.385652" style="fill: #1f77b4; stroke: #1f77b4"/>
     <use xlink:href="#m34f5e6e511" x="180.584416" y="95.271848" style="fill: #1f77b4; stroke: #1f77b4"/>
     <use xlink:href="#m34f5e6e511" x="182.033766" y="128.002875" style="fill: #1f77b4; stroke: #1f77b4"/>
     <use xlink:href="#m34f5e6e511" x="183.483117" y="82.059042" style="fill: #1f77b4; stroke: #1f77b4"/>
     <use xlink:href="#m34f5e6e511" x="184.932468" y="111.254377" style="fill: #1f77b4; stroke: #1f77b4"/>
     <use xlink:href="#m34f5e6e511" x="186.381818" y="102.013164" style="fill: #1f77b4; stroke: #1f77b4"/>
     <use xlink:href="#m34f5e6e511" x="187.831169" y="87.907825" style="fill: #1f77b4; stroke: #1f77b4"/>
     <use xlink:href="#m34f5e6e511" x="189.280519" y="88.630392" style="fill: #1f77b4; stroke: #1f77b4"/>
     <use xlink:href="#m34f5e6e511" x="190.72987" y="101.006722" style="fill: #1f77b4; stroke: #1f77b4"/>
     <use xlink:href="#m34f5e6e511" x="192.179221" y="124.904568" style="fill: #1f77b4; stroke: #1f77b4"/>
     <use xlink:href="#m34f5e6e511" x="193.628571" y="93.772982" style="fill: #1f77b4; stroke: #1f77b4"/>
     <use xlink:href="#m34f5e6e511" x="195.077922" y="104.62027" style="fill: #1f77b4; stroke: #1f77b4"/>
     <use xlink:href="#m34f5e6e511" x="196.527273" y="98.837961" style="fill: #1f77b4; stroke: #1f77b4"/>
     <use xlink:href="#m34f5e6e511" x="197.976623" y="89.583025" style="fill: #1f77b4; stroke: #1f77b4"/>
     <use xlink:href="#m34f5e6e511" x="199.425974" y="91.298609" style="fill: #1f77b4; stroke: #1f77b4"/>
     <use xlink:href="#m34f5e6e511" x="200.875325" y="127.659" style="fill: #1f77b4; stroke: #1f77b4"/>
     <use xlink:href="#m34f5e6e511" x="202.324675" y="121.114883" style="fill: #1f77b4; stroke: #1f77b4"/>
     <use xlink:href="#m34f5e6e511" x="203.774026" y="116.114644" style="fill: #1f77b4; stroke: #1f77b4"/>
     <use xlink:href="#m34f5e6e511" x="205.223377" y="115.47511" style="fill: #1f77b4; stroke: #1f77b4"/>
     <use xlink:href="#m34f5e6e511" x="206.672727" y="114.385669" style="fill: #1f77b4; stroke: #1f77b4"/>
     <use xlink:href="#m34f5e6e511" x="208.122078" y="95.785739" style="fill: #1f77b4; stroke: #1f77b4"/>
     <use xlink:href="#m34f5e6e511" x="209.571429" y="111.374857" style="fill: #1f77b4; stroke: #1f77b4"/>
     <use xlink:href="#m34f5e6e511" x="211.020779" y="91.917069" style="fill: #1f77b4; stroke: #1f77b4"/>
     <use xlink:href="#m34f5e6e511" x="212.47013" y="114.361771" style="fill: #1f77b4; stroke: #1f77b4"/>
     <use xlink:href="#m34f5e6e511" x="213.919481" y="96.702445" style="fill: #1f77b4; stroke: #1f77b4"/>
     <use xlink:href="#m34f5e6e511" x="215.368831" y="118.76219" style="fill: #1f77b4; stroke: #1f77b4"/>
     <use xlink:href="#m34f5e6e511" x="216.818182" y="111.12771" style="fill: #1f77b4; stroke: #1f77b4"/>
     <use xlink:href="#m34f5e6e511" x="218.267532" y="123.898258" style="fill: #1f77b4; stroke: #1f77b4"/>
     <use xlink:href="#m34f5e6e511" x="219.716883" y="118.443987" style="fill: #1f77b4; stroke: #1f77b4"/>
     <use xlink:href="#m34f5e6e511" x="221.166234" y="98.287989" style="fill: #1f77b4; stroke: #1f77b4"/>
     <use xlink:href="#m34f5e6e511" x="222.615584" y="105.235322" style="fill: #1f77b4; stroke: #1f77b4"/>
     <use xlink:href="#m34f5e6e511" x="224.064935" y="103.5976" style="fill: #1f77b4; stroke: #1f77b4"/>
     <use xlink:href="#m34f5e6e511" x="225.514286" y="120.041006" style="fill: #1f77b4; stroke: #1f77b4"/>
     <use xlink:href="#m34f5e6e511" x="226.963636" y="119.398128" style="fill: #1f77b4; stroke: #1f77b4"/>
     <use xlink:href="#m34f5e6e511" x="228.412987" y="123.199182" style="fill: #1f77b4; stroke: #1f77b4"/>
     <use xlink:href="#m34f5e6e511" x="229.862338" y="111.756878" style="fill: #1f77b4; stroke: #1f77b4"/>
     <use xlink:href="#m34f5e6e511" x="231.311688" y="100.239241" style="fill: #1f77b4; stroke: #1f77b4"/>
     <use xlink:href="#m34f5e6e511" x="232.761039" y="119.668307" style="fill: #1f77b4; stroke: #1f77b4"/>
     <use xlink:href="#m34f5e6e511" x="234.21039" y="112.632056" style="fill: #1f77b4; stroke: #1f77b4"/>
     <use xlink:href="#m34f5e6e511" x="235.65974" y="85.181642" style="fill: #1f77b4; stroke: #1f77b4"/>
     <use xlink:href="#m34f5e6e511" x="237.109091" y="114.51132" style="fill: #1f77b4; stroke: #1f77b4"/>
     <use xlink:href="#m34f5e6e511" x="238.558442" y="92.190261" style="fill: #1f77b4; stroke: #1f77b4"/>
     <use xlink:href="#m34f5e6e511" x="240.007792" y="88.768765" style="fill: #1f77b4; stroke: #1f77b4"/>
     <use xlink:href="#m34f5e6e511" x="241.457143" y="122.10719" style="fill: #1f77b4; stroke: #1f77b4"/>
     <use xlink:href="#m34f5e6e511" x="242.906494" y="107.005882" style="fill: #1f77b4; stroke: #1f77b4"/>
     <use xlink:href="#m34f5e6e511" x="244.355844" y="133.688027" style="fill: #1f77b4; stroke: #1f77b4"/>
     <use xlink:href="#m34f5e6e511" x="245.805195" y="91.72023" style="fill: #1f77b4; stroke: #1f77b4"/>
     <use xlink:href="#m34f5e6e511" x="247.254545" y="101.325205" style="fill: #1f77b4; stroke: #1f77b4"/>
     <use xlink:href="#m34f5e6e511" x="248.703896" y="127.084891" style="fill: #1f77b4; stroke: #1f77b4"/>
     <use xlink:href="#m34f5e6e511" x="250.153247" y="115.495092" style="fill: #1f77b4; stroke: #1f77b4"/>
     <use xlink:href="#m34f5e6e511" x="251.602597" y="100.072249" style="fill: #1f77b4; stroke: #1f77b4"/>
     <use xlink:href="#m34f5e6e511" x="253.051948" y="118.958916" style="fill: #1f77b4; stroke: #1f77b4"/>
     <use xlink:href="#m34f5e6e511" x="254.501299" y="115.836551" style="fill: #1f77b4; stroke: #1f77b4"/>
     <use xlink:href="#m34f5e6e511" x="255.950649" y="145.908289" style="fill: #1f77b4; stroke: #1f77b4"/>
     <use xlink:href="#m34f5e6e511" x="257.4" y="84.825352" style="fill: #1f77b4; stroke: #1f77b4"/>
     <use xlink:href="#m34f5e6e511" x="258.849351" y="107.117464" style="fill: #1f77b4; stroke: #1f77b4"/>
     <use xlink:href="#m34f5e6e511" x="260.298701" y="102.644093" style="fill: #1f77b4; stroke: #1f77b4"/>
     <use xlink:href="#m34f5e6e511" x="261.748052" y="104.83709" style="fill: #1f77b4; stroke: #1f77b4"/>
     <use xlink:href="#m34f5e6e511" x="263.197403" y="107.460794" style="fill: #1f77b4; stroke: #1f77b4"/>
     <use xlink:href="#m34f5e6e511" x="264.646753" y="99.827731" style="fill: #1f77b4; stroke: #1f77b4"/>
     <use xlink:href="#m34f5e6e511" x="266.096104" y="100.311095" style="fill: #1f77b4; stroke: #1f77b4"/>
     <use xlink:href="#m34f5e6e511" x="267.545455" y="118.048102" style="fill: #1f77b4; stroke: #1f77b4"/>
     <use xlink:href="#m34f5e6e511" x="268.994805" y="121.578695" style="fill: #1f77b4; stroke: #1f77b4"/>
     <use xlink:href="#m34f5e6e511" x="270.444156" y="120.139548" style="fill: #1f77b4; stroke: #1f77b4"/>
     <use xlink:href="#m34f5e6e511" x="271.893506" y="95.86737" style="fill: #1f77b4; stroke: #1f77b4"/>
     <use xlink:href="#m34f5e6e511" x="273.342857" y="133.277614" style="fill: #1f77b4; stroke: #1f77b4"/>
     <use xlink:href="#m34f5e6e511" x="274.792208" y="134.328998" style="fill: #1f77b4; stroke: #1f77b4"/>
     <use xlink:href="#m34f5e6e511" x="276.241558" y="104.692676" style="fill: #1f77b4; stroke: #1f77b4"/>
     <use xlink:href="#m34f5e6e511" x="277.690909" y="98.739559" style="fill: #1f77b4; stroke: #1f77b4"/>
     <use xlink:href="#m34f5e6e511" x="279.14026" y="108.059213" style="fill: #1f77b4; stroke: #1f77b4"/>
     <use xlink:href="#m34f5e6e511" x="280.58961" y="92.078731" style="fill: #1f77b4; stroke: #1f77b4"/>
     <use xlink:href="#m34f5e6e511" x="282.038961" y="140.483523" style="fill: #1f77b4; stroke: #1f77b4"/>
     <use xlink:href="#m34f5e6e511" x="283.488312" y="121.679675" style="fill: #1f77b4; stroke: #1f77b4"/>
     <use xlink:href="#m34f5e6e511" x="284.937662" y="153.621062" style="fill: #1f77b4; stroke: #1f77b4"/>
     <use xlink:href="#m34f5e6e511" x="286.387013" y="138.718047" style="fill: #1f77b4; stroke: #1f77b4"/>
     <use xlink:href="#m34f5e6e511" x="287.836364" y="116.436163" style="fill: #1f77b4; stroke: #1f77b4"/>
     <use xlink:href="#m34f5e6e511" x="289.285714" y="125.977221" style="fill: #1f77b4; stroke: #1f77b4"/>
     <use xlink:href="#m34f5e6e511" x="290.735065" y="152.165435" style="fill: #1f77b4; stroke: #1f77b4"/>
     <use xlink:href="#m34f5e6e511" x="292.184416" y="130.823655" style="fill: #1f77b4; stroke: #1f77b4"/>
     <use xlink:href="#m34f5e6e511" x="293.633766" y="138.668166" style="fill: #1f77b4; stroke: #1f77b4"/>
     <use xlink:href="#m34f5e6e511" x="295.083117" y="134.704031" style="fill: #1f77b4; stroke: #1f77b4"/>
     <use xlink:href="#m34f5e6e511" x="296.532468" y="135.446503" style="fill: #1f77b4; stroke: #1f77b4"/>
     <use xlink:href="#m34f5e6e511" x="297.981818" y="131.381851" style="fill: #1f77b4; stroke: #1f77b4"/>
     <use xlink:href="#m34f5e6e511" x="299.431169" y="118.221427" style="fill: #1f77b4; stroke: #1f77b4"/>
     <use xlink:href="#m34f5e6e511" x="300.880519" y="123.553751" style="fill: #1f77b4; stroke: #1f77b4"/>
     <use xlink:href="#m34f5e6e511" x="302.32987" y="150.444404" style="fill: #1f77b4; stroke: #1f77b4"/>
     <use xlink:href="#m34f5e6e511" x="303.779221" y="141.18754" style="fill: #1f77b4; stroke: #1f77b4"/>
     <use xlink:href="#m34f5e6e511" x="305.228571" y="127.234457" style="fill: #1f77b4; stroke: #1f77b4"/>
     <use xlink:href="#m34f5e6e511" x="306.677922" y="155.097285" style="fill: #1f77b4; stroke: #1f77b4"/>
     <use xlink:href="#m34f5e6e511" x="308.127273" y="163.329464" style="fill: #1f77b4; stroke: #1f77b4"/>
     <use xlink:href="#m34f5e6e511" x="309.576623" y="178.795979" style="fill: #1f77b4; stroke: #1f77b4"/>
     <use xlink:href="#m34f5e6e511" x="311.025974" y="155.578868" style="fill: #1f77b4; stroke: #1f77b4"/>
     <use xlink:href="#m34f5e6e511" x="312.475325" y="190.901845" style="fill: #1f77b4; stroke: #1f77b4"/>
     <use xlink:href="#m34f5e6e511" x="313.924675" y="191.872586" style="fill: #1f77b4; stroke: #1f77b4"/>
     <use xlink:href="#m34f5e6e511" x="315.374026" y="235.387048" style="fill: #1f77b4; stroke: #1f77b4"/>
     <use xlink:href="#m34f5e6e511" x="316.823377" y="249.408481" style="fill: #1f77b4; stroke: #1f77b4"/>
     <use xlink:href="#m34f5e6e511" x="318.272727" y="290.111529" style="fill: #1f77b4; stroke: #1f77b4"/>
     <use xlink:href="#m34f5e6e511" x="319.722078" y="348.469616" style="fill: #1f77b4; stroke: #1f77b4"/>
     <use xlink:href="#m34f5e6e511" x="321.171429" y="337.404585" style="fill: #1f77b4; stroke: #1f77b4"/>
     <use xlink:href="#m34f5e6e511" x="322.620779" y="335.398441" style="fill: #1f77b4; stroke: #1f77b4"/>
     <use xlink:href="#m34f5e6e511" x="324.07013" y="286.619815" style="fill: #1f77b4; stroke: #1f77b4"/>
     <use xlink:href="#m34f5e6e511" x="325.519481" y="240.640218" style="fill: #1f77b4; stroke: #1f77b4"/>
     <use xlink:href="#m34f5e6e511" x="326.968831" y="222.047196" style="fill: #1f77b4; stroke: #1f77b4"/>
     <use xlink:href="#m34f5e6e511" x="328.418182" y="253.18374" style="fill: #1f77b4; stroke: #1f77b4"/>
     <use xlink:href="#m34f5e6e511" x="329.867532" y="191.044138" style="fill: #1f77b4; stroke: #1f77b4"/>
     <use xlink:href="#m34f5e6e511" x="331.316883" y="162.15778" style="fill: #1f77b4; stroke: #1f77b4"/>
     <use xlink:href="#m34f5e6e511" x="332.766234" y="174.734779" style="fill: #1f77b4; stroke: #1f77b4"/>
     <use xlink:href="#m34f5e6e511" x="334.215584" y="163.256142" style="fill: #1f77b4; stroke: #1f77b4"/>
     <use xlink:href="#m34f5e6e511" x="335.664935" y="170.566701" style="fill: #1f77b4; stroke: #1f77b4"/>
     <use xlink:href="#m34f5e6e511" x="337.114286" y="187.76149" style="fill: #1f77b4; stroke: #1f77b4"/>
     <use xlink:href="#m34f5e6e511" x="338.563636" y="161.413437" style="fill: #1f77b4; stroke: #1f77b4"/>
     <use xlink:href="#m34f5e6e511" x="340.012987" y="169.564159" style="fill: #1f77b4; stroke: #1f77b4"/>
     <use xlink:href="#m34f5e6e511" x="341.462338" y="186.462199" style="fill: #1f77b4; stroke: #1f77b4"/>
     <use xlink:href="#m34f5e6e511" x="342.911688" y="166.191175" style="fill: #1f77b4; stroke: #1f77b4"/>
     <use xlink:href="#m34f5e6e511" x="344.361039" y="211.427443" style="fill: #1f77b4; stroke: #1f77b4"/>
     <use xlink:href="#m34f5e6e511" x="345.81039" y="224.335823" style="fill: #1f77b4; stroke: #1f77b4"/>
     <use xlink:href="#m34f5e6e511" x="347.25974" y="229.104442" style="fill: #1f77b4; stroke: #1f77b4"/>
     <use xlink:href="#m34f5e6e511" x="348.709091" y="290.913241" style="fill: #1f77b4; stroke: #1f77b4"/>
     <use xlink:href="#m34f5e6e511" x="350.158442" y="295.241904" style="fill: #1f77b4; stroke: #1f77b4"/>
     <use xlink:href="#m34f5e6e511" x="351.607792" y="337.666765" style="fill: #1f77b4; stroke: #1f77b4"/>
     <use xlink:href="#m34f5e6e511" x="353.057143" y="369.36" style="fill: #1f77b4; stroke: #1f77b4"/>
     <use xlink:href="#m34f5e6e511" x="354.506494" y="301.398907" style="fill: #1f77b4; stroke: #1f77b4"/>
     <use xlink:href="#m34f5e6e511" x="355.955844" y="294.40651" style="fill: #1f77b4; stroke: #1f77b4"/>
     <use xlink:href="#m34f5e6e511" x="357.405195" y="259.120567" style="fill: #1f77b4; stroke: #1f77b4"/>
     <use xlink:href="#m34f5e6e511" x="358.854545" y="235.807179" style="fill: #1f77b4; stroke: #1f77b4"/>
     <use xlink:href="#m34f5e6e511" x="360.303896" y="225.78682" style="fill: #1f77b4; stroke: #1f77b4"/>
     <use xlink:href="#m34f5e6e511" x="361.753247" y="177.423407" style="fill: #1f77b4; stroke: #1f77b4"/>
     <use xlink:href="#m34f5e6e511" x="363.202597" y="201.970293" style="fill: #1f77b4; stroke: #1f77b4"/>
     <use xlink:href="#m34f5e6e511" x="364.651948" y="173.341942" style="fill: #1f77b4; stroke: #1f77b4"/>
     <use xlink:href="#m34f5e6e511" x="366.101299" y="177.275132" style="fill: #1f77b4; stroke: #1f77b4"/>
     <use xlink:href="#m34f5e6e511" x="367.550649" y="158.178033" style="fill: #1f77b4; stroke: #1f77b4"/>
     <use xlink:href="#m34f5e6e511" x="369" y="167.157351" style="fill: #1f77b4; stroke: #1f77b4"/>
     <use xlink:href="#m34f5e6e511" x="370.449351" y="174.013213" style="fill: #1f77b4; stroke: #1f77b4"/>
     <use xlink:href="#m34f5e6e511" x="371.898701" y="175.729958" style="fill: #1f77b4; stroke: #1f77b4"/>
     <use xlink:href="#m34f5e6e511" x="373.348052" y="177.065922" style="fill: #1f77b4; stroke: #1f77b4"/>
     <use xlink:href="#m34f5e6e511" x="374.797403" y="177.521034" style="fill: #1f77b4; stroke: #1f77b4"/>
     <use xlink:href="#m34f5e6e511" x="376.246753" y="207.070792" style="fill: #1f77b4; stroke: #1f77b4"/>
     <use xlink:href="#m34f5e6e511" x="377.696104" y="251.469069" style="fill: #1f77b4; stroke: #1f77b4"/>
     <use xlink:href="#m34f5e6e511" x="379.145455" y="262.832686" style="fill: #1f77b4; stroke: #1f77b4"/>
     <use xlink:href="#m34f5e6e511" x="380.594805" y="253.828104" style="fill: #1f77b4; stroke: #1f77b4"/>
     <use xlink:href="#m34f5e6e511" x="382.044156" y="353.266581" style="fill: #1f77b4; stroke: #1f77b4"/>
     <use xlink:href="#m34f5e6e511" x="383.493506" y="329.001891" style="fill: #1f77b4; stroke: #1f77b4"/>
     <use xlink:href="#m34f5e6e511" x="384.942857" y="350.485941" style="fill: #1f77b4; stroke: #1f77b4"/>
     <use xlink:href="#m34f5e6e511" x="386.392208" y="294.515158" style="fill: #1f77b4; stroke: #1f77b4"/>
     <use xlink:href="#m34f5e6e511" x="387.841558" y="281.530649" style="fill: #1f77b4; stroke: #1f77b4"/>
     <use xlink:href="#m34f5e6e511" x="389.290909" y="236.595548" style="fill: #1f77b4; stroke: #1f77b4"/>
     <use xlink:href="#m34f5e6e511" x="390.74026" y="224.269081" style="fill: #1f77b4; stroke: #1f77b4"/>
     <use xlink:href="#m34f5e6e511" x="392.18961" y="213.760362" style="fill: #1f77b4; stroke: #1f77b4"/>
     <use xlink:href="#m34f5e6e511" x="393.638961" y="172.848868" style="fill: #1f77b4; stroke: #1f77b4"/>
     <use xlink:href="#m34f5e6e511" x="395.088312" y="169.092406" style="fill: #1f77b4; stroke: #1f77b4"/>
     <use xlink:href="#m34f5e6e511" x="396.537662" y="163.187826" style="fill: #1f77b4; stroke: #1f77b4"/>
     <use xlink:href="#m34f5e6e511" x="397.987013" y="173.025043" style="fill: #1f77b4; stroke: #1f77b4"/>
     <use xlink:href="#m34f5e6e511" x="399.436364" y="158.171285" style="fill: #1f77b4; stroke: #1f77b4"/>
     <use xlink:href="#m34f5e6e511" x="400.885714" y="136.541246" style="fill: #1f77b4; stroke: #1f77b4"/>
     <use xlink:href="#m34f5e6e511" x="402.335065" y="146.517396" style="fill: #1f77b4; stroke: #1f77b4"/>
     <use xlink:href="#m34f5e6e511" x="403.784416" y="152.35508" style="fill: #1f77b4; stroke: #1f77b4"/>
     <use xlink:href="#m34f5e6e511" x="405.233766" y="117.322531" style="fill: #1f77b4; stroke: #1f77b4"/>
     <use xlink:href="#m34f5e6e511" x="406.683117" y="92.977321" style="fill: #1f77b4; stroke: #1f77b4"/>
     <use xlink:href="#m34f5e6e511" x="408.132468" y="129.574522" style="fill: #1f77b4; stroke: #1f77b4"/>
     <use xlink:href="#m34f5e6e511" x="409.581818" y="113.481058" style="fill: #1f77b4; stroke: #1f77b4"/>
     <use xlink:href="#m34f5e6e511" x="411.031169" y="125.03378" style="fill: #1f77b4; stroke: #1f77b4"/>
     <use xlink:href="#m34f5e6e511" x="412.480519" y="136.201174" style="fill: #1f77b4; stroke: #1f77b4"/>
     <use xlink:href="#m34f5e6e511" x="413.92987" y="122.120311" style="fill: #1f77b4; stroke: #1f77b4"/>
     <use xlink:href="#m34f5e6e511" x="415.379221" y="122.112955" style="fill: #1f77b4; stroke: #1f77b4"/>
     <use xlink:href="#m34f5e6e511" x="416.828571" y="169.969822" style="fill: #1f77b4; stroke: #1f77b4"/>
     <use xlink:href="#m34f5e6e511" x="418.277922" y="116.399859" style="fill: #1f77b4; stroke: #1f77b4"/>
     <use xlink:href="#m34f5e6e511" x="419.727273" y="140.87405" style="fill: #1f77b4; stroke: #1f77b4"/>
     <use xlink:href="#m34f5e6e511" x="421.176623" y="125.468236" style="fill: #1f77b4; stroke: #1f77b4"/>
     <use xlink:href="#m34f5e6e511" x="422.625974" y="124.288961" style="fill: #1f77b4; stroke: #1f77b4"/>
     <use xlink:href="#m34f5e6e511" x="424.075325" y="149.298982" style="fill: #1f77b4; stroke: #1f77b4"/>
     <use xlink:href="#m34f5e6e511" x="425.524675" y="120.445885" style="fill: #1f77b4; stroke: #1f77b4"/>
     <use xlink:href="#m34f5e6e511" x="426.974026" y="136.258651" style="fill: #1f77b4; stroke: #1f77b4"/>
     <use xlink:href="#m34f5e6e511" x="428.423377" y="113.288056" style="fill: #1f77b4; stroke: #1f77b4"/>
     <use xlink:href="#m34f5e6e511" x="429.872727" y="105.496432" style="fill: #1f77b4; stroke: #1f77b4"/>
     <use xlink:href="#m34f5e6e511" x="431.322078" y="133.392516" style="fill: #1f77b4; stroke: #1f77b4"/>
     <use xlink:href="#m34f5e6e511" x="432.771429" y="123.415447" style="fill: #1f77b4; stroke: #1f77b4"/>
     <use xlink:href="#m34f5e6e511" x="434.220779" y="123.132844" style="fill: #1f77b4; stroke: #1f77b4"/>
     <use xlink:href="#m34f5e6e511" x="435.67013" y="128.862021" style="fill: #1f77b4; stroke: #1f77b4"/>
     <use xlink:href="#m34f5e6e511" x="437.119481" y="109.772201" style="fill: #1f77b4; stroke: #1f77b4"/>
     <use xlink:href="#m34f5e6e511" x="438.568831" y="114.354473" style="fill: #1f77b4; stroke: #1f77b4"/>
     <use xlink:href="#m34f5e6e511" x="440.018182" y="112.984803" style="fill: #1f77b4; stroke: #1f77b4"/>
     <use xlink:href="#m34f5e6e511" x="441.467532" y="127.883533" style="fill: #1f77b4; stroke: #1f77b4"/>
     <use xlink:href="#m34f5e6e511" x="442.916883" y="144.12748" style="fill: #1f77b4; stroke: #1f77b4"/>
     <use xlink:href="#m34f5e6e511" x="444.366234" y="117.206543" style="fill: #1f77b4; stroke: #1f77b4"/>
     <use xlink:href="#m34f5e6e511" x="445.815584" y="107.583169" style="fill: #1f77b4; stroke: #1f77b4"/>
     <use xlink:href="#m34f5e6e511" x="447.264935" y="110.643958" style="fill: #1f77b4; stroke: #1f77b4"/>
     <use xlink:href="#m34f5e6e511" x="448.714286" y="115.189565" style="fill: #1f77b4; stroke: #1f77b4"/>
     <use xlink:href="#m34f5e6e511" x="450.163636" y="78.139648" style="fill: #1f77b4; stroke: #1f77b4"/>
     <use xlink:href="#m34f5e6e511" x="451.612987" y="128.28177" style="fill: #1f77b4; stroke: #1f77b4"/>
     <use xlink:href="#m34f5e6e511" x="453.062338" y="121.977572" style="fill: #1f77b4; stroke: #1f77b4"/>
     <use xlink:href="#m34f5e6e511" x="454.511688" y="125.845008" style="fill: #1f77b4; stroke: #1f77b4"/>
     <use xlink:href="#m34f5e6e511" x="455.961039" y="106.613892" style="fill: #1f77b4; stroke: #1f77b4"/>
     <use xlink:href="#m34f5e6e511" x="457.41039" y="111.02423" style="fill: #1f77b4; stroke: #1f77b4"/>
     <use xlink:href="#m34f5e6e511" x="458.85974" y="105.665559" style="fill: #1f77b4; stroke: #1f77b4"/>
     <use xlink:href="#m34f5e6e511" x="460.309091" y="102.568721" style="fill: #1f77b4; stroke: #1f77b4"/>
     <use xlink:href="#m34f5e6e511" x="461.758442" y="117.427454" style="fill: #1f77b4; stroke: #1f77b4"/>
     <use xlink:href="#m34f5e6e511" x="463.207792" y="88.290466" style="fill: #1f77b4; stroke: #1f77b4"/>
     <use xlink:href="#m34f5e6e511" x="464.657143" y="118.757822" style="fill: #1f77b4; stroke: #1f77b4"/>
     <use xlink:href="#m34f5e6e511" x="466.106494" y="128.624365" style="fill: #1f77b4; stroke: #1f77b4"/>
     <use xlink:href="#m34f5e6e511" x="467.555844" y="126.024165" style="fill: #1f77b4; stroke: #1f77b4"/>
     <use xlink:href="#m34f5e6e511" x="469.005195" y="114.704093" style="fill: #1f77b4; stroke: #1f77b4"/>
     <use xlink:href="#m34f5e6e511" x="470.454545" y="119.45877" style="fill: #1f77b4; stroke: #1f77b4"/>
     <use xlink:href="#m34f5e6e511" x="471.903896" y="113.640263" style="fill: #1f77b4; stroke: #1f77b4"/>
     <use xlink:href="#m34f5e6e511" x="473.353247" y="95.434235" style="fill: #1f77b4; stroke: #1f77b4"/>
     <use xlink:href="#m34f5e6e511" x="474.802597" y="98.201914" style="fill: #1f77b4; stroke: #1f77b4"/>
     <use xlink:href="#m34f5e6e511" x="476.251948" y="124.03043" style="fill: #1f77b4; stroke: #1f77b4"/>
     <use xlink:href="#m34f5e6e511" x="477.701299" y="121.277817" style="fill: #1f77b4; stroke: #1f77b4"/>
     <use xlink:href="#m34f5e6e511" x="479.150649" y="130.452579" style="fill: #1f77b4; stroke: #1f77b4"/>
     <use xlink:href="#m34f5e6e511" x="480.6" y="110.77407" style="fill: #1f77b4; stroke: #1f77b4"/>
     <use xlink:href="#m34f5e6e511" x="482.049351" y="111.301641" style="fill: #1f77b4; stroke: #1f77b4"/>
     <use xlink:href="#m34f5e6e511" x="483.498701" y="126.039206" style="fill: #1f77b4; stroke: #1f77b4"/>
     <use xlink:href="#m34f5e6e511" x="484.948052" y="126.856551" style="fill: #1f77b4; stroke: #1f77b4"/>
     <use xlink:href="#m34f5e6e511" x="486.397403" y="143.963498" style="fill: #1f77b4; stroke: #1f77b4"/>
     <use xlink:href="#m34f5e6e511" x="487.846753" y="109.470854" style="fill: #1f77b4; stroke: #1f77b4"/>
     <use xlink:href="#m34f5e6e511" x="489.296104" y="89.811523" style="fill: #1f77b4; stroke: #1f77b4"/>
     <use xlink:href="#m34f5e6e511" x="490.745455" y="109.374225" style="fill: #1f77b4; stroke: #1f77b4"/>
     <use xlink:href="#m34f5e6e511" x="492.194805" y="109.552569" style="fill: #1f77b4; stroke: #1f77b4"/>
     <use xlink:href="#m34f5e6e511" x="493.644156" y="69.873307" style="fill: #1f77b4; stroke: #1f77b4"/>
     <use xlink:href="#m34f5e6e511" x="495.093506" y="95.100197" style="fill: #1f77b4; stroke: #1f77b4"/>
     <use xlink:href="#m34f5e6e511" x="496.542857" y="116.81123" style="fill: #1f77b4; stroke: #1f77b4"/>
     <use xlink:href="#m34f5e6e511" x="497.992208" y="130.176167" style="fill: #1f77b4; stroke: #1f77b4"/>
     <use xlink:href="#m34f5e6e511" x="499.441558" y="102.979176" style="fill: #1f77b4; stroke: #1f77b4"/>
     <use xlink:href="#m34f5e6e511" x="500.890909" y="102.203581" style="fill: #1f77b4; stroke: #1f77b4"/>
     <use xlink:href="#m34f5e6e511" x="502.34026" y="112.035473" style="fill: #1f77b4; stroke: #1f77b4"/>
     <use xlink:href="#m34f5e6e511" x="503.78961" y="89.561695" style="fill: #1f77b4; stroke: #1f77b4"/>
     <use xlink:href="#m34f5e6e511" x="505.238961" y="112.41413" style="fill: #1f77b4; stroke: #1f77b4"/>
     <use xlink:href="#m34f5e6e511" x="506.688312" y="109.399458" style="fill: #1f77b4; stroke: #1f77b4"/>
     <use xlink:href="#m34f5e6e511" x="508.137662" y="126.985012" style="fill: #1f77b4; stroke: #1f77b4"/>
     <use xlink:href="#m34f5e6e511" x="509.587013" y="122.25926" style="fill: #1f77b4; stroke: #1f77b4"/>
     <use xlink:href="#m34f5e6e511" x="511.036364" y="87.455943" style="fill: #1f77b4; stroke: #1f77b4"/>
     <use xlink:href="#m34f5e6e511" x="512.485714" y="108.746425" style="fill: #1f77b4; stroke: #1f77b4"/>
     <use xlink:href="#m34f5e6e511" x="513.935065" y="97.146235" style="fill: #1f77b4; stroke: #1f77b4"/>
     <use xlink:href="#m34f5e6e511" x="515.384416" y="106.170252" style="fill: #1f77b4; stroke: #1f77b4"/>
     <use xlink:href="#m34f5e6e511" x="516.833766" y="114.930772" style="fill: #1f77b4; stroke: #1f77b4"/>
     <use xlink:href="#m34f5e6e511" x="518.283117" y="122.034478" style="fill: #1f77b4; stroke: #1f77b4"/>
     <use xlink:href="#m34f5e6e511" x="519.732468" y="116.855252" style="fill: #1f77b4; stroke: #1f77b4"/>
     <use xlink:href="#m34f5e6e511" x="521.181818" y="112.873258" style="fill: #1f77b4; stroke: #1f77b4"/>
     <use xlink:href="#m34f5e6e511" x="522.631169" y="103.904949" style="fill: #1f77b4; stroke: #1f77b4"/>
     <use xlink:href="#m34f5e6e511" x="524.080519" y="86.235212" style="fill: #1f77b4; stroke: #1f77b4"/>
     <use xlink:href="#m34f5e6e511" x="525.52987" y="84.269807" style="fill: #1f77b4; stroke: #1f77b4"/>
     <use xlink:href="#m34f5e6e511" x="526.979221" y="127.061056" style="fill: #1f77b4; stroke: #1f77b4"/>
     <use xlink:href="#m34f5e6e511" x="528.428571" y="133.778921" style="fill: #1f77b4; stroke: #1f77b4"/>
     <use xlink:href="#m34f5e6e511" x="529.877922" y="115.353954" style="fill: #1f77b4; stroke: #1f77b4"/>
     <use xlink:href="#m34f5e6e511" x="531.327273" y="107.303544" style="fill: #1f77b4; stroke: #1f77b4"/>
     <use xlink:href="#m34f5e6e511" x="532.776623" y="94.557307" style="fill: #1f77b4; stroke: #1f77b4"/>
     <use xlink:href="#m34f5e6e511" x="534.225974" y="101.199334" style="fill: #1f77b4; stroke: #1f77b4"/>
     <use xlink:href="#m34f5e6e511" x="535.675325" y="132.096111" style="fill: #1f77b4; stroke: #1f77b4"/>
     <use xlink:href="#m34f5e6e511" x="537.124675" y="93.363484" style="fill: #1f77b4; stroke: #1f77b4"/>
     <use xlink:href="#m34f5e6e511" x="538.574026" y="118.467623" style="fill: #1f77b4; stroke: #1f77b4"/>
     <use xlink:href="#m34f5e6e511" x="540.023377" y="103.828128" style="fill: #1f77b4; stroke: #1f77b4"/>
     <use xlink:href="#m34f5e6e511" x="541.472727" y="108.162043" style="fill: #1f77b4; stroke: #1f77b4"/>
     <use xlink:href="#m34f5e6e511" x="542.922078" y="100.692512" style="fill: #1f77b4; stroke: #1f77b4"/>
     <use xlink:href="#m34f5e6e511" x="544.371429" y="112.824264" style="fill: #1f77b4; stroke: #1f77b4"/>
     <use xlink:href="#m34f5e6e511" x="545.820779" y="152.328131" style="fill: #1f77b4; stroke: #1f77b4"/>
     <use xlink:href="#m34f5e6e511" x="547.27013" y="109.858403" style="fill: #1f77b4; stroke: #1f77b4"/>
     <use xlink:href="#m34f5e6e511" x="548.719481" y="108.478077" style="fill: #1f77b4; stroke: #1f77b4"/>
     <use xlink:href="#m34f5e6e511" x="550.168831" y="112.808747" style="fill: #1f77b4; stroke: #1f77b4"/>
     <use xlink:href="#m34f5e6e511" x="551.618182" y="124.33095" style="fill: #1f77b4; stroke: #1f77b4"/>
     <use xlink:href="#m34f5e6e511" x="553.067532" y="97.938163" style="fill: #1f77b4; stroke: #1f77b4"/>
     <use xlink:href="#m34f5e6e511" x="554.516883" y="107.612445" style="fill: #1f77b4; stroke: #1f77b4"/>
     <use xlink:href="#m34f5e6e511" x="555.966234" y="101.048833" style="fill: #1f77b4; stroke: #1f77b4"/>
     <use xlink:href="#m34f5e6e511" x="557.415584" y="101.381504" style="fill: #1f77b4; stroke: #1f77b4"/>
     <use xlink:href="#m34f5e6e511" x="558.864935" y="112.286974" style="fill: #1f77b4; stroke: #1f77b4"/>
     <use xlink:href="#m34f5e6e511" x="560.314286" y="123.387043" style="fill: #1f77b4; stroke: #1f77b4"/>
     <use xlink:href="#m34f5e6e511" x="561.763636" y="111.311574" style="fill: #1f77b4; stroke: #1f77b4"/>
     <use xlink:href="#m34f5e6e511" x="563.212987" y="97.521426" style="fill: #1f77b4; stroke: #1f77b4"/>
     <use xlink:href="#m34f5e6e511" x="564.662338" y="107.896095" style="fill: #1f77b4; stroke: #1f77b4"/>
     <use xlink:href="#m34f5e6e511" x="566.111688" y="92.928796" style="fill: #1f77b4; stroke: #1f77b4"/>
     <use xlink:href="#m34f5e6e511" x="567.561039" y="92.23458" style="fill: #1f77b4; stroke: #1f77b4"/>
     <use xlink:href="#m34f5e6e511" x="569.01039" y="88.14826" style="fill: #1f77b4; stroke: #1f77b4"/>
     <use xlink:href="#m34f5e6e511" x="570.45974" y="140.455986" style="fill: #1f77b4; stroke: #1f77b4"/>
     <use xlink:href="#m34f5e6e511" x="571.909091" y="102.075275" style="fill: #1f77b4; stroke: #1f77b4"/>
     <use xlink:href="#m34f5e6e511" x="573.358442" y="103.574332" style="fill: #1f77b4; stroke: #1f77b4"/>
     <use xlink:href="#m34f5e6e511" x="574.807792" y="85.136551" style="fill: #1f77b4; stroke: #1f77b4"/>
     <use xlink:href="#m34f5e6e511" x="576.257143" y="95.428495" style="fill: #1f77b4; stroke: #1f77b4"/>
     <use xlink:href="#m34f5e6e511" x="577.706494" y="127.740684" style="fill: #1f77b4; stroke: #1f77b4"/>
     <use xlink:href="#m34f5e6e511" x="579.155844" y="115.602951" style="fill: #1f77b4; stroke: #1f77b4"/>
     <use xlink:href="#m34f5e6e511" x="580.605195" y="117.123539" style="fill: #1f77b4; stroke: #1f77b4"/>
     <use xlink:href="#m34f5e6e511" x="582.054545" y="109.545309" style="fill: #1f77b4; stroke: #1f77b4"/>
     <use xlink:href="#m34f5e6e511" x="583.503896" y="66.96" style="fill: #1f77b4; stroke: #1f77b4"/>
     <use xlink:href="#m34f5e6e511" x="584.953247" y="107.546753" style="fill: #1f77b4; stroke: #1f77b4"/>
     <use xlink:href="#m34f5e6e511" x="586.402597" y="106.244286" style="fill: #1f77b4; stroke: #1f77b4"/>
     <use xlink:href="#m34f5e6e511" x="587.851948" y="111.265535" style="fill: #1f77b4; stroke: #1f77b4"/>
     <use xlink:href="#m34f5e6e511" x="589.301299" y="129.347233" style="fill: #1f77b4; stroke: #1f77b4"/>
     <use xlink:href="#m34f5e6e511" x="590.750649" y="101.913224" style="fill: #1f77b4; stroke: #1f77b4"/>
     <use xlink:href="#m34f5e6e511" x="592.2" y="126.636213" style="fill: #1f77b4; stroke: #1f77b4"/>
     <use xlink:href="#m34f5e6e511" x="593.649351" y="77.972481" style="fill: #1f77b4; stroke: #1f77b4"/>
     <use xlink:href="#m34f5e6e511" x="595.098701" y="104.003173" style="fill: #1f77b4; stroke: #1f77b4"/>
     <use xlink:href="#m34f5e6e511" x="596.548052" y="135.033843" style="fill: #1f77b4; stroke: #1f77b4"/>
     <use xlink:href="#m34f5e6e511" x="597.997403" y="110.172002" style="fill: #1f77b4; stroke: #1f77b4"/>
     <use xlink:href="#m34f5e6e511" x="599.446753" y="107.383867" style="fill: #1f77b4; stroke: #1f77b4"/>
     <use xlink:href="#m34f5e6e511" x="600.896104" y="121.802366" style="fill: #1f77b4; stroke: #1f77b4"/>
     <use xlink:href="#m34f5e6e511" x="602.345455" y="113.71491" style="fill: #1f77b4; stroke: #1f77b4"/>
     <use xlink:href="#m34f5e6e511" x="603.794805" y="116.624428" style="fill: #1f77b4; stroke: #1f77b4"/>
     <use xlink:href="#m34f5e6e511" x="605.244156" y="97.141233" style="fill: #1f77b4; stroke: #1f77b4"/>
     <use xlink:href="#m34f5e6e511" x="606.693506" y="100.07399" style="fill: #1f77b4; stroke: #1f77b4"/>
     <use xlink:href="#m34f5e6e511" x="608.142857" y="120.764056" style="fill: #1f77b4; stroke: #1f77b4"/>
     <use xlink:href="#m34f5e6e511" x="609.592208" y="101.531222" style="fill: #1f77b4; stroke: #1f77b4"/>
     <use xlink:href="#m34f5e6e511" x="611.041558" y="120.629513" style="fill: #1f77b4; stroke: #1f77b4"/>
     <use xlink:href="#m34f5e6e511" x="612.490909" y="121.06202" style="fill: #1f77b4; stroke: #1f77b4"/>
     <use xlink:href="#m34f5e6e511" x="613.94026" y="105.229285" style="fill: #1f77b4; stroke: #1f77b4"/>
     <use xlink:href="#m34f5e6e511" x="615.38961" y="115.944487" style="fill: #1f77b4; stroke: #1f77b4"/>
     <use xlink:href="#m34f5e6e511" x="616.838961" y="82.619793" style="fill: #1f77b4; stroke: #1f77b4"/>
     <use xlink:href="#m34f5e6e511" x="618.288312" y="81.820271" style="fill: #1f77b4; stroke: #1f77b4"/>
     <use xlink:href="#m34f5e6e511" x="619.737662" y="76.080412" style="fill: #1f77b4; stroke: #1f77b4"/>
     <use xlink:href="#m34f5e6e511" x="621.187013" y="120.055814" style="fill: #1f77b4; stroke: #1f77b4"/>
     <use xlink:href="#m34f5e6e511" x="622.636364" y="88.711923" style="fill: #1f77b4; stroke: #1f77b4"/>
    </g>
   </g>
   <g id="line2d_19">
    <path d="M 115.363636 109.433626 
L 168.98961 109.74871 
L 200.875325 110.132931 
L 222.615584 110.599097 
L 238.558442 111.160418 
L 250.153247 111.788718 
L 258.849351 112.471445 
L 266.096104 113.266765 
L 271.893506 114.134122 
L 276.241558 114.98547 
L 280.58961 116.086789 
L 283.488312 117.01372 
L 286.387013 118.151357 
L 289.285714 119.571813 
L 292.184416 121.381418 
L 293.633766 122.479704 
L 295.083117 123.7421 
L 296.532468 125.203774 
L 297.981818 126.909775 
L 299.431169 128.918474 
L 300.880519 131.306422 
L 302.32987 134.175297 
L 303.779221 137.661926 
L 305.228571 141.952853 
L 306.677922 147.305551 
L 308.127273 154.078984 
L 309.576623 162.776132 
L 311.025974 174.097811 
L 312.475325 188.992845 
L 313.924675 208.643246 
L 315.374026 234.196569 
L 316.823377 265.803328 
L 318.272727 300.386844 
L 319.722078 329.017193 
L 321.171429 339.157949 
L 322.620779 325.46931 
L 324.07013 295.992438 
L 325.519481 263.187858 
L 326.968831 234.601621 
L 328.418182 212.36601 
L 329.867532 196.01496 
L 331.316883 184.409153 
L 332.766234 176.493016 
L 334.215584 171.485111 
L 335.664935 168.878818 
L 337.114286 168.40371 
L 338.563636 169.99592 
L 340.012987 173.790241 
L 341.462338 180.135849 
L 342.911688 189.631411 
L 344.361039 203.159286 
L 345.81039 221.847045 
L 347.25974 246.746552 
L 348.709091 277.756666 
L 350.158442 311.252858 
L 351.607792 337.638389 
L 353.057143 344.510922 
L 354.506494 327.903158 
L 358.854545 235.289463 
L 360.303896 213.256153 
L 361.753247 197.040826 
L 363.202597 185.489571 
L 364.651948 177.572079 
L 366.101299 172.539927 
L 367.550649 169.919518 
L 369 169.474451 
L 370.449351 171.17987 
L 371.898701 175.219727 
L 373.348052 182.007712 
L 374.797403 192.224091 
L 376.246753 206.836214 
L 377.696104 226.996384 
L 379.145455 253.528477 
L 382.044156 317.19237 
L 383.493506 337.349785 
L 384.942857 335.016884 
L 386.392208 311.074625 
L 389.290909 243.954446 
L 390.74026 216.344017 
L 392.18961 194.874662 
L 393.638961 178.56489 
L 395.088312 166.192671 
L 396.537662 156.725097 
L 397.987013 149.385036 
L 399.436364 143.611438 
L 400.885714 139.003784 
L 402.335065 135.275463 
L 403.784416 132.219558 
L 405.233766 129.684918 
L 406.683117 127.559693 
L 408.132468 125.760021 
L 409.581818 124.222212 
L 411.031169 122.897299 
L 412.480519 121.747191 
L 415.379221 119.857723 
L 418.277922 118.379711 
L 421.176623 117.199465 
L 424.075325 116.240253 
L 428.423377 115.103599 
L 432.771429 114.227323 
L 438.568831 113.336859 
L 445.815584 112.52253 
L 454.511688 111.825283 
L 464.657143 111.252148 
L 477.701299 110.745256 
L 495.093506 110.302103 
L 519.732468 109.91766 
L 555.966234 109.60186 
L 612.490909 109.357563 
L 622.636364 109.329701 
L 622.636364 109.329701 
" clip-path="url(#p4d68f03100)" style="fill: none; stroke-dasharray: 5.55,2.4; stroke-dashoffset: 0; stroke: #000000; stroke-width: 1.5"/>
   </g>
   <g id="patch_3">
    <path d="M 90 384.48 
L 90 51.84 
" style="fill: none; stroke: #000000; stroke-width: 0.8; stroke-linejoin: miter; stroke-linecap: square"/>
   </g>
   <g id="patch_4">
    <path d="M 648 384.48 
L 648 51.84 
" style="fill: none; stroke: #000000; stroke-width: 0.8; stroke-linejoin: miter; stroke-linecap: square"/>
   </g>
   <g id="patch_5">
    <path d="M 90 384.48 
L 648 384.48 
" style="fill: none; stroke: #000000; stroke-width: 0.8; stroke-linejoin: miter; stroke-linecap: square"/>
   </g>
   <g id="patch_6">
    <path d="M 90 51.84 
L 648 51.84 
" style="fill: none; stroke: #000000; stroke-width: 0.8; stroke-linejoin: miter; stroke-linecap: square"/>
   </g>
   <g id="text_20">
    <!-- RF Power = -38, Line Width = 0.42 MHz -->
    <g transform="translate(250.095937 45.84) scale(0.12 -0.12)">
     <defs>
      <path id="DejaVuSans-52" d="M 2841 2188 
Q 3044 2119 3236 1894 
Q 3428 1669 3622 1275 
L 4263 0 
L 3584 0 
L 2988 1197 
Q 2756 1666 2539 1819 
Q 2322 1972 1947 1972 
L 1259 1972 
L 1259 0 
L 628 0 
L 628 4666 
L 2053 4666 
Q 2853 4666 3247 4331 
Q 3641 3997 3641 3322 
Q 3641 2881 3436 2590 
Q 3231 2300 2841 2188 
z
M 1259 4147 
L 1259 2491 
L 2053 2491 
Q 2509 2491 2742 2702 
Q 2975 2913 2975 3322 
Q 2975 3731 2742 3939 
Q 2509 4147 2053 4147 
L 1259 4147 
z
" transform="scale(0.015625)"/>
      <path id="DejaVuSans-46" d="M 628 4666 
L 3309 4666 
L 3309 4134 
L 1259 4134 
L 1259 2759 
L 3109 2759 
L 3109 2228 
L 1259 2228 
L 1259 0 
L 628 0 
L 628 4666 
z
" transform="scale(0.015625)"/>
      <path id="DejaVuSans-50" d="M 1259 4147 
L 1259 2394 
L 2053 2394 
Q 2494 2394 2734 2622 
Q 2975 2850 2975 3272 
Q 2975 3691 2734 3919 
Q 2494 4147 2053 4147 
L 1259 4147 
z
M 628 4666 
L 2053 4666 
Q 2838 4666 3239 4311 
Q 3641 3956 3641 3272 
Q 3641 2581 3239 2228 
Q 2838 1875 2053 1875 
L 1259 1875 
L 1259 0 
L 628 0 
L 628 4666 
z
" transform="scale(0.015625)"/>
      <path id="DejaVuSans-77" d="M 269 3500 
L 844 3500 
L 1563 769 
L 2278 3500 
L 2956 3500 
L 3675 769 
L 4391 3500 
L 4966 3500 
L 4050 0 
L 3372 0 
L 2619 2869 
L 1863 0 
L 1184 0 
L 269 3500 
z
" transform="scale(0.015625)"/>
      <path id="DejaVuSans-3d" d="M 678 2906 
L 4684 2906 
L 4684 2381 
L 678 2381 
L 678 2906 
z
M 678 1631 
L 4684 1631 
L 4684 1100 
L 678 1100 
L 678 1631 
z
" transform="scale(0.015625)"/>
      <path id="DejaVuSans-2d" d="M 313 2009 
L 1997 2009 
L 1997 1497 
L 313 1497 
L 313 2009 
z
" transform="scale(0.015625)"/>
      <path id="DejaVuSans-33" d="M 2597 2516 
Q 3050 2419 3304 2112 
Q 3559 1806 3559 1356 
Q 3559 666 3084 287 
Q 2609 -91 1734 -91 
Q 1441 -91 1130 -33 
Q 819 25 488 141 
L 488 750 
Q 750 597 1062 519 
Q 1375 441 1716 441 
Q 2309 441 2620 675 
Q 2931 909 2931 1356 
Q 2931 1769 2642 2001 
Q 2353 2234 1838 2234 
L 1294 2234 
L 1294 2753 
L 1863 2753 
Q 2328 2753 2575 2939 
Q 2822 3125 2822 3475 
Q 2822 3834 2567 4026 
Q 2313 4219 1838 4219 
Q 1578 4219 1281 4162 
Q 984 4106 628 3988 
L 628 4550 
Q 988 4650 1302 4700 
Q 1616 4750 1894 4750 
Q 2613 4750 3031 4423 
Q 3450 4097 3450 3541 
Q 3450 3153 3228 2886 
Q 3006 2619 2597 2516 
z
" transform="scale(0.015625)"/>
      <path id="DejaVuSans-2c" d="M 750 794 
L 1409 794 
L 1409 256 
L 897 -744 
L 494 -744 
L 750 256 
L 750 794 
z
" transform="scale(0.015625)"/>
      <path id="DejaVuSans-4c" d="M 628 4666 
L 1259 4666 
L 1259 531 
L 3531 531 
L 3531 0 
L 628 0 
L 628 4666 
z
" transform="scale(0.015625)"/>
      <path id="DejaVuSans-69" d="M 603 3500 
L 1178 3500 
L 1178 0 
L 603 0 
L 603 3500 
z
M 603 4863 
L 1178 4863 
L 1178 4134 
L 603 4134 
L 603 4863 
z
" transform="scale(0.015625)"/>
      <path id="DejaVuSans-57" d="M 213 4666 
L 850 4666 
L 1831 722 
L 2809 4666 
L 3519 4666 
L 4500 722 
L 5478 4666 
L 6119 4666 
L 4947 0 
L 4153 0 
L 3169 4050 
L 2175 0 
L 1381 0 
L 213 4666 
z
" transform="scale(0.015625)"/>
      <path id="DejaVuSans-64" d="M 2906 2969 
L 2906 4863 
L 3481 4863 
L 3481 0 
L 2906 0 
L 2906 525 
Q 2725 213 2448 61 
Q 2172 -91 1784 -91 
Q 1150 -91 751 415 
Q 353 922 353 1747 
Q 353 2572 751 3078 
Q 1150 3584 1784 3584 
Q 2172 3584 2448 3432 
Q 2725 3281 2906 2969 
z
M 947 1747 
Q 947 1113 1208 752 
Q 1469 391 1925 391 
Q 2381 391 2643 752 
Q 2906 1113 2906 1747 
Q 2906 2381 2643 2742 
Q 2381 3103 1925 3103 
Q 1469 3103 1208 2742 
Q 947 2381 947 1747 
z
" transform="scale(0.015625)"/>
      <path id="DejaVuSans-68" d="M 3513 2113 
L 3513 0 
L 2938 0 
L 2938 2094 
Q 2938 2591 2744 2837 
Q 2550 3084 2163 3084 
Q 1697 3084 1428 2787 
Q 1159 2491 1159 1978 
L 1159 0 
L 581 0 
L 581 4863 
L 1159 4863 
L 1159 2956 
Q 1366 3272 1645 3428 
Q 1925 3584 2291 3584 
Q 2894 3584 3203 3211 
Q 3513 2838 3513 2113 
z
" transform="scale(0.015625)"/>
     </defs>
     <use xlink:href="#DejaVuSans-52"/>
     <use xlink:href="#DejaVuSans-46" x="69.482422"/>
     <use xlink:href="#DejaVuSans-20" x="127.001953"/>
     <use xlink:href="#DejaVuSans-50" x="158.789062"/>
     <use xlink:href="#DejaVuSans-6f" x="215.466797"/>
     <use xlink:href="#DejaVuSans-77" x="276.648438"/>
     <use xlink:href="#DejaVuSans-65" x="358.435547"/>
     <use xlink:href="#DejaVuSans-72" x="419.958984"/>
     <use xlink:href="#DejaVuSans-20" x="461.072266"/>
     <use xlink:href="#DejaVuSans-3d" x="492.859375"/>
     <use xlink:href="#DejaVuSans-20" x="576.648438"/>
     <use xlink:href="#DejaVuSans-2d" x="608.435547"/>
     <use xlink:href="#DejaVuSans-33" x="644.519531"/>
     <use xlink:href="#DejaVuSans-38" x="708.142578"/>
     <use xlink:href="#DejaVuSans-2c" x="771.765625"/>
     <use xlink:href="#DejaVuSans-20" x="803.552734"/>
     <use xlink:href="#DejaVuSans-4c" x="835.339844"/>
     <use xlink:href="#DejaVuSans-69" x="891.052734"/>
     <use xlink:href="#DejaVuSans-6e" x="918.835938"/>
     <use xlink:href="#DejaVuSans-65" x="982.214844"/>
     <use xlink:href="#DejaVuSans-20" x="1043.738281"/>
     <use xlink:href="#DejaVuSans-57" x="1075.525391"/>
     <use xlink:href="#DejaVuSans-69" x="1172.152344"/>
     <use xlink:href="#DejaVuSans-64" x="1199.935547"/>
     <use xlink:href="#DejaVuSans-74" x="1263.412109"/>
     <use xlink:href="#DejaVuSans-68" x="1302.621094"/>
     <use xlink:href="#DejaVuSans-20" x="1366"/>
     <use xlink:href="#DejaVuSans-3d" x="1397.787109"/>
     <use xlink:href="#DejaVuSans-20" x="1481.576172"/>
     <use xlink:href="#DejaVuSans-30" x="1513.363281"/>
     <use xlink:href="#DejaVuSans-2e" x="1576.986328"/>
     <use xlink:href="#DejaVuSans-34" x="1608.773438"/>
     <use xlink:href="#DejaVuSans-32" x="1672.396484"/>
     <use xlink:href="#DejaVuSans-20" x="1736.019531"/>
     <use xlink:href="#DejaVuSans-4d" x="1767.806641"/>
     <use xlink:href="#DejaVuSans-48" x="1854.085938"/>
     <use xlink:href="#DejaVuSans-7a" x="1929.28125"/>
    </g>
   </g>
   <g id="legend_1">
    <g id="patch_7">
     <path d="M 97 379.48 
L 152.876563 379.48 
Q 154.876563 379.48 154.876563 377.48 
L 154.876563 349.12375 
Q 154.876563 347.12375 152.876563 347.12375 
L 97 347.12375 
Q 95 347.12375 95 349.12375 
L 95 377.48 
Q 95 379.48 97 379.48 
z
" style="fill: #ffffff; opacity: 0.8; stroke: #cccccc; stroke-linejoin: miter"/>
    </g>
    <g id="line2d_20">
     <path d="M 99 355.222188 
L 109 355.222188 
L 119 355.222188 
" style="fill: none; stroke: #1f77b4; stroke-width: 1.5; stroke-linecap: square"/>
     <g>
      <use xlink:href="#m34f5e6e511" x="109" y="355.222188" style="fill: #1f77b4; stroke: #1f77b4"/>
     </g>
    </g>
    <g id="text_21">
     <!-- Data -->
     <g transform="translate(127 358.722188) scale(0.1 -0.1)">
      <defs>
       <path id="DejaVuSans-44" d="M 1259 4147 
L 1259 519 
L 2022 519 
Q 2988 519 3436 956 
Q 3884 1394 3884 2338 
Q 3884 3275 3436 3711 
Q 2988 4147 2022 4147 
L 1259 4147 
z
M 628 4666 
L 1925 4666 
Q 3281 4666 3915 4102 
Q 4550 3538 4550 2338 
Q 4550 1131 3912 565 
Q 3275 0 1925 0 
L 628 0 
L 628 4666 
z
" transform="scale(0.015625)"/>
      </defs>
      <use xlink:href="#DejaVuSans-44"/>
      <use xlink:href="#DejaVuSans-61" x="77.001953"/>
      <use xlink:href="#DejaVuSans-74" x="138.28125"/>
      <use xlink:href="#DejaVuSans-61" x="177.490234"/>
     </g>
    </g>
    <g id="line2d_21">
     <path d="M 99 369.900312 
L 109 369.900312 
L 119 369.900312 
" style="fill: none; stroke-dasharray: 5.55,2.4; stroke-dashoffset: 0; stroke: #000000; stroke-width: 1.5"/>
    </g>
    <g id="text_22">
     <!-- Fit -->
     <g transform="translate(127 373.400312) scale(0.1 -0.1)">
      <use xlink:href="#DejaVuSans-46"/>
      <use xlink:href="#DejaVuSans-69" x="50.269531"/>
      <use xlink:href="#DejaVuSans-74" x="78.052734"/>
     </g>
    </g>
   </g>
  </g>
 </g>
 <defs>
  <clipPath id="p4d68f03100">
   <rect x="90" y="51.84" width="558" height="332.64"/>
  </clipPath>
 </defs>
</svg>
