<?xml version="1.0" encoding="utf-8" standalone="no"?>
<!DOCTYPE svg PUBLIC "-//W3C//DTD SVG 1.1//EN"
  "http://www.w3.org/Graphics/SVG/1.1/DTD/svg11.dtd">
<svg xmlns:xlink="http://www.w3.org/1999/xlink" width="720pt" height="432pt" viewBox="0 0 720 432" xmlns="http://www.w3.org/2000/svg" version="1.1">
 <metadata>
  <rdf:RDF xmlns:dc="http://purl.org/dc/elements/1.1/" xmlns:cc="http://creativecommons.org/ns#" xmlns:rdf="http://www.w3.org/1999/02/22-rdf-syntax-ns#">
   <cc:Work>
    <dc:type rdf:resource="http://purl.org/dc/dcmitype/StillImage"/>
    <dc:date>2023-03-30T12:46:15.130212</dc:date>
    <dc:format>image/svg+xml</dc:format>
    <dc:creator>
     <cc:Agent>
      <dc:title>Matplotlib v3.7.0, https://matplotlib.org/</dc:title>
     </cc:Agent>
    </dc:creator>
   </cc:Work>
  </rdf:RDF>
 </metadata>
 <defs>
  <style type="text/css">*{stroke-linejoin: round; stroke-linecap: butt}</style>
 </defs>
 <g id="figure_1">
  <g id="patch_1">
   <path d="M 0 432 
L 720 432 
L 720 0 
L 0 0 
L 0 432 
z
" style="fill: none"/>
  </g>
  <g id="axes_1">
   <g id="patch_2">
    <path d="M 90 384.48 
L 648 384.48 
L 648 51.84 
L 90 51.84 
L 90 384.48 
z
" style="fill: none"/>
   </g>
   <g id="matplotlib.axis_1">
    <g id="xtick_1">
     <g id="line2d_1">
      <defs>
       <path id="m820e1481c3" d="M 0 0 
L 0 3.5 
" style="stroke: #000000; stroke-width: 0.8"/>
      </defs>
      <g>
       <use xlink:href="#m820e1481c3" x="115.363636" y="384.48" style="stroke: #000000; stroke-width: 0.8"/>
      </g>
     </g>
     <g id="text_1">
      <!-- 2765 -->
      <g transform="translate(102.638636 399.078438) scale(0.1 -0.1)">
       <defs>
        <path id="DejaVuSans-32" d="M 1228 531 
L 3431 531 
L 3431 0 
L 469 0 
L 469 531 
Q 828 903 1448 1529 
Q 2069 2156 2228 2338 
Q 2531 2678 2651 2914 
Q 2772 3150 2772 3378 
Q 2772 3750 2511 3984 
Q 2250 4219 1831 4219 
Q 1534 4219 1204 4116 
Q 875 4013 500 3803 
L 500 4441 
Q 881 4594 1212 4672 
Q 1544 4750 1819 4750 
Q 2544 4750 2975 4387 
Q 3406 4025 3406 3419 
Q 3406 3131 3298 2873 
Q 3191 2616 2906 2266 
Q 2828 2175 2409 1742 
Q 1991 1309 1228 531 
z
" transform="scale(0.015625)"/>
        <path id="DejaVuSans-37" d="M 525 4666 
L 3525 4666 
L 3525 4397 
L 1831 0 
L 1172 0 
L 2766 4134 
L 525 4134 
L 525 4666 
z
" transform="scale(0.015625)"/>
        <path id="DejaVuSans-36" d="M 2113 2584 
Q 1688 2584 1439 2293 
Q 1191 2003 1191 1497 
Q 1191 994 1439 701 
Q 1688 409 2113 409 
Q 2538 409 2786 701 
Q 3034 994 3034 1497 
Q 3034 2003 2786 2293 
Q 2538 2584 2113 2584 
z
M 3366 4563 
L 3366 3988 
Q 3128 4100 2886 4159 
Q 2644 4219 2406 4219 
Q 1781 4219 1451 3797 
Q 1122 3375 1075 2522 
Q 1259 2794 1537 2939 
Q 1816 3084 2150 3084 
Q 2853 3084 3261 2657 
Q 3669 2231 3669 1497 
Q 3669 778 3244 343 
Q 2819 -91 2113 -91 
Q 1303 -91 875 529 
Q 447 1150 447 2328 
Q 447 3434 972 4092 
Q 1497 4750 2381 4750 
Q 2619 4750 2861 4703 
Q 3103 4656 3366 4563 
z
" transform="scale(0.015625)"/>
        <path id="DejaVuSans-35" d="M 691 4666 
L 3169 4666 
L 3169 4134 
L 1269 4134 
L 1269 2991 
Q 1406 3038 1543 3061 
Q 1681 3084 1819 3084 
Q 2600 3084 3056 2656 
Q 3513 2228 3513 1497 
Q 3513 744 3044 326 
Q 2575 -91 1722 -91 
Q 1428 -91 1123 -41 
Q 819 9 494 109 
L 494 744 
Q 775 591 1075 516 
Q 1375 441 1709 441 
Q 2250 441 2565 725 
Q 2881 1009 2881 1497 
Q 2881 1984 2565 2268 
Q 2250 2553 1709 2553 
Q 1456 2553 1204 2497 
Q 953 2441 691 2322 
L 691 4666 
z
" transform="scale(0.015625)"/>
       </defs>
       <use xlink:href="#DejaVuSans-32"/>
       <use xlink:href="#DejaVuSans-37" x="63.623047"/>
       <use xlink:href="#DejaVuSans-36" x="127.246094"/>
       <use xlink:href="#DejaVuSans-35" x="190.869141"/>
      </g>
     </g>
    </g>
    <g id="xtick_2">
     <g id="line2d_2">
      <g>
       <use xlink:href="#m820e1481c3" x="187.831169" y="384.48" style="stroke: #000000; stroke-width: 0.8"/>
      </g>
     </g>
     <g id="text_2">
      <!-- 2770 -->
      <g transform="translate(175.106169 399.078438) scale(0.1 -0.1)">
       <defs>
        <path id="DejaVuSans-30" d="M 2034 4250 
Q 1547 4250 1301 3770 
Q 1056 3291 1056 2328 
Q 1056 1369 1301 889 
Q 1547 409 2034 409 
Q 2525 409 2770 889 
Q 3016 1369 3016 2328 
Q 3016 3291 2770 3770 
Q 2525 4250 2034 4250 
z
M 2034 4750 
Q 2819 4750 3233 4129 
Q 3647 3509 3647 2328 
Q 3647 1150 3233 529 
Q 2819 -91 2034 -91 
Q 1250 -91 836 529 
Q 422 1150 422 2328 
Q 422 3509 836 4129 
Q 1250 4750 2034 4750 
z
" transform="scale(0.015625)"/>
       </defs>
       <use xlink:href="#DejaVuSans-32"/>
       <use xlink:href="#DejaVuSans-37" x="63.623047"/>
       <use xlink:href="#DejaVuSans-37" x="127.246094"/>
       <use xlink:href="#DejaVuSans-30" x="190.869141"/>
      </g>
     </g>
    </g>
    <g id="xtick_3">
     <g id="line2d_3">
      <g>
       <use xlink:href="#m820e1481c3" x="260.298701" y="384.48" style="stroke: #000000; stroke-width: 0.8"/>
      </g>
     </g>
     <g id="text_3">
      <!-- 2775 -->
      <g transform="translate(247.573701 399.078438) scale(0.1 -0.1)">
       <use xlink:href="#DejaVuSans-32"/>
       <use xlink:href="#DejaVuSans-37" x="63.623047"/>
       <use xlink:href="#DejaVuSans-37" x="127.246094"/>
       <use xlink:href="#DejaVuSans-35" x="190.869141"/>
      </g>
     </g>
    </g>
    <g id="xtick_4">
     <g id="line2d_4">
      <g>
       <use xlink:href="#m820e1481c3" x="332.766234" y="384.48" style="stroke: #000000; stroke-width: 0.8"/>
      </g>
     </g>
     <g id="text_4">
      <!-- 2780 -->
      <g transform="translate(320.041234 399.078438) scale(0.1 -0.1)">
       <defs>
        <path id="DejaVuSans-38" d="M 2034 2216 
Q 1584 2216 1326 1975 
Q 1069 1734 1069 1313 
Q 1069 891 1326 650 
Q 1584 409 2034 409 
Q 2484 409 2743 651 
Q 3003 894 3003 1313 
Q 3003 1734 2745 1975 
Q 2488 2216 2034 2216 
z
M 1403 2484 
Q 997 2584 770 2862 
Q 544 3141 544 3541 
Q 544 4100 942 4425 
Q 1341 4750 2034 4750 
Q 2731 4750 3128 4425 
Q 3525 4100 3525 3541 
Q 3525 3141 3298 2862 
Q 3072 2584 2669 2484 
Q 3125 2378 3379 2068 
Q 3634 1759 3634 1313 
Q 3634 634 3220 271 
Q 2806 -91 2034 -91 
Q 1263 -91 848 271 
Q 434 634 434 1313 
Q 434 1759 690 2068 
Q 947 2378 1403 2484 
z
M 1172 3481 
Q 1172 3119 1398 2916 
Q 1625 2713 2034 2713 
Q 2441 2713 2670 2916 
Q 2900 3119 2900 3481 
Q 2900 3844 2670 4047 
Q 2441 4250 2034 4250 
Q 1625 4250 1398 4047 
Q 1172 3844 1172 3481 
z
" transform="scale(0.015625)"/>
       </defs>
       <use xlink:href="#DejaVuSans-32"/>
       <use xlink:href="#DejaVuSans-37" x="63.623047"/>
       <use xlink:href="#DejaVuSans-38" x="127.246094"/>
       <use xlink:href="#DejaVuSans-30" x="190.869141"/>
      </g>
     </g>
    </g>
    <g id="xtick_5">
     <g id="line2d_5">
      <g>
       <use xlink:href="#m820e1481c3" x="405.233766" y="384.48" style="stroke: #000000; stroke-width: 0.8"/>
      </g>
     </g>
     <g id="text_5">
      <!-- 2785 -->
      <g transform="translate(392.508766 399.078438) scale(0.1 -0.1)">
       <use xlink:href="#DejaVuSans-32"/>
       <use xlink:href="#DejaVuSans-37" x="63.623047"/>
       <use xlink:href="#DejaVuSans-38" x="127.246094"/>
       <use xlink:href="#DejaVuSans-35" x="190.869141"/>
      </g>
     </g>
    </g>
    <g id="xtick_6">
     <g id="line2d_6">
      <g>
       <use xlink:href="#m820e1481c3" x="477.701299" y="384.48" style="stroke: #000000; stroke-width: 0.8"/>
      </g>
     </g>
     <g id="text_6">
      <!-- 2790 -->
      <g transform="translate(464.976299 399.078438) scale(0.1 -0.1)">
       <defs>
        <path id="DejaVuSans-39" d="M 703 97 
L 703 672 
Q 941 559 1184 500 
Q 1428 441 1663 441 
Q 2288 441 2617 861 
Q 2947 1281 2994 2138 
Q 2813 1869 2534 1725 
Q 2256 1581 1919 1581 
Q 1219 1581 811 2004 
Q 403 2428 403 3163 
Q 403 3881 828 4315 
Q 1253 4750 1959 4750 
Q 2769 4750 3195 4129 
Q 3622 3509 3622 2328 
Q 3622 1225 3098 567 
Q 2575 -91 1691 -91 
Q 1453 -91 1209 -44 
Q 966 3 703 97 
z
M 1959 2075 
Q 2384 2075 2632 2365 
Q 2881 2656 2881 3163 
Q 2881 3666 2632 3958 
Q 2384 4250 1959 4250 
Q 1534 4250 1286 3958 
Q 1038 3666 1038 3163 
Q 1038 2656 1286 2365 
Q 1534 2075 1959 2075 
z
" transform="scale(0.015625)"/>
       </defs>
       <use xlink:href="#DejaVuSans-32"/>
       <use xlink:href="#DejaVuSans-37" x="63.623047"/>
       <use xlink:href="#DejaVuSans-39" x="127.246094"/>
       <use xlink:href="#DejaVuSans-30" x="190.869141"/>
      </g>
     </g>
    </g>
    <g id="xtick_7">
     <g id="line2d_7">
      <g>
       <use xlink:href="#m820e1481c3" x="550.168831" y="384.48" style="stroke: #000000; stroke-width: 0.8"/>
      </g>
     </g>
     <g id="text_7">
      <!-- 2795 -->
      <g transform="translate(537.443831 399.078438) scale(0.1 -0.1)">
       <use xlink:href="#DejaVuSans-32"/>
       <use xlink:href="#DejaVuSans-37" x="63.623047"/>
       <use xlink:href="#DejaVuSans-39" x="127.246094"/>
       <use xlink:href="#DejaVuSans-35" x="190.869141"/>
      </g>
     </g>
    </g>
    <g id="xtick_8">
     <g id="line2d_8">
      <g>
       <use xlink:href="#m820e1481c3" x="622.636364" y="384.48" style="stroke: #000000; stroke-width: 0.8"/>
      </g>
     </g>
     <g id="text_8">
      <!-- 2800 -->
      <g transform="translate(609.911364 399.078438) scale(0.1 -0.1)">
       <use xlink:href="#DejaVuSans-32"/>
       <use xlink:href="#DejaVuSans-38" x="63.623047"/>
       <use xlink:href="#DejaVuSans-30" x="127.246094"/>
       <use xlink:href="#DejaVuSans-30" x="190.869141"/>
      </g>
     </g>
    </g>
    <g id="text_9">
     <!-- frequency [MHz] -->
     <g transform="translate(327.734375 412.756563) scale(0.1 -0.1)">
      <defs>
       <path id="DejaVuSans-66" d="M 2375 4863 
L 2375 4384 
L 1825 4384 
Q 1516 4384 1395 4259 
Q 1275 4134 1275 3809 
L 1275 3500 
L 2222 3500 
L 2222 3053 
L 1275 3053 
L 1275 0 
L 697 0 
L 697 3053 
L 147 3053 
L 147 3500 
L 697 3500 
L 697 3744 
Q 697 4328 969 4595 
Q 1241 4863 1831 4863 
L 2375 4863 
z
" transform="scale(0.015625)"/>
       <path id="DejaVuSans-72" d="M 2631 2963 
Q 2534 3019 2420 3045 
Q 2306 3072 2169 3072 
Q 1681 3072 1420 2755 
Q 1159 2438 1159 1844 
L 1159 0 
L 581 0 
L 581 3500 
L 1159 3500 
L 1159 2956 
Q 1341 3275 1631 3429 
Q 1922 3584 2338 3584 
Q 2397 3584 2469 3576 
Q 2541 3569 2628 3553 
L 2631 2963 
z
" transform="scale(0.015625)"/>
       <path id="DejaVuSans-65" d="M 3597 1894 
L 3597 1613 
L 953 1613 
Q 991 1019 1311 708 
Q 1631 397 2203 397 
Q 2534 397 2845 478 
Q 3156 559 3463 722 
L 3463 178 
Q 3153 47 2828 -22 
Q 2503 -91 2169 -91 
Q 1331 -91 842 396 
Q 353 884 353 1716 
Q 353 2575 817 3079 
Q 1281 3584 2069 3584 
Q 2775 3584 3186 3129 
Q 3597 2675 3597 1894 
z
M 3022 2063 
Q 3016 2534 2758 2815 
Q 2500 3097 2075 3097 
Q 1594 3097 1305 2825 
Q 1016 2553 972 2059 
L 3022 2063 
z
" transform="scale(0.015625)"/>
       <path id="DejaVuSans-71" d="M 947 1747 
Q 947 1113 1208 752 
Q 1469 391 1925 391 
Q 2381 391 2643 752 
Q 2906 1113 2906 1747 
Q 2906 2381 2643 2742 
Q 2381 3103 1925 3103 
Q 1469 3103 1208 2742 
Q 947 2381 947 1747 
z
M 2906 525 
Q 2725 213 2448 61 
Q 2172 -91 1784 -91 
Q 1150 -91 751 415 
Q 353 922 353 1747 
Q 353 2572 751 3078 
Q 1150 3584 1784 3584 
Q 2172 3584 2448 3432 
Q 2725 3281 2906 2969 
L 2906 3500 
L 3481 3500 
L 3481 -1331 
L 2906 -1331 
L 2906 525 
z
" transform="scale(0.015625)"/>
       <path id="DejaVuSans-75" d="M 544 1381 
L 544 3500 
L 1119 3500 
L 1119 1403 
Q 1119 906 1312 657 
Q 1506 409 1894 409 
Q 2359 409 2629 706 
Q 2900 1003 2900 1516 
L 2900 3500 
L 3475 3500 
L 3475 0 
L 2900 0 
L 2900 538 
Q 2691 219 2414 64 
Q 2138 -91 1772 -91 
Q 1169 -91 856 284 
Q 544 659 544 1381 
z
M 1991 3584 
L 1991 3584 
z
" transform="scale(0.015625)"/>
       <path id="DejaVuSans-6e" d="M 3513 2113 
L 3513 0 
L 2938 0 
L 2938 2094 
Q 2938 2591 2744 2837 
Q 2550 3084 2163 3084 
Q 1697 3084 1428 2787 
Q 1159 2491 1159 1978 
L 1159 0 
L 581 0 
L 581 3500 
L 1159 3500 
L 1159 2956 
Q 1366 3272 1645 3428 
Q 1925 3584 2291 3584 
Q 2894 3584 3203 3211 
Q 3513 2838 3513 2113 
z
" transform="scale(0.015625)"/>
       <path id="DejaVuSans-63" d="M 3122 3366 
L 3122 2828 
Q 2878 2963 2633 3030 
Q 2388 3097 2138 3097 
Q 1578 3097 1268 2742 
Q 959 2388 959 1747 
Q 959 1106 1268 751 
Q 1578 397 2138 397 
Q 2388 397 2633 464 
Q 2878 531 3122 666 
L 3122 134 
Q 2881 22 2623 -34 
Q 2366 -91 2075 -91 
Q 1284 -91 818 406 
Q 353 903 353 1747 
Q 353 2603 823 3093 
Q 1294 3584 2113 3584 
Q 2378 3584 2631 3529 
Q 2884 3475 3122 3366 
z
" transform="scale(0.015625)"/>
       <path id="DejaVuSans-79" d="M 2059 -325 
Q 1816 -950 1584 -1140 
Q 1353 -1331 966 -1331 
L 506 -1331 
L 506 -850 
L 844 -850 
Q 1081 -850 1212 -737 
Q 1344 -625 1503 -206 
L 1606 56 
L 191 3500 
L 800 3500 
L 1894 763 
L 2988 3500 
L 3597 3500 
L 2059 -325 
z
" transform="scale(0.015625)"/>
       <path id="DejaVuSans-20" transform="scale(0.015625)"/>
       <path id="DejaVuSans-5b" d="M 550 4863 
L 1875 4863 
L 1875 4416 
L 1125 4416 
L 1125 -397 
L 1875 -397 
L 1875 -844 
L 550 -844 
L 550 4863 
z
" transform="scale(0.015625)"/>
       <path id="DejaVuSans-4d" d="M 628 4666 
L 1569 4666 
L 2759 1491 
L 3956 4666 
L 4897 4666 
L 4897 0 
L 4281 0 
L 4281 4097 
L 3078 897 
L 2444 897 
L 1241 4097 
L 1241 0 
L 628 0 
L 628 4666 
z
" transform="scale(0.015625)"/>
       <path id="DejaVuSans-48" d="M 628 4666 
L 1259 4666 
L 1259 2753 
L 3553 2753 
L 3553 4666 
L 4184 4666 
L 4184 0 
L 3553 0 
L 3553 2222 
L 1259 2222 
L 1259 0 
L 628 0 
L 628 4666 
z
" transform="scale(0.015625)"/>
       <path id="DejaVuSans-7a" d="M 353 3500 
L 3084 3500 
L 3084 2975 
L 922 459 
L 3084 459 
L 3084 0 
L 275 0 
L 275 525 
L 2438 3041 
L 353 3041 
L 353 3500 
z
" transform="scale(0.015625)"/>
       <path id="DejaVuSans-5d" d="M 1947 4863 
L 1947 -844 
L 622 -844 
L 622 -397 
L 1369 -397 
L 1369 4416 
L 622 4416 
L 622 4863 
L 1947 4863 
z
" transform="scale(0.015625)"/>
      </defs>
      <use xlink:href="#DejaVuSans-66"/>
      <use xlink:href="#DejaVuSans-72" x="35.205078"/>
      <use xlink:href="#DejaVuSans-65" x="74.068359"/>
      <use xlink:href="#DejaVuSans-71" x="135.591797"/>
      <use xlink:href="#DejaVuSans-75" x="199.068359"/>
      <use xlink:href="#DejaVuSans-65" x="262.447266"/>
      <use xlink:href="#DejaVuSans-6e" x="323.970703"/>
      <use xlink:href="#DejaVuSans-63" x="387.349609"/>
      <use xlink:href="#DejaVuSans-79" x="442.330078"/>
      <use xlink:href="#DejaVuSans-20" x="501.509766"/>
      <use xlink:href="#DejaVuSans-5b" x="533.296875"/>
      <use xlink:href="#DejaVuSans-4d" x="572.310547"/>
      <use xlink:href="#DejaVuSans-48" x="658.589844"/>
      <use xlink:href="#DejaVuSans-7a" x="733.785156"/>
      <use xlink:href="#DejaVuSans-5d" x="786.275391"/>
     </g>
    </g>
   </g>
   <g id="matplotlib.axis_2">
    <g id="ytick_1">
     <g id="line2d_9">
      <defs>
       <path id="mbf3d69f7b8" d="M 0 0 
L -3.5 0 
" style="stroke: #000000; stroke-width: 0.8"/>
      </defs>
      <g>
       <use xlink:href="#mbf3d69f7b8" x="90" y="361.758428" style="stroke: #000000; stroke-width: 0.8"/>
      </g>
     </g>
     <g id="text_10">
      <!-- 0.970 -->
      <g transform="translate(54.371875 365.557646) scale(0.1 -0.1)">
       <defs>
        <path id="DejaVuSans-2e" d="M 684 794 
L 1344 794 
L 1344 0 
L 684 0 
L 684 794 
z
" transform="scale(0.015625)"/>
       </defs>
       <use xlink:href="#DejaVuSans-30"/>
       <use xlink:href="#DejaVuSans-2e" x="63.623047"/>
       <use xlink:href="#DejaVuSans-39" x="95.410156"/>
       <use xlink:href="#DejaVuSans-37" x="159.033203"/>
       <use xlink:href="#DejaVuSans-30" x="222.65625"/>
      </g>
     </g>
    </g>
    <g id="ytick_2">
     <g id="line2d_10">
      <g>
       <use xlink:href="#mbf3d69f7b8" x="90" y="314.872842" style="stroke: #000000; stroke-width: 0.8"/>
      </g>
     </g>
     <g id="text_11">
      <!-- 0.975 -->
      <g transform="translate(54.371875 318.67206) scale(0.1 -0.1)">
       <use xlink:href="#DejaVuSans-30"/>
       <use xlink:href="#DejaVuSans-2e" x="63.623047"/>
       <use xlink:href="#DejaVuSans-39" x="95.410156"/>
       <use xlink:href="#DejaVuSans-37" x="159.033203"/>
       <use xlink:href="#DejaVuSans-35" x="222.65625"/>
      </g>
     </g>
    </g>
    <g id="ytick_3">
     <g id="line2d_11">
      <g>
       <use xlink:href="#mbf3d69f7b8" x="90" y="267.987256" style="stroke: #000000; stroke-width: 0.8"/>
      </g>
     </g>
     <g id="text_12">
      <!-- 0.980 -->
      <g transform="translate(54.371875 271.786474) scale(0.1 -0.1)">
       <use xlink:href="#DejaVuSans-30"/>
       <use xlink:href="#DejaVuSans-2e" x="63.623047"/>
       <use xlink:href="#DejaVuSans-39" x="95.410156"/>
       <use xlink:href="#DejaVuSans-38" x="159.033203"/>
       <use xlink:href="#DejaVuSans-30" x="222.65625"/>
      </g>
     </g>
    </g>
    <g id="ytick_4">
     <g id="line2d_12">
      <g>
       <use xlink:href="#mbf3d69f7b8" x="90" y="221.10167" style="stroke: #000000; stroke-width: 0.8"/>
      </g>
     </g>
     <g id="text_13">
      <!-- 0.985 -->
      <g transform="translate(54.371875 224.900888) scale(0.1 -0.1)">
       <use xlink:href="#DejaVuSans-30"/>
       <use xlink:href="#DejaVuSans-2e" x="63.623047"/>
       <use xlink:href="#DejaVuSans-39" x="95.410156"/>
       <use xlink:href="#DejaVuSans-38" x="159.033203"/>
       <use xlink:href="#DejaVuSans-35" x="222.65625"/>
      </g>
     </g>
    </g>
    <g id="ytick_5">
     <g id="line2d_13">
      <g>
       <use xlink:href="#mbf3d69f7b8" x="90" y="174.216084" style="stroke: #000000; stroke-width: 0.8"/>
      </g>
     </g>
     <g id="text_14">
      <!-- 0.990 -->
      <g transform="translate(54.371875 178.015302) scale(0.1 -0.1)">
       <use xlink:href="#DejaVuSans-30"/>
       <use xlink:href="#DejaVuSans-2e" x="63.623047"/>
       <use xlink:href="#DejaVuSans-39" x="95.410156"/>
       <use xlink:href="#DejaVuSans-39" x="159.033203"/>
       <use xlink:href="#DejaVuSans-30" x="222.65625"/>
      </g>
     </g>
    </g>
    <g id="ytick_6">
     <g id="line2d_14">
      <g>
       <use xlink:href="#mbf3d69f7b8" x="90" y="127.330498" style="stroke: #000000; stroke-width: 0.8"/>
      </g>
     </g>
     <g id="text_15">
      <!-- 0.995 -->
      <g transform="translate(54.371875 131.129716) scale(0.1 -0.1)">
       <use xlink:href="#DejaVuSans-30"/>
       <use xlink:href="#DejaVuSans-2e" x="63.623047"/>
       <use xlink:href="#DejaVuSans-39" x="95.410156"/>
       <use xlink:href="#DejaVuSans-39" x="159.033203"/>
       <use xlink:href="#DejaVuSans-35" x="222.65625"/>
      </g>
     </g>
    </g>
    <g id="ytick_7">
     <g id="line2d_15">
      <g>
       <use xlink:href="#mbf3d69f7b8" x="90" y="80.444912" style="stroke: #000000; stroke-width: 0.8"/>
      </g>
     </g>
     <g id="text_16">
      <!-- 1.000 -->
      <g transform="translate(54.371875 84.24413) scale(0.1 -0.1)">
       <defs>
        <path id="DejaVuSans-31" d="M 794 531 
L 1825 531 
L 1825 4091 
L 703 3866 
L 703 4441 
L 1819 4666 
L 2450 4666 
L 2450 531 
L 3481 531 
L 3481 0 
L 794 0 
L 794 531 
z
" transform="scale(0.015625)"/>
       </defs>
       <use xlink:href="#DejaVuSans-31"/>
       <use xlink:href="#DejaVuSans-2e" x="63.623047"/>
       <use xlink:href="#DejaVuSans-30" x="95.410156"/>
       <use xlink:href="#DejaVuSans-30" x="159.033203"/>
       <use xlink:href="#DejaVuSans-30" x="222.65625"/>
      </g>
     </g>
    </g>
    <g id="text_17">
     <!-- Contrast -->
     <g transform="translate(48.292187 239.524062) rotate(-90) scale(0.1 -0.1)">
      <defs>
       <path id="DejaVuSans-43" d="M 4122 4306 
L 4122 3641 
Q 3803 3938 3442 4084 
Q 3081 4231 2675 4231 
Q 1875 4231 1450 3742 
Q 1025 3253 1025 2328 
Q 1025 1406 1450 917 
Q 1875 428 2675 428 
Q 3081 428 3442 575 
Q 3803 722 4122 1019 
L 4122 359 
Q 3791 134 3420 21 
Q 3050 -91 2638 -91 
Q 1578 -91 968 557 
Q 359 1206 359 2328 
Q 359 3453 968 4101 
Q 1578 4750 2638 4750 
Q 3056 4750 3426 4639 
Q 3797 4528 4122 4306 
z
" transform="scale(0.015625)"/>
       <path id="DejaVuSans-6f" d="M 1959 3097 
Q 1497 3097 1228 2736 
Q 959 2375 959 1747 
Q 959 1119 1226 758 
Q 1494 397 1959 397 
Q 2419 397 2687 759 
Q 2956 1122 2956 1747 
Q 2956 2369 2687 2733 
Q 2419 3097 1959 3097 
z
M 1959 3584 
Q 2709 3584 3137 3096 
Q 3566 2609 3566 1747 
Q 3566 888 3137 398 
Q 2709 -91 1959 -91 
Q 1206 -91 779 398 
Q 353 888 353 1747 
Q 353 2609 779 3096 
Q 1206 3584 1959 3584 
z
" transform="scale(0.015625)"/>
       <path id="DejaVuSans-74" d="M 1172 4494 
L 1172 3500 
L 2356 3500 
L 2356 3053 
L 1172 3053 
L 1172 1153 
Q 1172 725 1289 603 
Q 1406 481 1766 481 
L 2356 481 
L 2356 0 
L 1766 0 
Q 1100 0 847 248 
Q 594 497 594 1153 
L 594 3053 
L 172 3053 
L 172 3500 
L 594 3500 
L 594 4494 
L 1172 4494 
z
" transform="scale(0.015625)"/>
       <path id="DejaVuSans-61" d="M 2194 1759 
Q 1497 1759 1228 1600 
Q 959 1441 959 1056 
Q 959 750 1161 570 
Q 1363 391 1709 391 
Q 2188 391 2477 730 
Q 2766 1069 2766 1631 
L 2766 1759 
L 2194 1759 
z
M 3341 1997 
L 3341 0 
L 2766 0 
L 2766 531 
Q 2569 213 2275 61 
Q 1981 -91 1556 -91 
Q 1019 -91 701 211 
Q 384 513 384 1019 
Q 384 1609 779 1909 
Q 1175 2209 1959 2209 
L 2766 2209 
L 2766 2266 
Q 2766 2663 2505 2880 
Q 2244 3097 1772 3097 
Q 1472 3097 1187 3025 
Q 903 2953 641 2809 
L 641 3341 
Q 956 3463 1253 3523 
Q 1550 3584 1831 3584 
Q 2591 3584 2966 3190 
Q 3341 2797 3341 1997 
z
" transform="scale(0.015625)"/>
       <path id="DejaVuSans-73" d="M 2834 3397 
L 2834 2853 
Q 2591 2978 2328 3040 
Q 2066 3103 1784 3103 
Q 1356 3103 1142 2972 
Q 928 2841 928 2578 
Q 928 2378 1081 2264 
Q 1234 2150 1697 2047 
L 1894 2003 
Q 2506 1872 2764 1633 
Q 3022 1394 3022 966 
Q 3022 478 2636 193 
Q 2250 -91 1575 -91 
Q 1294 -91 989 -36 
Q 684 19 347 128 
L 347 722 
Q 666 556 975 473 
Q 1284 391 1588 391 
Q 1994 391 2212 530 
Q 2431 669 2431 922 
Q 2431 1156 2273 1281 
Q 2116 1406 1581 1522 
L 1381 1569 
Q 847 1681 609 1914 
Q 372 2147 372 2553 
Q 372 3047 722 3315 
Q 1072 3584 1716 3584 
Q 2034 3584 2315 3537 
Q 2597 3491 2834 3397 
z
" transform="scale(0.015625)"/>
      </defs>
      <use xlink:href="#DejaVuSans-43"/>
      <use xlink:href="#DejaVuSans-6f" x="69.824219"/>
      <use xlink:href="#DejaVuSans-6e" x="131.005859"/>
      <use xlink:href="#DejaVuSans-74" x="194.384766"/>
      <use xlink:href="#DejaVuSans-72" x="233.59375"/>
      <use xlink:href="#DejaVuSans-61" x="274.707031"/>
      <use xlink:href="#DejaVuSans-73" x="335.986328"/>
      <use xlink:href="#DejaVuSans-74" x="388.085938"/>
     </g>
    </g>
   </g>
   <g id="line2d_16">
    <path d="M 115.363636 86.218405 
L 116.812987 77.625496 
L 118.262338 66.96 
L 119.711688 80.670694 
L 121.161039 83.948144 
L 122.61039 90.499763 
L 124.05974 100.691268 
L 125.509091 96.170267 
L 126.958442 78.485377 
L 128.407792 79.256499 
L 129.857143 88.531772 
L 131.306494 87.307643 
L 132.755844 73.135671 
L 134.205195 72.734346 
L 135.654545 87.889516 
L 137.103896 82.061998 
L 138.553247 80.293692 
L 140.002597 73.199733 
L 141.451948 69.8979 
L 142.901299 84.568967 
L 144.350649 85.787179 
L 145.8 84.754807 
L 147.249351 78.371322 
L 148.698701 84.702656 
L 150.148052 96.673949 
L 151.597403 79.803069 
L 153.046753 93.686691 
L 154.496104 78.829843 
L 155.945455 85.453469 
L 157.394805 89.829177 
L 158.844156 80.371285 
L 160.293506 88.696061 
L 161.742857 94.58216 
L 163.192208 80.410298 
L 164.641558 87.012262 
L 167.54026 76.363857 
L 168.98961 97.887239 
L 170.438961 87.730016 
L 171.888312 89.17903 
L 173.337662 87.985848 
L 174.787013 82.829034 
L 176.236364 81.182053 
L 177.685714 86.746013 
L 179.135065 73.728998 
L 180.584416 81.197667 
L 182.033766 105.156207 
L 183.483117 82.321353 
L 184.932468 101.304681 
L 186.381818 97.94636 
L 187.831169 94.89206 
L 189.280519 87.651861 
L 190.72987 71.504316 
L 192.179221 90.595202 
L 193.628571 90.451375 
L 195.077922 88.922007 
L 196.527273 106.99327 
L 197.976623 81.686732 
L 199.425974 72.411432 
L 200.875325 94.48805 
L 202.324675 82.057472 
L 203.774026 97.087307 
L 205.223377 93.673567 
L 206.672727 100.930411 
L 208.122078 84.300405 
L 209.571429 90.757517 
L 211.020779 100.986975 
L 212.47013 89.950676 
L 213.919481 100.715811 
L 215.368831 98.02163 
L 216.818182 110.737087 
L 218.267532 112.807549 
L 219.716883 108.18046 
L 221.166234 102.726082 
L 222.615584 105.038055 
L 224.064935 113.202309 
L 225.514286 106.429486 
L 226.963636 113.328541 
L 228.412987 103.281668 
L 229.862338 106.179063 
L 231.311688 119.88759 
L 232.761039 97.826234 
L 234.21039 125.446626 
L 235.65974 120.479941 
L 238.558442 100.038189 
L 240.007792 104.935612 
L 241.457143 105.532487 
L 242.906494 126.93421 
L 244.355844 107.594448 
L 245.805195 120.593548 
L 247.254545 120.015448 
L 248.703896 121.080444 
L 250.153247 129.98461 
L 251.602597 136.686658 
L 253.051948 139.316614 
L 254.501299 130.934512 
L 255.950649 124.842126 
L 257.4 130.47539 
L 258.849351 141.34841 
L 260.298701 139.265505 
L 261.748052 143.15817 
L 263.197403 141.155922 
L 264.646753 132.312285 
L 266.096104 134.833463 
L 267.545455 149.932388 
L 268.994805 139.113902 
L 270.444156 145.443346 
L 271.893506 155.250681 
L 273.342857 137.034396 
L 274.792208 141.78852 
L 276.241558 144.074417 
L 277.690909 159.835734 
L 279.14026 166.6809 
L 280.58961 155.131329 
L 282.038961 160.837066 
L 283.488312 164.8466 
L 284.937662 172.431788 
L 286.387013 161.765708 
L 287.836364 183.202438 
L 289.285714 177.843539 
L 290.735065 178.425828 
L 292.184416 189.588311 
L 293.633766 197.257484 
L 295.083117 193.022807 
L 296.532468 206.385317 
L 297.981818 213.338555 
L 299.431169 215.610601 
L 300.880519 220.45371 
L 302.32987 245.25752 
L 303.779221 235.62502 
L 305.228571 245.767616 
L 306.677922 248.790011 
L 308.127273 275.356312 
L 309.576623 267.785939 
L 311.025974 277.575529 
L 312.475325 282.827546 
L 313.924675 278.483442 
L 315.374026 298.622099 
L 316.823377 322.132163 
L 318.272727 322.418514 
L 319.722078 329.583913 
L 321.171429 328.047756 
L 322.620779 339.646889 
L 324.07013 342.060038 
L 325.519481 346.120207 
L 326.968831 339.505399 
L 328.418182 334.755771 
L 329.867532 329.17352 
L 331.316883 332.878196 
L 332.766234 329.685344 
L 334.215584 330.381996 
L 335.664935 319.034327 
L 337.114286 332.058891 
L 338.563636 343.091568 
L 340.012987 325.600114 
L 341.462338 339.041941 
L 342.911688 347.509553 
L 344.361039 343.140114 
L 345.81039 349.456838 
L 347.25974 367.902756 
L 348.709091 358.596574 
L 350.158442 369.36 
L 351.607792 356.487739 
L 353.057143 364.614357 
L 355.955844 353.191035 
L 357.405195 356.884072 
L 358.854545 359.70799 
L 360.303896 347.23376 
L 361.753247 349.833247 
L 363.202597 347.120956 
L 364.651948 341.121171 
L 366.101299 351.496286 
L 367.550649 342.359432 
L 369 330.770044 
L 370.449351 340.086058 
L 371.898701 350.416797 
L 373.348052 347.301595 
L 374.797403 346.518936 
L 376.246753 345.121791 
L 377.696104 337.707668 
L 379.145455 350.366748 
L 380.594805 343.066363 
L 382.044156 331.719885 
L 383.493506 342.479637 
L 384.942857 342.111674 
L 386.392208 333.73757 
L 387.841558 343.664246 
L 389.290909 315.642175 
L 390.74026 309.257041 
L 392.18961 311.886045 
L 393.638961 300.032223 
L 395.088312 278.106527 
L 396.537662 276.43358 
L 397.987013 261.051089 
L 399.436364 269.137663 
L 400.885714 259.231125 
L 402.335065 246.45465 
L 403.784416 232.02772 
L 405.233766 234.803954 
L 406.683117 217.29621 
L 408.132468 206.283857 
L 409.581818 211.860401 
L 411.031169 207.266645 
L 412.480519 219.384233 
L 413.92987 192.437849 
L 415.379221 194.887321 
L 416.828571 188.573199 
L 418.277922 179.400218 
L 419.727273 191.245526 
L 421.176623 185.991893 
L 424.075325 178.795514 
L 425.524675 177.817572 
L 426.974026 173.450496 
L 428.423377 160.369194 
L 429.872727 158.146541 
L 431.322078 160.016676 
L 432.771429 156.686322 
L 434.220779 153.929857 
L 435.67013 146.008608 
L 437.119481 142.320843 
L 438.568831 135.087182 
L 440.018182 133.435536 
L 441.467532 140.582154 
L 442.916883 140.888869 
L 444.366234 127.499546 
L 445.815584 139.868946 
L 447.264935 137.993452 
L 448.714286 122.313952 
L 450.163636 134.883673 
L 451.612987 129.966879 
L 453.062338 127.861523 
L 455.961039 144.185935 
L 457.41039 122.749504 
L 458.85974 140.758628 
L 460.309091 130.682985 
L 461.758442 126.727555 
L 463.207792 132.024606 
L 464.657143 116.20974 
L 466.106494 125.512986 
L 467.555844 121.619788 
L 469.005195 112.437245 
L 470.454545 100.708662 
L 471.903896 113.142985 
L 473.353247 111.222215 
L 474.802597 123.412171 
L 476.251948 103.341997 
L 477.701299 111.620953 
L 479.150649 114.511984 
L 480.6 105.040779 
L 482.049351 104.817343 
L 483.498701 91.273904 
L 484.948052 108.020388 
L 486.397403 105.307372 
L 487.846753 99.514468 
L 489.296104 120.168337 
L 490.745455 95.53734 
L 492.194805 104.261887 
L 493.644156 118.634068 
L 495.093506 110.207865 
L 496.542857 105.448419 
L 497.992208 103.7124 
L 499.441558 100.537287 
L 500.890909 99.049899 
L 502.34026 81.870171 
L 503.78961 105.970548 
L 505.238961 105.766748 
L 506.688312 111.595959 
L 508.137662 101.27114 
L 509.587013 110.960224 
L 511.036364 100.654442 
L 512.485714 99.562568 
L 513.935065 97.607107 
L 515.384416 85.931094 
L 516.833766 96.86982 
L 518.283117 93.512367 
L 519.732468 84.580835 
L 521.181818 83.176791 
L 522.631169 105.178568 
L 524.080519 95.35186 
L 525.52987 98.620226 
L 526.979221 94.99251 
L 528.428571 90.059113 
L 529.877922 98.390719 
L 531.327273 100.584092 
L 532.776623 100.514905 
L 534.225974 93.279969 
L 535.675325 89.82531 
L 537.124675 94.064728 
L 538.574026 96.10458 
L 540.023377 88.763554 
L 541.472727 95.586173 
L 542.922078 79.591622 
L 544.371429 97.303167 
L 545.820779 96.840049 
L 547.27013 75.229852 
L 548.719481 88.814392 
L 550.168831 86.868415 
L 551.618182 82.992767 
L 553.067532 84.20112 
L 554.516883 84.467114 
L 555.966234 96.709803 
L 557.415584 95.344833 
L 558.864935 82.649019 
L 560.314286 91.610417 
L 561.763636 86.815554 
L 563.212987 77.429173 
L 564.662338 92.620423 
L 566.111688 93.418726 
L 567.561039 89.277308 
L 569.01039 81.913737 
L 570.45974 101.963129 
L 571.909091 90.857115 
L 573.358442 89.235237 
L 574.807792 89.54589 
L 576.257143 82.424983 
L 577.706494 96.160509 
L 579.155844 83.835437 
L 580.605195 93.142548 
L 582.054545 78.312538 
L 583.503896 91.054102 
L 584.953247 92.999006 
L 586.402597 93.781662 
L 587.851948 88.802256 
L 589.301299 81.535679 
L 590.750649 89.523503 
L 592.2 90.639575 
L 593.649351 88.947542 
L 595.098701 79.952813 
L 596.548052 76.297166 
L 597.997403 92.008381 
L 599.446753 86.249956 
L 600.896104 86.477297 
L 602.345455 97.702374 
L 603.794805 88.514282 
L 605.244156 81.535207 
L 606.693506 94.147911 
L 608.142857 82.152632 
L 609.592208 89.415853 
L 611.041558 106.674089 
L 612.490909 91.978109 
L 613.94026 102.893962 
L 615.38961 92.267643 
L 616.838961 79.951458 
L 618.288312 80.408268 
L 619.737662 101.641029 
L 621.187013 87.610932 
L 622.636364 91.345396 
L 622.636364 91.345396 
" clip-path="url(#pb273709008)" style="fill: none; stroke: #1f77b4; stroke-width: 1.5; stroke-linecap: square"/>
    <defs>
     <path id="m92555a49b5" d="M 0 3 
C 0.795609 3 1.55874 2.683901 2.12132 2.12132 
C 2.683901 1.55874 3 0.795609 3 0 
C 3 -0.795609 2.683901 -1.55874 2.12132 -2.12132 
C 1.55874 -2.683901 0.795609 -3 0 -3 
C -0.795609 -3 -1.55874 -2.683901 -2.12132 -2.12132 
C -2.683901 -1.55874 -3 -0.795609 -3 0 
C -3 0.795609 -2.683901 1.55874 -2.12132 2.12132 
C -1.55874 2.683901 -0.795609 3 0 3 
z
" style="stroke: #1f77b4"/>
    </defs>
    <g clip-path="url(#pb273709008)">
     <use xlink:href="#m92555a49b5" x="115.363636" y="86.218405" style="fill: #1f77b4; stroke: #1f77b4"/>
     <use xlink:href="#m92555a49b5" x="116.812987" y="77.625496" style="fill: #1f77b4; stroke: #1f77b4"/>
     <use xlink:href="#m92555a49b5" x="118.262338" y="66.96" style="fill: #1f77b4; stroke: #1f77b4"/>
     <use xlink:href="#m92555a49b5" x="119.711688" y="80.670694" style="fill: #1f77b4; stroke: #1f77b4"/>
     <use xlink:href="#m92555a49b5" x="121.161039" y="83.948144" style="fill: #1f77b4; stroke: #1f77b4"/>
     <use xlink:href="#m92555a49b5" x="122.61039" y="90.499763" style="fill: #1f77b4; stroke: #1f77b4"/>
     <use xlink:href="#m92555a49b5" x="124.05974" y="100.691268" style="fill: #1f77b4; stroke: #1f77b4"/>
     <use xlink:href="#m92555a49b5" x="125.509091" y="96.170267" style="fill: #1f77b4; stroke: #1f77b4"/>
     <use xlink:href="#m92555a49b5" x="126.958442" y="78.485377" style="fill: #1f77b4; stroke: #1f77b4"/>
     <use xlink:href="#m92555a49b5" x="128.407792" y="79.256499" style="fill: #1f77b4; stroke: #1f77b4"/>
     <use xlink:href="#m92555a49b5" x="129.857143" y="88.531772" style="fill: #1f77b4; stroke: #1f77b4"/>
     <use xlink:href="#m92555a49b5" x="131.306494" y="87.307643" style="fill: #1f77b4; stroke: #1f77b4"/>
     <use xlink:href="#m92555a49b5" x="132.755844" y="73.135671" style="fill: #1f77b4; stroke: #1f77b4"/>
     <use xlink:href="#m92555a49b5" x="134.205195" y="72.734346" style="fill: #1f77b4; stroke: #1f77b4"/>
     <use xlink:href="#m92555a49b5" x="135.654545" y="87.889516" style="fill: #1f77b4; stroke: #1f77b4"/>
     <use xlink:href="#m92555a49b5" x="137.103896" y="82.061998" style="fill: #1f77b4; stroke: #1f77b4"/>
     <use xlink:href="#m92555a49b5" x="138.553247" y="80.293692" style="fill: #1f77b4; stroke: #1f77b4"/>
     <use xlink:href="#m92555a49b5" x="140.002597" y="73.199733" style="fill: #1f77b4; stroke: #1f77b4"/>
     <use xlink:href="#m92555a49b5" x="141.451948" y="69.8979" style="fill: #1f77b4; stroke: #1f77b4"/>
     <use xlink:href="#m92555a49b5" x="142.901299" y="84.568967" style="fill: #1f77b4; stroke: #1f77b4"/>
     <use xlink:href="#m92555a49b5" x="144.350649" y="85.787179" style="fill: #1f77b4; stroke: #1f77b4"/>
     <use xlink:href="#m92555a49b5" x="145.8" y="84.754807" style="fill: #1f77b4; stroke: #1f77b4"/>
     <use xlink:href="#m92555a49b5" x="147.249351" y="78.371322" style="fill: #1f77b4; stroke: #1f77b4"/>
     <use xlink:href="#m92555a49b5" x="148.698701" y="84.702656" style="fill: #1f77b4; stroke: #1f77b4"/>
     <use xlink:href="#m92555a49b5" x="150.148052" y="96.673949" style="fill: #1f77b4; stroke: #1f77b4"/>
     <use xlink:href="#m92555a49b5" x="151.597403" y="79.803069" style="fill: #1f77b4; stroke: #1f77b4"/>
     <use xlink:href="#m92555a49b5" x="153.046753" y="93.686691" style="fill: #1f77b4; stroke: #1f77b4"/>
     <use xlink:href="#m92555a49b5" x="154.496104" y="78.829843" style="fill: #1f77b4; stroke: #1f77b4"/>
     <use xlink:href="#m92555a49b5" x="155.945455" y="85.453469" style="fill: #1f77b4; stroke: #1f77b4"/>
     <use xlink:href="#m92555a49b5" x="157.394805" y="89.829177" style="fill: #1f77b4; stroke: #1f77b4"/>
     <use xlink:href="#m92555a49b5" x="158.844156" y="80.371285" style="fill: #1f77b4; stroke: #1f77b4"/>
     <use xlink:href="#m92555a49b5" x="160.293506" y="88.696061" style="fill: #1f77b4; stroke: #1f77b4"/>
     <use xlink:href="#m92555a49b5" x="161.742857" y="94.58216" style="fill: #1f77b4; stroke: #1f77b4"/>
     <use xlink:href="#m92555a49b5" x="163.192208" y="80.410298" style="fill: #1f77b4; stroke: #1f77b4"/>
     <use xlink:href="#m92555a49b5" x="164.641558" y="87.012262" style="fill: #1f77b4; stroke: #1f77b4"/>
     <use xlink:href="#m92555a49b5" x="166.090909" y="81.808151" style="fill: #1f77b4; stroke: #1f77b4"/>
     <use xlink:href="#m92555a49b5" x="167.54026" y="76.363857" style="fill: #1f77b4; stroke: #1f77b4"/>
     <use xlink:href="#m92555a49b5" x="168.98961" y="97.887239" style="fill: #1f77b4; stroke: #1f77b4"/>
     <use xlink:href="#m92555a49b5" x="170.438961" y="87.730016" style="fill: #1f77b4; stroke: #1f77b4"/>
     <use xlink:href="#m92555a49b5" x="171.888312" y="89.17903" style="fill: #1f77b4; stroke: #1f77b4"/>
     <use xlink:href="#m92555a49b5" x="173.337662" y="87.985848" style="fill: #1f77b4; stroke: #1f77b4"/>
     <use xlink:href="#m92555a49b5" x="174.787013" y="82.829034" style="fill: #1f77b4; stroke: #1f77b4"/>
     <use xlink:href="#m92555a49b5" x="176.236364" y="81.182053" style="fill: #1f77b4; stroke: #1f77b4"/>
     <use xlink:href="#m92555a49b5" x="177.685714" y="86.746013" style="fill: #1f77b4; stroke: #1f77b4"/>
     <use xlink:href="#m92555a49b5" x="179.135065" y="73.728998" style="fill: #1f77b4; stroke: #1f77b4"/>
     <use xlink:href="#m92555a49b5" x="180.584416" y="81.197667" style="fill: #1f77b4; stroke: #1f77b4"/>
     <use xlink:href="#m92555a49b5" x="182.033766" y="105.156207" style="fill: #1f77b4; stroke: #1f77b4"/>
     <use xlink:href="#m92555a49b5" x="183.483117" y="82.321353" style="fill: #1f77b4; stroke: #1f77b4"/>
     <use xlink:href="#m92555a49b5" x="184.932468" y="101.304681" style="fill: #1f77b4; stroke: #1f77b4"/>
     <use xlink:href="#m92555a49b5" x="186.381818" y="97.94636" style="fill: #1f77b4; stroke: #1f77b4"/>
     <use xlink:href="#m92555a49b5" x="187.831169" y="94.89206" style="fill: #1f77b4; stroke: #1f77b4"/>
     <use xlink:href="#m92555a49b5" x="189.280519" y="87.651861" style="fill: #1f77b4; stroke: #1f77b4"/>
     <use xlink:href="#m92555a49b5" x="190.72987" y="71.504316" style="fill: #1f77b4; stroke: #1f77b4"/>
     <use xlink:href="#m92555a49b5" x="192.179221" y="90.595202" style="fill: #1f77b4; stroke: #1f77b4"/>
     <use xlink:href="#m92555a49b5" x="193.628571" y="90.451375" style="fill: #1f77b4; stroke: #1f77b4"/>
     <use xlink:href="#m92555a49b5" x="195.077922" y="88.922007" style="fill: #1f77b4; stroke: #1f77b4"/>
     <use xlink:href="#m92555a49b5" x="196.527273" y="106.99327" style="fill: #1f77b4; stroke: #1f77b4"/>
     <use xlink:href="#m92555a49b5" x="197.976623" y="81.686732" style="fill: #1f77b4; stroke: #1f77b4"/>
     <use xlink:href="#m92555a49b5" x="199.425974" y="72.411432" style="fill: #1f77b4; stroke: #1f77b4"/>
     <use xlink:href="#m92555a49b5" x="200.875325" y="94.48805" style="fill: #1f77b4; stroke: #1f77b4"/>
     <use xlink:href="#m92555a49b5" x="202.324675" y="82.057472" style="fill: #1f77b4; stroke: #1f77b4"/>
     <use xlink:href="#m92555a49b5" x="203.774026" y="97.087307" style="fill: #1f77b4; stroke: #1f77b4"/>
     <use xlink:href="#m92555a49b5" x="205.223377" y="93.673567" style="fill: #1f77b4; stroke: #1f77b4"/>
     <use xlink:href="#m92555a49b5" x="206.672727" y="100.930411" style="fill: #1f77b4; stroke: #1f77b4"/>
     <use xlink:href="#m92555a49b5" x="208.122078" y="84.300405" style="fill: #1f77b4; stroke: #1f77b4"/>
     <use xlink:href="#m92555a49b5" x="209.571429" y="90.757517" style="fill: #1f77b4; stroke: #1f77b4"/>
     <use xlink:href="#m92555a49b5" x="211.020779" y="100.986975" style="fill: #1f77b4; stroke: #1f77b4"/>
     <use xlink:href="#m92555a49b5" x="212.47013" y="89.950676" style="fill: #1f77b4; stroke: #1f77b4"/>
     <use xlink:href="#m92555a49b5" x="213.919481" y="100.715811" style="fill: #1f77b4; stroke: #1f77b4"/>
     <use xlink:href="#m92555a49b5" x="215.368831" y="98.02163" style="fill: #1f77b4; stroke: #1f77b4"/>
     <use xlink:href="#m92555a49b5" x="216.818182" y="110.737087" style="fill: #1f77b4; stroke: #1f77b4"/>
     <use xlink:href="#m92555a49b5" x="218.267532" y="112.807549" style="fill: #1f77b4; stroke: #1f77b4"/>
     <use xlink:href="#m92555a49b5" x="219.716883" y="108.18046" style="fill: #1f77b4; stroke: #1f77b4"/>
     <use xlink:href="#m92555a49b5" x="221.166234" y="102.726082" style="fill: #1f77b4; stroke: #1f77b4"/>
     <use xlink:href="#m92555a49b5" x="222.615584" y="105.038055" style="fill: #1f77b4; stroke: #1f77b4"/>
     <use xlink:href="#m92555a49b5" x="224.064935" y="113.202309" style="fill: #1f77b4; stroke: #1f77b4"/>
     <use xlink:href="#m92555a49b5" x="225.514286" y="106.429486" style="fill: #1f77b4; stroke: #1f77b4"/>
     <use xlink:href="#m92555a49b5" x="226.963636" y="113.328541" style="fill: #1f77b4; stroke: #1f77b4"/>
     <use xlink:href="#m92555a49b5" x="228.412987" y="103.281668" style="fill: #1f77b4; stroke: #1f77b4"/>
     <use xlink:href="#m92555a49b5" x="229.862338" y="106.179063" style="fill: #1f77b4; stroke: #1f77b4"/>
     <use xlink:href="#m92555a49b5" x="231.311688" y="119.88759" style="fill: #1f77b4; stroke: #1f77b4"/>
     <use xlink:href="#m92555a49b5" x="232.761039" y="97.826234" style="fill: #1f77b4; stroke: #1f77b4"/>
     <use xlink:href="#m92555a49b5" x="234.21039" y="125.446626" style="fill: #1f77b4; stroke: #1f77b4"/>
     <use xlink:href="#m92555a49b5" x="235.65974" y="120.479941" style="fill: #1f77b4; stroke: #1f77b4"/>
     <use xlink:href="#m92555a49b5" x="237.109091" y="110.294179" style="fill: #1f77b4; stroke: #1f77b4"/>
     <use xlink:href="#m92555a49b5" x="238.558442" y="100.038189" style="fill: #1f77b4; stroke: #1f77b4"/>
     <use xlink:href="#m92555a49b5" x="240.007792" y="104.935612" style="fill: #1f77b4; stroke: #1f77b4"/>
     <use xlink:href="#m92555a49b5" x="241.457143" y="105.532487" style="fill: #1f77b4; stroke: #1f77b4"/>
     <use xlink:href="#m92555a49b5" x="242.906494" y="126.93421" style="fill: #1f77b4; stroke: #1f77b4"/>
     <use xlink:href="#m92555a49b5" x="244.355844" y="107.594448" style="fill: #1f77b4; stroke: #1f77b4"/>
     <use xlink:href="#m92555a49b5" x="245.805195" y="120.593548" style="fill: #1f77b4; stroke: #1f77b4"/>
     <use xlink:href="#m92555a49b5" x="247.254545" y="120.015448" style="fill: #1f77b4; stroke: #1f77b4"/>
     <use xlink:href="#m92555a49b5" x="248.703896" y="121.080444" style="fill: #1f77b4; stroke: #1f77b4"/>
     <use xlink:href="#m92555a49b5" x="250.153247" y="129.98461" style="fill: #1f77b4; stroke: #1f77b4"/>
     <use xlink:href="#m92555a49b5" x="251.602597" y="136.686658" style="fill: #1f77b4; stroke: #1f77b4"/>
     <use xlink:href="#m92555a49b5" x="253.051948" y="139.316614" style="fill: #1f77b4; stroke: #1f77b4"/>
     <use xlink:href="#m92555a49b5" x="254.501299" y="130.934512" style="fill: #1f77b4; stroke: #1f77b4"/>
     <use xlink:href="#m92555a49b5" x="255.950649" y="124.842126" style="fill: #1f77b4; stroke: #1f77b4"/>
     <use xlink:href="#m92555a49b5" x="257.4" y="130.47539" style="fill: #1f77b4; stroke: #1f77b4"/>
     <use xlink:href="#m92555a49b5" x="258.849351" y="141.34841" style="fill: #1f77b4; stroke: #1f77b4"/>
     <use xlink:href="#m92555a49b5" x="260.298701" y="139.265505" style="fill: #1f77b4; stroke: #1f77b4"/>
     <use xlink:href="#m92555a49b5" x="261.748052" y="143.15817" style="fill: #1f77b4; stroke: #1f77b4"/>
     <use xlink:href="#m92555a49b5" x="263.197403" y="141.155922" style="fill: #1f77b4; stroke: #1f77b4"/>
     <use xlink:href="#m92555a49b5" x="264.646753" y="132.312285" style="fill: #1f77b4; stroke: #1f77b4"/>
     <use xlink:href="#m92555a49b5" x="266.096104" y="134.833463" style="fill: #1f77b4; stroke: #1f77b4"/>
     <use xlink:href="#m92555a49b5" x="267.545455" y="149.932388" style="fill: #1f77b4; stroke: #1f77b4"/>
     <use xlink:href="#m92555a49b5" x="268.994805" y="139.113902" style="fill: #1f77b4; stroke: #1f77b4"/>
     <use xlink:href="#m92555a49b5" x="270.444156" y="145.443346" style="fill: #1f77b4; stroke: #1f77b4"/>
     <use xlink:href="#m92555a49b5" x="271.893506" y="155.250681" style="fill: #1f77b4; stroke: #1f77b4"/>
     <use xlink:href="#m92555a49b5" x="273.342857" y="137.034396" style="fill: #1f77b4; stroke: #1f77b4"/>
     <use xlink:href="#m92555a49b5" x="274.792208" y="141.78852" style="fill: #1f77b4; stroke: #1f77b4"/>
     <use xlink:href="#m92555a49b5" x="276.241558" y="144.074417" style="fill: #1f77b4; stroke: #1f77b4"/>
     <use xlink:href="#m92555a49b5" x="277.690909" y="159.835734" style="fill: #1f77b4; stroke: #1f77b4"/>
     <use xlink:href="#m92555a49b5" x="279.14026" y="166.6809" style="fill: #1f77b4; stroke: #1f77b4"/>
     <use xlink:href="#m92555a49b5" x="280.58961" y="155.131329" style="fill: #1f77b4; stroke: #1f77b4"/>
     <use xlink:href="#m92555a49b5" x="282.038961" y="160.837066" style="fill: #1f77b4; stroke: #1f77b4"/>
     <use xlink:href="#m92555a49b5" x="283.488312" y="164.8466" style="fill: #1f77b4; stroke: #1f77b4"/>
     <use xlink:href="#m92555a49b5" x="284.937662" y="172.431788" style="fill: #1f77b4; stroke: #1f77b4"/>
     <use xlink:href="#m92555a49b5" x="286.387013" y="161.765708" style="fill: #1f77b4; stroke: #1f77b4"/>
     <use xlink:href="#m92555a49b5" x="287.836364" y="183.202438" style="fill: #1f77b4; stroke: #1f77b4"/>
     <use xlink:href="#m92555a49b5" x="289.285714" y="177.843539" style="fill: #1f77b4; stroke: #1f77b4"/>
     <use xlink:href="#m92555a49b5" x="290.735065" y="178.425828" style="fill: #1f77b4; stroke: #1f77b4"/>
     <use xlink:href="#m92555a49b5" x="292.184416" y="189.588311" style="fill: #1f77b4; stroke: #1f77b4"/>
     <use xlink:href="#m92555a49b5" x="293.633766" y="197.257484" style="fill: #1f77b4; stroke: #1f77b4"/>
     <use xlink:href="#m92555a49b5" x="295.083117" y="193.022807" style="fill: #1f77b4; stroke: #1f77b4"/>
     <use xlink:href="#m92555a49b5" x="296.532468" y="206.385317" style="fill: #1f77b4; stroke: #1f77b4"/>
     <use xlink:href="#m92555a49b5" x="297.981818" y="213.338555" style="fill: #1f77b4; stroke: #1f77b4"/>
     <use xlink:href="#m92555a49b5" x="299.431169" y="215.610601" style="fill: #1f77b4; stroke: #1f77b4"/>
     <use xlink:href="#m92555a49b5" x="300.880519" y="220.45371" style="fill: #1f77b4; stroke: #1f77b4"/>
     <use xlink:href="#m92555a49b5" x="302.32987" y="245.25752" style="fill: #1f77b4; stroke: #1f77b4"/>
     <use xlink:href="#m92555a49b5" x="303.779221" y="235.62502" style="fill: #1f77b4; stroke: #1f77b4"/>
     <use xlink:href="#m92555a49b5" x="305.228571" y="245.767616" style="fill: #1f77b4; stroke: #1f77b4"/>
     <use xlink:href="#m92555a49b5" x="306.677922" y="248.790011" style="fill: #1f77b4; stroke: #1f77b4"/>
     <use xlink:href="#m92555a49b5" x="308.127273" y="275.356312" style="fill: #1f77b4; stroke: #1f77b4"/>
     <use xlink:href="#m92555a49b5" x="309.576623" y="267.785939" style="fill: #1f77b4; stroke: #1f77b4"/>
     <use xlink:href="#m92555a49b5" x="311.025974" y="277.575529" style="fill: #1f77b4; stroke: #1f77b4"/>
     <use xlink:href="#m92555a49b5" x="312.475325" y="282.827546" style="fill: #1f77b4; stroke: #1f77b4"/>
     <use xlink:href="#m92555a49b5" x="313.924675" y="278.483442" style="fill: #1f77b4; stroke: #1f77b4"/>
     <use xlink:href="#m92555a49b5" x="315.374026" y="298.622099" style="fill: #1f77b4; stroke: #1f77b4"/>
     <use xlink:href="#m92555a49b5" x="316.823377" y="322.132163" style="fill: #1f77b4; stroke: #1f77b4"/>
     <use xlink:href="#m92555a49b5" x="318.272727" y="322.418514" style="fill: #1f77b4; stroke: #1f77b4"/>
     <use xlink:href="#m92555a49b5" x="319.722078" y="329.583913" style="fill: #1f77b4; stroke: #1f77b4"/>
     <use xlink:href="#m92555a49b5" x="321.171429" y="328.047756" style="fill: #1f77b4; stroke: #1f77b4"/>
     <use xlink:href="#m92555a49b5" x="322.620779" y="339.646889" style="fill: #1f77b4; stroke: #1f77b4"/>
     <use xlink:href="#m92555a49b5" x="324.07013" y="342.060038" style="fill: #1f77b4; stroke: #1f77b4"/>
     <use xlink:href="#m92555a49b5" x="325.519481" y="346.120207" style="fill: #1f77b4; stroke: #1f77b4"/>
     <use xlink:href="#m92555a49b5" x="326.968831" y="339.505399" style="fill: #1f77b4; stroke: #1f77b4"/>
     <use xlink:href="#m92555a49b5" x="328.418182" y="334.755771" style="fill: #1f77b4; stroke: #1f77b4"/>
     <use xlink:href="#m92555a49b5" x="329.867532" y="329.17352" style="fill: #1f77b4; stroke: #1f77b4"/>
     <use xlink:href="#m92555a49b5" x="331.316883" y="332.878196" style="fill: #1f77b4; stroke: #1f77b4"/>
     <use xlink:href="#m92555a49b5" x="332.766234" y="329.685344" style="fill: #1f77b4; stroke: #1f77b4"/>
     <use xlink:href="#m92555a49b5" x="334.215584" y="330.381996" style="fill: #1f77b4; stroke: #1f77b4"/>
     <use xlink:href="#m92555a49b5" x="335.664935" y="319.034327" style="fill: #1f77b4; stroke: #1f77b4"/>
     <use xlink:href="#m92555a49b5" x="337.114286" y="332.058891" style="fill: #1f77b4; stroke: #1f77b4"/>
     <use xlink:href="#m92555a49b5" x="338.563636" y="343.091568" style="fill: #1f77b4; stroke: #1f77b4"/>
     <use xlink:href="#m92555a49b5" x="340.012987" y="325.600114" style="fill: #1f77b4; stroke: #1f77b4"/>
     <use xlink:href="#m92555a49b5" x="341.462338" y="339.041941" style="fill: #1f77b4; stroke: #1f77b4"/>
     <use xlink:href="#m92555a49b5" x="342.911688" y="347.509553" style="fill: #1f77b4; stroke: #1f77b4"/>
     <use xlink:href="#m92555a49b5" x="344.361039" y="343.140114" style="fill: #1f77b4; stroke: #1f77b4"/>
     <use xlink:href="#m92555a49b5" x="345.81039" y="349.456838" style="fill: #1f77b4; stroke: #1f77b4"/>
     <use xlink:href="#m92555a49b5" x="347.25974" y="367.902756" style="fill: #1f77b4; stroke: #1f77b4"/>
     <use xlink:href="#m92555a49b5" x="348.709091" y="358.596574" style="fill: #1f77b4; stroke: #1f77b4"/>
     <use xlink:href="#m92555a49b5" x="350.158442" y="369.36" style="fill: #1f77b4; stroke: #1f77b4"/>
     <use xlink:href="#m92555a49b5" x="351.607792" y="356.487739" style="fill: #1f77b4; stroke: #1f77b4"/>
     <use xlink:href="#m92555a49b5" x="353.057143" y="364.614357" style="fill: #1f77b4; stroke: #1f77b4"/>
     <use xlink:href="#m92555a49b5" x="354.506494" y="358.718076" style="fill: #1f77b4; stroke: #1f77b4"/>
     <use xlink:href="#m92555a49b5" x="355.955844" y="353.191035" style="fill: #1f77b4; stroke: #1f77b4"/>
     <use xlink:href="#m92555a49b5" x="357.405195" y="356.884072" style="fill: #1f77b4; stroke: #1f77b4"/>
     <use xlink:href="#m92555a49b5" x="358.854545" y="359.70799" style="fill: #1f77b4; stroke: #1f77b4"/>
     <use xlink:href="#m92555a49b5" x="360.303896" y="347.23376" style="fill: #1f77b4; stroke: #1f77b4"/>
     <use xlink:href="#m92555a49b5" x="361.753247" y="349.833247" style="fill: #1f77b4; stroke: #1f77b4"/>
     <use xlink:href="#m92555a49b5" x="363.202597" y="347.120956" style="fill: #1f77b4; stroke: #1f77b4"/>
     <use xlink:href="#m92555a49b5" x="364.651948" y="341.121171" style="fill: #1f77b4; stroke: #1f77b4"/>
     <use xlink:href="#m92555a49b5" x="366.101299" y="351.496286" style="fill: #1f77b4; stroke: #1f77b4"/>
     <use xlink:href="#m92555a49b5" x="367.550649" y="342.359432" style="fill: #1f77b4; stroke: #1f77b4"/>
     <use xlink:href="#m92555a49b5" x="369" y="330.770044" style="fill: #1f77b4; stroke: #1f77b4"/>
     <use xlink:href="#m92555a49b5" x="370.449351" y="340.086058" style="fill: #1f77b4; stroke: #1f77b4"/>
     <use xlink:href="#m92555a49b5" x="371.898701" y="350.416797" style="fill: #1f77b4; stroke: #1f77b4"/>
     <use xlink:href="#m92555a49b5" x="373.348052" y="347.301595" style="fill: #1f77b4; stroke: #1f77b4"/>
     <use xlink:href="#m92555a49b5" x="374.797403" y="346.518936" style="fill: #1f77b4; stroke: #1f77b4"/>
     <use xlink:href="#m92555a49b5" x="376.246753" y="345.121791" style="fill: #1f77b4; stroke: #1f77b4"/>
     <use xlink:href="#m92555a49b5" x="377.696104" y="337.707668" style="fill: #1f77b4; stroke: #1f77b4"/>
     <use xlink:href="#m92555a49b5" x="379.145455" y="350.366748" style="fill: #1f77b4; stroke: #1f77b4"/>
     <use xlink:href="#m92555a49b5" x="380.594805" y="343.066363" style="fill: #1f77b4; stroke: #1f77b4"/>
     <use xlink:href="#m92555a49b5" x="382.044156" y="331.719885" style="fill: #1f77b4; stroke: #1f77b4"/>
     <use xlink:href="#m92555a49b5" x="383.493506" y="342.479637" style="fill: #1f77b4; stroke: #1f77b4"/>
     <use xlink:href="#m92555a49b5" x="384.942857" y="342.111674" style="fill: #1f77b4; stroke: #1f77b4"/>
     <use xlink:href="#m92555a49b5" x="386.392208" y="333.73757" style="fill: #1f77b4; stroke: #1f77b4"/>
     <use xlink:href="#m92555a49b5" x="387.841558" y="343.664246" style="fill: #1f77b4; stroke: #1f77b4"/>
     <use xlink:href="#m92555a49b5" x="389.290909" y="315.642175" style="fill: #1f77b4; stroke: #1f77b4"/>
     <use xlink:href="#m92555a49b5" x="390.74026" y="309.257041" style="fill: #1f77b4; stroke: #1f77b4"/>
     <use xlink:href="#m92555a49b5" x="392.18961" y="311.886045" style="fill: #1f77b4; stroke: #1f77b4"/>
     <use xlink:href="#m92555a49b5" x="393.638961" y="300.032223" style="fill: #1f77b4; stroke: #1f77b4"/>
     <use xlink:href="#m92555a49b5" x="395.088312" y="278.106527" style="fill: #1f77b4; stroke: #1f77b4"/>
     <use xlink:href="#m92555a49b5" x="396.537662" y="276.43358" style="fill: #1f77b4; stroke: #1f77b4"/>
     <use xlink:href="#m92555a49b5" x="397.987013" y="261.051089" style="fill: #1f77b4; stroke: #1f77b4"/>
     <use xlink:href="#m92555a49b5" x="399.436364" y="269.137663" style="fill: #1f77b4; stroke: #1f77b4"/>
     <use xlink:href="#m92555a49b5" x="400.885714" y="259.231125" style="fill: #1f77b4; stroke: #1f77b4"/>
     <use xlink:href="#m92555a49b5" x="402.335065" y="246.45465" style="fill: #1f77b4; stroke: #1f77b4"/>
     <use xlink:href="#m92555a49b5" x="403.784416" y="232.02772" style="fill: #1f77b4; stroke: #1f77b4"/>
     <use xlink:href="#m92555a49b5" x="405.233766" y="234.803954" style="fill: #1f77b4; stroke: #1f77b4"/>
     <use xlink:href="#m92555a49b5" x="406.683117" y="217.29621" style="fill: #1f77b4; stroke: #1f77b4"/>
     <use xlink:href="#m92555a49b5" x="408.132468" y="206.283857" style="fill: #1f77b4; stroke: #1f77b4"/>
     <use xlink:href="#m92555a49b5" x="409.581818" y="211.860401" style="fill: #1f77b4; stroke: #1f77b4"/>
     <use xlink:href="#m92555a49b5" x="411.031169" y="207.266645" style="fill: #1f77b4; stroke: #1f77b4"/>
     <use xlink:href="#m92555a49b5" x="412.480519" y="219.384233" style="fill: #1f77b4; stroke: #1f77b4"/>
     <use xlink:href="#m92555a49b5" x="413.92987" y="192.437849" style="fill: #1f77b4; stroke: #1f77b4"/>
     <use xlink:href="#m92555a49b5" x="415.379221" y="194.887321" style="fill: #1f77b4; stroke: #1f77b4"/>
     <use xlink:href="#m92555a49b5" x="416.828571" y="188.573199" style="fill: #1f77b4; stroke: #1f77b4"/>
     <use xlink:href="#m92555a49b5" x="418.277922" y="179.400218" style="fill: #1f77b4; stroke: #1f77b4"/>
     <use xlink:href="#m92555a49b5" x="419.727273" y="191.245526" style="fill: #1f77b4; stroke: #1f77b4"/>
     <use xlink:href="#m92555a49b5" x="421.176623" y="185.991893" style="fill: #1f77b4; stroke: #1f77b4"/>
     <use xlink:href="#m92555a49b5" x="422.625974" y="182.34853" style="fill: #1f77b4; stroke: #1f77b4"/>
     <use xlink:href="#m92555a49b5" x="424.075325" y="178.795514" style="fill: #1f77b4; stroke: #1f77b4"/>
     <use xlink:href="#m92555a49b5" x="425.524675" y="177.817572" style="fill: #1f77b4; stroke: #1f77b4"/>
     <use xlink:href="#m92555a49b5" x="426.974026" y="173.450496" style="fill: #1f77b4; stroke: #1f77b4"/>
     <use xlink:href="#m92555a49b5" x="428.423377" y="160.369194" style="fill: #1f77b4; stroke: #1f77b4"/>
     <use xlink:href="#m92555a49b5" x="429.872727" y="158.146541" style="fill: #1f77b4; stroke: #1f77b4"/>
     <use xlink:href="#m92555a49b5" x="431.322078" y="160.016676" style="fill: #1f77b4; stroke: #1f77b4"/>
     <use xlink:href="#m92555a49b5" x="432.771429" y="156.686322" style="fill: #1f77b4; stroke: #1f77b4"/>
     <use xlink:href="#m92555a49b5" x="434.220779" y="153.929857" style="fill: #1f77b4; stroke: #1f77b4"/>
     <use xlink:href="#m92555a49b5" x="435.67013" y="146.008608" style="fill: #1f77b4; stroke: #1f77b4"/>
     <use xlink:href="#m92555a49b5" x="437.119481" y="142.320843" style="fill: #1f77b4; stroke: #1f77b4"/>
     <use xlink:href="#m92555a49b5" x="438.568831" y="135.087182" style="fill: #1f77b4; stroke: #1f77b4"/>
     <use xlink:href="#m92555a49b5" x="440.018182" y="133.435536" style="fill: #1f77b4; stroke: #1f77b4"/>
     <use xlink:href="#m92555a49b5" x="441.467532" y="140.582154" style="fill: #1f77b4; stroke: #1f77b4"/>
     <use xlink:href="#m92555a49b5" x="442.916883" y="140.888869" style="fill: #1f77b4; stroke: #1f77b4"/>
     <use xlink:href="#m92555a49b5" x="444.366234" y="127.499546" style="fill: #1f77b4; stroke: #1f77b4"/>
     <use xlink:href="#m92555a49b5" x="445.815584" y="139.868946" style="fill: #1f77b4; stroke: #1f77b4"/>
     <use xlink:href="#m92555a49b5" x="447.264935" y="137.993452" style="fill: #1f77b4; stroke: #1f77b4"/>
     <use xlink:href="#m92555a49b5" x="448.714286" y="122.313952" style="fill: #1f77b4; stroke: #1f77b4"/>
     <use xlink:href="#m92555a49b5" x="450.163636" y="134.883673" style="fill: #1f77b4; stroke: #1f77b4"/>
     <use xlink:href="#m92555a49b5" x="451.612987" y="129.966879" style="fill: #1f77b4; stroke: #1f77b4"/>
     <use xlink:href="#m92555a49b5" x="453.062338" y="127.861523" style="fill: #1f77b4; stroke: #1f77b4"/>
     <use xlink:href="#m92555a49b5" x="454.511688" y="136.012649" style="fill: #1f77b4; stroke: #1f77b4"/>
     <use xlink:href="#m92555a49b5" x="455.961039" y="144.185935" style="fill: #1f77b4; stroke: #1f77b4"/>
     <use xlink:href="#m92555a49b5" x="457.41039" y="122.749504" style="fill: #1f77b4; stroke: #1f77b4"/>
     <use xlink:href="#m92555a49b5" x="458.85974" y="140.758628" style="fill: #1f77b4; stroke: #1f77b4"/>
     <use xlink:href="#m92555a49b5" x="460.309091" y="130.682985" style="fill: #1f77b4; stroke: #1f77b4"/>
     <use xlink:href="#m92555a49b5" x="461.758442" y="126.727555" style="fill: #1f77b4; stroke: #1f77b4"/>
     <use xlink:href="#m92555a49b5" x="463.207792" y="132.024606" style="fill: #1f77b4; stroke: #1f77b4"/>
     <use xlink:href="#m92555a49b5" x="464.657143" y="116.20974" style="fill: #1f77b4; stroke: #1f77b4"/>
     <use xlink:href="#m92555a49b5" x="466.106494" y="125.512986" style="fill: #1f77b4; stroke: #1f77b4"/>
     <use xlink:href="#m92555a49b5" x="467.555844" y="121.619788" style="fill: #1f77b4; stroke: #1f77b4"/>
     <use xlink:href="#m92555a49b5" x="469.005195" y="112.437245" style="fill: #1f77b4; stroke: #1f77b4"/>
     <use xlink:href="#m92555a49b5" x="470.454545" y="100.708662" style="fill: #1f77b4; stroke: #1f77b4"/>
     <use xlink:href="#m92555a49b5" x="471.903896" y="113.142985" style="fill: #1f77b4; stroke: #1f77b4"/>
     <use xlink:href="#m92555a49b5" x="473.353247" y="111.222215" style="fill: #1f77b4; stroke: #1f77b4"/>
     <use xlink:href="#m92555a49b5" x="474.802597" y="123.412171" style="fill: #1f77b4; stroke: #1f77b4"/>
     <use xlink:href="#m92555a49b5" x="476.251948" y="103.341997" style="fill: #1f77b4; stroke: #1f77b4"/>
     <use xlink:href="#m92555a49b5" x="477.701299" y="111.620953" style="fill: #1f77b4; stroke: #1f77b4"/>
     <use xlink:href="#m92555a49b5" x="479.150649" y="114.511984" style="fill: #1f77b4; stroke: #1f77b4"/>
     <use xlink:href="#m92555a49b5" x="480.6" y="105.040779" style="fill: #1f77b4; stroke: #1f77b4"/>
     <use xlink:href="#m92555a49b5" x="482.049351" y="104.817343" style="fill: #1f77b4; stroke: #1f77b4"/>
     <use xlink:href="#m92555a49b5" x="483.498701" y="91.273904" style="fill: #1f77b4; stroke: #1f77b4"/>
     <use xlink:href="#m92555a49b5" x="484.948052" y="108.020388" style="fill: #1f77b4; stroke: #1f77b4"/>
     <use xlink:href="#m92555a49b5" x="486.397403" y="105.307372" style="fill: #1f77b4; stroke: #1f77b4"/>
     <use xlink:href="#m92555a49b5" x="487.846753" y="99.514468" style="fill: #1f77b4; stroke: #1f77b4"/>
     <use xlink:href="#m92555a49b5" x="489.296104" y="120.168337" style="fill: #1f77b4; stroke: #1f77b4"/>
     <use xlink:href="#m92555a49b5" x="490.745455" y="95.53734" style="fill: #1f77b4; stroke: #1f77b4"/>
     <use xlink:href="#m92555a49b5" x="492.194805" y="104.261887" style="fill: #1f77b4; stroke: #1f77b4"/>
     <use xlink:href="#m92555a49b5" x="493.644156" y="118.634068" style="fill: #1f77b4; stroke: #1f77b4"/>
     <use xlink:href="#m92555a49b5" x="495.093506" y="110.207865" style="fill: #1f77b4; stroke: #1f77b4"/>
     <use xlink:href="#m92555a49b5" x="496.542857" y="105.448419" style="fill: #1f77b4; stroke: #1f77b4"/>
     <use xlink:href="#m92555a49b5" x="497.992208" y="103.7124" style="fill: #1f77b4; stroke: #1f77b4"/>
     <use xlink:href="#m92555a49b5" x="499.441558" y="100.537287" style="fill: #1f77b4; stroke: #1f77b4"/>
     <use xlink:href="#m92555a49b5" x="500.890909" y="99.049899" style="fill: #1f77b4; stroke: #1f77b4"/>
     <use xlink:href="#m92555a49b5" x="502.34026" y="81.870171" style="fill: #1f77b4; stroke: #1f77b4"/>
     <use xlink:href="#m92555a49b5" x="503.78961" y="105.970548" style="fill: #1f77b4; stroke: #1f77b4"/>
     <use xlink:href="#m92555a49b5" x="505.238961" y="105.766748" style="fill: #1f77b4; stroke: #1f77b4"/>
     <use xlink:href="#m92555a49b5" x="506.688312" y="111.595959" style="fill: #1f77b4; stroke: #1f77b4"/>
     <use xlink:href="#m92555a49b5" x="508.137662" y="101.27114" style="fill: #1f77b4; stroke: #1f77b4"/>
     <use xlink:href="#m92555a49b5" x="509.587013" y="110.960224" style="fill: #1f77b4; stroke: #1f77b4"/>
     <use xlink:href="#m92555a49b5" x="511.036364" y="100.654442" style="fill: #1f77b4; stroke: #1f77b4"/>
     <use xlink:href="#m92555a49b5" x="512.485714" y="99.562568" style="fill: #1f77b4; stroke: #1f77b4"/>
     <use xlink:href="#m92555a49b5" x="513.935065" y="97.607107" style="fill: #1f77b4; stroke: #1f77b4"/>
     <use xlink:href="#m92555a49b5" x="515.384416" y="85.931094" style="fill: #1f77b4; stroke: #1f77b4"/>
     <use xlink:href="#m92555a49b5" x="516.833766" y="96.86982" style="fill: #1f77b4; stroke: #1f77b4"/>
     <use xlink:href="#m92555a49b5" x="518.283117" y="93.512367" style="fill: #1f77b4; stroke: #1f77b4"/>
     <use xlink:href="#m92555a49b5" x="519.732468" y="84.580835" style="fill: #1f77b4; stroke: #1f77b4"/>
     <use xlink:href="#m92555a49b5" x="521.181818" y="83.176791" style="fill: #1f77b4; stroke: #1f77b4"/>
     <use xlink:href="#m92555a49b5" x="522.631169" y="105.178568" style="fill: #1f77b4; stroke: #1f77b4"/>
     <use xlink:href="#m92555a49b5" x="524.080519" y="95.35186" style="fill: #1f77b4; stroke: #1f77b4"/>
     <use xlink:href="#m92555a49b5" x="525.52987" y="98.620226" style="fill: #1f77b4; stroke: #1f77b4"/>
     <use xlink:href="#m92555a49b5" x="526.979221" y="94.99251" style="fill: #1f77b4; stroke: #1f77b4"/>
     <use xlink:href="#m92555a49b5" x="528.428571" y="90.059113" style="fill: #1f77b4; stroke: #1f77b4"/>
     <use xlink:href="#m92555a49b5" x="529.877922" y="98.390719" style="fill: #1f77b4; stroke: #1f77b4"/>
     <use xlink:href="#m92555a49b5" x="531.327273" y="100.584092" style="fill: #1f77b4; stroke: #1f77b4"/>
     <use xlink:href="#m92555a49b5" x="532.776623" y="100.514905" style="fill: #1f77b4; stroke: #1f77b4"/>
     <use xlink:href="#m92555a49b5" x="534.225974" y="93.279969" style="fill: #1f77b4; stroke: #1f77b4"/>
     <use xlink:href="#m92555a49b5" x="535.675325" y="89.82531" style="fill: #1f77b4; stroke: #1f77b4"/>
     <use xlink:href="#m92555a49b5" x="537.124675" y="94.064728" style="fill: #1f77b4; stroke: #1f77b4"/>
     <use xlink:href="#m92555a49b5" x="538.574026" y="96.10458" style="fill: #1f77b4; stroke: #1f77b4"/>
     <use xlink:href="#m92555a49b5" x="540.023377" y="88.763554" style="fill: #1f77b4; stroke: #1f77b4"/>
     <use xlink:href="#m92555a49b5" x="541.472727" y="95.586173" style="fill: #1f77b4; stroke: #1f77b4"/>
     <use xlink:href="#m92555a49b5" x="542.922078" y="79.591622" style="fill: #1f77b4; stroke: #1f77b4"/>
     <use xlink:href="#m92555a49b5" x="544.371429" y="97.303167" style="fill: #1f77b4; stroke: #1f77b4"/>
     <use xlink:href="#m92555a49b5" x="545.820779" y="96.840049" style="fill: #1f77b4; stroke: #1f77b4"/>
     <use xlink:href="#m92555a49b5" x="547.27013" y="75.229852" style="fill: #1f77b4; stroke: #1f77b4"/>
     <use xlink:href="#m92555a49b5" x="548.719481" y="88.814392" style="fill: #1f77b4; stroke: #1f77b4"/>
     <use xlink:href="#m92555a49b5" x="550.168831" y="86.868415" style="fill: #1f77b4; stroke: #1f77b4"/>
     <use xlink:href="#m92555a49b5" x="551.618182" y="82.992767" style="fill: #1f77b4; stroke: #1f77b4"/>
     <use xlink:href="#m92555a49b5" x="553.067532" y="84.20112" style="fill: #1f77b4; stroke: #1f77b4"/>
     <use xlink:href="#m92555a49b5" x="554.516883" y="84.467114" style="fill: #1f77b4; stroke: #1f77b4"/>
     <use xlink:href="#m92555a49b5" x="555.966234" y="96.709803" style="fill: #1f77b4; stroke: #1f77b4"/>
     <use xlink:href="#m92555a49b5" x="557.415584" y="95.344833" style="fill: #1f77b4; stroke: #1f77b4"/>
     <use xlink:href="#m92555a49b5" x="558.864935" y="82.649019" style="fill: #1f77b4; stroke: #1f77b4"/>
     <use xlink:href="#m92555a49b5" x="560.314286" y="91.610417" style="fill: #1f77b4; stroke: #1f77b4"/>
     <use xlink:href="#m92555a49b5" x="561.763636" y="86.815554" style="fill: #1f77b4; stroke: #1f77b4"/>
     <use xlink:href="#m92555a49b5" x="563.212987" y="77.429173" style="fill: #1f77b4; stroke: #1f77b4"/>
     <use xlink:href="#m92555a49b5" x="564.662338" y="92.620423" style="fill: #1f77b4; stroke: #1f77b4"/>
     <use xlink:href="#m92555a49b5" x="566.111688" y="93.418726" style="fill: #1f77b4; stroke: #1f77b4"/>
     <use xlink:href="#m92555a49b5" x="567.561039" y="89.277308" style="fill: #1f77b4; stroke: #1f77b4"/>
     <use xlink:href="#m92555a49b5" x="569.01039" y="81.913737" style="fill: #1f77b4; stroke: #1f77b4"/>
     <use xlink:href="#m92555a49b5" x="570.45974" y="101.963129" style="fill: #1f77b4; stroke: #1f77b4"/>
     <use xlink:href="#m92555a49b5" x="571.909091" y="90.857115" style="fill: #1f77b4; stroke: #1f77b4"/>
     <use xlink:href="#m92555a49b5" x="573.358442" y="89.235237" style="fill: #1f77b4; stroke: #1f77b4"/>
     <use xlink:href="#m92555a49b5" x="574.807792" y="89.54589" style="fill: #1f77b4; stroke: #1f77b4"/>
     <use xlink:href="#m92555a49b5" x="576.257143" y="82.424983" style="fill: #1f77b4; stroke: #1f77b4"/>
     <use xlink:href="#m92555a49b5" x="577.706494" y="96.160509" style="fill: #1f77b4; stroke: #1f77b4"/>
     <use xlink:href="#m92555a49b5" x="579.155844" y="83.835437" style="fill: #1f77b4; stroke: #1f77b4"/>
     <use xlink:href="#m92555a49b5" x="580.605195" y="93.142548" style="fill: #1f77b4; stroke: #1f77b4"/>
     <use xlink:href="#m92555a49b5" x="582.054545" y="78.312538" style="fill: #1f77b4; stroke: #1f77b4"/>
     <use xlink:href="#m92555a49b5" x="583.503896" y="91.054102" style="fill: #1f77b4; stroke: #1f77b4"/>
     <use xlink:href="#m92555a49b5" x="584.953247" y="92.999006" style="fill: #1f77b4; stroke: #1f77b4"/>
     <use xlink:href="#m92555a49b5" x="586.402597" y="93.781662" style="fill: #1f77b4; stroke: #1f77b4"/>
     <use xlink:href="#m92555a49b5" x="587.851948" y="88.802256" style="fill: #1f77b4; stroke: #1f77b4"/>
     <use xlink:href="#m92555a49b5" x="589.301299" y="81.535679" style="fill: #1f77b4; stroke: #1f77b4"/>
     <use xlink:href="#m92555a49b5" x="590.750649" y="89.523503" style="fill: #1f77b4; stroke: #1f77b4"/>
     <use xlink:href="#m92555a49b5" x="592.2" y="90.639575" style="fill: #1f77b4; stroke: #1f77b4"/>
     <use xlink:href="#m92555a49b5" x="593.649351" y="88.947542" style="fill: #1f77b4; stroke: #1f77b4"/>
     <use xlink:href="#m92555a49b5" x="595.098701" y="79.952813" style="fill: #1f77b4; stroke: #1f77b4"/>
     <use xlink:href="#m92555a49b5" x="596.548052" y="76.297166" style="fill: #1f77b4; stroke: #1f77b4"/>
     <use xlink:href="#m92555a49b5" x="597.997403" y="92.008381" style="fill: #1f77b4; stroke: #1f77b4"/>
     <use xlink:href="#m92555a49b5" x="599.446753" y="86.249956" style="fill: #1f77b4; stroke: #1f77b4"/>
     <use xlink:href="#m92555a49b5" x="600.896104" y="86.477297" style="fill: #1f77b4; stroke: #1f77b4"/>
     <use xlink:href="#m92555a49b5" x="602.345455" y="97.702374" style="fill: #1f77b4; stroke: #1f77b4"/>
     <use xlink:href="#m92555a49b5" x="603.794805" y="88.514282" style="fill: #1f77b4; stroke: #1f77b4"/>
     <use xlink:href="#m92555a49b5" x="605.244156" y="81.535207" style="fill: #1f77b4; stroke: #1f77b4"/>
     <use xlink:href="#m92555a49b5" x="606.693506" y="94.147911" style="fill: #1f77b4; stroke: #1f77b4"/>
     <use xlink:href="#m92555a49b5" x="608.142857" y="82.152632" style="fill: #1f77b4; stroke: #1f77b4"/>
     <use xlink:href="#m92555a49b5" x="609.592208" y="89.415853" style="fill: #1f77b4; stroke: #1f77b4"/>
     <use xlink:href="#m92555a49b5" x="611.041558" y="106.674089" style="fill: #1f77b4; stroke: #1f77b4"/>
     <use xlink:href="#m92555a49b5" x="612.490909" y="91.978109" style="fill: #1f77b4; stroke: #1f77b4"/>
     <use xlink:href="#m92555a49b5" x="613.94026" y="102.893962" style="fill: #1f77b4; stroke: #1f77b4"/>
     <use xlink:href="#m92555a49b5" x="615.38961" y="92.267643" style="fill: #1f77b4; stroke: #1f77b4"/>
     <use xlink:href="#m92555a49b5" x="616.838961" y="79.951458" style="fill: #1f77b4; stroke: #1f77b4"/>
     <use xlink:href="#m92555a49b5" x="618.288312" y="80.408268" style="fill: #1f77b4; stroke: #1f77b4"/>
     <use xlink:href="#m92555a49b5" x="619.737662" y="101.641029" style="fill: #1f77b4; stroke: #1f77b4"/>
     <use xlink:href="#m92555a49b5" x="621.187013" y="87.610932" style="fill: #1f77b4; stroke: #1f77b4"/>
     <use xlink:href="#m92555a49b5" x="622.636364" y="91.345396" style="fill: #1f77b4; stroke: #1f77b4"/>
    </g>
   </g>
   <g id="line2d_17">
    <path d="M 115.363636 87.449762 
L 131.306494 88.457786 
L 145.8 89.589579 
L 158.844156 90.839964 
L 170.438961 92.192581 
L 180.584416 93.616432 
L 189.280519 95.063242 
L 196.527273 96.466886 
L 203.774026 98.090872 
L 209.571429 99.581086 
L 215.368831 101.274662 
L 221.166234 103.210384 
L 226.963636 105.436634 
L 231.311688 107.33304 
L 235.65974 109.458328 
L 240.007792 111.85043 
L 244.355844 114.555202 
L 248.703896 117.62836 
L 251.602597 119.914787 
L 254.501299 122.418653 
L 257.4 125.16725 
L 260.298701 128.191902 
L 263.197403 131.52858 
L 266.096104 135.218553 
L 268.994805 139.309088 
L 271.893506 143.854122 
L 274.792208 148.914826 
L 277.690909 154.559914 
L 280.58961 160.86544 
L 283.488312 167.913679 
L 286.387013 175.790501 
L 289.285714 184.580358 
L 292.184416 194.357718 
L 295.083117 205.173544 
L 297.981818 217.035496 
L 300.880519 229.881404 
L 305.228571 250.602419 
L 312.475325 285.804153 
L 315.374026 298.466379 
L 316.823377 304.187338 
L 318.272727 309.420854 
L 319.722078 314.126683 
L 321.171429 318.285071 
L 322.620779 321.898723 
L 324.07013 324.993002 
L 325.519481 327.614287 
L 326.968831 329.826639 
L 328.418182 331.707141 
L 331.316883 334.812843 
L 335.664935 339.042523 
L 338.563636 342.263669 
L 341.462338 346.003582 
L 347.25974 354.113761 
L 348.709091 355.922794 
L 350.158442 357.50074 
L 351.607792 358.781722 
L 353.057143 359.711938 
L 354.506494 360.254143 
L 355.955844 360.390764 
L 357.405195 360.125264 
L 358.854545 359.481565 
L 360.303896 358.501593 
L 361.753247 357.241235 
L 364.651948 354.141164 
L 371.898701 345.711903 
L 377.696104 339.393382 
L 379.145455 337.582069 
L 380.594805 335.532981 
L 382.044156 333.166385 
L 383.493506 330.407495 
L 384.942857 327.192216 
L 386.392208 323.47221 
L 387.841558 319.218732 
L 389.290909 314.424853 
L 390.74026 309.105835 
L 393.638961 297.054146 
L 396.537662 283.539306 
L 402.335065 254.595403 
L 406.683117 233.409062 
L 409.581818 220.249121 
L 412.480519 208.083815 
L 415.379221 196.982991 
L 418.277922 186.943276 
L 421.176623 177.915389 
L 424.075325 169.824759 
L 426.974026 162.585737 
L 429.872727 156.110667 
L 432.771429 150.315244 
L 435.67013 145.121351 
L 438.568831 140.4583 
L 441.467532 136.263098 
L 444.366234 132.48017 
L 447.264935 129.060795 
L 450.163636 125.962424 
L 453.062338 123.147972 
L 455.961039 120.585144 
L 458.85974 118.245807 
L 463.207792 115.103062 
L 467.555844 112.338633 
L 471.903896 109.895132 
L 476.251948 107.725347 
L 480.6 105.790243 
L 484.948052 104.057376 
L 490.745455 102.015268 
L 496.542857 100.232385 
L 502.34026 98.666666 
L 509.587013 96.963867 
L 516.833766 95.495184 
L 525.52987 93.984508 
L 534.225974 92.697111 
L 544.371429 91.421753 
L 555.966234 90.201989 
L 569.01039 89.066808 
L 583.503896 88.03254 
L 600.896104 87.030343 
L 621.187013 86.105318 
L 622.636364 86.047338 
L 622.636364 86.047338 
" clip-path="url(#pb273709008)" style="fill: none; stroke-dasharray: 5.55,2.4; stroke-dashoffset: 0; stroke: #000000; stroke-width: 1.5"/>
   </g>
   <g id="patch_3">
    <path d="M 90 384.48 
L 90 51.84 
" style="fill: none; stroke: #000000; stroke-width: 0.8; stroke-linejoin: miter; stroke-linecap: square"/>
   </g>
   <g id="patch_4">
    <path d="M 648 384.48 
L 648 51.84 
" style="fill: none; stroke: #000000; stroke-width: 0.8; stroke-linejoin: miter; stroke-linecap: square"/>
   </g>
   <g id="patch_5">
    <path d="M 90 384.48 
L 648 384.48 
" style="fill: none; stroke: #000000; stroke-width: 0.8; stroke-linejoin: miter; stroke-linecap: square"/>
   </g>
   <g id="patch_6">
    <path d="M 90 51.84 
L 648 51.84 
" style="fill: none; stroke: #000000; stroke-width: 0.8; stroke-linejoin: miter; stroke-linecap: square"/>
   </g>
   <g id="text_18">
    <!-- RF Power = -22, Line Width = 1.97 MHz -->
    <g transform="translate(250.095937 45.84) scale(0.12 -0.12)">
     <defs>
      <path id="DejaVuSans-52" d="M 2841 2188 
Q 3044 2119 3236 1894 
Q 3428 1669 3622 1275 
L 4263 0 
L 3584 0 
L 2988 1197 
Q 2756 1666 2539 1819 
Q 2322 1972 1947 1972 
L 1259 1972 
L 1259 0 
L 628 0 
L 628 4666 
L 2053 4666 
Q 2853 4666 3247 4331 
Q 3641 3997 3641 3322 
Q 3641 2881 3436 2590 
Q 3231 2300 2841 2188 
z
M 1259 4147 
L 1259 2491 
L 2053 2491 
Q 2509 2491 2742 2702 
Q 2975 2913 2975 3322 
Q 2975 3731 2742 3939 
Q 2509 4147 2053 4147 
L 1259 4147 
z
" transform="scale(0.015625)"/>
      <path id="DejaVuSans-46" d="M 628 4666 
L 3309 4666 
L 3309 4134 
L 1259 4134 
L 1259 2759 
L 3109 2759 
L 3109 2228 
L 1259 2228 
L 1259 0 
L 628 0 
L 628 4666 
z
" transform="scale(0.015625)"/>
      <path id="DejaVuSans-50" d="M 1259 4147 
L 1259 2394 
L 2053 2394 
Q 2494 2394 2734 2622 
Q 2975 2850 2975 3272 
Q 2975 3691 2734 3919 
Q 2494 4147 2053 4147 
L 1259 4147 
z
M 628 4666 
L 2053 4666 
Q 2838 4666 3239 4311 
Q 3641 3956 3641 3272 
Q 3641 2581 3239 2228 
Q 2838 1875 2053 1875 
L 1259 1875 
L 1259 0 
L 628 0 
L 628 4666 
z
" transform="scale(0.015625)"/>
      <path id="DejaVuSans-77" d="M 269 3500 
L 844 3500 
L 1563 769 
L 2278 3500 
L 2956 3500 
L 3675 769 
L 4391 3500 
L 4966 3500 
L 4050 0 
L 3372 0 
L 2619 2869 
L 1863 0 
L 1184 0 
L 269 3500 
z
" transform="scale(0.015625)"/>
      <path id="DejaVuSans-3d" d="M 678 2906 
L 4684 2906 
L 4684 2381 
L 678 2381 
L 678 2906 
z
M 678 1631 
L 4684 1631 
L 4684 1100 
L 678 1100 
L 678 1631 
z
" transform="scale(0.015625)"/>
      <path id="DejaVuSans-2d" d="M 313 2009 
L 1997 2009 
L 1997 1497 
L 313 1497 
L 313 2009 
z
" transform="scale(0.015625)"/>
      <path id="DejaVuSans-2c" d="M 750 794 
L 1409 794 
L 1409 256 
L 897 -744 
L 494 -744 
L 750 256 
L 750 794 
z
" transform="scale(0.015625)"/>
      <path id="DejaVuSans-4c" d="M 628 4666 
L 1259 4666 
L 1259 531 
L 3531 531 
L 3531 0 
L 628 0 
L 628 4666 
z
" transform="scale(0.015625)"/>
      <path id="DejaVuSans-69" d="M 603 3500 
L 1178 3500 
L 1178 0 
L 603 0 
L 603 3500 
z
M 603 4863 
L 1178 4863 
L 1178 4134 
L 603 4134 
L 603 4863 
z
" transform="scale(0.015625)"/>
      <path id="DejaVuSans-57" d="M 213 4666 
L 850 4666 
L 1831 722 
L 2809 4666 
L 3519 4666 
L 4500 722 
L 5478 4666 
L 6119 4666 
L 4947 0 
L 4153 0 
L 3169 4050 
L 2175 0 
L 1381 0 
L 213 4666 
z
" transform="scale(0.015625)"/>
      <path id="DejaVuSans-64" d="M 2906 2969 
L 2906 4863 
L 3481 4863 
L 3481 0 
L 2906 0 
L 2906 525 
Q 2725 213 2448 61 
Q 2172 -91 1784 -91 
Q 1150 -91 751 415 
Q 353 922 353 1747 
Q 353 2572 751 3078 
Q 1150 3584 1784 3584 
Q 2172 3584 2448 3432 
Q 2725 3281 2906 2969 
z
M 947 1747 
Q 947 1113 1208 752 
Q 1469 391 1925 391 
Q 2381 391 2643 752 
Q 2906 1113 2906 1747 
Q 2906 2381 2643 2742 
Q 2381 3103 1925 3103 
Q 1469 3103 1208 2742 
Q 947 2381 947 1747 
z
" transform="scale(0.015625)"/>
      <path id="DejaVuSans-68" d="M 3513 2113 
L 3513 0 
L 2938 0 
L 2938 2094 
Q 2938 2591 2744 2837 
Q 2550 3084 2163 3084 
Q 1697 3084 1428 2787 
Q 1159 2491 1159 1978 
L 1159 0 
L 581 0 
L 581 4863 
L 1159 4863 
L 1159 2956 
Q 1366 3272 1645 3428 
Q 1925 3584 2291 3584 
Q 2894 3584 3203 3211 
Q 3513 2838 3513 2113 
z
" transform="scale(0.015625)"/>
     </defs>
     <use xlink:href="#DejaVuSans-52"/>
     <use xlink:href="#DejaVuSans-46" x="69.482422"/>
     <use xlink:href="#DejaVuSans-20" x="127.001953"/>
     <use xlink:href="#DejaVuSans-50" x="158.789062"/>
     <use xlink:href="#DejaVuSans-6f" x="215.466797"/>
     <use xlink:href="#DejaVuSans-77" x="276.648438"/>
     <use xlink:href="#DejaVuSans-65" x="358.435547"/>
     <use xlink:href="#DejaVuSans-72" x="419.958984"/>
     <use xlink:href="#DejaVuSans-20" x="461.072266"/>
     <use xlink:href="#DejaVuSans-3d" x="492.859375"/>
     <use xlink:href="#DejaVuSans-20" x="576.648438"/>
     <use xlink:href="#DejaVuSans-2d" x="608.435547"/>
     <use xlink:href="#DejaVuSans-32" x="644.519531"/>
     <use xlink:href="#DejaVuSans-32" x="708.142578"/>
     <use xlink:href="#DejaVuSans-2c" x="771.765625"/>
     <use xlink:href="#DejaVuSans-20" x="803.552734"/>
     <use xlink:href="#DejaVuSans-4c" x="835.339844"/>
     <use xlink:href="#DejaVuSans-69" x="891.052734"/>
     <use xlink:href="#DejaVuSans-6e" x="918.835938"/>
     <use xlink:href="#DejaVuSans-65" x="982.214844"/>
     <use xlink:href="#DejaVuSans-20" x="1043.738281"/>
     <use xlink:href="#DejaVuSans-57" x="1075.525391"/>
     <use xlink:href="#DejaVuSans-69" x="1172.152344"/>
     <use xlink:href="#DejaVuSans-64" x="1199.935547"/>
     <use xlink:href="#DejaVuSans-74" x="1263.412109"/>
     <use xlink:href="#DejaVuSans-68" x="1302.621094"/>
     <use xlink:href="#DejaVuSans-20" x="1366"/>
     <use xlink:href="#DejaVuSans-3d" x="1397.787109"/>
     <use xlink:href="#DejaVuSans-20" x="1481.576172"/>
     <use xlink:href="#DejaVuSans-31" x="1513.363281"/>
     <use xlink:href="#DejaVuSans-2e" x="1576.986328"/>
     <use xlink:href="#DejaVuSans-39" x="1608.773438"/>
     <use xlink:href="#DejaVuSans-37" x="1672.396484"/>
     <use xlink:href="#DejaVuSans-20" x="1736.019531"/>
     <use xlink:href="#DejaVuSans-4d" x="1767.806641"/>
     <use xlink:href="#DejaVuSans-48" x="1854.085938"/>
     <use xlink:href="#DejaVuSans-7a" x="1929.28125"/>
    </g>
   </g>
   <g id="legend_1">
    <g id="patch_7">
     <path d="M 97 379.48 
L 152.876563 379.48 
Q 154.876563 379.48 154.876563 377.48 
L 154.876563 349.12375 
Q 154.876563 347.12375 152.876563 347.12375 
L 97 347.12375 
Q 95 347.12375 95 349.12375 
L 95 377.48 
Q 95 379.48 97 379.48 
z
" style="fill: #ffffff; opacity: 0.8; stroke: #cccccc; stroke-linejoin: miter"/>
    </g>
    <g id="line2d_18">
     <path d="M 99 355.222188 
L 109 355.222188 
L 119 355.222188 
" style="fill: none; stroke: #1f77b4; stroke-width: 1.5; stroke-linecap: square"/>
     <g>
      <use xlink:href="#m92555a49b5" x="109" y="355.222188" style="fill: #1f77b4; stroke: #1f77b4"/>
     </g>
    </g>
    <g id="text_19">
     <!-- Data -->
     <g transform="translate(127 358.722188) scale(0.1 -0.1)">
      <defs>
       <path id="DejaVuSans-44" d="M 1259 4147 
L 1259 519 
L 2022 519 
Q 2988 519 3436 956 
Q 3884 1394 3884 2338 
Q 3884 3275 3436 3711 
Q 2988 4147 2022 4147 
L 1259 4147 
z
M 628 4666 
L 1925 4666 
Q 3281 4666 3915 4102 
Q 4550 3538 4550 2338 
Q 4550 1131 3912 565 
Q 3275 0 1925 0 
L 628 0 
L 628 4666 
z
" transform="scale(0.015625)"/>
      </defs>
      <use xlink:href="#DejaVuSans-44"/>
      <use xlink:href="#DejaVuSans-61" x="77.001953"/>
      <use xlink:href="#DejaVuSans-74" x="138.28125"/>
      <use xlink:href="#DejaVuSans-61" x="177.490234"/>
     </g>
    </g>
    <g id="line2d_19">
     <path d="M 99 369.900312 
L 109 369.900312 
L 119 369.900312 
" style="fill: none; stroke-dasharray: 5.55,2.4; stroke-dashoffset: 0; stroke: #000000; stroke-width: 1.5"/>
    </g>
    <g id="text_20">
     <!-- Fit -->
     <g transform="translate(127 373.400312) scale(0.1 -0.1)">
      <use xlink:href="#DejaVuSans-46"/>
      <use xlink:href="#DejaVuSans-69" x="50.269531"/>
      <use xlink:href="#DejaVuSans-74" x="78.052734"/>
     </g>
    </g>
   </g>
  </g>
 </g>
 <defs>
  <clipPath id="pb273709008">
   <rect x="90" y="51.84" width="558" height="332.64"/>
  </clipPath>
 </defs>
</svg>
