<?xml version="1.0" encoding="utf-8" standalone="no"?>
<!DOCTYPE svg PUBLIC "-//W3C//DTD SVG 1.1//EN"
  "http://www.w3.org/Graphics/SVG/1.1/DTD/svg11.dtd">
<svg xmlns:xlink="http://www.w3.org/1999/xlink" width="720pt" height="432pt" viewBox="0 0 720 432" xmlns="http://www.w3.org/2000/svg" version="1.1">
 <metadata>
  <rdf:RDF xmlns:dc="http://purl.org/dc/elements/1.1/" xmlns:cc="http://creativecommons.org/ns#" xmlns:rdf="http://www.w3.org/1999/02/22-rdf-syntax-ns#">
   <cc:Work>
    <dc:type rdf:resource="http://purl.org/dc/dcmitype/StillImage"/>
    <dc:date>2023-03-30T12:46:15.545459</dc:date>
    <dc:format>image/svg+xml</dc:format>
    <dc:creator>
     <cc:Agent>
      <dc:title>Matplotlib v3.7.0, https://matplotlib.org/</dc:title>
     </cc:Agent>
    </dc:creator>
   </cc:Work>
  </rdf:RDF>
 </metadata>
 <defs>
  <style type="text/css">*{stroke-linejoin: round; stroke-linecap: butt}</style>
 </defs>
 <g id="figure_1">
  <g id="patch_1">
   <path d="M 0 432 
L 720 432 
L 720 0 
L 0 0 
L 0 432 
z
" style="fill: none"/>
  </g>
  <g id="axes_1">
   <g id="patch_2">
    <path d="M 90 384.48 
L 648 384.48 
L 648 51.84 
L 90 51.84 
L 90 384.48 
z
" style="fill: none"/>
   </g>
   <g id="matplotlib.axis_1">
    <g id="xtick_1">
     <g id="line2d_1">
      <defs>
       <path id="mab666ea46c" d="M 0 0 
L 0 3.5 
" style="stroke: #000000; stroke-width: 0.8"/>
      </defs>
      <g>
       <use xlink:href="#mab666ea46c" x="115.363636" y="384.48" style="stroke: #000000; stroke-width: 0.8"/>
      </g>
     </g>
     <g id="text_1">
      <!-- 2765 -->
      <g transform="translate(102.638636 399.078438) scale(0.1 -0.1)">
       <defs>
        <path id="DejaVuSans-32" d="M 1228 531 
L 3431 531 
L 3431 0 
L 469 0 
L 469 531 
Q 828 903 1448 1529 
Q 2069 2156 2228 2338 
Q 2531 2678 2651 2914 
Q 2772 3150 2772 3378 
Q 2772 3750 2511 3984 
Q 2250 4219 1831 4219 
Q 1534 4219 1204 4116 
Q 875 4013 500 3803 
L 500 4441 
Q 881 4594 1212 4672 
Q 1544 4750 1819 4750 
Q 2544 4750 2975 4387 
Q 3406 4025 3406 3419 
Q 3406 3131 3298 2873 
Q 3191 2616 2906 2266 
Q 2828 2175 2409 1742 
Q 1991 1309 1228 531 
z
" transform="scale(0.015625)"/>
        <path id="DejaVuSans-37" d="M 525 4666 
L 3525 4666 
L 3525 4397 
L 1831 0 
L 1172 0 
L 2766 4134 
L 525 4134 
L 525 4666 
z
" transform="scale(0.015625)"/>
        <path id="DejaVuSans-36" d="M 2113 2584 
Q 1688 2584 1439 2293 
Q 1191 2003 1191 1497 
Q 1191 994 1439 701 
Q 1688 409 2113 409 
Q 2538 409 2786 701 
Q 3034 994 3034 1497 
Q 3034 2003 2786 2293 
Q 2538 2584 2113 2584 
z
M 3366 4563 
L 3366 3988 
Q 3128 4100 2886 4159 
Q 2644 4219 2406 4219 
Q 1781 4219 1451 3797 
Q 1122 3375 1075 2522 
Q 1259 2794 1537 2939 
Q 1816 3084 2150 3084 
Q 2853 3084 3261 2657 
Q 3669 2231 3669 1497 
Q 3669 778 3244 343 
Q 2819 -91 2113 -91 
Q 1303 -91 875 529 
Q 447 1150 447 2328 
Q 447 3434 972 4092 
Q 1497 4750 2381 4750 
Q 2619 4750 2861 4703 
Q 3103 4656 3366 4563 
z
" transform="scale(0.015625)"/>
        <path id="DejaVuSans-35" d="M 691 4666 
L 3169 4666 
L 3169 4134 
L 1269 4134 
L 1269 2991 
Q 1406 3038 1543 3061 
Q 1681 3084 1819 3084 
Q 2600 3084 3056 2656 
Q 3513 2228 3513 1497 
Q 3513 744 3044 326 
Q 2575 -91 1722 -91 
Q 1428 -91 1123 -41 
Q 819 9 494 109 
L 494 744 
Q 775 591 1075 516 
Q 1375 441 1709 441 
Q 2250 441 2565 725 
Q 2881 1009 2881 1497 
Q 2881 1984 2565 2268 
Q 2250 2553 1709 2553 
Q 1456 2553 1204 2497 
Q 953 2441 691 2322 
L 691 4666 
z
" transform="scale(0.015625)"/>
       </defs>
       <use xlink:href="#DejaVuSans-32"/>
       <use xlink:href="#DejaVuSans-37" x="63.623047"/>
       <use xlink:href="#DejaVuSans-36" x="127.246094"/>
       <use xlink:href="#DejaVuSans-35" x="190.869141"/>
      </g>
     </g>
    </g>
    <g id="xtick_2">
     <g id="line2d_2">
      <g>
       <use xlink:href="#mab666ea46c" x="187.831169" y="384.48" style="stroke: #000000; stroke-width: 0.8"/>
      </g>
     </g>
     <g id="text_2">
      <!-- 2770 -->
      <g transform="translate(175.106169 399.078438) scale(0.1 -0.1)">
       <defs>
        <path id="DejaVuSans-30" d="M 2034 4250 
Q 1547 4250 1301 3770 
Q 1056 3291 1056 2328 
Q 1056 1369 1301 889 
Q 1547 409 2034 409 
Q 2525 409 2770 889 
Q 3016 1369 3016 2328 
Q 3016 3291 2770 3770 
Q 2525 4250 2034 4250 
z
M 2034 4750 
Q 2819 4750 3233 4129 
Q 3647 3509 3647 2328 
Q 3647 1150 3233 529 
Q 2819 -91 2034 -91 
Q 1250 -91 836 529 
Q 422 1150 422 2328 
Q 422 3509 836 4129 
Q 1250 4750 2034 4750 
z
" transform="scale(0.015625)"/>
       </defs>
       <use xlink:href="#DejaVuSans-32"/>
       <use xlink:href="#DejaVuSans-37" x="63.623047"/>
       <use xlink:href="#DejaVuSans-37" x="127.246094"/>
       <use xlink:href="#DejaVuSans-30" x="190.869141"/>
      </g>
     </g>
    </g>
    <g id="xtick_3">
     <g id="line2d_3">
      <g>
       <use xlink:href="#mab666ea46c" x="260.298701" y="384.48" style="stroke: #000000; stroke-width: 0.8"/>
      </g>
     </g>
     <g id="text_3">
      <!-- 2775 -->
      <g transform="translate(247.573701 399.078438) scale(0.1 -0.1)">
       <use xlink:href="#DejaVuSans-32"/>
       <use xlink:href="#DejaVuSans-37" x="63.623047"/>
       <use xlink:href="#DejaVuSans-37" x="127.246094"/>
       <use xlink:href="#DejaVuSans-35" x="190.869141"/>
      </g>
     </g>
    </g>
    <g id="xtick_4">
     <g id="line2d_4">
      <g>
       <use xlink:href="#mab666ea46c" x="332.766234" y="384.48" style="stroke: #000000; stroke-width: 0.8"/>
      </g>
     </g>
     <g id="text_4">
      <!-- 2780 -->
      <g transform="translate(320.041234 399.078438) scale(0.1 -0.1)">
       <defs>
        <path id="DejaVuSans-38" d="M 2034 2216 
Q 1584 2216 1326 1975 
Q 1069 1734 1069 1313 
Q 1069 891 1326 650 
Q 1584 409 2034 409 
Q 2484 409 2743 651 
Q 3003 894 3003 1313 
Q 3003 1734 2745 1975 
Q 2488 2216 2034 2216 
z
M 1403 2484 
Q 997 2584 770 2862 
Q 544 3141 544 3541 
Q 544 4100 942 4425 
Q 1341 4750 2034 4750 
Q 2731 4750 3128 4425 
Q 3525 4100 3525 3541 
Q 3525 3141 3298 2862 
Q 3072 2584 2669 2484 
Q 3125 2378 3379 2068 
Q 3634 1759 3634 1313 
Q 3634 634 3220 271 
Q 2806 -91 2034 -91 
Q 1263 -91 848 271 
Q 434 634 434 1313 
Q 434 1759 690 2068 
Q 947 2378 1403 2484 
z
M 1172 3481 
Q 1172 3119 1398 2916 
Q 1625 2713 2034 2713 
Q 2441 2713 2670 2916 
Q 2900 3119 2900 3481 
Q 2900 3844 2670 4047 
Q 2441 4250 2034 4250 
Q 1625 4250 1398 4047 
Q 1172 3844 1172 3481 
z
" transform="scale(0.015625)"/>
       </defs>
       <use xlink:href="#DejaVuSans-32"/>
       <use xlink:href="#DejaVuSans-37" x="63.623047"/>
       <use xlink:href="#DejaVuSans-38" x="127.246094"/>
       <use xlink:href="#DejaVuSans-30" x="190.869141"/>
      </g>
     </g>
    </g>
    <g id="xtick_5">
     <g id="line2d_5">
      <g>
       <use xlink:href="#mab666ea46c" x="405.233766" y="384.48" style="stroke: #000000; stroke-width: 0.8"/>
      </g>
     </g>
     <g id="text_5">
      <!-- 2785 -->
      <g transform="translate(392.508766 399.078438) scale(0.1 -0.1)">
       <use xlink:href="#DejaVuSans-32"/>
       <use xlink:href="#DejaVuSans-37" x="63.623047"/>
       <use xlink:href="#DejaVuSans-38" x="127.246094"/>
       <use xlink:href="#DejaVuSans-35" x="190.869141"/>
      </g>
     </g>
    </g>
    <g id="xtick_6">
     <g id="line2d_6">
      <g>
       <use xlink:href="#mab666ea46c" x="477.701299" y="384.48" style="stroke: #000000; stroke-width: 0.8"/>
      </g>
     </g>
     <g id="text_6">
      <!-- 2790 -->
      <g transform="translate(464.976299 399.078438) scale(0.1 -0.1)">
       <defs>
        <path id="DejaVuSans-39" d="M 703 97 
L 703 672 
Q 941 559 1184 500 
Q 1428 441 1663 441 
Q 2288 441 2617 861 
Q 2947 1281 2994 2138 
Q 2813 1869 2534 1725 
Q 2256 1581 1919 1581 
Q 1219 1581 811 2004 
Q 403 2428 403 3163 
Q 403 3881 828 4315 
Q 1253 4750 1959 4750 
Q 2769 4750 3195 4129 
Q 3622 3509 3622 2328 
Q 3622 1225 3098 567 
Q 2575 -91 1691 -91 
Q 1453 -91 1209 -44 
Q 966 3 703 97 
z
M 1959 2075 
Q 2384 2075 2632 2365 
Q 2881 2656 2881 3163 
Q 2881 3666 2632 3958 
Q 2384 4250 1959 4250 
Q 1534 4250 1286 3958 
Q 1038 3666 1038 3163 
Q 1038 2656 1286 2365 
Q 1534 2075 1959 2075 
z
" transform="scale(0.015625)"/>
       </defs>
       <use xlink:href="#DejaVuSans-32"/>
       <use xlink:href="#DejaVuSans-37" x="63.623047"/>
       <use xlink:href="#DejaVuSans-39" x="127.246094"/>
       <use xlink:href="#DejaVuSans-30" x="190.869141"/>
      </g>
     </g>
    </g>
    <g id="xtick_7">
     <g id="line2d_7">
      <g>
       <use xlink:href="#mab666ea46c" x="550.168831" y="384.48" style="stroke: #000000; stroke-width: 0.8"/>
      </g>
     </g>
     <g id="text_7">
      <!-- 2795 -->
      <g transform="translate(537.443831 399.078438) scale(0.1 -0.1)">
       <use xlink:href="#DejaVuSans-32"/>
       <use xlink:href="#DejaVuSans-37" x="63.623047"/>
       <use xlink:href="#DejaVuSans-39" x="127.246094"/>
       <use xlink:href="#DejaVuSans-35" x="190.869141"/>
      </g>
     </g>
    </g>
    <g id="xtick_8">
     <g id="line2d_8">
      <g>
       <use xlink:href="#mab666ea46c" x="622.636364" y="384.48" style="stroke: #000000; stroke-width: 0.8"/>
      </g>
     </g>
     <g id="text_8">
      <!-- 2800 -->
      <g transform="translate(609.911364 399.078438) scale(0.1 -0.1)">
       <use xlink:href="#DejaVuSans-32"/>
       <use xlink:href="#DejaVuSans-38" x="63.623047"/>
       <use xlink:href="#DejaVuSans-30" x="127.246094"/>
       <use xlink:href="#DejaVuSans-30" x="190.869141"/>
      </g>
     </g>
    </g>
    <g id="text_9">
     <!-- frequency [MHz] -->
     <g transform="translate(327.734375 412.756563) scale(0.1 -0.1)">
      <defs>
       <path id="DejaVuSans-66" d="M 2375 4863 
L 2375 4384 
L 1825 4384 
Q 1516 4384 1395 4259 
Q 1275 4134 1275 3809 
L 1275 3500 
L 2222 3500 
L 2222 3053 
L 1275 3053 
L 1275 0 
L 697 0 
L 697 3053 
L 147 3053 
L 147 3500 
L 697 3500 
L 697 3744 
Q 697 4328 969 4595 
Q 1241 4863 1831 4863 
L 2375 4863 
z
" transform="scale(0.015625)"/>
       <path id="DejaVuSans-72" d="M 2631 2963 
Q 2534 3019 2420 3045 
Q 2306 3072 2169 3072 
Q 1681 3072 1420 2755 
Q 1159 2438 1159 1844 
L 1159 0 
L 581 0 
L 581 3500 
L 1159 3500 
L 1159 2956 
Q 1341 3275 1631 3429 
Q 1922 3584 2338 3584 
Q 2397 3584 2469 3576 
Q 2541 3569 2628 3553 
L 2631 2963 
z
" transform="scale(0.015625)"/>
       <path id="DejaVuSans-65" d="M 3597 1894 
L 3597 1613 
L 953 1613 
Q 991 1019 1311 708 
Q 1631 397 2203 397 
Q 2534 397 2845 478 
Q 3156 559 3463 722 
L 3463 178 
Q 3153 47 2828 -22 
Q 2503 -91 2169 -91 
Q 1331 -91 842 396 
Q 353 884 353 1716 
Q 353 2575 817 3079 
Q 1281 3584 2069 3584 
Q 2775 3584 3186 3129 
Q 3597 2675 3597 1894 
z
M 3022 2063 
Q 3016 2534 2758 2815 
Q 2500 3097 2075 3097 
Q 1594 3097 1305 2825 
Q 1016 2553 972 2059 
L 3022 2063 
z
" transform="scale(0.015625)"/>
       <path id="DejaVuSans-71" d="M 947 1747 
Q 947 1113 1208 752 
Q 1469 391 1925 391 
Q 2381 391 2643 752 
Q 2906 1113 2906 1747 
Q 2906 2381 2643 2742 
Q 2381 3103 1925 3103 
Q 1469 3103 1208 2742 
Q 947 2381 947 1747 
z
M 2906 525 
Q 2725 213 2448 61 
Q 2172 -91 1784 -91 
Q 1150 -91 751 415 
Q 353 922 353 1747 
Q 353 2572 751 3078 
Q 1150 3584 1784 3584 
Q 2172 3584 2448 3432 
Q 2725 3281 2906 2969 
L 2906 3500 
L 3481 3500 
L 3481 -1331 
L 2906 -1331 
L 2906 525 
z
" transform="scale(0.015625)"/>
       <path id="DejaVuSans-75" d="M 544 1381 
L 544 3500 
L 1119 3500 
L 1119 1403 
Q 1119 906 1312 657 
Q 1506 409 1894 409 
Q 2359 409 2629 706 
Q 2900 1003 2900 1516 
L 2900 3500 
L 3475 3500 
L 3475 0 
L 2900 0 
L 2900 538 
Q 2691 219 2414 64 
Q 2138 -91 1772 -91 
Q 1169 -91 856 284 
Q 544 659 544 1381 
z
M 1991 3584 
L 1991 3584 
z
" transform="scale(0.015625)"/>
       <path id="DejaVuSans-6e" d="M 3513 2113 
L 3513 0 
L 2938 0 
L 2938 2094 
Q 2938 2591 2744 2837 
Q 2550 3084 2163 3084 
Q 1697 3084 1428 2787 
Q 1159 2491 1159 1978 
L 1159 0 
L 581 0 
L 581 3500 
L 1159 3500 
L 1159 2956 
Q 1366 3272 1645 3428 
Q 1925 3584 2291 3584 
Q 2894 3584 3203 3211 
Q 3513 2838 3513 2113 
z
" transform="scale(0.015625)"/>
       <path id="DejaVuSans-63" d="M 3122 3366 
L 3122 2828 
Q 2878 2963 2633 3030 
Q 2388 3097 2138 3097 
Q 1578 3097 1268 2742 
Q 959 2388 959 1747 
Q 959 1106 1268 751 
Q 1578 397 2138 397 
Q 2388 397 2633 464 
Q 2878 531 3122 666 
L 3122 134 
Q 2881 22 2623 -34 
Q 2366 -91 2075 -91 
Q 1284 -91 818 406 
Q 353 903 353 1747 
Q 353 2603 823 3093 
Q 1294 3584 2113 3584 
Q 2378 3584 2631 3529 
Q 2884 3475 3122 3366 
z
" transform="scale(0.015625)"/>
       <path id="DejaVuSans-79" d="M 2059 -325 
Q 1816 -950 1584 -1140 
Q 1353 -1331 966 -1331 
L 506 -1331 
L 506 -850 
L 844 -850 
Q 1081 -850 1212 -737 
Q 1344 -625 1503 -206 
L 1606 56 
L 191 3500 
L 800 3500 
L 1894 763 
L 2988 3500 
L 3597 3500 
L 2059 -325 
z
" transform="scale(0.015625)"/>
       <path id="DejaVuSans-20" transform="scale(0.015625)"/>
       <path id="DejaVuSans-5b" d="M 550 4863 
L 1875 4863 
L 1875 4416 
L 1125 4416 
L 1125 -397 
L 1875 -397 
L 1875 -844 
L 550 -844 
L 550 4863 
z
" transform="scale(0.015625)"/>
       <path id="DejaVuSans-4d" d="M 628 4666 
L 1569 4666 
L 2759 1491 
L 3956 4666 
L 4897 4666 
L 4897 0 
L 4281 0 
L 4281 4097 
L 3078 897 
L 2444 897 
L 1241 4097 
L 1241 0 
L 628 0 
L 628 4666 
z
" transform="scale(0.015625)"/>
       <path id="DejaVuSans-48" d="M 628 4666 
L 1259 4666 
L 1259 2753 
L 3553 2753 
L 3553 4666 
L 4184 4666 
L 4184 0 
L 3553 0 
L 3553 2222 
L 1259 2222 
L 1259 0 
L 628 0 
L 628 4666 
z
" transform="scale(0.015625)"/>
       <path id="DejaVuSans-7a" d="M 353 3500 
L 3084 3500 
L 3084 2975 
L 922 459 
L 3084 459 
L 3084 0 
L 275 0 
L 275 525 
L 2438 3041 
L 353 3041 
L 353 3500 
z
" transform="scale(0.015625)"/>
       <path id="DejaVuSans-5d" d="M 1947 4863 
L 1947 -844 
L 622 -844 
L 622 -397 
L 1369 -397 
L 1369 4416 
L 622 4416 
L 622 4863 
L 1947 4863 
z
" transform="scale(0.015625)"/>
      </defs>
      <use xlink:href="#DejaVuSans-66"/>
      <use xlink:href="#DejaVuSans-72" x="35.205078"/>
      <use xlink:href="#DejaVuSans-65" x="74.068359"/>
      <use xlink:href="#DejaVuSans-71" x="135.591797"/>
      <use xlink:href="#DejaVuSans-75" x="199.068359"/>
      <use xlink:href="#DejaVuSans-65" x="262.447266"/>
      <use xlink:href="#DejaVuSans-6e" x="323.970703"/>
      <use xlink:href="#DejaVuSans-63" x="387.349609"/>
      <use xlink:href="#DejaVuSans-79" x="442.330078"/>
      <use xlink:href="#DejaVuSans-20" x="501.509766"/>
      <use xlink:href="#DejaVuSans-5b" x="533.296875"/>
      <use xlink:href="#DejaVuSans-4d" x="572.310547"/>
      <use xlink:href="#DejaVuSans-48" x="658.589844"/>
      <use xlink:href="#DejaVuSans-7a" x="733.785156"/>
      <use xlink:href="#DejaVuSans-5d" x="786.275391"/>
     </g>
    </g>
   </g>
   <g id="matplotlib.axis_2">
    <g id="ytick_1">
     <g id="line2d_9">
      <defs>
       <path id="ma9d4e888d9" d="M 0 0 
L -3.5 0 
" style="stroke: #000000; stroke-width: 0.8"/>
      </defs>
      <g>
       <use xlink:href="#ma9d4e888d9" x="90" y="312.688742" style="stroke: #000000; stroke-width: 0.8"/>
      </g>
     </g>
     <g id="text_10">
      <!-- 0.985 -->
      <g transform="translate(54.371875 316.487961) scale(0.1 -0.1)">
       <defs>
        <path id="DejaVuSans-2e" d="M 684 794 
L 1344 794 
L 1344 0 
L 684 0 
L 684 794 
z
" transform="scale(0.015625)"/>
       </defs>
       <use xlink:href="#DejaVuSans-30"/>
       <use xlink:href="#DejaVuSans-2e" x="63.623047"/>
       <use xlink:href="#DejaVuSans-39" x="95.410156"/>
       <use xlink:href="#DejaVuSans-38" x="159.033203"/>
       <use xlink:href="#DejaVuSans-35" x="222.65625"/>
      </g>
     </g>
    </g>
    <g id="ytick_2">
     <g id="line2d_10">
      <g>
       <use xlink:href="#ma9d4e888d9" x="90" y="240.494484" style="stroke: #000000; stroke-width: 0.8"/>
      </g>
     </g>
     <g id="text_11">
      <!-- 0.990 -->
      <g transform="translate(54.371875 244.293703) scale(0.1 -0.1)">
       <use xlink:href="#DejaVuSans-30"/>
       <use xlink:href="#DejaVuSans-2e" x="63.623047"/>
       <use xlink:href="#DejaVuSans-39" x="95.410156"/>
       <use xlink:href="#DejaVuSans-39" x="159.033203"/>
       <use xlink:href="#DejaVuSans-30" x="222.65625"/>
      </g>
     </g>
    </g>
    <g id="ytick_3">
     <g id="line2d_11">
      <g>
       <use xlink:href="#ma9d4e888d9" x="90" y="168.300226" style="stroke: #000000; stroke-width: 0.8"/>
      </g>
     </g>
     <g id="text_12">
      <!-- 0.995 -->
      <g transform="translate(54.371875 172.099444) scale(0.1 -0.1)">
       <use xlink:href="#DejaVuSans-30"/>
       <use xlink:href="#DejaVuSans-2e" x="63.623047"/>
       <use xlink:href="#DejaVuSans-39" x="95.410156"/>
       <use xlink:href="#DejaVuSans-39" x="159.033203"/>
       <use xlink:href="#DejaVuSans-35" x="222.65625"/>
      </g>
     </g>
    </g>
    <g id="ytick_4">
     <g id="line2d_12">
      <g>
       <use xlink:href="#ma9d4e888d9" x="90" y="96.105967" style="stroke: #000000; stroke-width: 0.8"/>
      </g>
     </g>
     <g id="text_13">
      <!-- 1.000 -->
      <g transform="translate(54.371875 99.905186) scale(0.1 -0.1)">
       <defs>
        <path id="DejaVuSans-31" d="M 794 531 
L 1825 531 
L 1825 4091 
L 703 3866 
L 703 4441 
L 1819 4666 
L 2450 4666 
L 2450 531 
L 3481 531 
L 3481 0 
L 794 0 
L 794 531 
z
" transform="scale(0.015625)"/>
       </defs>
       <use xlink:href="#DejaVuSans-31"/>
       <use xlink:href="#DejaVuSans-2e" x="63.623047"/>
       <use xlink:href="#DejaVuSans-30" x="95.410156"/>
       <use xlink:href="#DejaVuSans-30" x="159.033203"/>
       <use xlink:href="#DejaVuSans-30" x="222.65625"/>
      </g>
     </g>
    </g>
    <g id="text_14">
     <!-- Contrast -->
     <g transform="translate(48.292187 239.524062) rotate(-90) scale(0.1 -0.1)">
      <defs>
       <path id="DejaVuSans-43" d="M 4122 4306 
L 4122 3641 
Q 3803 3938 3442 4084 
Q 3081 4231 2675 4231 
Q 1875 4231 1450 3742 
Q 1025 3253 1025 2328 
Q 1025 1406 1450 917 
Q 1875 428 2675 428 
Q 3081 428 3442 575 
Q 3803 722 4122 1019 
L 4122 359 
Q 3791 134 3420 21 
Q 3050 -91 2638 -91 
Q 1578 -91 968 557 
Q 359 1206 359 2328 
Q 359 3453 968 4101 
Q 1578 4750 2638 4750 
Q 3056 4750 3426 4639 
Q 3797 4528 4122 4306 
z
" transform="scale(0.015625)"/>
       <path id="DejaVuSans-6f" d="M 1959 3097 
Q 1497 3097 1228 2736 
Q 959 2375 959 1747 
Q 959 1119 1226 758 
Q 1494 397 1959 397 
Q 2419 397 2687 759 
Q 2956 1122 2956 1747 
Q 2956 2369 2687 2733 
Q 2419 3097 1959 3097 
z
M 1959 3584 
Q 2709 3584 3137 3096 
Q 3566 2609 3566 1747 
Q 3566 888 3137 398 
Q 2709 -91 1959 -91 
Q 1206 -91 779 398 
Q 353 888 353 1747 
Q 353 2609 779 3096 
Q 1206 3584 1959 3584 
z
" transform="scale(0.015625)"/>
       <path id="DejaVuSans-74" d="M 1172 4494 
L 1172 3500 
L 2356 3500 
L 2356 3053 
L 1172 3053 
L 1172 1153 
Q 1172 725 1289 603 
Q 1406 481 1766 481 
L 2356 481 
L 2356 0 
L 1766 0 
Q 1100 0 847 248 
Q 594 497 594 1153 
L 594 3053 
L 172 3053 
L 172 3500 
L 594 3500 
L 594 4494 
L 1172 4494 
z
" transform="scale(0.015625)"/>
       <path id="DejaVuSans-61" d="M 2194 1759 
Q 1497 1759 1228 1600 
Q 959 1441 959 1056 
Q 959 750 1161 570 
Q 1363 391 1709 391 
Q 2188 391 2477 730 
Q 2766 1069 2766 1631 
L 2766 1759 
L 2194 1759 
z
M 3341 1997 
L 3341 0 
L 2766 0 
L 2766 531 
Q 2569 213 2275 61 
Q 1981 -91 1556 -91 
Q 1019 -91 701 211 
Q 384 513 384 1019 
Q 384 1609 779 1909 
Q 1175 2209 1959 2209 
L 2766 2209 
L 2766 2266 
Q 2766 2663 2505 2880 
Q 2244 3097 1772 3097 
Q 1472 3097 1187 3025 
Q 903 2953 641 2809 
L 641 3341 
Q 956 3463 1253 3523 
Q 1550 3584 1831 3584 
Q 2591 3584 2966 3190 
Q 3341 2797 3341 1997 
z
" transform="scale(0.015625)"/>
       <path id="DejaVuSans-73" d="M 2834 3397 
L 2834 2853 
Q 2591 2978 2328 3040 
Q 2066 3103 1784 3103 
Q 1356 3103 1142 2972 
Q 928 2841 928 2578 
Q 928 2378 1081 2264 
Q 1234 2150 1697 2047 
L 1894 2003 
Q 2506 1872 2764 1633 
Q 3022 1394 3022 966 
Q 3022 478 2636 193 
Q 2250 -91 1575 -91 
Q 1294 -91 989 -36 
Q 684 19 347 128 
L 347 722 
Q 666 556 975 473 
Q 1284 391 1588 391 
Q 1994 391 2212 530 
Q 2431 669 2431 922 
Q 2431 1156 2273 1281 
Q 2116 1406 1581 1522 
L 1381 1569 
Q 847 1681 609 1914 
Q 372 2147 372 2553 
Q 372 3047 722 3315 
Q 1072 3584 1716 3584 
Q 2034 3584 2315 3537 
Q 2597 3491 2834 3397 
z
" transform="scale(0.015625)"/>
      </defs>
      <use xlink:href="#DejaVuSans-43"/>
      <use xlink:href="#DejaVuSans-6f" x="69.824219"/>
      <use xlink:href="#DejaVuSans-6e" x="131.005859"/>
      <use xlink:href="#DejaVuSans-74" x="194.384766"/>
      <use xlink:href="#DejaVuSans-72" x="233.59375"/>
      <use xlink:href="#DejaVuSans-61" x="274.707031"/>
      <use xlink:href="#DejaVuSans-73" x="335.986328"/>
      <use xlink:href="#DejaVuSans-74" x="388.085938"/>
     </g>
    </g>
   </g>
   <g id="line2d_13">
    <path d="M 115.363636 94.600974 
L 116.812987 95.118959 
L 118.262338 99.918704 
L 119.711688 90.094332 
L 121.161039 94.272154 
L 122.61039 84.698522 
L 124.05974 99.560532 
L 125.509091 106.775513 
L 126.958442 90.169179 
L 128.407792 106.795468 
L 129.857143 83.006726 
L 131.306494 119.551467 
L 132.755844 98.764996 
L 134.205195 90.946721 
L 135.654545 98.667185 
L 137.103896 101.338959 
L 138.553247 106.436308 
L 140.002597 90.173093 
L 141.451948 112.757968 
L 142.901299 85.564605 
L 144.350649 90.127038 
L 145.8 88.34573 
L 147.249351 67.093246 
L 148.698701 96.617134 
L 150.148052 85.373499 
L 151.597403 85.262914 
L 153.046753 91.485244 
L 154.496104 98.452514 
L 155.945455 99.869269 
L 157.394805 112.411692 
L 158.844156 104.274419 
L 160.293506 101.075159 
L 161.742857 96.141685 
L 163.192208 91.832679 
L 164.641558 117.788995 
L 166.090909 89.490154 
L 167.54026 96.079643 
L 168.98961 86.789354 
L 170.438961 96.110329 
L 171.888312 100.000692 
L 173.337662 72.163424 
L 174.787013 101.479411 
L 176.236364 96.256986 
L 177.685714 93.540922 
L 179.135065 131.310028 
L 180.584416 99.148182 
L 182.033766 94.513583 
L 183.483117 96.737757 
L 184.932468 101.199107 
L 186.381818 99.64596 
L 187.831169 102.656848 
L 189.280519 89.78163 
L 190.72987 101.033995 
L 192.179221 96.516145 
L 193.628571 93.622873 
L 196.527273 93.130206 
L 197.976623 104.448477 
L 199.425974 79.749074 
L 200.875325 81.300487 
L 202.324675 101.389833 
L 203.774026 115.253682 
L 205.223377 101.026392 
L 206.672727 112.964772 
L 208.122078 96.982264 
L 209.571429 108.023987 
L 211.020779 86.209849 
L 212.47013 127.813904 
L 213.919481 80.265669 
L 215.368831 98.689239 
L 216.818182 123.617084 
L 218.267532 76.492049 
L 219.716883 104.228525 
L 221.166234 104.266233 
L 222.615584 87.117225 
L 224.064935 118.532179 
L 225.514286 121.544193 
L 226.963636 123.996508 
L 228.412987 84.319997 
L 229.862338 102.715899 
L 231.311688 104.443419 
L 232.761039 107.674103 
L 234.21039 85.870013 
L 235.65974 106.548953 
L 237.109091 101.052254 
L 238.558442 115.236251 
L 240.007792 97.900397 
L 241.457143 100.678617 
L 242.906494 118.927412 
L 244.355844 104.967812 
L 245.805195 111.956728 
L 247.254545 128.28545 
L 248.703896 113.124645 
L 250.153247 122.123963 
L 251.602597 124.163045 
L 253.051948 104.653548 
L 254.501299 133.56906 
L 255.950649 124.66071 
L 257.4 135.553071 
L 258.849351 133.303872 
L 260.298701 123.913964 
L 261.748052 112.443679 
L 263.197403 121.340773 
L 264.646753 111.084286 
L 266.096104 111.191174 
L 267.545455 122.092944 
L 268.994805 137.223509 
L 270.444156 104.336711 
L 271.893506 110.076528 
L 273.342857 110.916619 
L 274.792208 140.347518 
L 276.241558 123.713681 
L 277.690909 103.277548 
L 279.14026 101.482986 
L 280.58961 138.38134 
L 282.038961 117.066518 
L 283.488312 105.541765 
L 284.937662 121.477443 
L 286.387013 143.008926 
L 287.836364 158.949043 
L 289.285714 137.1627 
L 290.735065 149.970989 
L 293.633766 127.646808 
L 295.083117 135.279941 
L 296.532468 121.249306 
L 297.981818 145.860233 
L 299.431169 136.164111 
L 300.880519 150.497249 
L 302.32987 150.915442 
L 303.779221 178.280122 
L 305.228571 155.644662 
L 306.677922 183.355514 
L 308.127273 181.411762 
L 309.576623 191.519639 
L 311.025974 198.654831 
L 312.475325 208.878584 
L 313.924675 230.69182 
L 315.374026 248.580935 
L 316.823377 301.288064 
L 318.272727 315.471457 
L 319.722078 327.127768 
L 321.171429 317.501899 
L 322.620779 311.108593 
L 324.07013 321.647488 
L 325.519481 309.278028 
L 326.968831 290.194868 
L 328.418182 263.622607 
L 329.867532 218.213767 
L 331.316883 229.451907 
L 332.766234 202.227644 
L 334.215584 227.581136 
L 335.664935 212.182397 
L 337.114286 187.199711 
L 338.563636 184.706463 
L 340.012987 230.702012 
L 341.462338 227.416011 
L 342.911688 239.890073 
L 344.361039 264.095644 
L 345.81039 254.810989 
L 347.25974 282.975935 
L 348.709091 324.749352 
L 350.158442 328.469439 
L 351.607792 343.548982 
L 353.057143 369.36 
L 354.506494 343.085216 
L 355.955844 302.084046 
L 357.405195 276.563983 
L 358.854545 257.78926 
L 360.303896 264.708369 
L 361.753247 246.462709 
L 364.651948 222.079561 
L 366.101299 203.732387 
L 367.550649 210.049639 
L 369 206.935528 
L 370.449351 209.67391 
L 371.898701 241.186285 
L 373.348052 238.360346 
L 374.797403 246.57938 
L 376.246753 257.59909 
L 377.696104 288.972101 
L 379.145455 309.085118 
L 380.594805 337.480662 
L 382.044156 338.451404 
L 383.493506 357.188415 
L 386.392208 321.786331 
L 389.290909 275.879095 
L 392.18961 240.768652 
L 393.638961 225.194537 
L 395.088312 173.656528 
L 396.537662 199.85571 
L 397.987013 171.496242 
L 399.436364 177.082754 
L 400.885714 163.261311 
L 402.335065 156.924564 
L 403.784416 156.028748 
L 405.233766 147.46269 
L 406.683117 160.212335 
L 408.132468 153.901376 
L 409.581818 132.110575 
L 411.031169 147.038111 
L 412.480519 144.894567 
L 413.92987 146.334653 
L 415.379221 155.271638 
L 416.828571 147.567843 
L 418.277922 136.556769 
L 419.727273 122.051378 
L 421.176623 143.029609 
L 424.075325 132.199562 
L 425.524675 129.392264 
L 426.974026 118.301542 
L 428.423377 143.760702 
L 429.872727 130.560877 
L 431.322078 125.005009 
L 432.771429 123.837969 
L 434.220779 127.92052 
L 435.67013 117.23346 
L 437.119481 116.193262 
L 438.568831 132.283873 
L 440.018182 111.125107 
L 441.467532 112.773643 
L 442.916883 129.390988 
L 445.815584 105.041389 
L 447.264935 102.657064 
L 448.714286 119.997388 
L 450.163636 143.669765 
L 451.612987 107.488456 
L 453.062338 93.846304 
L 454.511688 131.273037 
L 455.961039 120.553818 
L 457.41039 128.118093 
L 458.85974 120.811958 
L 460.309091 108.063174 
L 461.758442 133.559505 
L 463.207792 113.205256 
L 464.657143 110.22137 
L 466.106494 113.347412 
L 467.555844 118.384366 
L 469.005195 116.048591 
L 470.454545 97.033359 
L 471.903896 107.533783 
L 473.353247 106.435133 
L 474.802597 83.756509 
L 476.251948 100.283204 
L 477.701299 136.266528 
L 479.150649 127.272099 
L 480.6 116.179978 
L 482.049351 136.276747 
L 483.498701 96.503011 
L 484.948052 118.99546 
L 486.397403 118.724565 
L 487.846753 111.747574 
L 489.296104 117.760045 
L 490.745455 114.980535 
L 492.194805 92.314181 
L 493.644156 93.465527 
L 495.093506 115.345578 
L 496.542857 85.466694 
L 497.992208 97.899356 
L 499.441558 99.689386 
L 500.890909 109.498908 
L 502.34026 102.592643 
L 503.78961 92.444183 
L 505.238961 124.418523 
L 506.688312 112.689102 
L 508.137662 108.572304 
L 509.587013 108.659936 
L 511.036364 93.840002 
L 512.485714 98.450326 
L 513.935065 90.751174 
L 515.384416 108.383085 
L 516.833766 102.350086 
L 518.283117 115.163752 
L 519.732468 93.734834 
L 521.181818 96.205888 
L 522.631169 101.188028 
L 524.080519 95.592107 
L 525.52987 117.780886 
L 526.979221 105.569352 
L 528.428571 94.958574 
L 529.877922 103.758904 
L 531.327273 118.855536 
L 532.776623 102.82715 
L 534.225974 101.568084 
L 535.675325 105.507358 
L 537.124675 82.111781 
L 538.574026 81.898015 
L 540.023377 95.941911 
L 541.472727 104.26209 
L 542.922078 107.109007 
L 544.371429 71.902161 
L 545.820779 107.83872 
L 547.27013 107.924944 
L 548.719481 98.778682 
L 550.168831 90.651373 
L 551.618182 78.848515 
L 553.067532 111.751683 
L 554.516883 94.505104 
L 557.415584 99.917653 
L 558.864935 97.825617 
L 560.314286 88.748341 
L 561.763636 101.818427 
L 563.212987 104.93745 
L 564.662338 97.023068 
L 566.111688 112.010729 
L 567.561039 83.188157 
L 569.01039 103.842625 
L 570.45974 112.935171 
L 571.909091 105.193055 
L 573.358442 120.343854 
L 574.807792 112.581662 
L 576.257143 91.928401 
L 577.706494 104.796738 
L 579.155844 90.815768 
L 580.605195 93.156563 
L 582.054545 90.241689 
L 583.503896 113.026475 
L 584.953247 70.765381 
L 586.402597 94.330719 
L 587.851948 89.204272 
L 589.301299 90.111203 
L 590.750649 66.96 
L 592.2 113.513331 
L 593.649351 99.162566 
L 595.098701 100.805313 
L 596.548052 95.810436 
L 597.997403 102.834719 
L 599.446753 110.637712 
L 600.896104 88.630047 
L 602.345455 86.623197 
L 603.794805 93.390875 
L 605.244156 104.044424 
L 606.693506 82.656725 
L 608.142857 82.702492 
L 609.592208 115.200171 
L 611.041558 112.609766 
L 612.490909 96.136185 
L 613.94026 104.885356 
L 615.38961 92.526133 
L 618.288312 112.040758 
L 619.737662 103.371657 
L 621.187013 107.077836 
L 622.636364 78.069723 
L 622.636364 78.069723 
" clip-path="url(#pe7289b02b0)" style="fill: none; stroke: #1f77b4; stroke-width: 1.5; stroke-linecap: square"/>
    <defs>
     <path id="m381931f233" d="M 0 3 
C 0.795609 3 1.55874 2.683901 2.12132 2.12132 
C 2.683901 1.55874 3 0.795609 3 0 
C 3 -0.795609 2.683901 -1.55874 2.12132 -2.12132 
C 1.55874 -2.683901 0.795609 -3 0 -3 
C -0.795609 -3 -1.55874 -2.683901 -2.12132 -2.12132 
C -2.683901 -1.55874 -3 -0.795609 -3 0 
C -3 0.795609 -2.683901 1.55874 -2.12132 2.12132 
C -1.55874 2.683901 -0.795609 3 0 3 
z
" style="stroke: #1f77b4"/>
    </defs>
    <g clip-path="url(#pe7289b02b0)">
     <use xlink:href="#m381931f233" x="115.363636" y="94.600974" style="fill: #1f77b4; stroke: #1f77b4"/>
     <use xlink:href="#m381931f233" x="116.812987" y="95.118959" style="fill: #1f77b4; stroke: #1f77b4"/>
     <use xlink:href="#m381931f233" x="118.262338" y="99.918704" style="fill: #1f77b4; stroke: #1f77b4"/>
     <use xlink:href="#m381931f233" x="119.711688" y="90.094332" style="fill: #1f77b4; stroke: #1f77b4"/>
     <use xlink:href="#m381931f233" x="121.161039" y="94.272154" style="fill: #1f77b4; stroke: #1f77b4"/>
     <use xlink:href="#m381931f233" x="122.61039" y="84.698522" style="fill: #1f77b4; stroke: #1f77b4"/>
     <use xlink:href="#m381931f233" x="124.05974" y="99.560532" style="fill: #1f77b4; stroke: #1f77b4"/>
     <use xlink:href="#m381931f233" x="125.509091" y="106.775513" style="fill: #1f77b4; stroke: #1f77b4"/>
     <use xlink:href="#m381931f233" x="126.958442" y="90.169179" style="fill: #1f77b4; stroke: #1f77b4"/>
     <use xlink:href="#m381931f233" x="128.407792" y="106.795468" style="fill: #1f77b4; stroke: #1f77b4"/>
     <use xlink:href="#m381931f233" x="129.857143" y="83.006726" style="fill: #1f77b4; stroke: #1f77b4"/>
     <use xlink:href="#m381931f233" x="131.306494" y="119.551467" style="fill: #1f77b4; stroke: #1f77b4"/>
     <use xlink:href="#m381931f233" x="132.755844" y="98.764996" style="fill: #1f77b4; stroke: #1f77b4"/>
     <use xlink:href="#m381931f233" x="134.205195" y="90.946721" style="fill: #1f77b4; stroke: #1f77b4"/>
     <use xlink:href="#m381931f233" x="135.654545" y="98.667185" style="fill: #1f77b4; stroke: #1f77b4"/>
     <use xlink:href="#m381931f233" x="137.103896" y="101.338959" style="fill: #1f77b4; stroke: #1f77b4"/>
     <use xlink:href="#m381931f233" x="138.553247" y="106.436308" style="fill: #1f77b4; stroke: #1f77b4"/>
     <use xlink:href="#m381931f233" x="140.002597" y="90.173093" style="fill: #1f77b4; stroke: #1f77b4"/>
     <use xlink:href="#m381931f233" x="141.451948" y="112.757968" style="fill: #1f77b4; stroke: #1f77b4"/>
     <use xlink:href="#m381931f233" x="142.901299" y="85.564605" style="fill: #1f77b4; stroke: #1f77b4"/>
     <use xlink:href="#m381931f233" x="144.350649" y="90.127038" style="fill: #1f77b4; stroke: #1f77b4"/>
     <use xlink:href="#m381931f233" x="145.8" y="88.34573" style="fill: #1f77b4; stroke: #1f77b4"/>
     <use xlink:href="#m381931f233" x="147.249351" y="67.093246" style="fill: #1f77b4; stroke: #1f77b4"/>
     <use xlink:href="#m381931f233" x="148.698701" y="96.617134" style="fill: #1f77b4; stroke: #1f77b4"/>
     <use xlink:href="#m381931f233" x="150.148052" y="85.373499" style="fill: #1f77b4; stroke: #1f77b4"/>
     <use xlink:href="#m381931f233" x="151.597403" y="85.262914" style="fill: #1f77b4; stroke: #1f77b4"/>
     <use xlink:href="#m381931f233" x="153.046753" y="91.485244" style="fill: #1f77b4; stroke: #1f77b4"/>
     <use xlink:href="#m381931f233" x="154.496104" y="98.452514" style="fill: #1f77b4; stroke: #1f77b4"/>
     <use xlink:href="#m381931f233" x="155.945455" y="99.869269" style="fill: #1f77b4; stroke: #1f77b4"/>
     <use xlink:href="#m381931f233" x="157.394805" y="112.411692" style="fill: #1f77b4; stroke: #1f77b4"/>
     <use xlink:href="#m381931f233" x="158.844156" y="104.274419" style="fill: #1f77b4; stroke: #1f77b4"/>
     <use xlink:href="#m381931f233" x="160.293506" y="101.075159" style="fill: #1f77b4; stroke: #1f77b4"/>
     <use xlink:href="#m381931f233" x="161.742857" y="96.141685" style="fill: #1f77b4; stroke: #1f77b4"/>
     <use xlink:href="#m381931f233" x="163.192208" y="91.832679" style="fill: #1f77b4; stroke: #1f77b4"/>
     <use xlink:href="#m381931f233" x="164.641558" y="117.788995" style="fill: #1f77b4; stroke: #1f77b4"/>
     <use xlink:href="#m381931f233" x="166.090909" y="89.490154" style="fill: #1f77b4; stroke: #1f77b4"/>
     <use xlink:href="#m381931f233" x="167.54026" y="96.079643" style="fill: #1f77b4; stroke: #1f77b4"/>
     <use xlink:href="#m381931f233" x="168.98961" y="86.789354" style="fill: #1f77b4; stroke: #1f77b4"/>
     <use xlink:href="#m381931f233" x="170.438961" y="96.110329" style="fill: #1f77b4; stroke: #1f77b4"/>
     <use xlink:href="#m381931f233" x="171.888312" y="100.000692" style="fill: #1f77b4; stroke: #1f77b4"/>
     <use xlink:href="#m381931f233" x="173.337662" y="72.163424" style="fill: #1f77b4; stroke: #1f77b4"/>
     <use xlink:href="#m381931f233" x="174.787013" y="101.479411" style="fill: #1f77b4; stroke: #1f77b4"/>
     <use xlink:href="#m381931f233" x="176.236364" y="96.256986" style="fill: #1f77b4; stroke: #1f77b4"/>
     <use xlink:href="#m381931f233" x="177.685714" y="93.540922" style="fill: #1f77b4; stroke: #1f77b4"/>
     <use xlink:href="#m381931f233" x="179.135065" y="131.310028" style="fill: #1f77b4; stroke: #1f77b4"/>
     <use xlink:href="#m381931f233" x="180.584416" y="99.148182" style="fill: #1f77b4; stroke: #1f77b4"/>
     <use xlink:href="#m381931f233" x="182.033766" y="94.513583" style="fill: #1f77b4; stroke: #1f77b4"/>
     <use xlink:href="#m381931f233" x="183.483117" y="96.737757" style="fill: #1f77b4; stroke: #1f77b4"/>
     <use xlink:href="#m381931f233" x="184.932468" y="101.199107" style="fill: #1f77b4; stroke: #1f77b4"/>
     <use xlink:href="#m381931f233" x="186.381818" y="99.64596" style="fill: #1f77b4; stroke: #1f77b4"/>
     <use xlink:href="#m381931f233" x="187.831169" y="102.656848" style="fill: #1f77b4; stroke: #1f77b4"/>
     <use xlink:href="#m381931f233" x="189.280519" y="89.78163" style="fill: #1f77b4; stroke: #1f77b4"/>
     <use xlink:href="#m381931f233" x="190.72987" y="101.033995" style="fill: #1f77b4; stroke: #1f77b4"/>
     <use xlink:href="#m381931f233" x="192.179221" y="96.516145" style="fill: #1f77b4; stroke: #1f77b4"/>
     <use xlink:href="#m381931f233" x="193.628571" y="93.622873" style="fill: #1f77b4; stroke: #1f77b4"/>
     <use xlink:href="#m381931f233" x="195.077922" y="93.326229" style="fill: #1f77b4; stroke: #1f77b4"/>
     <use xlink:href="#m381931f233" x="196.527273" y="93.130206" style="fill: #1f77b4; stroke: #1f77b4"/>
     <use xlink:href="#m381931f233" x="197.976623" y="104.448477" style="fill: #1f77b4; stroke: #1f77b4"/>
     <use xlink:href="#m381931f233" x="199.425974" y="79.749074" style="fill: #1f77b4; stroke: #1f77b4"/>
     <use xlink:href="#m381931f233" x="200.875325" y="81.300487" style="fill: #1f77b4; stroke: #1f77b4"/>
     <use xlink:href="#m381931f233" x="202.324675" y="101.389833" style="fill: #1f77b4; stroke: #1f77b4"/>
     <use xlink:href="#m381931f233" x="203.774026" y="115.253682" style="fill: #1f77b4; stroke: #1f77b4"/>
     <use xlink:href="#m381931f233" x="205.223377" y="101.026392" style="fill: #1f77b4; stroke: #1f77b4"/>
     <use xlink:href="#m381931f233" x="206.672727" y="112.964772" style="fill: #1f77b4; stroke: #1f77b4"/>
     <use xlink:href="#m381931f233" x="208.122078" y="96.982264" style="fill: #1f77b4; stroke: #1f77b4"/>
     <use xlink:href="#m381931f233" x="209.571429" y="108.023987" style="fill: #1f77b4; stroke: #1f77b4"/>
     <use xlink:href="#m381931f233" x="211.020779" y="86.209849" style="fill: #1f77b4; stroke: #1f77b4"/>
     <use xlink:href="#m381931f233" x="212.47013" y="127.813904" style="fill: #1f77b4; stroke: #1f77b4"/>
     <use xlink:href="#m381931f233" x="213.919481" y="80.265669" style="fill: #1f77b4; stroke: #1f77b4"/>
     <use xlink:href="#m381931f233" x="215.368831" y="98.689239" style="fill: #1f77b4; stroke: #1f77b4"/>
     <use xlink:href="#m381931f233" x="216.818182" y="123.617084" style="fill: #1f77b4; stroke: #1f77b4"/>
     <use xlink:href="#m381931f233" x="218.267532" y="76.492049" style="fill: #1f77b4; stroke: #1f77b4"/>
     <use xlink:href="#m381931f233" x="219.716883" y="104.228525" style="fill: #1f77b4; stroke: #1f77b4"/>
     <use xlink:href="#m381931f233" x="221.166234" y="104.266233" style="fill: #1f77b4; stroke: #1f77b4"/>
     <use xlink:href="#m381931f233" x="222.615584" y="87.117225" style="fill: #1f77b4; stroke: #1f77b4"/>
     <use xlink:href="#m381931f233" x="224.064935" y="118.532179" style="fill: #1f77b4; stroke: #1f77b4"/>
     <use xlink:href="#m381931f233" x="225.514286" y="121.544193" style="fill: #1f77b4; stroke: #1f77b4"/>
     <use xlink:href="#m381931f233" x="226.963636" y="123.996508" style="fill: #1f77b4; stroke: #1f77b4"/>
     <use xlink:href="#m381931f233" x="228.412987" y="84.319997" style="fill: #1f77b4; stroke: #1f77b4"/>
     <use xlink:href="#m381931f233" x="229.862338" y="102.715899" style="fill: #1f77b4; stroke: #1f77b4"/>
     <use xlink:href="#m381931f233" x="231.311688" y="104.443419" style="fill: #1f77b4; stroke: #1f77b4"/>
     <use xlink:href="#m381931f233" x="232.761039" y="107.674103" style="fill: #1f77b4; stroke: #1f77b4"/>
     <use xlink:href="#m381931f233" x="234.21039" y="85.870013" style="fill: #1f77b4; stroke: #1f77b4"/>
     <use xlink:href="#m381931f233" x="235.65974" y="106.548953" style="fill: #1f77b4; stroke: #1f77b4"/>
     <use xlink:href="#m381931f233" x="237.109091" y="101.052254" style="fill: #1f77b4; stroke: #1f77b4"/>
     <use xlink:href="#m381931f233" x="238.558442" y="115.236251" style="fill: #1f77b4; stroke: #1f77b4"/>
     <use xlink:href="#m381931f233" x="240.007792" y="97.900397" style="fill: #1f77b4; stroke: #1f77b4"/>
     <use xlink:href="#m381931f233" x="241.457143" y="100.678617" style="fill: #1f77b4; stroke: #1f77b4"/>
     <use xlink:href="#m381931f233" x="242.906494" y="118.927412" style="fill: #1f77b4; stroke: #1f77b4"/>
     <use xlink:href="#m381931f233" x="244.355844" y="104.967812" style="fill: #1f77b4; stroke: #1f77b4"/>
     <use xlink:href="#m381931f233" x="245.805195" y="111.956728" style="fill: #1f77b4; stroke: #1f77b4"/>
     <use xlink:href="#m381931f233" x="247.254545" y="128.28545" style="fill: #1f77b4; stroke: #1f77b4"/>
     <use xlink:href="#m381931f233" x="248.703896" y="113.124645" style="fill: #1f77b4; stroke: #1f77b4"/>
     <use xlink:href="#m381931f233" x="250.153247" y="122.123963" style="fill: #1f77b4; stroke: #1f77b4"/>
     <use xlink:href="#m381931f233" x="251.602597" y="124.163045" style="fill: #1f77b4; stroke: #1f77b4"/>
     <use xlink:href="#m381931f233" x="253.051948" y="104.653548" style="fill: #1f77b4; stroke: #1f77b4"/>
     <use xlink:href="#m381931f233" x="254.501299" y="133.56906" style="fill: #1f77b4; stroke: #1f77b4"/>
     <use xlink:href="#m381931f233" x="255.950649" y="124.66071" style="fill: #1f77b4; stroke: #1f77b4"/>
     <use xlink:href="#m381931f233" x="257.4" y="135.553071" style="fill: #1f77b4; stroke: #1f77b4"/>
     <use xlink:href="#m381931f233" x="258.849351" y="133.303872" style="fill: #1f77b4; stroke: #1f77b4"/>
     <use xlink:href="#m381931f233" x="260.298701" y="123.913964" style="fill: #1f77b4; stroke: #1f77b4"/>
     <use xlink:href="#m381931f233" x="261.748052" y="112.443679" style="fill: #1f77b4; stroke: #1f77b4"/>
     <use xlink:href="#m381931f233" x="263.197403" y="121.340773" style="fill: #1f77b4; stroke: #1f77b4"/>
     <use xlink:href="#m381931f233" x="264.646753" y="111.084286" style="fill: #1f77b4; stroke: #1f77b4"/>
     <use xlink:href="#m381931f233" x="266.096104" y="111.191174" style="fill: #1f77b4; stroke: #1f77b4"/>
     <use xlink:href="#m381931f233" x="267.545455" y="122.092944" style="fill: #1f77b4; stroke: #1f77b4"/>
     <use xlink:href="#m381931f233" x="268.994805" y="137.223509" style="fill: #1f77b4; stroke: #1f77b4"/>
     <use xlink:href="#m381931f233" x="270.444156" y="104.336711" style="fill: #1f77b4; stroke: #1f77b4"/>
     <use xlink:href="#m381931f233" x="271.893506" y="110.076528" style="fill: #1f77b4; stroke: #1f77b4"/>
     <use xlink:href="#m381931f233" x="273.342857" y="110.916619" style="fill: #1f77b4; stroke: #1f77b4"/>
     <use xlink:href="#m381931f233" x="274.792208" y="140.347518" style="fill: #1f77b4; stroke: #1f77b4"/>
     <use xlink:href="#m381931f233" x="276.241558" y="123.713681" style="fill: #1f77b4; stroke: #1f77b4"/>
     <use xlink:href="#m381931f233" x="277.690909" y="103.277548" style="fill: #1f77b4; stroke: #1f77b4"/>
     <use xlink:href="#m381931f233" x="279.14026" y="101.482986" style="fill: #1f77b4; stroke: #1f77b4"/>
     <use xlink:href="#m381931f233" x="280.58961" y="138.38134" style="fill: #1f77b4; stroke: #1f77b4"/>
     <use xlink:href="#m381931f233" x="282.038961" y="117.066518" style="fill: #1f77b4; stroke: #1f77b4"/>
     <use xlink:href="#m381931f233" x="283.488312" y="105.541765" style="fill: #1f77b4; stroke: #1f77b4"/>
     <use xlink:href="#m381931f233" x="284.937662" y="121.477443" style="fill: #1f77b4; stroke: #1f77b4"/>
     <use xlink:href="#m381931f233" x="286.387013" y="143.008926" style="fill: #1f77b4; stroke: #1f77b4"/>
     <use xlink:href="#m381931f233" x="287.836364" y="158.949043" style="fill: #1f77b4; stroke: #1f77b4"/>
     <use xlink:href="#m381931f233" x="289.285714" y="137.1627" style="fill: #1f77b4; stroke: #1f77b4"/>
     <use xlink:href="#m381931f233" x="290.735065" y="149.970989" style="fill: #1f77b4; stroke: #1f77b4"/>
     <use xlink:href="#m381931f233" x="292.184416" y="138.755163" style="fill: #1f77b4; stroke: #1f77b4"/>
     <use xlink:href="#m381931f233" x="293.633766" y="127.646808" style="fill: #1f77b4; stroke: #1f77b4"/>
     <use xlink:href="#m381931f233" x="295.083117" y="135.279941" style="fill: #1f77b4; stroke: #1f77b4"/>
     <use xlink:href="#m381931f233" x="296.532468" y="121.249306" style="fill: #1f77b4; stroke: #1f77b4"/>
     <use xlink:href="#m381931f233" x="297.981818" y="145.860233" style="fill: #1f77b4; stroke: #1f77b4"/>
     <use xlink:href="#m381931f233" x="299.431169" y="136.164111" style="fill: #1f77b4; stroke: #1f77b4"/>
     <use xlink:href="#m381931f233" x="300.880519" y="150.497249" style="fill: #1f77b4; stroke: #1f77b4"/>
     <use xlink:href="#m381931f233" x="302.32987" y="150.915442" style="fill: #1f77b4; stroke: #1f77b4"/>
     <use xlink:href="#m381931f233" x="303.779221" y="178.280122" style="fill: #1f77b4; stroke: #1f77b4"/>
     <use xlink:href="#m381931f233" x="305.228571" y="155.644662" style="fill: #1f77b4; stroke: #1f77b4"/>
     <use xlink:href="#m381931f233" x="306.677922" y="183.355514" style="fill: #1f77b4; stroke: #1f77b4"/>
     <use xlink:href="#m381931f233" x="308.127273" y="181.411762" style="fill: #1f77b4; stroke: #1f77b4"/>
     <use xlink:href="#m381931f233" x="309.576623" y="191.519639" style="fill: #1f77b4; stroke: #1f77b4"/>
     <use xlink:href="#m381931f233" x="311.025974" y="198.654831" style="fill: #1f77b4; stroke: #1f77b4"/>
     <use xlink:href="#m381931f233" x="312.475325" y="208.878584" style="fill: #1f77b4; stroke: #1f77b4"/>
     <use xlink:href="#m381931f233" x="313.924675" y="230.69182" style="fill: #1f77b4; stroke: #1f77b4"/>
     <use xlink:href="#m381931f233" x="315.374026" y="248.580935" style="fill: #1f77b4; stroke: #1f77b4"/>
     <use xlink:href="#m381931f233" x="316.823377" y="301.288064" style="fill: #1f77b4; stroke: #1f77b4"/>
     <use xlink:href="#m381931f233" x="318.272727" y="315.471457" style="fill: #1f77b4; stroke: #1f77b4"/>
     <use xlink:href="#m381931f233" x="319.722078" y="327.127768" style="fill: #1f77b4; stroke: #1f77b4"/>
     <use xlink:href="#m381931f233" x="321.171429" y="317.501899" style="fill: #1f77b4; stroke: #1f77b4"/>
     <use xlink:href="#m381931f233" x="322.620779" y="311.108593" style="fill: #1f77b4; stroke: #1f77b4"/>
     <use xlink:href="#m381931f233" x="324.07013" y="321.647488" style="fill: #1f77b4; stroke: #1f77b4"/>
     <use xlink:href="#m381931f233" x="325.519481" y="309.278028" style="fill: #1f77b4; stroke: #1f77b4"/>
     <use xlink:href="#m381931f233" x="326.968831" y="290.194868" style="fill: #1f77b4; stroke: #1f77b4"/>
     <use xlink:href="#m381931f233" x="328.418182" y="263.622607" style="fill: #1f77b4; stroke: #1f77b4"/>
     <use xlink:href="#m381931f233" x="329.867532" y="218.213767" style="fill: #1f77b4; stroke: #1f77b4"/>
     <use xlink:href="#m381931f233" x="331.316883" y="229.451907" style="fill: #1f77b4; stroke: #1f77b4"/>
     <use xlink:href="#m381931f233" x="332.766234" y="202.227644" style="fill: #1f77b4; stroke: #1f77b4"/>
     <use xlink:href="#m381931f233" x="334.215584" y="227.581136" style="fill: #1f77b4; stroke: #1f77b4"/>
     <use xlink:href="#m381931f233" x="335.664935" y="212.182397" style="fill: #1f77b4; stroke: #1f77b4"/>
     <use xlink:href="#m381931f233" x="337.114286" y="187.199711" style="fill: #1f77b4; stroke: #1f77b4"/>
     <use xlink:href="#m381931f233" x="338.563636" y="184.706463" style="fill: #1f77b4; stroke: #1f77b4"/>
     <use xlink:href="#m381931f233" x="340.012987" y="230.702012" style="fill: #1f77b4; stroke: #1f77b4"/>
     <use xlink:href="#m381931f233" x="341.462338" y="227.416011" style="fill: #1f77b4; stroke: #1f77b4"/>
     <use xlink:href="#m381931f233" x="342.911688" y="239.890073" style="fill: #1f77b4; stroke: #1f77b4"/>
     <use xlink:href="#m381931f233" x="344.361039" y="264.095644" style="fill: #1f77b4; stroke: #1f77b4"/>
     <use xlink:href="#m381931f233" x="345.81039" y="254.810989" style="fill: #1f77b4; stroke: #1f77b4"/>
     <use xlink:href="#m381931f233" x="347.25974" y="282.975935" style="fill: #1f77b4; stroke: #1f77b4"/>
     <use xlink:href="#m381931f233" x="348.709091" y="324.749352" style="fill: #1f77b4; stroke: #1f77b4"/>
     <use xlink:href="#m381931f233" x="350.158442" y="328.469439" style="fill: #1f77b4; stroke: #1f77b4"/>
     <use xlink:href="#m381931f233" x="351.607792" y="343.548982" style="fill: #1f77b4; stroke: #1f77b4"/>
     <use xlink:href="#m381931f233" x="353.057143" y="369.36" style="fill: #1f77b4; stroke: #1f77b4"/>
     <use xlink:href="#m381931f233" x="354.506494" y="343.085216" style="fill: #1f77b4; stroke: #1f77b4"/>
     <use xlink:href="#m381931f233" x="355.955844" y="302.084046" style="fill: #1f77b4; stroke: #1f77b4"/>
     <use xlink:href="#m381931f233" x="357.405195" y="276.563983" style="fill: #1f77b4; stroke: #1f77b4"/>
     <use xlink:href="#m381931f233" x="358.854545" y="257.78926" style="fill: #1f77b4; stroke: #1f77b4"/>
     <use xlink:href="#m381931f233" x="360.303896" y="264.708369" style="fill: #1f77b4; stroke: #1f77b4"/>
     <use xlink:href="#m381931f233" x="361.753247" y="246.462709" style="fill: #1f77b4; stroke: #1f77b4"/>
     <use xlink:href="#m381931f233" x="363.202597" y="233.875483" style="fill: #1f77b4; stroke: #1f77b4"/>
     <use xlink:href="#m381931f233" x="364.651948" y="222.079561" style="fill: #1f77b4; stroke: #1f77b4"/>
     <use xlink:href="#m381931f233" x="366.101299" y="203.732387" style="fill: #1f77b4; stroke: #1f77b4"/>
     <use xlink:href="#m381931f233" x="367.550649" y="210.049639" style="fill: #1f77b4; stroke: #1f77b4"/>
     <use xlink:href="#m381931f233" x="369" y="206.935528" style="fill: #1f77b4; stroke: #1f77b4"/>
     <use xlink:href="#m381931f233" x="370.449351" y="209.67391" style="fill: #1f77b4; stroke: #1f77b4"/>
     <use xlink:href="#m381931f233" x="371.898701" y="241.186285" style="fill: #1f77b4; stroke: #1f77b4"/>
     <use xlink:href="#m381931f233" x="373.348052" y="238.360346" style="fill: #1f77b4; stroke: #1f77b4"/>
     <use xlink:href="#m381931f233" x="374.797403" y="246.57938" style="fill: #1f77b4; stroke: #1f77b4"/>
     <use xlink:href="#m381931f233" x="376.246753" y="257.59909" style="fill: #1f77b4; stroke: #1f77b4"/>
     <use xlink:href="#m381931f233" x="377.696104" y="288.972101" style="fill: #1f77b4; stroke: #1f77b4"/>
     <use xlink:href="#m381931f233" x="379.145455" y="309.085118" style="fill: #1f77b4; stroke: #1f77b4"/>
     <use xlink:href="#m381931f233" x="380.594805" y="337.480662" style="fill: #1f77b4; stroke: #1f77b4"/>
     <use xlink:href="#m381931f233" x="382.044156" y="338.451404" style="fill: #1f77b4; stroke: #1f77b4"/>
     <use xlink:href="#m381931f233" x="383.493506" y="357.188415" style="fill: #1f77b4; stroke: #1f77b4"/>
     <use xlink:href="#m381931f233" x="384.942857" y="339.308566" style="fill: #1f77b4; stroke: #1f77b4"/>
     <use xlink:href="#m381931f233" x="386.392208" y="321.786331" style="fill: #1f77b4; stroke: #1f77b4"/>
     <use xlink:href="#m381931f233" x="387.841558" y="298.231611" style="fill: #1f77b4; stroke: #1f77b4"/>
     <use xlink:href="#m381931f233" x="389.290909" y="275.879095" style="fill: #1f77b4; stroke: #1f77b4"/>
     <use xlink:href="#m381931f233" x="390.74026" y="258.321577" style="fill: #1f77b4; stroke: #1f77b4"/>
     <use xlink:href="#m381931f233" x="392.18961" y="240.768652" style="fill: #1f77b4; stroke: #1f77b4"/>
     <use xlink:href="#m381931f233" x="393.638961" y="225.194537" style="fill: #1f77b4; stroke: #1f77b4"/>
     <use xlink:href="#m381931f233" x="395.088312" y="173.656528" style="fill: #1f77b4; stroke: #1f77b4"/>
     <use xlink:href="#m381931f233" x="396.537662" y="199.85571" style="fill: #1f77b4; stroke: #1f77b4"/>
     <use xlink:href="#m381931f233" x="397.987013" y="171.496242" style="fill: #1f77b4; stroke: #1f77b4"/>
     <use xlink:href="#m381931f233" x="399.436364" y="177.082754" style="fill: #1f77b4; stroke: #1f77b4"/>
     <use xlink:href="#m381931f233" x="400.885714" y="163.261311" style="fill: #1f77b4; stroke: #1f77b4"/>
     <use xlink:href="#m381931f233" x="402.335065" y="156.924564" style="fill: #1f77b4; stroke: #1f77b4"/>
     <use xlink:href="#m381931f233" x="403.784416" y="156.028748" style="fill: #1f77b4; stroke: #1f77b4"/>
     <use xlink:href="#m381931f233" x="405.233766" y="147.46269" style="fill: #1f77b4; stroke: #1f77b4"/>
     <use xlink:href="#m381931f233" x="406.683117" y="160.212335" style="fill: #1f77b4; stroke: #1f77b4"/>
     <use xlink:href="#m381931f233" x="408.132468" y="153.901376" style="fill: #1f77b4; stroke: #1f77b4"/>
     <use xlink:href="#m381931f233" x="409.581818" y="132.110575" style="fill: #1f77b4; stroke: #1f77b4"/>
     <use xlink:href="#m381931f233" x="411.031169" y="147.038111" style="fill: #1f77b4; stroke: #1f77b4"/>
     <use xlink:href="#m381931f233" x="412.480519" y="144.894567" style="fill: #1f77b4; stroke: #1f77b4"/>
     <use xlink:href="#m381931f233" x="413.92987" y="146.334653" style="fill: #1f77b4; stroke: #1f77b4"/>
     <use xlink:href="#m381931f233" x="415.379221" y="155.271638" style="fill: #1f77b4; stroke: #1f77b4"/>
     <use xlink:href="#m381931f233" x="416.828571" y="147.567843" style="fill: #1f77b4; stroke: #1f77b4"/>
     <use xlink:href="#m381931f233" x="418.277922" y="136.556769" style="fill: #1f77b4; stroke: #1f77b4"/>
     <use xlink:href="#m381931f233" x="419.727273" y="122.051378" style="fill: #1f77b4; stroke: #1f77b4"/>
     <use xlink:href="#m381931f233" x="421.176623" y="143.029609" style="fill: #1f77b4; stroke: #1f77b4"/>
     <use xlink:href="#m381931f233" x="422.625974" y="137.711271" style="fill: #1f77b4; stroke: #1f77b4"/>
     <use xlink:href="#m381931f233" x="424.075325" y="132.199562" style="fill: #1f77b4; stroke: #1f77b4"/>
     <use xlink:href="#m381931f233" x="425.524675" y="129.392264" style="fill: #1f77b4; stroke: #1f77b4"/>
     <use xlink:href="#m381931f233" x="426.974026" y="118.301542" style="fill: #1f77b4; stroke: #1f77b4"/>
     <use xlink:href="#m381931f233" x="428.423377" y="143.760702" style="fill: #1f77b4; stroke: #1f77b4"/>
     <use xlink:href="#m381931f233" x="429.872727" y="130.560877" style="fill: #1f77b4; stroke: #1f77b4"/>
     <use xlink:href="#m381931f233" x="431.322078" y="125.005009" style="fill: #1f77b4; stroke: #1f77b4"/>
     <use xlink:href="#m381931f233" x="432.771429" y="123.837969" style="fill: #1f77b4; stroke: #1f77b4"/>
     <use xlink:href="#m381931f233" x="434.220779" y="127.92052" style="fill: #1f77b4; stroke: #1f77b4"/>
     <use xlink:href="#m381931f233" x="435.67013" y="117.23346" style="fill: #1f77b4; stroke: #1f77b4"/>
     <use xlink:href="#m381931f233" x="437.119481" y="116.193262" style="fill: #1f77b4; stroke: #1f77b4"/>
     <use xlink:href="#m381931f233" x="438.568831" y="132.283873" style="fill: #1f77b4; stroke: #1f77b4"/>
     <use xlink:href="#m381931f233" x="440.018182" y="111.125107" style="fill: #1f77b4; stroke: #1f77b4"/>
     <use xlink:href="#m381931f233" x="441.467532" y="112.773643" style="fill: #1f77b4; stroke: #1f77b4"/>
     <use xlink:href="#m381931f233" x="442.916883" y="129.390988" style="fill: #1f77b4; stroke: #1f77b4"/>
     <use xlink:href="#m381931f233" x="444.366234" y="117.527818" style="fill: #1f77b4; stroke: #1f77b4"/>
     <use xlink:href="#m381931f233" x="445.815584" y="105.041389" style="fill: #1f77b4; stroke: #1f77b4"/>
     <use xlink:href="#m381931f233" x="447.264935" y="102.657064" style="fill: #1f77b4; stroke: #1f77b4"/>
     <use xlink:href="#m381931f233" x="448.714286" y="119.997388" style="fill: #1f77b4; stroke: #1f77b4"/>
     <use xlink:href="#m381931f233" x="450.163636" y="143.669765" style="fill: #1f77b4; stroke: #1f77b4"/>
     <use xlink:href="#m381931f233" x="451.612987" y="107.488456" style="fill: #1f77b4; stroke: #1f77b4"/>
     <use xlink:href="#m381931f233" x="453.062338" y="93.846304" style="fill: #1f77b4; stroke: #1f77b4"/>
     <use xlink:href="#m381931f233" x="454.511688" y="131.273037" style="fill: #1f77b4; stroke: #1f77b4"/>
     <use xlink:href="#m381931f233" x="455.961039" y="120.553818" style="fill: #1f77b4; stroke: #1f77b4"/>
     <use xlink:href="#m381931f233" x="457.41039" y="128.118093" style="fill: #1f77b4; stroke: #1f77b4"/>
     <use xlink:href="#m381931f233" x="458.85974" y="120.811958" style="fill: #1f77b4; stroke: #1f77b4"/>
     <use xlink:href="#m381931f233" x="460.309091" y="108.063174" style="fill: #1f77b4; stroke: #1f77b4"/>
     <use xlink:href="#m381931f233" x="461.758442" y="133.559505" style="fill: #1f77b4; stroke: #1f77b4"/>
     <use xlink:href="#m381931f233" x="463.207792" y="113.205256" style="fill: #1f77b4; stroke: #1f77b4"/>
     <use xlink:href="#m381931f233" x="464.657143" y="110.22137" style="fill: #1f77b4; stroke: #1f77b4"/>
     <use xlink:href="#m381931f233" x="466.106494" y="113.347412" style="fill: #1f77b4; stroke: #1f77b4"/>
     <use xlink:href="#m381931f233" x="467.555844" y="118.384366" style="fill: #1f77b4; stroke: #1f77b4"/>
     <use xlink:href="#m381931f233" x="469.005195" y="116.048591" style="fill: #1f77b4; stroke: #1f77b4"/>
     <use xlink:href="#m381931f233" x="470.454545" y="97.033359" style="fill: #1f77b4; stroke: #1f77b4"/>
     <use xlink:href="#m381931f233" x="471.903896" y="107.533783" style="fill: #1f77b4; stroke: #1f77b4"/>
     <use xlink:href="#m381931f233" x="473.353247" y="106.435133" style="fill: #1f77b4; stroke: #1f77b4"/>
     <use xlink:href="#m381931f233" x="474.802597" y="83.756509" style="fill: #1f77b4; stroke: #1f77b4"/>
     <use xlink:href="#m381931f233" x="476.251948" y="100.283204" style="fill: #1f77b4; stroke: #1f77b4"/>
     <use xlink:href="#m381931f233" x="477.701299" y="136.266528" style="fill: #1f77b4; stroke: #1f77b4"/>
     <use xlink:href="#m381931f233" x="479.150649" y="127.272099" style="fill: #1f77b4; stroke: #1f77b4"/>
     <use xlink:href="#m381931f233" x="480.6" y="116.179978" style="fill: #1f77b4; stroke: #1f77b4"/>
     <use xlink:href="#m381931f233" x="482.049351" y="136.276747" style="fill: #1f77b4; stroke: #1f77b4"/>
     <use xlink:href="#m381931f233" x="483.498701" y="96.503011" style="fill: #1f77b4; stroke: #1f77b4"/>
     <use xlink:href="#m381931f233" x="484.948052" y="118.99546" style="fill: #1f77b4; stroke: #1f77b4"/>
     <use xlink:href="#m381931f233" x="486.397403" y="118.724565" style="fill: #1f77b4; stroke: #1f77b4"/>
     <use xlink:href="#m381931f233" x="487.846753" y="111.747574" style="fill: #1f77b4; stroke: #1f77b4"/>
     <use xlink:href="#m381931f233" x="489.296104" y="117.760045" style="fill: #1f77b4; stroke: #1f77b4"/>
     <use xlink:href="#m381931f233" x="490.745455" y="114.980535" style="fill: #1f77b4; stroke: #1f77b4"/>
     <use xlink:href="#m381931f233" x="492.194805" y="92.314181" style="fill: #1f77b4; stroke: #1f77b4"/>
     <use xlink:href="#m381931f233" x="493.644156" y="93.465527" style="fill: #1f77b4; stroke: #1f77b4"/>
     <use xlink:href="#m381931f233" x="495.093506" y="115.345578" style="fill: #1f77b4; stroke: #1f77b4"/>
     <use xlink:href="#m381931f233" x="496.542857" y="85.466694" style="fill: #1f77b4; stroke: #1f77b4"/>
     <use xlink:href="#m381931f233" x="497.992208" y="97.899356" style="fill: #1f77b4; stroke: #1f77b4"/>
     <use xlink:href="#m381931f233" x="499.441558" y="99.689386" style="fill: #1f77b4; stroke: #1f77b4"/>
     <use xlink:href="#m381931f233" x="500.890909" y="109.498908" style="fill: #1f77b4; stroke: #1f77b4"/>
     <use xlink:href="#m381931f233" x="502.34026" y="102.592643" style="fill: #1f77b4; stroke: #1f77b4"/>
     <use xlink:href="#m381931f233" x="503.78961" y="92.444183" style="fill: #1f77b4; stroke: #1f77b4"/>
     <use xlink:href="#m381931f233" x="505.238961" y="124.418523" style="fill: #1f77b4; stroke: #1f77b4"/>
     <use xlink:href="#m381931f233" x="506.688312" y="112.689102" style="fill: #1f77b4; stroke: #1f77b4"/>
     <use xlink:href="#m381931f233" x="508.137662" y="108.572304" style="fill: #1f77b4; stroke: #1f77b4"/>
     <use xlink:href="#m381931f233" x="509.587013" y="108.659936" style="fill: #1f77b4; stroke: #1f77b4"/>
     <use xlink:href="#m381931f233" x="511.036364" y="93.840002" style="fill: #1f77b4; stroke: #1f77b4"/>
     <use xlink:href="#m381931f233" x="512.485714" y="98.450326" style="fill: #1f77b4; stroke: #1f77b4"/>
     <use xlink:href="#m381931f233" x="513.935065" y="90.751174" style="fill: #1f77b4; stroke: #1f77b4"/>
     <use xlink:href="#m381931f233" x="515.384416" y="108.383085" style="fill: #1f77b4; stroke: #1f77b4"/>
     <use xlink:href="#m381931f233" x="516.833766" y="102.350086" style="fill: #1f77b4; stroke: #1f77b4"/>
     <use xlink:href="#m381931f233" x="518.283117" y="115.163752" style="fill: #1f77b4; stroke: #1f77b4"/>
     <use xlink:href="#m381931f233" x="519.732468" y="93.734834" style="fill: #1f77b4; stroke: #1f77b4"/>
     <use xlink:href="#m381931f233" x="521.181818" y="96.205888" style="fill: #1f77b4; stroke: #1f77b4"/>
     <use xlink:href="#m381931f233" x="522.631169" y="101.188028" style="fill: #1f77b4; stroke: #1f77b4"/>
     <use xlink:href="#m381931f233" x="524.080519" y="95.592107" style="fill: #1f77b4; stroke: #1f77b4"/>
     <use xlink:href="#m381931f233" x="525.52987" y="117.780886" style="fill: #1f77b4; stroke: #1f77b4"/>
     <use xlink:href="#m381931f233" x="526.979221" y="105.569352" style="fill: #1f77b4; stroke: #1f77b4"/>
     <use xlink:href="#m381931f233" x="528.428571" y="94.958574" style="fill: #1f77b4; stroke: #1f77b4"/>
     <use xlink:href="#m381931f233" x="529.877922" y="103.758904" style="fill: #1f77b4; stroke: #1f77b4"/>
     <use xlink:href="#m381931f233" x="531.327273" y="118.855536" style="fill: #1f77b4; stroke: #1f77b4"/>
     <use xlink:href="#m381931f233" x="532.776623" y="102.82715" style="fill: #1f77b4; stroke: #1f77b4"/>
     <use xlink:href="#m381931f233" x="534.225974" y="101.568084" style="fill: #1f77b4; stroke: #1f77b4"/>
     <use xlink:href="#m381931f233" x="535.675325" y="105.507358" style="fill: #1f77b4; stroke: #1f77b4"/>
     <use xlink:href="#m381931f233" x="537.124675" y="82.111781" style="fill: #1f77b4; stroke: #1f77b4"/>
     <use xlink:href="#m381931f233" x="538.574026" y="81.898015" style="fill: #1f77b4; stroke: #1f77b4"/>
     <use xlink:href="#m381931f233" x="540.023377" y="95.941911" style="fill: #1f77b4; stroke: #1f77b4"/>
     <use xlink:href="#m381931f233" x="541.472727" y="104.26209" style="fill: #1f77b4; stroke: #1f77b4"/>
     <use xlink:href="#m381931f233" x="542.922078" y="107.109007" style="fill: #1f77b4; stroke: #1f77b4"/>
     <use xlink:href="#m381931f233" x="544.371429" y="71.902161" style="fill: #1f77b4; stroke: #1f77b4"/>
     <use xlink:href="#m381931f233" x="545.820779" y="107.83872" style="fill: #1f77b4; stroke: #1f77b4"/>
     <use xlink:href="#m381931f233" x="547.27013" y="107.924944" style="fill: #1f77b4; stroke: #1f77b4"/>
     <use xlink:href="#m381931f233" x="548.719481" y="98.778682" style="fill: #1f77b4; stroke: #1f77b4"/>
     <use xlink:href="#m381931f233" x="550.168831" y="90.651373" style="fill: #1f77b4; stroke: #1f77b4"/>
     <use xlink:href="#m381931f233" x="551.618182" y="78.848515" style="fill: #1f77b4; stroke: #1f77b4"/>
     <use xlink:href="#m381931f233" x="553.067532" y="111.751683" style="fill: #1f77b4; stroke: #1f77b4"/>
     <use xlink:href="#m381931f233" x="554.516883" y="94.505104" style="fill: #1f77b4; stroke: #1f77b4"/>
     <use xlink:href="#m381931f233" x="555.966234" y="97.150131" style="fill: #1f77b4; stroke: #1f77b4"/>
     <use xlink:href="#m381931f233" x="557.415584" y="99.917653" style="fill: #1f77b4; stroke: #1f77b4"/>
     <use xlink:href="#m381931f233" x="558.864935" y="97.825617" style="fill: #1f77b4; stroke: #1f77b4"/>
     <use xlink:href="#m381931f233" x="560.314286" y="88.748341" style="fill: #1f77b4; stroke: #1f77b4"/>
     <use xlink:href="#m381931f233" x="561.763636" y="101.818427" style="fill: #1f77b4; stroke: #1f77b4"/>
     <use xlink:href="#m381931f233" x="563.212987" y="104.93745" style="fill: #1f77b4; stroke: #1f77b4"/>
     <use xlink:href="#m381931f233" x="564.662338" y="97.023068" style="fill: #1f77b4; stroke: #1f77b4"/>
     <use xlink:href="#m381931f233" x="566.111688" y="112.010729" style="fill: #1f77b4; stroke: #1f77b4"/>
     <use xlink:href="#m381931f233" x="567.561039" y="83.188157" style="fill: #1f77b4; stroke: #1f77b4"/>
     <use xlink:href="#m381931f233" x="569.01039" y="103.842625" style="fill: #1f77b4; stroke: #1f77b4"/>
     <use xlink:href="#m381931f233" x="570.45974" y="112.935171" style="fill: #1f77b4; stroke: #1f77b4"/>
     <use xlink:href="#m381931f233" x="571.909091" y="105.193055" style="fill: #1f77b4; stroke: #1f77b4"/>
     <use xlink:href="#m381931f233" x="573.358442" y="120.343854" style="fill: #1f77b4; stroke: #1f77b4"/>
     <use xlink:href="#m381931f233" x="574.807792" y="112.581662" style="fill: #1f77b4; stroke: #1f77b4"/>
     <use xlink:href="#m381931f233" x="576.257143" y="91.928401" style="fill: #1f77b4; stroke: #1f77b4"/>
     <use xlink:href="#m381931f233" x="577.706494" y="104.796738" style="fill: #1f77b4; stroke: #1f77b4"/>
     <use xlink:href="#m381931f233" x="579.155844" y="90.815768" style="fill: #1f77b4; stroke: #1f77b4"/>
     <use xlink:href="#m381931f233" x="580.605195" y="93.156563" style="fill: #1f77b4; stroke: #1f77b4"/>
     <use xlink:href="#m381931f233" x="582.054545" y="90.241689" style="fill: #1f77b4; stroke: #1f77b4"/>
     <use xlink:href="#m381931f233" x="583.503896" y="113.026475" style="fill: #1f77b4; stroke: #1f77b4"/>
     <use xlink:href="#m381931f233" x="584.953247" y="70.765381" style="fill: #1f77b4; stroke: #1f77b4"/>
     <use xlink:href="#m381931f233" x="586.402597" y="94.330719" style="fill: #1f77b4; stroke: #1f77b4"/>
     <use xlink:href="#m381931f233" x="587.851948" y="89.204272" style="fill: #1f77b4; stroke: #1f77b4"/>
     <use xlink:href="#m381931f233" x="589.301299" y="90.111203" style="fill: #1f77b4; stroke: #1f77b4"/>
     <use xlink:href="#m381931f233" x="590.750649" y="66.96" style="fill: #1f77b4; stroke: #1f77b4"/>
     <use xlink:href="#m381931f233" x="592.2" y="113.513331" style="fill: #1f77b4; stroke: #1f77b4"/>
     <use xlink:href="#m381931f233" x="593.649351" y="99.162566" style="fill: #1f77b4; stroke: #1f77b4"/>
     <use xlink:href="#m381931f233" x="595.098701" y="100.805313" style="fill: #1f77b4; stroke: #1f77b4"/>
     <use xlink:href="#m381931f233" x="596.548052" y="95.810436" style="fill: #1f77b4; stroke: #1f77b4"/>
     <use xlink:href="#m381931f233" x="597.997403" y="102.834719" style="fill: #1f77b4; stroke: #1f77b4"/>
     <use xlink:href="#m381931f233" x="599.446753" y="110.637712" style="fill: #1f77b4; stroke: #1f77b4"/>
     <use xlink:href="#m381931f233" x="600.896104" y="88.630047" style="fill: #1f77b4; stroke: #1f77b4"/>
     <use xlink:href="#m381931f233" x="602.345455" y="86.623197" style="fill: #1f77b4; stroke: #1f77b4"/>
     <use xlink:href="#m381931f233" x="603.794805" y="93.390875" style="fill: #1f77b4; stroke: #1f77b4"/>
     <use xlink:href="#m381931f233" x="605.244156" y="104.044424" style="fill: #1f77b4; stroke: #1f77b4"/>
     <use xlink:href="#m381931f233" x="606.693506" y="82.656725" style="fill: #1f77b4; stroke: #1f77b4"/>
     <use xlink:href="#m381931f233" x="608.142857" y="82.702492" style="fill: #1f77b4; stroke: #1f77b4"/>
     <use xlink:href="#m381931f233" x="609.592208" y="115.200171" style="fill: #1f77b4; stroke: #1f77b4"/>
     <use xlink:href="#m381931f233" x="611.041558" y="112.609766" style="fill: #1f77b4; stroke: #1f77b4"/>
     <use xlink:href="#m381931f233" x="612.490909" y="96.136185" style="fill: #1f77b4; stroke: #1f77b4"/>
     <use xlink:href="#m381931f233" x="613.94026" y="104.885356" style="fill: #1f77b4; stroke: #1f77b4"/>
     <use xlink:href="#m381931f233" x="615.38961" y="92.526133" style="fill: #1f77b4; stroke: #1f77b4"/>
     <use xlink:href="#m381931f233" x="616.838961" y="102.054969" style="fill: #1f77b4; stroke: #1f77b4"/>
     <use xlink:href="#m381931f233" x="618.288312" y="112.040758" style="fill: #1f77b4; stroke: #1f77b4"/>
     <use xlink:href="#m381931f233" x="619.737662" y="103.371657" style="fill: #1f77b4; stroke: #1f77b4"/>
     <use xlink:href="#m381931f233" x="621.187013" y="107.077836" style="fill: #1f77b4; stroke: #1f77b4"/>
     <use xlink:href="#m381931f233" x="622.636364" y="78.069723" style="fill: #1f77b4; stroke: #1f77b4"/>
    </g>
   </g>
   <g id="line2d_14">
    <path d="M 115.363636 103.053515 
L 154.496104 103.484962 
L 182.033766 103.998601 
L 202.324675 104.592269 
L 216.818182 105.212395 
L 228.412987 105.899638 
L 238.558442 106.716306 
L 247.254545 107.657848 
L 254.501299 108.695071 
L 260.298701 109.762784 
L 264.646753 110.754561 
L 268.994805 111.965441 
L 273.342857 113.468077 
L 276.241558 114.682462 
L 279.14026 116.116261 
L 282.038961 117.827695 
L 284.937662 119.895851 
L 287.836364 122.430237 
L 289.285714 123.918314 
L 290.735065 125.585683 
L 292.184416 127.462654 
L 293.633766 129.586079 
L 295.083117 132.001032 
L 296.532468 134.762984 
L 297.981818 137.94059 
L 299.431169 141.619277 
L 300.880519 145.905813 
L 302.32987 150.934023 
L 303.779221 156.871702 
L 305.228571 163.928436 
L 306.677922 172.363163 
L 308.127273 182.488442 
L 309.576623 194.664462 
L 311.025974 209.268373 
L 312.475325 226.612147 
L 313.924675 246.767046 
L 318.272727 314.005473 
L 319.722078 329.631161 
L 321.171429 335.913148 
L 322.620779 331.509245 
L 324.07013 318.168564 
L 328.418182 261.291093 
L 329.867532 245.571412 
L 331.316883 233.124772 
L 332.766234 223.960658 
L 334.215584 217.903157 
L 335.664935 214.760156 
L 337.114286 214.405465 
L 338.563636 216.812562 
L 340.012987 222.061077 
L 341.462338 230.320536 
L 342.911688 241.800129 
L 344.361039 256.635877 
L 345.81039 274.670916 
L 348.709091 315.992504 
L 350.158442 334.130638 
L 351.607792 345.511109 
L 353.057143 347.01503 
L 354.506494 338.196938 
L 355.955844 321.57255 
L 360.303896 261.531316 
L 361.753247 245.804646 
L 363.202597 233.439629 
L 364.651948 224.356343 
L 366.101299 218.353573 
L 367.550649 215.24674 
L 369 214.931942 
L 370.449351 217.409608 
L 371.898701 222.783344 
L 373.348052 231.233259 
L 374.797403 242.946548 
L 376.246753 257.970228 
L 377.696104 275.939992 
L 380.594805 314.738446 
L 382.044156 329.479279 
L 383.493506 335.965777 
L 384.942857 331.886113 
L 386.392208 317.946391 
L 387.841558 297.39547 
L 390.74026 251.339254 
L 392.18961 230.628815 
L 393.638961 212.68866 
L 395.088312 197.53173 
L 396.537662 184.877563 
L 397.987013 174.353344 
L 399.436364 165.59156 
L 400.885714 158.268663 
L 402.335065 152.11467 
L 403.784416 146.910274 
L 405.233766 142.479615 
L 406.683117 138.682387 
L 408.132468 135.406683 
L 409.581818 132.563029 
L 411.031169 130.07959 
L 412.480519 127.898394 
L 413.92987 125.972388 
L 415.379221 124.263151 
L 418.277922 121.374223 
L 421.176623 119.03862 
L 424.075325 117.121658 
L 426.974026 115.52726 
L 429.872727 114.185498 
L 432.771429 113.044525 
L 437.119481 111.626614 
L 441.467532 110.478799 
L 445.815584 109.535001 
L 451.612987 108.515027 
L 458.85974 107.52006 
L 466.106494 106.747047 
L 474.802597 106.025625 
L 486.397403 105.304677 
L 500.890909 104.657618 
L 518.283117 104.114611 
L 541.472727 103.627109 
L 573.358442 103.203871 
L 618.288312 102.855238 
L 622.636364 102.830722 
L 622.636364 102.830722 
" clip-path="url(#pe7289b02b0)" style="fill: none; stroke-dasharray: 5.55,2.4; stroke-dashoffset: 0; stroke: #000000; stroke-width: 1.5"/>
   </g>
   <g id="patch_3">
    <path d="M 90 384.48 
L 90 51.84 
" style="fill: none; stroke: #000000; stroke-width: 0.8; stroke-linejoin: miter; stroke-linecap: square"/>
   </g>
   <g id="patch_4">
    <path d="M 648 384.48 
L 648 51.84 
" style="fill: none; stroke: #000000; stroke-width: 0.8; stroke-linejoin: miter; stroke-linecap: square"/>
   </g>
   <g id="patch_5">
    <path d="M 90 384.48 
L 648 384.48 
" style="fill: none; stroke: #000000; stroke-width: 0.8; stroke-linejoin: miter; stroke-linecap: square"/>
   </g>
   <g id="patch_6">
    <path d="M 90 51.84 
L 648 51.84 
" style="fill: none; stroke: #000000; stroke-width: 0.8; stroke-linejoin: miter; stroke-linecap: square"/>
   </g>
   <g id="text_15">
    <!-- RF Power = -32, Line Width = 0.62 MHz -->
    <g transform="translate(250.095937 45.84) scale(0.12 -0.12)">
     <defs>
      <path id="DejaVuSans-52" d="M 2841 2188 
Q 3044 2119 3236 1894 
Q 3428 1669 3622 1275 
L 4263 0 
L 3584 0 
L 2988 1197 
Q 2756 1666 2539 1819 
Q 2322 1972 1947 1972 
L 1259 1972 
L 1259 0 
L 628 0 
L 628 4666 
L 2053 4666 
Q 2853 4666 3247 4331 
Q 3641 3997 3641 3322 
Q 3641 2881 3436 2590 
Q 3231 2300 2841 2188 
z
M 1259 4147 
L 1259 2491 
L 2053 2491 
Q 2509 2491 2742 2702 
Q 2975 2913 2975 3322 
Q 2975 3731 2742 3939 
Q 2509 4147 2053 4147 
L 1259 4147 
z
" transform="scale(0.015625)"/>
      <path id="DejaVuSans-46" d="M 628 4666 
L 3309 4666 
L 3309 4134 
L 1259 4134 
L 1259 2759 
L 3109 2759 
L 3109 2228 
L 1259 2228 
L 1259 0 
L 628 0 
L 628 4666 
z
" transform="scale(0.015625)"/>
      <path id="DejaVuSans-50" d="M 1259 4147 
L 1259 2394 
L 2053 2394 
Q 2494 2394 2734 2622 
Q 2975 2850 2975 3272 
Q 2975 3691 2734 3919 
Q 2494 4147 2053 4147 
L 1259 4147 
z
M 628 4666 
L 2053 4666 
Q 2838 4666 3239 4311 
Q 3641 3956 3641 3272 
Q 3641 2581 3239 2228 
Q 2838 1875 2053 1875 
L 1259 1875 
L 1259 0 
L 628 0 
L 628 4666 
z
" transform="scale(0.015625)"/>
      <path id="DejaVuSans-77" d="M 269 3500 
L 844 3500 
L 1563 769 
L 2278 3500 
L 2956 3500 
L 3675 769 
L 4391 3500 
L 4966 3500 
L 4050 0 
L 3372 0 
L 2619 2869 
L 1863 0 
L 1184 0 
L 269 3500 
z
" transform="scale(0.015625)"/>
      <path id="DejaVuSans-3d" d="M 678 2906 
L 4684 2906 
L 4684 2381 
L 678 2381 
L 678 2906 
z
M 678 1631 
L 4684 1631 
L 4684 1100 
L 678 1100 
L 678 1631 
z
" transform="scale(0.015625)"/>
      <path id="DejaVuSans-2d" d="M 313 2009 
L 1997 2009 
L 1997 1497 
L 313 1497 
L 313 2009 
z
" transform="scale(0.015625)"/>
      <path id="DejaVuSans-33" d="M 2597 2516 
Q 3050 2419 3304 2112 
Q 3559 1806 3559 1356 
Q 3559 666 3084 287 
Q 2609 -91 1734 -91 
Q 1441 -91 1130 -33 
Q 819 25 488 141 
L 488 750 
Q 750 597 1062 519 
Q 1375 441 1716 441 
Q 2309 441 2620 675 
Q 2931 909 2931 1356 
Q 2931 1769 2642 2001 
Q 2353 2234 1838 2234 
L 1294 2234 
L 1294 2753 
L 1863 2753 
Q 2328 2753 2575 2939 
Q 2822 3125 2822 3475 
Q 2822 3834 2567 4026 
Q 2313 4219 1838 4219 
Q 1578 4219 1281 4162 
Q 984 4106 628 3988 
L 628 4550 
Q 988 4650 1302 4700 
Q 1616 4750 1894 4750 
Q 2613 4750 3031 4423 
Q 3450 4097 3450 3541 
Q 3450 3153 3228 2886 
Q 3006 2619 2597 2516 
z
" transform="scale(0.015625)"/>
      <path id="DejaVuSans-2c" d="M 750 794 
L 1409 794 
L 1409 256 
L 897 -744 
L 494 -744 
L 750 256 
L 750 794 
z
" transform="scale(0.015625)"/>
      <path id="DejaVuSans-4c" d="M 628 4666 
L 1259 4666 
L 1259 531 
L 3531 531 
L 3531 0 
L 628 0 
L 628 4666 
z
" transform="scale(0.015625)"/>
      <path id="DejaVuSans-69" d="M 603 3500 
L 1178 3500 
L 1178 0 
L 603 0 
L 603 3500 
z
M 603 4863 
L 1178 4863 
L 1178 4134 
L 603 4134 
L 603 4863 
z
" transform="scale(0.015625)"/>
      <path id="DejaVuSans-57" d="M 213 4666 
L 850 4666 
L 1831 722 
L 2809 4666 
L 3519 4666 
L 4500 722 
L 5478 4666 
L 6119 4666 
L 4947 0 
L 4153 0 
L 3169 4050 
L 2175 0 
L 1381 0 
L 213 4666 
z
" transform="scale(0.015625)"/>
      <path id="DejaVuSans-64" d="M 2906 2969 
L 2906 4863 
L 3481 4863 
L 3481 0 
L 2906 0 
L 2906 525 
Q 2725 213 2448 61 
Q 2172 -91 1784 -91 
Q 1150 -91 751 415 
Q 353 922 353 1747 
Q 353 2572 751 3078 
Q 1150 3584 1784 3584 
Q 2172 3584 2448 3432 
Q 2725 3281 2906 2969 
z
M 947 1747 
Q 947 1113 1208 752 
Q 1469 391 1925 391 
Q 2381 391 2643 752 
Q 2906 1113 2906 1747 
Q 2906 2381 2643 2742 
Q 2381 3103 1925 3103 
Q 1469 3103 1208 2742 
Q 947 2381 947 1747 
z
" transform="scale(0.015625)"/>
      <path id="DejaVuSans-68" d="M 3513 2113 
L 3513 0 
L 2938 0 
L 2938 2094 
Q 2938 2591 2744 2837 
Q 2550 3084 2163 3084 
Q 1697 3084 1428 2787 
Q 1159 2491 1159 1978 
L 1159 0 
L 581 0 
L 581 4863 
L 1159 4863 
L 1159 2956 
Q 1366 3272 1645 3428 
Q 1925 3584 2291 3584 
Q 2894 3584 3203 3211 
Q 3513 2838 3513 2113 
z
" transform="scale(0.015625)"/>
     </defs>
     <use xlink:href="#DejaVuSans-52"/>
     <use xlink:href="#DejaVuSans-46" x="69.482422"/>
     <use xlink:href="#DejaVuSans-20" x="127.001953"/>
     <use xlink:href="#DejaVuSans-50" x="158.789062"/>
     <use xlink:href="#DejaVuSans-6f" x="215.466797"/>
     <use xlink:href="#DejaVuSans-77" x="276.648438"/>
     <use xlink:href="#DejaVuSans-65" x="358.435547"/>
     <use xlink:href="#DejaVuSans-72" x="419.958984"/>
     <use xlink:href="#DejaVuSans-20" x="461.072266"/>
     <use xlink:href="#DejaVuSans-3d" x="492.859375"/>
     <use xlink:href="#DejaVuSans-20" x="576.648438"/>
     <use xlink:href="#DejaVuSans-2d" x="608.435547"/>
     <use xlink:href="#DejaVuSans-33" x="644.519531"/>
     <use xlink:href="#DejaVuSans-32" x="708.142578"/>
     <use xlink:href="#DejaVuSans-2c" x="771.765625"/>
     <use xlink:href="#DejaVuSans-20" x="803.552734"/>
     <use xlink:href="#DejaVuSans-4c" x="835.339844"/>
     <use xlink:href="#DejaVuSans-69" x="891.052734"/>
     <use xlink:href="#DejaVuSans-6e" x="918.835938"/>
     <use xlink:href="#DejaVuSans-65" x="982.214844"/>
     <use xlink:href="#DejaVuSans-20" x="1043.738281"/>
     <use xlink:href="#DejaVuSans-57" x="1075.525391"/>
     <use xlink:href="#DejaVuSans-69" x="1172.152344"/>
     <use xlink:href="#DejaVuSans-64" x="1199.935547"/>
     <use xlink:href="#DejaVuSans-74" x="1263.412109"/>
     <use xlink:href="#DejaVuSans-68" x="1302.621094"/>
     <use xlink:href="#DejaVuSans-20" x="1366"/>
     <use xlink:href="#DejaVuSans-3d" x="1397.787109"/>
     <use xlink:href="#DejaVuSans-20" x="1481.576172"/>
     <use xlink:href="#DejaVuSans-30" x="1513.363281"/>
     <use xlink:href="#DejaVuSans-2e" x="1576.986328"/>
     <use xlink:href="#DejaVuSans-36" x="1608.773438"/>
     <use xlink:href="#DejaVuSans-32" x="1672.396484"/>
     <use xlink:href="#DejaVuSans-20" x="1736.019531"/>
     <use xlink:href="#DejaVuSans-4d" x="1767.806641"/>
     <use xlink:href="#DejaVuSans-48" x="1854.085938"/>
     <use xlink:href="#DejaVuSans-7a" x="1929.28125"/>
    </g>
   </g>
   <g id="legend_1">
    <g id="patch_7">
     <path d="M 97 379.48 
L 152.876563 379.48 
Q 154.876563 379.48 154.876563 377.48 
L 154.876563 349.12375 
Q 154.876563 347.12375 152.876563 347.12375 
L 97 347.12375 
Q 95 347.12375 95 349.12375 
L 95 377.48 
Q 95 379.48 97 379.48 
z
" style="fill: #ffffff; opacity: 0.8; stroke: #cccccc; stroke-linejoin: miter"/>
    </g>
    <g id="line2d_15">
     <path d="M 99 355.222188 
L 109 355.222188 
L 119 355.222188 
" style="fill: none; stroke: #1f77b4; stroke-width: 1.5; stroke-linecap: square"/>
     <g>
      <use xlink:href="#m381931f233" x="109" y="355.222188" style="fill: #1f77b4; stroke: #1f77b4"/>
     </g>
    </g>
    <g id="text_16">
     <!-- Data -->
     <g transform="translate(127 358.722188) scale(0.1 -0.1)">
      <defs>
       <path id="DejaVuSans-44" d="M 1259 4147 
L 1259 519 
L 2022 519 
Q 2988 519 3436 956 
Q 3884 1394 3884 2338 
Q 3884 3275 3436 3711 
Q 2988 4147 2022 4147 
L 1259 4147 
z
M 628 4666 
L 1925 4666 
Q 3281 4666 3915 4102 
Q 4550 3538 4550 2338 
Q 4550 1131 3912 565 
Q 3275 0 1925 0 
L 628 0 
L 628 4666 
z
" transform="scale(0.015625)"/>
      </defs>
      <use xlink:href="#DejaVuSans-44"/>
      <use xlink:href="#DejaVuSans-61" x="77.001953"/>
      <use xlink:href="#DejaVuSans-74" x="138.28125"/>
      <use xlink:href="#DejaVuSans-61" x="177.490234"/>
     </g>
    </g>
    <g id="line2d_16">
     <path d="M 99 369.900312 
L 109 369.900312 
L 119 369.900312 
" style="fill: none; stroke-dasharray: 5.55,2.4; stroke-dashoffset: 0; stroke: #000000; stroke-width: 1.5"/>
    </g>
    <g id="text_17">
     <!-- Fit -->
     <g transform="translate(127 373.400312) scale(0.1 -0.1)">
      <use xlink:href="#DejaVuSans-46"/>
      <use xlink:href="#DejaVuSans-69" x="50.269531"/>
      <use xlink:href="#DejaVuSans-74" x="78.052734"/>
     </g>
    </g>
   </g>
  </g>
 </g>
 <defs>
  <clipPath id="pe7289b02b0">
   <rect x="90" y="51.84" width="558" height="332.64"/>
  </clipPath>
 </defs>
</svg>
