<?xml version="1.0" encoding="utf-8" standalone="no"?>
<!DOCTYPE svg PUBLIC "-//W3C//DTD SVG 1.1//EN"
  "http://www.w3.org/Graphics/SVG/1.1/DTD/svg11.dtd">
<svg xmlns:xlink="http://www.w3.org/1999/xlink" width="720pt" height="432pt" viewBox="0 0 720 432" xmlns="http://www.w3.org/2000/svg" version="1.1">
 <metadata>
  <rdf:RDF xmlns:dc="http://purl.org/dc/elements/1.1/" xmlns:cc="http://creativecommons.org/ns#" xmlns:rdf="http://www.w3.org/1999/02/22-rdf-syntax-ns#">
   <cc:Work>
    <dc:type rdf:resource="http://purl.org/dc/dcmitype/StillImage"/>
    <dc:date>2023-03-30T12:46:14.784480</dc:date>
    <dc:format>image/svg+xml</dc:format>
    <dc:creator>
     <cc:Agent>
      <dc:title>Matplotlib v3.7.0, https://matplotlib.org/</dc:title>
     </cc:Agent>
    </dc:creator>
   </cc:Work>
  </rdf:RDF>
 </metadata>
 <defs>
  <style type="text/css">*{stroke-linejoin: round; stroke-linecap: butt}</style>
 </defs>
 <g id="figure_1">
  <g id="patch_1">
   <path d="M 0 432 
L 720 432 
L 720 0 
L 0 0 
L 0 432 
z
" style="fill: none"/>
  </g>
  <g id="axes_1">
   <g id="patch_2">
    <path d="M 90 384.48 
L 648 384.48 
L 648 51.84 
L 90 51.84 
L 90 384.48 
z
" style="fill: none"/>
   </g>
   <g id="matplotlib.axis_1">
    <g id="xtick_1">
     <g id="line2d_1">
      <defs>
       <path id="ma5784a1235" d="M 0 0 
L 0 3.5 
" style="stroke: #000000; stroke-width: 0.8"/>
      </defs>
      <g>
       <use xlink:href="#ma5784a1235" x="115.363636" y="384.48" style="stroke: #000000; stroke-width: 0.8"/>
      </g>
     </g>
     <g id="text_1">
      <!-- 2765 -->
      <g transform="translate(102.638636 399.078438) scale(0.1 -0.1)">
       <defs>
        <path id="DejaVuSans-32" d="M 1228 531 
L 3431 531 
L 3431 0 
L 469 0 
L 469 531 
Q 828 903 1448 1529 
Q 2069 2156 2228 2338 
Q 2531 2678 2651 2914 
Q 2772 3150 2772 3378 
Q 2772 3750 2511 3984 
Q 2250 4219 1831 4219 
Q 1534 4219 1204 4116 
Q 875 4013 500 3803 
L 500 4441 
Q 881 4594 1212 4672 
Q 1544 4750 1819 4750 
Q 2544 4750 2975 4387 
Q 3406 4025 3406 3419 
Q 3406 3131 3298 2873 
Q 3191 2616 2906 2266 
Q 2828 2175 2409 1742 
Q 1991 1309 1228 531 
z
" transform="scale(0.015625)"/>
        <path id="DejaVuSans-37" d="M 525 4666 
L 3525 4666 
L 3525 4397 
L 1831 0 
L 1172 0 
L 2766 4134 
L 525 4134 
L 525 4666 
z
" transform="scale(0.015625)"/>
        <path id="DejaVuSans-36" d="M 2113 2584 
Q 1688 2584 1439 2293 
Q 1191 2003 1191 1497 
Q 1191 994 1439 701 
Q 1688 409 2113 409 
Q 2538 409 2786 701 
Q 3034 994 3034 1497 
Q 3034 2003 2786 2293 
Q 2538 2584 2113 2584 
z
M 3366 4563 
L 3366 3988 
Q 3128 4100 2886 4159 
Q 2644 4219 2406 4219 
Q 1781 4219 1451 3797 
Q 1122 3375 1075 2522 
Q 1259 2794 1537 2939 
Q 1816 3084 2150 3084 
Q 2853 3084 3261 2657 
Q 3669 2231 3669 1497 
Q 3669 778 3244 343 
Q 2819 -91 2113 -91 
Q 1303 -91 875 529 
Q 447 1150 447 2328 
Q 447 3434 972 4092 
Q 1497 4750 2381 4750 
Q 2619 4750 2861 4703 
Q 3103 4656 3366 4563 
z
" transform="scale(0.015625)"/>
        <path id="DejaVuSans-35" d="M 691 4666 
L 3169 4666 
L 3169 4134 
L 1269 4134 
L 1269 2991 
Q 1406 3038 1543 3061 
Q 1681 3084 1819 3084 
Q 2600 3084 3056 2656 
Q 3513 2228 3513 1497 
Q 3513 744 3044 326 
Q 2575 -91 1722 -91 
Q 1428 -91 1123 -41 
Q 819 9 494 109 
L 494 744 
Q 775 591 1075 516 
Q 1375 441 1709 441 
Q 2250 441 2565 725 
Q 2881 1009 2881 1497 
Q 2881 1984 2565 2268 
Q 2250 2553 1709 2553 
Q 1456 2553 1204 2497 
Q 953 2441 691 2322 
L 691 4666 
z
" transform="scale(0.015625)"/>
       </defs>
       <use xlink:href="#DejaVuSans-32"/>
       <use xlink:href="#DejaVuSans-37" x="63.623047"/>
       <use xlink:href="#DejaVuSans-36" x="127.246094"/>
       <use xlink:href="#DejaVuSans-35" x="190.869141"/>
      </g>
     </g>
    </g>
    <g id="xtick_2">
     <g id="line2d_2">
      <g>
       <use xlink:href="#ma5784a1235" x="187.831169" y="384.48" style="stroke: #000000; stroke-width: 0.8"/>
      </g>
     </g>
     <g id="text_2">
      <!-- 2770 -->
      <g transform="translate(175.106169 399.078438) scale(0.1 -0.1)">
       <defs>
        <path id="DejaVuSans-30" d="M 2034 4250 
Q 1547 4250 1301 3770 
Q 1056 3291 1056 2328 
Q 1056 1369 1301 889 
Q 1547 409 2034 409 
Q 2525 409 2770 889 
Q 3016 1369 3016 2328 
Q 3016 3291 2770 3770 
Q 2525 4250 2034 4250 
z
M 2034 4750 
Q 2819 4750 3233 4129 
Q 3647 3509 3647 2328 
Q 3647 1150 3233 529 
Q 2819 -91 2034 -91 
Q 1250 -91 836 529 
Q 422 1150 422 2328 
Q 422 3509 836 4129 
Q 1250 4750 2034 4750 
z
" transform="scale(0.015625)"/>
       </defs>
       <use xlink:href="#DejaVuSans-32"/>
       <use xlink:href="#DejaVuSans-37" x="63.623047"/>
       <use xlink:href="#DejaVuSans-37" x="127.246094"/>
       <use xlink:href="#DejaVuSans-30" x="190.869141"/>
      </g>
     </g>
    </g>
    <g id="xtick_3">
     <g id="line2d_3">
      <g>
       <use xlink:href="#ma5784a1235" x="260.298701" y="384.48" style="stroke: #000000; stroke-width: 0.8"/>
      </g>
     </g>
     <g id="text_3">
      <!-- 2775 -->
      <g transform="translate(247.573701 399.078438) scale(0.1 -0.1)">
       <use xlink:href="#DejaVuSans-32"/>
       <use xlink:href="#DejaVuSans-37" x="63.623047"/>
       <use xlink:href="#DejaVuSans-37" x="127.246094"/>
       <use xlink:href="#DejaVuSans-35" x="190.869141"/>
      </g>
     </g>
    </g>
    <g id="xtick_4">
     <g id="line2d_4">
      <g>
       <use xlink:href="#ma5784a1235" x="332.766234" y="384.48" style="stroke: #000000; stroke-width: 0.8"/>
      </g>
     </g>
     <g id="text_4">
      <!-- 2780 -->
      <g transform="translate(320.041234 399.078438) scale(0.1 -0.1)">
       <defs>
        <path id="DejaVuSans-38" d="M 2034 2216 
Q 1584 2216 1326 1975 
Q 1069 1734 1069 1313 
Q 1069 891 1326 650 
Q 1584 409 2034 409 
Q 2484 409 2743 651 
Q 3003 894 3003 1313 
Q 3003 1734 2745 1975 
Q 2488 2216 2034 2216 
z
M 1403 2484 
Q 997 2584 770 2862 
Q 544 3141 544 3541 
Q 544 4100 942 4425 
Q 1341 4750 2034 4750 
Q 2731 4750 3128 4425 
Q 3525 4100 3525 3541 
Q 3525 3141 3298 2862 
Q 3072 2584 2669 2484 
Q 3125 2378 3379 2068 
Q 3634 1759 3634 1313 
Q 3634 634 3220 271 
Q 2806 -91 2034 -91 
Q 1263 -91 848 271 
Q 434 634 434 1313 
Q 434 1759 690 2068 
Q 947 2378 1403 2484 
z
M 1172 3481 
Q 1172 3119 1398 2916 
Q 1625 2713 2034 2713 
Q 2441 2713 2670 2916 
Q 2900 3119 2900 3481 
Q 2900 3844 2670 4047 
Q 2441 4250 2034 4250 
Q 1625 4250 1398 4047 
Q 1172 3844 1172 3481 
z
" transform="scale(0.015625)"/>
       </defs>
       <use xlink:href="#DejaVuSans-32"/>
       <use xlink:href="#DejaVuSans-37" x="63.623047"/>
       <use xlink:href="#DejaVuSans-38" x="127.246094"/>
       <use xlink:href="#DejaVuSans-30" x="190.869141"/>
      </g>
     </g>
    </g>
    <g id="xtick_5">
     <g id="line2d_5">
      <g>
       <use xlink:href="#ma5784a1235" x="405.233766" y="384.48" style="stroke: #000000; stroke-width: 0.8"/>
      </g>
     </g>
     <g id="text_5">
      <!-- 2785 -->
      <g transform="translate(392.508766 399.078438) scale(0.1 -0.1)">
       <use xlink:href="#DejaVuSans-32"/>
       <use xlink:href="#DejaVuSans-37" x="63.623047"/>
       <use xlink:href="#DejaVuSans-38" x="127.246094"/>
       <use xlink:href="#DejaVuSans-35" x="190.869141"/>
      </g>
     </g>
    </g>
    <g id="xtick_6">
     <g id="line2d_6">
      <g>
       <use xlink:href="#ma5784a1235" x="477.701299" y="384.48" style="stroke: #000000; stroke-width: 0.8"/>
      </g>
     </g>
     <g id="text_6">
      <!-- 2790 -->
      <g transform="translate(464.976299 399.078438) scale(0.1 -0.1)">
       <defs>
        <path id="DejaVuSans-39" d="M 703 97 
L 703 672 
Q 941 559 1184 500 
Q 1428 441 1663 441 
Q 2288 441 2617 861 
Q 2947 1281 2994 2138 
Q 2813 1869 2534 1725 
Q 2256 1581 1919 1581 
Q 1219 1581 811 2004 
Q 403 2428 403 3163 
Q 403 3881 828 4315 
Q 1253 4750 1959 4750 
Q 2769 4750 3195 4129 
Q 3622 3509 3622 2328 
Q 3622 1225 3098 567 
Q 2575 -91 1691 -91 
Q 1453 -91 1209 -44 
Q 966 3 703 97 
z
M 1959 2075 
Q 2384 2075 2632 2365 
Q 2881 2656 2881 3163 
Q 2881 3666 2632 3958 
Q 2384 4250 1959 4250 
Q 1534 4250 1286 3958 
Q 1038 3666 1038 3163 
Q 1038 2656 1286 2365 
Q 1534 2075 1959 2075 
z
" transform="scale(0.015625)"/>
       </defs>
       <use xlink:href="#DejaVuSans-32"/>
       <use xlink:href="#DejaVuSans-37" x="63.623047"/>
       <use xlink:href="#DejaVuSans-39" x="127.246094"/>
       <use xlink:href="#DejaVuSans-30" x="190.869141"/>
      </g>
     </g>
    </g>
    <g id="xtick_7">
     <g id="line2d_7">
      <g>
       <use xlink:href="#ma5784a1235" x="550.168831" y="384.48" style="stroke: #000000; stroke-width: 0.8"/>
      </g>
     </g>
     <g id="text_7">
      <!-- 2795 -->
      <g transform="translate(537.443831 399.078438) scale(0.1 -0.1)">
       <use xlink:href="#DejaVuSans-32"/>
       <use xlink:href="#DejaVuSans-37" x="63.623047"/>
       <use xlink:href="#DejaVuSans-39" x="127.246094"/>
       <use xlink:href="#DejaVuSans-35" x="190.869141"/>
      </g>
     </g>
    </g>
    <g id="xtick_8">
     <g id="line2d_8">
      <g>
       <use xlink:href="#ma5784a1235" x="622.636364" y="384.48" style="stroke: #000000; stroke-width: 0.8"/>
      </g>
     </g>
     <g id="text_8">
      <!-- 2800 -->
      <g transform="translate(609.911364 399.078438) scale(0.1 -0.1)">
       <use xlink:href="#DejaVuSans-32"/>
       <use xlink:href="#DejaVuSans-38" x="63.623047"/>
       <use xlink:href="#DejaVuSans-30" x="127.246094"/>
       <use xlink:href="#DejaVuSans-30" x="190.869141"/>
      </g>
     </g>
    </g>
    <g id="text_9">
     <!-- frequency [MHz] -->
     <g transform="translate(327.734375 412.756563) scale(0.1 -0.1)">
      <defs>
       <path id="DejaVuSans-66" d="M 2375 4863 
L 2375 4384 
L 1825 4384 
Q 1516 4384 1395 4259 
Q 1275 4134 1275 3809 
L 1275 3500 
L 2222 3500 
L 2222 3053 
L 1275 3053 
L 1275 0 
L 697 0 
L 697 3053 
L 147 3053 
L 147 3500 
L 697 3500 
L 697 3744 
Q 697 4328 969 4595 
Q 1241 4863 1831 4863 
L 2375 4863 
z
" transform="scale(0.015625)"/>
       <path id="DejaVuSans-72" d="M 2631 2963 
Q 2534 3019 2420 3045 
Q 2306 3072 2169 3072 
Q 1681 3072 1420 2755 
Q 1159 2438 1159 1844 
L 1159 0 
L 581 0 
L 581 3500 
L 1159 3500 
L 1159 2956 
Q 1341 3275 1631 3429 
Q 1922 3584 2338 3584 
Q 2397 3584 2469 3576 
Q 2541 3569 2628 3553 
L 2631 2963 
z
" transform="scale(0.015625)"/>
       <path id="DejaVuSans-65" d="M 3597 1894 
L 3597 1613 
L 953 1613 
Q 991 1019 1311 708 
Q 1631 397 2203 397 
Q 2534 397 2845 478 
Q 3156 559 3463 722 
L 3463 178 
Q 3153 47 2828 -22 
Q 2503 -91 2169 -91 
Q 1331 -91 842 396 
Q 353 884 353 1716 
Q 353 2575 817 3079 
Q 1281 3584 2069 3584 
Q 2775 3584 3186 3129 
Q 3597 2675 3597 1894 
z
M 3022 2063 
Q 3016 2534 2758 2815 
Q 2500 3097 2075 3097 
Q 1594 3097 1305 2825 
Q 1016 2553 972 2059 
L 3022 2063 
z
" transform="scale(0.015625)"/>
       <path id="DejaVuSans-71" d="M 947 1747 
Q 947 1113 1208 752 
Q 1469 391 1925 391 
Q 2381 391 2643 752 
Q 2906 1113 2906 1747 
Q 2906 2381 2643 2742 
Q 2381 3103 1925 3103 
Q 1469 3103 1208 2742 
Q 947 2381 947 1747 
z
M 2906 525 
Q 2725 213 2448 61 
Q 2172 -91 1784 -91 
Q 1150 -91 751 415 
Q 353 922 353 1747 
Q 353 2572 751 3078 
Q 1150 3584 1784 3584 
Q 2172 3584 2448 3432 
Q 2725 3281 2906 2969 
L 2906 3500 
L 3481 3500 
L 3481 -1331 
L 2906 -1331 
L 2906 525 
z
" transform="scale(0.015625)"/>
       <path id="DejaVuSans-75" d="M 544 1381 
L 544 3500 
L 1119 3500 
L 1119 1403 
Q 1119 906 1312 657 
Q 1506 409 1894 409 
Q 2359 409 2629 706 
Q 2900 1003 2900 1516 
L 2900 3500 
L 3475 3500 
L 3475 0 
L 2900 0 
L 2900 538 
Q 2691 219 2414 64 
Q 2138 -91 1772 -91 
Q 1169 -91 856 284 
Q 544 659 544 1381 
z
M 1991 3584 
L 1991 3584 
z
" transform="scale(0.015625)"/>
       <path id="DejaVuSans-6e" d="M 3513 2113 
L 3513 0 
L 2938 0 
L 2938 2094 
Q 2938 2591 2744 2837 
Q 2550 3084 2163 3084 
Q 1697 3084 1428 2787 
Q 1159 2491 1159 1978 
L 1159 0 
L 581 0 
L 581 3500 
L 1159 3500 
L 1159 2956 
Q 1366 3272 1645 3428 
Q 1925 3584 2291 3584 
Q 2894 3584 3203 3211 
Q 3513 2838 3513 2113 
z
" transform="scale(0.015625)"/>
       <path id="DejaVuSans-63" d="M 3122 3366 
L 3122 2828 
Q 2878 2963 2633 3030 
Q 2388 3097 2138 3097 
Q 1578 3097 1268 2742 
Q 959 2388 959 1747 
Q 959 1106 1268 751 
Q 1578 397 2138 397 
Q 2388 397 2633 464 
Q 2878 531 3122 666 
L 3122 134 
Q 2881 22 2623 -34 
Q 2366 -91 2075 -91 
Q 1284 -91 818 406 
Q 353 903 353 1747 
Q 353 2603 823 3093 
Q 1294 3584 2113 3584 
Q 2378 3584 2631 3529 
Q 2884 3475 3122 3366 
z
" transform="scale(0.015625)"/>
       <path id="DejaVuSans-79" d="M 2059 -325 
Q 1816 -950 1584 -1140 
Q 1353 -1331 966 -1331 
L 506 -1331 
L 506 -850 
L 844 -850 
Q 1081 -850 1212 -737 
Q 1344 -625 1503 -206 
L 1606 56 
L 191 3500 
L 800 3500 
L 1894 763 
L 2988 3500 
L 3597 3500 
L 2059 -325 
z
" transform="scale(0.015625)"/>
       <path id="DejaVuSans-20" transform="scale(0.015625)"/>
       <path id="DejaVuSans-5b" d="M 550 4863 
L 1875 4863 
L 1875 4416 
L 1125 4416 
L 1125 -397 
L 1875 -397 
L 1875 -844 
L 550 -844 
L 550 4863 
z
" transform="scale(0.015625)"/>
       <path id="DejaVuSans-4d" d="M 628 4666 
L 1569 4666 
L 2759 1491 
L 3956 4666 
L 4897 4666 
L 4897 0 
L 4281 0 
L 4281 4097 
L 3078 897 
L 2444 897 
L 1241 4097 
L 1241 0 
L 628 0 
L 628 4666 
z
" transform="scale(0.015625)"/>
       <path id="DejaVuSans-48" d="M 628 4666 
L 1259 4666 
L 1259 2753 
L 3553 2753 
L 3553 4666 
L 4184 4666 
L 4184 0 
L 3553 0 
L 3553 2222 
L 1259 2222 
L 1259 0 
L 628 0 
L 628 4666 
z
" transform="scale(0.015625)"/>
       <path id="DejaVuSans-7a" d="M 353 3500 
L 3084 3500 
L 3084 2975 
L 922 459 
L 3084 459 
L 3084 0 
L 275 0 
L 275 525 
L 2438 3041 
L 353 3041 
L 353 3500 
z
" transform="scale(0.015625)"/>
       <path id="DejaVuSans-5d" d="M 1947 4863 
L 1947 -844 
L 622 -844 
L 622 -397 
L 1369 -397 
L 1369 4416 
L 622 4416 
L 622 4863 
L 1947 4863 
z
" transform="scale(0.015625)"/>
      </defs>
      <use xlink:href="#DejaVuSans-66"/>
      <use xlink:href="#DejaVuSans-72" x="35.205078"/>
      <use xlink:href="#DejaVuSans-65" x="74.068359"/>
      <use xlink:href="#DejaVuSans-71" x="135.591797"/>
      <use xlink:href="#DejaVuSans-75" x="199.068359"/>
      <use xlink:href="#DejaVuSans-65" x="262.447266"/>
      <use xlink:href="#DejaVuSans-6e" x="323.970703"/>
      <use xlink:href="#DejaVuSans-63" x="387.349609"/>
      <use xlink:href="#DejaVuSans-79" x="442.330078"/>
      <use xlink:href="#DejaVuSans-20" x="501.509766"/>
      <use xlink:href="#DejaVuSans-5b" x="533.296875"/>
      <use xlink:href="#DejaVuSans-4d" x="572.310547"/>
      <use xlink:href="#DejaVuSans-48" x="658.589844"/>
      <use xlink:href="#DejaVuSans-7a" x="733.785156"/>
      <use xlink:href="#DejaVuSans-5d" x="786.275391"/>
     </g>
    </g>
   </g>
   <g id="matplotlib.axis_2">
    <g id="ytick_1">
     <g id="line2d_9">
      <defs>
       <path id="m82af3c18ba" d="M 0 0 
L -3.5 0 
" style="stroke: #000000; stroke-width: 0.8"/>
      </defs>
      <g>
       <use xlink:href="#m82af3c18ba" x="90" y="343.467051" style="stroke: #000000; stroke-width: 0.8"/>
      </g>
     </g>
     <g id="text_10">
      <!-- 0.95 -->
      <g transform="translate(60.734375 347.266269) scale(0.1 -0.1)">
       <defs>
        <path id="DejaVuSans-2e" d="M 684 794 
L 1344 794 
L 1344 0 
L 684 0 
L 684 794 
z
" transform="scale(0.015625)"/>
       </defs>
       <use xlink:href="#DejaVuSans-30"/>
       <use xlink:href="#DejaVuSans-2e" x="63.623047"/>
       <use xlink:href="#DejaVuSans-39" x="95.410156"/>
       <use xlink:href="#DejaVuSans-35" x="159.033203"/>
      </g>
     </g>
    </g>
    <g id="ytick_2">
     <g id="line2d_10">
      <g>
       <use xlink:href="#m82af3c18ba" x="90" y="279.365108" style="stroke: #000000; stroke-width: 0.8"/>
      </g>
     </g>
     <g id="text_11">
      <!-- 0.96 -->
      <g transform="translate(60.734375 283.164327) scale(0.1 -0.1)">
       <use xlink:href="#DejaVuSans-30"/>
       <use xlink:href="#DejaVuSans-2e" x="63.623047"/>
       <use xlink:href="#DejaVuSans-39" x="95.410156"/>
       <use xlink:href="#DejaVuSans-36" x="159.033203"/>
      </g>
     </g>
    </g>
    <g id="ytick_3">
     <g id="line2d_11">
      <g>
       <use xlink:href="#m82af3c18ba" x="90" y="215.263166" style="stroke: #000000; stroke-width: 0.8"/>
      </g>
     </g>
     <g id="text_12">
      <!-- 0.97 -->
      <g transform="translate(60.734375 219.062385) scale(0.1 -0.1)">
       <use xlink:href="#DejaVuSans-30"/>
       <use xlink:href="#DejaVuSans-2e" x="63.623047"/>
       <use xlink:href="#DejaVuSans-39" x="95.410156"/>
       <use xlink:href="#DejaVuSans-37" x="159.033203"/>
      </g>
     </g>
    </g>
    <g id="ytick_4">
     <g id="line2d_12">
      <g>
       <use xlink:href="#m82af3c18ba" x="90" y="151.161224" style="stroke: #000000; stroke-width: 0.8"/>
      </g>
     </g>
     <g id="text_13">
      <!-- 0.98 -->
      <g transform="translate(60.734375 154.960442) scale(0.1 -0.1)">
       <use xlink:href="#DejaVuSans-30"/>
       <use xlink:href="#DejaVuSans-2e" x="63.623047"/>
       <use xlink:href="#DejaVuSans-39" x="95.410156"/>
       <use xlink:href="#DejaVuSans-38" x="159.033203"/>
      </g>
     </g>
    </g>
    <g id="ytick_5">
     <g id="line2d_13">
      <g>
       <use xlink:href="#m82af3c18ba" x="90" y="87.059281" style="stroke: #000000; stroke-width: 0.8"/>
      </g>
     </g>
     <g id="text_14">
      <!-- 0.99 -->
      <g transform="translate(60.734375 90.8585) scale(0.1 -0.1)">
       <use xlink:href="#DejaVuSans-30"/>
       <use xlink:href="#DejaVuSans-2e" x="63.623047"/>
       <use xlink:href="#DejaVuSans-39" x="95.410156"/>
       <use xlink:href="#DejaVuSans-39" x="159.033203"/>
      </g>
     </g>
    </g>
    <g id="text_15">
     <!-- Contrast -->
     <g transform="translate(54.654687 239.524062) rotate(-90) scale(0.1 -0.1)">
      <defs>
       <path id="DejaVuSans-43" d="M 4122 4306 
L 4122 3641 
Q 3803 3938 3442 4084 
Q 3081 4231 2675 4231 
Q 1875 4231 1450 3742 
Q 1025 3253 1025 2328 
Q 1025 1406 1450 917 
Q 1875 428 2675 428 
Q 3081 428 3442 575 
Q 3803 722 4122 1019 
L 4122 359 
Q 3791 134 3420 21 
Q 3050 -91 2638 -91 
Q 1578 -91 968 557 
Q 359 1206 359 2328 
Q 359 3453 968 4101 
Q 1578 4750 2638 4750 
Q 3056 4750 3426 4639 
Q 3797 4528 4122 4306 
z
" transform="scale(0.015625)"/>
       <path id="DejaVuSans-6f" d="M 1959 3097 
Q 1497 3097 1228 2736 
Q 959 2375 959 1747 
Q 959 1119 1226 758 
Q 1494 397 1959 397 
Q 2419 397 2687 759 
Q 2956 1122 2956 1747 
Q 2956 2369 2687 2733 
Q 2419 3097 1959 3097 
z
M 1959 3584 
Q 2709 3584 3137 3096 
Q 3566 2609 3566 1747 
Q 3566 888 3137 398 
Q 2709 -91 1959 -91 
Q 1206 -91 779 398 
Q 353 888 353 1747 
Q 353 2609 779 3096 
Q 1206 3584 1959 3584 
z
" transform="scale(0.015625)"/>
       <path id="DejaVuSans-74" d="M 1172 4494 
L 1172 3500 
L 2356 3500 
L 2356 3053 
L 1172 3053 
L 1172 1153 
Q 1172 725 1289 603 
Q 1406 481 1766 481 
L 2356 481 
L 2356 0 
L 1766 0 
Q 1100 0 847 248 
Q 594 497 594 1153 
L 594 3053 
L 172 3053 
L 172 3500 
L 594 3500 
L 594 4494 
L 1172 4494 
z
" transform="scale(0.015625)"/>
       <path id="DejaVuSans-61" d="M 2194 1759 
Q 1497 1759 1228 1600 
Q 959 1441 959 1056 
Q 959 750 1161 570 
Q 1363 391 1709 391 
Q 2188 391 2477 730 
Q 2766 1069 2766 1631 
L 2766 1759 
L 2194 1759 
z
M 3341 1997 
L 3341 0 
L 2766 0 
L 2766 531 
Q 2569 213 2275 61 
Q 1981 -91 1556 -91 
Q 1019 -91 701 211 
Q 384 513 384 1019 
Q 384 1609 779 1909 
Q 1175 2209 1959 2209 
L 2766 2209 
L 2766 2266 
Q 2766 2663 2505 2880 
Q 2244 3097 1772 3097 
Q 1472 3097 1187 3025 
Q 903 2953 641 2809 
L 641 3341 
Q 956 3463 1253 3523 
Q 1550 3584 1831 3584 
Q 2591 3584 2966 3190 
Q 3341 2797 3341 1997 
z
" transform="scale(0.015625)"/>
       <path id="DejaVuSans-73" d="M 2834 3397 
L 2834 2853 
Q 2591 2978 2328 3040 
Q 2066 3103 1784 3103 
Q 1356 3103 1142 2972 
Q 928 2841 928 2578 
Q 928 2378 1081 2264 
Q 1234 2150 1697 2047 
L 1894 2003 
Q 2506 1872 2764 1633 
Q 3022 1394 3022 966 
Q 3022 478 2636 193 
Q 2250 -91 1575 -91 
Q 1294 -91 989 -36 
Q 684 19 347 128 
L 347 722 
Q 666 556 975 473 
Q 1284 391 1588 391 
Q 1994 391 2212 530 
Q 2431 669 2431 922 
Q 2431 1156 2273 1281 
Q 2116 1406 1581 1522 
L 1381 1569 
Q 847 1681 609 1914 
Q 372 2147 372 2553 
Q 372 3047 722 3315 
Q 1072 3584 1716 3584 
Q 2034 3584 2315 3537 
Q 2597 3491 2834 3397 
z
" transform="scale(0.015625)"/>
      </defs>
      <use xlink:href="#DejaVuSans-43"/>
      <use xlink:href="#DejaVuSans-6f" x="69.824219"/>
      <use xlink:href="#DejaVuSans-6e" x="131.005859"/>
      <use xlink:href="#DejaVuSans-74" x="194.384766"/>
      <use xlink:href="#DejaVuSans-72" x="233.59375"/>
      <use xlink:href="#DejaVuSans-61" x="274.707031"/>
      <use xlink:href="#DejaVuSans-73" x="335.986328"/>
      <use xlink:href="#DejaVuSans-74" x="388.085938"/>
     </g>
    </g>
   </g>
   <g id="line2d_14">
    <path d="M 115.363636 70.8142 
L 116.812987 69.790883 
L 118.262338 66.96 
L 119.711688 84.032301 
L 121.161039 74.514858 
L 122.61039 88.883561 
L 124.05974 71.760131 
L 125.509091 92.238743 
L 126.958442 86.999478 
L 128.407792 86.577914 
L 129.857143 89.902985 
L 131.306494 84.990455 
L 132.755844 90.491478 
L 134.205195 86.008243 
L 135.654545 84.525406 
L 137.103896 85.505207 
L 138.553247 80.682616 
L 140.002597 89.837176 
L 141.451948 79.122515 
L 142.901299 87.052938 
L 144.350649 83.149441 
L 145.8 81.970134 
L 147.249351 95.306797 
L 148.698701 97.123846 
L 150.148052 92.639929 
L 151.597403 91.320051 
L 153.046753 96.829723 
L 154.496104 94.248045 
L 155.945455 88.248613 
L 157.394805 92.744496 
L 158.844156 101.419893 
L 160.293506 94.348701 
L 161.742857 102.34241 
L 163.192208 102.025988 
L 164.641558 110.200965 
L 166.090909 97.64092 
L 167.54026 104.608462 
L 168.98961 94.740752 
L 170.438961 106.269642 
L 171.888312 105.491908 
L 173.337662 115.904257 
L 174.787013 102.94348 
L 176.236364 108.814581 
L 177.685714 105.915713 
L 179.135065 113.514482 
L 180.584416 110.292471 
L 182.033766 106.549492 
L 183.483117 114.838388 
L 184.932468 108.697285 
L 186.381818 119.483548 
L 187.831169 119.586122 
L 189.280519 116.128691 
L 190.72987 120.564882 
L 192.179221 127.739982 
L 193.628571 125.753375 
L 195.077922 117.842573 
L 196.527273 135.326074 
L 197.976623 124.559963 
L 199.425974 124.703452 
L 200.875325 137.052791 
L 202.324675 136.534206 
L 203.774026 129.348461 
L 205.223377 137.110198 
L 206.672727 137.157322 
L 208.122078 134.530543 
L 209.571429 137.576834 
L 211.020779 149.569469 
L 212.47013 141.968263 
L 213.919481 146.850923 
L 215.368831 149.082439 
L 216.818182 148.965402 
L 218.267532 147.108054 
L 219.716883 155.585376 
L 221.166234 141.039035 
L 222.615584 151.700402 
L 224.064935 156.689008 
L 225.514286 158.804314 
L 226.963636 164.161196 
L 228.412987 159.389739 
L 229.862338 174.110206 
L 231.311688 166.064895 
L 232.761039 175.64129 
L 234.21039 176.774417 
L 235.65974 175.893596 
L 237.109091 174.174095 
L 238.558442 174.372806 
L 240.007792 184.620098 
L 241.457143 183.258438 
L 242.906494 184.38694 
L 245.805195 190.718091 
L 247.254545 206.606898 
L 248.703896 197.64479 
L 250.153247 203.459209 
L 251.602597 208.510745 
L 253.051948 216.892407 
L 254.501299 222.818919 
L 255.950649 227.095317 
L 257.4 225.901525 
L 258.849351 238.497926 
L 260.298701 235.663979 
L 261.748052 241.984 
L 263.197403 247.404079 
L 264.646753 239.770583 
L 266.096104 233.870962 
L 267.545455 239.442228 
L 268.994805 250.427486 
L 270.444156 251.417512 
L 271.893506 256.300655 
L 273.342857 257.227602 
L 274.792208 245.817893 
L 276.241558 255.239464 
L 277.690909 275.070076 
L 279.14026 269.294695 
L 280.58961 270.804375 
L 282.038961 282.263041 
L 283.488312 285.067977 
L 284.937662 275.238808 
L 286.387013 289.793551 
L 287.836364 287.689789 
L 289.285714 284.688024 
L 290.735065 297.969488 
L 292.184416 304.808041 
L 293.633766 309.967572 
L 295.083117 307.433743 
L 296.532468 316.662532 
L 297.981818 311.776869 
L 299.431169 315.565892 
L 300.880519 318.884681 
L 302.32987 313.588808 
L 303.779221 328.500515 
L 305.228571 326.32225 
L 306.677922 322.936025 
L 308.127273 331.684322 
L 309.576623 331.898106 
L 311.025974 329.229692 
L 312.475325 337.548327 
L 313.924675 332.059263 
L 315.374026 342.946797 
L 316.823377 330.089632 
L 318.272727 329.295172 
L 319.722078 342.220827 
L 321.171429 338.847561 
L 322.620779 342.51597 
L 324.07013 350.450665 
L 325.519481 350.446419 
L 326.968831 352.91765 
L 328.418182 363.995856 
L 329.867532 354.964992 
L 331.316883 367.295983 
L 332.766234 365.503468 
L 334.215584 353.534554 
L 335.664935 362.757593 
L 337.114286 357.406395 
L 338.563636 365.956232 
L 340.012987 362.476638 
L 341.462338 364.092351 
L 342.911688 361.904389 
L 344.361039 364.018772 
L 345.81039 357.848512 
L 347.25974 361.153693 
L 348.709091 351.035193 
L 350.158442 353.180832 
L 351.607792 359.54663 
L 353.057143 357.859897 
L 354.506494 366.043342 
L 355.955844 359.853312 
L 357.405195 364.768856 
L 358.854545 366.669772 
L 360.303896 364.821258 
L 361.753247 356.422145 
L 363.202597 356.605997 
L 364.651948 358.638321 
L 366.101299 353.595919 
L 367.550649 369.36 
L 369 362.309265 
L 370.449351 352.003137 
L 371.898701 358.293107 
L 373.348052 349.988254 
L 374.797403 345.945123 
L 376.246753 339.336901 
L 377.696104 330.991241 
L 379.145455 319.789007 
L 380.594805 328.11358 
L 382.044156 328.041986 
L 383.493506 327.689377 
L 384.942857 325.000577 
L 386.392208 332.389649 
L 387.841558 334.810371 
L 389.290909 320.80633 
L 390.74026 325.528114 
L 392.18961 324.937713 
L 393.638961 327.107177 
L 395.088312 318.394977 
L 396.537662 319.633331 
L 397.987013 321.629066 
L 399.436364 308.433886 
L 400.885714 311.953659 
L 402.335065 326.337825 
L 403.784416 310.57113 
L 405.233766 315.141932 
L 406.683117 310.772947 
L 408.132468 308.267632 
L 411.031169 291.576537 
L 412.480519 293.517174 
L 413.92987 285.280099 
L 415.379221 287.318707 
L 416.828571 286.117678 
L 418.277922 291.595535 
L 419.727273 277.998381 
L 421.176623 272.080439 
L 422.625974 271.68703 
L 424.075325 264.750391 
L 425.524675 252.67823 
L 426.974026 250.485425 
L 428.423377 255.472218 
L 429.872727 249.053457 
L 431.322078 238.889739 
L 432.771429 248.935037 
L 434.220779 239.213274 
L 435.67013 240.433526 
L 437.119481 238.913884 
L 438.568831 230.578665 
L 440.018182 234.757317 
L 441.467532 224.421924 
L 442.916883 230.170989 
L 444.366234 224.504463 
L 445.815584 226.666448 
L 448.714286 210.472042 
L 450.163636 200.629871 
L 451.612987 204.550428 
L 453.062338 214.588503 
L 454.511688 206.086427 
L 455.961039 202.302499 
L 457.41039 198.988072 
L 458.85974 199.169889 
L 460.309091 191.930127 
L 461.758442 192.117859 
L 463.207792 200.803532 
L 464.657143 193.875831 
L 466.106494 193.876607 
L 467.555844 183.945967 
L 469.005195 185.90415 
L 470.454545 171.73064 
L 471.903896 172.295523 
L 473.353247 182.314187 
L 474.802597 173.832758 
L 476.251948 169.745569 
L 477.701299 166.195469 
L 479.150649 173.827907 
L 480.6 169.080331 
L 482.049351 166.162559 
L 483.498701 170.383878 
L 484.948052 159.73984 
L 486.397403 168.037552 
L 487.846753 168.405754 
L 489.296104 155.716118 
L 490.745455 158.025622 
L 492.194805 150.229943 
L 493.644156 152.297631 
L 495.093506 149.718387 
L 496.542857 155.189248 
L 497.992208 155.94641 
L 499.441558 142.561036 
L 500.890909 147.434482 
L 502.34026 138.429825 
L 503.78961 141.628242 
L 505.238961 148.909267 
L 506.688312 151.295086 
L 508.137662 136.591658 
L 509.587013 133.408558 
L 511.036364 151.054306 
L 512.485714 135.483575 
L 513.935065 141.709114 
L 515.384416 135.554811 
L 516.833766 135.386357 
L 518.283117 133.332165 
L 519.732468 130.21209 
L 521.181818 124.461752 
L 522.631169 123.414194 
L 524.080519 129.478145 
L 525.52987 116.953108 
L 526.979221 124.162676 
L 528.428571 124.145243 
L 529.877922 121.759531 
L 531.327273 117.795803 
L 532.776623 118.5583 
L 534.225974 121.5028 
L 535.675325 116.303839 
L 537.124675 116.263689 
L 538.574026 114.002736 
L 540.023377 117.051933 
L 541.472727 110.454087 
L 542.922078 114.398824 
L 544.371429 121.408877 
L 545.820779 122.423211 
L 547.27013 114.621564 
L 548.719481 110.216439 
L 550.168831 117.957704 
L 551.618182 116.275184 
L 553.067532 119.99654 
L 554.516883 110.775587 
L 555.966234 111.88678 
L 557.415584 115.53884 
L 558.864935 111.810383 
L 560.314286 112.011885 
L 561.763636 116.047699 
L 563.212987 114.394523 
L 564.662338 106.555275 
L 566.111688 110.618509 
L 567.561039 112.201884 
L 569.01039 106.935225 
L 570.45974 107.500445 
L 571.909091 106.20119 
L 573.358442 105.083699 
L 574.807792 104.324233 
L 576.257143 107.762425 
L 577.706494 115.148992 
L 579.155844 106.598186 
L 580.605195 101.381039 
L 582.054545 102.83527 
L 583.503896 92.306186 
L 584.953247 112.59682 
L 586.402597 98.690895 
L 587.851948 105.597975 
L 589.301299 104.143609 
L 590.750649 105.969918 
L 592.2 111.826885 
L 593.649351 100.698913 
L 595.098701 108.446883 
L 596.548052 112.475483 
L 597.997403 99.747656 
L 599.446753 115.039284 
L 600.896104 115.807539 
L 602.345455 109.35032 
L 603.794805 107.772555 
L 605.244156 107.092441 
L 606.693506 104.877572 
L 608.142857 104.158098 
L 609.592208 104.723441 
L 611.041558 102.339774 
L 612.490909 108.400806 
L 613.94026 103.008664 
L 615.38961 102.596303 
L 616.838961 100.110242 
L 618.288312 105.141589 
L 619.737662 103.964718 
L 621.187013 88.085301 
L 622.636364 98.076417 
L 622.636364 98.076417 
" clip-path="url(#p1fa4e05bfa)" style="fill: none; stroke: #1f77b4; stroke-width: 1.5; stroke-linecap: square"/>
    <defs>
     <path id="m56951892c9" d="M 0 3 
C 0.795609 3 1.55874 2.683901 2.12132 2.12132 
C 2.683901 1.55874 3 0.795609 3 0 
C 3 -0.795609 2.683901 -1.55874 2.12132 -2.12132 
C 1.55874 -2.683901 0.795609 -3 0 -3 
C -0.795609 -3 -1.55874 -2.683901 -2.12132 -2.12132 
C -2.683901 -1.55874 -3 -0.795609 -3 0 
C -3 0.795609 -2.683901 1.55874 -2.12132 2.12132 
C -1.55874 2.683901 -0.795609 3 0 3 
z
" style="stroke: #1f77b4"/>
    </defs>
    <g clip-path="url(#p1fa4e05bfa)">
     <use xlink:href="#m56951892c9" x="115.363636" y="70.8142" style="fill: #1f77b4; stroke: #1f77b4"/>
     <use xlink:href="#m56951892c9" x="116.812987" y="69.790883" style="fill: #1f77b4; stroke: #1f77b4"/>
     <use xlink:href="#m56951892c9" x="118.262338" y="66.96" style="fill: #1f77b4; stroke: #1f77b4"/>
     <use xlink:href="#m56951892c9" x="119.711688" y="84.032301" style="fill: #1f77b4; stroke: #1f77b4"/>
     <use xlink:href="#m56951892c9" x="121.161039" y="74.514858" style="fill: #1f77b4; stroke: #1f77b4"/>
     <use xlink:href="#m56951892c9" x="122.61039" y="88.883561" style="fill: #1f77b4; stroke: #1f77b4"/>
     <use xlink:href="#m56951892c9" x="124.05974" y="71.760131" style="fill: #1f77b4; stroke: #1f77b4"/>
     <use xlink:href="#m56951892c9" x="125.509091" y="92.238743" style="fill: #1f77b4; stroke: #1f77b4"/>
     <use xlink:href="#m56951892c9" x="126.958442" y="86.999478" style="fill: #1f77b4; stroke: #1f77b4"/>
     <use xlink:href="#m56951892c9" x="128.407792" y="86.577914" style="fill: #1f77b4; stroke: #1f77b4"/>
     <use xlink:href="#m56951892c9" x="129.857143" y="89.902985" style="fill: #1f77b4; stroke: #1f77b4"/>
     <use xlink:href="#m56951892c9" x="131.306494" y="84.990455" style="fill: #1f77b4; stroke: #1f77b4"/>
     <use xlink:href="#m56951892c9" x="132.755844" y="90.491478" style="fill: #1f77b4; stroke: #1f77b4"/>
     <use xlink:href="#m56951892c9" x="134.205195" y="86.008243" style="fill: #1f77b4; stroke: #1f77b4"/>
     <use xlink:href="#m56951892c9" x="135.654545" y="84.525406" style="fill: #1f77b4; stroke: #1f77b4"/>
     <use xlink:href="#m56951892c9" x="137.103896" y="85.505207" style="fill: #1f77b4; stroke: #1f77b4"/>
     <use xlink:href="#m56951892c9" x="138.553247" y="80.682616" style="fill: #1f77b4; stroke: #1f77b4"/>
     <use xlink:href="#m56951892c9" x="140.002597" y="89.837176" style="fill: #1f77b4; stroke: #1f77b4"/>
     <use xlink:href="#m56951892c9" x="141.451948" y="79.122515" style="fill: #1f77b4; stroke: #1f77b4"/>
     <use xlink:href="#m56951892c9" x="142.901299" y="87.052938" style="fill: #1f77b4; stroke: #1f77b4"/>
     <use xlink:href="#m56951892c9" x="144.350649" y="83.149441" style="fill: #1f77b4; stroke: #1f77b4"/>
     <use xlink:href="#m56951892c9" x="145.8" y="81.970134" style="fill: #1f77b4; stroke: #1f77b4"/>
     <use xlink:href="#m56951892c9" x="147.249351" y="95.306797" style="fill: #1f77b4; stroke: #1f77b4"/>
     <use xlink:href="#m56951892c9" x="148.698701" y="97.123846" style="fill: #1f77b4; stroke: #1f77b4"/>
     <use xlink:href="#m56951892c9" x="150.148052" y="92.639929" style="fill: #1f77b4; stroke: #1f77b4"/>
     <use xlink:href="#m56951892c9" x="151.597403" y="91.320051" style="fill: #1f77b4; stroke: #1f77b4"/>
     <use xlink:href="#m56951892c9" x="153.046753" y="96.829723" style="fill: #1f77b4; stroke: #1f77b4"/>
     <use xlink:href="#m56951892c9" x="154.496104" y="94.248045" style="fill: #1f77b4; stroke: #1f77b4"/>
     <use xlink:href="#m56951892c9" x="155.945455" y="88.248613" style="fill: #1f77b4; stroke: #1f77b4"/>
     <use xlink:href="#m56951892c9" x="157.394805" y="92.744496" style="fill: #1f77b4; stroke: #1f77b4"/>
     <use xlink:href="#m56951892c9" x="158.844156" y="101.419893" style="fill: #1f77b4; stroke: #1f77b4"/>
     <use xlink:href="#m56951892c9" x="160.293506" y="94.348701" style="fill: #1f77b4; stroke: #1f77b4"/>
     <use xlink:href="#m56951892c9" x="161.742857" y="102.34241" style="fill: #1f77b4; stroke: #1f77b4"/>
     <use xlink:href="#m56951892c9" x="163.192208" y="102.025988" style="fill: #1f77b4; stroke: #1f77b4"/>
     <use xlink:href="#m56951892c9" x="164.641558" y="110.200965" style="fill: #1f77b4; stroke: #1f77b4"/>
     <use xlink:href="#m56951892c9" x="166.090909" y="97.64092" style="fill: #1f77b4; stroke: #1f77b4"/>
     <use xlink:href="#m56951892c9" x="167.54026" y="104.608462" style="fill: #1f77b4; stroke: #1f77b4"/>
     <use xlink:href="#m56951892c9" x="168.98961" y="94.740752" style="fill: #1f77b4; stroke: #1f77b4"/>
     <use xlink:href="#m56951892c9" x="170.438961" y="106.269642" style="fill: #1f77b4; stroke: #1f77b4"/>
     <use xlink:href="#m56951892c9" x="171.888312" y="105.491908" style="fill: #1f77b4; stroke: #1f77b4"/>
     <use xlink:href="#m56951892c9" x="173.337662" y="115.904257" style="fill: #1f77b4; stroke: #1f77b4"/>
     <use xlink:href="#m56951892c9" x="174.787013" y="102.94348" style="fill: #1f77b4; stroke: #1f77b4"/>
     <use xlink:href="#m56951892c9" x="176.236364" y="108.814581" style="fill: #1f77b4; stroke: #1f77b4"/>
     <use xlink:href="#m56951892c9" x="177.685714" y="105.915713" style="fill: #1f77b4; stroke: #1f77b4"/>
     <use xlink:href="#m56951892c9" x="179.135065" y="113.514482" style="fill: #1f77b4; stroke: #1f77b4"/>
     <use xlink:href="#m56951892c9" x="180.584416" y="110.292471" style="fill: #1f77b4; stroke: #1f77b4"/>
     <use xlink:href="#m56951892c9" x="182.033766" y="106.549492" style="fill: #1f77b4; stroke: #1f77b4"/>
     <use xlink:href="#m56951892c9" x="183.483117" y="114.838388" style="fill: #1f77b4; stroke: #1f77b4"/>
     <use xlink:href="#m56951892c9" x="184.932468" y="108.697285" style="fill: #1f77b4; stroke: #1f77b4"/>
     <use xlink:href="#m56951892c9" x="186.381818" y="119.483548" style="fill: #1f77b4; stroke: #1f77b4"/>
     <use xlink:href="#m56951892c9" x="187.831169" y="119.586122" style="fill: #1f77b4; stroke: #1f77b4"/>
     <use xlink:href="#m56951892c9" x="189.280519" y="116.128691" style="fill: #1f77b4; stroke: #1f77b4"/>
     <use xlink:href="#m56951892c9" x="190.72987" y="120.564882" style="fill: #1f77b4; stroke: #1f77b4"/>
     <use xlink:href="#m56951892c9" x="192.179221" y="127.739982" style="fill: #1f77b4; stroke: #1f77b4"/>
     <use xlink:href="#m56951892c9" x="193.628571" y="125.753375" style="fill: #1f77b4; stroke: #1f77b4"/>
     <use xlink:href="#m56951892c9" x="195.077922" y="117.842573" style="fill: #1f77b4; stroke: #1f77b4"/>
     <use xlink:href="#m56951892c9" x="196.527273" y="135.326074" style="fill: #1f77b4; stroke: #1f77b4"/>
     <use xlink:href="#m56951892c9" x="197.976623" y="124.559963" style="fill: #1f77b4; stroke: #1f77b4"/>
     <use xlink:href="#m56951892c9" x="199.425974" y="124.703452" style="fill: #1f77b4; stroke: #1f77b4"/>
     <use xlink:href="#m56951892c9" x="200.875325" y="137.052791" style="fill: #1f77b4; stroke: #1f77b4"/>
     <use xlink:href="#m56951892c9" x="202.324675" y="136.534206" style="fill: #1f77b4; stroke: #1f77b4"/>
     <use xlink:href="#m56951892c9" x="203.774026" y="129.348461" style="fill: #1f77b4; stroke: #1f77b4"/>
     <use xlink:href="#m56951892c9" x="205.223377" y="137.110198" style="fill: #1f77b4; stroke: #1f77b4"/>
     <use xlink:href="#m56951892c9" x="206.672727" y="137.157322" style="fill: #1f77b4; stroke: #1f77b4"/>
     <use xlink:href="#m56951892c9" x="208.122078" y="134.530543" style="fill: #1f77b4; stroke: #1f77b4"/>
     <use xlink:href="#m56951892c9" x="209.571429" y="137.576834" style="fill: #1f77b4; stroke: #1f77b4"/>
     <use xlink:href="#m56951892c9" x="211.020779" y="149.569469" style="fill: #1f77b4; stroke: #1f77b4"/>
     <use xlink:href="#m56951892c9" x="212.47013" y="141.968263" style="fill: #1f77b4; stroke: #1f77b4"/>
     <use xlink:href="#m56951892c9" x="213.919481" y="146.850923" style="fill: #1f77b4; stroke: #1f77b4"/>
     <use xlink:href="#m56951892c9" x="215.368831" y="149.082439" style="fill: #1f77b4; stroke: #1f77b4"/>
     <use xlink:href="#m56951892c9" x="216.818182" y="148.965402" style="fill: #1f77b4; stroke: #1f77b4"/>
     <use xlink:href="#m56951892c9" x="218.267532" y="147.108054" style="fill: #1f77b4; stroke: #1f77b4"/>
     <use xlink:href="#m56951892c9" x="219.716883" y="155.585376" style="fill: #1f77b4; stroke: #1f77b4"/>
     <use xlink:href="#m56951892c9" x="221.166234" y="141.039035" style="fill: #1f77b4; stroke: #1f77b4"/>
     <use xlink:href="#m56951892c9" x="222.615584" y="151.700402" style="fill: #1f77b4; stroke: #1f77b4"/>
     <use xlink:href="#m56951892c9" x="224.064935" y="156.689008" style="fill: #1f77b4; stroke: #1f77b4"/>
     <use xlink:href="#m56951892c9" x="225.514286" y="158.804314" style="fill: #1f77b4; stroke: #1f77b4"/>
     <use xlink:href="#m56951892c9" x="226.963636" y="164.161196" style="fill: #1f77b4; stroke: #1f77b4"/>
     <use xlink:href="#m56951892c9" x="228.412987" y="159.389739" style="fill: #1f77b4; stroke: #1f77b4"/>
     <use xlink:href="#m56951892c9" x="229.862338" y="174.110206" style="fill: #1f77b4; stroke: #1f77b4"/>
     <use xlink:href="#m56951892c9" x="231.311688" y="166.064895" style="fill: #1f77b4; stroke: #1f77b4"/>
     <use xlink:href="#m56951892c9" x="232.761039" y="175.64129" style="fill: #1f77b4; stroke: #1f77b4"/>
     <use xlink:href="#m56951892c9" x="234.21039" y="176.774417" style="fill: #1f77b4; stroke: #1f77b4"/>
     <use xlink:href="#m56951892c9" x="235.65974" y="175.893596" style="fill: #1f77b4; stroke: #1f77b4"/>
     <use xlink:href="#m56951892c9" x="237.109091" y="174.174095" style="fill: #1f77b4; stroke: #1f77b4"/>
     <use xlink:href="#m56951892c9" x="238.558442" y="174.372806" style="fill: #1f77b4; stroke: #1f77b4"/>
     <use xlink:href="#m56951892c9" x="240.007792" y="184.620098" style="fill: #1f77b4; stroke: #1f77b4"/>
     <use xlink:href="#m56951892c9" x="241.457143" y="183.258438" style="fill: #1f77b4; stroke: #1f77b4"/>
     <use xlink:href="#m56951892c9" x="242.906494" y="184.38694" style="fill: #1f77b4; stroke: #1f77b4"/>
     <use xlink:href="#m56951892c9" x="244.355844" y="187.539968" style="fill: #1f77b4; stroke: #1f77b4"/>
     <use xlink:href="#m56951892c9" x="245.805195" y="190.718091" style="fill: #1f77b4; stroke: #1f77b4"/>
     <use xlink:href="#m56951892c9" x="247.254545" y="206.606898" style="fill: #1f77b4; stroke: #1f77b4"/>
     <use xlink:href="#m56951892c9" x="248.703896" y="197.64479" style="fill: #1f77b4; stroke: #1f77b4"/>
     <use xlink:href="#m56951892c9" x="250.153247" y="203.459209" style="fill: #1f77b4; stroke: #1f77b4"/>
     <use xlink:href="#m56951892c9" x="251.602597" y="208.510745" style="fill: #1f77b4; stroke: #1f77b4"/>
     <use xlink:href="#m56951892c9" x="253.051948" y="216.892407" style="fill: #1f77b4; stroke: #1f77b4"/>
     <use xlink:href="#m56951892c9" x="254.501299" y="222.818919" style="fill: #1f77b4; stroke: #1f77b4"/>
     <use xlink:href="#m56951892c9" x="255.950649" y="227.095317" style="fill: #1f77b4; stroke: #1f77b4"/>
     <use xlink:href="#m56951892c9" x="257.4" y="225.901525" style="fill: #1f77b4; stroke: #1f77b4"/>
     <use xlink:href="#m56951892c9" x="258.849351" y="238.497926" style="fill: #1f77b4; stroke: #1f77b4"/>
     <use xlink:href="#m56951892c9" x="260.298701" y="235.663979" style="fill: #1f77b4; stroke: #1f77b4"/>
     <use xlink:href="#m56951892c9" x="261.748052" y="241.984" style="fill: #1f77b4; stroke: #1f77b4"/>
     <use xlink:href="#m56951892c9" x="263.197403" y="247.404079" style="fill: #1f77b4; stroke: #1f77b4"/>
     <use xlink:href="#m56951892c9" x="264.646753" y="239.770583" style="fill: #1f77b4; stroke: #1f77b4"/>
     <use xlink:href="#m56951892c9" x="266.096104" y="233.870962" style="fill: #1f77b4; stroke: #1f77b4"/>
     <use xlink:href="#m56951892c9" x="267.545455" y="239.442228" style="fill: #1f77b4; stroke: #1f77b4"/>
     <use xlink:href="#m56951892c9" x="268.994805" y="250.427486" style="fill: #1f77b4; stroke: #1f77b4"/>
     <use xlink:href="#m56951892c9" x="270.444156" y="251.417512" style="fill: #1f77b4; stroke: #1f77b4"/>
     <use xlink:href="#m56951892c9" x="271.893506" y="256.300655" style="fill: #1f77b4; stroke: #1f77b4"/>
     <use xlink:href="#m56951892c9" x="273.342857" y="257.227602" style="fill: #1f77b4; stroke: #1f77b4"/>
     <use xlink:href="#m56951892c9" x="274.792208" y="245.817893" style="fill: #1f77b4; stroke: #1f77b4"/>
     <use xlink:href="#m56951892c9" x="276.241558" y="255.239464" style="fill: #1f77b4; stroke: #1f77b4"/>
     <use xlink:href="#m56951892c9" x="277.690909" y="275.070076" style="fill: #1f77b4; stroke: #1f77b4"/>
     <use xlink:href="#m56951892c9" x="279.14026" y="269.294695" style="fill: #1f77b4; stroke: #1f77b4"/>
     <use xlink:href="#m56951892c9" x="280.58961" y="270.804375" style="fill: #1f77b4; stroke: #1f77b4"/>
     <use xlink:href="#m56951892c9" x="282.038961" y="282.263041" style="fill: #1f77b4; stroke: #1f77b4"/>
     <use xlink:href="#m56951892c9" x="283.488312" y="285.067977" style="fill: #1f77b4; stroke: #1f77b4"/>
     <use xlink:href="#m56951892c9" x="284.937662" y="275.238808" style="fill: #1f77b4; stroke: #1f77b4"/>
     <use xlink:href="#m56951892c9" x="286.387013" y="289.793551" style="fill: #1f77b4; stroke: #1f77b4"/>
     <use xlink:href="#m56951892c9" x="287.836364" y="287.689789" style="fill: #1f77b4; stroke: #1f77b4"/>
     <use xlink:href="#m56951892c9" x="289.285714" y="284.688024" style="fill: #1f77b4; stroke: #1f77b4"/>
     <use xlink:href="#m56951892c9" x="290.735065" y="297.969488" style="fill: #1f77b4; stroke: #1f77b4"/>
     <use xlink:href="#m56951892c9" x="292.184416" y="304.808041" style="fill: #1f77b4; stroke: #1f77b4"/>
     <use xlink:href="#m56951892c9" x="293.633766" y="309.967572" style="fill: #1f77b4; stroke: #1f77b4"/>
     <use xlink:href="#m56951892c9" x="295.083117" y="307.433743" style="fill: #1f77b4; stroke: #1f77b4"/>
     <use xlink:href="#m56951892c9" x="296.532468" y="316.662532" style="fill: #1f77b4; stroke: #1f77b4"/>
     <use xlink:href="#m56951892c9" x="297.981818" y="311.776869" style="fill: #1f77b4; stroke: #1f77b4"/>
     <use xlink:href="#m56951892c9" x="299.431169" y="315.565892" style="fill: #1f77b4; stroke: #1f77b4"/>
     <use xlink:href="#m56951892c9" x="300.880519" y="318.884681" style="fill: #1f77b4; stroke: #1f77b4"/>
     <use xlink:href="#m56951892c9" x="302.32987" y="313.588808" style="fill: #1f77b4; stroke: #1f77b4"/>
     <use xlink:href="#m56951892c9" x="303.779221" y="328.500515" style="fill: #1f77b4; stroke: #1f77b4"/>
     <use xlink:href="#m56951892c9" x="305.228571" y="326.32225" style="fill: #1f77b4; stroke: #1f77b4"/>
     <use xlink:href="#m56951892c9" x="306.677922" y="322.936025" style="fill: #1f77b4; stroke: #1f77b4"/>
     <use xlink:href="#m56951892c9" x="308.127273" y="331.684322" style="fill: #1f77b4; stroke: #1f77b4"/>
     <use xlink:href="#m56951892c9" x="309.576623" y="331.898106" style="fill: #1f77b4; stroke: #1f77b4"/>
     <use xlink:href="#m56951892c9" x="311.025974" y="329.229692" style="fill: #1f77b4; stroke: #1f77b4"/>
     <use xlink:href="#m56951892c9" x="312.475325" y="337.548327" style="fill: #1f77b4; stroke: #1f77b4"/>
     <use xlink:href="#m56951892c9" x="313.924675" y="332.059263" style="fill: #1f77b4; stroke: #1f77b4"/>
     <use xlink:href="#m56951892c9" x="315.374026" y="342.946797" style="fill: #1f77b4; stroke: #1f77b4"/>
     <use xlink:href="#m56951892c9" x="316.823377" y="330.089632" style="fill: #1f77b4; stroke: #1f77b4"/>
     <use xlink:href="#m56951892c9" x="318.272727" y="329.295172" style="fill: #1f77b4; stroke: #1f77b4"/>
     <use xlink:href="#m56951892c9" x="319.722078" y="342.220827" style="fill: #1f77b4; stroke: #1f77b4"/>
     <use xlink:href="#m56951892c9" x="321.171429" y="338.847561" style="fill: #1f77b4; stroke: #1f77b4"/>
     <use xlink:href="#m56951892c9" x="322.620779" y="342.51597" style="fill: #1f77b4; stroke: #1f77b4"/>
     <use xlink:href="#m56951892c9" x="324.07013" y="350.450665" style="fill: #1f77b4; stroke: #1f77b4"/>
     <use xlink:href="#m56951892c9" x="325.519481" y="350.446419" style="fill: #1f77b4; stroke: #1f77b4"/>
     <use xlink:href="#m56951892c9" x="326.968831" y="352.91765" style="fill: #1f77b4; stroke: #1f77b4"/>
     <use xlink:href="#m56951892c9" x="328.418182" y="363.995856" style="fill: #1f77b4; stroke: #1f77b4"/>
     <use xlink:href="#m56951892c9" x="329.867532" y="354.964992" style="fill: #1f77b4; stroke: #1f77b4"/>
     <use xlink:href="#m56951892c9" x="331.316883" y="367.295983" style="fill: #1f77b4; stroke: #1f77b4"/>
     <use xlink:href="#m56951892c9" x="332.766234" y="365.503468" style="fill: #1f77b4; stroke: #1f77b4"/>
     <use xlink:href="#m56951892c9" x="334.215584" y="353.534554" style="fill: #1f77b4; stroke: #1f77b4"/>
     <use xlink:href="#m56951892c9" x="335.664935" y="362.757593" style="fill: #1f77b4; stroke: #1f77b4"/>
     <use xlink:href="#m56951892c9" x="337.114286" y="357.406395" style="fill: #1f77b4; stroke: #1f77b4"/>
     <use xlink:href="#m56951892c9" x="338.563636" y="365.956232" style="fill: #1f77b4; stroke: #1f77b4"/>
     <use xlink:href="#m56951892c9" x="340.012987" y="362.476638" style="fill: #1f77b4; stroke: #1f77b4"/>
     <use xlink:href="#m56951892c9" x="341.462338" y="364.092351" style="fill: #1f77b4; stroke: #1f77b4"/>
     <use xlink:href="#m56951892c9" x="342.911688" y="361.904389" style="fill: #1f77b4; stroke: #1f77b4"/>
     <use xlink:href="#m56951892c9" x="344.361039" y="364.018772" style="fill: #1f77b4; stroke: #1f77b4"/>
     <use xlink:href="#m56951892c9" x="345.81039" y="357.848512" style="fill: #1f77b4; stroke: #1f77b4"/>
     <use xlink:href="#m56951892c9" x="347.25974" y="361.153693" style="fill: #1f77b4; stroke: #1f77b4"/>
     <use xlink:href="#m56951892c9" x="348.709091" y="351.035193" style="fill: #1f77b4; stroke: #1f77b4"/>
     <use xlink:href="#m56951892c9" x="350.158442" y="353.180832" style="fill: #1f77b4; stroke: #1f77b4"/>
     <use xlink:href="#m56951892c9" x="351.607792" y="359.54663" style="fill: #1f77b4; stroke: #1f77b4"/>
     <use xlink:href="#m56951892c9" x="353.057143" y="357.859897" style="fill: #1f77b4; stroke: #1f77b4"/>
     <use xlink:href="#m56951892c9" x="354.506494" y="366.043342" style="fill: #1f77b4; stroke: #1f77b4"/>
     <use xlink:href="#m56951892c9" x="355.955844" y="359.853312" style="fill: #1f77b4; stroke: #1f77b4"/>
     <use xlink:href="#m56951892c9" x="357.405195" y="364.768856" style="fill: #1f77b4; stroke: #1f77b4"/>
     <use xlink:href="#m56951892c9" x="358.854545" y="366.669772" style="fill: #1f77b4; stroke: #1f77b4"/>
     <use xlink:href="#m56951892c9" x="360.303896" y="364.821258" style="fill: #1f77b4; stroke: #1f77b4"/>
     <use xlink:href="#m56951892c9" x="361.753247" y="356.422145" style="fill: #1f77b4; stroke: #1f77b4"/>
     <use xlink:href="#m56951892c9" x="363.202597" y="356.605997" style="fill: #1f77b4; stroke: #1f77b4"/>
     <use xlink:href="#m56951892c9" x="364.651948" y="358.638321" style="fill: #1f77b4; stroke: #1f77b4"/>
     <use xlink:href="#m56951892c9" x="366.101299" y="353.595919" style="fill: #1f77b4; stroke: #1f77b4"/>
     <use xlink:href="#m56951892c9" x="367.550649" y="369.36" style="fill: #1f77b4; stroke: #1f77b4"/>
     <use xlink:href="#m56951892c9" x="369" y="362.309265" style="fill: #1f77b4; stroke: #1f77b4"/>
     <use xlink:href="#m56951892c9" x="370.449351" y="352.003137" style="fill: #1f77b4; stroke: #1f77b4"/>
     <use xlink:href="#m56951892c9" x="371.898701" y="358.293107" style="fill: #1f77b4; stroke: #1f77b4"/>
     <use xlink:href="#m56951892c9" x="373.348052" y="349.988254" style="fill: #1f77b4; stroke: #1f77b4"/>
     <use xlink:href="#m56951892c9" x="374.797403" y="345.945123" style="fill: #1f77b4; stroke: #1f77b4"/>
     <use xlink:href="#m56951892c9" x="376.246753" y="339.336901" style="fill: #1f77b4; stroke: #1f77b4"/>
     <use xlink:href="#m56951892c9" x="377.696104" y="330.991241" style="fill: #1f77b4; stroke: #1f77b4"/>
     <use xlink:href="#m56951892c9" x="379.145455" y="319.789007" style="fill: #1f77b4; stroke: #1f77b4"/>
     <use xlink:href="#m56951892c9" x="380.594805" y="328.11358" style="fill: #1f77b4; stroke: #1f77b4"/>
     <use xlink:href="#m56951892c9" x="382.044156" y="328.041986" style="fill: #1f77b4; stroke: #1f77b4"/>
     <use xlink:href="#m56951892c9" x="383.493506" y="327.689377" style="fill: #1f77b4; stroke: #1f77b4"/>
     <use xlink:href="#m56951892c9" x="384.942857" y="325.000577" style="fill: #1f77b4; stroke: #1f77b4"/>
     <use xlink:href="#m56951892c9" x="386.392208" y="332.389649" style="fill: #1f77b4; stroke: #1f77b4"/>
     <use xlink:href="#m56951892c9" x="387.841558" y="334.810371" style="fill: #1f77b4; stroke: #1f77b4"/>
     <use xlink:href="#m56951892c9" x="389.290909" y="320.80633" style="fill: #1f77b4; stroke: #1f77b4"/>
     <use xlink:href="#m56951892c9" x="390.74026" y="325.528114" style="fill: #1f77b4; stroke: #1f77b4"/>
     <use xlink:href="#m56951892c9" x="392.18961" y="324.937713" style="fill: #1f77b4; stroke: #1f77b4"/>
     <use xlink:href="#m56951892c9" x="393.638961" y="327.107177" style="fill: #1f77b4; stroke: #1f77b4"/>
     <use xlink:href="#m56951892c9" x="395.088312" y="318.394977" style="fill: #1f77b4; stroke: #1f77b4"/>
     <use xlink:href="#m56951892c9" x="396.537662" y="319.633331" style="fill: #1f77b4; stroke: #1f77b4"/>
     <use xlink:href="#m56951892c9" x="397.987013" y="321.629066" style="fill: #1f77b4; stroke: #1f77b4"/>
     <use xlink:href="#m56951892c9" x="399.436364" y="308.433886" style="fill: #1f77b4; stroke: #1f77b4"/>
     <use xlink:href="#m56951892c9" x="400.885714" y="311.953659" style="fill: #1f77b4; stroke: #1f77b4"/>
     <use xlink:href="#m56951892c9" x="402.335065" y="326.337825" style="fill: #1f77b4; stroke: #1f77b4"/>
     <use xlink:href="#m56951892c9" x="403.784416" y="310.57113" style="fill: #1f77b4; stroke: #1f77b4"/>
     <use xlink:href="#m56951892c9" x="405.233766" y="315.141932" style="fill: #1f77b4; stroke: #1f77b4"/>
     <use xlink:href="#m56951892c9" x="406.683117" y="310.772947" style="fill: #1f77b4; stroke: #1f77b4"/>
     <use xlink:href="#m56951892c9" x="408.132468" y="308.267632" style="fill: #1f77b4; stroke: #1f77b4"/>
     <use xlink:href="#m56951892c9" x="409.581818" y="299.829519" style="fill: #1f77b4; stroke: #1f77b4"/>
     <use xlink:href="#m56951892c9" x="411.031169" y="291.576537" style="fill: #1f77b4; stroke: #1f77b4"/>
     <use xlink:href="#m56951892c9" x="412.480519" y="293.517174" style="fill: #1f77b4; stroke: #1f77b4"/>
     <use xlink:href="#m56951892c9" x="413.92987" y="285.280099" style="fill: #1f77b4; stroke: #1f77b4"/>
     <use xlink:href="#m56951892c9" x="415.379221" y="287.318707" style="fill: #1f77b4; stroke: #1f77b4"/>
     <use xlink:href="#m56951892c9" x="416.828571" y="286.117678" style="fill: #1f77b4; stroke: #1f77b4"/>
     <use xlink:href="#m56951892c9" x="418.277922" y="291.595535" style="fill: #1f77b4; stroke: #1f77b4"/>
     <use xlink:href="#m56951892c9" x="419.727273" y="277.998381" style="fill: #1f77b4; stroke: #1f77b4"/>
     <use xlink:href="#m56951892c9" x="421.176623" y="272.080439" style="fill: #1f77b4; stroke: #1f77b4"/>
     <use xlink:href="#m56951892c9" x="422.625974" y="271.68703" style="fill: #1f77b4; stroke: #1f77b4"/>
     <use xlink:href="#m56951892c9" x="424.075325" y="264.750391" style="fill: #1f77b4; stroke: #1f77b4"/>
     <use xlink:href="#m56951892c9" x="425.524675" y="252.67823" style="fill: #1f77b4; stroke: #1f77b4"/>
     <use xlink:href="#m56951892c9" x="426.974026" y="250.485425" style="fill: #1f77b4; stroke: #1f77b4"/>
     <use xlink:href="#m56951892c9" x="428.423377" y="255.472218" style="fill: #1f77b4; stroke: #1f77b4"/>
     <use xlink:href="#m56951892c9" x="429.872727" y="249.053457" style="fill: #1f77b4; stroke: #1f77b4"/>
     <use xlink:href="#m56951892c9" x="431.322078" y="238.889739" style="fill: #1f77b4; stroke: #1f77b4"/>
     <use xlink:href="#m56951892c9" x="432.771429" y="248.935037" style="fill: #1f77b4; stroke: #1f77b4"/>
     <use xlink:href="#m56951892c9" x="434.220779" y="239.213274" style="fill: #1f77b4; stroke: #1f77b4"/>
     <use xlink:href="#m56951892c9" x="435.67013" y="240.433526" style="fill: #1f77b4; stroke: #1f77b4"/>
     <use xlink:href="#m56951892c9" x="437.119481" y="238.913884" style="fill: #1f77b4; stroke: #1f77b4"/>
     <use xlink:href="#m56951892c9" x="438.568831" y="230.578665" style="fill: #1f77b4; stroke: #1f77b4"/>
     <use xlink:href="#m56951892c9" x="440.018182" y="234.757317" style="fill: #1f77b4; stroke: #1f77b4"/>
     <use xlink:href="#m56951892c9" x="441.467532" y="224.421924" style="fill: #1f77b4; stroke: #1f77b4"/>
     <use xlink:href="#m56951892c9" x="442.916883" y="230.170989" style="fill: #1f77b4; stroke: #1f77b4"/>
     <use xlink:href="#m56951892c9" x="444.366234" y="224.504463" style="fill: #1f77b4; stroke: #1f77b4"/>
     <use xlink:href="#m56951892c9" x="445.815584" y="226.666448" style="fill: #1f77b4; stroke: #1f77b4"/>
     <use xlink:href="#m56951892c9" x="447.264935" y="218.543732" style="fill: #1f77b4; stroke: #1f77b4"/>
     <use xlink:href="#m56951892c9" x="448.714286" y="210.472042" style="fill: #1f77b4; stroke: #1f77b4"/>
     <use xlink:href="#m56951892c9" x="450.163636" y="200.629871" style="fill: #1f77b4; stroke: #1f77b4"/>
     <use xlink:href="#m56951892c9" x="451.612987" y="204.550428" style="fill: #1f77b4; stroke: #1f77b4"/>
     <use xlink:href="#m56951892c9" x="453.062338" y="214.588503" style="fill: #1f77b4; stroke: #1f77b4"/>
     <use xlink:href="#m56951892c9" x="454.511688" y="206.086427" style="fill: #1f77b4; stroke: #1f77b4"/>
     <use xlink:href="#m56951892c9" x="455.961039" y="202.302499" style="fill: #1f77b4; stroke: #1f77b4"/>
     <use xlink:href="#m56951892c9" x="457.41039" y="198.988072" style="fill: #1f77b4; stroke: #1f77b4"/>
     <use xlink:href="#m56951892c9" x="458.85974" y="199.169889" style="fill: #1f77b4; stroke: #1f77b4"/>
     <use xlink:href="#m56951892c9" x="460.309091" y="191.930127" style="fill: #1f77b4; stroke: #1f77b4"/>
     <use xlink:href="#m56951892c9" x="461.758442" y="192.117859" style="fill: #1f77b4; stroke: #1f77b4"/>
     <use xlink:href="#m56951892c9" x="463.207792" y="200.803532" style="fill: #1f77b4; stroke: #1f77b4"/>
     <use xlink:href="#m56951892c9" x="464.657143" y="193.875831" style="fill: #1f77b4; stroke: #1f77b4"/>
     <use xlink:href="#m56951892c9" x="466.106494" y="193.876607" style="fill: #1f77b4; stroke: #1f77b4"/>
     <use xlink:href="#m56951892c9" x="467.555844" y="183.945967" style="fill: #1f77b4; stroke: #1f77b4"/>
     <use xlink:href="#m56951892c9" x="469.005195" y="185.90415" style="fill: #1f77b4; stroke: #1f77b4"/>
     <use xlink:href="#m56951892c9" x="470.454545" y="171.73064" style="fill: #1f77b4; stroke: #1f77b4"/>
     <use xlink:href="#m56951892c9" x="471.903896" y="172.295523" style="fill: #1f77b4; stroke: #1f77b4"/>
     <use xlink:href="#m56951892c9" x="473.353247" y="182.314187" style="fill: #1f77b4; stroke: #1f77b4"/>
     <use xlink:href="#m56951892c9" x="474.802597" y="173.832758" style="fill: #1f77b4; stroke: #1f77b4"/>
     <use xlink:href="#m56951892c9" x="476.251948" y="169.745569" style="fill: #1f77b4; stroke: #1f77b4"/>
     <use xlink:href="#m56951892c9" x="477.701299" y="166.195469" style="fill: #1f77b4; stroke: #1f77b4"/>
     <use xlink:href="#m56951892c9" x="479.150649" y="173.827907" style="fill: #1f77b4; stroke: #1f77b4"/>
     <use xlink:href="#m56951892c9" x="480.6" y="169.080331" style="fill: #1f77b4; stroke: #1f77b4"/>
     <use xlink:href="#m56951892c9" x="482.049351" y="166.162559" style="fill: #1f77b4; stroke: #1f77b4"/>
     <use xlink:href="#m56951892c9" x="483.498701" y="170.383878" style="fill: #1f77b4; stroke: #1f77b4"/>
     <use xlink:href="#m56951892c9" x="484.948052" y="159.73984" style="fill: #1f77b4; stroke: #1f77b4"/>
     <use xlink:href="#m56951892c9" x="486.397403" y="168.037552" style="fill: #1f77b4; stroke: #1f77b4"/>
     <use xlink:href="#m56951892c9" x="487.846753" y="168.405754" style="fill: #1f77b4; stroke: #1f77b4"/>
     <use xlink:href="#m56951892c9" x="489.296104" y="155.716118" style="fill: #1f77b4; stroke: #1f77b4"/>
     <use xlink:href="#m56951892c9" x="490.745455" y="158.025622" style="fill: #1f77b4; stroke: #1f77b4"/>
     <use xlink:href="#m56951892c9" x="492.194805" y="150.229943" style="fill: #1f77b4; stroke: #1f77b4"/>
     <use xlink:href="#m56951892c9" x="493.644156" y="152.297631" style="fill: #1f77b4; stroke: #1f77b4"/>
     <use xlink:href="#m56951892c9" x="495.093506" y="149.718387" style="fill: #1f77b4; stroke: #1f77b4"/>
     <use xlink:href="#m56951892c9" x="496.542857" y="155.189248" style="fill: #1f77b4; stroke: #1f77b4"/>
     <use xlink:href="#m56951892c9" x="497.992208" y="155.94641" style="fill: #1f77b4; stroke: #1f77b4"/>
     <use xlink:href="#m56951892c9" x="499.441558" y="142.561036" style="fill: #1f77b4; stroke: #1f77b4"/>
     <use xlink:href="#m56951892c9" x="500.890909" y="147.434482" style="fill: #1f77b4; stroke: #1f77b4"/>
     <use xlink:href="#m56951892c9" x="502.34026" y="138.429825" style="fill: #1f77b4; stroke: #1f77b4"/>
     <use xlink:href="#m56951892c9" x="503.78961" y="141.628242" style="fill: #1f77b4; stroke: #1f77b4"/>
     <use xlink:href="#m56951892c9" x="505.238961" y="148.909267" style="fill: #1f77b4; stroke: #1f77b4"/>
     <use xlink:href="#m56951892c9" x="506.688312" y="151.295086" style="fill: #1f77b4; stroke: #1f77b4"/>
     <use xlink:href="#m56951892c9" x="508.137662" y="136.591658" style="fill: #1f77b4; stroke: #1f77b4"/>
     <use xlink:href="#m56951892c9" x="509.587013" y="133.408558" style="fill: #1f77b4; stroke: #1f77b4"/>
     <use xlink:href="#m56951892c9" x="511.036364" y="151.054306" style="fill: #1f77b4; stroke: #1f77b4"/>
     <use xlink:href="#m56951892c9" x="512.485714" y="135.483575" style="fill: #1f77b4; stroke: #1f77b4"/>
     <use xlink:href="#m56951892c9" x="513.935065" y="141.709114" style="fill: #1f77b4; stroke: #1f77b4"/>
     <use xlink:href="#m56951892c9" x="515.384416" y="135.554811" style="fill: #1f77b4; stroke: #1f77b4"/>
     <use xlink:href="#m56951892c9" x="516.833766" y="135.386357" style="fill: #1f77b4; stroke: #1f77b4"/>
     <use xlink:href="#m56951892c9" x="518.283117" y="133.332165" style="fill: #1f77b4; stroke: #1f77b4"/>
     <use xlink:href="#m56951892c9" x="519.732468" y="130.21209" style="fill: #1f77b4; stroke: #1f77b4"/>
     <use xlink:href="#m56951892c9" x="521.181818" y="124.461752" style="fill: #1f77b4; stroke: #1f77b4"/>
     <use xlink:href="#m56951892c9" x="522.631169" y="123.414194" style="fill: #1f77b4; stroke: #1f77b4"/>
     <use xlink:href="#m56951892c9" x="524.080519" y="129.478145" style="fill: #1f77b4; stroke: #1f77b4"/>
     <use xlink:href="#m56951892c9" x="525.52987" y="116.953108" style="fill: #1f77b4; stroke: #1f77b4"/>
     <use xlink:href="#m56951892c9" x="526.979221" y="124.162676" style="fill: #1f77b4; stroke: #1f77b4"/>
     <use xlink:href="#m56951892c9" x="528.428571" y="124.145243" style="fill: #1f77b4; stroke: #1f77b4"/>
     <use xlink:href="#m56951892c9" x="529.877922" y="121.759531" style="fill: #1f77b4; stroke: #1f77b4"/>
     <use xlink:href="#m56951892c9" x="531.327273" y="117.795803" style="fill: #1f77b4; stroke: #1f77b4"/>
     <use xlink:href="#m56951892c9" x="532.776623" y="118.5583" style="fill: #1f77b4; stroke: #1f77b4"/>
     <use xlink:href="#m56951892c9" x="534.225974" y="121.5028" style="fill: #1f77b4; stroke: #1f77b4"/>
     <use xlink:href="#m56951892c9" x="535.675325" y="116.303839" style="fill: #1f77b4; stroke: #1f77b4"/>
     <use xlink:href="#m56951892c9" x="537.124675" y="116.263689" style="fill: #1f77b4; stroke: #1f77b4"/>
     <use xlink:href="#m56951892c9" x="538.574026" y="114.002736" style="fill: #1f77b4; stroke: #1f77b4"/>
     <use xlink:href="#m56951892c9" x="540.023377" y="117.051933" style="fill: #1f77b4; stroke: #1f77b4"/>
     <use xlink:href="#m56951892c9" x="541.472727" y="110.454087" style="fill: #1f77b4; stroke: #1f77b4"/>
     <use xlink:href="#m56951892c9" x="542.922078" y="114.398824" style="fill: #1f77b4; stroke: #1f77b4"/>
     <use xlink:href="#m56951892c9" x="544.371429" y="121.408877" style="fill: #1f77b4; stroke: #1f77b4"/>
     <use xlink:href="#m56951892c9" x="545.820779" y="122.423211" style="fill: #1f77b4; stroke: #1f77b4"/>
     <use xlink:href="#m56951892c9" x="547.27013" y="114.621564" style="fill: #1f77b4; stroke: #1f77b4"/>
     <use xlink:href="#m56951892c9" x="548.719481" y="110.216439" style="fill: #1f77b4; stroke: #1f77b4"/>
     <use xlink:href="#m56951892c9" x="550.168831" y="117.957704" style="fill: #1f77b4; stroke: #1f77b4"/>
     <use xlink:href="#m56951892c9" x="551.618182" y="116.275184" style="fill: #1f77b4; stroke: #1f77b4"/>
     <use xlink:href="#m56951892c9" x="553.067532" y="119.99654" style="fill: #1f77b4; stroke: #1f77b4"/>
     <use xlink:href="#m56951892c9" x="554.516883" y="110.775587" style="fill: #1f77b4; stroke: #1f77b4"/>
     <use xlink:href="#m56951892c9" x="555.966234" y="111.88678" style="fill: #1f77b4; stroke: #1f77b4"/>
     <use xlink:href="#m56951892c9" x="557.415584" y="115.53884" style="fill: #1f77b4; stroke: #1f77b4"/>
     <use xlink:href="#m56951892c9" x="558.864935" y="111.810383" style="fill: #1f77b4; stroke: #1f77b4"/>
     <use xlink:href="#m56951892c9" x="560.314286" y="112.011885" style="fill: #1f77b4; stroke: #1f77b4"/>
     <use xlink:href="#m56951892c9" x="561.763636" y="116.047699" style="fill: #1f77b4; stroke: #1f77b4"/>
     <use xlink:href="#m56951892c9" x="563.212987" y="114.394523" style="fill: #1f77b4; stroke: #1f77b4"/>
     <use xlink:href="#m56951892c9" x="564.662338" y="106.555275" style="fill: #1f77b4; stroke: #1f77b4"/>
     <use xlink:href="#m56951892c9" x="566.111688" y="110.618509" style="fill: #1f77b4; stroke: #1f77b4"/>
     <use xlink:href="#m56951892c9" x="567.561039" y="112.201884" style="fill: #1f77b4; stroke: #1f77b4"/>
     <use xlink:href="#m56951892c9" x="569.01039" y="106.935225" style="fill: #1f77b4; stroke: #1f77b4"/>
     <use xlink:href="#m56951892c9" x="570.45974" y="107.500445" style="fill: #1f77b4; stroke: #1f77b4"/>
     <use xlink:href="#m56951892c9" x="571.909091" y="106.20119" style="fill: #1f77b4; stroke: #1f77b4"/>
     <use xlink:href="#m56951892c9" x="573.358442" y="105.083699" style="fill: #1f77b4; stroke: #1f77b4"/>
     <use xlink:href="#m56951892c9" x="574.807792" y="104.324233" style="fill: #1f77b4; stroke: #1f77b4"/>
     <use xlink:href="#m56951892c9" x="576.257143" y="107.762425" style="fill: #1f77b4; stroke: #1f77b4"/>
     <use xlink:href="#m56951892c9" x="577.706494" y="115.148992" style="fill: #1f77b4; stroke: #1f77b4"/>
     <use xlink:href="#m56951892c9" x="579.155844" y="106.598186" style="fill: #1f77b4; stroke: #1f77b4"/>
     <use xlink:href="#m56951892c9" x="580.605195" y="101.381039" style="fill: #1f77b4; stroke: #1f77b4"/>
     <use xlink:href="#m56951892c9" x="582.054545" y="102.83527" style="fill: #1f77b4; stroke: #1f77b4"/>
     <use xlink:href="#m56951892c9" x="583.503896" y="92.306186" style="fill: #1f77b4; stroke: #1f77b4"/>
     <use xlink:href="#m56951892c9" x="584.953247" y="112.59682" style="fill: #1f77b4; stroke: #1f77b4"/>
     <use xlink:href="#m56951892c9" x="586.402597" y="98.690895" style="fill: #1f77b4; stroke: #1f77b4"/>
     <use xlink:href="#m56951892c9" x="587.851948" y="105.597975" style="fill: #1f77b4; stroke: #1f77b4"/>
     <use xlink:href="#m56951892c9" x="589.301299" y="104.143609" style="fill: #1f77b4; stroke: #1f77b4"/>
     <use xlink:href="#m56951892c9" x="590.750649" y="105.969918" style="fill: #1f77b4; stroke: #1f77b4"/>
     <use xlink:href="#m56951892c9" x="592.2" y="111.826885" style="fill: #1f77b4; stroke: #1f77b4"/>
     <use xlink:href="#m56951892c9" x="593.649351" y="100.698913" style="fill: #1f77b4; stroke: #1f77b4"/>
     <use xlink:href="#m56951892c9" x="595.098701" y="108.446883" style="fill: #1f77b4; stroke: #1f77b4"/>
     <use xlink:href="#m56951892c9" x="596.548052" y="112.475483" style="fill: #1f77b4; stroke: #1f77b4"/>
     <use xlink:href="#m56951892c9" x="597.997403" y="99.747656" style="fill: #1f77b4; stroke: #1f77b4"/>
     <use xlink:href="#m56951892c9" x="599.446753" y="115.039284" style="fill: #1f77b4; stroke: #1f77b4"/>
     <use xlink:href="#m56951892c9" x="600.896104" y="115.807539" style="fill: #1f77b4; stroke: #1f77b4"/>
     <use xlink:href="#m56951892c9" x="602.345455" y="109.35032" style="fill: #1f77b4; stroke: #1f77b4"/>
     <use xlink:href="#m56951892c9" x="603.794805" y="107.772555" style="fill: #1f77b4; stroke: #1f77b4"/>
     <use xlink:href="#m56951892c9" x="605.244156" y="107.092441" style="fill: #1f77b4; stroke: #1f77b4"/>
     <use xlink:href="#m56951892c9" x="606.693506" y="104.877572" style="fill: #1f77b4; stroke: #1f77b4"/>
     <use xlink:href="#m56951892c9" x="608.142857" y="104.158098" style="fill: #1f77b4; stroke: #1f77b4"/>
     <use xlink:href="#m56951892c9" x="609.592208" y="104.723441" style="fill: #1f77b4; stroke: #1f77b4"/>
     <use xlink:href="#m56951892c9" x="611.041558" y="102.339774" style="fill: #1f77b4; stroke: #1f77b4"/>
     <use xlink:href="#m56951892c9" x="612.490909" y="108.400806" style="fill: #1f77b4; stroke: #1f77b4"/>
     <use xlink:href="#m56951892c9" x="613.94026" y="103.008664" style="fill: #1f77b4; stroke: #1f77b4"/>
     <use xlink:href="#m56951892c9" x="615.38961" y="102.596303" style="fill: #1f77b4; stroke: #1f77b4"/>
     <use xlink:href="#m56951892c9" x="616.838961" y="100.110242" style="fill: #1f77b4; stroke: #1f77b4"/>
     <use xlink:href="#m56951892c9" x="618.288312" y="105.141589" style="fill: #1f77b4; stroke: #1f77b4"/>
     <use xlink:href="#m56951892c9" x="619.737662" y="103.964718" style="fill: #1f77b4; stroke: #1f77b4"/>
     <use xlink:href="#m56951892c9" x="621.187013" y="88.085301" style="fill: #1f77b4; stroke: #1f77b4"/>
     <use xlink:href="#m56951892c9" x="622.636364" y="98.076417" style="fill: #1f77b4; stroke: #1f77b4"/>
    </g>
   </g>
   <g id="line2d_15">
    <path d="M 115.363636 94.32168 
L 124.05974 96.667316 
L 131.306494 98.826887 
L 138.553247 101.19778 
L 145.8 103.807282 
L 153.046753 106.68691 
L 158.844156 109.209424 
L 164.641558 111.949338 
L 170.438961 114.930602 
L 176.236364 118.180159 
L 182.033766 121.728287 
L 187.831169 125.608955 
L 192.179221 128.760388 
L 196.527273 132.137788 
L 200.875325 135.760202 
L 205.223377 139.648131 
L 209.571429 143.823506 
L 213.919481 148.309624 
L 218.267532 153.130981 
L 222.615584 158.313005 
L 226.963636 163.881632 
L 231.311688 169.86269 
L 235.65974 176.281022 
L 240.007792 183.159308 
L 244.355844 190.516505 
L 248.703896 198.365876 
L 253.051948 206.71255 
L 257.4 215.550666 
L 261.748052 224.860162 
L 266.096104 234.603446 
L 271.893506 248.165323 
L 279.14026 265.737459 
L 290.735065 293.899717 
L 295.083117 303.972904 
L 299.431169 313.529653 
L 303.779221 322.423944 
L 306.677922 327.923593 
L 309.576623 333.044157 
L 312.475325 337.762228 
L 315.374026 342.06028 
L 318.272727 345.926185 
L 321.171429 349.352503 
L 324.07013 352.335667 
L 326.968831 354.87522 
L 329.867532 356.97324 
L 332.766234 358.634016 
L 335.664935 359.864045 
L 338.563636 360.672281 
L 341.462338 361.070567 
L 344.361039 361.074116 
L 347.25974 360.701881 
L 350.158442 359.97669 
L 353.057143 358.925015 
L 355.955844 357.576338 
L 358.854545 355.962113 
L 361.753247 354.114376 
L 364.651948 352.064135 
L 369 348.669768 
L 373.348052 344.957869 
L 377.696104 340.972236 
L 382.044156 336.719673 
L 386.392208 332.170561 
L 390.74026 327.265523 
L 395.088312 321.927374 
L 399.436364 316.076527 
L 402.335065 311.857657 
L 405.233766 307.368149 
L 409.581818 300.115675 
L 413.92987 292.256827 
L 418.277922 283.84658 
L 422.625974 274.975988 
L 428.423377 262.637997 
L 445.815584 225.064181 
L 451.612987 213.238973 
L 455.961039 204.789999 
L 460.309091 196.746822 
L 464.657143 189.132639 
L 469.005195 181.957039 
L 473.353247 175.218889 
L 477.701299 168.908993 
L 482.049351 163.012381 
L 486.397403 157.510201 
L 490.745455 152.381222 
L 495.093506 147.602992 
L 499.441558 143.152699 
L 503.78961 139.007788 
L 508.137662 135.146399 
L 512.485714 131.54764 
L 516.833766 128.19177 
L 521.181818 125.060281 
L 526.979221 121.204386 
L 532.776623 117.679488 
L 538.574026 114.451982 
L 544.371429 111.491807 
L 550.168831 108.772142 
L 555.966234 106.269101 
L 563.212987 103.412768 
L 570.45974 100.825428 
L 577.706494 98.475574 
L 584.953247 96.335934 
L 593.649351 94.012775 
L 602.345455 91.923377 
L 612.490909 89.741812 
L 622.636364 87.798516 
L 622.636364 87.798516 
" clip-path="url(#p1fa4e05bfa)" style="fill: none; stroke-dasharray: 5.55,2.4; stroke-dashoffset: 0; stroke: #000000; stroke-width: 1.5"/>
   </g>
   <g id="patch_3">
    <path d="M 90 384.48 
L 90 51.84 
" style="fill: none; stroke: #000000; stroke-width: 0.8; stroke-linejoin: miter; stroke-linecap: square"/>
   </g>
   <g id="patch_4">
    <path d="M 648 384.48 
L 648 51.84 
" style="fill: none; stroke: #000000; stroke-width: 0.8; stroke-linejoin: miter; stroke-linecap: square"/>
   </g>
   <g id="patch_5">
    <path d="M 90 384.48 
L 648 384.48 
" style="fill: none; stroke: #000000; stroke-width: 0.8; stroke-linejoin: miter; stroke-linecap: square"/>
   </g>
   <g id="patch_6">
    <path d="M 90 51.84 
L 648 51.84 
" style="fill: none; stroke: #000000; stroke-width: 0.8; stroke-linejoin: miter; stroke-linecap: square"/>
   </g>
   <g id="text_16">
    <!-- RF Power = -10, Line Width = 4.67 MHz -->
    <g transform="translate(250.095937 45.84) scale(0.12 -0.12)">
     <defs>
      <path id="DejaVuSans-52" d="M 2841 2188 
Q 3044 2119 3236 1894 
Q 3428 1669 3622 1275 
L 4263 0 
L 3584 0 
L 2988 1197 
Q 2756 1666 2539 1819 
Q 2322 1972 1947 1972 
L 1259 1972 
L 1259 0 
L 628 0 
L 628 4666 
L 2053 4666 
Q 2853 4666 3247 4331 
Q 3641 3997 3641 3322 
Q 3641 2881 3436 2590 
Q 3231 2300 2841 2188 
z
M 1259 4147 
L 1259 2491 
L 2053 2491 
Q 2509 2491 2742 2702 
Q 2975 2913 2975 3322 
Q 2975 3731 2742 3939 
Q 2509 4147 2053 4147 
L 1259 4147 
z
" transform="scale(0.015625)"/>
      <path id="DejaVuSans-46" d="M 628 4666 
L 3309 4666 
L 3309 4134 
L 1259 4134 
L 1259 2759 
L 3109 2759 
L 3109 2228 
L 1259 2228 
L 1259 0 
L 628 0 
L 628 4666 
z
" transform="scale(0.015625)"/>
      <path id="DejaVuSans-50" d="M 1259 4147 
L 1259 2394 
L 2053 2394 
Q 2494 2394 2734 2622 
Q 2975 2850 2975 3272 
Q 2975 3691 2734 3919 
Q 2494 4147 2053 4147 
L 1259 4147 
z
M 628 4666 
L 2053 4666 
Q 2838 4666 3239 4311 
Q 3641 3956 3641 3272 
Q 3641 2581 3239 2228 
Q 2838 1875 2053 1875 
L 1259 1875 
L 1259 0 
L 628 0 
L 628 4666 
z
" transform="scale(0.015625)"/>
      <path id="DejaVuSans-77" d="M 269 3500 
L 844 3500 
L 1563 769 
L 2278 3500 
L 2956 3500 
L 3675 769 
L 4391 3500 
L 4966 3500 
L 4050 0 
L 3372 0 
L 2619 2869 
L 1863 0 
L 1184 0 
L 269 3500 
z
" transform="scale(0.015625)"/>
      <path id="DejaVuSans-3d" d="M 678 2906 
L 4684 2906 
L 4684 2381 
L 678 2381 
L 678 2906 
z
M 678 1631 
L 4684 1631 
L 4684 1100 
L 678 1100 
L 678 1631 
z
" transform="scale(0.015625)"/>
      <path id="DejaVuSans-2d" d="M 313 2009 
L 1997 2009 
L 1997 1497 
L 313 1497 
L 313 2009 
z
" transform="scale(0.015625)"/>
      <path id="DejaVuSans-31" d="M 794 531 
L 1825 531 
L 1825 4091 
L 703 3866 
L 703 4441 
L 1819 4666 
L 2450 4666 
L 2450 531 
L 3481 531 
L 3481 0 
L 794 0 
L 794 531 
z
" transform="scale(0.015625)"/>
      <path id="DejaVuSans-2c" d="M 750 794 
L 1409 794 
L 1409 256 
L 897 -744 
L 494 -744 
L 750 256 
L 750 794 
z
" transform="scale(0.015625)"/>
      <path id="DejaVuSans-4c" d="M 628 4666 
L 1259 4666 
L 1259 531 
L 3531 531 
L 3531 0 
L 628 0 
L 628 4666 
z
" transform="scale(0.015625)"/>
      <path id="DejaVuSans-69" d="M 603 3500 
L 1178 3500 
L 1178 0 
L 603 0 
L 603 3500 
z
M 603 4863 
L 1178 4863 
L 1178 4134 
L 603 4134 
L 603 4863 
z
" transform="scale(0.015625)"/>
      <path id="DejaVuSans-57" d="M 213 4666 
L 850 4666 
L 1831 722 
L 2809 4666 
L 3519 4666 
L 4500 722 
L 5478 4666 
L 6119 4666 
L 4947 0 
L 4153 0 
L 3169 4050 
L 2175 0 
L 1381 0 
L 213 4666 
z
" transform="scale(0.015625)"/>
      <path id="DejaVuSans-64" d="M 2906 2969 
L 2906 4863 
L 3481 4863 
L 3481 0 
L 2906 0 
L 2906 525 
Q 2725 213 2448 61 
Q 2172 -91 1784 -91 
Q 1150 -91 751 415 
Q 353 922 353 1747 
Q 353 2572 751 3078 
Q 1150 3584 1784 3584 
Q 2172 3584 2448 3432 
Q 2725 3281 2906 2969 
z
M 947 1747 
Q 947 1113 1208 752 
Q 1469 391 1925 391 
Q 2381 391 2643 752 
Q 2906 1113 2906 1747 
Q 2906 2381 2643 2742 
Q 2381 3103 1925 3103 
Q 1469 3103 1208 2742 
Q 947 2381 947 1747 
z
" transform="scale(0.015625)"/>
      <path id="DejaVuSans-68" d="M 3513 2113 
L 3513 0 
L 2938 0 
L 2938 2094 
Q 2938 2591 2744 2837 
Q 2550 3084 2163 3084 
Q 1697 3084 1428 2787 
Q 1159 2491 1159 1978 
L 1159 0 
L 581 0 
L 581 4863 
L 1159 4863 
L 1159 2956 
Q 1366 3272 1645 3428 
Q 1925 3584 2291 3584 
Q 2894 3584 3203 3211 
Q 3513 2838 3513 2113 
z
" transform="scale(0.015625)"/>
      <path id="DejaVuSans-34" d="M 2419 4116 
L 825 1625 
L 2419 1625 
L 2419 4116 
z
M 2253 4666 
L 3047 4666 
L 3047 1625 
L 3713 1625 
L 3713 1100 
L 3047 1100 
L 3047 0 
L 2419 0 
L 2419 1100 
L 313 1100 
L 313 1709 
L 2253 4666 
z
" transform="scale(0.015625)"/>
     </defs>
     <use xlink:href="#DejaVuSans-52"/>
     <use xlink:href="#DejaVuSans-46" x="69.482422"/>
     <use xlink:href="#DejaVuSans-20" x="127.001953"/>
     <use xlink:href="#DejaVuSans-50" x="158.789062"/>
     <use xlink:href="#DejaVuSans-6f" x="215.466797"/>
     <use xlink:href="#DejaVuSans-77" x="276.648438"/>
     <use xlink:href="#DejaVuSans-65" x="358.435547"/>
     <use xlink:href="#DejaVuSans-72" x="419.958984"/>
     <use xlink:href="#DejaVuSans-20" x="461.072266"/>
     <use xlink:href="#DejaVuSans-3d" x="492.859375"/>
     <use xlink:href="#DejaVuSans-20" x="576.648438"/>
     <use xlink:href="#DejaVuSans-2d" x="608.435547"/>
     <use xlink:href="#DejaVuSans-31" x="644.519531"/>
     <use xlink:href="#DejaVuSans-30" x="708.142578"/>
     <use xlink:href="#DejaVuSans-2c" x="771.765625"/>
     <use xlink:href="#DejaVuSans-20" x="803.552734"/>
     <use xlink:href="#DejaVuSans-4c" x="835.339844"/>
     <use xlink:href="#DejaVuSans-69" x="891.052734"/>
     <use xlink:href="#DejaVuSans-6e" x="918.835938"/>
     <use xlink:href="#DejaVuSans-65" x="982.214844"/>
     <use xlink:href="#DejaVuSans-20" x="1043.738281"/>
     <use xlink:href="#DejaVuSans-57" x="1075.525391"/>
     <use xlink:href="#DejaVuSans-69" x="1172.152344"/>
     <use xlink:href="#DejaVuSans-64" x="1199.935547"/>
     <use xlink:href="#DejaVuSans-74" x="1263.412109"/>
     <use xlink:href="#DejaVuSans-68" x="1302.621094"/>
     <use xlink:href="#DejaVuSans-20" x="1366"/>
     <use xlink:href="#DejaVuSans-3d" x="1397.787109"/>
     <use xlink:href="#DejaVuSans-20" x="1481.576172"/>
     <use xlink:href="#DejaVuSans-34" x="1513.363281"/>
     <use xlink:href="#DejaVuSans-2e" x="1576.986328"/>
     <use xlink:href="#DejaVuSans-36" x="1608.773438"/>
     <use xlink:href="#DejaVuSans-37" x="1672.396484"/>
     <use xlink:href="#DejaVuSans-20" x="1736.019531"/>
     <use xlink:href="#DejaVuSans-4d" x="1767.806641"/>
     <use xlink:href="#DejaVuSans-48" x="1854.085938"/>
     <use xlink:href="#DejaVuSans-7a" x="1929.28125"/>
    </g>
   </g>
   <g id="legend_1">
    <g id="patch_7">
     <path d="M 97 379.48 
L 152.876563 379.48 
Q 154.876563 379.48 154.876563 377.48 
L 154.876563 349.12375 
Q 154.876563 347.12375 152.876563 347.12375 
L 97 347.12375 
Q 95 347.12375 95 349.12375 
L 95 377.48 
Q 95 379.48 97 379.48 
z
" style="fill: #ffffff; opacity: 0.8; stroke: #cccccc; stroke-linejoin: miter"/>
    </g>
    <g id="line2d_16">
     <path d="M 99 355.222188 
L 109 355.222188 
L 119 355.222188 
" style="fill: none; stroke: #1f77b4; stroke-width: 1.5; stroke-linecap: square"/>
     <g>
      <use xlink:href="#m56951892c9" x="109" y="355.222188" style="fill: #1f77b4; stroke: #1f77b4"/>
     </g>
    </g>
    <g id="text_17">
     <!-- Data -->
     <g transform="translate(127 358.722188) scale(0.1 -0.1)">
      <defs>
       <path id="DejaVuSans-44" d="M 1259 4147 
L 1259 519 
L 2022 519 
Q 2988 519 3436 956 
Q 3884 1394 3884 2338 
Q 3884 3275 3436 3711 
Q 2988 4147 2022 4147 
L 1259 4147 
z
M 628 4666 
L 1925 4666 
Q 3281 4666 3915 4102 
Q 4550 3538 4550 2338 
Q 4550 1131 3912 565 
Q 3275 0 1925 0 
L 628 0 
L 628 4666 
z
" transform="scale(0.015625)"/>
      </defs>
      <use xlink:href="#DejaVuSans-44"/>
      <use xlink:href="#DejaVuSans-61" x="77.001953"/>
      <use xlink:href="#DejaVuSans-74" x="138.28125"/>
      <use xlink:href="#DejaVuSans-61" x="177.490234"/>
     </g>
    </g>
    <g id="line2d_17">
     <path d="M 99 369.900312 
L 109 369.900312 
L 119 369.900312 
" style="fill: none; stroke-dasharray: 5.55,2.4; stroke-dashoffset: 0; stroke: #000000; stroke-width: 1.5"/>
    </g>
    <g id="text_18">
     <!-- Fit -->
     <g transform="translate(127 373.400312) scale(0.1 -0.1)">
      <use xlink:href="#DejaVuSans-46"/>
      <use xlink:href="#DejaVuSans-69" x="50.269531"/>
      <use xlink:href="#DejaVuSans-74" x="78.052734"/>
     </g>
    </g>
   </g>
  </g>
 </g>
 <defs>
  <clipPath id="p1fa4e05bfa">
   <rect x="90" y="51.84" width="558" height="332.64"/>
  </clipPath>
 </defs>
</svg>
