<?xml version="1.0" encoding="utf-8" standalone="no"?>
<!DOCTYPE svg PUBLIC "-//W3C//DTD SVG 1.1//EN"
  "http://www.w3.org/Graphics/SVG/1.1/DTD/svg11.dtd">
<svg xmlns:xlink="http://www.w3.org/1999/xlink" width="720pt" height="432pt" viewBox="0 0 720 432" xmlns="http://www.w3.org/2000/svg" version="1.1">
 <metadata>
  <rdf:RDF xmlns:dc="http://purl.org/dc/elements/1.1/" xmlns:cc="http://creativecommons.org/ns#" xmlns:rdf="http://www.w3.org/1999/02/22-rdf-syntax-ns#">
   <cc:Work>
    <dc:type rdf:resource="http://purl.org/dc/dcmitype/StillImage"/>
    <dc:date>2023-03-30T12:46:15.403242</dc:date>
    <dc:format>image/svg+xml</dc:format>
    <dc:creator>
     <cc:Agent>
      <dc:title>Matplotlib v3.7.0, https://matplotlib.org/</dc:title>
     </cc:Agent>
    </dc:creator>
   </cc:Work>
  </rdf:RDF>
 </metadata>
 <defs>
  <style type="text/css">*{stroke-linejoin: round; stroke-linecap: butt}</style>
 </defs>
 <g id="figure_1">
  <g id="patch_1">
   <path d="M 0 432 
L 720 432 
L 720 0 
L 0 0 
L 0 432 
z
" style="fill: none"/>
  </g>
  <g id="axes_1">
   <g id="patch_2">
    <path d="M 90 384.48 
L 648 384.48 
L 648 51.84 
L 90 51.84 
L 90 384.48 
z
" style="fill: none"/>
   </g>
   <g id="matplotlib.axis_1">
    <g id="xtick_1">
     <g id="line2d_1">
      <defs>
       <path id="m623f2f6c3b" d="M 0 0 
L 0 3.5 
" style="stroke: #000000; stroke-width: 0.8"/>
      </defs>
      <g>
       <use xlink:href="#m623f2f6c3b" x="115.363636" y="384.48" style="stroke: #000000; stroke-width: 0.8"/>
      </g>
     </g>
     <g id="text_1">
      <!-- 2765 -->
      <g transform="translate(102.638636 399.078438) scale(0.1 -0.1)">
       <defs>
        <path id="DejaVuSans-32" d="M 1228 531 
L 3431 531 
L 3431 0 
L 469 0 
L 469 531 
Q 828 903 1448 1529 
Q 2069 2156 2228 2338 
Q 2531 2678 2651 2914 
Q 2772 3150 2772 3378 
Q 2772 3750 2511 3984 
Q 2250 4219 1831 4219 
Q 1534 4219 1204 4116 
Q 875 4013 500 3803 
L 500 4441 
Q 881 4594 1212 4672 
Q 1544 4750 1819 4750 
Q 2544 4750 2975 4387 
Q 3406 4025 3406 3419 
Q 3406 3131 3298 2873 
Q 3191 2616 2906 2266 
Q 2828 2175 2409 1742 
Q 1991 1309 1228 531 
z
" transform="scale(0.015625)"/>
        <path id="DejaVuSans-37" d="M 525 4666 
L 3525 4666 
L 3525 4397 
L 1831 0 
L 1172 0 
L 2766 4134 
L 525 4134 
L 525 4666 
z
" transform="scale(0.015625)"/>
        <path id="DejaVuSans-36" d="M 2113 2584 
Q 1688 2584 1439 2293 
Q 1191 2003 1191 1497 
Q 1191 994 1439 701 
Q 1688 409 2113 409 
Q 2538 409 2786 701 
Q 3034 994 3034 1497 
Q 3034 2003 2786 2293 
Q 2538 2584 2113 2584 
z
M 3366 4563 
L 3366 3988 
Q 3128 4100 2886 4159 
Q 2644 4219 2406 4219 
Q 1781 4219 1451 3797 
Q 1122 3375 1075 2522 
Q 1259 2794 1537 2939 
Q 1816 3084 2150 3084 
Q 2853 3084 3261 2657 
Q 3669 2231 3669 1497 
Q 3669 778 3244 343 
Q 2819 -91 2113 -91 
Q 1303 -91 875 529 
Q 447 1150 447 2328 
Q 447 3434 972 4092 
Q 1497 4750 2381 4750 
Q 2619 4750 2861 4703 
Q 3103 4656 3366 4563 
z
" transform="scale(0.015625)"/>
        <path id="DejaVuSans-35" d="M 691 4666 
L 3169 4666 
L 3169 4134 
L 1269 4134 
L 1269 2991 
Q 1406 3038 1543 3061 
Q 1681 3084 1819 3084 
Q 2600 3084 3056 2656 
Q 3513 2228 3513 1497 
Q 3513 744 3044 326 
Q 2575 -91 1722 -91 
Q 1428 -91 1123 -41 
Q 819 9 494 109 
L 494 744 
Q 775 591 1075 516 
Q 1375 441 1709 441 
Q 2250 441 2565 725 
Q 2881 1009 2881 1497 
Q 2881 1984 2565 2268 
Q 2250 2553 1709 2553 
Q 1456 2553 1204 2497 
Q 953 2441 691 2322 
L 691 4666 
z
" transform="scale(0.015625)"/>
       </defs>
       <use xlink:href="#DejaVuSans-32"/>
       <use xlink:href="#DejaVuSans-37" x="63.623047"/>
       <use xlink:href="#DejaVuSans-36" x="127.246094"/>
       <use xlink:href="#DejaVuSans-35" x="190.869141"/>
      </g>
     </g>
    </g>
    <g id="xtick_2">
     <g id="line2d_2">
      <g>
       <use xlink:href="#m623f2f6c3b" x="187.831169" y="384.48" style="stroke: #000000; stroke-width: 0.8"/>
      </g>
     </g>
     <g id="text_2">
      <!-- 2770 -->
      <g transform="translate(175.106169 399.078438) scale(0.1 -0.1)">
       <defs>
        <path id="DejaVuSans-30" d="M 2034 4250 
Q 1547 4250 1301 3770 
Q 1056 3291 1056 2328 
Q 1056 1369 1301 889 
Q 1547 409 2034 409 
Q 2525 409 2770 889 
Q 3016 1369 3016 2328 
Q 3016 3291 2770 3770 
Q 2525 4250 2034 4250 
z
M 2034 4750 
Q 2819 4750 3233 4129 
Q 3647 3509 3647 2328 
Q 3647 1150 3233 529 
Q 2819 -91 2034 -91 
Q 1250 -91 836 529 
Q 422 1150 422 2328 
Q 422 3509 836 4129 
Q 1250 4750 2034 4750 
z
" transform="scale(0.015625)"/>
       </defs>
       <use xlink:href="#DejaVuSans-32"/>
       <use xlink:href="#DejaVuSans-37" x="63.623047"/>
       <use xlink:href="#DejaVuSans-37" x="127.246094"/>
       <use xlink:href="#DejaVuSans-30" x="190.869141"/>
      </g>
     </g>
    </g>
    <g id="xtick_3">
     <g id="line2d_3">
      <g>
       <use xlink:href="#m623f2f6c3b" x="260.298701" y="384.48" style="stroke: #000000; stroke-width: 0.8"/>
      </g>
     </g>
     <g id="text_3">
      <!-- 2775 -->
      <g transform="translate(247.573701 399.078438) scale(0.1 -0.1)">
       <use xlink:href="#DejaVuSans-32"/>
       <use xlink:href="#DejaVuSans-37" x="63.623047"/>
       <use xlink:href="#DejaVuSans-37" x="127.246094"/>
       <use xlink:href="#DejaVuSans-35" x="190.869141"/>
      </g>
     </g>
    </g>
    <g id="xtick_4">
     <g id="line2d_4">
      <g>
       <use xlink:href="#m623f2f6c3b" x="332.766234" y="384.48" style="stroke: #000000; stroke-width: 0.8"/>
      </g>
     </g>
     <g id="text_4">
      <!-- 2780 -->
      <g transform="translate(320.041234 399.078438) scale(0.1 -0.1)">
       <defs>
        <path id="DejaVuSans-38" d="M 2034 2216 
Q 1584 2216 1326 1975 
Q 1069 1734 1069 1313 
Q 1069 891 1326 650 
Q 1584 409 2034 409 
Q 2484 409 2743 651 
Q 3003 894 3003 1313 
Q 3003 1734 2745 1975 
Q 2488 2216 2034 2216 
z
M 1403 2484 
Q 997 2584 770 2862 
Q 544 3141 544 3541 
Q 544 4100 942 4425 
Q 1341 4750 2034 4750 
Q 2731 4750 3128 4425 
Q 3525 4100 3525 3541 
Q 3525 3141 3298 2862 
Q 3072 2584 2669 2484 
Q 3125 2378 3379 2068 
Q 3634 1759 3634 1313 
Q 3634 634 3220 271 
Q 2806 -91 2034 -91 
Q 1263 -91 848 271 
Q 434 634 434 1313 
Q 434 1759 690 2068 
Q 947 2378 1403 2484 
z
M 1172 3481 
Q 1172 3119 1398 2916 
Q 1625 2713 2034 2713 
Q 2441 2713 2670 2916 
Q 2900 3119 2900 3481 
Q 2900 3844 2670 4047 
Q 2441 4250 2034 4250 
Q 1625 4250 1398 4047 
Q 1172 3844 1172 3481 
z
" transform="scale(0.015625)"/>
       </defs>
       <use xlink:href="#DejaVuSans-32"/>
       <use xlink:href="#DejaVuSans-37" x="63.623047"/>
       <use xlink:href="#DejaVuSans-38" x="127.246094"/>
       <use xlink:href="#DejaVuSans-30" x="190.869141"/>
      </g>
     </g>
    </g>
    <g id="xtick_5">
     <g id="line2d_5">
      <g>
       <use xlink:href="#m623f2f6c3b" x="405.233766" y="384.48" style="stroke: #000000; stroke-width: 0.8"/>
      </g>
     </g>
     <g id="text_5">
      <!-- 2785 -->
      <g transform="translate(392.508766 399.078438) scale(0.1 -0.1)">
       <use xlink:href="#DejaVuSans-32"/>
       <use xlink:href="#DejaVuSans-37" x="63.623047"/>
       <use xlink:href="#DejaVuSans-38" x="127.246094"/>
       <use xlink:href="#DejaVuSans-35" x="190.869141"/>
      </g>
     </g>
    </g>
    <g id="xtick_6">
     <g id="line2d_6">
      <g>
       <use xlink:href="#m623f2f6c3b" x="477.701299" y="384.48" style="stroke: #000000; stroke-width: 0.8"/>
      </g>
     </g>
     <g id="text_6">
      <!-- 2790 -->
      <g transform="translate(464.976299 399.078438) scale(0.1 -0.1)">
       <defs>
        <path id="DejaVuSans-39" d="M 703 97 
L 703 672 
Q 941 559 1184 500 
Q 1428 441 1663 441 
Q 2288 441 2617 861 
Q 2947 1281 2994 2138 
Q 2813 1869 2534 1725 
Q 2256 1581 1919 1581 
Q 1219 1581 811 2004 
Q 403 2428 403 3163 
Q 403 3881 828 4315 
Q 1253 4750 1959 4750 
Q 2769 4750 3195 4129 
Q 3622 3509 3622 2328 
Q 3622 1225 3098 567 
Q 2575 -91 1691 -91 
Q 1453 -91 1209 -44 
Q 966 3 703 97 
z
M 1959 2075 
Q 2384 2075 2632 2365 
Q 2881 2656 2881 3163 
Q 2881 3666 2632 3958 
Q 2384 4250 1959 4250 
Q 1534 4250 1286 3958 
Q 1038 3666 1038 3163 
Q 1038 2656 1286 2365 
Q 1534 2075 1959 2075 
z
" transform="scale(0.015625)"/>
       </defs>
       <use xlink:href="#DejaVuSans-32"/>
       <use xlink:href="#DejaVuSans-37" x="63.623047"/>
       <use xlink:href="#DejaVuSans-39" x="127.246094"/>
       <use xlink:href="#DejaVuSans-30" x="190.869141"/>
      </g>
     </g>
    </g>
    <g id="xtick_7">
     <g id="line2d_7">
      <g>
       <use xlink:href="#m623f2f6c3b" x="550.168831" y="384.48" style="stroke: #000000; stroke-width: 0.8"/>
      </g>
     </g>
     <g id="text_7">
      <!-- 2795 -->
      <g transform="translate(537.443831 399.078438) scale(0.1 -0.1)">
       <use xlink:href="#DejaVuSans-32"/>
       <use xlink:href="#DejaVuSans-37" x="63.623047"/>
       <use xlink:href="#DejaVuSans-39" x="127.246094"/>
       <use xlink:href="#DejaVuSans-35" x="190.869141"/>
      </g>
     </g>
    </g>
    <g id="xtick_8">
     <g id="line2d_8">
      <g>
       <use xlink:href="#m623f2f6c3b" x="622.636364" y="384.48" style="stroke: #000000; stroke-width: 0.8"/>
      </g>
     </g>
     <g id="text_8">
      <!-- 2800 -->
      <g transform="translate(609.911364 399.078438) scale(0.1 -0.1)">
       <use xlink:href="#DejaVuSans-32"/>
       <use xlink:href="#DejaVuSans-38" x="63.623047"/>
       <use xlink:href="#DejaVuSans-30" x="127.246094"/>
       <use xlink:href="#DejaVuSans-30" x="190.869141"/>
      </g>
     </g>
    </g>
    <g id="text_9">
     <!-- frequency [MHz] -->
     <g transform="translate(327.734375 412.756563) scale(0.1 -0.1)">
      <defs>
       <path id="DejaVuSans-66" d="M 2375 4863 
L 2375 4384 
L 1825 4384 
Q 1516 4384 1395 4259 
Q 1275 4134 1275 3809 
L 1275 3500 
L 2222 3500 
L 2222 3053 
L 1275 3053 
L 1275 0 
L 697 0 
L 697 3053 
L 147 3053 
L 147 3500 
L 697 3500 
L 697 3744 
Q 697 4328 969 4595 
Q 1241 4863 1831 4863 
L 2375 4863 
z
" transform="scale(0.015625)"/>
       <path id="DejaVuSans-72" d="M 2631 2963 
Q 2534 3019 2420 3045 
Q 2306 3072 2169 3072 
Q 1681 3072 1420 2755 
Q 1159 2438 1159 1844 
L 1159 0 
L 581 0 
L 581 3500 
L 1159 3500 
L 1159 2956 
Q 1341 3275 1631 3429 
Q 1922 3584 2338 3584 
Q 2397 3584 2469 3576 
Q 2541 3569 2628 3553 
L 2631 2963 
z
" transform="scale(0.015625)"/>
       <path id="DejaVuSans-65" d="M 3597 1894 
L 3597 1613 
L 953 1613 
Q 991 1019 1311 708 
Q 1631 397 2203 397 
Q 2534 397 2845 478 
Q 3156 559 3463 722 
L 3463 178 
Q 3153 47 2828 -22 
Q 2503 -91 2169 -91 
Q 1331 -91 842 396 
Q 353 884 353 1716 
Q 353 2575 817 3079 
Q 1281 3584 2069 3584 
Q 2775 3584 3186 3129 
Q 3597 2675 3597 1894 
z
M 3022 2063 
Q 3016 2534 2758 2815 
Q 2500 3097 2075 3097 
Q 1594 3097 1305 2825 
Q 1016 2553 972 2059 
L 3022 2063 
z
" transform="scale(0.015625)"/>
       <path id="DejaVuSans-71" d="M 947 1747 
Q 947 1113 1208 752 
Q 1469 391 1925 391 
Q 2381 391 2643 752 
Q 2906 1113 2906 1747 
Q 2906 2381 2643 2742 
Q 2381 3103 1925 3103 
Q 1469 3103 1208 2742 
Q 947 2381 947 1747 
z
M 2906 525 
Q 2725 213 2448 61 
Q 2172 -91 1784 -91 
Q 1150 -91 751 415 
Q 353 922 353 1747 
Q 353 2572 751 3078 
Q 1150 3584 1784 3584 
Q 2172 3584 2448 3432 
Q 2725 3281 2906 2969 
L 2906 3500 
L 3481 3500 
L 3481 -1331 
L 2906 -1331 
L 2906 525 
z
" transform="scale(0.015625)"/>
       <path id="DejaVuSans-75" d="M 544 1381 
L 544 3500 
L 1119 3500 
L 1119 1403 
Q 1119 906 1312 657 
Q 1506 409 1894 409 
Q 2359 409 2629 706 
Q 2900 1003 2900 1516 
L 2900 3500 
L 3475 3500 
L 3475 0 
L 2900 0 
L 2900 538 
Q 2691 219 2414 64 
Q 2138 -91 1772 -91 
Q 1169 -91 856 284 
Q 544 659 544 1381 
z
M 1991 3584 
L 1991 3584 
z
" transform="scale(0.015625)"/>
       <path id="DejaVuSans-6e" d="M 3513 2113 
L 3513 0 
L 2938 0 
L 2938 2094 
Q 2938 2591 2744 2837 
Q 2550 3084 2163 3084 
Q 1697 3084 1428 2787 
Q 1159 2491 1159 1978 
L 1159 0 
L 581 0 
L 581 3500 
L 1159 3500 
L 1159 2956 
Q 1366 3272 1645 3428 
Q 1925 3584 2291 3584 
Q 2894 3584 3203 3211 
Q 3513 2838 3513 2113 
z
" transform="scale(0.015625)"/>
       <path id="DejaVuSans-63" d="M 3122 3366 
L 3122 2828 
Q 2878 2963 2633 3030 
Q 2388 3097 2138 3097 
Q 1578 3097 1268 2742 
Q 959 2388 959 1747 
Q 959 1106 1268 751 
Q 1578 397 2138 397 
Q 2388 397 2633 464 
Q 2878 531 3122 666 
L 3122 134 
Q 2881 22 2623 -34 
Q 2366 -91 2075 -91 
Q 1284 -91 818 406 
Q 353 903 353 1747 
Q 353 2603 823 3093 
Q 1294 3584 2113 3584 
Q 2378 3584 2631 3529 
Q 2884 3475 3122 3366 
z
" transform="scale(0.015625)"/>
       <path id="DejaVuSans-79" d="M 2059 -325 
Q 1816 -950 1584 -1140 
Q 1353 -1331 966 -1331 
L 506 -1331 
L 506 -850 
L 844 -850 
Q 1081 -850 1212 -737 
Q 1344 -625 1503 -206 
L 1606 56 
L 191 3500 
L 800 3500 
L 1894 763 
L 2988 3500 
L 3597 3500 
L 2059 -325 
z
" transform="scale(0.015625)"/>
       <path id="DejaVuSans-20" transform="scale(0.015625)"/>
       <path id="DejaVuSans-5b" d="M 550 4863 
L 1875 4863 
L 1875 4416 
L 1125 4416 
L 1125 -397 
L 1875 -397 
L 1875 -844 
L 550 -844 
L 550 4863 
z
" transform="scale(0.015625)"/>
       <path id="DejaVuSans-4d" d="M 628 4666 
L 1569 4666 
L 2759 1491 
L 3956 4666 
L 4897 4666 
L 4897 0 
L 4281 0 
L 4281 4097 
L 3078 897 
L 2444 897 
L 1241 4097 
L 1241 0 
L 628 0 
L 628 4666 
z
" transform="scale(0.015625)"/>
       <path id="DejaVuSans-48" d="M 628 4666 
L 1259 4666 
L 1259 2753 
L 3553 2753 
L 3553 4666 
L 4184 4666 
L 4184 0 
L 3553 0 
L 3553 2222 
L 1259 2222 
L 1259 0 
L 628 0 
L 628 4666 
z
" transform="scale(0.015625)"/>
       <path id="DejaVuSans-7a" d="M 353 3500 
L 3084 3500 
L 3084 2975 
L 922 459 
L 3084 459 
L 3084 0 
L 275 0 
L 275 525 
L 2438 3041 
L 353 3041 
L 353 3500 
z
" transform="scale(0.015625)"/>
       <path id="DejaVuSans-5d" d="M 1947 4863 
L 1947 -844 
L 622 -844 
L 622 -397 
L 1369 -397 
L 1369 4416 
L 622 4416 
L 622 4863 
L 1947 4863 
z
" transform="scale(0.015625)"/>
      </defs>
      <use xlink:href="#DejaVuSans-66"/>
      <use xlink:href="#DejaVuSans-72" x="35.205078"/>
      <use xlink:href="#DejaVuSans-65" x="74.068359"/>
      <use xlink:href="#DejaVuSans-71" x="135.591797"/>
      <use xlink:href="#DejaVuSans-75" x="199.068359"/>
      <use xlink:href="#DejaVuSans-65" x="262.447266"/>
      <use xlink:href="#DejaVuSans-6e" x="323.970703"/>
      <use xlink:href="#DejaVuSans-63" x="387.349609"/>
      <use xlink:href="#DejaVuSans-79" x="442.330078"/>
      <use xlink:href="#DejaVuSans-20" x="501.509766"/>
      <use xlink:href="#DejaVuSans-5b" x="533.296875"/>
      <use xlink:href="#DejaVuSans-4d" x="572.310547"/>
      <use xlink:href="#DejaVuSans-48" x="658.589844"/>
      <use xlink:href="#DejaVuSans-7a" x="733.785156"/>
      <use xlink:href="#DejaVuSans-5d" x="786.275391"/>
     </g>
    </g>
   </g>
   <g id="matplotlib.axis_2">
    <g id="ytick_1">
     <g id="line2d_9">
      <defs>
       <path id="m35998c9297" d="M 0 0 
L -3.5 0 
" style="stroke: #000000; stroke-width: 0.8"/>
      </defs>
      <g>
       <use xlink:href="#m35998c9297" x="90" y="372.893756" style="stroke: #000000; stroke-width: 0.8"/>
      </g>
     </g>
     <g id="text_10">
      <!-- 0.980 -->
      <g transform="translate(54.371875 376.692974) scale(0.1 -0.1)">
       <defs>
        <path id="DejaVuSans-2e" d="M 684 794 
L 1344 794 
L 1344 0 
L 684 0 
L 684 794 
z
" transform="scale(0.015625)"/>
       </defs>
       <use xlink:href="#DejaVuSans-30"/>
       <use xlink:href="#DejaVuSans-2e" x="63.623047"/>
       <use xlink:href="#DejaVuSans-39" x="95.410156"/>
       <use xlink:href="#DejaVuSans-38" x="159.033203"/>
       <use xlink:href="#DejaVuSans-30" x="222.65625"/>
      </g>
     </g>
    </g>
    <g id="ytick_2">
     <g id="line2d_10">
      <g>
       <use xlink:href="#m35998c9297" x="90" y="304.048715" style="stroke: #000000; stroke-width: 0.8"/>
      </g>
     </g>
     <g id="text_11">
      <!-- 0.985 -->
      <g transform="translate(54.371875 307.847934) scale(0.1 -0.1)">
       <use xlink:href="#DejaVuSans-30"/>
       <use xlink:href="#DejaVuSans-2e" x="63.623047"/>
       <use xlink:href="#DejaVuSans-39" x="95.410156"/>
       <use xlink:href="#DejaVuSans-38" x="159.033203"/>
       <use xlink:href="#DejaVuSans-35" x="222.65625"/>
      </g>
     </g>
    </g>
    <g id="ytick_3">
     <g id="line2d_11">
      <g>
       <use xlink:href="#m35998c9297" x="90" y="235.203675" style="stroke: #000000; stroke-width: 0.8"/>
      </g>
     </g>
     <g id="text_12">
      <!-- 0.990 -->
      <g transform="translate(54.371875 239.002894) scale(0.1 -0.1)">
       <use xlink:href="#DejaVuSans-30"/>
       <use xlink:href="#DejaVuSans-2e" x="63.623047"/>
       <use xlink:href="#DejaVuSans-39" x="95.410156"/>
       <use xlink:href="#DejaVuSans-39" x="159.033203"/>
       <use xlink:href="#DejaVuSans-30" x="222.65625"/>
      </g>
     </g>
    </g>
    <g id="ytick_4">
     <g id="line2d_12">
      <g>
       <use xlink:href="#m35998c9297" x="90" y="166.358635" style="stroke: #000000; stroke-width: 0.8"/>
      </g>
     </g>
     <g id="text_13">
      <!-- 0.995 -->
      <g transform="translate(54.371875 170.157854) scale(0.1 -0.1)">
       <use xlink:href="#DejaVuSans-30"/>
       <use xlink:href="#DejaVuSans-2e" x="63.623047"/>
       <use xlink:href="#DejaVuSans-39" x="95.410156"/>
       <use xlink:href="#DejaVuSans-39" x="159.033203"/>
       <use xlink:href="#DejaVuSans-35" x="222.65625"/>
      </g>
     </g>
    </g>
    <g id="ytick_5">
     <g id="line2d_13">
      <g>
       <use xlink:href="#m35998c9297" x="90" y="97.513595" style="stroke: #000000; stroke-width: 0.8"/>
      </g>
     </g>
     <g id="text_14">
      <!-- 1.000 -->
      <g transform="translate(54.371875 101.312813) scale(0.1 -0.1)">
       <defs>
        <path id="DejaVuSans-31" d="M 794 531 
L 1825 531 
L 1825 4091 
L 703 3866 
L 703 4441 
L 1819 4666 
L 2450 4666 
L 2450 531 
L 3481 531 
L 3481 0 
L 794 0 
L 794 531 
z
" transform="scale(0.015625)"/>
       </defs>
       <use xlink:href="#DejaVuSans-31"/>
       <use xlink:href="#DejaVuSans-2e" x="63.623047"/>
       <use xlink:href="#DejaVuSans-30" x="95.410156"/>
       <use xlink:href="#DejaVuSans-30" x="159.033203"/>
       <use xlink:href="#DejaVuSans-30" x="222.65625"/>
      </g>
     </g>
    </g>
    <g id="text_15">
     <!-- Contrast -->
     <g transform="translate(48.292187 239.524062) rotate(-90) scale(0.1 -0.1)">
      <defs>
       <path id="DejaVuSans-43" d="M 4122 4306 
L 4122 3641 
Q 3803 3938 3442 4084 
Q 3081 4231 2675 4231 
Q 1875 4231 1450 3742 
Q 1025 3253 1025 2328 
Q 1025 1406 1450 917 
Q 1875 428 2675 428 
Q 3081 428 3442 575 
Q 3803 722 4122 1019 
L 4122 359 
Q 3791 134 3420 21 
Q 3050 -91 2638 -91 
Q 1578 -91 968 557 
Q 359 1206 359 2328 
Q 359 3453 968 4101 
Q 1578 4750 2638 4750 
Q 3056 4750 3426 4639 
Q 3797 4528 4122 4306 
z
" transform="scale(0.015625)"/>
       <path id="DejaVuSans-6f" d="M 1959 3097 
Q 1497 3097 1228 2736 
Q 959 2375 959 1747 
Q 959 1119 1226 758 
Q 1494 397 1959 397 
Q 2419 397 2687 759 
Q 2956 1122 2956 1747 
Q 2956 2369 2687 2733 
Q 2419 3097 1959 3097 
z
M 1959 3584 
Q 2709 3584 3137 3096 
Q 3566 2609 3566 1747 
Q 3566 888 3137 398 
Q 2709 -91 1959 -91 
Q 1206 -91 779 398 
Q 353 888 353 1747 
Q 353 2609 779 3096 
Q 1206 3584 1959 3584 
z
" transform="scale(0.015625)"/>
       <path id="DejaVuSans-74" d="M 1172 4494 
L 1172 3500 
L 2356 3500 
L 2356 3053 
L 1172 3053 
L 1172 1153 
Q 1172 725 1289 603 
Q 1406 481 1766 481 
L 2356 481 
L 2356 0 
L 1766 0 
Q 1100 0 847 248 
Q 594 497 594 1153 
L 594 3053 
L 172 3053 
L 172 3500 
L 594 3500 
L 594 4494 
L 1172 4494 
z
" transform="scale(0.015625)"/>
       <path id="DejaVuSans-61" d="M 2194 1759 
Q 1497 1759 1228 1600 
Q 959 1441 959 1056 
Q 959 750 1161 570 
Q 1363 391 1709 391 
Q 2188 391 2477 730 
Q 2766 1069 2766 1631 
L 2766 1759 
L 2194 1759 
z
M 3341 1997 
L 3341 0 
L 2766 0 
L 2766 531 
Q 2569 213 2275 61 
Q 1981 -91 1556 -91 
Q 1019 -91 701 211 
Q 384 513 384 1019 
Q 384 1609 779 1909 
Q 1175 2209 1959 2209 
L 2766 2209 
L 2766 2266 
Q 2766 2663 2505 2880 
Q 2244 3097 1772 3097 
Q 1472 3097 1187 3025 
Q 903 2953 641 2809 
L 641 3341 
Q 956 3463 1253 3523 
Q 1550 3584 1831 3584 
Q 2591 3584 2966 3190 
Q 3341 2797 3341 1997 
z
" transform="scale(0.015625)"/>
       <path id="DejaVuSans-73" d="M 2834 3397 
L 2834 2853 
Q 2591 2978 2328 3040 
Q 2066 3103 1784 3103 
Q 1356 3103 1142 2972 
Q 928 2841 928 2578 
Q 928 2378 1081 2264 
Q 1234 2150 1697 2047 
L 1894 2003 
Q 2506 1872 2764 1633 
Q 3022 1394 3022 966 
Q 3022 478 2636 193 
Q 2250 -91 1575 -91 
Q 1294 -91 989 -36 
Q 684 19 347 128 
L 347 722 
Q 666 556 975 473 
Q 1284 391 1588 391 
Q 1994 391 2212 530 
Q 2431 669 2431 922 
Q 2431 1156 2273 1281 
Q 2116 1406 1581 1522 
L 1381 1569 
Q 847 1681 609 1914 
Q 372 2147 372 2553 
Q 372 3047 722 3315 
Q 1072 3584 1716 3584 
Q 2034 3584 2315 3537 
Q 2597 3491 2834 3397 
z
" transform="scale(0.015625)"/>
      </defs>
      <use xlink:href="#DejaVuSans-43"/>
      <use xlink:href="#DejaVuSans-6f" x="69.824219"/>
      <use xlink:href="#DejaVuSans-6e" x="131.005859"/>
      <use xlink:href="#DejaVuSans-74" x="194.384766"/>
      <use xlink:href="#DejaVuSans-72" x="233.59375"/>
      <use xlink:href="#DejaVuSans-61" x="274.707031"/>
      <use xlink:href="#DejaVuSans-73" x="335.986328"/>
      <use xlink:href="#DejaVuSans-74" x="388.085938"/>
     </g>
    </g>
   </g>
   <g id="line2d_14">
    <path d="M 115.363636 104.943885 
L 116.812987 85.310464 
L 118.262338 109.56612 
L 119.711688 88.489231 
L 121.161039 100.815537 
L 122.61039 114.255139 
L 124.05974 111.51475 
L 125.509091 82.673521 
L 126.958442 115.620445 
L 128.407792 90.228923 
L 129.857143 104.255101 
L 131.306494 109.735175 
L 132.755844 109.045448 
L 134.205195 116.245851 
L 135.654545 73.710968 
L 137.103896 115.032626 
L 138.553247 103.921348 
L 140.002597 86.625556 
L 141.451948 100.818644 
L 142.901299 100.348674 
L 144.350649 97.27355 
L 145.8 118.992066 
L 147.249351 107.150995 
L 148.698701 91.281578 
L 150.148052 107.97095 
L 151.597403 104.885833 
L 153.046753 102.960774 
L 154.496104 106.073686 
L 155.945455 101.164332 
L 157.394805 101.743325 
L 158.844156 105.007296 
L 160.293506 84.668275 
L 161.742857 101.7377 
L 163.192208 111.094026 
L 164.641558 102.17161 
L 166.090909 98.300713 
L 167.54026 88.865441 
L 168.98961 94.465697 
L 170.438961 87.226949 
L 171.888312 96.657791 
L 173.337662 102.731385 
L 174.787013 101.550688 
L 176.236364 95.269494 
L 177.685714 111.810119 
L 179.135065 107.791787 
L 180.584416 75.373643 
L 182.033766 94.520565 
L 183.483117 93.293061 
L 184.932468 108.303478 
L 186.381818 105.327712 
L 187.831169 115.495479 
L 189.280519 95.603361 
L 190.72987 98.070137 
L 192.179221 107.05854 
L 193.628571 92.16591 
L 195.077922 107.058007 
L 196.527273 112.364925 
L 197.976623 93.885112 
L 199.425974 98.700256 
L 200.875325 115.126044 
L 202.324675 116.98986 
L 203.774026 93.224022 
L 205.223377 102.006662 
L 206.672727 102.488463 
L 208.122078 100.662766 
L 209.571429 91.478893 
L 211.020779 112.44856 
L 212.47013 96.64255 
L 213.919481 112.205068 
L 215.368831 117.498315 
L 216.818182 105.75389 
L 218.267532 101.946321 
L 219.716883 99.245721 
L 221.166234 116.914043 
L 222.615584 98.511984 
L 224.064935 101.331261 
L 225.514286 116.472487 
L 226.963636 117.220141 
L 228.412987 116.296113 
L 229.862338 94.244125 
L 231.311688 123.755915 
L 232.761039 103.456334 
L 234.21039 99.600538 
L 235.65974 113.509948 
L 237.109091 96.476829 
L 238.558442 108.35188 
L 240.007792 112.865904 
L 241.457143 125.671559 
L 242.906494 106.054689 
L 244.355844 92.808078 
L 245.805195 115.50505 
L 247.254545 120.307947 
L 248.703896 103.419474 
L 250.153247 121.370734 
L 251.602597 119.319244 
L 253.051948 120.438378 
L 254.501299 116.601802 
L 255.950649 119.916267 
L 257.4 110.175106 
L 258.849351 128.256583 
L 260.298701 121.60253 
L 261.748052 120.532416 
L 263.197403 122.202289 
L 264.646753 122.298964 
L 266.096104 123.431025 
L 267.545455 123.223684 
L 268.994805 107.587792 
L 270.444156 138.930385 
L 271.893506 132.093299 
L 273.342857 129.096488 
L 274.792208 121.024903 
L 276.241558 125.658326 
L 277.690909 145.950732 
L 279.14026 122.568087 
L 280.58961 149.922581 
L 282.038961 118.066484 
L 283.488312 138.268993 
L 284.937662 150.461308 
L 286.387013 143.747396 
L 287.836364 149.404126 
L 289.285714 151.301846 
L 290.735065 175.160969 
L 292.184416 150.856287 
L 293.633766 141.291145 
L 295.083117 149.705257 
L 296.532468 150.595447 
L 297.981818 143.408904 
L 299.431169 162.751579 
L 300.880519 168.011564 
L 302.32987 152.278268 
L 303.779221 186.863656 
L 305.228571 191.386638 
L 306.677922 177.974259 
L 308.127273 217.718805 
L 309.576623 224.636216 
L 311.025974 225.467994 
L 312.475325 242.550378 
L 313.924675 268.319274 
L 315.374026 305.23461 
L 316.823377 317.62656 
L 318.272727 322.809833 
L 319.722078 343.472166 
L 321.171429 355.113764 
L 322.620779 337.394458 
L 324.07013 334.710303 
L 325.519481 313.503583 
L 326.968831 286.033814 
L 328.418182 272.959889 
L 329.867532 269.3427 
L 331.316883 238.238541 
L 332.766234 244.656395 
L 334.215584 220.984725 
L 335.664935 250.003057 
L 337.114286 235.709577 
L 338.563636 233.797766 
L 340.012987 238.152826 
L 341.462338 246.352541 
L 342.911688 274.089283 
L 344.361039 294.194788 
L 345.81039 292.135186 
L 348.709091 347.05536 
L 350.158442 369.36 
L 351.607792 359.416669 
L 353.057143 363.364881 
L 354.506494 356.180307 
L 355.955844 329.045815 
L 357.405195 330.398677 
L 358.854545 311.988358 
L 360.303896 285.069562 
L 361.753247 286.976405 
L 363.202597 253.399202 
L 364.651948 254.935863 
L 366.101299 247.530367 
L 367.550649 238.610331 
L 369 247.582955 
L 370.449351 243.482289 
L 371.898701 247.077564 
L 373.348052 263.489016 
L 374.797403 256.715183 
L 376.246753 303.858725 
L 377.696104 307.017882 
L 379.145455 322.676583 
L 380.594805 341.231942 
L 382.044156 354.982322 
L 383.493506 356.557449 
L 384.942857 360.110644 
L 386.392208 335.05835 
L 387.841558 308.016559 
L 389.290909 318.325608 
L 390.74026 283.964055 
L 392.18961 245.422699 
L 393.638961 235.011138 
L 396.537662 215.615822 
L 397.987013 188.3535 
L 399.436364 200.612107 
L 400.885714 156.265027 
L 402.335065 186.494999 
L 403.784416 180.339263 
L 405.233766 153.689367 
L 406.683117 163.53874 
L 408.132468 145.580235 
L 409.581818 161.623227 
L 411.031169 151.82946 
L 412.480519 144.696469 
L 413.92987 151.155377 
L 415.379221 160.189301 
L 416.828571 147.233681 
L 418.277922 143.453117 
L 419.727273 143.902254 
L 421.176623 141.516189 
L 422.625974 156.560095 
L 424.075325 139.43332 
L 425.524675 134.841989 
L 426.974026 143.011853 
L 428.423377 142.139017 
L 429.872727 133.175634 
L 431.322078 132.112203 
L 432.771429 143.199391 
L 434.220779 136.725189 
L 435.67013 136.24229 
L 437.119481 124.336861 
L 438.568831 120.592311 
L 440.018182 123.823104 
L 441.467532 126.718343 
L 442.916883 125.391048 
L 444.366234 131.829458 
L 445.815584 123.260954 
L 447.264935 122.331229 
L 448.714286 138.977842 
L 450.163636 124.951497 
L 451.612987 124.104637 
L 453.062338 122.038733 
L 454.511688 106.320292 
L 455.961039 117.964032 
L 457.41039 114.70533 
L 458.85974 115.155968 
L 460.309091 128.744807 
L 461.758442 112.746784 
L 463.207792 120.11382 
L 464.657143 109.851814 
L 466.106494 128.460272 
L 467.555844 119.863731 
L 469.005195 108.523084 
L 470.454545 120.618308 
L 471.903896 112.233175 
L 473.353247 98.934985 
L 474.802597 117.679163 
L 476.251948 125.543015 
L 477.701299 112.680314 
L 479.150649 105.968309 
L 480.6 94.20692 
L 482.049351 103.888645 
L 483.498701 106.868446 
L 484.948052 110.700688 
L 486.397403 109.96993 
L 487.846753 108.697315 
L 489.296104 121.856717 
L 490.745455 123.356504 
L 492.194805 82.414554 
L 493.644156 106.834642 
L 495.093506 110.205747 
L 496.542857 122.388576 
L 497.992208 87.111565 
L 500.890909 116.978635 
L 502.34026 104.566019 
L 503.78961 107.785945 
L 505.238961 108.280575 
L 506.688312 115.079536 
L 508.137662 117.130788 
L 509.587013 124.247107 
L 511.036364 97.258334 
L 512.485714 116.698894 
L 513.935065 86.393794 
L 515.384416 111.529073 
L 516.833766 111.441536 
L 518.283117 90.069189 
L 519.732468 108.400927 
L 521.181818 75.561693 
L 522.631169 99.061401 
L 524.080519 103.328992 
L 525.52987 104.279391 
L 526.979221 101.063251 
L 528.428571 102.449278 
L 529.877922 110.528218 
L 531.327273 113.985447 
L 534.225974 103.433597 
L 535.675325 105.86769 
L 537.124675 96.548282 
L 538.574026 91.655798 
L 540.023377 113.128547 
L 541.472727 93.106193 
L 542.922078 101.676922 
L 544.371429 97.117852 
L 547.27013 99.433017 
L 548.719481 77.896641 
L 550.168831 92.935181 
L 551.618182 89.530614 
L 553.067532 88.445424 
L 554.516883 102.429264 
L 555.966234 99.045139 
L 557.415584 88.275916 
L 558.864935 90.200263 
L 560.314286 114.071312 
L 561.763636 108.022321 
L 563.212987 98.350846 
L 564.662338 95.685536 
L 566.111688 103.244939 
L 567.561039 100.757408 
L 569.01039 97.920559 
L 570.45974 110.098742 
L 571.909091 66.96 
L 573.358442 103.831348 
L 574.807792 90.892743 
L 576.257143 117.416788 
L 577.706494 89.256141 
L 579.155844 110.851601 
L 580.605195 96.671554 
L 582.054545 90.153881 
L 583.503896 112.317531 
L 584.953247 104.71279 
L 586.402597 90.938617 
L 587.851948 98.688637 
L 589.301299 90.225483 
L 590.750649 99.017298 
L 592.2 100.633795 
L 593.649351 107.294157 
L 595.098701 76.076314 
L 596.548052 107.359695 
L 597.997403 105.884859 
L 599.446753 92.791185 
L 600.896104 100.80516 
L 602.345455 81.570712 
L 603.794805 115.358405 
L 605.244156 88.489433 
L 606.693506 96.032409 
L 608.142857 99.798906 
L 609.592208 99.121044 
L 611.041558 97.881456 
L 612.490909 121.146545 
L 613.94026 92.312964 
L 615.38961 110.858987 
L 616.838961 92.521936 
L 618.288312 110.662314 
L 619.737662 97.806181 
L 621.187013 96.506135 
L 622.636364 108.482404 
L 622.636364 108.482404 
" clip-path="url(#p5652123dc9)" style="fill: none; stroke: #1f77b4; stroke-width: 1.5; stroke-linecap: square"/>
    <defs>
     <path id="ma8a3037027" d="M 0 3 
C 0.795609 3 1.55874 2.683901 2.12132 2.12132 
C 2.683901 1.55874 3 0.795609 3 0 
C 3 -0.795609 2.683901 -1.55874 2.12132 -2.12132 
C 1.55874 -2.683901 0.795609 -3 0 -3 
C -0.795609 -3 -1.55874 -2.683901 -2.12132 -2.12132 
C -2.683901 -1.55874 -3 -0.795609 -3 0 
C -3 0.795609 -2.683901 1.55874 -2.12132 2.12132 
C -1.55874 2.683901 -0.795609 3 0 3 
z
" style="stroke: #1f77b4"/>
    </defs>
    <g clip-path="url(#p5652123dc9)">
     <use xlink:href="#ma8a3037027" x="115.363636" y="104.943885" style="fill: #1f77b4; stroke: #1f77b4"/>
     <use xlink:href="#ma8a3037027" x="116.812987" y="85.310464" style="fill: #1f77b4; stroke: #1f77b4"/>
     <use xlink:href="#ma8a3037027" x="118.262338" y="109.56612" style="fill: #1f77b4; stroke: #1f77b4"/>
     <use xlink:href="#ma8a3037027" x="119.711688" y="88.489231" style="fill: #1f77b4; stroke: #1f77b4"/>
     <use xlink:href="#ma8a3037027" x="121.161039" y="100.815537" style="fill: #1f77b4; stroke: #1f77b4"/>
     <use xlink:href="#ma8a3037027" x="122.61039" y="114.255139" style="fill: #1f77b4; stroke: #1f77b4"/>
     <use xlink:href="#ma8a3037027" x="124.05974" y="111.51475" style="fill: #1f77b4; stroke: #1f77b4"/>
     <use xlink:href="#ma8a3037027" x="125.509091" y="82.673521" style="fill: #1f77b4; stroke: #1f77b4"/>
     <use xlink:href="#ma8a3037027" x="126.958442" y="115.620445" style="fill: #1f77b4; stroke: #1f77b4"/>
     <use xlink:href="#ma8a3037027" x="128.407792" y="90.228923" style="fill: #1f77b4; stroke: #1f77b4"/>
     <use xlink:href="#ma8a3037027" x="129.857143" y="104.255101" style="fill: #1f77b4; stroke: #1f77b4"/>
     <use xlink:href="#ma8a3037027" x="131.306494" y="109.735175" style="fill: #1f77b4; stroke: #1f77b4"/>
     <use xlink:href="#ma8a3037027" x="132.755844" y="109.045448" style="fill: #1f77b4; stroke: #1f77b4"/>
     <use xlink:href="#ma8a3037027" x="134.205195" y="116.245851" style="fill: #1f77b4; stroke: #1f77b4"/>
     <use xlink:href="#ma8a3037027" x="135.654545" y="73.710968" style="fill: #1f77b4; stroke: #1f77b4"/>
     <use xlink:href="#ma8a3037027" x="137.103896" y="115.032626" style="fill: #1f77b4; stroke: #1f77b4"/>
     <use xlink:href="#ma8a3037027" x="138.553247" y="103.921348" style="fill: #1f77b4; stroke: #1f77b4"/>
     <use xlink:href="#ma8a3037027" x="140.002597" y="86.625556" style="fill: #1f77b4; stroke: #1f77b4"/>
     <use xlink:href="#ma8a3037027" x="141.451948" y="100.818644" style="fill: #1f77b4; stroke: #1f77b4"/>
     <use xlink:href="#ma8a3037027" x="142.901299" y="100.348674" style="fill: #1f77b4; stroke: #1f77b4"/>
     <use xlink:href="#ma8a3037027" x="144.350649" y="97.27355" style="fill: #1f77b4; stroke: #1f77b4"/>
     <use xlink:href="#ma8a3037027" x="145.8" y="118.992066" style="fill: #1f77b4; stroke: #1f77b4"/>
     <use xlink:href="#ma8a3037027" x="147.249351" y="107.150995" style="fill: #1f77b4; stroke: #1f77b4"/>
     <use xlink:href="#ma8a3037027" x="148.698701" y="91.281578" style="fill: #1f77b4; stroke: #1f77b4"/>
     <use xlink:href="#ma8a3037027" x="150.148052" y="107.97095" style="fill: #1f77b4; stroke: #1f77b4"/>
     <use xlink:href="#ma8a3037027" x="151.597403" y="104.885833" style="fill: #1f77b4; stroke: #1f77b4"/>
     <use xlink:href="#ma8a3037027" x="153.046753" y="102.960774" style="fill: #1f77b4; stroke: #1f77b4"/>
     <use xlink:href="#ma8a3037027" x="154.496104" y="106.073686" style="fill: #1f77b4; stroke: #1f77b4"/>
     <use xlink:href="#ma8a3037027" x="155.945455" y="101.164332" style="fill: #1f77b4; stroke: #1f77b4"/>
     <use xlink:href="#ma8a3037027" x="157.394805" y="101.743325" style="fill: #1f77b4; stroke: #1f77b4"/>
     <use xlink:href="#ma8a3037027" x="158.844156" y="105.007296" style="fill: #1f77b4; stroke: #1f77b4"/>
     <use xlink:href="#ma8a3037027" x="160.293506" y="84.668275" style="fill: #1f77b4; stroke: #1f77b4"/>
     <use xlink:href="#ma8a3037027" x="161.742857" y="101.7377" style="fill: #1f77b4; stroke: #1f77b4"/>
     <use xlink:href="#ma8a3037027" x="163.192208" y="111.094026" style="fill: #1f77b4; stroke: #1f77b4"/>
     <use xlink:href="#ma8a3037027" x="164.641558" y="102.17161" style="fill: #1f77b4; stroke: #1f77b4"/>
     <use xlink:href="#ma8a3037027" x="166.090909" y="98.300713" style="fill: #1f77b4; stroke: #1f77b4"/>
     <use xlink:href="#ma8a3037027" x="167.54026" y="88.865441" style="fill: #1f77b4; stroke: #1f77b4"/>
     <use xlink:href="#ma8a3037027" x="168.98961" y="94.465697" style="fill: #1f77b4; stroke: #1f77b4"/>
     <use xlink:href="#ma8a3037027" x="170.438961" y="87.226949" style="fill: #1f77b4; stroke: #1f77b4"/>
     <use xlink:href="#ma8a3037027" x="171.888312" y="96.657791" style="fill: #1f77b4; stroke: #1f77b4"/>
     <use xlink:href="#ma8a3037027" x="173.337662" y="102.731385" style="fill: #1f77b4; stroke: #1f77b4"/>
     <use xlink:href="#ma8a3037027" x="174.787013" y="101.550688" style="fill: #1f77b4; stroke: #1f77b4"/>
     <use xlink:href="#ma8a3037027" x="176.236364" y="95.269494" style="fill: #1f77b4; stroke: #1f77b4"/>
     <use xlink:href="#ma8a3037027" x="177.685714" y="111.810119" style="fill: #1f77b4; stroke: #1f77b4"/>
     <use xlink:href="#ma8a3037027" x="179.135065" y="107.791787" style="fill: #1f77b4; stroke: #1f77b4"/>
     <use xlink:href="#ma8a3037027" x="180.584416" y="75.373643" style="fill: #1f77b4; stroke: #1f77b4"/>
     <use xlink:href="#ma8a3037027" x="182.033766" y="94.520565" style="fill: #1f77b4; stroke: #1f77b4"/>
     <use xlink:href="#ma8a3037027" x="183.483117" y="93.293061" style="fill: #1f77b4; stroke: #1f77b4"/>
     <use xlink:href="#ma8a3037027" x="184.932468" y="108.303478" style="fill: #1f77b4; stroke: #1f77b4"/>
     <use xlink:href="#ma8a3037027" x="186.381818" y="105.327712" style="fill: #1f77b4; stroke: #1f77b4"/>
     <use xlink:href="#ma8a3037027" x="187.831169" y="115.495479" style="fill: #1f77b4; stroke: #1f77b4"/>
     <use xlink:href="#ma8a3037027" x="189.280519" y="95.603361" style="fill: #1f77b4; stroke: #1f77b4"/>
     <use xlink:href="#ma8a3037027" x="190.72987" y="98.070137" style="fill: #1f77b4; stroke: #1f77b4"/>
     <use xlink:href="#ma8a3037027" x="192.179221" y="107.05854" style="fill: #1f77b4; stroke: #1f77b4"/>
     <use xlink:href="#ma8a3037027" x="193.628571" y="92.16591" style="fill: #1f77b4; stroke: #1f77b4"/>
     <use xlink:href="#ma8a3037027" x="195.077922" y="107.058007" style="fill: #1f77b4; stroke: #1f77b4"/>
     <use xlink:href="#ma8a3037027" x="196.527273" y="112.364925" style="fill: #1f77b4; stroke: #1f77b4"/>
     <use xlink:href="#ma8a3037027" x="197.976623" y="93.885112" style="fill: #1f77b4; stroke: #1f77b4"/>
     <use xlink:href="#ma8a3037027" x="199.425974" y="98.700256" style="fill: #1f77b4; stroke: #1f77b4"/>
     <use xlink:href="#ma8a3037027" x="200.875325" y="115.126044" style="fill: #1f77b4; stroke: #1f77b4"/>
     <use xlink:href="#ma8a3037027" x="202.324675" y="116.98986" style="fill: #1f77b4; stroke: #1f77b4"/>
     <use xlink:href="#ma8a3037027" x="203.774026" y="93.224022" style="fill: #1f77b4; stroke: #1f77b4"/>
     <use xlink:href="#ma8a3037027" x="205.223377" y="102.006662" style="fill: #1f77b4; stroke: #1f77b4"/>
     <use xlink:href="#ma8a3037027" x="206.672727" y="102.488463" style="fill: #1f77b4; stroke: #1f77b4"/>
     <use xlink:href="#ma8a3037027" x="208.122078" y="100.662766" style="fill: #1f77b4; stroke: #1f77b4"/>
     <use xlink:href="#ma8a3037027" x="209.571429" y="91.478893" style="fill: #1f77b4; stroke: #1f77b4"/>
     <use xlink:href="#ma8a3037027" x="211.020779" y="112.44856" style="fill: #1f77b4; stroke: #1f77b4"/>
     <use xlink:href="#ma8a3037027" x="212.47013" y="96.64255" style="fill: #1f77b4; stroke: #1f77b4"/>
     <use xlink:href="#ma8a3037027" x="213.919481" y="112.205068" style="fill: #1f77b4; stroke: #1f77b4"/>
     <use xlink:href="#ma8a3037027" x="215.368831" y="117.498315" style="fill: #1f77b4; stroke: #1f77b4"/>
     <use xlink:href="#ma8a3037027" x="216.818182" y="105.75389" style="fill: #1f77b4; stroke: #1f77b4"/>
     <use xlink:href="#ma8a3037027" x="218.267532" y="101.946321" style="fill: #1f77b4; stroke: #1f77b4"/>
     <use xlink:href="#ma8a3037027" x="219.716883" y="99.245721" style="fill: #1f77b4; stroke: #1f77b4"/>
     <use xlink:href="#ma8a3037027" x="221.166234" y="116.914043" style="fill: #1f77b4; stroke: #1f77b4"/>
     <use xlink:href="#ma8a3037027" x="222.615584" y="98.511984" style="fill: #1f77b4; stroke: #1f77b4"/>
     <use xlink:href="#ma8a3037027" x="224.064935" y="101.331261" style="fill: #1f77b4; stroke: #1f77b4"/>
     <use xlink:href="#ma8a3037027" x="225.514286" y="116.472487" style="fill: #1f77b4; stroke: #1f77b4"/>
     <use xlink:href="#ma8a3037027" x="226.963636" y="117.220141" style="fill: #1f77b4; stroke: #1f77b4"/>
     <use xlink:href="#ma8a3037027" x="228.412987" y="116.296113" style="fill: #1f77b4; stroke: #1f77b4"/>
     <use xlink:href="#ma8a3037027" x="229.862338" y="94.244125" style="fill: #1f77b4; stroke: #1f77b4"/>
     <use xlink:href="#ma8a3037027" x="231.311688" y="123.755915" style="fill: #1f77b4; stroke: #1f77b4"/>
     <use xlink:href="#ma8a3037027" x="232.761039" y="103.456334" style="fill: #1f77b4; stroke: #1f77b4"/>
     <use xlink:href="#ma8a3037027" x="234.21039" y="99.600538" style="fill: #1f77b4; stroke: #1f77b4"/>
     <use xlink:href="#ma8a3037027" x="235.65974" y="113.509948" style="fill: #1f77b4; stroke: #1f77b4"/>
     <use xlink:href="#ma8a3037027" x="237.109091" y="96.476829" style="fill: #1f77b4; stroke: #1f77b4"/>
     <use xlink:href="#ma8a3037027" x="238.558442" y="108.35188" style="fill: #1f77b4; stroke: #1f77b4"/>
     <use xlink:href="#ma8a3037027" x="240.007792" y="112.865904" style="fill: #1f77b4; stroke: #1f77b4"/>
     <use xlink:href="#ma8a3037027" x="241.457143" y="125.671559" style="fill: #1f77b4; stroke: #1f77b4"/>
     <use xlink:href="#ma8a3037027" x="242.906494" y="106.054689" style="fill: #1f77b4; stroke: #1f77b4"/>
     <use xlink:href="#ma8a3037027" x="244.355844" y="92.808078" style="fill: #1f77b4; stroke: #1f77b4"/>
     <use xlink:href="#ma8a3037027" x="245.805195" y="115.50505" style="fill: #1f77b4; stroke: #1f77b4"/>
     <use xlink:href="#ma8a3037027" x="247.254545" y="120.307947" style="fill: #1f77b4; stroke: #1f77b4"/>
     <use xlink:href="#ma8a3037027" x="248.703896" y="103.419474" style="fill: #1f77b4; stroke: #1f77b4"/>
     <use xlink:href="#ma8a3037027" x="250.153247" y="121.370734" style="fill: #1f77b4; stroke: #1f77b4"/>
     <use xlink:href="#ma8a3037027" x="251.602597" y="119.319244" style="fill: #1f77b4; stroke: #1f77b4"/>
     <use xlink:href="#ma8a3037027" x="253.051948" y="120.438378" style="fill: #1f77b4; stroke: #1f77b4"/>
     <use xlink:href="#ma8a3037027" x="254.501299" y="116.601802" style="fill: #1f77b4; stroke: #1f77b4"/>
     <use xlink:href="#ma8a3037027" x="255.950649" y="119.916267" style="fill: #1f77b4; stroke: #1f77b4"/>
     <use xlink:href="#ma8a3037027" x="257.4" y="110.175106" style="fill: #1f77b4; stroke: #1f77b4"/>
     <use xlink:href="#ma8a3037027" x="258.849351" y="128.256583" style="fill: #1f77b4; stroke: #1f77b4"/>
     <use xlink:href="#ma8a3037027" x="260.298701" y="121.60253" style="fill: #1f77b4; stroke: #1f77b4"/>
     <use xlink:href="#ma8a3037027" x="261.748052" y="120.532416" style="fill: #1f77b4; stroke: #1f77b4"/>
     <use xlink:href="#ma8a3037027" x="263.197403" y="122.202289" style="fill: #1f77b4; stroke: #1f77b4"/>
     <use xlink:href="#ma8a3037027" x="264.646753" y="122.298964" style="fill: #1f77b4; stroke: #1f77b4"/>
     <use xlink:href="#ma8a3037027" x="266.096104" y="123.431025" style="fill: #1f77b4; stroke: #1f77b4"/>
     <use xlink:href="#ma8a3037027" x="267.545455" y="123.223684" style="fill: #1f77b4; stroke: #1f77b4"/>
     <use xlink:href="#ma8a3037027" x="268.994805" y="107.587792" style="fill: #1f77b4; stroke: #1f77b4"/>
     <use xlink:href="#ma8a3037027" x="270.444156" y="138.930385" style="fill: #1f77b4; stroke: #1f77b4"/>
     <use xlink:href="#ma8a3037027" x="271.893506" y="132.093299" style="fill: #1f77b4; stroke: #1f77b4"/>
     <use xlink:href="#ma8a3037027" x="273.342857" y="129.096488" style="fill: #1f77b4; stroke: #1f77b4"/>
     <use xlink:href="#ma8a3037027" x="274.792208" y="121.024903" style="fill: #1f77b4; stroke: #1f77b4"/>
     <use xlink:href="#ma8a3037027" x="276.241558" y="125.658326" style="fill: #1f77b4; stroke: #1f77b4"/>
     <use xlink:href="#ma8a3037027" x="277.690909" y="145.950732" style="fill: #1f77b4; stroke: #1f77b4"/>
     <use xlink:href="#ma8a3037027" x="279.14026" y="122.568087" style="fill: #1f77b4; stroke: #1f77b4"/>
     <use xlink:href="#ma8a3037027" x="280.58961" y="149.922581" style="fill: #1f77b4; stroke: #1f77b4"/>
     <use xlink:href="#ma8a3037027" x="282.038961" y="118.066484" style="fill: #1f77b4; stroke: #1f77b4"/>
     <use xlink:href="#ma8a3037027" x="283.488312" y="138.268993" style="fill: #1f77b4; stroke: #1f77b4"/>
     <use xlink:href="#ma8a3037027" x="284.937662" y="150.461308" style="fill: #1f77b4; stroke: #1f77b4"/>
     <use xlink:href="#ma8a3037027" x="286.387013" y="143.747396" style="fill: #1f77b4; stroke: #1f77b4"/>
     <use xlink:href="#ma8a3037027" x="287.836364" y="149.404126" style="fill: #1f77b4; stroke: #1f77b4"/>
     <use xlink:href="#ma8a3037027" x="289.285714" y="151.301846" style="fill: #1f77b4; stroke: #1f77b4"/>
     <use xlink:href="#ma8a3037027" x="290.735065" y="175.160969" style="fill: #1f77b4; stroke: #1f77b4"/>
     <use xlink:href="#ma8a3037027" x="292.184416" y="150.856287" style="fill: #1f77b4; stroke: #1f77b4"/>
     <use xlink:href="#ma8a3037027" x="293.633766" y="141.291145" style="fill: #1f77b4; stroke: #1f77b4"/>
     <use xlink:href="#ma8a3037027" x="295.083117" y="149.705257" style="fill: #1f77b4; stroke: #1f77b4"/>
     <use xlink:href="#ma8a3037027" x="296.532468" y="150.595447" style="fill: #1f77b4; stroke: #1f77b4"/>
     <use xlink:href="#ma8a3037027" x="297.981818" y="143.408904" style="fill: #1f77b4; stroke: #1f77b4"/>
     <use xlink:href="#ma8a3037027" x="299.431169" y="162.751579" style="fill: #1f77b4; stroke: #1f77b4"/>
     <use xlink:href="#ma8a3037027" x="300.880519" y="168.011564" style="fill: #1f77b4; stroke: #1f77b4"/>
     <use xlink:href="#ma8a3037027" x="302.32987" y="152.278268" style="fill: #1f77b4; stroke: #1f77b4"/>
     <use xlink:href="#ma8a3037027" x="303.779221" y="186.863656" style="fill: #1f77b4; stroke: #1f77b4"/>
     <use xlink:href="#ma8a3037027" x="305.228571" y="191.386638" style="fill: #1f77b4; stroke: #1f77b4"/>
     <use xlink:href="#ma8a3037027" x="306.677922" y="177.974259" style="fill: #1f77b4; stroke: #1f77b4"/>
     <use xlink:href="#ma8a3037027" x="308.127273" y="217.718805" style="fill: #1f77b4; stroke: #1f77b4"/>
     <use xlink:href="#ma8a3037027" x="309.576623" y="224.636216" style="fill: #1f77b4; stroke: #1f77b4"/>
     <use xlink:href="#ma8a3037027" x="311.025974" y="225.467994" style="fill: #1f77b4; stroke: #1f77b4"/>
     <use xlink:href="#ma8a3037027" x="312.475325" y="242.550378" style="fill: #1f77b4; stroke: #1f77b4"/>
     <use xlink:href="#ma8a3037027" x="313.924675" y="268.319274" style="fill: #1f77b4; stroke: #1f77b4"/>
     <use xlink:href="#ma8a3037027" x="315.374026" y="305.23461" style="fill: #1f77b4; stroke: #1f77b4"/>
     <use xlink:href="#ma8a3037027" x="316.823377" y="317.62656" style="fill: #1f77b4; stroke: #1f77b4"/>
     <use xlink:href="#ma8a3037027" x="318.272727" y="322.809833" style="fill: #1f77b4; stroke: #1f77b4"/>
     <use xlink:href="#ma8a3037027" x="319.722078" y="343.472166" style="fill: #1f77b4; stroke: #1f77b4"/>
     <use xlink:href="#ma8a3037027" x="321.171429" y="355.113764" style="fill: #1f77b4; stroke: #1f77b4"/>
     <use xlink:href="#ma8a3037027" x="322.620779" y="337.394458" style="fill: #1f77b4; stroke: #1f77b4"/>
     <use xlink:href="#ma8a3037027" x="324.07013" y="334.710303" style="fill: #1f77b4; stroke: #1f77b4"/>
     <use xlink:href="#ma8a3037027" x="325.519481" y="313.503583" style="fill: #1f77b4; stroke: #1f77b4"/>
     <use xlink:href="#ma8a3037027" x="326.968831" y="286.033814" style="fill: #1f77b4; stroke: #1f77b4"/>
     <use xlink:href="#ma8a3037027" x="328.418182" y="272.959889" style="fill: #1f77b4; stroke: #1f77b4"/>
     <use xlink:href="#ma8a3037027" x="329.867532" y="269.3427" style="fill: #1f77b4; stroke: #1f77b4"/>
     <use xlink:href="#ma8a3037027" x="331.316883" y="238.238541" style="fill: #1f77b4; stroke: #1f77b4"/>
     <use xlink:href="#ma8a3037027" x="332.766234" y="244.656395" style="fill: #1f77b4; stroke: #1f77b4"/>
     <use xlink:href="#ma8a3037027" x="334.215584" y="220.984725" style="fill: #1f77b4; stroke: #1f77b4"/>
     <use xlink:href="#ma8a3037027" x="335.664935" y="250.003057" style="fill: #1f77b4; stroke: #1f77b4"/>
     <use xlink:href="#ma8a3037027" x="337.114286" y="235.709577" style="fill: #1f77b4; stroke: #1f77b4"/>
     <use xlink:href="#ma8a3037027" x="338.563636" y="233.797766" style="fill: #1f77b4; stroke: #1f77b4"/>
     <use xlink:href="#ma8a3037027" x="340.012987" y="238.152826" style="fill: #1f77b4; stroke: #1f77b4"/>
     <use xlink:href="#ma8a3037027" x="341.462338" y="246.352541" style="fill: #1f77b4; stroke: #1f77b4"/>
     <use xlink:href="#ma8a3037027" x="342.911688" y="274.089283" style="fill: #1f77b4; stroke: #1f77b4"/>
     <use xlink:href="#ma8a3037027" x="344.361039" y="294.194788" style="fill: #1f77b4; stroke: #1f77b4"/>
     <use xlink:href="#ma8a3037027" x="345.81039" y="292.135186" style="fill: #1f77b4; stroke: #1f77b4"/>
     <use xlink:href="#ma8a3037027" x="347.25974" y="319.5651" style="fill: #1f77b4; stroke: #1f77b4"/>
     <use xlink:href="#ma8a3037027" x="348.709091" y="347.05536" style="fill: #1f77b4; stroke: #1f77b4"/>
     <use xlink:href="#ma8a3037027" x="350.158442" y="369.36" style="fill: #1f77b4; stroke: #1f77b4"/>
     <use xlink:href="#ma8a3037027" x="351.607792" y="359.416669" style="fill: #1f77b4; stroke: #1f77b4"/>
     <use xlink:href="#ma8a3037027" x="353.057143" y="363.364881" style="fill: #1f77b4; stroke: #1f77b4"/>
     <use xlink:href="#ma8a3037027" x="354.506494" y="356.180307" style="fill: #1f77b4; stroke: #1f77b4"/>
     <use xlink:href="#ma8a3037027" x="355.955844" y="329.045815" style="fill: #1f77b4; stroke: #1f77b4"/>
     <use xlink:href="#ma8a3037027" x="357.405195" y="330.398677" style="fill: #1f77b4; stroke: #1f77b4"/>
     <use xlink:href="#ma8a3037027" x="358.854545" y="311.988358" style="fill: #1f77b4; stroke: #1f77b4"/>
     <use xlink:href="#ma8a3037027" x="360.303896" y="285.069562" style="fill: #1f77b4; stroke: #1f77b4"/>
     <use xlink:href="#ma8a3037027" x="361.753247" y="286.976405" style="fill: #1f77b4; stroke: #1f77b4"/>
     <use xlink:href="#ma8a3037027" x="363.202597" y="253.399202" style="fill: #1f77b4; stroke: #1f77b4"/>
     <use xlink:href="#ma8a3037027" x="364.651948" y="254.935863" style="fill: #1f77b4; stroke: #1f77b4"/>
     <use xlink:href="#ma8a3037027" x="366.101299" y="247.530367" style="fill: #1f77b4; stroke: #1f77b4"/>
     <use xlink:href="#ma8a3037027" x="367.550649" y="238.610331" style="fill: #1f77b4; stroke: #1f77b4"/>
     <use xlink:href="#ma8a3037027" x="369" y="247.582955" style="fill: #1f77b4; stroke: #1f77b4"/>
     <use xlink:href="#ma8a3037027" x="370.449351" y="243.482289" style="fill: #1f77b4; stroke: #1f77b4"/>
     <use xlink:href="#ma8a3037027" x="371.898701" y="247.077564" style="fill: #1f77b4; stroke: #1f77b4"/>
     <use xlink:href="#ma8a3037027" x="373.348052" y="263.489016" style="fill: #1f77b4; stroke: #1f77b4"/>
     <use xlink:href="#ma8a3037027" x="374.797403" y="256.715183" style="fill: #1f77b4; stroke: #1f77b4"/>
     <use xlink:href="#ma8a3037027" x="376.246753" y="303.858725" style="fill: #1f77b4; stroke: #1f77b4"/>
     <use xlink:href="#ma8a3037027" x="377.696104" y="307.017882" style="fill: #1f77b4; stroke: #1f77b4"/>
     <use xlink:href="#ma8a3037027" x="379.145455" y="322.676583" style="fill: #1f77b4; stroke: #1f77b4"/>
     <use xlink:href="#ma8a3037027" x="380.594805" y="341.231942" style="fill: #1f77b4; stroke: #1f77b4"/>
     <use xlink:href="#ma8a3037027" x="382.044156" y="354.982322" style="fill: #1f77b4; stroke: #1f77b4"/>
     <use xlink:href="#ma8a3037027" x="383.493506" y="356.557449" style="fill: #1f77b4; stroke: #1f77b4"/>
     <use xlink:href="#ma8a3037027" x="384.942857" y="360.110644" style="fill: #1f77b4; stroke: #1f77b4"/>
     <use xlink:href="#ma8a3037027" x="386.392208" y="335.05835" style="fill: #1f77b4; stroke: #1f77b4"/>
     <use xlink:href="#ma8a3037027" x="387.841558" y="308.016559" style="fill: #1f77b4; stroke: #1f77b4"/>
     <use xlink:href="#ma8a3037027" x="389.290909" y="318.325608" style="fill: #1f77b4; stroke: #1f77b4"/>
     <use xlink:href="#ma8a3037027" x="390.74026" y="283.964055" style="fill: #1f77b4; stroke: #1f77b4"/>
     <use xlink:href="#ma8a3037027" x="392.18961" y="245.422699" style="fill: #1f77b4; stroke: #1f77b4"/>
     <use xlink:href="#ma8a3037027" x="393.638961" y="235.011138" style="fill: #1f77b4; stroke: #1f77b4"/>
     <use xlink:href="#ma8a3037027" x="395.088312" y="225.475392" style="fill: #1f77b4; stroke: #1f77b4"/>
     <use xlink:href="#ma8a3037027" x="396.537662" y="215.615822" style="fill: #1f77b4; stroke: #1f77b4"/>
     <use xlink:href="#ma8a3037027" x="397.987013" y="188.3535" style="fill: #1f77b4; stroke: #1f77b4"/>
     <use xlink:href="#ma8a3037027" x="399.436364" y="200.612107" style="fill: #1f77b4; stroke: #1f77b4"/>
     <use xlink:href="#ma8a3037027" x="400.885714" y="156.265027" style="fill: #1f77b4; stroke: #1f77b4"/>
     <use xlink:href="#ma8a3037027" x="402.335065" y="186.494999" style="fill: #1f77b4; stroke: #1f77b4"/>
     <use xlink:href="#ma8a3037027" x="403.784416" y="180.339263" style="fill: #1f77b4; stroke: #1f77b4"/>
     <use xlink:href="#ma8a3037027" x="405.233766" y="153.689367" style="fill: #1f77b4; stroke: #1f77b4"/>
     <use xlink:href="#ma8a3037027" x="406.683117" y="163.53874" style="fill: #1f77b4; stroke: #1f77b4"/>
     <use xlink:href="#ma8a3037027" x="408.132468" y="145.580235" style="fill: #1f77b4; stroke: #1f77b4"/>
     <use xlink:href="#ma8a3037027" x="409.581818" y="161.623227" style="fill: #1f77b4; stroke: #1f77b4"/>
     <use xlink:href="#ma8a3037027" x="411.031169" y="151.82946" style="fill: #1f77b4; stroke: #1f77b4"/>
     <use xlink:href="#ma8a3037027" x="412.480519" y="144.696469" style="fill: #1f77b4; stroke: #1f77b4"/>
     <use xlink:href="#ma8a3037027" x="413.92987" y="151.155377" style="fill: #1f77b4; stroke: #1f77b4"/>
     <use xlink:href="#ma8a3037027" x="415.379221" y="160.189301" style="fill: #1f77b4; stroke: #1f77b4"/>
     <use xlink:href="#ma8a3037027" x="416.828571" y="147.233681" style="fill: #1f77b4; stroke: #1f77b4"/>
     <use xlink:href="#ma8a3037027" x="418.277922" y="143.453117" style="fill: #1f77b4; stroke: #1f77b4"/>
     <use xlink:href="#ma8a3037027" x="419.727273" y="143.902254" style="fill: #1f77b4; stroke: #1f77b4"/>
     <use xlink:href="#ma8a3037027" x="421.176623" y="141.516189" style="fill: #1f77b4; stroke: #1f77b4"/>
     <use xlink:href="#ma8a3037027" x="422.625974" y="156.560095" style="fill: #1f77b4; stroke: #1f77b4"/>
     <use xlink:href="#ma8a3037027" x="424.075325" y="139.43332" style="fill: #1f77b4; stroke: #1f77b4"/>
     <use xlink:href="#ma8a3037027" x="425.524675" y="134.841989" style="fill: #1f77b4; stroke: #1f77b4"/>
     <use xlink:href="#ma8a3037027" x="426.974026" y="143.011853" style="fill: #1f77b4; stroke: #1f77b4"/>
     <use xlink:href="#ma8a3037027" x="428.423377" y="142.139017" style="fill: #1f77b4; stroke: #1f77b4"/>
     <use xlink:href="#ma8a3037027" x="429.872727" y="133.175634" style="fill: #1f77b4; stroke: #1f77b4"/>
     <use xlink:href="#ma8a3037027" x="431.322078" y="132.112203" style="fill: #1f77b4; stroke: #1f77b4"/>
     <use xlink:href="#ma8a3037027" x="432.771429" y="143.199391" style="fill: #1f77b4; stroke: #1f77b4"/>
     <use xlink:href="#ma8a3037027" x="434.220779" y="136.725189" style="fill: #1f77b4; stroke: #1f77b4"/>
     <use xlink:href="#ma8a3037027" x="435.67013" y="136.24229" style="fill: #1f77b4; stroke: #1f77b4"/>
     <use xlink:href="#ma8a3037027" x="437.119481" y="124.336861" style="fill: #1f77b4; stroke: #1f77b4"/>
     <use xlink:href="#ma8a3037027" x="438.568831" y="120.592311" style="fill: #1f77b4; stroke: #1f77b4"/>
     <use xlink:href="#ma8a3037027" x="440.018182" y="123.823104" style="fill: #1f77b4; stroke: #1f77b4"/>
     <use xlink:href="#ma8a3037027" x="441.467532" y="126.718343" style="fill: #1f77b4; stroke: #1f77b4"/>
     <use xlink:href="#ma8a3037027" x="442.916883" y="125.391048" style="fill: #1f77b4; stroke: #1f77b4"/>
     <use xlink:href="#ma8a3037027" x="444.366234" y="131.829458" style="fill: #1f77b4; stroke: #1f77b4"/>
     <use xlink:href="#ma8a3037027" x="445.815584" y="123.260954" style="fill: #1f77b4; stroke: #1f77b4"/>
     <use xlink:href="#ma8a3037027" x="447.264935" y="122.331229" style="fill: #1f77b4; stroke: #1f77b4"/>
     <use xlink:href="#ma8a3037027" x="448.714286" y="138.977842" style="fill: #1f77b4; stroke: #1f77b4"/>
     <use xlink:href="#ma8a3037027" x="450.163636" y="124.951497" style="fill: #1f77b4; stroke: #1f77b4"/>
     <use xlink:href="#ma8a3037027" x="451.612987" y="124.104637" style="fill: #1f77b4; stroke: #1f77b4"/>
     <use xlink:href="#ma8a3037027" x="453.062338" y="122.038733" style="fill: #1f77b4; stroke: #1f77b4"/>
     <use xlink:href="#ma8a3037027" x="454.511688" y="106.320292" style="fill: #1f77b4; stroke: #1f77b4"/>
     <use xlink:href="#ma8a3037027" x="455.961039" y="117.964032" style="fill: #1f77b4; stroke: #1f77b4"/>
     <use xlink:href="#ma8a3037027" x="457.41039" y="114.70533" style="fill: #1f77b4; stroke: #1f77b4"/>
     <use xlink:href="#ma8a3037027" x="458.85974" y="115.155968" style="fill: #1f77b4; stroke: #1f77b4"/>
     <use xlink:href="#ma8a3037027" x="460.309091" y="128.744807" style="fill: #1f77b4; stroke: #1f77b4"/>
     <use xlink:href="#ma8a3037027" x="461.758442" y="112.746784" style="fill: #1f77b4; stroke: #1f77b4"/>
     <use xlink:href="#ma8a3037027" x="463.207792" y="120.11382" style="fill: #1f77b4; stroke: #1f77b4"/>
     <use xlink:href="#ma8a3037027" x="464.657143" y="109.851814" style="fill: #1f77b4; stroke: #1f77b4"/>
     <use xlink:href="#ma8a3037027" x="466.106494" y="128.460272" style="fill: #1f77b4; stroke: #1f77b4"/>
     <use xlink:href="#ma8a3037027" x="467.555844" y="119.863731" style="fill: #1f77b4; stroke: #1f77b4"/>
     <use xlink:href="#ma8a3037027" x="469.005195" y="108.523084" style="fill: #1f77b4; stroke: #1f77b4"/>
     <use xlink:href="#ma8a3037027" x="470.454545" y="120.618308" style="fill: #1f77b4; stroke: #1f77b4"/>
     <use xlink:href="#ma8a3037027" x="471.903896" y="112.233175" style="fill: #1f77b4; stroke: #1f77b4"/>
     <use xlink:href="#ma8a3037027" x="473.353247" y="98.934985" style="fill: #1f77b4; stroke: #1f77b4"/>
     <use xlink:href="#ma8a3037027" x="474.802597" y="117.679163" style="fill: #1f77b4; stroke: #1f77b4"/>
     <use xlink:href="#ma8a3037027" x="476.251948" y="125.543015" style="fill: #1f77b4; stroke: #1f77b4"/>
     <use xlink:href="#ma8a3037027" x="477.701299" y="112.680314" style="fill: #1f77b4; stroke: #1f77b4"/>
     <use xlink:href="#ma8a3037027" x="479.150649" y="105.968309" style="fill: #1f77b4; stroke: #1f77b4"/>
     <use xlink:href="#ma8a3037027" x="480.6" y="94.20692" style="fill: #1f77b4; stroke: #1f77b4"/>
     <use xlink:href="#ma8a3037027" x="482.049351" y="103.888645" style="fill: #1f77b4; stroke: #1f77b4"/>
     <use xlink:href="#ma8a3037027" x="483.498701" y="106.868446" style="fill: #1f77b4; stroke: #1f77b4"/>
     <use xlink:href="#ma8a3037027" x="484.948052" y="110.700688" style="fill: #1f77b4; stroke: #1f77b4"/>
     <use xlink:href="#ma8a3037027" x="486.397403" y="109.96993" style="fill: #1f77b4; stroke: #1f77b4"/>
     <use xlink:href="#ma8a3037027" x="487.846753" y="108.697315" style="fill: #1f77b4; stroke: #1f77b4"/>
     <use xlink:href="#ma8a3037027" x="489.296104" y="121.856717" style="fill: #1f77b4; stroke: #1f77b4"/>
     <use xlink:href="#ma8a3037027" x="490.745455" y="123.356504" style="fill: #1f77b4; stroke: #1f77b4"/>
     <use xlink:href="#ma8a3037027" x="492.194805" y="82.414554" style="fill: #1f77b4; stroke: #1f77b4"/>
     <use xlink:href="#ma8a3037027" x="493.644156" y="106.834642" style="fill: #1f77b4; stroke: #1f77b4"/>
     <use xlink:href="#ma8a3037027" x="495.093506" y="110.205747" style="fill: #1f77b4; stroke: #1f77b4"/>
     <use xlink:href="#ma8a3037027" x="496.542857" y="122.388576" style="fill: #1f77b4; stroke: #1f77b4"/>
     <use xlink:href="#ma8a3037027" x="497.992208" y="87.111565" style="fill: #1f77b4; stroke: #1f77b4"/>
     <use xlink:href="#ma8a3037027" x="499.441558" y="101.870226" style="fill: #1f77b4; stroke: #1f77b4"/>
     <use xlink:href="#ma8a3037027" x="500.890909" y="116.978635" style="fill: #1f77b4; stroke: #1f77b4"/>
     <use xlink:href="#ma8a3037027" x="502.34026" y="104.566019" style="fill: #1f77b4; stroke: #1f77b4"/>
     <use xlink:href="#ma8a3037027" x="503.78961" y="107.785945" style="fill: #1f77b4; stroke: #1f77b4"/>
     <use xlink:href="#ma8a3037027" x="505.238961" y="108.280575" style="fill: #1f77b4; stroke: #1f77b4"/>
     <use xlink:href="#ma8a3037027" x="506.688312" y="115.079536" style="fill: #1f77b4; stroke: #1f77b4"/>
     <use xlink:href="#ma8a3037027" x="508.137662" y="117.130788" style="fill: #1f77b4; stroke: #1f77b4"/>
     <use xlink:href="#ma8a3037027" x="509.587013" y="124.247107" style="fill: #1f77b4; stroke: #1f77b4"/>
     <use xlink:href="#ma8a3037027" x="511.036364" y="97.258334" style="fill: #1f77b4; stroke: #1f77b4"/>
     <use xlink:href="#ma8a3037027" x="512.485714" y="116.698894" style="fill: #1f77b4; stroke: #1f77b4"/>
     <use xlink:href="#ma8a3037027" x="513.935065" y="86.393794" style="fill: #1f77b4; stroke: #1f77b4"/>
     <use xlink:href="#ma8a3037027" x="515.384416" y="111.529073" style="fill: #1f77b4; stroke: #1f77b4"/>
     <use xlink:href="#ma8a3037027" x="516.833766" y="111.441536" style="fill: #1f77b4; stroke: #1f77b4"/>
     <use xlink:href="#ma8a3037027" x="518.283117" y="90.069189" style="fill: #1f77b4; stroke: #1f77b4"/>
     <use xlink:href="#ma8a3037027" x="519.732468" y="108.400927" style="fill: #1f77b4; stroke: #1f77b4"/>
     <use xlink:href="#ma8a3037027" x="521.181818" y="75.561693" style="fill: #1f77b4; stroke: #1f77b4"/>
     <use xlink:href="#ma8a3037027" x="522.631169" y="99.061401" style="fill: #1f77b4; stroke: #1f77b4"/>
     <use xlink:href="#ma8a3037027" x="524.080519" y="103.328992" style="fill: #1f77b4; stroke: #1f77b4"/>
     <use xlink:href="#ma8a3037027" x="525.52987" y="104.279391" style="fill: #1f77b4; stroke: #1f77b4"/>
     <use xlink:href="#ma8a3037027" x="526.979221" y="101.063251" style="fill: #1f77b4; stroke: #1f77b4"/>
     <use xlink:href="#ma8a3037027" x="528.428571" y="102.449278" style="fill: #1f77b4; stroke: #1f77b4"/>
     <use xlink:href="#ma8a3037027" x="529.877922" y="110.528218" style="fill: #1f77b4; stroke: #1f77b4"/>
     <use xlink:href="#ma8a3037027" x="531.327273" y="113.985447" style="fill: #1f77b4; stroke: #1f77b4"/>
     <use xlink:href="#ma8a3037027" x="532.776623" y="108.673015" style="fill: #1f77b4; stroke: #1f77b4"/>
     <use xlink:href="#ma8a3037027" x="534.225974" y="103.433597" style="fill: #1f77b4; stroke: #1f77b4"/>
     <use xlink:href="#ma8a3037027" x="535.675325" y="105.86769" style="fill: #1f77b4; stroke: #1f77b4"/>
     <use xlink:href="#ma8a3037027" x="537.124675" y="96.548282" style="fill: #1f77b4; stroke: #1f77b4"/>
     <use xlink:href="#ma8a3037027" x="538.574026" y="91.655798" style="fill: #1f77b4; stroke: #1f77b4"/>
     <use xlink:href="#ma8a3037027" x="540.023377" y="113.128547" style="fill: #1f77b4; stroke: #1f77b4"/>
     <use xlink:href="#ma8a3037027" x="541.472727" y="93.106193" style="fill: #1f77b4; stroke: #1f77b4"/>
     <use xlink:href="#ma8a3037027" x="542.922078" y="101.676922" style="fill: #1f77b4; stroke: #1f77b4"/>
     <use xlink:href="#ma8a3037027" x="544.371429" y="97.117852" style="fill: #1f77b4; stroke: #1f77b4"/>
     <use xlink:href="#ma8a3037027" x="545.820779" y="98.284112" style="fill: #1f77b4; stroke: #1f77b4"/>
     <use xlink:href="#ma8a3037027" x="547.27013" y="99.433017" style="fill: #1f77b4; stroke: #1f77b4"/>
     <use xlink:href="#ma8a3037027" x="548.719481" y="77.896641" style="fill: #1f77b4; stroke: #1f77b4"/>
     <use xlink:href="#ma8a3037027" x="550.168831" y="92.935181" style="fill: #1f77b4; stroke: #1f77b4"/>
     <use xlink:href="#ma8a3037027" x="551.618182" y="89.530614" style="fill: #1f77b4; stroke: #1f77b4"/>
     <use xlink:href="#ma8a3037027" x="553.067532" y="88.445424" style="fill: #1f77b4; stroke: #1f77b4"/>
     <use xlink:href="#ma8a3037027" x="554.516883" y="102.429264" style="fill: #1f77b4; stroke: #1f77b4"/>
     <use xlink:href="#ma8a3037027" x="555.966234" y="99.045139" style="fill: #1f77b4; stroke: #1f77b4"/>
     <use xlink:href="#ma8a3037027" x="557.415584" y="88.275916" style="fill: #1f77b4; stroke: #1f77b4"/>
     <use xlink:href="#ma8a3037027" x="558.864935" y="90.200263" style="fill: #1f77b4; stroke: #1f77b4"/>
     <use xlink:href="#ma8a3037027" x="560.314286" y="114.071312" style="fill: #1f77b4; stroke: #1f77b4"/>
     <use xlink:href="#ma8a3037027" x="561.763636" y="108.022321" style="fill: #1f77b4; stroke: #1f77b4"/>
     <use xlink:href="#ma8a3037027" x="563.212987" y="98.350846" style="fill: #1f77b4; stroke: #1f77b4"/>
     <use xlink:href="#ma8a3037027" x="564.662338" y="95.685536" style="fill: #1f77b4; stroke: #1f77b4"/>
     <use xlink:href="#ma8a3037027" x="566.111688" y="103.244939" style="fill: #1f77b4; stroke: #1f77b4"/>
     <use xlink:href="#ma8a3037027" x="567.561039" y="100.757408" style="fill: #1f77b4; stroke: #1f77b4"/>
     <use xlink:href="#ma8a3037027" x="569.01039" y="97.920559" style="fill: #1f77b4; stroke: #1f77b4"/>
     <use xlink:href="#ma8a3037027" x="570.45974" y="110.098742" style="fill: #1f77b4; stroke: #1f77b4"/>
     <use xlink:href="#ma8a3037027" x="571.909091" y="66.96" style="fill: #1f77b4; stroke: #1f77b4"/>
     <use xlink:href="#ma8a3037027" x="573.358442" y="103.831348" style="fill: #1f77b4; stroke: #1f77b4"/>
     <use xlink:href="#ma8a3037027" x="574.807792" y="90.892743" style="fill: #1f77b4; stroke: #1f77b4"/>
     <use xlink:href="#ma8a3037027" x="576.257143" y="117.416788" style="fill: #1f77b4; stroke: #1f77b4"/>
     <use xlink:href="#ma8a3037027" x="577.706494" y="89.256141" style="fill: #1f77b4; stroke: #1f77b4"/>
     <use xlink:href="#ma8a3037027" x="579.155844" y="110.851601" style="fill: #1f77b4; stroke: #1f77b4"/>
     <use xlink:href="#ma8a3037027" x="580.605195" y="96.671554" style="fill: #1f77b4; stroke: #1f77b4"/>
     <use xlink:href="#ma8a3037027" x="582.054545" y="90.153881" style="fill: #1f77b4; stroke: #1f77b4"/>
     <use xlink:href="#ma8a3037027" x="583.503896" y="112.317531" style="fill: #1f77b4; stroke: #1f77b4"/>
     <use xlink:href="#ma8a3037027" x="584.953247" y="104.71279" style="fill: #1f77b4; stroke: #1f77b4"/>
     <use xlink:href="#ma8a3037027" x="586.402597" y="90.938617" style="fill: #1f77b4; stroke: #1f77b4"/>
     <use xlink:href="#ma8a3037027" x="587.851948" y="98.688637" style="fill: #1f77b4; stroke: #1f77b4"/>
     <use xlink:href="#ma8a3037027" x="589.301299" y="90.225483" style="fill: #1f77b4; stroke: #1f77b4"/>
     <use xlink:href="#ma8a3037027" x="590.750649" y="99.017298" style="fill: #1f77b4; stroke: #1f77b4"/>
     <use xlink:href="#ma8a3037027" x="592.2" y="100.633795" style="fill: #1f77b4; stroke: #1f77b4"/>
     <use xlink:href="#ma8a3037027" x="593.649351" y="107.294157" style="fill: #1f77b4; stroke: #1f77b4"/>
     <use xlink:href="#ma8a3037027" x="595.098701" y="76.076314" style="fill: #1f77b4; stroke: #1f77b4"/>
     <use xlink:href="#ma8a3037027" x="596.548052" y="107.359695" style="fill: #1f77b4; stroke: #1f77b4"/>
     <use xlink:href="#ma8a3037027" x="597.997403" y="105.884859" style="fill: #1f77b4; stroke: #1f77b4"/>
     <use xlink:href="#ma8a3037027" x="599.446753" y="92.791185" style="fill: #1f77b4; stroke: #1f77b4"/>
     <use xlink:href="#ma8a3037027" x="600.896104" y="100.80516" style="fill: #1f77b4; stroke: #1f77b4"/>
     <use xlink:href="#ma8a3037027" x="602.345455" y="81.570712" style="fill: #1f77b4; stroke: #1f77b4"/>
     <use xlink:href="#ma8a3037027" x="603.794805" y="115.358405" style="fill: #1f77b4; stroke: #1f77b4"/>
     <use xlink:href="#ma8a3037027" x="605.244156" y="88.489433" style="fill: #1f77b4; stroke: #1f77b4"/>
     <use xlink:href="#ma8a3037027" x="606.693506" y="96.032409" style="fill: #1f77b4; stroke: #1f77b4"/>
     <use xlink:href="#ma8a3037027" x="608.142857" y="99.798906" style="fill: #1f77b4; stroke: #1f77b4"/>
     <use xlink:href="#ma8a3037027" x="609.592208" y="99.121044" style="fill: #1f77b4; stroke: #1f77b4"/>
     <use xlink:href="#ma8a3037027" x="611.041558" y="97.881456" style="fill: #1f77b4; stroke: #1f77b4"/>
     <use xlink:href="#ma8a3037027" x="612.490909" y="121.146545" style="fill: #1f77b4; stroke: #1f77b4"/>
     <use xlink:href="#ma8a3037027" x="613.94026" y="92.312964" style="fill: #1f77b4; stroke: #1f77b4"/>
     <use xlink:href="#ma8a3037027" x="615.38961" y="110.858987" style="fill: #1f77b4; stroke: #1f77b4"/>
     <use xlink:href="#ma8a3037027" x="616.838961" y="92.521936" style="fill: #1f77b4; stroke: #1f77b4"/>
     <use xlink:href="#ma8a3037027" x="618.288312" y="110.662314" style="fill: #1f77b4; stroke: #1f77b4"/>
     <use xlink:href="#ma8a3037027" x="619.737662" y="97.806181" style="fill: #1f77b4; stroke: #1f77b4"/>
     <use xlink:href="#ma8a3037027" x="621.187013" y="96.506135" style="fill: #1f77b4; stroke: #1f77b4"/>
     <use xlink:href="#ma8a3037027" x="622.636364" y="108.482404" style="fill: #1f77b4; stroke: #1f77b4"/>
    </g>
   </g>
   <g id="line2d_15">
    <path d="M 115.363636 104.774013 
L 148.698701 105.262301 
L 173.337662 105.826145 
L 192.179221 106.462208 
L 206.672727 107.149525 
L 218.267532 107.891088 
L 228.412987 108.747694 
L 237.109091 109.705519 
L 244.355844 110.727517 
L 250.153247 111.746767 
L 255.950649 113.008825 
L 260.298701 114.16572 
L 264.646753 115.559264 
L 268.994805 117.261389 
L 271.893506 118.616296 
L 274.792208 120.193575 
L 277.690909 122.046288 
L 280.58961 124.244425 
L 283.488312 126.881707 
L 286.387013 130.085704 
L 287.836364 131.952943 
L 289.285714 134.033069 
L 290.735065 136.359634 
L 292.184416 138.972805 
L 293.633766 141.920863 
L 295.083117 145.262062 
L 296.532468 149.066908 
L 297.981818 153.420919 
L 299.431169 158.42787 
L 300.880519 164.213461 
L 302.32987 170.929103 
L 303.779221 178.755076 
L 305.228571 187.901529 
L 306.677922 198.604193 
L 308.127273 211.109174 
L 309.576623 225.637184 
L 311.025974 242.31279 
L 312.475325 261.041561 
L 316.823377 321.357135 
L 318.272727 336.766977 
L 319.722078 345.828384 
L 321.171429 347.04914 
L 322.620779 340.61752 
L 324.07013 328.325218 
L 328.418182 281.037392 
L 329.867532 267.779973 
L 331.316883 257.141025 
L 332.766234 249.29344 
L 334.215584 244.240188 
L 335.664935 241.930651 
L 337.114286 242.326115 
L 338.563636 245.429002 
L 340.012987 251.284729 
L 341.462338 259.956795 
L 342.911688 271.467241 
L 344.361039 285.688392 
L 345.81039 302.173978 
L 348.709091 337.300019 
L 350.158442 351.86586 
L 351.607792 361.043718 
L 353.057143 362.904663 
L 354.506494 357.051103 
L 355.955844 344.815012 
L 357.405195 328.625722 
L 360.303896 294.132103 
L 361.753247 279.156403 
L 363.202597 266.794187 
L 364.651948 257.303492 
L 366.101299 250.726873 
L 367.550649 247.025584 
L 369 246.157589 
L 370.449351 248.113322 
L 371.898701 252.918843 
L 373.348052 260.607384 
L 374.797403 271.151303 
L 376.246753 284.340712 
L 380.594805 330.95826 
L 382.044156 342.645301 
L 383.493506 348.272144 
L 384.942857 346.169574 
L 386.392208 336.318299 
L 387.841558 320.340281 
L 390.74026 279.912611 
L 392.18961 259.684767 
L 393.638961 241.090854 
L 395.088312 224.578918 
L 396.537662 210.214623 
L 397.987013 197.859161 
L 399.436364 187.286444 
L 400.885714 178.249749 
L 402.335065 170.514959 
L 403.784416 163.874367 
L 405.233766 158.15025 
L 406.683117 153.193561 
L 408.132468 148.880642 
L 409.581818 145.109427 
L 411.031169 141.795805 
L 412.480519 138.870411 
L 413.92987 136.275911 
L 415.379221 133.964767 
L 416.828571 131.897408 
L 418.277922 130.040765 
L 421.176623 126.852922 
L 424.075325 124.226892 
L 426.974026 122.036633 
L 429.872727 120.189447 
L 432.771429 118.616042 
L 435.67013 117.263836 
L 440.018182 115.564267 
L 444.366234 114.172112 
L 448.714286 113.015891 
L 454.511688 111.754075 
L 460.309091 110.734656 
L 467.555844 109.712177 
L 476.251948 108.753638 
L 486.397403 107.896201 
L 497.992208 107.153794 
L 512.485714 106.465618 
L 529.877922 105.870035 
L 553.067532 105.31925 
L 583.503896 104.844581 
L 622.636364 104.462182 
L 622.636364 104.462182 
" clip-path="url(#p5652123dc9)" style="fill: none; stroke-dasharray: 5.55,2.4; stroke-dashoffset: 0; stroke: #000000; stroke-width: 1.5"/>
   </g>
   <g id="patch_3">
    <path d="M 90 384.48 
L 90 51.84 
" style="fill: none; stroke: #000000; stroke-width: 0.8; stroke-linejoin: miter; stroke-linecap: square"/>
   </g>
   <g id="patch_4">
    <path d="M 648 384.48 
L 648 51.84 
" style="fill: none; stroke: #000000; stroke-width: 0.8; stroke-linejoin: miter; stroke-linecap: square"/>
   </g>
   <g id="patch_5">
    <path d="M 90 384.48 
L 648 384.48 
" style="fill: none; stroke: #000000; stroke-width: 0.8; stroke-linejoin: miter; stroke-linecap: square"/>
   </g>
   <g id="patch_6">
    <path d="M 90 51.84 
L 648 51.84 
" style="fill: none; stroke: #000000; stroke-width: 0.8; stroke-linejoin: miter; stroke-linecap: square"/>
   </g>
   <g id="text_16">
    <!-- RF Power = -30, Line Width = 0.72 MHz -->
    <g transform="translate(250.095937 45.84) scale(0.12 -0.12)">
     <defs>
      <path id="DejaVuSans-52" d="M 2841 2188 
Q 3044 2119 3236 1894 
Q 3428 1669 3622 1275 
L 4263 0 
L 3584 0 
L 2988 1197 
Q 2756 1666 2539 1819 
Q 2322 1972 1947 1972 
L 1259 1972 
L 1259 0 
L 628 0 
L 628 4666 
L 2053 4666 
Q 2853 4666 3247 4331 
Q 3641 3997 3641 3322 
Q 3641 2881 3436 2590 
Q 3231 2300 2841 2188 
z
M 1259 4147 
L 1259 2491 
L 2053 2491 
Q 2509 2491 2742 2702 
Q 2975 2913 2975 3322 
Q 2975 3731 2742 3939 
Q 2509 4147 2053 4147 
L 1259 4147 
z
" transform="scale(0.015625)"/>
      <path id="DejaVuSans-46" d="M 628 4666 
L 3309 4666 
L 3309 4134 
L 1259 4134 
L 1259 2759 
L 3109 2759 
L 3109 2228 
L 1259 2228 
L 1259 0 
L 628 0 
L 628 4666 
z
" transform="scale(0.015625)"/>
      <path id="DejaVuSans-50" d="M 1259 4147 
L 1259 2394 
L 2053 2394 
Q 2494 2394 2734 2622 
Q 2975 2850 2975 3272 
Q 2975 3691 2734 3919 
Q 2494 4147 2053 4147 
L 1259 4147 
z
M 628 4666 
L 2053 4666 
Q 2838 4666 3239 4311 
Q 3641 3956 3641 3272 
Q 3641 2581 3239 2228 
Q 2838 1875 2053 1875 
L 1259 1875 
L 1259 0 
L 628 0 
L 628 4666 
z
" transform="scale(0.015625)"/>
      <path id="DejaVuSans-77" d="M 269 3500 
L 844 3500 
L 1563 769 
L 2278 3500 
L 2956 3500 
L 3675 769 
L 4391 3500 
L 4966 3500 
L 4050 0 
L 3372 0 
L 2619 2869 
L 1863 0 
L 1184 0 
L 269 3500 
z
" transform="scale(0.015625)"/>
      <path id="DejaVuSans-3d" d="M 678 2906 
L 4684 2906 
L 4684 2381 
L 678 2381 
L 678 2906 
z
M 678 1631 
L 4684 1631 
L 4684 1100 
L 678 1100 
L 678 1631 
z
" transform="scale(0.015625)"/>
      <path id="DejaVuSans-2d" d="M 313 2009 
L 1997 2009 
L 1997 1497 
L 313 1497 
L 313 2009 
z
" transform="scale(0.015625)"/>
      <path id="DejaVuSans-33" d="M 2597 2516 
Q 3050 2419 3304 2112 
Q 3559 1806 3559 1356 
Q 3559 666 3084 287 
Q 2609 -91 1734 -91 
Q 1441 -91 1130 -33 
Q 819 25 488 141 
L 488 750 
Q 750 597 1062 519 
Q 1375 441 1716 441 
Q 2309 441 2620 675 
Q 2931 909 2931 1356 
Q 2931 1769 2642 2001 
Q 2353 2234 1838 2234 
L 1294 2234 
L 1294 2753 
L 1863 2753 
Q 2328 2753 2575 2939 
Q 2822 3125 2822 3475 
Q 2822 3834 2567 4026 
Q 2313 4219 1838 4219 
Q 1578 4219 1281 4162 
Q 984 4106 628 3988 
L 628 4550 
Q 988 4650 1302 4700 
Q 1616 4750 1894 4750 
Q 2613 4750 3031 4423 
Q 3450 4097 3450 3541 
Q 3450 3153 3228 2886 
Q 3006 2619 2597 2516 
z
" transform="scale(0.015625)"/>
      <path id="DejaVuSans-2c" d="M 750 794 
L 1409 794 
L 1409 256 
L 897 -744 
L 494 -744 
L 750 256 
L 750 794 
z
" transform="scale(0.015625)"/>
      <path id="DejaVuSans-4c" d="M 628 4666 
L 1259 4666 
L 1259 531 
L 3531 531 
L 3531 0 
L 628 0 
L 628 4666 
z
" transform="scale(0.015625)"/>
      <path id="DejaVuSans-69" d="M 603 3500 
L 1178 3500 
L 1178 0 
L 603 0 
L 603 3500 
z
M 603 4863 
L 1178 4863 
L 1178 4134 
L 603 4134 
L 603 4863 
z
" transform="scale(0.015625)"/>
      <path id="DejaVuSans-57" d="M 213 4666 
L 850 4666 
L 1831 722 
L 2809 4666 
L 3519 4666 
L 4500 722 
L 5478 4666 
L 6119 4666 
L 4947 0 
L 4153 0 
L 3169 4050 
L 2175 0 
L 1381 0 
L 213 4666 
z
" transform="scale(0.015625)"/>
      <path id="DejaVuSans-64" d="M 2906 2969 
L 2906 4863 
L 3481 4863 
L 3481 0 
L 2906 0 
L 2906 525 
Q 2725 213 2448 61 
Q 2172 -91 1784 -91 
Q 1150 -91 751 415 
Q 353 922 353 1747 
Q 353 2572 751 3078 
Q 1150 3584 1784 3584 
Q 2172 3584 2448 3432 
Q 2725 3281 2906 2969 
z
M 947 1747 
Q 947 1113 1208 752 
Q 1469 391 1925 391 
Q 2381 391 2643 752 
Q 2906 1113 2906 1747 
Q 2906 2381 2643 2742 
Q 2381 3103 1925 3103 
Q 1469 3103 1208 2742 
Q 947 2381 947 1747 
z
" transform="scale(0.015625)"/>
      <path id="DejaVuSans-68" d="M 3513 2113 
L 3513 0 
L 2938 0 
L 2938 2094 
Q 2938 2591 2744 2837 
Q 2550 3084 2163 3084 
Q 1697 3084 1428 2787 
Q 1159 2491 1159 1978 
L 1159 0 
L 581 0 
L 581 4863 
L 1159 4863 
L 1159 2956 
Q 1366 3272 1645 3428 
Q 1925 3584 2291 3584 
Q 2894 3584 3203 3211 
Q 3513 2838 3513 2113 
z
" transform="scale(0.015625)"/>
     </defs>
     <use xlink:href="#DejaVuSans-52"/>
     <use xlink:href="#DejaVuSans-46" x="69.482422"/>
     <use xlink:href="#DejaVuSans-20" x="127.001953"/>
     <use xlink:href="#DejaVuSans-50" x="158.789062"/>
     <use xlink:href="#DejaVuSans-6f" x="215.466797"/>
     <use xlink:href="#DejaVuSans-77" x="276.648438"/>
     <use xlink:href="#DejaVuSans-65" x="358.435547"/>
     <use xlink:href="#DejaVuSans-72" x="419.958984"/>
     <use xlink:href="#DejaVuSans-20" x="461.072266"/>
     <use xlink:href="#DejaVuSans-3d" x="492.859375"/>
     <use xlink:href="#DejaVuSans-20" x="576.648438"/>
     <use xlink:href="#DejaVuSans-2d" x="608.435547"/>
     <use xlink:href="#DejaVuSans-33" x="644.519531"/>
     <use xlink:href="#DejaVuSans-30" x="708.142578"/>
     <use xlink:href="#DejaVuSans-2c" x="771.765625"/>
     <use xlink:href="#DejaVuSans-20" x="803.552734"/>
     <use xlink:href="#DejaVuSans-4c" x="835.339844"/>
     <use xlink:href="#DejaVuSans-69" x="891.052734"/>
     <use xlink:href="#DejaVuSans-6e" x="918.835938"/>
     <use xlink:href="#DejaVuSans-65" x="982.214844"/>
     <use xlink:href="#DejaVuSans-20" x="1043.738281"/>
     <use xlink:href="#DejaVuSans-57" x="1075.525391"/>
     <use xlink:href="#DejaVuSans-69" x="1172.152344"/>
     <use xlink:href="#DejaVuSans-64" x="1199.935547"/>
     <use xlink:href="#DejaVuSans-74" x="1263.412109"/>
     <use xlink:href="#DejaVuSans-68" x="1302.621094"/>
     <use xlink:href="#DejaVuSans-20" x="1366"/>
     <use xlink:href="#DejaVuSans-3d" x="1397.787109"/>
     <use xlink:href="#DejaVuSans-20" x="1481.576172"/>
     <use xlink:href="#DejaVuSans-30" x="1513.363281"/>
     <use xlink:href="#DejaVuSans-2e" x="1576.986328"/>
     <use xlink:href="#DejaVuSans-37" x="1608.773438"/>
     <use xlink:href="#DejaVuSans-32" x="1672.396484"/>
     <use xlink:href="#DejaVuSans-20" x="1736.019531"/>
     <use xlink:href="#DejaVuSans-4d" x="1767.806641"/>
     <use xlink:href="#DejaVuSans-48" x="1854.085938"/>
     <use xlink:href="#DejaVuSans-7a" x="1929.28125"/>
    </g>
   </g>
   <g id="legend_1">
    <g id="patch_7">
     <path d="M 97 379.48 
L 152.876563 379.48 
Q 154.876563 379.48 154.876563 377.48 
L 154.876563 349.12375 
Q 154.876563 347.12375 152.876563 347.12375 
L 97 347.12375 
Q 95 347.12375 95 349.12375 
L 95 377.48 
Q 95 379.48 97 379.48 
z
" style="fill: #ffffff; opacity: 0.8; stroke: #cccccc; stroke-linejoin: miter"/>
    </g>
    <g id="line2d_16">
     <path d="M 99 355.222188 
L 109 355.222188 
L 119 355.222188 
" style="fill: none; stroke: #1f77b4; stroke-width: 1.5; stroke-linecap: square"/>
     <g>
      <use xlink:href="#ma8a3037027" x="109" y="355.222188" style="fill: #1f77b4; stroke: #1f77b4"/>
     </g>
    </g>
    <g id="text_17">
     <!-- Data -->
     <g transform="translate(127 358.722188) scale(0.1 -0.1)">
      <defs>
       <path id="DejaVuSans-44" d="M 1259 4147 
L 1259 519 
L 2022 519 
Q 2988 519 3436 956 
Q 3884 1394 3884 2338 
Q 3884 3275 3436 3711 
Q 2988 4147 2022 4147 
L 1259 4147 
z
M 628 4666 
L 1925 4666 
Q 3281 4666 3915 4102 
Q 4550 3538 4550 2338 
Q 4550 1131 3912 565 
Q 3275 0 1925 0 
L 628 0 
L 628 4666 
z
" transform="scale(0.015625)"/>
      </defs>
      <use xlink:href="#DejaVuSans-44"/>
      <use xlink:href="#DejaVuSans-61" x="77.001953"/>
      <use xlink:href="#DejaVuSans-74" x="138.28125"/>
      <use xlink:href="#DejaVuSans-61" x="177.490234"/>
     </g>
    </g>
    <g id="line2d_17">
     <path d="M 99 369.900312 
L 109 369.900312 
L 119 369.900312 
" style="fill: none; stroke-dasharray: 5.55,2.4; stroke-dashoffset: 0; stroke: #000000; stroke-width: 1.5"/>
    </g>
    <g id="text_18">
     <!-- Fit -->
     <g transform="translate(127 373.400312) scale(0.1 -0.1)">
      <use xlink:href="#DejaVuSans-46"/>
      <use xlink:href="#DejaVuSans-69" x="50.269531"/>
      <use xlink:href="#DejaVuSans-74" x="78.052734"/>
     </g>
    </g>
   </g>
  </g>
 </g>
 <defs>
  <clipPath id="p5652123dc9">
   <rect x="90" y="51.84" width="558" height="332.64"/>
  </clipPath>
 </defs>
</svg>
